<?xml version="1.0" standalone="no"?>
<!DOCTYPE svg PUBLIC "-//W3C//DTD SVG 1.1//EN" "http://www.w3.org/Graphics/SVG/1.1/DTD/svg11.dtd" >
<svg xmlns="http://www.w3.org/2000/svg" xmlns:xlink="http://www.w3.org/1999/xlink" version="1.1">
<metadata>
Created by FontForge 20200314 at Sun Sep 27 15:57:04 2020
 By Jochen Härtel
(c) designteam 2020
</metadata>
<defs>
<font id="Rom-Italic" horiz-adv-x="375" >
  <font-face 
    font-family="Rom"
    font-weight="400"
    font-style="italic"
    font-stretch="normal"
    units-per-em="1000"
    panose-1="2 11 4 3 3 4 3 9 2 4"
    ascent="750"
    descent="-250"
    x-height="480"
    cap-height="674"
    bbox="-184.787 -255 1012 938"
    underline-thickness="50"
    underline-position="-100"
    slope="-11"
    stemh="37"
    stemv="48"
    unicode-range="U+0020-FB04"
  />
<missing-glyph horiz-adv-x="500" 
d="M-5 0v700v5h5h500h5v-5v-700v-5h-5h-500h-5v5zM250 404.014l160.657 240.986h-321.315zM286.009 350l158.991 -238.486v476.972zM89.3426 55h321.315l-160.657 240.986zM55 588.486v-476.972l158.991 238.486z" />
    <glyph glyph-name="f_f" unicode="ff" horiz-adv-x="538" 
d="M666.136 704.953l-1.40918 -3.72266l-14 -37l-2.01953 -5.33984l-5.02734 2.70703c-11.8623 6.3877 -29.1221 9.40234 -47.6289 9.40234c-74.1763 0 -108.567 -74.5645 -126.078 -173.856l-3.062 -17.1436h111.14h6.19629l-1.30957 -6.05664l-8 -37l-0.852539 -3.94336
h-4.03418h-113.217l-86.4971 -428.942l-0.799348 -4.05762h-4.24347h-45.1888h-6.20021l1.15439 5.79785l85.115 427.202h-214.464l-83.747 -428.932l-0.771484 -4.06836h-4.14062h-45h-6.05078l1.14062 5.80762l83.8594 427.192h-59.9492h-6.19727l1.30957 6.05664l8 37
l0.853516 3.94336h4.03418h60.9346l4.1582 19.9609c11.0576 60.3145 32.4405 124.365 75.826 166.609c27.5309 25.7764 61.7404 42.4297 106.297 42.4297c23.5381 0 43.8829 -6.25488 59.9291 -14.5879l4.27055 -2.21777l-2.02094 -4.28223l-17.4593 -37l-2.39303 -5.07129
l-4.91444 2.87207c-9.17596 5.36035 -27.1237 10.2871 -42.547 10.2871c-74.4016 0 -105.783 -76.4482 -122.306 -164.938l-2.88849 -14.0625h214.247l3.44813 21.8184c13.4736 73.6699 39.2443 137.562 81.6418 177.812c26.6192 23.8447 64.2647 41.3691 103.776 41.3691
c33.6855 0 53.6289 -7.07617 63.7734 -13.8398z" />
    <glyph glyph-name="f_f_i" unicode="ffi" horiz-adv-x="743" 
d="M729.143 693.181l-1.57324 -3.32129l-18 -38l-2.32422 -4.90723l-4.7002 2.7207c-18.1592 10.5137 -50.4775 21.3271 -86.4941 21.3271c-86.9168 0 -130.933 -75.2217 -147.248 -171.897l-3.90851 -19.1025h243.156h6.04883l-1.13867 -5.81934l-92 -470.122
l-0.777344 -4.05859h-4.13281h-45.8794h-6.17649l1.14997 5.93164l83.8688 437.068h-193.284l-85.15 -438.932l-0.789296 -4.06836h-4.23622h-46.0389h-6.17649l1.14997 5.79785l84.7893 427.202h-213.643l-83.6716 -428.932l-0.771484 -4.06836h-4.14062h-45h-6.05078
l1.14062 5.80762l83.8594 427.192h-59.9492h-6.19727l1.30957 6.05664l8 37l0.853516 3.94336h4.03418h60.8701l4.21289 21.9121c10.1025 56.5684 33.5468 118.499 75.5713 160.602c28.4906 27.8477 66.6775 46.4863 115.156 46.4863
c32.8497 0 57.4467 -10.4111 74.5135 -21.8799l3.75065 -2.51953l-2.1241 -3.93457l-19.4387 -36l-2.56871 -4.75684l-4.66684 2.85059c-15.6031 9.53223 -36.2646 16.2402 -56.6275 16.2402c-29.5157 0 -53.6841 -9.54297 -72.0597 -27.5049
c-27.4015 -27.7393 -45.7632 -74.8428 -56.9292 -134.374l-3.04628 -17.1211h213.691l4.35911 23.8594c22.7187 130.207 94.9063 217.141 215.336 217.141c38.8174 0 82.4912 -11.5723 97.3916 -25.3262z" />
    <glyph glyph-name="f_f_j" unicode="ffj" horiz-adv-x="713" 
d="M729.143 693.181l-1.57324 -3.32129l-18 -38l-2.32422 -4.90723l-4.7002 2.7207c-18.1592 10.5137 -50.4775 21.3271 -86.4941 21.3271c-86.9168 0 -130.933 -73.252 -147.248 -167.397l-3.90851 -18.6025h243.156h6.05469l-1.14551 -5.90332l-93.999 -484.508
c-15.1306 -77.4961 -30.439 -128.167 -59.3362 -158.288c-27.4985 -29.7637 -64.7922 -45.3008 -104.039 -45.3008c-20.5896 0 -34.5302 1 -48.5667 5.2207l-4.35112 1.30859l0.825264 4.37695l7.16161 38l1.15996 6.15527l5.88575 -2.46582
c5.77685 -2.41992 20.8664 -4.5957 39.9314 -4.5957c45.6173 0 80.0006 26.6338 101.377 130.75l90.9936 468.25h-194.272l-85.15 -438.932l-0.789296 -4.06836h-4.23622h-46.0389h-6.17649l1.14997 5.93164l84.7893 437.068h-213.643l-83.6716 -438.932l-0.771484 -4.06836
h-4.14062h-45h-6.05078l1.14062 5.94238l83.8594 437.058h-59.9492h-6.19727l1.30957 6.05664l8 37l0.853516 3.94336h4.03418h60.8701l4.21289 21.4336c10.1025 55.333 33.5468 115.911 75.5713 157.095c28.4906 27.2393 66.6775 45.4717 115.156 45.4717
c32.8407 0 57.4597 -10.3857 73.6183 -21.9678l3.47989 -2.49512l-1.93028 -3.77344l-18.4156 -36l-2.51576 -4.91797l-4.77074 2.91406c-15.6031 9.53223 -36.2646 16.2402 -56.6275 16.2402c-29.5157 0 -53.6841 -9.54297 -72.0597 -27.5049
c-27.4015 -27.7393 -45.7632 -74.8428 -56.9292 -134.374l-3.04628 -17.1211h213.691l4.35911 23.8594c22.7187 130.207 94.9063 217.141 215.336 217.141c38.8174 0 82.4912 -11.5723 97.3916 -25.3262z" />
    <glyph glyph-name="f_f_l" unicode="ffl" horiz-adv-x="743" 
d="M417.03 685.603l-2.28919 -4.03027l-20.4371 -36l-2.61152 -4.60254l-4.56242 2.79004c-15.4466 9.44824 -36.0543 15.2402 -56.5593 15.2402c-31.3302 0 -54.4078 -11.3154 -73.0267 -29.5352c-31.4081 -30.7373 -48.7457 -81.8047 -58.8774 -132.374l-3.03762 -17.0908
h213.484l3.2871 16.8896c13.3719 76.5029 40.3922 138.014 94.8399 180.026c35.8018 27.8232 86.8616 44.084 134.811 44.084c43.7705 0 87.4258 -10.8945 108.867 -25.9043l2.64746 -1.85254l-0.602539 -3.1748l-132.275 -686l-0.788345 -4.06836h-4.23112h-45.9835
h-6.17404l1.15458 5.84668l127.793 653.515c-13.25 6.85938 -29.833 11.6387 -64.5277 11.6387c-92.5088 0 -139.22 -69.7227 -158.48 -165.95l-4.9546 -25.0498h110.298h6.33171l-1.33819 -6.05664l-8.17484 -37l-0.871171 -3.94336h-4.12235h-111.238l-85.0475 -428.932
l-0.788345 -4.06836h-4.23112h-45.9835h-6.16905l1.14859 5.79785l84.6872 427.202h-213.386l-83.6479 -428.932l-0.771484 -4.06836h-4.14062h-45h-6.05078l1.14062 5.80762l83.8594 427.192h-59.9492h-6.19727l1.30957 6.05664l8 37l0.853516 3.94336h4.03418h60.8701
l4.21191 21.9043c10.0947 57.5381 33.6026 118.626 76.5743 159.653c29.3693 28.7412 67.6081 47.4424 117.016 47.4424c31.7763 0 59.1907 -10.2744 75.3857 -20.8398z" />
    <glyph glyph-name="f_i" unicode="fi" horiz-adv-x="480" 
d="M101.178 0h-4.14062h-44h-6.03711l1.125 5.79785l82.875 427.202h-58.9629h-6.03418l1.12109 5.92969l7 37l0.770508 4.07031h4.14258h61.8135l4.2627 23.8711c23.2881 131.184 96.9347 217.129 219.924 217.129c39.8594 0 82.4775 -11.6816 98.2539 -25.2041
l2.96387 -2.54004l-1.74512 -3.49219l-19 -38l-2.43457 -4.86816l-4.64551 2.83789c-17.0508 10.4209 -49.3477 21.2666 -86.3926 21.2666c-88.7134 0 -134.325 -75.3174 -152.239 -171.826l-3.24965 -19.1738h247.488h6.03711l-1.125 -5.80957l-91 -470.122
l-0.770508 -4.06836h-4.1416h-47.258h-6.3938l1.19147 5.79785l85.4232 427.202h-199.748l-84.3025 -428.932z" />
    <glyph glyph-name="f_j" unicode="fj" horiz-adv-x="450" 
d="M465.129 693.181l-1.57324 -3.32129l-18 -38l-2.32422 -4.90723l-4.69922 2.7207c-18.2021 10.5381 -49.4609 21.3271 -86.4951 21.3271c-88.6774 0 -134.306 -73.3457 -152.226 -167.328l-3.25086 -18.6719h247.477h6.04297l-1.13086 -5.89355l-93.002 -484.518
c-15.2673 -77.5312 -32.2542 -128.25 -62.0623 -158.253c-27.4233 -29.8096 -67.1496 -45.3359 -106.716 -45.3359c-21.2534 0 -34.8745 0.976562 -47.7133 5.25684l-4.01855 1.33887l0.661133 4.18457l6 38l0.956055 6.05371l5.73828 -2.15234
c6.98242 -2.61816 20.7419 -4.68164 40.4954 -4.68164c46.1794 0 82.8555 27.3047 104.981 133.813l91.7312 465.187h-199.732l-83.3181 -438.921l-0.763672 -4.0791h-4.15039h-45h-6.03711l1.125 5.93164l82.875 437.068h-58.9629h-6.03418l1.12109 5.92969l7 37
l0.770508 4.07031h4.14258h61.8135l4.26074 23.3652c22.2229 127.494 96.9606 212.635 219.926 212.635c39.8086 0 82.5215 -11.5996 97.3916 -25.3262z" />
    <glyph glyph-name="f_l" unicode="fl" horiz-adv-x="480" 
d="M101.178 0h-4.14062h-44h-6.03711l1.125 5.79785l82.875 427.202h-58.9629h-6.03418l1.12109 5.92969l7 37l0.770508 4.07031h4.14258h61.8623l3.2207 16.9062c14.0928 76.502 40.3412 137.965 96.4205 180.01c36.8473 27.8232 89.3967 44.084 138.497 44.084
c43.7705 0 87.4258 -10.8945 108.867 -25.9043l2.64746 -1.85254l-0.602539 -3.1748l-132.651 -686l-0.811344 -4.06836h-4.35455h-47.325h-6.35416l1.18826 5.84668l129.786 653.425c-14.2627 7.05371 -29.7539 11.7285 -64.6755 11.7285
c-95.2076 0 -143.281 -69.7227 -163.104 -165.95l-5.09914 -25.0498h113.516h6.51643l-1.37723 -6.05664l-8.41333 -37l-0.896586 -3.94336h-4.24261h-115.535l-84.1677 -428.932z" />
    <glyph glyph-name=".notdef" horiz-adv-x="500" 
d="M-5 0v700v5h5h500h5v-5v-700v-5h-5h-500h-5v5zM250 404.014l160.657 240.986h-321.315zM286.009 350l158.991 -238.486v476.972zM89.3426 55h321.315l-160.657 240.986zM55 588.486v-476.972l158.991 238.486z" />
    <glyph glyph-name="space" unicode=" " horiz-adv-x="180" 
 />
    <glyph glyph-name="exclam" unicode="!" horiz-adv-x="215" 
d="M117 172h-39h-5.96308l1.03967 5.87175l88 497l0.730957 4.12825h4.19246h56h6.1667l-1.27469 -6.03352l-105 -497l-0.837988 -3.96648h-4.05403zM68 -16h-1c-26.4451 0 -43 23.1193 -43 49c0 28.1371 18.7225 51 46 51c28.2467 0 45 -22.9743 45 -49
c0 -26.1505 -18.6407 -51 -47 -51z" />
    <glyph glyph-name="quotedbl" unicode="&#x22;" horiz-adv-x="253" 
d="M126 697h57h6.39686l-1.54486 -6.20751l-55 -221l-0.943832 -3.79249h-3.90817h-32h-5.72459l0.770031 5.67256l30 221l0.587435 4.32744h4.36712zM249 697h57h6.39686l-1.54486 -6.20751l-55 -221l-0.943832 -3.79249h-3.90817h-32h-5.72459l0.770031 5.67256l30 221
l0.587435 4.32744h4.36712z" />
    <glyph glyph-name="numbersign" unicode="#" horiz-adv-x="462" 
d="M182.767 250h81.5387l47.9277 156h-81.5387zM101 -5h-41h-6.77942l2.00252 6.47691l61.9975 200.523h-76.2206h-6.00518l1.08791 5.90581l7 38l0.754192 4.09419h4.16307h84.3055l47.9277 156h-81.2332h-6.03464l1.12179 5.92946l7 37l0.770102 4.07054h4.14275h89.3219
l61.9049 198.489l1.09511 3.51132h3.67813h39h6.79694l-2.0237 -6.48868l-60.9763 -195.511h82.5249l61.9049 198.489l1.09511 3.51132h3.67813h39h6.76487l-1.98495 -6.4671l-60.015 -195.533h76.2351h6.03464l-1.12179 -5.92946l-7 -37l-0.770102 -4.07054h-4.14275
h-84.3055l-47.9277 -156h82.2332h6.03464l-1.12179 -5.92946l-7 -37l-0.770102 -4.07054h-4.14275h-89.3071l-62.914 -204.47l-1.08602 -3.52957h-3.69287h-40h-6.7698l1.9909 6.47043l62.0091 201.53h-81.5373l-62.914 -204.47l-1.08602 -3.52957h-3.69287z" />
    <glyph glyph-name="dollar" unicode="$" horiz-adv-x="482" 
d="M198.046 -95h-4.40942h-40.4932h-6.05273l1.14355 5.94434l18.9062 98.3145c-41.4248 2.63281 -89.0762 20.8018 -114.022 39.7607l-3.11816 2.37012l1.55469 3.59473l16 37l2.37793 5.49902l4.98535 -3.32324c29.6035 -19.7363 66.5508 -38.1602 116.584 -38.1602
c84.1449 0 152.642 53.2197 152.642 131c0 49.2764 -19.9139 89.3018 -86.8641 123.602c-92.216 46.376 -127.136 96.0342 -127.136 157.398c0 84.3086 73.5421 158.778 170.034 167.653l20.5815 99.2998l0.839145 4.04688h4.40004h40.1449h6.06445l-1.15527 -5.95312
l-18.9111 -97.3896c44.6465 -3.41895 78.6357 -19.2793 93.4043 -32.9932l2.74609 -2.54883l-1.67578 -3.35156l-17 -34l-2.23633 -4.47168l-3.72656 1.86328l-0.745117 0.373047c-18.5049 9.25195 -45.9902 28.4717 -99.0444 28.4717
c-85.0039 0 -136.632 -50.9043 -136.632 -115c0 -50.7822 21.0891 -76.8105 99.7812 -117.656c78.5482 -44.5518 112.13 -95.1504 112.13 -156.344c0 -104.896 -71.5135 -177.016 -179.649 -190.512l-20.6169 -100.433z" />
    <glyph glyph-name="percent" unicode="%" horiz-adv-x="734" 
d="M74 402c0 119.544 63.0918 264 176.471 264h1.02674c83.245 0 111.914 -72.0352 111.914 -132c0 -142.495 -67.9171 -276 -177.412 -276c-74.8008 0 -112 62.7861 -112 144zM310.021 525c0 43.1934 -12.2757 97 -65.7112 97h-1.02674
c-67.7024 0 -118.283 -114.918 -118.283 -221c0 -51.9092 13.5723 -99 67 -99c68.0211 0 118.021 117.774 118.021 223zM155.533 -13h-2.5332h-44h-9.87012l5.83887 7.95801l506 676l1.49805 2.04199h2.5332h44h9.87012l-5.83887 -7.95801l-506 -676zM408.588 134
c0 118.576 65.8115 264 180.412 264h1c80.126 0 108 -72.0869 108 -133c0 -142.513 -66.1709 -275 -174.417 -275c-76.7667 0 -114.995 61.7754 -114.995 144zM646 257c0 42.2705 -10.9932 97 -64 97h-1c-68.0635 0 -119.021 -115.85 -119.021 -222
c0 -50.9424 12.8974 -98 68.7914 -98c66.5024 0 115.23 117.754 115.23 223z" />
    <glyph glyph-name="ampersand" unicode="&#x26;" horiz-adv-x="542" 
d="M486 -5h-53h-2.35497l-1.49984 1.81559c-17.9323 21.7075 -32.8072 42.3875 -50.0004 68.3859c-64.5805 -61.4413 -125.559 -81.2015 -194.145 -81.2015c-113.897 0 -172 80.6914 -172 168c0 109.037 90.0919 185.824 170.825 225.06
c-26.2423 49.0422 -36.825 88.2193 -36.825 128.94c0 97.1006 68.5967 184 163 184c86.4136 0 119 -64.4053 119 -127c0 -83.1232 -56.2875 -149.731 -175.288 -204.885c42.4985 -73.2378 95.8301 -158.022 134.484 -214.568
c37.9648 51.0906 70.3139 117.832 102.056 214.02l1.13293 3.43311h3.61522h45h6.99659l-2.26612 -6.61944c-37.4792 -109.479 -77.8195 -192.099 -129.304 -251.627c23.9409 -32.1923 44.5418 -62.9333 74.4482 -99.5928l6.65736 -8.16063h-10.5317zM195 32h1
c61.3833 0 116.623 28.9598 156.774 72.5769c-31.0031 50.071 -92.4091 139.329 -147.62 233.661c-54.2817 -30.5997 -136.155 -86.0852 -136.155 -181.238c0 -71.5648 45.7288 -125 126 -125zM305 643h-1c-56.3656 0 -103 -54.7886 -103 -131
c0 -38.8101 9.4136 -75.1724 30.1535 -115.361c97.0509 48.2885 143.847 95.3794 143.847 163.361c0 42.8616 -17.8078 83 -70 83z" />
    <glyph glyph-name="quoteright" unicode="&#x2019;" horiz-adv-x="156" 
d="M156.15 686.927l58 10l8.93304 1.54018l-3.46267 -8.37742c-31.2402 -75.5812 -94.0134 -189.28 -115.621 -218.09l-1.24264 -1.65685l-2.05025 -0.292893l-35 -5l-10.1204 -1.44578l5.07213 8.87622c23.6672 41.4176 70.7586 149.575 91.6055 211.123l0.954412 2.81779z
" />
    <glyph glyph-name="parenleft" unicode="(" horiz-adv-x="265" 
d="M291 697h48h11.4766l-7.81491 -8.40472c-105.489 -113.451 -220.662 -292.28 -220.662 -531.595c0 -86.3055 17.8345 -178.526 63.5177 -274.858l3.38713 -7.14243h-7.90487h-39h-3.01041l-1.40853 2.66056c-45.3218 85.6079 -69.5811 172.603 -69.5811 285.339
c0 245.792 127.856 431.875 219.302 532.365l1.48766 1.6348h2.21036z" />
    <glyph glyph-name="parenright" unicode=")" horiz-adv-x="265" 
d="M-3 -125h-48h-11.4087l7.73223 8.38874c105.498 114.456 220.676 294.294 220.676 533.611c0 86.3044 -17.8308 177.511 -63.5091 272.839l-3.43112 7.1606h7.9402h39h2.97675l1.41879 -2.61688c45.3507 -83.6469 69.6045 -170.656 69.6045 -284.383
c0 -244.799 -127.864 -430.875 -219.269 -533.329l-1.49113 -1.67138h-2.23986z" />
    <glyph glyph-name="asterisk" unicode="*" horiz-adv-x="391" 
d="M334.572 689.287l40 -24l4.96944 -2.98166l-3.67774 -4.47883l-95.3251 -116.089l135.083 10.2477l6.83542 0.518549l-1.5943 -6.66709l-11 -46l-1.00236 -4.1917l-4.29368 0.373363l-129.358 11.2485l70.0369 -112.627l2.72736 -4.38589l-4.47197 -2.5838l-45 -26
l-4.99282 -2.88474l-2.14853 5.35105l-50.1142 124.813l-79.0041 -126.597l-2.92352 -4.68468l-4.37228 3.3729l-35 27l-4.1109 3.17126l3.32381 3.98857l93.9871 112.784l-130.69 -11.9646l-6.50033 -0.595101l1.11843 6.43098l8 46l0.775574 4.45955l4.51448 -0.329524
l128.593 -9.38637l-69.229 113.801l-2.72835 4.48496l4.61246 2.50677l46 25l4.94129 2.68548l2.08866 -5.22165l49.0441 -122.61l74.0174 124.311l2.56664 4.31064z" />
    <glyph glyph-name="plus" unicode="+" horiz-adv-x="596" 
d="M289 537h40h5v-5v-241h221h5v-5v-38v-5h-5h-221v-243v-5h-5h-40h-5v5v243h-222h-5v5v38v5h5h222v241v5h5z" />
    <glyph glyph-name="comma" unicode="," horiz-adv-x="181" 
d="M5.63582 -125.959l-39 -5l-9.73585 -1.24819l4.71454 8.60917c22.7208 41.4902 69.7837 149.647 88.6049 211.063l0.914425 2.98391l3.0823 0.489253l63 10l8.69643 1.38039l-3.27021 -8.17552c-30.2422 -75.6054 -92.0086 -189.298 -113.642 -218.143l-1.268 -1.69067z
" />
    <glyph glyph-name="hyphen" unicode="-" horiz-adv-x="298" 
d="M50 301h227h6.04228l-1.13058 -5.93556l-8 -42l-0.774179 -4.06444h-4.13751h-227h-6.04228l1.13058 5.93556l8 42l0.774179 4.06444h4.13751z" />
    <glyph glyph-name="period" unicode="." horiz-adv-x="181" 
d="M62 -16h-1c-25.4296 0 -43 23.0088 -43 49c0 28.3001 19.8472 51 47 51c28.3617 0 44 -23.1552 44 -49c0 -26.0407 -17.5937 -51 -47 -51z" />
    <glyph glyph-name="slash" unicode="/" horiz-adv-x="327" 
d="M-17 -45h-45h-8.83095l4.54349 7.57248l435 725l1.45651 2.42752h2.83095h47h8.85185l-4.56961 -7.58116l-437 -725l-1.45798 -2.41884h-2.82427z" />
    <glyph glyph-name="zero" unicode="0" horiz-adv-x="482" 
d="M45 206.76c0 221.144 117.862 454.24 285.441 454.24c119.947 0 150.559 -104.053 150.559 -194.111c0 -214.732 -100.5 -477.889 -282.28 -477.889c-115.102 0 -153.72 99.1387 -153.72 217.76zM425 458.684c0 55.9824 -8.45508 154.316 -98.7742 154.316
c-124.664 0 -224.226 -215.155 -224.226 -409.872c0 -78.1309 17.1016 -165.128 105.151 -165.128c136.765 0 217.849 264.71 217.849 420.684z" />
    <glyph glyph-name="one" unicode="1" horiz-adv-x="472" 
d="M180.979 -10l1.13086 5.93652l112.238 588.755l-93.9014 -52.0645l-5.30859 -2.94336l-1.87207 5.77344l-12 37l-1.2666 3.9043l3.58203 2.00293l127 71l1.1377 0.635742h1.30273h42h6.04395l-1.13281 -5.93652l-124 -650l-0.775391 -4.06348h-4.13574h-44h-6.04297z" />
    <glyph glyph-name="two" unicode="2" horiz-adv-x="482" 
d="M382.104 -10h-4.0791h-370h-6.02441l1.11035 5.92188l6 32l0.311523 1.66309l1.25781 1.13184l70.041 63.0371c209.005 173.298 322.304 289.362 322.304 411.246c0 46.751 -19.6191 106 -103.914 106c-59.9398 0 -107.052 -30.1396 -135.006 -51.876l-5.07036 -3.94336
l-2.92454 5.58301l-17.8133 34l-1.83372 3.49902l3.11794 2.54004c43.9602 35.8135 109.836 60.1973 165.817 60.1973c122.05 0 155.627 -87.457 155.627 -152c0 -145.184 -140.924 -282.986 -329.334 -435.822l-41.2891 -34.1777h295.623h6.12988l-1.23145 -6.00488l-8 -39
z" />
    <glyph glyph-name="three" unicode="3" horiz-adv-x="482" 
d="M21 33.043l1.66797 3.24414l18 35l2.41113 4.68848l4.55469 -2.65625c23.9473 -13.9697 58.7988 -34.3193 113.591 -34.3193c133.115 0 185.889 93.4863 185.889 166.146c0 89.9844 -71.1733 124.854 -144.624 124.854h-39.1497h-6.35377l1.1511 5.90625l7.40671 38
l0.797709 4.09375h4.40497h41.2659c59.8974 0 173.101 46.2656 173.101 142.933c0 57.3545 -30.4131 90.0674 -96.9173 90.0674c-45.3061 0 -89.7774 -15.6748 -119.452 -37.918l-5.16651 -3.87109l-2.87981 5.60449l-17.9877 35l-1.98849 3.90039l3.7854 2.42676
c39.8865 25.4707 92.6882 44.8574 150.037 44.8574c112.65 0 148.569 -74.9199 148.569 -134.006c0 -86.8867 -67.0312 -148.152 -135.435 -172.295c69.0937 -24.0107 98.4355 -87.1562 98.4355 -148.925c0 -115.187 -97.2585 -216.774 -249.122 -216.774
c-63.9768 0 -114.008 22.0596 -133.413 41.4648z" />
    <glyph glyph-name="four" unicode="4" horiz-adv-x="482" 
d="M320.313 -5h-4.35546h-45.1352h-6.32356l1.16549 5.92188l36.6221 186.078h-284.031h-6.25488l1.37793 6.03613l7 30.667l0.275391 1.20801l0.818359 0.9375l379 422.421l1.49609 1.73047h2.28711h37h6.04492l-1.13379 -5.86719l-78.8662 -408.133h89.9551h6.12988
l-1.23145 -6.00488l-8 -39l-0.820312 -3.99512h-4.07812h-91.8506l-36.2888 -187.922zM323.039 486.69l-230.463 -250.69h220.087l50.6829 258.95c4.78809 24.7344 10.5176 50.1318 15.7402 72.209c-20.584 -30.8008 -32.9736 -53.0605 -55.8937 -80.2979
l-0.074829 -0.0869141z" />
    <glyph glyph-name="five" unicode="5" horiz-adv-x="482" 
d="M481.375 650l-1.16211 -5.95801l-8 -41l-0.789062 -4.04199h-4.11816h-219.386l-63.3027 -187.786c10.9366 1.38867 18.0015 1.78613 28.0612 1.78613c25.049 0 71.5952 -7.99219 108.106 -26.2441c61.9116 -29.7021 85.521 -92.084 85.521 -144.739
c0 -156.067 -126.107 -253.017 -260.613 -253.017c-55.5681 0 -106.184 20.0625 -125.458 35.0537l-3.23535 2.51562l1.83301 3.66699l18 36l2.44824 4.89648l4.65625 -2.88184c20.1846 -12.4951 62.4971 -29.251 112.222 -29.251c108.757 0 192.583 90.084 192.583 190.066
c0 73.8164 -34.1602 133.934 -156.997 133.934c-23.7571 0 -44.5173 -1.97852 -70.0415 -3.98438l-7.34473 -0.586914l2.16699 6.99902l91.1499 281.043l1.13659 3.5293h3.86564h262.627h6.06934z" />
    <glyph glyph-name="six" unicode="6" horiz-adv-x="482" 
d="M207.338 558.192c63.9632 53.6777 133.343 84.668 193.544 95.6855c22.6045 6.16504 42.8906 7.12207 58.1182 7.12207h5.74609l-0.793945 -5.69141l-6 -43l-0.601562 -4.30859h-4.35059c-15.8066 0 -37.3105 -0.950195 -61.8701 -6.68359
c-111.615 -23.7871 -219.698 -116.693 -272.99 -255.502c43.4738 50.3193 109.993 83.1855 170.876 83.1855c112.459 0 159.984 -82.5215 159.984 -176c0 -121.511 -95.1982 -264 -238.171 -264c-117.407 0 -172.829 87.3037 -172.829 205.903
c0 152.494 86.7002 295.452 169.338 363.289zM276.337 379c-58.9042 0 -125.721 -38.0869 -167.03 -103.033c-4.93848 -8.76074 -9.43848 -17.874 -10.3271 -27.5059l-0.0214844 -0.232422l-0.0439453 -0.229492c-2.96387 -15.582 -5.91406 -35.9492 -5.91406 -60.1953
c0 -89.3281 40.6221 -149.804 123.112 -149.804h1.05658c97.1247 0 174.832 107.023 174.832 214.85c0 84.7949 -39.8662 126.15 -115.663 126.15z" />
    <glyph glyph-name="seven" unicode="7" horiz-adv-x="482" 
d="M146.995 650h4.18262h367h5.92969l-1.00195 -5.84473l-6 -35l-0.166992 -0.974609l-0.525391 -0.837891c-128.712 -203.998 -263.587 -410.02 -400.041 -615.064l-1.47852 -2.27832h-2.71582h-49h-9.17773l4.97656 7.71094
c130.559 201.271 265.101 403.769 395.014 603.289h-309.812h-5.97754l1.05566 5.88379l7 39z" />
    <glyph glyph-name="eight" unicode="8" horiz-adv-x="482" 
d="M114 481.669c0 97.5068 87.0706 179.331 201.281 179.331h1.05208c92.1501 0 153.667 -60.3232 153.667 -142.874c0 -80.5654 -54.5547 -139.966 -131.599 -177.089c70.6006 -39.8467 97.5986 -98.8398 97.5986 -158.911c0 -120.578 -106.99 -193.126 -218.562 -193.126
c-117.621 0 -189.438 68.9365 -189.438 160.61c0 104.593 78.3135 170.559 160.257 202.68c-55.3191 38.6553 -74.2566 81.7227 -74.2566 129.379zM85 156c0 -59.6191 39.8262 -119 131.385 -119h1.05208c95.4046 0 162.562 59.999 162.562 144
c0 70.4521 -36.0053 115.101 -133.328 147.779c-80.7864 -20.1729 -161.672 -75.748 -161.672 -172.779zM414 509c0 45.6025 -19.4531 104 -107.135 104h-1.05208c-78.0021 0 -136.771 -60.6631 -136.771 -130c0 -54.5781 29.445 -94.1211 108.426 -120.726
c80.2059 25.1416 136.532 78.3906 136.532 146.726z" />
    <glyph glyph-name="nine" unicode="9" horiz-adv-x="482" 
d="M62 -10.7393l0.634766 5.33008l5 42l0.524414 4.40918h4.44043c16.5703 0 39.5293 1.94531 61.0215 5.75195c44.9121 9.51172 97.8684 33.4336 146.972 75.7783c46.6916 38.9404 92.6369 99.4248 124.486 181.449c-46.5099 -48.2812 -106.294 -73.9795 -163.219 -73.9795
c-116.078 0 -155.26 93.6377 -155.26 168.051c0 127.539 100.596 262.949 237.753 262.949c118.132 0 161.247 -93.5635 161.247 -193.126c0 -166.443 -100.617 -321.99 -174.675 -385.024c-53.5701 -42.9219 -114.397 -72.7959 -171.218 -85.8447
c-23.3574 -5.00391 -50.5283 -9.02246 -72.3447 -7.99902zM429.6 470.137c0 83.8818 -28.8848 141.863 -110.535 141.863h-1.0576c-96.3587 0 -175.408 -100.231 -175.408 -209.84c0 -69.4121 33.458 -122.16 109.836 -122.16c62.2912 0 120.642 35.2461 156.948 91.3135
l0.102539 0.157227l0.113281 0.149414c5.7373 7.53711 10.2939 15.7305 12.1016 24.6348c3.94922 18.4775 7.89844 45.7432 7.89844 73.8818z" />
    <glyph glyph-name="colon" unicode=":" horiz-adv-x="181" 
d="M133 356h-1c-25.4296 0 -43 23.0088 -43 49c0 28.3001 19.8472 51 47 51c28.4056 0 44 -23.2331 44 -50c0 -25.1233 -17.6524 -50 -47 -50zM62 -16h-1c-25.4296 0 -43 23.0088 -43 49c0 28.3001 19.8472 51 47 51c28.3617 0 44 -23.1552 44 -49
c0 -26.0407 -17.5937 -51 -47 -51z" />
    <glyph glyph-name="semicolon" unicode=";" horiz-adv-x="181" 
d="M5.63582 -125.959l-39 -5l-9.73585 -1.24819l4.71454 8.60917c22.7208 41.4902 69.7837 149.647 88.6049 211.063l0.914425 2.98391l3.0823 0.489253l63 10l8.69643 1.38039l-3.27021 -8.17552c-30.2422 -75.6054 -92.0086 -189.298 -113.642 -218.143l-1.268 -1.69067z
M139 356h-1c-26.3281 0 -44 22.9395 -44 49c0 28.3001 19.8472 51 47 51c28.4056 0 44 -23.2331 44 -50c0 -25.0645 -17.5701 -50 -46 -50z" />
    <glyph glyph-name="less" unicode="&#x3c;" horiz-adv-x="596" 
d="M90 249v34v2.88581l2.49878 1.44361l431 249l7.50122 4.33365v-8.66307v-45v-2.90161l-2.51931 -1.4396l-379.153 -216.659l379.153 -216.659l2.51931 -1.4396v-2.90161v-45v-8.66307l-7.50122 4.33365l-431 249l-2.49878 1.44361v2.88581z" />
    <glyph glyph-name="equal" unicode="=" horiz-adv-x="596" 
d="M558 342h-493h-5v5v38v5h5h493h5v-5v-38v-5h-5zM558 150h-493h-5v5v38v5h5h493h5v-5v-38v-5h-5z" />
    <glyph glyph-name="greater" unicode="&#x3e;" horiz-adv-x="596" 
d="M539 283v-34v-2.88581l-2.49878 -1.44361l-431 -249l-7.50122 -4.33365v8.66307v45v2.90161l2.51931 1.4396l379.153 216.659l-379.153 216.659l-2.51931 1.4396v2.90161v45v8.66307l7.50122 -4.33365l431 -249l2.49878 -1.44361v-2.88581z" />
    <glyph glyph-name="question" unicode="?" horiz-adv-x="351" 
d="M169 170h-43h-5.58633l0.616906 5.55216c0.960031 8.64028 0.969419 17.4512 0.969419 25.4478v0.184932l0.0136612 0.184427c4.11404 55.5395 34.8053 123.486 103.365 196.079c48.0374 50.0389 89.6211 99.8756 89.6211 163.552c0 39.2575 -18.1384 79 -81 79
c-33.0032 0 -64.0594 -9.68036 -92.3632 -27.2482l-5.24349 -3.25458l-2.09609 5.80456l-13 36l-1.4196 3.93119l3.61719 2.09416c38.6904 22.3997 79.5589 33.6729 119.505 33.6729c100.315 0 131 -74.1883 131 -123c0 -79.2066 -48.3655 -141.435 -111.404 -205.474
c-54.5618 -57.5379 -79.7493 -104.439 -84.6165 -157.978c0 0 -3.52087 -27.7494 -4.07656 -30.5279l-0.803884 -4.01942h-4.09902zM118 -16h-1c-25.4296 0 -43 23.0088 -43 49c0 28.3001 19.8472 51 47 51c28.3617 0 44 -23.1552 44 -49c0 -26.0407 -17.5937 -51 -47 -51z
" />
    <glyph glyph-name="at" unicode="@" horiz-adv-x="702" 
d="M440.099 258.992l24.1353 119.711c-12.3965 4.014 -30.3589 8.29742 -56.2346 8.29742c-97.7607 0 -181 -92.3673 -181 -200c0 -45.9914 25.0799 -79 73 -79c65.9126 0 127.31 88.0278 140.099 150.992zM492.596 -26.0304l15 -35l1.7093 -3.98836l-3.70794 -2.25385
c-52.0523 -31.6396 -113.003 -42.7274 -172.597 -42.7274c-176.677 0 -305 123.469 -305 317c0 209.145 139.8 391 363 391c175.804 0 288 -125.573 288 -294c0 -154.644 -86.2764 -243 -174 -243c-36.6811 0 -74.6118 26.3658 -73.7966 86.5853
c-38.2984 -59.14 -84.8674 -86.5853 -147.203 -86.5853c-57.0359 0 -110 48.6421 -110 127c0 128.614 105.044 246 243 246c42.6408 0 75.3804 -8.16335 102.886 -19.3695l3.85196 -1.56932l-0.84196 -4.07327l-37.0002 -179.001
c-5.16784 -24.9779 -7.64279 -45.9429 -7.70209 -62.9659c-0.146455 -42.0357 13.3763 -58.0211 35.895 -58.0211c51.3552 -1.83411 110.911 70.8331 110.911 186c0 152.814 -87.8937 256 -241 256c-166.017 0 -303 -132.343 -303 -341c0 -163.627 102.808 -272 258 -272
c52.1597 0 107.373 13.8791 146.35 38.24l4.94748 3.09217z" />
    <glyph glyph-name="A" unicode="A" horiz-adv-x="557" 
d="M450.403 4.26953l-34.3691 232.73h-257.439l-124.815 -234.318l-1.40332 -2.68164h-3.02734h-47h-8.34961l3.94238 7.25293l369.712 664.107l1.46436 2.63965h3.09962h45.1315h4.30078l0.643555 -4.25195l102 -664.084l0.870117 -5.66406h-5.81445h-44h-4.31543z
M309.16 500.664l-121.253 -219.664h219.631l-33.5276 219.334c-3.66595 30.0977 -9.07031 71.6455 -12.3085 105.878c-16.4659 -34.6162 -31.9559 -67.5986 -52.5418 -105.548z" />
    <glyph glyph-name="B" unicode="B" horiz-adv-x="500" 
d="M40 5.02441l0.931641 4.8252l126.349 652.334l0.665663 3.27832l3.4914 0.637695c37.992 6.93066 81.4273 12.9004 131.238 12.9004c72.9945 0 123.581 -17.9219 155.98 -53.9727c23.0566 -27.8896 30.1885 -59.708 30.1885 -95.8369
c0 -82.8066 -67.3506 -149.158 -144.388 -172.189c58.1443 -19.5869 108.35 -68.6074 107.388 -150.128c0 -67.748 -35.8545 -123.235 -75.8477 -155.577c-54.5826 -41.4482 -127.314 -56.2959 -208.808 -56.2959c-47.5649 0 -90.7758 2.99121 -122.294 9.09082z
M293.223 631c-32.2226 0 -60.6471 -1.94336 -75.2466 -5.7334l-49.6929 -243.267h67.1735c111.791 0 196.387 57.5449 196.387 149.008c0 69.8965 -51.0742 99.9922 -138.621 99.9922zM239.658 335h-81.6609l-54.293 -285.926
c23.6934 -3.35352 47.7021 -4.07422 70.8595 -4.07422c115.506 -0.973633 220.28 44.1533 220.28 166.136c0 81.9561 -71.7389 123.864 -155.186 123.864z" />
    <glyph glyph-name="C" unicode="C" horiz-adv-x="558" 
d="M488.205 74.4688l1.62988 -6.19629l10 -38l1.06738 -4.05469l-3.80664 -1.75781c-40.4561 -18.3242 -105.132 -35.46 -180.33 -35.46c-171.616 0 -268.766 109.254 -268.766 278.006c0 110.593 42.3203 233.098 129.887 315.11
c73.2056 65.8652 165.457 102.884 270.082 102.884c77.7309 0 132.745 -19.6426 149.566 -36.4648l2.6084 -2.60742l-1.72168 -3.26172l-19 -36l-2.54297 -4.81836l-4.58301 2.94629c-26.7822 17.2178 -74.9727 30.2061 -136.724 30.2061
c-79.157 0 -161.628 -31.9678 -220.557 -87.1006c-68.3832 -64.8066 -110.015 -168.849 -110.015 -272.859c0 -124.609 50.4863 -236.04 221.064 -236.04c54.0873 0 116.494 11.0254 156.527 32.3809z" />
    <glyph glyph-name="D" unicode="D" horiz-adv-x="646" 
d="M40 1.45898l1.02734 5.38477l125.173 655.328l0.664007 3.38379l3.54505 0.566406c49.6378 7.92578 104.428 12.8779 161.316 12.8779c121.324 0 211.999 -36.7949 259.227 -100.546c25.7324 -33.4766 47.9883 -90.7178 47.9883 -166.549
c0 -116.486 -45.3057 -241.982 -135.135 -320.088c-81.3996 -66.9932 -183.558 -96.8174 -306.835 -96.8174c-46.1765 0 -101.271 2.00293 -151.429 6.01562zM325.554 630c-33.4967 0 -79.5964 -1.97461 -109.778 -7.14844l-111.933 -573.625
c36.582 -4.26855 72.5394 -4.22656 96.2146 -4.22656c127.639 0 212.433 33.0059 276.199 92.9854c69.989 65.7109 105.685 167.635 105.685 268.83c0 122.835 -55.6172 223.185 -256.388 223.185z" />
    <glyph glyph-name="E" unicode="E" horiz-adv-x="461" 
d="M426.169 380l-1.23242 -6.00488l-8 -39l-0.819336 -3.99512h-4.07812h-253.854l-54.1152 -282h283.97h6.12988l-1.23242 -6.00488l-8 -39l-0.819336 -3.99512h-4.07812h-335h-6.03906l1.12695 5.8457l128.434 664.087l0.809215 4.06738h4.33662h319.332h6.12988
l-1.23242 -6.00488l-8 -39l-0.819336 -3.99512h-4.07812h-267.198l-50.3647 -245h252.562h6.12988z" />
    <glyph glyph-name="F" unicode="F" horiz-adv-x="457" 
d="M39 0l1.12695 5.8457l128.434 664.087l0.809215 4.06738h4.33662h319.332h6.12988l-1.23242 -6.00488l-8 -39l-0.819336 -3.99512h-4.07812h-267.199l-52.4568 -255h244.655h6.12988l-1.23242 -6.00488l-8 -39l-0.819336 -3.99512h-4.07812h-245.861l-61.2266 -316.935
l-0.773438 -4.06543h-4.13867h-45h-6.03906z" />
    <glyph glyph-name="G" unicode="G" horiz-adv-x="612" 
d="M575.021 338l-1.10547 -5.83398l-57 -300.643l-0.463867 -2.44727l-2.27344 -1.08398c-32.0525 -15.167 -100.674 -34.9922 -179.005 -34.9922c-101.111 0 -177.994 29.0547 -227.099 91.5723c-50.0107 61.3662 -59.0742 134.672 -59.0742 189.345
c0 102.749 42.3291 225.21 129.919 305.239c73.1995 63.9131 169.405 101.844 277.013 101.844c81.8933 0 132.677 -20.0156 150.952 -32.915l3.36035 -2.37207l-1.67969 -3.75488l-17 -38l-2.20117 -4.91895l-4.74121 2.5625
c-36.1387 19.5342 -78.1514 29.3984 -140.044 29.3984c-88.3458 0 -171.669 -34.8037 -235.805 -95.9043c-66.0516 -63.7305 -102.773 -167.835 -102.773 -256.109c0 -136.819 61.9004 -235.986 241.558 -235.986c43.4744 0 90.6621 9.54785 119.291 21.0918
l44.1169 224.908h-154.118h-6.16959l1.09059 5.88379l7.2249 39l0.762002 4.11621h4.317h204.928h6.02051z" />
    <glyph glyph-name="H" unicode="H" horiz-adv-x="623" 
d="M169.19 674h4.26101h47.3486h6.24828l-1.19719 -5.95801l-58.5033 -291.042h350.56l56.2217 292.942l0.77832 4.05762h4.13184h45h6.04785l-1.13672 -5.85254l-129.297 -664.087l-0.800134 -4.06055h-4.25498h-46.3193h-6.2131l1.15597 5.93066l64.7204 332.069h-349.761
l-63.2295 -333.931l-0.770508 -4.06934h-4.1416h-45h-6.03906l1.12695 5.8457l128.268 664.087z" />
    <glyph glyph-name="I" unicode="I" horiz-adv-x="218" 
d="M168.899 674h4.13965h46h6.04785l-1.13672 -5.85254l-129 -664.087l-0.777344 -4.06055h-4.13379h-45h-6.03906l1.12695 5.8457l128 664.087z" />
    <glyph glyph-name="J" unicode="J" horiz-adv-x="362" 
d="M76.9561 40c76.8426 0 126.037 37.293 152.467 166.29l90.6202 463.639l0.769531 4.07129h4.14355h45h6.03613l-1.12402 -5.8457l-89.9971 -468.152c-28.2139 -148.974 -95.1557 -211.002 -213.915 -211.002c-39.8398 0 -80.0635 9.84961 -95.4805 18.6592
l-3.47559 1.98535l1.17676 3.82617l12 39l1.73633 5.64062l5.2793 -2.63965c21.0039 -10.502 48.1846 -15.4717 84.7637 -15.4717z" />
    <glyph glyph-name="K" unicode="K" horiz-adv-x="489" 
d="M39 0l1.12695 5.8457l128.319 664.087l0.799457 4.06738h4.28432h47.6076h6.26224l-1.18049 -5.94238l-65.9547 -332.157c23.8675 25.4297 46.414 47.2764 66.4823 67.5908l275.75 269.038l1.46484 1.4707h2.07715h57h12.1006l-8.57129 -8.41699l-293.643 -282.311
l188.625 -376.221l3.41992 -7.05176h-7.93066h-50.6461h-3.26352l-1.40688 2.8457l-171.89 347.896l-82.1956 -73.3086l-52.6885 -273.38l-0.78125 -4.05371h-4.12793h-45h-6.03906z" />
    <glyph glyph-name="L" unicode="L" horiz-adv-x="434" 
d="M39 0l1.12695 5.8457l128.876 664.087l0.846616 4.06738h4.53705h50.4159h6.63271l-1.25119 -5.84961l-127.093 -619.15h283.948h6.12988l-1.23242 -6.00488l-8 -39l-0.819336 -3.99512h-4.07812h-334h-6.03906z" />
    <glyph glyph-name="M" unicode="M" horiz-adv-x="774" 
d="M669.921 -0h-4.42871h-45.2617h-5.79326l0.730636 5.63086l53.3614 416.979c5.84863 49.2979 17.3984 129.195 26.167 179.838c-25.8955 -53.3994 -55.6221 -113.418 -88.3808 -170.881l-243.947 -429l-1.45928 -2.56641h-2.9983h-33.683h-4.36289l-0.678804 4.22168
l-67.3631 418.983c-11.4968 68.4492 -18.5161 130.438 -24.0452 181.057c-12.378 -52.2031 -30.3369 -132.602 -43.5461 -183.505l-107.897 -417l-0.963867 -3.75684h-3.87891h-45h-6.49219l1.65723 6.18457l179.235 664.092l1.00375 3.72363h3.93128h53.0763h4.36787
l0.67382 -4.22754l74.506 -466.968c8.05694 -46.4834 15.3862 -93.7568 18.4314 -127.809c16.695 34.6377 39.4793 77.9912 65.9716 125.428l265.264 471l1.42773 2.57617h2.94629h55h5.64453l-0.681641 -5.52148l-82 -664.082z" />
    <glyph glyph-name="N" unicode="N" horiz-adv-x="631" 
d="M93.1836 -0h-4.14453h-44h-6.03906l1.12695 5.8457l128.261 664.087l0.79459 4.06738h4.25824h44.2318h3.40036l1.33202 -3.04102l200.576 -457.979c27.0231 -60.166 41.0977 -101.334 52.6137 -140.679c4.24417 47.4854 10.8902 91.6143 26.0748 170.631l81.457 427
l0.771484 4.06836h4.14062h44h6.03906l-1.12695 -5.8457l-128.261 -664.087l-0.79459 -4.06738h-4.25824h-42.1745h-3.41141l-1.32699 3.05469l-195.425 449.96c-31.6942 69.5439 -46.2971 108.799 -58.1165 152.068c-6.79972 -54.0469 -14.832 -101.86 -28.7981 -176.991
l-80.4324 -424.019z" />
    <glyph glyph-name="O" unicode="O" horiz-adv-x="665" 
d="M181.813 596.803c56.5363 54.2207 141.987 88.1973 222.584 88.1973c191.248 0 252.603 -140.701 252.603 -274.062c0 -113.461 -42.1982 -246.725 -125.617 -328.812c-60.4493 -57.9736 -137.892 -93.126 -229.779 -93.126
c-181.152 0 -252.603 137.496 -252.603 271.104c0 116.516 47.2705 253.71 132.813 336.698zM601 407.815c0 99.7119 -31.0615 228.185 -203.799 228.185c-69.3875 0 -130.741 -28.793 -178.291 -75.2588c-72.1111 -69.5918 -113.91 -193.433 -113.91 -292.59
c0 -115.899 50.7686 -230.151 203.799 -230.151c67.3637 0 130.771 27.8389 180.36 76.2549c71.0002 67.5889 111.841 192.366 111.841 293.561z" />
    <glyph glyph-name="P" unicode="P" horiz-adv-x="496" 
d="M39 0l1.13184 5.85059l127.375 656.334l0.659925 3.25781l3.45184 0.650391c36.8925 6.95117 84.2774 12.9072 134.924 12.9072c72.0269 0 131.895 -19.8252 164.377 -58.1191c23.8457 -29.6982 35.125 -64.5215 35.125 -110.785
c0 -69.833 -36.707 -133.237 -76.6846 -167.663c-51.5614 -45.5127 -131.315 -66.4326 -207.549 -66.4326c-25.593 0 -49.8673 1.10156 -73.7743 5.18066l-53.0791 -277.105l-0.766602 -4.0752h-4.14648h-45h-6.04395zM297.128 630
c-35.4409 0 -63.7359 -2.86621 -80.2034 -6.87598l-59.0766 -291.49c28.2001 -6.06348 47.3502 -6.63379 71.2852 -6.63379c134.82 0 220.911 76.8662 220.911 183.983c0 85.1182 -60.3574 121.017 -152.916 121.017z" />
    <glyph glyph-name="Q" unicode="Q" horiz-adv-x="665" 
d="M584.352 -26.8799l-2.7959 -6.18066l-19 -42l-1.64941 -3.64648l-3.91895 0.810547c-89.2383 18.0742 -207.988 47.8682 -229.539 56.2539c0.0772957 0.185547 -37.1361 10.6426 -45.3756 10.6426h-0.124476l-0.123472 0.00585938
c-129.892 6.0498 -232.825 104.269 -232.825 271.099c0 115.514 46.2471 251.702 129.712 333.725c57.5191 56.167 144.04 91.1709 225.684 91.1709c191.248 0 252.603 -140.654 252.603 -273.972c0 -106.54 -41.1055 -243.578 -122.544 -324.771
c-39.6296 -37.0898 -92.8352 -68.168 -139.251 -81.3604c68.1648 -13.1582 130.015 -24.4258 182.415 -30.9365zM601 407.815c0 93.8926 -29.1602 228.185 -203.799 228.185c-68.3786 0 -128.737 -27.8438 -176.254 -73.3096
c-73.1372 -70.5459 -115.947 -196.397 -115.947 -295.522c0 -113.105 46.8975 -229.168 198.659 -229.168c72.5958 0 136.005 27.9141 183.462 73.3213c73.9892 70.4736 113.879 200.22 113.879 296.494z" />
    <glyph glyph-name="R" unicode="R" horiz-adv-x="506" 
d="M39 0l1.12207 5.84375l126.341 656.333l0.652853 3.24707l3.44232 0.664062c41.2658 7.96094 91.7862 12.9121 134.127 12.9121c73.186 0 127.88 -19.9248 158.173 -55.9541c24.8994 -28.6279 35.1758 -65.3818 35.1758 -101.724
c0 -93.4082 -75.8223 -170.668 -157.589 -195.6c48.5257 -20.6426 69.8616 -73.3359 73.5804 -141.14c6.99219 -103.353 11.0928 -152.737 17.8496 -178.419l1.62109 -6.16406h-6.46191h-47h-3.99437l-0.992582 3.78711c-3.4812 13.0752 -10.6053 89.0889 -14.8202 163.278
c-4.14224 97.2109 -42.2154 138.935 -115.268 138.935h-91.7838l-58.2275 -301.932l-0.772461 -4.06836h-4.14062h-45h-6.03418zM295.255 631c-36.5567 0 -60.6682 -2.81836 -77.1697 -7.67285l-55.8373 -269.327h81.6629c125.345 0 197.123 77.5664 197.123 164.039
c0 78.0762 -56.3477 112.961 -145.779 112.961z" />
    <glyph glyph-name="S" unicode="S" horiz-adv-x="458" 
d="M19 40.0723l1.72168 3.26172l19 36l2.70801 5.13184l4.67578 -3.4375c33.1738 -24.3926 79.1934 -42.0283 132.052 -42.0283c91.598 0 172.986 54.4717 172.986 148.698c0 55.1299 -25.9924 97.6416 -104.977 138.471c-100.8 51.6084 -139.023 106.388 -139.023 171.728
c0 112.527 100.366 187.104 218.404 187.104c57.699 0 108.53 -20.0225 128.929 -38.2734l2.94629 -2.63672l-1.88672 -3.47559l-19 -35l-2.52539 -4.65137l-4.5 2.78613c-20.5967 12.75 -58.6748 32.251 -110.28 32.251c-95.2581 0 -155.813 -64.9893 -155.813 -128.021
c0 -60.7607 29.3568 -93.4395 112.026 -136.508c86.9253 -44.752 130.7 -98.7295 130.7 -183.545c0 -97.1182 -73.6187 -198.926 -237.461 -198.926c-53.6206 0 -120.487 20.877 -148.075 48.4648z" />
    <glyph glyph-name="T" unicode="T" horiz-adv-x="461" 
d="M152.087 0l1.13086 5.84277l123.549 619.157h-206.637h-6.12988l1.23145 6.00488l8 39l0.820312 3.99512h4.07812h472h5.97754l-1.05664 -5.88379l-7 -39l-0.738281 -4.11621h-4.18262h-208.904l-125.191 -620.936l-0.8064 -4.06445h-4.30758h-45.7901h-6.04297z" />
    <glyph glyph-name="U" unicode="U" horiz-adv-x="620" 
d="M167.863 674h4.13672h46.5781h6.25454l-1.1774 -5.84863l-78.7481 -400.71c-5.92578 -29.168 -7.90723 -58.3535 -7.90723 -84.7051c0 -101.845 57.333 -143.736 139.483 -143.736c102.299 0 181.275 66.0576 214.132 229.305l78.4745 401.634l0.776367 4.06152h4.13477
h45h6.04199l-1.12988 -5.84961l-79.0049 -409.051c-39.3271 -198.775 -151.024 -270.1 -276.697 -270.1c-98.3697 0 -187.211 55.3408 -187.211 191.192c0 28.9092 3.03223 60.751 9.08887 91.5908l77 398.153z" />
    <glyph glyph-name="V" unicode="V" horiz-adv-x="515" 
d="M223.3 0h-3.12148h-45.5252h-4.42188l-0.540039 4.38867l-83 664.083l-0.691406 5.52832h5.65332h45h4.43652l0.52832 -4.4043l60.001 -500.012c6.66467 -55.9307 10.6492 -80.7637 11.3591 -104.446c11.412 26.1084 26.4464 62.0391 60.7797 122.228l261.469 483.958
l1.4043 2.67676h3.02246h48h8.31738l-3.90137 -7.2373l-367.305 -664.108z" />
    <glyph glyph-name="W" unicode="W" horiz-adv-x="827" 
d="M191.41 -0h-3.12793h-45h-4.7334l-0.259766 4.72559l-37 664.078l-0.289062 5.19629h5.28223h45h4.75977l0.234375 -4.75488l23.001 -468.025c3.14062 -71.459 2.58496 -103.904 2.2041 -129.028c10.1826 26.5273 23.5684 57.9268 56.6072 124.985l231.163 473.982
l1.38535 2.84082h3.20729h46.8453h4.82236l0.261555 -4.72852l24.441 -441c4.0924 -73.9424 6.2107 -123.771 6.36385 -155.214c16.2532 43.7119 31.8968 80.8643 54.2006 129.047l224.984 469.035l1.35449 2.86035h3.16504h47h7.92969l-3.41797 -7.05078l-325.775 -664.104
l-1.38435 -2.84473h-3.21027h-45.8269h-4.8164l-0.267522 4.72168l-25.4564 448.947c-5.3773 68.6387 -5.96207 94.1162 -2.60561 151.309c-17.7142 -48.5088 -31.6452 -82.2725 -52.9326 -123.208l-236.741 -478.957z" />
    <glyph glyph-name="X" unicode="X" horiz-adv-x="512" 
d="M462.357 -0h-7.61353h-49.2979h-3.45623l-1.30085 3.11719l-78.032 186.944c-19.0203 42.5947 -34.8512 82.667 -45.7554 112.129c-20.5017 -27.7812 -47.634 -63.4863 -83.0558 -108.23l-149.576 -192l-1.50098 -1.95996h-2.46973h-54h-10.2988l6.37012 7.97461
l272.402 335.759l-133.455 323.526l-2.78023 6.74023h7.55436h49.2979h3.50939l1.27477 -3.18359l80.0931 -199.959c14.9462 -35.4736 25.8375 -64.8682 34.5021 -89.0547c19.4676 25.9805 43.7334 58.5068 68.6592 89.3115l162.959 201l1.50195 1.88574h2.41016h55h10.5264
l-6.65039 -8.04004l-271.29 -322.917l141.62 -336.271z" />
    <glyph glyph-name="Y" unicode="Y" horiz-adv-x="504" 
d="M223.534 0h-4.32415h-45.2946h-6.04492l1.13281 5.85059l54.2162 277.608l-129.053 384.07l-2.16602 6.4707h6.91504h48h3.65039l1.11133 -3.47656l79.7906 -246.983c17.7578 -51.9502 25.9133 -78.7539 30.322 -97.6064
c15.1778 23.5576 38.6537 58.5049 72.0342 102.972l177.01 242.983l1.49414 2.11133h2.58691h52h9.81641l-5.77246 -7.82324l-291.585 -385.338l-55.041 -276.763z" />
    <glyph glyph-name="Z" unicode="Z" horiz-adv-x="524" 
d="M-16 0l1.11035 5.82812l6 31.4961l0.239258 1.25391l0.827148 0.982422l503.69 585.439h-350.679h-6.30805l1.26824 6.00488l8.23253 39l0.84315 3.99512h4.19666h418.604h6.02441l-1.10938 -5.82812l-6 -31.4961l-0.239258 -1.25391l-0.828125 -0.982422
l-503.689 -585.439h389.783h6.03638l-1.05566 -5.88379l-7.11924 -39l-0.760745 -4.11621h-4.30419h-458.738h-6.02441z" />
    <glyph glyph-name="bracketleft" unicode="[" horiz-adv-x="265" 
d="M191 -116h-159h-6.04369l1.13222 5.93669l152 797l0.774934 4.06331h4.13654h159h6.06587l-1.15779 -5.95435l-7 -36l-0.786654 -4.04565h-4.12142h-112.862l-136.097 -715h109.959h5.9023l-0.970332 -5.82199l-6 -36l-0.696334 -4.17801h-4.23564z" />
    <glyph glyph-name="backslash" unicode="\" horiz-adv-x="324" 
d="M307 -45h-44h-3.82268l-1.00237 3.68892l-197 725l-1.71487 6.31108h6.53992h44h3.82268l1.00237 -3.68892l197 -725l1.71487 -6.31108h-6.53992z" />
    <glyph glyph-name="bracketright" unicode="]" horiz-adv-x="265" 
d="M99 691h159h6.04369l-1.13222 -5.93669l-152 -797l-0.774934 -4.06331h-4.13654h-159h-5.9023l0.970332 5.82199l6 36l0.696334 4.17801h4.23564h113.862l136.097 715h-110.959h-6.06587l1.15779 5.95435l7 36l0.786654 4.04565h4.12142z" />
    <glyph glyph-name="asciicircum" unicode="^" horiz-adv-x="596" 
d="M528 191h-43h-3.29592l-1.29922 3.02904l-171.405 399.618l-171.405 -399.618l-1.29922 -3.02904h-3.29592h-43h-7.63544l3.05234 6.9988l198 454l1.34316 3.07976l3.35896 -0.0799752l42 -1l3.18608 -0.0758591l1.27639 -2.92022l198 -453l3.0607 -7.0025h-7.64218z" />
    <glyph glyph-name="underscore" unicode="_" horiz-adv-x="500" 
d="M-45 -70h500h6.09902l-1.19612 -5.98058l-10 -50l-0.803884 -4.01942h-4.09902h-500h-6.09902l1.19612 5.98058l10 50l0.803884 4.01942h4.09902z" />
    <glyph glyph-name="quoteleft" unicode="&#x2018;" horiz-adv-x="156" 
d="M138.822 475.068l-60 -10l-9.00258 -1.50043l3.58169 8.39459c32.2274 75.533 94.9933 189.23 116.599 218.038l1.24264 1.65685l2.05025 0.292893l35 5l10.1204 1.44578l-5.07213 -8.87622c-23.6822 -41.4439 -71.7519 -149.608 -90.5607 -210.984l-0.906574 -2.95829z
" />
    <glyph glyph-name="a" unicode="a" horiz-adv-x="523" 
d="M422.208 0h-5.20801h-43h-4.96312l-0.168963 4.83301c-0.926737 26.5195 3.86255 71.3457 10.1663 120.146c-57.6213 -98.9375 -128.199 -135.979 -204.159 -135.979c-88.2663 0 -138.875 69.7891 -138.875 154.914c0 169.818 134.283 347.086 339 347.086
c39.5088 0 82.7646 -6.02441 112.33 -14.1797l4.45117 -1.22852l-0.871094 -4.44141l-47.9941 -244.821c-17.9375 -94.6709 -22.8984 -173.755 -20.9199 -221.232zM185.361 38c85.9326 0 187.926 109.254 213.727 239.019l30.2305 157.967
c-12.376 4.09766 -30.6367 7.01465 -63.5993 7.01465c-148.548 0 -272.734 -133.993 -273.719 -289.826c0 -56.0947 17.1797 -114.174 93.3607 -114.174z" />
    <glyph glyph-name="b" unicode="b" horiz-adv-x="523" 
d="M166.898 710h4.10156h47.3037h6.41793l-1.25789 -5.98047l-65.5409 -314.898c49.3732 69.0898 115.512 101.879 183.506 101.879c113.52 0 151.571 -92.1465 151.571 -176.484c0 -140.968 -110.14 -325.516 -301.005 -325.516
c-68.108 0 -139.995 27.8574 -139.995 120.322c0 20.3281 4.0498 47.0479 7.05566 66.8096l0.0175781 0.116211l0.0234375 0.116211l107 529.613zM329.853 442c-84.7044 0 -175.235 -83.2021 -203.963 -208.873l-12.0059 -57.6025
c-3.96484 -16.4434 -6.88477 -35.3574 -6.88477 -62.3848c0 -49.0166 26.9688 -75.1396 89.2042 -75.1396c154.477 0 240.796 160.418 240.796 277.14c0 65.3252 -28.9336 126.86 -107.147 126.86z" />
    <glyph glyph-name="c" unicode="c" horiz-adv-x="436" 
d="M358.976 72.1826l1.79199 -5.67676l12 -38l1.23535 -3.91113l-3.59375 -1.97559c-20.6084 -11.335 -73.9549 -33.6191 -149.602 -33.6191c-134.1 0 -182.807 92.4238 -182.807 180.406c0 158.82 118.404 321.594 298 321.594c48.001 0 92.5186 -15.6396 104.345 -26.2832
l2.64355 -2.37988l-1.37988 -3.27734l-16 -38l-2.03125 -4.82422l-4.72656 2.25c-20.7148 9.86426 -49.8447 21.5146 -89.8506 21.5146c-144.445 0 -234 -140.128 -234 -263.431c0 -81.2051 38.084 -137.569 134.323 -137.569c56.2886 0 99.7318 17.624 124.37 30.4365z" />
    <glyph glyph-name="d" unicode="d" horiz-adv-x="523" 
d="M481.84 710h4.16016h45h6.0498l-1.13965 -5.94141l-110.994 -570.812c-7.99111 -42.3184 -16.2783 -89.5293 -19.3704 -128.62l-0.361504 -4.62598h-4.82344h-42.6331h-6.04301l0.90173 5.74609l13.7615 87.6777c-47.2362 -64.3965 -107.931 -104.424 -184.352 -104.424
c-103.876 0 -145.996 86.1084 -145.996 172.562c0 171.79 133.103 329.438 306.13 329.438c35.9666 0 73.9754 -7.10449 96.1385 -16.6807l42.8145 231.59zM194.474 38c77.4452 0 173.001 85.3701 195.579 199.978l37.3887 184.097
c-19.746 11.3633 -49.7519 19.9258 -90.5105 19.9258c-135.554 0 -244.931 -132.71 -244.931 -276.164c0 -57.3164 16.4287 -127.836 102.474 -127.836z" />
    <glyph glyph-name="e" unicode="e" horiz-adv-x="443" 
d="M353.617 75.3154l2.07031 -5.57422l13 -35l1.37695 -3.70801l-3.29102 -2.19336c-24.7676 -16.5117 -77.1131 -39.8398 -154.187 -39.8398c-129.178 0 -175.586 94.7266 -175.586 189.23c0 141.788 108.861 312.77 265.379 312.77
c90.2193 0 129.621 -55.2744 129.621 -112.511c0 -131.066 -163.714 -156.053 -335.936 -153.668c-4.94434 -27.7422 -3.29199 -79.4199 7.64844 -108.854c18.3496 -51.9668 58.4597 -76.9678 115.287 -76.9678c62.9218 0 105.904 19.5664 129.48 33.3193zM117.397 266.862
c142.649 -0.0742188 258.603 22.1348 258.603 106.138v1c0 44.5596 -33.625 68 -82.1724 68c-87.508 0 -160.421 -85.5332 -188.142 -175.078c4.45215 -0.0410156 7.74121 -0.0566406 11.7119 -0.0595703z" />
    <glyph glyph-name="f" unicode="f" horiz-adv-x="275" 
d="M101.178 0h-4.14062h-45h-6.03711l1.125 5.79785l82.875 427.202h-58.9629h-6.19629l1.30957 6.05664l8 37l0.852539 3.94336h4.03418h60.8701l4.21387 21.9102c13.0762 73.4287 38.6311 137.464 83.8109 177.721c28.3677 23.8506 67.6227 41.3691 108.105 41.3691
c32.7119 0 52.6396 -7.08398 62.7734 -13.8398l3.31152 -2.20703l-1.4082 -3.72266l-14 -37l-2.0918 -5.52734l-5.10449 2.97754c-10.6543 6.21582 -28.9531 9.31934 -47.4805 9.31934c-74.6667 0 -112.411 -74.5977 -131.062 -173.856l-3.26239 -17.1436h116.325h6.19629
l-1.30957 -6.05664l-8 -37l-0.852539 -3.94336h-4.03418h-119.052l-85.0357 -428.932z" />
    <glyph glyph-name="g" unicode="g" horiz-adv-x="523" 
d="M8 -169.559l1.6748 3.64648l17 37l2.4082 5.24023l4.8457 -3.12695c30.248 -19.5146 70.2021 -34.2012 126.631 -34.2012c89.1035 0 160.026 44.4951 195.152 195.062l15.3058 67.5488c-48.4227 -70.3398 -114.217 -103.611 -185.427 -103.611
c-103.126 0 -148.372 85.8066 -148.372 164.66c0 165.728 125.972 328.34 307.944 328.34c50.1387 0 112.402 -16.7725 142.471 -33.1094l3.16016 -1.7168l-0.65918 -3.49414l-74.0049 -391.953c-21.0635 -108.65 -49.4528 -173.916 -97.6966 -215.419
c-49.3968 -43.2441 -115.481 -54.3076 -167.26 -54.3076c-56.7269 0 -109.627 13.9932 -139.977 37.0166zM200.192 47c86.5827 0 176.333 106.412 195.114 204.751l34.2666 171.879c-19.2412 8.58301 -52.0107 18.3701 -93.7968 18.3701
c-144.146 0 -241.571 -138.3 -242.558 -269.203c0 -54.2168 16.3379 -125.797 106.973 -125.797z" />
    <glyph glyph-name="h" unicode="h" horiz-adv-x="536" 
d="M93.2002 0h-4.16016h-45h-6.04004l1.12793 5.85156l135.844 700.082l0.813923 4.06641h4.35531h48.4079h6.40348l-1.24144 -5.96875l-64.2372 -308.97c45.8623 59.9805 108.256 95.9385 186.409 95.9385c43.7488 0 123.157 -25.0381 123.157 -130.323
c0 -26.6826 -2.00781 -54.457 -7.09961 -77.4072l-53.9873 -279.2l-0.771484 -4.06934h-4.1416h-45h-6.02832l1.11523 5.79297l54 280.637l0.0263672 0.141602l0.0361328 0.139648c3.86328 15.1084 6.85059 38.2598 6.85059 67.2627
c0 49.0225 -24.0391 87.0264 -87.0992 87.0264c-73.398 0 -175.148 -79.0137 -195.984 -188.593l-47 -248.317z" />
    <glyph glyph-name="i" unicode="i" horiz-adv-x="216" 
d="M93.1816 0h-4.13184h-45h-6.0498l1.13867 5.81934l92 470.122l0.77832 4.05859h4.13281h45h6.04883l-1.13867 -5.81934l-92 -470.122zM226.026 612.526c-2.14746 -22.5547 -16.6426 -44.5264 -43.9766 -44.5264h-1c-24.7412 0 -38 22.4629 -38 45v0.113281
l0.00488281 0.113281c1.08984 23.9834 17.7275 44.7734 41.9951 44.7734c26.2803 0 41 -21.0752 41 -45v-0.237305z" />
    <glyph glyph-name="j" unicode="j" horiz-adv-x="217" 
d="M140.466 480h4.13379h45h6.05469l-1.14551 -5.8252l-94.9026 -478.119c-16.5029 -78.0547 -32.9531 -129.091 -64.0059 -159.429c-29.583 -30.0127 -67.6325 -45.627 -105.001 -45.627c-20.1309 0 -34.6836 0.957031 -47.5811 5.25684l-4.01855 1.33887l0.660156 4.18457
l6 38l0.956055 6.05371l5.73926 -2.15234c6.90723 -2.59082 21.6094 -4.68164 40.2441 -4.68164c44.5879 0 79.3678 27.4883 102.338 134.94l104.751 502zM229.594 612.762c-1.08984 -22.8838 -16.6904 -44.7617 -42.9941 -44.7617h-1
c-24.6064 0 -39.0869 22.3076 -37.9951 45.2266c1.08984 23.9834 17.7275 44.7734 41.9951 44.7734c25.3877 0 40 -21.1484 40 -45v-0.119141z" />
    <glyph glyph-name="k" unicode="k" horiz-adv-x="431" 
d="M93.1924 0h-4.14355h-45h-6.04883l1.1377 5.85742l136.98 700.083l0.821797 4.05957h4.37019h47.5734h6.39784l-1.20689 -5.94336l-89.4286 -444.017c13.8913 14.0938 27.9507 26.6035 38.3625 35.6318l206.647 183l1.43652 1.32812h1.95703h57h12.8174
l-9.43164 -8.50195l-215.87 -189.452l152.912 -274.872l3.8418 -7.17383h-8.26953h-48.2755h-3.19427l-1.48564 2.6748l-139.652 251.475l-61.8087 -50.8174l-37.6709 -199.261z" />
    <glyph glyph-name="l" unicode="l" horiz-adv-x="216" 
d="M93.1738 -0h-4.13379h-45h-6.04004l1.12793 5.85156l135 700.082l0.773438 4.06641h4.13867h46h6.04883l-1.1377 -5.94043l-136 -700z" />
    <glyph glyph-name="m" unicode="m" horiz-adv-x="814" 
d="M93.1807 0h-4.15332h-45h-6.02734l1.11426 5.80176l66.0068 343.81c9.98438 47.917 15.9512 88.8379 20.9492 126.041l0.572266 4.34766h4.38477h42.3197h5.95711l-0.910571 -5.76367l-12.5196 -79.2725c46.867 62.4658 106.193 96.0361 170.877 96.0361
c70.2675 0 109.343 -41.6494 117.226 -106.237c44.3417 67.25 105.297 105.274 182.997 106.237c45.8549 0 121.053 -29.0205 121.053 -126.404c0 -22.8467 -2.00488 -51.4023 -7.08008 -80.249l-55.0098 -280.291l-0.779297 -4.05566h-4.13086h-45h-6.03223l1.11914 5.7959
l54.0156 279.736c3.93848 17.332 6.89746 42.4443 6.89746 62.5742c0 59.248 -20.1426 92.8936 -83.4042 92.8936c-66.0867 0 -152.577 -69.042 -173.703 -178.819l-50.0425 -258.093l-0.773935 -4.08789h-4.24667h-45.9574h-6.17453l1.15891 5.80664l57.2044 286.564
c5.08144 22.3809 7.0452 39.4072 7.0452 58.6689c0 43.251 -10.9608 89.96 -85.7871 89.96c-64.7183 0 -156.63 -82.6201 -175.4 -185.647l-48.0049 -251.271z" />
    <glyph glyph-name="n" unicode="n" horiz-adv-x="536" 
d="M93.1963 -0h-4.16895h-45h-6.02734l1.11426 5.80176l66.0068 343.81c9.98438 47.917 15.9512 88.8379 20.9492 126.041l0.572266 4.34766h4.38477h42.7826h6.08231l-0.876387 -5.7207l-12.9105 -84.2646c45.3903 62.2539 113.639 100.985 188.662 100.985
c44.8756 0 125.26 -24.1514 125.26 -136.203c0 -22.1367 -4.05762 -48.7705 -9.08594 -75.3779l-53 -275.346l-0.768555 -4.07324h-4.14551h-45h-6.03613l1.12402 5.79883l53.9824 278.589c2.97461 19.3906 6.92969 42.8408 6.92969 63.7188
c0 54.2598 -21.1973 92.8936 -88.1977 92.8936c-68.162 0 -174.042 -74.1123 -196.883 -196.404l-45 -240.495z" />
    <glyph glyph-name="o" unicode="o" horiz-adv-x="520" 
d="M38 186.074c0 152.751 108.218 304.926 265.881 304.926c136.816 0 186.119 -105.551 186.119 -201.977c0 -130.009 -96.9805 -300.023 -265.881 -300.023c-125.557 0 -186.119 97.2832 -186.119 197.074zM433 289.783c0 61.7295 -29.3291 153.217 -132.267 153.217
c-119.548 0 -205.733 -125.388 -205.733 -252.759c0 -87.9941 51.3975 -152.241 135.416 -152.241c110.041 0 202.584 126.454 202.584 251.783z" />
    <glyph glyph-name="p" unicode="p" horiz-adv-x="523" 
d="M47.2227 -198h-4.17676h-46h-6.0459l1.13477 5.93848l98.999 510.35c10.9873 57.0771 19.9738 110.189 26.1916 157.332l0.568487 4.37988h4.5885h44.6993h6.06758l-0.930897 -5.76758l-13.7757 -85.3086c49.0157 63.6455 115.525 102.076 185.357 102.076
c109.947 0 150.146 -88.0176 150.146 -169.621c0 -168.661 -129.713 -332.379 -294.639 -332.379c-58.2344 0 -94.0796 11.0605 -114.482 21.3564l-36.959 -204.247zM330.386 442c-72.1856 0 -174.986 -78.3066 -205.911 -233.14l-27.9322 -146.21
c25.3882 -16.2021 60.6435 -24.6504 107.022 -24.6504c125.805 0 233.481 140.29 233.481 280.067c0 55.7725 -24.1279 123.933 -106.66 123.933z" />
    <glyph glyph-name="q" unicode="q" horiz-adv-x="523" 
d="M361.876 -198h-4.34914h-47.2327h-6.351l1.19722 5.94238l55.7609 276.81c-45.8869 -60.4141 -115.074 -95.752 -179.71 -95.752c-105.119 0 -145.191 87.1611 -145.191 171.582c0 163.847 129.91 330.418 305.782 330.418c63.0763 0 114.803 -15.8584 142.882 -33.2832
l2.88184 -1.78809l-0.632812 -3.29688l-124.23 -646.561zM186.439 38c96.8486 0 185.887 102.654 205.646 204.849l34.3457 180.984c-17.0928 8.83008 -48.8584 18.167 -90.9462 18.167c-126.494 0 -242.484 -120.114 -242.484 -276.193
c-0.985352 -81.7158 36.8008 -127.807 93.4389 -127.807z" />
    <glyph glyph-name="r" unicode="r" horiz-adv-x="297" 
d="M93.1914 -0h-4.14355h-45h-6.04785l1.13672 5.81738l61.9922 317.291c9.97168 55.668 17.9746 107.587 23.9609 152.538l0.567383 4.35352h4.39062h41h5.78906l-0.842773 -5.72754c-3.91797 -26.6436 -7.4873 -55.0547 -12.0039 -83.8877
c31.1738 57.6123 78.1621 100.615 137.058 100.615c7.46387 0 17.4473 -0.990234 22.9805 -2.09668l4.88184 -0.976562l-0.956055 -4.88672l-9 -46l-1.15918 -5.9248l-5.60449 2.24219c-3.54199 1.41699 -10.0713 1.64258 -20.1426 1.64258
c-55.6416 0 -132.211 -84.6494 -154.083 -203.192l-44.0039 -227.735z" />
    <glyph glyph-name="s" unicode="s" horiz-adv-x="356" 
d="M16 23.4863l1.6543 3.60156l17 37l2.50195 5.44434l4.90918 -3.43652c19.1895 -13.4326 52.4053 -27.0957 87.1328 -27.0957c62.5537 0 105 43.0283 105 92.9434c0 43.2637 -15.335 68.6465 -68.5723 99.5117c-56.2002 32.9893 -79.4277 76.6992 -79.4277 120.618
c0 75.3584 65.5713 138.927 156 138.927c36.0752 0 71.6855 -12.0361 87.957 -23.9678l3.22363 -2.36523l-1.59766 -3.66504l-17 -39l-2.4668 -5.6582l-5.02246 3.58789c-13.2256 9.44629 -40.4287 22.0684 -71.0938 22.0684c-55.6016 0 -95 -38.1895 -95 -84.1426
c0 -41.6357 22.9102 -64.4912 67.5723 -90.71c56.1768 -32.9785 81.4277 -77.6543 81.4277 -124.538c0 -96.0117 -77.8076 -153.609 -165 -153.609c-47.208 0 -87.0449 17.2559 -106.07 32.0537z" />
    <glyph glyph-name="t" unicode="t" horiz-adv-x="302" 
d="M165.627 566.707l2.68359 0.986328l49 18l8.27148 3.03809l-1.63379 -8.6582l-18.8818 -100.073h115.968h6.03516l-1.12207 -5.92969l-7 -37l-0.769531 -4.07031h-4.14355h-118.848l-51.2373 -267.158c-5.99609 -31.1885 -9.91504 -54.1738 -9.91504 -82.9775
c0 -29.1914 13.7734 -44.8643 43 -44.8643c15.584 0 28.1172 1.95508 37.5635 4.78906l5.74414 1.72363l0.662109 -5.96094l4 -36l0.425781 -3.83398l-3.60059 -1.38477c-13.8486 -5.32617 -33.2969 -8.33301 -53.7949 -8.33301c-67.2705 0 -91 47.2168 -91 89.9736
c0 28.7881 4.08008 57.6025 11.0996 89.9639l51.8496 264.062h-66.9492h-6.03418l1.12207 5.92969l7 37l0.769531 4.07031h4.14258h69.8271l15.2539 83.8945z" />
    <glyph glyph-name="u" unicode="u" horiz-adv-x="526" 
d="M438.852 480h4.14844h45h6.04492l-1.13379 -5.81543l-66.9971 -343.753c-8.97461 -46.8779 -14.9473 -88.8291 -17.9297 -125.825l-0.363281 -4.60645h-4.62109h-43.7509h-6.12531l0.917665 5.74902l12.873 80.6484
c-42.6807 -56.5566 -107.924 -97.3975 -175.166 -97.3975c-54.2036 0 -134.748 22.2773 -134.748 144.042c0 21.0439 3.0625 44.8799 9.08789 75.3877l52 267.506l0.774414 4.06445h4.1377h45h6.03809l-1.12598 -5.80078l-52.0039 -267.935
c-5.98535 -29.2598 -8.9082 -50.3369 -8.9082 -72.3984c0 -57.9785 22.9561 -93.8662 91.3366 -93.8662c67.1243 0 164.807 74.1143 185.749 180.775l49 255.147z" />
    <glyph glyph-name="v" unicode="v" horiz-adv-x="440" 
d="M55 480h5.96289h45h4.21191l0.71582 -4.15039l53.999 -312.997c7.27344 -42.0215 12.8043 -74.8555 15.7578 -96.3242c9.92316 20.4111 21.9361 46.6641 46.8826 88.8906l185.057 322l1.42676 2.58105h2.94922h48h8.51855l-4.15234 -7.28516l-277.031 -470.152
l-1.51558 -2.5625h-3.10978h-41.71h-4.19238l-0.730469 4.12793l-85 470.121z" />
    <glyph glyph-name="w" unicode="w" horiz-adv-x="711" 
d="M67 480h5.47949h43h4.58496l0.396484 -4.56738l26.998 -310.979c4.79785 -50.3809 5.76367 -74.9404 5.97168 -97.9131c9.51465 22.3789 22.4336 51.5156 42.8593 88.8262l177.094 322l1.44753 2.63379h3.061h45.0412h4.48653l0.587807 -4.3457l42.9899 -317.975
c5.34525 -38.041 9.06403 -69.2686 10.9324 -89.6963c9.70382 25.7109 19.7885 51.3057 35.7043 83.2197l162.356 326l1.37207 2.79688h3.11621h47h8.08984l-3.61816 -7.08789l-242.925 -470.148l-1.41454 -2.76367h-3.16296h-41.9703h-4.47653l-0.596805 4.33398
l-44.0136 319.971c-5.09933 34.042 -8.76713 66.3965 -9.35494 95.3066c-14.6152 -29.418 -28.5027 -61.0752 -48.6351 -96.9893l-176.523 -320l-1.41797 -2.62207h-2.98047h-42h-4.5625l-0.416992 4.54395l-44 470.112z" />
    <glyph glyph-name="x" unicode="x" horiz-adv-x="425" 
d="M74.9912 480h7.88965h49.6835h3.32283l1.39909 -2.89551l60.3935 -125.009c11.6096 -24.1611 21.4357 -46.5713 31.8302 -68.6689c18.6568 25.4639 27.3157 37.1992 52.1342 65.8047l113.447 129.029l1.49609 1.73926h2.29395h53h10.957l-7.18066 -8.10742
l-204.498 -226.822l117.251 -238.098l3.32715 -6.97266h-7.85645h-50.1513h-3.34418l-1.38993 2.91992l-61.392 128.922c-17.3869 33.3965 -24.8775 50.7646 -36.1586 78.2061c-15.2303 -22.0967 -29.2344 -40.6982 -48.8317 -64.2266l-124.918 -144.054l-1.49707 -1.76758
h-2.31738h-53h-10.8809l7.08691 8.08789l213.882 239.55l-112.61 225.373z" />
    <glyph glyph-name="y" unicode="y" horiz-adv-x="426" 
d="M149.836 3.32422c4.56937 7.78809 3.62182 10.3457 2.54947 18.4707l-100.002 452.272l-1.27246 5.93262h6.16504h47.2543h4.24067l0.848134 -4l61.2939 -289.004c11.183 -52.9268 18.45 -88.8916 24.0775 -122.405c13.8796 30.1855 29.2829 62.3281 53.4203 110.585
l149.363 302l1.36523 2.82422h3.13672h48h8.04199l-3.55859 -7.09668l-188.695 -370.957c-45.7221 -88.585 -90.6478 -170.854 -159.891 -237.435c-53.9886 -54.6992 -108.712 -78.1289 -134.731 -84.374l-4.45996 -1.07031l-1.4502 4.35156l-13 39l-1.53223 4.59766
l4.54785 1.6748c18.834 6.93945 56.2129 21.7178 90.5615 50.1787c32.7237 26.0996 72.8568 69.8945 103.726 124.454z" />
    <glyph glyph-name="z" unicode="z" horiz-adv-x="413" 
d="M-19 0l1.00879 5.71777l5 28.3447l0.242188 1.37598l0.949219 1.04199l290.034 309.827c40.3187 43.123 64.2501 65.0488 86.6094 86.6924h-273.908h-6.19629l1.30957 6.05664l8 37l0.852539 3.94336h4.03418h336h6.21191l-1.32715 -5.93164l-7 -31.2754
l-0.279297 -1.24707l-0.867188 -0.955078l-287.031 -306.91c-41.5198 -43.2412 -63.7236 -65.207 -84.6387 -85.6807h292.932h6.16211l-1.26953 -6.03027l-8 -38l-0.834961 -3.96973h-4.05762h-358h-5.93555z" />
    <glyph glyph-name="braceleft" unicode="{" horiz-adv-x="265" 
d="M29.0761 271.869l6 34l0.739807 4.19224l4.25657 -0.0616894c66.0439 -0.957158 83.1992 36.9594 90.0105 74.908c10.8226 57.0646 3.81763 113.022 15.002 173.011c17.4201 93.2487 77.9104 133.082 155.915 133.082h15h6.06587l-1.15779 -5.95435l-7 -36
l-0.786654 -4.04565h-4.12142h-18c-55.1793 0 -83.3506 -32.2694 -95.0871 -91.9298c-9.78818 -53.835 -1.81162 -107.001 -11.9885 -160.938c-9.43263 -57.539 -39.0553 -90.8074 -75.0979 -105.295c31.1048 -14.7644 39.1735 -43.5507 39.1735 -68.8371
c0 -38.1586 -13.235 -80.5395 -28.3494 -119.837c-15.019 -37.0469 -28.6506 -73.6316 -28.6506 -101.163c0 -37.3845 15.2512 -66.064 62.05 -67h17.95h6.06587l-1.15779 -5.95435l-7 -36l-0.786654 -4.04565h-4.12142h-11c-67.1865 0 -113 40.0772 -113 105
c0 41.1629 14.2746 82.6353 28.3011 121.709c14.0651 38.1767 28.6989 74.7959 28.6989 104.291c0 1.30155 0.0089694 2.82752 -0.0367922 4.55745c-0.407411 15.4014 -3.81425 48.1549 -62.8183 46.4446l-6.13549 -0.17784z" />
    <glyph glyph-name="bar" unicode="|" horiz-adv-x="203" 
d="M100 755h40h5v-5v-1000v-5h-5h-40h-5v5v1000v5h5z" />
    <glyph glyph-name="braceright" unicode="}" horiz-adv-x="265" 
d="M248.924 301.131l-6 -34l-0.751053 -4.25597l-4.31986 0.127055c-64.961 1.91062 -82.1129 -35.8956 -88.9433 -73.9505c-11.8143 -57.1024 -4.80983 -112.978 -15.9905 -172.947c-16.4112 -92.3129 -77.9622 -132.104 -155.919 -132.104h-15h-6.06587l1.15779 5.95435
l7 36l0.786654 4.04565h4.12142h18c55.2471 0 83.3604 31.3191 95.0871 90.9298c9.81179 53.9648 2.81083 106.891 11.9902 160.947c10.4008 55.786 38.969 90.4092 76.109 104.567c-31.1667 15.7329 -39.1863 45.2379 -39.1863 70.5567
c0 35.3043 14.2724 76.6279 28.2873 116.671c14.029 39.0807 27.7127 76.8297 27.7127 103.329c0 38.3545 -15.257 66.1263 -62.1 68h-17.9h-6.06587l1.15779 5.95435l7 36l0.786654 4.04565h4.12142h11c67.1425 0 114 -40.0129 114 -105
c0 -44.1014 -14.2852 -85.67 -29.3412 -124.815c-15.0104 -38.0264 -27.6588 -72.5325 -27.6588 -102.185c0 -12.6571 -2.20071 -52.9436 61.9265 -52.0005l6.04873 0.088952z" />
    <glyph glyph-name="asciitilde" unicode="~" horiz-adv-x="596" 
d="M111 219h-38h-4.68585l-0.303637 4.67601c-5.1722 79.6519 48.11 129.324 110.989 129.324c31.0512 0 71.8429 -9.33126 134.236 -40.5279c49.838 -24.919 94.1413 -42.4721 136.764 -42.4721c39.3423 0 58 28.1778 58 77v5h5h37h4.72993l0.262369 -4.72265
c5.15485 -92.7874 -51.595 -129.277 -108.992 -129.277c-30.0383 0 -74.7208 9.27421 -138.222 40.5207c-46.0178 23.0089 -90.3194 43.4793 -133.778 43.4793c-31.5641 0 -58 -25.7095 -58 -78v-5h-5z" />
    <glyph glyph-name="exclamdown" unicode="&#xa1;" horiz-adv-x="215" 
d="M55 -202h-57h-6.16481l1.27248 6.03205l104 493l0.837052 3.96795h4.05528h39h5.94772l-1.0221 -5.85924l-86 -493l-0.722324 -4.14076h-4.20329zM151 490h1c26.4299 0 44 -23.9805 44 -49c0 -28.3001 -19.8472 -51 -47 -51c-28.2467 0 -45 22.9743 -45 49
c0 25.1299 18.5601 51 47 51z" />
    <glyph glyph-name="cent" unicode="&#xa2;" horiz-adv-x="462" 
d="M244 -21h-40h-6.11053l1.20945 5.98964l19.9831 98.9641c-54.3135 10.2071 -87.259 34.2964 -111.195 69.203c-23.7864 34.1283 -32.8871 78.1338 -32.8871 117.843c0 151.287 108.788 285.799 241.743 303.518l18.3387 100.38l0.749296 4.10141h4.16929h40h6.06426
l-1.15594 -5.95307l-18.8704 -97.1827c35.9116 -1.72105 75.4695 -15.4208 91.2368 -29.0858l3.10533 -2.69129l-2.03877 -3.56785l-20 -35l-2.46908 -4.32088l-4.33243 2.44876c-22.4804 12.7063 -53.4694 25.3528 -100.54 25.3528c-93.2865 0 -200 -111.024 -200 -258
c0 -78.1875 40.2048 -140 129 -140c47.0204 0 84.2776 13.7107 107.917 24.5453l5.47364 2.50875l1.46035 -5.8414l9 -36l0.854598 -3.41839l-2.93181 -1.95454c-19.0426 -12.6951 -68.681 -25.915 -113.629 -26.804l-19.2326 -100.971l-0.774179 -4.06444h-4.13751z" />
    <glyph glyph-name="sterling" unicode="&#xa3;" horiz-adv-x="462" 
d="M407 -5h-376h-5.99106l1.07171 5.89443l6 33l0.447214 2.45967l2.23607 1.11803c70.4267 35.2134 118.572 105.829 132.32 181.438c4.60047 24.8425 5.89286 56.5986 7.63593 89.0896h-82.7195h-6.03464l1.12179 5.92946l7 37l0.770102 4.07054h4.14275h79.1468
c1.00485 34.0566 2.26759 79.7486 10.931 127.879c20.2985 113.672 89.1963 183.121 194.922 183.121c36.0267 0 67.7149 -11.134 83.7735 -21.8397l3.47205 -2.3147l-1.65626 -3.83011l-16 -37l-2.19132 -5.06744l-4.82617 2.68121
c-17.1977 9.55427 -45.5726 18.3708 -73.5718 18.3708c-73.8264 0 -117.274 -53.0705 -131.063 -136.79c-7.56865 -47.3041 -9.7937 -90.153 -10.7982 -125.21h150.861h6.03464l-1.12179 -5.92946l-7 -37l-0.770102 -4.07054h-4.14275h-145.343
c-2.03118 -28.5864 -3.96152 -56.1262 -9.74093 -87.913c-12.6977 -68.3723 -48.1812 -129.232 -103.468 -175.087h298.552h6.09902l-1.19612 -5.98058l-8 -40l-0.803884 -4.01942h-4.09902z" />
    <glyph glyph-name="fraction" unicode="&#x2044;" horiz-adv-x="141" 
d="M-130 -16h-45h-9.78664l5.73516 7.93009l486 672l1.49699 2.06991h2.5545h45h9.78664l-5.73516 -7.93009l-486 -672l-1.49699 -2.06991h-2.5545z" />
    <glyph glyph-name="yen" unicode="&#xa5;" horiz-adv-x="462" 
d="M204 -5h-44h-6.02861l1.11485 5.92463l33.8851 180.075h-137.971h-6.09902l1.19612 5.98058l7 35l0.803884 4.01942h4.09902h139.86l13.1013 69h-137.961h-6.09902l1.19612 5.98058l7 35l0.803884 4.01942h4.09902h120.146l-98.9073 308.473l-2.09266 6.52662h6.8539h45
h3.69287l1.08602 -3.52957l71.99 -233.968c9.09231 -28.1862 15.9284 -49.8128 22.1821 -73.8347c13.7685 25.1735 30.5025 50.4131 49.9747 78.2304l167.022 231.031l1.49695 2.07063h2.55506h49h9.9176l-5.89778 -7.97339l-227.102 -307.027h115.082h6.09902
l-1.19612 -5.98058l-7 -35l-0.803884 -4.01942h-4.09902h-139.911l-13.9747 -69h138.886h6.09902l-1.19612 -5.98058l-7 -35l-0.803884 -4.01942h-4.09902h-139.853l-34.2331 -181.925l-0.76687 -4.07537h-4.14689z" />
    <glyph glyph-name="florin" unicode="&#x192;" horiz-adv-x="482" 
d="M132.191 352.452l1.15922 5.8457l7.23804 36.4736l0.796709 4.0127h4.28345h95.2971l14.4831 51.5488c35.1643 125.22 82.8123 210.667 196.569 210.667c31.7002 -1.02246 49.7373 -7.13965 61.8604 -15.9561l3.19238 -2.32227l-1.51855 -3.64453l-15 -36
l-1.95703 -4.69727l-4.66211 2.03906c-15.7666 6.89844 -31.8604 12.5811 -54.9961 12.5811c-70.3922 0 -107.149 -75.5078 -133.137 -179.567l-8.82439 -35.332h121.962h6.03516l-1.12207 -5.84473l-7 -36.4736l-0.770508 -4.0127h-4.14258h-125.764l-56.9168 -212.201
c-36.1003 -131.767 -80.4151 -219.568 -183.319 -219.568c-25.9043 0 -56.4639 7.84766 -70 18l-2.93652 2.20215l1.22168 3.46191l12 34l2.03809 5.77344l5.24902 -3.15039c13.6641 -8.19727 36.999 -12.2871 57.4277 -12.2871c57.9128 0 92.655 65.6436 119.715 166.851
l59.324 217.602h-91.5448h-6.23937z" />
    <glyph glyph-name="section" unicode="&#xa7;" horiz-adv-x="468" 
d="M139 359v-1c0 -36.9779 10.9786 -62.9134 85.2794 -101.55c39.3811 -20.1708 65.9649 -37.4468 86.063 -54.191c35.5717 24.5913 59.6576 61.0912 59.6576 98.7408c0 29.2639 -7.38334 62.1369 -83.3258 102.574c-26.1505 13.5595 -57.7299 32.3699 -82.0864 50.4774
c-43.0815 -24.5036 -65.5877 -62.0837 -65.5877 -95.0512zM443.389 650.606l-18 -33l-2.70276 -4.95506l-4.59291 3.28065c-20.2624 14.4731 -52.1898 29.0687 -98.0938 29.0687c-56.1746 0 -110 -38.7172 -110 -92c0 -49.6225 34.6526 -69.2361 101.302 -102.561
c67.3145 -36.169 110.698 -72.5898 110.698 -138.439c0 -66.378 -36.668 -108.313 -82.07 -141.207c13.4894 -20.9804 19.07 -44.5617 19.07 -68.7935c0 -106.613 -89.4542 -158.017 -181.028 -157c-54.9641 0 -105.787 17.98 -127.21 36.1903l-2.9187 2.4809
l1.6357 3.46383l17 36l2.37331 5.02584l4.74766 -2.88988c22.961 -13.9763 55.7298 -34.271 109.4 -34.271c71.1701 0 124 41.4437 124 104c0 36.7089 -14.9219 68.8787 -98.2573 111.538c-78.1559 39.078 -123.743 79.4152 -123.743 141.462
c0 51.2853 33.5597 99.6015 90.8378 137.332c-12.1113 17.5696 -18.8378 36.679 -18.8378 60.6679c0 84.5202 77.1272 144 171 144c51.1258 0 95.9296 -18.1118 114.179 -33.1403l3.18947 -2.62662z" />
    <glyph glyph-name="currency" unicode="&#xa4;" horiz-adv-x="462" 
d="M252 529h1c45.367 0 89.1352 -16.6024 115.841 -40.9327l62.5458 65.3888l3.70618 3.87465l3.60672 -3.9674l30 -33l3.35384 -3.68922l-3.67969 -3.36429l-66.6431 -60.9308c21.717 -30.2574 34.2693 -74.4322 34.2693 -120.379
c0 -50.8331 -14.5568 -95.7437 -33.3315 -121.506l65.8147 -63.907l3.58296 -3.4791l-3.47492 -3.58701l-31 -32l-3.64176 -3.75924l-3.58889 3.80975l-61.5911 65.3813c-32.088 -28.7744 -77.2379 -41.9529 -116.769 -41.9529c-41.4007 0 -86.5885 14.5459 -112.819 37.946
l-58.5633 -61.397l-3.53354 -3.70452l-3.62004 3.62004l-32 32l-3.61871 3.61871l3.70187 3.5336l62.7833 59.9295c-20.8137 28.733 -36.3309 70.5129 -36.3309 119.454c0 51.1945 16.4214 95.9112 39.2428 126.448l-65.6431 60.8863l-3.74813 3.47653l3.55885 3.67006
l32 33l3.67013 3.78482l3.58523 -3.86533l60.4862 -65.2117c27.9025 26.2461 69.5996 40.8115 110.848 40.8115zM252 482h-1c-83.3362 0 -129 -72.5939 -129 -153c0 -110.198 73.4257 -151 130 -151c64.5642 0 131 39.5857 131 153c0 74.5232 -40.7163 151 -131 151z" />
    <glyph glyph-name="quotesingle" unicode="'" horiz-adv-x="147" 
d="M134 697h57h6.36882l-1.51171 -6.1868l-54 -221l-0.931731 -3.8132h-3.92538h-32h-5.69897l0.741472 5.65053l29 221l0.570745 4.34947h4.38676z" />
    <glyph glyph-name="quotedblleft" unicode="&#x201c;" horiz-adv-x="277" 
d="M137.836 475.07l-59 -10l-9.02783 -1.53014l3.5934 8.42203c32.2274 75.533 94.9933 189.23 116.599 218.038l1.24264 1.65685l2.05025 0.292893l35 5l10.1204 1.44578l-5.07213 -8.87622c-23.6672 -41.4176 -70.7586 -149.575 -91.6055 -211.123l-0.957498 -2.8269z
M257.85 475.073l-58 -10l-8.93304 -1.54018l3.46267 8.37742c31.2402 75.5812 94.0134 189.28 115.621 218.09l1.24264 1.65685l2.05025 0.292893l35 5l10.1204 1.44578l-5.07213 -8.87622c-23.6672 -41.4176 -70.7586 -149.575 -91.6055 -211.123l-0.954412 -2.81779z" />
    <glyph glyph-name="guillemotleft" unicode="&#xab;" horiz-adv-x="377" 
d="M248.777 428.724l-154.649 -178.289l103.184 -175.905l4.41694 -7.52983h-8.72971h-46h-2.83095l-1.45651 2.42752l-108 180l-1.86484 3.10806l2.37386 2.73907l156 180l1.4953 1.72535h2.28314h50h10.9559zM393.777 428.724l-154.638 -178.277l104.164 -175.899
l4.46958 -7.54769h-8.77182h-46h-2.83095l-1.45651 2.42752l-108 180l-1.86484 3.10806l2.37386 2.73907l156 180l1.4953 1.72535h2.28314h49h10.9559z" />
    <glyph glyph-name="guilsinglleft" unicode="&#x2039;" horiz-adv-x="231" 
d="M248.777 428.724l-154.649 -178.289l103.184 -175.905l4.41694 -7.52983h-8.72971h-46h-2.83095l-1.45651 2.42752l-108 180l-1.86484 3.10806l2.37386 2.73907l156 180l1.4953 1.72535h2.28314h50h10.9559z" />
    <glyph glyph-name="guilsinglright" unicode="&#x203a;" horiz-adv-x="231" 
d="M159.86 254.538l-104.156 174.904l-4.50099 7.55827h8.79695h46h2.83095l1.45651 -2.42752l108 -180l1.86484 -3.10806l-2.37386 -2.73907l-156 -180l-1.4953 -1.72535h-2.28314h-49h-10.9165l7.1305 8.26593z" />
    <glyph glyph-name="endash" unicode="&#x2013;" horiz-adv-x="500" 
d="M40 278h441h6.16223l-1.26948 -6.03005l-8 -38l-0.835778 -3.96995h-4.05697h-440h-6.00518l1.08791 5.90581l7 38l0.754192 4.09419h4.16307z" />
    <glyph glyph-name="dagger" unicode="&#x2020;" horiz-adv-x="460" 
d="M293 679h46h6.19888l-1.31219 -6.05841l-45.655 -210.79l159.648 3.84694l6.27734 0.151261l-1.25832 -6.15179l-9 -44l-0.8437 -4.12475l-4.20818 0.129085l-158.699 4.86807l-85.2287 -467.767l-0.747715 -4.10374h-4.1713h-46h-6.10663l1.20492 5.98657
l93.7569 465.824l-157.703 -4.80801l-6.17725 -0.188331l1.10553 6.08044l8 44l0.765276 4.20902l4.27674 -0.104951l158.676 -3.89388l36.2729 212.736l0.70924 4.15959h4.21963z" />
    <glyph glyph-name="daggerdbl" unicode="&#x2021;" horiz-adv-x="460" 
d="M293 679h46h6.18494l-1.29592 -6.04765l-43.6632 -203.761l158.623 4.80675l6.31638 0.191405l-1.26636 -6.19109l-9 -44l-0.838593 -4.09979l-4.1834 0.103294l-157.759 3.89528l-42.0398 -220.709l157.77 4.81005l6.31754 0.192608l-1.2666 -6.19227l-9 -44
l-0.838593 -4.09979l-4.1834 0.103294l-157.688 3.89354l-36.2619 -208.751l-0.719897 -4.14427h-4.20633h-46h-6.1667l1.27469 6.03352l43.6931 206.814l-157.679 -3.84583l-6.27919 -0.153151l1.2587 6.15365l9 44l0.843862 4.12555l4.20896 -0.129906l157.733 -4.8683
l42.0421 220.721l-157.807 -3.84896l-6.13994 -0.149755l1.09867 6.0427l8 44l0.770037 4.2352l4.30261 -0.131982l158.653 -4.86667l35.2652 205.714l0.712317 4.15518h4.21579z" />
    <glyph glyph-name="periodcentered" unicode="&#xb7;" horiz-adv-x="181" 
d="M96 213h-1c-25.4296 0 -43 23.0088 -43 49c0 28.3001 19.8472 51 47 51c28.4056 0 44 -23.2331 44 -50c0 -25.1233 -17.6524 -50 -47 -50z" />
    <glyph glyph-name="paragraph" unicode="&#xb6;" horiz-adv-x="468" 
d="M209 -57h-40h-6.0575l1.14813 5.94769l59.8519 310.052h-1.9888c-56.6245 1.0486 -149.954 54.1198 -149.954 180c0 126.142 101.935 240 299 240c41.2479 0 70.5329 -3.00259 90.0301 -7.10725l4.80609 -1.01181l-0.925772 -4.8234l-138 -719l-0.778776 -4.05754
h-4.1316h-40h-6.04351l1.13201 5.93655l129.868 681.063h-62.8198l-130.225 -682.937l-0.774836 -4.06345h-4.13667z" />
    <glyph glyph-name="bullet" unicode="&#x2022;" horiz-adv-x="240" 
d="M129 173h-1c-50.7605 0 -93 41.2815 -93 93.949c-1.05792 51.838 42.3033 94.051 94 94.051c52.7235 0 95 -42.2076 95 -94c0 -51.7924 -42.2765 -94 -95 -94z" />
    <glyph glyph-name="quotesinglbase" unicode="&#x201a;" horiz-adv-x="156" 
d="M-16.2929 -125.95l-35 -5l-10.1204 -1.44578l5.07213 8.87622c23.6822 41.4439 71.7519 149.608 90.5607 210.984l0.903794 2.94922l3.04122 0.515462l59 10l8.90745 1.50974l-3.45108 -8.34938c-31.2402 -75.5812 -94.0134 -189.28 -115.621 -218.09l-1.24264 -1.65685z
" />
    <glyph glyph-name="quotedblbase" unicode="&#x201e;" horiz-adv-x="277" 
d="M-16.2929 -125.95l-35 -5l-10.1204 -1.44578l5.07213 8.87622c23.6822 41.4439 71.7519 149.608 90.5607 210.984l0.903794 2.94922l3.04122 0.515462l59 10l8.90745 1.50974l-3.45108 -8.34938c-31.2402 -75.5812 -94.0134 -189.28 -115.621 -218.09l-1.24264 -1.65685z
M104.707 -125.95l-35 -5l-9.89219 -1.41317l4.7996 8.76449c22.7403 41.5258 70.7938 149.68 89.6049 211.063l0.906574 2.95829l3.05199 0.508665l60 10l8.88274 1.48046l-3.43991 -8.32237c-31.2449 -75.5925 -95.0753 -189.329 -115.552 -217.996l-1.24356 -1.74099z" />
    <glyph glyph-name="quotedblright" unicode="&#x201d;" horiz-adv-x="277" 
d="M156.15 686.927l58 10l8.93304 1.54018l-3.46267 -8.37742c-31.2402 -75.5812 -94.0134 -189.28 -115.621 -218.09l-1.24264 -1.65685l-2.05025 -0.292893l-35 -5l-10.1204 -1.44578l5.07213 8.87622c23.6846 41.448 71.7613 149.608 91.5827 211.054l0.928519 2.87841z
M276.164 686.93l59 10l9.02783 1.53014l-3.5934 -8.42203c-32.2274 -75.533 -94.9933 -189.23 -116.599 -218.038l-1.24264 -1.65685l-2.05025 -0.292893l-35 -5l-10.1204 -1.44578l5.07213 8.87622c23.6846 41.448 71.7613 149.608 91.5827 211.054l0.931498 2.88764z" />
    <glyph glyph-name="guillemotright" unicode="&#xbb;" horiz-adv-x="377" 
d="M159.86 254.538l-104.156 174.904l-4.50099 7.55827h8.79695h46h2.83095l1.45651 -2.42752l108 -180l1.86484 -3.10806l-2.37386 -2.73907l-156 -180l-1.4953 -1.72535h-2.28314h-49h-10.9165l7.1305 8.26593zM304.871 254.55l-103.177 174.91l-4.44798 7.54039h8.75454
h45h2.81751l1.45943 -2.41007l109 -180l1.88555 -3.11375l-2.38405 -2.75083l-156 -180l-1.4953 -1.72535h-2.28314h-50h-10.9165l7.1305 8.26593z" />
    <glyph glyph-name="ellipsis" unicode="&#x2026;" horiz-adv-x="1000" 
d="M128 -16h-1c-25.4296 0 -43 23.0088 -43 49c0 28.3001 19.8472 51 47 51c28.3617 0 44 -23.1552 44 -49c0 -26.0407 -17.5937 -51 -47 -51zM462 -16h-1c-26.3281 0 -44 22.9395 -44 49c0 28.3001 19.8472 51 47 51c28.3617 0 44 -23.1552 44 -49
c0 -25.9822 -17.5133 -51 -46 -51zM795 -16h-1c-26.3281 0 -44 22.9395 -44 49c0 28.3001 19.8472 51 47 51c28.2467 0 45 -22.9743 45 -49c0 -26.1505 -18.6407 -51 -47 -51z" />
    <glyph glyph-name="perthousand" unicode="&#x2030;" horiz-adv-x="1040" 
d="M246 666h1c81.1177 0 108 -72.1066 108 -132c0 -142.473 -65.1487 -276 -173 -276c-73.8359 0 -111 62.8093 -111 144c0 119.544 63.0916 264 175 264zM240 622h-1c-66.4188 0 -117 -114.918 -117 -221c0 -51.9088 13.572 -99 67 -99c66.302 0 115 117.774 115 223
c0 43.1933 -11.956 97 -64 97zM149 -18h-44h-9.87016l5.8389 7.95785l496 676l1.49838 2.04215h2.53289h44h9.87016l-5.8389 -7.95785l-496 -676l-1.49838 -2.04215h-2.53289zM573 398h1c81.0906 0 109 -72.0606 109 -133c0 -142.513 -66.1713 -275 -173 -275
c-74.7676 0 -112 61.7751 -112 144c0 118.538 63.076 264 175 264zM567 354h-1c-66.3953 0 -117 -115.896 -117 -222c0 -50.8819 13.5586 -98 67 -98c66.302 0 115 117.774 115 223c0 42.2126 -11.9949 97 -64 97zM903 398h1c80.1262 0 108 -72.0868 108 -133
c0 -142.513 -66.1713 -275 -173 -275c-74.7676 0 -112 61.7751 -112 144c0 118.576 64.0979 264 176 264zM896 354h-1c-66.3687 0 -116 -115.849 -116 -222c0 -50.942 12.5619 -98 67 -98c65.2724 0 114 117.754 114 223c0 42.27 -10.993 97 -64 97z" />
    <glyph glyph-name="questiondown" unicode="&#xbf;" horiz-adv-x="351" 
d="M249.991 271.658c-2.06746 -55.8213 -34.9076 -122.631 -104.42 -194.158c-48.8156 -49.8118 -87.5711 -102.702 -87.5711 -164.5c0 -40.1539 19.0328 -79 82 -79c31.162 0 62.1633 7.7552 91.3247 26.2241l5.22775 3.31091l2.13923 -5.80648l14 -38l1.49814 -4.06637
l-3.81227 -2.06069c-37.6984 -20.3775 -80.3734 -31.6015 -116.378 -31.6015c-106.514 0 -134 79.524 -134 131c0 69.3218 47.2492 135.314 109.402 199.472c54.6415 56.6285 80.7293 103.485 84.6118 155.898l0.0100461 0.135622l0.0174033 0.134876l4 31l0.562599 4.36014
h4.39629h44h5v-5c0 -9.38659 -1.01754 -17.4248 -2.00922 -27.3416zM252 490h1c26.4299 0 44 -23.9805 44 -49c0 -28.3001 -19.8472 -51 -47 -51c-28.2467 0 -45 22.9743 -45 49c0 25.1299 18.5601 51 47 51z" />
    <glyph glyph-name="grave" unicode="`" 
d="M160 683h66h3.25655l1.3166 -2.97854l61 -138l3.10369 -7.02146h-7.67684h-33h-2.64395l-1.48845 2.18517l-94 138l-5.32314 7.81483h9.45555z" />
    <glyph glyph-name="acute" unicode="&#xb4;" 
d="M317 683h74h11.8859l-8.31176 -8.49647l-135 -138l-1.47084 -1.50353h-2.10333h-40h-9.8555l5.82068 7.95301l101 138l1.49816 2.04699h2.53666z" />
    <glyph glyph-name="circumflex" unicode="&#x2c6;" 
d="M255 683h35h3.1718l1.35155 -2.86944l65 -138l3.3586 -7.13056h-7.88195h-43h-3.2626l-1.31398 2.98631l-41.3322 93.9367l-73.1296 -94.9735l-1.50114 -1.94953h-2.46051h-47h-10.5566l6.68806 8.16772l113 138l1.50035 1.83228h2.36819z" />
    <glyph glyph-name="tilde" unicode="&#x2dc;" 
d="M181 570h-34h-5.61508l0.648547 5.5775c5.05764 43.4957 26.7377 87.4225 69.9665 87.4225c26.6101 0 39.9524 -10.9128 63.4314 -23.6306c14.3186 -8.18207 26.4549 -15.3694 38.5686 -15.3694c13.4045 0 19.0517 4.72876 23.0363 37.6017l0.533133 4.39834h4.43054h34
h5.67888l-0.719127 -5.63316c-6.03236 -47.2535 -22.0657 -84.3668 -68.9597 -84.3668c-22.4413 0 -42.4278 9.61553 -59.6687 20.7714c-13.2289 8.14084 -26.3409 17.2286 -41.3313 17.2286c-15.5017 0 -20.964 -13.1482 -25.0581 -39.7603l-0.652264 -4.23971h-4.28959z
" />
    <glyph glyph-name="macron" unicode="&#xaf;" 
d="M168 641h202h5.97734l-1.05598 -5.88332l-7 -39l-0.738891 -4.11668h-4.18246h-202h-5.97734l1.05598 5.88332l7 39l0.738891 4.11668h4.18246z" />
    <glyph glyph-name="breve" unicode="&#x2d8;" 
d="M164 683h36h5.51154l-0.535171 -5.4855c-3.79239 -38.8719 17.4456 -68.5145 55.0236 -68.5145c48.9626 0 74.4725 36.4701 83.1575 70.2452l0.965519 3.75479h3.87695h39h6.03l-1.11644 -5.92574c-13.3939 -71.0909 -69.2686 -118.074 -130.914 -118.074
c-8.30065 0 -16.0319 0.561754 -23.2243 1.63504c-70.4623 10.5147 -86.1725 69.6679 -78.7176 118.125l0.652264 4.23971h4.28959z" />
    <glyph glyph-name="dotaccent" unicode="&#x2d9;" 
d="M262 575h-1c-24.3939 0 -39 21.0331 -39 43c0 23.3326 17.7682 45 42 45c25.2825 0 40 -20.9607 40 -43c0 -22.9636 -14.6743 -45 -42 -45z" />
    <glyph glyph-name="dieresis" unicode="&#xa8;" 
d="M178 575h-1c-24.2612 0 -40 20.8316 -40 43c0 23.5137 18.8979 45 43 45c25.1523 0 41 -20.7619 41 -43c0 -22.1297 -15.703 -45 -43 -45zM347 575h-1c-25.4145 0 -39 21.1671 -39 43c0 23.3326 17.7682 45 42 45c26.1747 0 41 -20.8894 41 -43
c0 -22.1297 -15.703 -45 -43 -45z" />
    <glyph glyph-name="ring" unicode="&#x2da;" horiz-adv-x="377" 
d="M266 717h1c53.7654 0 93 -40.4322 93 -95c0 -56.0885 -48.5025 -95 -96 -95c-54.5922 0 -95 40.2007 -95 92c0 54.7116 43.2219 98 97 98zM265 677h-1c-25.4618 0 -46 -23.8719 -46 -57c0 -29.0136 19.4884 -53 45 -53c26.6383 0 49 24.0497 49 59
c0 28.7484 -19.1056 51 -47 51z" />
    <glyph glyph-name="cedilla" unicode="&#xb8;" 
d="M139 6h38h10.1433l-6.17751 -8.04513l-38.4692 -50.0995c29.3995 -9.70609 46.5035 -33.5573 46.5035 -65.8554c0 -49.4919 -44.1646 -85 -103 -85c-25.8758 0 -49.6134 6.99092 -61.9409 15.9563l-3.22637 2.34645l1.5715 3.66683l15 35l2.32809 5.43221
l4.97142 -3.19591c13.0757 -8.4058 30.1601 -13.2059 48.2962 -13.2059c24.1732 0 43 14.5113 43 36c0 19.4215 -20.4502 31.0154 -57.6696 36.045l-8.38386 1.13295l5.03566 6.79815l60 81l1.49916 2.02386h2.51863z" />
    <glyph glyph-name="hungarumlaut" unicode="&#x2dd;" 
d="M276 683h66h11.5183l-7.86565 -8.41442l-129 -138l-1.48217 -1.58558h-2.17046h-36h-9.74051l5.67782 7.91454l99 138l1.49609 2.08546h2.5666zM402 683h66h11.4574l-7.79151 -8.40022l-128 -138l-1.48386 -1.59978h-2.182h-37h-9.74051l5.67782 7.91454l99 138
l1.49609 2.08546h2.5666z" />
    <glyph glyph-name="ogonek" unicode="&#x2db;" 
d="M145 7h48h16.0412l-13.2003 -9.11448c-41.5462 -28.6867 -88.841 -82.0716 -88.841 -122.886c0 -20.4843 11.5338 -31 30 -31c14.0896 0 27.2701 3.72522 40.7639 10.4721l5.31703 2.65851l1.70817 -5.69391l9 -30l1.12493 -3.74976l-3.37041 -1.99161
c-22.6942 -13.4102 -43.8112 -18.6954 -68.5436 -18.6954c-43.5119 0 -72 29.296 -72 69c0 65.1405 62.9732 117.981 90.9109 139.932l1.35979 1.06841h1.72932z" />
    <glyph glyph-name="caron" unicode="&#x2c7;" 
d="M268 535h-35h-3.1306l-1.3673 2.81623l-67 138l-3.48777 7.18377h7.98568h43h3.23293l1.32668 -2.94818l42.7098 -94.9107l75.8071 95.9584l1.5014 1.90051h2.42201h46h10.6158l-6.76103 -8.18441l-114 -138l-1.49984 -1.81559h-2.35497z" />
    <glyph glyph-name="emdash" unicode="&#x2014;" horiz-adv-x="1000" 
d="M40 278h941h6.16223l-1.26948 -6.03005l-8 -38l-0.835778 -3.96995h-4.05697h-940h-6.00518l1.08791 5.90581l7 38l0.754192 4.09419h4.16307z" />
    <glyph glyph-name="AE" unicode="&#xc6;" horiz-adv-x="748" 
d="M7.1875 0h-2.61719h-48h-9.57031l5.4668 7.74023l475.311 664.115l1.51776 2.14453h2.65881h320.616h6.12988l-1.23145 -6.00488l-8 -39l-0.819336 -3.99512h-4.0791h-246.01l-30.3433 -246h233.353h6.12988l-1.23145 -6.00488l-8 -39l-0.819336 -3.99512h-4.0791
h-231.633l-33.4364 -281h258.069h6.12988l-1.23145 -6.00488l-8 -39l-0.819336 -3.99512h-4.0791h-303.613h-5.6834l0.625194 5.5498l29.9089 265.45h-202.338l-188.791 -268.85zM380.179 525.183l-148.202 -211.183h175.094l24.9173 208.584
c3.47186 28.9902 8.67021 69.957 13.0605 101.489c-18.8979 -30.5527 -40.6624 -63.6553 -64.87 -98.8906z" />
    <glyph glyph-name="ordfeminine" unicode="&#xaa;" horiz-adv-x="319" 
d="M299 261h-37h-4.74376l-0.249327 4.73721c-0.769466 14.6199 0.34802 35.0234 2.47571 53.8104c-28.9214 -39.6562 -69.5063 -63.5476 -112.483 -63.5476c-61.7002 0 -95 52.5805 -95 118c0 111.142 78.7227 222 210 222c24.7585 0 63.7353 -5.94237 83.7285 -13.3083
l3.93905 -1.45123l-0.747476 -4.13079l-37.9919 -209.955c-5.91393 -36.4692 -6.92822 -73.3081 -6.92822 -101.155v-5h-5zM275.08 431.891l21.2237 113.836c-12.4913 4.0788 -27.0336 6.27279 -47.3037 6.27279c-74.7924 0 -146.021 -68.2918 -147 -173.023
c0 -39.55 12.373 -77.9766 57 -77.9766c48.292 0 103.32 58.2564 116.08 130.891z" />
    <glyph glyph-name="Lslash" unicode="&#x141;" horiz-adv-x="437" 
d="M387.411 -0h-4.07812h-334h-6.03418l1.12109 5.8418l52.791 275.206l-92.1045 -60.5l-10.1064 -6.63867l2.43359 11.7246l9 43.3535l0.410156 1.97363l1.69629 1.125l99.2734 65.8555l68.3747 332l0.82937 4.05859h4.40388h47.9516h6.43621l-1.20295 -5.84082
l-59.4275 -288.653l141.374 88.9385l10.0557 6.62109l-2.37305 -11.6758l-9 -44.292l-0.40332 -1.98535l-1.70605 -1.13086l-149.262 -94.3252l-55.495 -272.656h282.964h6.12891l-1.23145 -6.00488l-8 -39z" />
    <glyph glyph-name="Oslash" unicode="&#xd8;" horiz-adv-x="665" 
d="M47.0449 -30.2266l-3.69043 3.69141l-24 24l-3.35449 3.35352l3.17383 3.52637l78.416 85.8682c-33.0225 50.0225 -46.7002 100.012 -46.7002 172.984c0 115.479 44.2764 240.75 122.226 320.737c63.339 64 150.546 101.065 234.97 101.065
c76.7759 0 134.006 -21.9229 174.816 -63.6855l74.3438 79.1094l3.26074 3.4707l3.625 -3.08789l27 -23l3.95801 -3.37109l-3.52246 -3.82324l-79.334 -84.8613c35.167 -52.8184 46.6562 -111.438 46.6562 -170.012c0 -115.486 -45.2021 -247.544 -121.2 -327.609
c-60.2991 -62.0791 -146.506 -99.1299 -231.934 -99.1299c-75.9654 0 -135.793 22.7422 -180.711 65.7734l-74.4707 -81.1543zM125.703 390.647c-24.2988 -86.5049 -26.2129 -183.736 11.1713 -265.135l410.717 454.485c-32.1582 34.5557 -74.5364 56.002 -147.692 56.002
c-125.82 0 -233.896 -104.712 -274.197 -245.353zM579.113 270.479c25.3467 81.8887 34.4883 188.929 -6.22194 276.035l-409.653 -452.455c35.1381 -36.4463 78.3998 -56.0586 153.774 -56.0586c109.494 0 217.614 93.8594 262.101 232.479z" />
    <glyph glyph-name="OE" unicode="&#x152;" horiz-adv-x="861" 
d="M468.94 0c-21.026 0 -43.1829 -1.98242 -68.7555 -2.98926c-18.5338 -2.02539 -38.9045 -3.01074 -67.4886 -3.01074c-201.852 0 -283.696 137.135 -283.696 284.848c0 193.294 130.03 401.152 415.873 401.152c24.4218 0 44.8501 0.00683594 70.6291 -2.02148
c28.5464 -3.00781 45.3842 -3.97852 68.6652 -3.97852h285.832h6.12988l-1.23145 -6.00488l-8 -39l-0.820312 -3.99512h-4.07812h-273.614l-47.9112 -246h256.526h6.12988l-1.23145 -6.00488l-8 -39l-0.820312 -3.99512h-4.07812h-258.575l-55.0145 -281h289.59h5.97754
l-1.05664 -5.88379l-7 -39l-0.738281 -4.11621h-4.18262h-309.06zM350.998 44c34.0868 0 59.0488 1.92578 89.1878 7.17188l111.307 573.107c-20.4561 4.24707 -40.8367 6.7207 -90.6861 6.7207c-237.812 0 -354.806 -171.216 -354.806 -348.07
c0 -126.187 55.1045 -238.93 244.998 -238.93z" />
    <glyph glyph-name="ordmasculine" unicode="&#xba;" horiz-adv-x="322" 
d="M220 596h1c96.3111 0 133 -70.2832 133 -138c0 -109.105 -76.5914 -202 -176 -202c-92.3528 0 -132 72.15 -132 136c0 114.204 82.6131 204 174 204zM216 552h-1c-61.0999 0 -117 -67.6384 -117 -157c0 -62.7648 35.8907 -95 82 -95c58.4812 0 121 58.941 121 160
c0 40.0103 -14.8161 92 -85 92z" />
    <glyph glyph-name="ae" unicode="&#xe6;" horiz-adv-x="711" 
d="M619.438 75.2109l2.18457 -5.30762l14 -34l1.5293 -3.71387l-3.29688 -2.29395c-23.707 -16.4922 -72.1522 -40.8955 -150.982 -40.8955c-81.2577 0 -140.627 41.6924 -160.888 113.31c-40.5754 -73.5127 -111.512 -113.31 -187.827 -113.31
c-85.0392 0 -126.121 57.4082 -127.158 119.325c0 120.332 119.528 192.537 321.279 185.134l3.31754 18.2529c1.51696 8.5625 2.36282 17.6045 2.3778 26.7559c0.0878818 50.8438 -24.514 103.532 -100.622 103.532c-43.9878 0 -78.5973 -11.5576 -118.703 -36.2402
l-4.96582 -3.10352l-2.28711 5.39062l-14 33l-1.64648 3.87988l3.54492 2.2793c57.5094 36.6025 110.726 43.7939 144.193 43.7939c80.7294 0 130.161 -40.0391 140.695 -108.327c47.0617 74.835 123.514 108.327 192.681 108.327
c83.5254 0 126.136 -51.0635 126.136 -106.646c0 -133.19 -159.38 -142.582 -327.516 -138.072c-9.65002 -47.6113 -11.7492 -92.6221 3.714 -134.229c18.6589 -49.7979 61.3575 -74.0527 114.834 -74.0527c67.4063 0 100.481 20.3379 124.449 34.3193zM141.317 38
c69.889 0 146.707 52.9482 166.773 158.906l10.1983 54.3994c-9.18465 0.407227 -15.3703 0.544922 -23.7261 0.557617c-103.834 0.151367 -230.562 -29.3223 -230.562 -136.863c0 -48.4316 29.5078 -77 77.3167 -77zM429.329 289.365
c122.518 -0.0332031 213.671 13.9492 213.671 90.6348v1c0 30.9268 -26.2881 62 -75.2489 62c-94.8175 0 -160.689 -87.7158 -183.273 -153.139c15.8517 -0.304688 30.0775 -0.492188 44.8517 -0.496094z" />
    <glyph glyph-name="dotlessi" unicode="&#x131;" horiz-adv-x="216" 
d="M93.1816 0h-4.13184h-45h-6.0498l1.13867 5.81934l92 470.122l0.77832 4.05859h4.13281h45h6.04883l-1.13867 -5.81934l-92 -470.122z" />
    <glyph glyph-name="lslash" unicode="&#x142;" horiz-adv-x="222" 
d="M98.3906 -0h-4.14453h-45h-6.03125l1.11816 5.84473l57.6924 301.499l-66.873 -47.0986l-10.1523 -7.15039l2.33398 12.084l8 41.4141l0.371094 1.91699l1.60059 1.14746l75.4023 54.0723l66.6279 342.213l0.77832 4.05762h4.13184h45h6.03418l-1.12109 -5.92871
l-56.6494 -295.352l67.7861 48.8389l10.5107 7.57324l-2.66699 -12.5635l-9 -42.3945l-0.392578 -1.85254l-1.55078 -1.11719l-76.4033 -55.0469l-66.6338 -348.085z" />
    <glyph glyph-name="oslash" unicode="&#xf8;" horiz-adv-x="521" 
d="M56.4131 -29.2061l-3.83203 3.52637l-25 23l-3.58105 3.29395l3.19531 3.66992l51.3018 57.7158c-29.9326 38.8447 -38.5312 85.7988 -38.5312 132.1c0 147.837 108.448 296.9 262.49 296.9c55.8398 0 95.1986 -15.123 122.068 -37.9131l45.6797 52.2061l3.17871 3.63281
l3.74219 -3.0498l27 -22l4.03418 -3.28613l-3.44434 -3.90039l-50.3818 -55.8896c30.3467 -43.2764 38.6338 -89.9736 38.6338 -128.028c0 -156.702 -117.748 -303.771 -259.329 -303.771c-58.192 0 -98.7269 16.8682 -127.133 40.9004l-46.7236 -55.1328zM96.9658 190
c0 -40.0732 5.55566 -66.5547 20.2207 -93.1211l272.152 314.975c-19.3903 19.2412 -49.6431 31.1465 -91.054 31.1465c-120.711 0 -201.319 -134.364 -201.319 -253zM435.966 293c0 34.7393 -6.96094 63.3467 -19.4609 89.7188l-273.815 -311.517
c22.6433 -21.5098 53.5477 -33.2021 94.0758 -33.2021c96.9483 0 199.201 120.804 199.201 255z" />
    <glyph glyph-name="oe" unicode="&#x153;" horiz-adv-x="804" 
d="M714.377 76.5195l2.26562 -5.66211l14 -35l1.43359 -3.58398l-3.10449 -2.29395c-24.0518 -17.7773 -79.2936 -40.9795 -147.77 -40.9795c-83.5548 0 -146.189 43.9932 -164.897 124.087c-47.3204 -82.3496 -122.788 -124.087 -201.198 -124.087
c-114.615 0 -177.107 94.3555 -177.107 196.094c0 150.684 103.16 305.906 261.747 305.906c90.2022 0 146.892 -55.1836 163.001 -128.754c49.9455 87.082 134.506 128.754 206.153 128.754c98.091 0 125.099 -62.6338 125.099 -107.619
c0 -135.993 -169.031 -147.575 -328.046 -150.593c-9.01554 -39.9414 -5.66247 -84.5859 6.87045 -118.808c16.6767 -46.1162 54.2516 -74.9805 115.515 -74.9805c55.8728 0 98.5693 19.6055 120.929 34.1885zM95 190.241c0 -90.0332 50.4561 -152.241 129.285 -152.241
h1.01976c113.547 0 193.755 146.437 193.755 257.639c0 72.4326 -27.5914 147.361 -124.411 147.361c-119.123 0 -199.648 -128.177 -199.648 -252.759zM476.003 274.163c134.475 3.23828 261.997 13.9238 261.997 103.837v1c0 38.6602 -29.7959 64 -78.2767 64
c-89.2163 0 -156.298 -85.7041 -183.721 -168.837z" />
    <glyph glyph-name="germandbls" unicode="&#xdf;" horiz-adv-x="533" 
d="M429.316 507.307c10.3438 10.1816 22.7676 38.4834 23.7227 76.7002c-0.958008 43.1025 -23.9902 87.9932 -96.3624 87.9932c-84.0461 0 -143.458 -67.6455 -168.411 -193.943l-94.3157 -474l-0.779297 -4.05664h-4.13086h-45h-6.04004l1.12891 5.85254l88.999 461.595
c25.0498 130.453 85.4359 253.553 236.912 253.553c94.7596 0 143 -63.5928 143 -136c0 -45.8018 -23.2842 -92.7334 -41.3643 -111.562l-0.905273 -0.942383l-1.25977 -0.380859c-51.3564 -15.541 -94.2433 -46.8877 -94.2433 -93.6494
c0 -33.6572 15.5541 -53.9385 41.6847 -86.4355c33.2686 -40.6523 56.0879 -82.1367 56.0879 -131.901c0 -100.559 -88.1808 -171.129 -197.09 -171.129c-36.3354 0 -72.7188 8.10449 -99.9157 23.7129l-3.92553 2.25293l1.81728 4.01855l16.7271 37l2.29917 5.08496
l5.05265 -2.70703c25.2071 -13.502 56.9431 -20.3623 81.0813 -20.3623c77.0976 0 136.954 48.0537 136.954 120.434c0 28.3262 -8.46289 61.1865 -42.6236 97.6357c-41.1553 45.4639 -57.7395 78.8125 -57.7395 110.921c0 69.2422 55.1575 116.102 118.639 140.316z" />
    <glyph glyph-name="logicalnot" unicode="&#xac;" horiz-adv-x="596" 
d="M60 389h493h5v-5v-255v-5h-5h-41h-5v5v212h-447h-5v5v38v5h5z" />
    <glyph glyph-name="mu" unicode="&#xb5;" horiz-adv-x="505" 
d="M169.914 479.078l-54.9948 -292.972c-2.91861 -16.0524 -4.47486 -31.413 -4.52793 -45.7407c-0.232625 -62.7999 27.3262 -105.365 97.6086 -105.365c56.7304 0 112.861 58.862 142.604 114.381c12.765 23.5661 21.5977 48.1197 26.4884 72.5736l48.9952 258.974
l0.770102 4.07054h4.14275h45h6.03827l-1.12597 -5.93236l-66.9947 -352.972c-2.47896 -13.9203 -4.22906 -26.068 -5.18552 -36.427c-4.02536 -43.5968 4.72094 -54.5981 27.7206 -56.689l6.18559 -0.562326l-1.87036 -5.9228l-12 -38l-0.980295 -3.10427
l-3.23546 -0.359496c-8.54598 -0.949554 -6.64265 -1.03058 -14.5522 -1.03058c-33.8833 0 -60.2805 24.0624 -54.6749 95.5756c-33.5199 -50.2448 -90.4586 -94.5756 -156.325 -94.5756c-46.6225 0 -89.978 20.6439 -112.009 62.7883l-11.0742 -61.6987
c-9.9578 -53.7721 -23.8068 -143.969 -19.94 -183.604l0.535171 -5.4855h-5.51154h-41h-4.12505l-0.78385 4.04989c-6.31121 32.6079 0.941975 100.591 15.9971 180.885l95 499l0.773877 4.06489h4.1379h44h6.02589z" />
    <glyph glyph-name="trademark" unicode="&#x2122;" horiz-adv-x="651" 
d="M104 679h220h5v-5v-31v-5h-5h-87v-236v-5h-5h-36h-5v5v236h-87h-5v5v31v5h5zM657 397h-38h-4.66098l-0.326723 4.64951l-13.0014 185.019c-0.666952 10.6712 -1.42352 24.9221 -2.04144 37.574c-5.30994 -15.6249 -10.45 -31.4958 -15.2464 -45.8847l-63.0218 -174.06
l-1.19403 -3.29779h-3.5073h-41h-3.52227l-1.18584 3.31665l-64 179l-0.0482633 0.134986l-0.04045 0.13753c-3.08777 10.4984 -8.43982 26.5952 -12.6312 38.8228c-0.429286 -12.426 -0.972067 -22.9334 -1.5803 -35.7061l-13.004 -185.056l-0.326723 -4.64951h-4.66098
h-36h-5.42074l0.437015 5.4031l22 272l0.371808 4.5969h4.61192h53h3.48842l1.20422 -3.27397l63.9758 -173.934c6.22255 -15.5564 11.3997 -32.9526 15.3064 -45.467c5.34223 16.801 10.1939 31.8135 14.3262 43.3838l64 176l1.19683 3.29128h3.50214h53h4.57825
l0.4024 -4.56053l24 -272l0.479953 -5.43947h-5.4606z" />
    <glyph glyph-name="Eth" unicode="&#xd0;" horiz-adv-x="649" 
d="M16 331l1.60059 6.24219l10 39l0.963867 3.75781h3.87891h82.8574l55.1212 282.209l0.677693 3.43848l3.61303 0.513672c55.637 7.89648 113.358 12.8389 169.108 12.8389c112.924 0 204.445 -36.8096 250.651 -100.562
c25.6943 -33.4258 47.9717 -90.6768 47.9717 -164.55c0 -112.636 -48.3428 -242.045 -141.316 -320.119c-78.076 -62.9639 -181.948 -96.7686 -299.998 -96.7686c-46.2766 0 -101.925 0.993164 -152.281 7.03516l-5.31445 0.638672l0.998047 5.17871l61.875 321.147
h-83.9629h-6.44336zM365.512 380l-1.26416 -6.00488l-8.21252 -39l-0.841101 -3.99512h-4.18746h-188.747l-54.909 -279.8c36.2404 -4.30957 73.7511 -5.2002 103.016 -5.2002c108.693 0 199.707 34.9629 264.41 94.0254c71.9815 65.6924 110.666 171.604 110.666 270.729
c0 118.862 -54.585 219.246 -255.994 219.246c-33.6641 0 -74.0991 -0.220703 -108.548 -5.27344l-48.4801 -244.727h186.799h6.29272z" />
    <glyph glyph-name="onehalf" unicode="&#xbd;" horiz-adv-x="705" 
d="M166 261h-40h-6.04793l1.1371 5.94007l65.3307 341.28l-61.2368 -29.7179l-6.07979 -2.95049l-1.04326 6.67688l-5 32l-0.575255 3.68163l3.36361 1.60358l86 41l1.02082 0.486668h1.13089h36h6.03793l-1.12558 -5.93209l-74 -390l-0.77186 -4.06791h-4.14049zM111 -16
h-45h-9.78664l5.73516 7.93009l486 672l1.49699 2.06991h2.5545h45h9.78664l-5.73516 -7.93009l-486 -672l-1.49699 -2.06991h-2.5545zM613 -5h-239h-5.97195l1.04981 5.87895l5 28l0.324634 1.81795l1.42839 1.17049l71.9783 58.9822
c99.3911 83.3279 163.191 140.445 163.191 207.15c0 27.2363 -12.0862 57 -61 57c-31.1671 0 -63.4452 -18.3665 -78.847 -30.8806l-4.70042 -3.81909l-2.85994 5.33856l-15 28l-1.98195 3.69965l3.30025 2.59305c28.7362 22.5784 68.66 40.0684 109.089 40.0684
c74.0265 0 105 -51.9201 105 -102c0 -82.4298 -86.2885 -155.234 -180.854 -230.886l-33.4935 -27.1138h170.347h6.09902l-1.19612 -5.98058l-7 -35l-0.803884 -4.01942h-4.09902z" />
    <glyph glyph-name="plusminus" unicode="&#xb1;" horiz-adv-x="596" 
d="M296 572h40h5v-5v-203h222h5v-5v-38v-5h-5h-222v-211v-5h-5h-40h-5v5v211h-222h-5v5v38v5h5h222v203v5h5zM69 43h494h5v-5v-38v-5h-5h-494h-5v5v38v5h5z" />
    <glyph glyph-name="Thorn" unicode="&#xde;" horiz-adv-x="495" 
d="M39 0l1.12695 5.8457l128.478 664.087l0.812896 4.06738h4.35634h47.3555h6.39115l-1.22705 -5.87207l-26.841 -128.442c28.7597 5.87598 55.5698 7.21191 85.8699 7.21191c73.4669 0 125.163 -17.958 158.483 -54.8926
c24.9746 -28.708 36.2334 -65.374 36.2334 -104.726c0 -140.586 -130.88 -223.661 -276.799 -223.661c-23.8463 0 -54.1898 1.06152 -77.2005 4.27637l-32.0908 -163.842l-0.782227 -4.05273h-4.12695h-44h-6.03906zM274.799 502
c-32.1489 0 -68.6645 -4.62402 -84.8823 -8.89746l-55.0261 -277.165c28.1184 -5.22363 52.6481 -5.9375 74.6631 -5.9375c114.973 0 214.485 68.6621 214.485 173c0 83.4736 -59.3359 119 -149.24 119z" />
    <glyph glyph-name="onequarter" unicode="&#xbc;" horiz-adv-x="705" 
d="M570 -5h-40h-6.03464l1.12179 5.92946l19.8782 105.071h-184.965h-5.9023l0.970332 5.82199l4 24l0.250026 1.50015l1.043 1.10686l245 260l1.48036 1.57099h2.15858h36h6.04678l-1.13577 -5.93916l-46.8642 -245.061h54.9532h5.99106l-1.07171 -5.89443l-6 -33
l-0.746468 -4.10557h-4.17288h-56.8573l-20.2299 -106.929l-0.770102 -4.07054h-4.14275zM552.873 149l27.2087 140.902c2.29016 13.1684 5.13276 25.5975 7.5604 35.3332c-9.9277 -13.5917 -16.6424 -22.8287 -26.9378 -34.5948l-133.085 -141.641h125.254zM168 261h-40
h-6.04793l1.1371 5.94007l65.3307 341.28l-61.2368 -29.7179l-6.27874 -3.04703l-0.865643 6.92514l-4 32l-0.447578 3.58062l3.25726 1.55288l86 41l1.02082 0.486668h1.13089h36h6.05315l-1.14312 -5.94424l-75 -390l-0.779954 -4.05576h-4.13008zM128 -16h-45h-9.78664
l5.73516 7.93009l486 672l1.49699 2.06991h2.5545h45h9.78664l-5.73516 -7.93009l-486 -672l-1.49699 -2.06991h-2.5545z" />
    <glyph glyph-name="divide" unicode="&#xf7;" horiz-adv-x="616" 
d="M367.742 437c0 -26.1934 -18.4771 -49 -47.7424 -49h-1.03788c-27.1896 0 -46.8018 22.8535 -45.6667 49.1045c0 27.1357 19.6518 48.8955 47.7424 48.8955c28.1535 0 46.7045 -21.8262 46.7045 -49zM577 243h-5h-504h-5v5v38v5h5h504h5v-5v-38v-5zM367.742 92
c0 -26.1934 -18.4771 -49 -47.7424 -49h-1.03788c-27.1896 0 -46.8018 22.8535 -45.6667 49.1045c0 27.1357 19.6518 48.8955 47.7424 48.8955c28.1535 0 46.7045 -21.8262 46.7045 -49z" />
    <glyph glyph-name="brokenbar" unicode="&#xa6;" horiz-adv-x="203" 
d="M100 179h40h5v-5v-350v-5h-5h-40h-5v5v350v5h5zM100 679h40h5v-5v-350v-5h-5h-40h-5v5v350v5h5z" />
    <glyph glyph-name="degree" unicode="&#xb0;" horiz-adv-x="294" 
d="M219 691h1c75.1285 0 119 -60.726 119 -121c0 -78.913 -64.3461 -130 -124 -130c-70.9846 0 -120 57.5416 -120 123c0 71.6906 57.1491 128 124 128zM217 648h-1c-48.079 0 -73 -47.5397 -73 -84c0 -45.6772 33.2001 -81 72 -81c41.8305 0 76 36.2684 76 86
c0 30.6027 -18.8703 79 -74 79z" />
    <glyph glyph-name="thorn" unicode="&#xfe;" horiz-adv-x="523" 
d="M-9 -198l1.12793 5.93359l165.783 853l0.802988 4.06641h4.30325h47.8179h6.32645l-1.22834 -5.9707l-55.2671 -268.631c50.2644 65.0371 114.756 100.602 183.227 100.602c106.87 0 150.146 -84.9766 150.146 -170.602c0 -171.693 -133.955 -331.398 -295.679 -331.398
c-38.1039 0 -84.9797 6.88379 -113.286 22.2207l-37.1152 -205.111l-0.744141 -4.10938h-4.17578h-46h-6.04004zM333.499 442c-71.3472 0 -176.065 -72.6152 -207.997 -229.265l-29.9683 -150.231c24.6113 -16.7549 66.5433 -24.5039 108.026 -24.5039
c125.803 0 233.481 141.287 233.481 278.116c0 58.7686 -25.2188 125.884 -103.541 125.884z" />
    <glyph glyph-name="threequarters" unicode="&#xbe;" horiz-adv-x="705" 
d="M163 -16h-45h-9.78664l5.73516 7.93009l486 672l1.49699 2.06991h2.5545h45h9.78664l-5.73516 -7.93009l-486 -672l-1.49699 -2.06991h-2.5545zM126.306 597.279l-11 30l-1.26978 3.46304l2.93395 2.23539c21.9357 16.7129 61.6081 33.0228 98.0302 33.0228
c73.652 0 100 -44.6963 100 -88c0 -45.9377 -34.667 -80.3849 -79.2485 -99.7084c39.1716 -15.9007 59.2485 -52.8809 59.2485 -92.3621c-2.08699 -74.0882 -58.8956 -129.93 -155 -129.93c-41.0999 0 -78.8221 14.0545 -95.1235 27.0957l-3.11463 2.49171l1.73731 3.59044
l15 31l2.58241 5.33699l4.82457 -3.44612c13.2282 -9.44871 41.3383 -23.0687 78.0938 -23.0687c67.5251 0 100 42.7796 100 86c0 50.8235 -45.8459 70 -90 70h-21h-5.84192l0.901857 5.77188l5 32l0.660643 4.22812h4.27942h24c46.695 0 102 32.3471 102 77
c0 27.4779 -13.2326 48 -58 48c-26.5119 0 -54.643 -12.5444 -71.7991 -26.8411l-5.45211 -4.54342zM581 -5h-40h-6.03464l1.12179 5.92946l19.8782 105.071h-184.965h-5.9023l0.970332 5.82199l4 24l0.250026 1.50015l1.043 1.10686l245 260l1.48036 1.57099h2.15858h36
h6.04678l-1.13577 -5.93916l-46.8642 -245.061h54.9532h5.99106l-1.07171 -5.89443l-6 -33l-0.746468 -4.10557h-4.17288h-56.8573l-20.2299 -106.929l-0.770102 -4.07054h-4.14275zM563.873 149l27.2087 140.902c2.29016 13.1684 5.13276 25.5975 7.5604 35.3332
c-9.9277 -13.5917 -16.6424 -22.8287 -26.9378 -34.5948l-133.085 -141.641h125.254z" />
    <glyph glyph-name="registered" unicode="&#xae;" horiz-adv-x="386" 
d="M273.094 478.029c-3.4607 15.5731 -11.4441 21.9712 -34.0939 21.9712h-15v-65v-5h-5h-31h-5v5v167v4.1949l4.13107 0.729013c17.2231 3.03938 35.5811 5.07608 58.8689 5.07608c28.5319 0 43.9865 -5.26223 55.9043 -13.9297
c11.3884 -7.97191 19.0957 -22.5455 19.0957 -39.0703c0 -20.7228 -13.7904 -34.5232 -28.2345 -41.4543c13.1806 -9.06429 18.8186 -21.4119 23.1238 -39.494c5.0373 -26.1939 8.06718 -35.4726 11.2709 -40.2782l5.18233 -7.7735h-9.34259h-32h-2.34187l-1.49923 1.79908
c-6.45436 7.74523 -10.0473 23.1277 -14.065 46.2297zM224 576.805v-42.8054h16c22.9401 0 38 6.78089 38 22c0 12.6369 -6.27132 22 -35 22c-8.75331 0 -14.7969 -0.595767 -19 -1.19458zM248 687h1c92.6803 0 166 -72.2095 166 -164c0 -93.7565 -73.3147 -166 -167 -166
c-93.656 0 -168 72.2021 -168 166c0 91.8462 74.3729 164 168 164zM248 649h-1c-69.0829 0 -122 -56.5608 -122 -126c0 -71.4246 52.8162 -127 124.035 -127c68.9945 -0.958257 119.965 55.4112 119.965 126c0 70.5573 -50.9798 127 -121 127z" />
    <glyph glyph-name="minus" unicode="&#x2212;" horiz-adv-x="596" 
d="M63 291h494h5v-5v-38v-5h-5h-494h-5v5v38v5h5z" />
    <glyph glyph-name="eth" unicode="&#xf0;" horiz-adv-x="511" 
d="M94 183.409c0 -79.5645 41.666 -145.409 125.924 -145.409h1.04957c112.917 0 203.034 131.921 204.026 276.197c0 24.1885 -1.99512 51.1504 -19.1572 75.3438c-19.3809 29.3164 -51.3647 53.459 -106.151 53.459c-123.545 0 -205.692 -133.958 -205.692 -259.591z
M176.379 513.215l-2.19548 4.78125l-14.6939 32l-2.00393 4.41895l4.53765 2.09082l131.112 60.0762c-25.0389 25.1953 -57.1952 46.2705 -90.3601 62.999l-5.31753 2.68262l3.51154 4.6543l24.14 32l2.70591 3.58594l4.06912 -2.11426
c45.5752 -23.6855 75.4684 -48.7656 110.724 -79.4297l122.244 57.5547l4.42773 2.10742l2.19238 -4.38574l16 -32l2.27637 -4.55273l-4.5918 -2.19531l-107.104 -51.1816c65.3418 -75.6875 102.947 -158.879 102.947 -266.981
c0 -220.181 -135.382 -350.325 -262.125 -350.325c-135.521 0 -180.875 102.572 -180.875 190.211c0 163.53 113.208 311.789 263.791 311.789c34.5014 0 83.1664 -9.67871 115.997 -48.1592c-20.4277 54.1953 -48.777 98.3057 -91.881 140.092l-144.609 -67.4238z" />
    <glyph glyph-name="multiply" unicode="&#xd7;" horiz-adv-x="616" 
d="M81 491.104l3.25879 3.37207l29 30l3.72949 3.85742l3.58594 -3.99121l213.248 -231.869l214.32 231.877l3.4668 3.8418l3.71973 -3.59668l30 -29l3.51367 -3.39551l-3.31445 -3.59082l-216.593 -230.602l216.586 -229.607l3.27344 -3.53027l-3.4043 -3.4043l-30 -30
l-3.7041 -3.7041l-3.52734 3.87207l-216.415 231.934l-215.186 -231.925l-3.92578 -4.33008l-3.66992 4.5498l-25 31l-2.69531 3.3418l2.89648 3.16992l212.496 228.634l-212.503 229.628z" />
    <glyph glyph-name="copyright" unicode="&#xa9;" horiz-adv-x="677" 
d="M372 653h1c169.941 0 301 -140.462 301 -313c0 -174.521 -131.057 -315 -302 -315c-171.898 0 -305 140.426 -305 315c0 172.599 133.116 313 305 313zM372 611h-1c-143.983 0 -254 -117.381 -254 -275c0 -152.525 109.909 -269 255.034 -269
c141.938 -1.95777 251.966 116.345 251.966 273c0 153.583 -110.015 271 -252 271zM510.759 491.465l-10 -31l-1.99529 -6.1854l-5.46704 3.51453c-13.1988 8.48496 -47.3837 24.2059 -96.2962 24.2059c-100.057 0 -144 -65.0758 -144 -145c0 -79.824 46.9142 -146 146 -146
c40.1475 0 77.2469 10.8855 100.11 27.0801l5.44268 3.85523l2.17428 -6.3054l10 -29l1.21688 -3.52894l-3.03755 -2.16968c-36.3531 -25.9665 -84.4162 -32.9313 -125.906 -32.9313c-117.762 0 -187 81.57 -187 186c0 115.978 91.5794 191 194 191
c54.8188 0 97.6737 -14.8492 113.254 -28.2037l2.52594 -2.16509z" />
    <glyph glyph-name="Aacute" unicode="&#xc1;" horiz-adv-x="557" 
d="M450.403 4.26953l-34.4161 232.73h-257.621l-124.586 -234.318l-1.40332 -2.68164h-3.02734h-47h-8.34961l3.94238 7.25293l368.813 664.107l1.45917 2.63965h3.08864h45.4035h4.43796l0.664082 -4.25195l102.485 -664.084l0.870117 -5.66406h-5.81445h-44h-4.31543z
M308.398 500.664l-120.824 -219.664h219.646l-34.2018 219.334c-3.65296 30.0977 -9.03817 71.6455 -12.2649 105.878c-16.4076 -34.6162 -31.8427 -67.5986 -52.3557 -105.548zM444.198 823h2.15137h77h14.1562l-11.0156 -8.89062l-140.989 -113l-1.41785 -1.10938
h-1.82295h-45.4035h-11.9908l8.2451 8.4375l109.609 113z" />
    <glyph glyph-name="Acircumflex" unicode="&#xc2;" horiz-adv-x="557" 
d="M450.403 4.26953l-34.3691 232.73h-257.439l-124.815 -234.318l-1.40332 -2.68164h-3.02734h-47h-8.34961l3.94238 7.25293l369.712 664.107l1.46436 2.63965h3.09962h45.1315h4.30078l0.643555 -4.25195l102 -664.084l0.870117 -5.66406h-5.81445h-44h-4.31543z
M309.16 500.664l-121.253 -219.664h219.631l-33.5276 219.334c-3.66595 30.0977 -9.07031 71.6455 -12.3085 105.878c-16.4659 -34.6162 -31.9559 -67.5986 -52.5418 -105.548zM369.828 823h2.06608h37.4558h2.58691l1.49414 -2.11133l80 -113l5.58496 -7.88867h-9.66602
h-47h-2.5918l-1.49414 2.11816l-52.4512 74.3857l-80.7451 -75.1055l-1.5038 -1.39844h-2.08832h-52.8139h-12.9719l9.40707 8.62598l123.232 113z" />
    <glyph glyph-name="Adieresis" unicode="&#xc4;" horiz-adv-x="557" 
d="M450.403 4.26953l-34.3691 232.73h-257.501l-124.752 -234.318l-1.40332 -2.68164h-3.02734h-47h-8.34961l3.94238 7.25293l369.465 664.107l1.46293 2.63965h3.09661h45.3824h4.30078l0.643555 -4.25195l102 -664.084l0.870117 -5.66406h-5.81445h-44h-4.31543z
M308.951 500.664l-121.135 -219.664h219.722l-33.7997 219.334c-3.66238 30.0977 -9.0615 71.6455 -12.2965 105.878c-16.4499 -34.6162 -31.9249 -67.5986 -52.4908 -105.548zM340.587 761c0 -21.2285 -17.2097 -45 -44.4861 -45h-1.03456
c-25.1376 0 -42.417 21.7646 -42.417 44c0 21.5312 19.4404 45 45.5207 45c27.4714 0 42.417 -24.0762 42.417 -44zM513.35 761c0 -21.4141 -17.7627 -45 -44 -45h-1c-23.4092 0 -40 21.833 -40 44c0 21.5312 18.791 45 44 45c25.5352 0 41 -23.9482 41 -44z" />
    <glyph glyph-name="Agrave" unicode="&#xc0;" horiz-adv-x="557" 
d="M450.403 4.26953l-34.3691 232.73h-257.439l-124.815 -234.318l-1.40332 -2.68164h-3.02734h-47h-8.34961l3.94238 7.25293l369.712 664.107l1.46436 2.63965h3.09962h45.1315h4.30078l0.643555 -4.25195l102 -664.084l0.870117 -5.66406h-5.81445h-44h-4.31543z
M309.16 500.664l-121.253 -219.664h219.631l-33.5276 219.334c-3.66595 30.0977 -9.07031 71.6455 -12.3085 105.878c-16.4659 -34.6162 -31.9559 -67.5986 -52.5418 -105.548zM240.77 823h12.0334h72.4896h2.81949l1.53009 -2.28711l74.9069 -113l4.9834 -7.71289h-9.18359
h-36.7403h-2.22788l-1.5311 1.5625l-110.806 113z" />
    <glyph glyph-name="Aring" unicode="&#xc5;" horiz-adv-x="557" 
d="M450.403 4.26953l-34.3691 232.73h-257.439l-124.815 -234.318l-1.40332 -2.68164h-3.02734h-47h-8.34961l3.94238 7.25293l369.712 664.107l1.46436 2.63965h3.09962h45.1315h4.30078l0.643555 -4.25195l102 -664.084l0.870117 -5.66406h-5.81445h-44h-4.31543z
M309.16 500.664l-121.253 -219.664h219.631l-33.5276 219.334c-3.66595 30.0977 -9.07031 71.6455 -12.3085 105.878c-16.4659 -34.6162 -31.9559 -67.5986 -52.5418 -105.548zM286.977 770c0 51.6943 40.7208 93 98.3722 93h1c53.6152 0 91 -38.2998 91 -89
c0 -54.126 -44.7168 -90 -95.1001 -90c-55.3775 0 -95.2721 38.084 -95.2721 86zM427.35 775c0 29.1201 -17.4395 51 -43.029 51h-1.03557c-26.2401 0 -44.5294 -22.6084 -44.5294 -55c0 -26.9473 17.9394 -48 43.4938 -48c25.8882 0 45.1001 21.1123 45.1001 52z" />
    <glyph glyph-name="Atilde" unicode="&#xc3;" horiz-adv-x="557" 
d="M450.403 4.26953l-34.3691 232.73h-257.464l-124.79 -234.318l-1.40332 -2.68164h-3.02734h-47h-8.34961l3.94238 7.25293l369.612 664.107l1.46378 2.63965h3.0984h45.2331h4.30078l0.643555 -4.25195l102 -664.084l0.870117 -5.66406h-5.81445h-44h-4.31543z
M309.075 500.664l-121.206 -219.664h219.668l-33.6378 219.334c-3.6645 30.0977 -9.06674 71.6455 -12.3036 105.878c-16.4594 -34.6162 -31.9433 -67.5986 -52.5212 -105.548zM329.343 801c29.1614 0 44.1469 -8.75293 63.7078 -21.7891
c15.0352 -9.02148 27.9453 -16.2109 43.2988 -16.2109c12.3799 0 22.3018 10.7471 29.2002 34.4004l1.0498 3.59961h3.75h32h6.07324l-1.16602 -5.95996c-9.12598 -46.6465 -32.2842 -84.04 -76.9072 -84.04c-25.1768 0 -38.6699 7.77051 -61.1884 20.6904
c-18.3589 10.4316 -27.2366 18.1924 -42.6366 17.3174c-14.8521 -0.796875 -25.3755 -14.541 -32.5681 -39.3564l-1.05841 -3.65137h-3.92633h-33.1251h-6.20084l1.10895 5.89453c8.39146 44.5879 36.0304 89.1055 78.5882 89.1055z" />
    <glyph glyph-name="Ccedilla" unicode="&#xc7;" horiz-adv-x="561" 
d="M488.205 74.4688l1.62988 -6.19629l10 -38l1.07129 -4.07031l-3.82715 -1.75c-35.7058 -16.0469 -94.9878 -32.0811 -155.022 -34.3652l-29.9205 -36.4102c31.798 -11.1562 48.0198 -36 48.0198 -64.6768c0 -53.5781 -49.8197 -87 -105.376 -87
c-26.9009 0 -51.3925 8.15527 -64.851 16.8398l-3.61382 2.33203l1.75344 3.84668l15.4965 34l2.31236 5.0752l4.97581 -2.75293c13.7965 -7.63086 29.4039 -12.3408 47.0261 -12.3408c25.4309 0 45.4563 12.8623 45.4563 34c0 19.666 -20.44 33.0557 -58.4083 37.0293
l-9.06986 0.949219l5.50649 7.04004l48.9198 62.541c-155.343 10.959 -242.284 117.152 -242.284 276.459c0 109.607 42.2832 234.041 129.903 316.103c74.2902 64.8975 166.456 101.879 271.099 101.879c76.7115 0 131.713 -19.6436 148.533 -36.4648l2.6084 -2.60742
l-1.72168 -3.26172l-19 -36l-2.54297 -4.81836l-4.58301 2.94629c-26.7578 17.2021 -75.9814 30.2061 -136.724 30.2061c-79.1691 0 -161.599 -31.9404 -220.586 -87.1279c-69.3187 -63.7949 -109.986 -170.748 -109.986 -271.849
c0 -125.617 50.5107 -237.023 220.031 -237.023c54.0893 0 117.549 11.0371 157.56 32.3809z" />
    <glyph glyph-name="Eacute" unicode="&#xc9;" horiz-adv-x="461" 
d="M426.169 380l-1.23242 -6.00488l-8 -39l-0.819336 -3.99512h-4.07812h-253.854l-54.1152 -282h283.97h6.12988l-1.23242 -6.00488l-8.05791 -39l-0.85706 -3.99512h-4.26589h-334.717h-6.03906l1.12695 5.8457l128.42 664.087l0.808026 4.06738h4.33024h319.354h6.12988
l-1.23242 -6.00488l-8 -39l-0.819336 -3.99512h-4.07812h-267.284l-50.2907 -245h252.575h6.12988zM412.888 823h2.15137h77h14.1553l-11.0146 -8.89062l-141.428 -113l-1.43831 -1.10938h-1.84692h-46.0258h-12.1551l8.3571 8.4375l110.766 113z" />
    <glyph glyph-name="Ecircumflex" unicode="&#xca;" horiz-adv-x="461" 
d="M426.169 380l-1.23242 -6.00488l-8 -39l-0.819336 -3.99512h-4.07812h-253.854l-54.1152 -282h283.97h6.12988l-1.23242 -6.00488l-8 -39l-0.819336 -3.99512h-4.07812h-335h-6.03906l1.12695 5.8457l128.434 664.087l0.809215 4.06738h4.33662h319.332h6.12988
l-1.23242 -6.00488l-8 -39l-0.819336 -3.99512h-4.07812h-267.198l-50.3647 -245h252.562h6.12988zM338.169 823h2.10335h38.7605h2.59212l1.49512 -2.11133l80 -113l5.58496 -7.88867h-9.66602h-47h-2.59277l-1.49414 2.11816l-53.5609 74.3643l-80.6504 -75.0625
l-1.52533 -1.41992h-2.13097h-53.4266h-13.0426l9.42004 8.61133l123.615 113z" />
    <glyph glyph-name="Edieresis" unicode="&#xcb;" horiz-adv-x="461" 
d="M426.169 380l-1.23242 -6.00488l-8 -39l-0.819336 -3.99512h-4.07812h-253.854l-54.1152 -282h283.97h6.12988l-1.23242 -6.00488l-8 -39l-0.819336 -3.99512h-4.07812h-335h-6.03906l1.12695 5.8457l128.434 664.087l0.809215 4.06738h4.33662h319.332h6.12988
l-1.23242 -6.00488l-8 -39l-0.819336 -3.99512h-4.07812h-267.198l-50.3647 -245h252.562h6.12988zM308.845 761c0 -21.2285 -17.4273 -45 -45.046 -45h-1.04758c-25.455 0 -42.9508 21.7646 -42.9508 44c0 21.5312 19.6851 45 46.0936 45
c27.8161 0 42.9508 -24.0762 42.9508 -44zM483.039 761c0 -21.4141 -17.7637 -45 -44 -45h-1c-23.4102 0 -40 21.833 -40 44c0 21.5312 18.791 45 44 45c25.5342 0 41 -23.9482 41 -44z" />
    <glyph glyph-name="Egrave" unicode="&#xc8;" horiz-adv-x="461" 
d="M426.169 380l-1.23242 -6.00488l-8 -39l-0.819336 -3.99512h-4.07812h-253.854l-54.1152 -282h283.97h6.12988l-1.23242 -6.00488l-8 -39l-0.819336 -3.99512h-4.07812h-335h-6.03906l1.12695 5.8457l128.434 664.087l0.809215 4.06738h4.33662h319.332h6.12988
l-1.23242 -6.00488l-8 -39l-0.819336 -3.99512h-4.07812h-267.198l-50.3647 -245h252.562h6.12988zM223.419 823h12.0953h72.2831h2.83072l1.55091 -2.26074l77.0427 -113l5.06836 -7.73926h-9.25098h-38.4812h-2.26805l-1.55193 1.5791l-111.044 113z" />
    <glyph glyph-name="Iacute" unicode="&#xcd;" horiz-adv-x="218" 
d="M168.899 674h4.13965h46h6.04785l-1.13672 -5.85254l-129 -664.087l-0.777344 -4.06055h-4.13379h-45h-6.03906l1.12695 5.8457l128 664.087zM261.888 823h2.15137h77h14.1553l-11.0146 -8.89062l-140 -113l-1.375 -1.10938h-1.76562h-44h-11.6201l7.98926 8.4375
l107 113z" />
    <glyph glyph-name="Icircumflex" unicode="&#xce;" horiz-adv-x="218" 
d="M168.899 674h4.13965h46h6.04785l-1.13672 -5.85254l-129 -664.087l-0.777344 -4.06055h-4.13379h-45h-6.03906l1.12695 5.8457l128 664.087zM192.031 823h2.00781h37h2.58594l1.49512 -2.11133l80 -113l5.58496 -7.88867h-9.66602h-47h-2.59277l-1.49414 2.11816
l-52.4355 74.3643l-76.9873 -75.0625l-1.45605 -1.41992h-2.03418h-51h-12.4502l8.99219 8.61133l118 113z" />
    <glyph glyph-name="Idieresis" unicode="&#xcf;" horiz-adv-x="218" 
d="M168.899 674h4.13965h46h6.04785l-1.13672 -5.85254l-129 -664.087l-0.777344 -4.06055h-4.13379h-45h-6.03906l1.12695 5.8457l128 664.087zM171.039 761c0 -21.4141 -17.7637 -45 -44 -45h-1c-23.4102 0 -40 21.833 -40 44c0 21.4688 18.6875 45 43 45
c26.4268 0 42 -23.8809 42 -44zM342.039 761c0 -21.4141 -17.7637 -45 -44 -45h-1c-24.2988 0 -41 21.7646 -41 44c0 21.5312 18.791 45 44 45c26.4268 0 42 -23.8809 42 -44z" />
    <glyph glyph-name="Igrave" unicode="&#xcc;" horiz-adv-x="218" 
d="M168.899 674h4.13965h46h6.04785l-1.13672 -5.85254l-129 -664.087l-0.777344 -4.06055h-4.13379h-45h-6.03906l1.12695 5.8457l128 664.087zM85.4932 823h11.5459h69h2.70215l1.48047 -2.26074l74 -113l5.06836 -7.73926h-9.25098h-37h-2.16504l-1.48145 1.5791
l-106 113z" />
    <glyph glyph-name="Ntilde" unicode="&#xd1;" horiz-adv-x="631" 
d="M93.1836 -0h-4.14453h-44h-6.03906l1.12695 5.8457l128.261 664.087l0.79459 4.06738h4.25824h44.2318h3.40036l1.33202 -3.04102l200.576 -457.979c27.0231 -60.166 41.0977 -101.334 52.6137 -140.679c4.24417 47.4854 10.8902 91.6143 26.0748 170.631l81.457 427
l0.771484 4.06836h4.14062h44h6.03906l-1.12695 -5.8457l-128.261 -664.087l-0.79459 -4.06738h-4.25824h-42.1745h-3.41141l-1.32699 3.05469l-195.425 449.96c-31.6942 69.5439 -46.2971 108.799 -58.1165 152.068c-6.79972 -54.0469 -14.832 -101.86 -28.7981 -176.991
l-80.4324 -424.019zM369.913 801c27.9744 0 43.7697 -8.6748 62.4953 -21.8223c15.3694 -8.96484 29.7625 -16.1777 44.484 -16.1777c12.843 0 24.0296 10.9512 31.0653 34.4004l1.07988 3.59961h3.85743h32.1444h6.07324l-1.16602 -5.95996
c-9.14551 -46.7432 -33.38 -84.04 -79.2261 -84.04c-24.9226 0 -38.7601 7.77637 -61.2407 20.6904c-18.1128 10.3574 -28.0778 18.1934 -43.379 17.3184c-13.715 -0.78418 -25.24 -14.6113 -31.3044 -39.1758l-0.946275 -3.83301h-4.05432h-33.9453h-6.16284
l1.10198 5.89453c8.3457 44.6221 35.862 89.1055 79.1234 89.1055z" />
    <glyph glyph-name="Oacute" unicode="&#xd3;" horiz-adv-x="665" 
d="M531.383 82.126c-60.4463 -57.9707 -137.878 -93.126 -228.751 -93.126h-1.02793c-181.152 0 -252.603 137.496 -252.603 271.104c0 116.516 47.2705 253.71 132.813 336.698c56.5363 54.2207 141.987 88.1973 222.584 88.1973
c191.248 0 252.603 -140.701 252.603 -274.062c0 -113.461 -42.1982 -246.725 -125.617 -328.812zM105 268.151c0 -115.912 50.7861 -230.151 202.771 -230.151h1.02793c67.3637 0 130.771 27.8389 180.36 76.2549c71.0002 67.5889 111.841 192.366 111.841 293.561
c0 99.7119 -31.0615 228.185 -203.799 228.185c-69.3875 0 -130.741 -28.793 -178.291 -75.2588c-72.1111 -69.5918 -113.91 -193.433 -113.91 -292.59zM492.643 823h2.21146h78.1453h14.1553l-11.0146 -8.89062l-142.817 -113l-1.41341 -1.10938h-1.81494h-45.2291
h-11.9447l8.21242 8.4375l109.989 113z" />
    <glyph glyph-name="Ocircumflex" unicode="&#xd4;" horiz-adv-x="665" 
d="M531.383 82.126c-60.4463 -57.9707 -137.878 -93.126 -228.751 -93.126h-1.02793c-181.152 0 -252.603 137.496 -252.603 271.104c0 116.516 47.2705 253.71 132.813 336.698c56.5363 54.2207 141.987 88.1973 222.584 88.1973
c191.248 0 252.603 -140.701 252.603 -274.062c0 -113.461 -42.1982 -246.725 -125.617 -328.812zM105 268.151c0 -115.912 50.7861 -230.151 202.771 -230.151h1.02793c67.3637 0 130.771 27.8389 180.36 76.2549c71.0002 67.5889 111.841 192.366 111.841 293.561
c0 99.7119 -31.0615 228.185 -203.799 228.185c-69.3875 0 -130.741 -28.793 -178.291 -75.2588c-72.1111 -69.5918 -113.91 -193.433 -113.91 -292.59zM417.764 823h2.05185h38.0335h2.65817l1.53688 -2.11133l82.0368 -113l5.58496 -7.88867h-9.66602h-48.2291h-2.6652
l-1.53487 2.11816l-53.9163 74.3857l-80.1738 -75.1055l-1.49271 -1.39844h-2.07193h-52.4246h-12.8763l9.33672 8.62598l122.324 113z" />
    <glyph glyph-name="Odieresis" unicode="&#xd6;" horiz-adv-x="665" 
d="M531.383 82.126c-60.4463 -57.9707 -137.878 -93.126 -228.751 -93.126h-1.02793c-181.152 0 -252.603 137.496 -252.603 271.104c0 116.516 47.2705 253.71 132.813 336.698c56.5363 54.2207 141.987 88.1973 222.584 88.1973
c191.248 0 252.603 -140.701 252.603 -274.062c0 -113.461 -42.1982 -246.725 -125.617 -328.812zM105 268.151c0 -115.912 50.7861 -230.151 202.771 -230.151h1.02793c67.3637 0 130.771 27.8389 180.36 76.2549c71.0002 67.5889 111.841 192.366 111.841 293.561
c0 99.7119 -31.0615 228.185 -203.799 228.185c-69.3875 0 -130.741 -28.793 -178.291 -75.2588c-72.1111 -69.5918 -113.91 -193.433 -113.91 -292.59zM392.061 761c0 -21.4141 -18.2599 -45 -45.2291 -45h-1.02793c-24.0631 0 -41.1173 21.833 -41.1173 44
c0 21.4688 19.2095 45 44.2011 45c27.1649 0 43.1732 -23.8809 43.1732 -44zM567 761c0 -21.4141 -17.7637 -45 -44.3911 -45h-1.02793c-24.9776 0 -42.1453 21.7646 -42.1453 44c0 21.5312 19.3159 45 45.2291 45c26.762 0 42.3352 -23.8809 42.3352 -44z" />
    <glyph glyph-name="Ograve" unicode="&#xd2;" horiz-adv-x="665" 
d="M531.383 82.126c-60.4463 -57.9707 -137.878 -93.126 -228.751 -93.126h-1.02793c-181.152 0 -252.603 137.496 -252.603 271.104c0 116.516 47.2705 253.71 132.813 336.698c56.5363 54.2207 141.987 88.1973 222.584 88.1973
c191.248 0 252.603 -140.701 252.603 -274.062c0 -113.461 -42.1982 -246.725 -125.617 -328.812zM105 268.151c0 -115.912 50.7861 -230.151 202.771 -230.151h1.02793c67.3637 0 130.771 27.8389 180.36 76.2549c71.0002 67.5889 111.841 192.366 111.841 293.561
c0 99.7119 -31.0615 228.185 -203.799 228.185c-69.3875 0 -130.741 -28.793 -178.291 -75.2588c-72.1111 -69.5918 -113.91 -193.433 -113.91 -292.59zM298.91 823h11.9447h71.9553h2.79871l1.51881 -2.28711l75.0391 -113l5.1216 -7.71289h-9.43911h-37.0056h-2.21146
l-1.52082 1.5625l-109.989 113z" />
    <glyph glyph-name="Otilde" unicode="&#xd5;" horiz-adv-x="665" 
d="M531.383 82.126c-60.4463 -57.9707 -137.878 -93.126 -228.751 -93.126h-1.02793c-181.152 0 -252.603 137.496 -252.603 271.104c0 116.516 47.2705 253.71 132.813 336.698c56.5363 54.2207 141.987 88.1973 222.584 88.1973
c191.248 0 252.603 -140.701 252.603 -274.062c0 -113.461 -42.1982 -246.725 -125.617 -328.812zM105 268.151c0 -115.912 50.7861 -230.151 202.771 -230.151h1.02793c67.3637 0 130.771 27.8389 180.36 76.2549c71.0002 67.5889 111.841 192.366 111.841 293.561
c0 99.7119 -31.0615 228.185 -203.799 228.185c-69.3875 0 -130.741 -28.793 -178.291 -75.2588c-72.1111 -69.5918 -113.91 -193.433 -113.91 -292.59zM486.631 711c-25.882 0 -39.6718 7.72559 -61.1941 20.6865c-19.3119 10.4375 -28.0955 18.1953 -43.3529 17.3223
c-13.7315 -0.786133 -25.2536 -14.6709 -32.3588 -39.3574l-1.05102 -3.65137h-3.89791h-32.8939h-6.15856l1.10222 5.89453c8.33891 44.6221 35.8361 89.1055 79.0675 89.1055c27.977 0 42.8238 -8.76172 62.3957 -21.7891
c15.4551 -9.02148 28.7259 -16.2109 44.5093 -16.2109c12.811 0 23.9707 10.8916 29.9636 34.2129l0.972722 3.78711h4.01336h32.2514h5.94434l-1.01855 -5.85645c-8.14258 -46.8223 -32.4702 -84.1436 -78.2945 -84.1436z" />
    <glyph glyph-name="Scaron" unicode="&#x160;" horiz-adv-x="458" 
d="M19 40.0723l1.72168 3.26172l19 36l2.70801 5.13184l4.67578 -3.4375c33.1738 -24.3926 79.1934 -42.0283 131.94 -42.0283c91.3423 0 173.098 54.4717 173.098 148.698c0 55.1299 -26.5149 97.6416 -105.279 138.471
c-100.518 51.6084 -138.721 106.388 -138.721 171.728c0 112.527 100.172 187.104 217.881 187.104c58.2227 0 109.054 -20.0225 129.453 -38.2734l2.94629 -2.63672l-1.88672 -3.47559l-19 -35l-2.52539 -4.65137l-4.5 2.78613
c-20.5967 12.75 -58.6748 32.251 -110.786 32.251c-94.9921 0 -155.378 -64.9893 -155.378 -128.021c0 -60.7607 29.2749 -93.4395 111.713 -136.508c87.3091 -44.752 131.084 -98.7295 131.084 -183.545c0 -97.1182 -74.1619 -198.926 -237.547 -198.926
c-53.5349 0 -120.401 20.877 -147.989 48.4648zM340.73 700h-2.10791h-38.8445h-2.71588l-1.56863 2.11133l-83.9882 113l-5.86338 7.88867h10.1479h51.4427h2.80917l1.55837 -2.22656l52.3265 -74.7627l78.7256 75.5693l1.45703 1.41992h2.03418h51h12.4502
l-8.99219 -8.61133l-118.349 -113z" />
    <glyph glyph-name="Uacute" unicode="&#xda;" horiz-adv-x="620" 
d="M167.863 674h4.13672h46.5781h6.25454l-1.1774 -5.84863l-78.7481 -400.71c-5.92578 -29.168 -7.90723 -58.3535 -7.90723 -84.7051c0 -101.845 57.333 -143.736 139.483 -143.736c102.299 0 181.275 66.0576 214.132 229.305l78.4745 401.634l0.776367 4.06152h4.13477
h45h6.04199l-1.12988 -5.84961l-79.0049 -409.051c-39.3271 -198.775 -151.024 -270.1 -276.697 -270.1c-98.3697 0 -187.211 55.3408 -187.211 191.192c0 28.9092 3.03223 60.751 9.08887 91.5908l77 398.153zM453.127 823h2.23867h78.6338h14.0771l-10.9229 -8.87988
l-142.635 -113l-1.42479 -1.12012h-1.83678h-45.4964h-11.9386l8.16806 8.4209l109.605 113z" />
    <glyph glyph-name="Ucircumflex" unicode="&#xdb;" horiz-adv-x="620" 
d="M167.863 674h4.13672h46.5781h6.25454l-1.1774 -5.84863l-78.7481 -400.71c-5.92578 -29.168 -7.90723 -58.3535 -7.90723 -84.7051c0 -101.845 57.333 -143.736 139.483 -143.736c102.299 0 181.275 66.0576 214.132 229.305l78.4745 401.634l0.776367 4.06152h4.13477
h45h6.04199l-1.12988 -5.84961l-79.0049 -409.051c-39.3271 -198.775 -151.024 -270.1 -276.697 -270.1c-98.3697 0 -187.211 55.3408 -187.211 191.192c0 28.9092 3.03223 60.751 9.08887 91.5908l77 398.153zM405.726 823h2.0761h38.2583h2.67388l1.54596 -2.11133
l81.8011 -113l5.58496 -7.88867h-9.66602h-47.8176h-2.68095l-1.54394 2.11816l-54.2198 74.3643l-79.6055 -75.0625l-1.50557 -1.41992h-2.10336h-52.7344h-12.8736l9.298 8.61133l122.013 113z" />
    <glyph glyph-name="Udieresis" unicode="&#xdc;" horiz-adv-x="620" 
d="M167.863 674h4.13672h46.5781h6.25454l-1.1774 -5.84863l-78.7481 -400.71c-5.92578 -29.168 -7.90723 -58.3535 -7.90723 -84.7051c0 -101.845 57.333 -143.736 139.483 -143.736c102.299 0 181.275 66.0576 214.132 229.305l78.4745 401.634l0.776367 4.06152h4.13477
h45h6.04199l-1.12988 -5.84961l-79.0049 -409.051c-39.3271 -198.775 -151.024 -270.1 -276.697 -270.1c-98.3697 0 -187.211 55.3408 -187.211 191.192c0 28.9092 3.03223 60.751 9.08887 91.5908l77 398.153zM365.407 761c0 -21.4141 -18.3678 -45 -45.4964 -45h-1.03401
c-24.2053 0 -41.3603 21.833 -41.3603 44c0 21.4688 19.323 45 44.4624 45c27.3255 0 43.4284 -23.8809 43.4284 -44zM541 761c0 -21.4141 -17.7637 -45 -44.2735 -45h-1.03401c-25.1252 0 -42.3944 21.7646 -42.3944 44c0 21.5312 19.4301 45 45.4964 45
c26.6322 0 42.2055 -23.8809 42.2055 -44z" />
    <glyph glyph-name="Ugrave" unicode="&#xd9;" horiz-adv-x="620" 
d="M167.863 674h4.13672h46.5781h6.25454l-1.1774 -5.84863l-78.7481 -400.71c-5.92578 -29.168 -7.90723 -58.3535 -7.90723 -84.7051c0 -101.845 57.333 -143.736 139.483 -143.736c102.299 0 181.275 66.0576 214.132 229.305l78.4745 401.634l0.776367 4.06152h4.13477
h45h6.04199l-1.12988 -5.84961l-79.0049 -409.051c-39.3271 -198.775 -151.024 -270.1 -276.697 -270.1c-98.3697 0 -187.211 55.3408 -187.211 191.192c0 28.9092 3.03223 60.751 9.08887 91.5908l77 398.153zM282.045 823h12.0153h72.3806h2.81525l1.52779 -2.28711
l75.4826 -113l5.15187 -7.71289h-9.49491h-37.2243h-2.22453l-1.52981 1.5625l-110.639 113z" />
    <glyph glyph-name="Yacute" unicode="&#xdd;" horiz-adv-x="504" 
d="M223.534 0h-4.32415h-45.2946h-6.04492l1.13281 5.85059l54.2162 277.608l-129.053 384.07l-2.16602 6.4707h6.91504h48h3.65039l1.11133 -3.47656l79.7906 -246.983c17.7578 -51.9502 25.9133 -78.7539 30.322 -97.6064
c15.1778 23.5576 38.6537 58.5049 72.0342 102.972l177.01 242.983l1.49414 2.11133h2.58691h52h9.81641l-5.77246 -7.82324l-291.585 -385.338l-55.041 -276.763zM404.62 823h2.25829h79.0371h14.0762l-10.9229 -8.87988l-143.544 -113l-1.43663 -1.12012h-1.85103
h-45.8745h-12.0378l8.23493 8.4209l110.516 113z" />
    <glyph glyph-name="Ydieresis" unicode="&#x178;" horiz-adv-x="504" 
d="M223.534 0h-4.32415h-45.2946h-6.04492l1.13281 5.85059l54.2162 277.608l-129.053 384.07l-2.16602 6.4707h6.91504h48h3.65039l1.11133 -3.47656l79.7906 -246.983c17.7578 -51.9502 25.9133 -78.7539 30.322 -97.6064
c15.1778 23.5576 38.6537 58.5049 72.0342 102.972l177.01 242.983l1.49414 2.11133h2.58691h52h9.81641l-5.77246 -7.82324l-291.585 -385.338l-55.041 -276.763zM303.66 761c0 -21.2285 -17.3445 -45 -44.8319 -45h-1.0426c-25.334 0 -42.7467 21.7646 -42.7467 44
c0 21.5312 19.5905 45 45.8745 45c27.6839 0 42.7467 -24.0762 42.7467 -44zM480.915 761c0 -21.4141 -17.7637 -45 -44.8442 -45h-1.0426c-24.4075 0 -41.7041 21.833 -41.7041 44c0 21.5312 19.5905 45 45.8745 45c26.2506 0 41.7164 -23.9482 41.7164 -44z" />
    <glyph glyph-name="Zcaron" unicode="&#x17d;" horiz-adv-x="524" 
d="M-16 0l1.11035 5.82812l6 31.4961l0.239258 1.25391l0.827148 0.982422l503.69 585.439h-350.679h-6.30805l1.26824 6.00488l8.23253 39l0.84315 3.99512h4.19666h418.604h6.02441l-1.10938 -5.82812l-6 -31.4961l-0.239258 -1.25391l-0.828125 -0.982422
l-503.689 -585.439h389.783h6.03638l-1.05566 -5.88379l-7.11924 -39l-0.760745 -4.11621h-4.30419h-458.738h-6.02441zM391.142 700h-2.06617h-38.0754h-2.6611l-1.53857 2.11133l-82.3253 113l-5.74729 7.88867h9.94696h50.4242h2.75355l1.52752 -2.22656
l51.6864 -75.3398l79.3416 76.124l1.5034 1.44238h2.11139h51.0007h12.4502l-8.99219 -8.61133l-119.848 -113z" />
    <glyph glyph-name="aacute" unicode="&#xe1;" horiz-adv-x="523" 
d="M422.208 0h-5.20801h-43.2752h-5.06204l-0.168666 4.83301c-0.92511 26.5195 3.90182 71.3457 10.5003 120.146c-57.872 -98.9375 -128.325 -135.979 -204.153 -135.979c-88.2332 0 -138.842 69.7891 -138.842 154.914c0 169.818 134.258 347.086 338.772 347.086
c39.7372 0 82.9931 -6.02441 112.559 -14.1797l4.45117 -1.22852l-0.871094 -4.44141l-47.9941 -244.821c-17.9375 -94.6709 -22.8984 -173.755 -20.9199 -221.232zM185.309 38c85.7817 0 187.669 109.254 213.779 239.019l30.2305 157.967
c-12.376 4.09766 -30.6367 7.01465 -63.9676 7.01465c-148.287 0 -272.365 -133.993 -273.351 -289.826c0 -56.0947 17.1797 -114.174 93.3091 -114.174zM411.463 678h2.53711h74h11.8857l-8.31152 -8.49609l-136.09 -138l-1.53946 -1.50391h-2.20186h-41.8702h-10.3163
l6.09244 7.95312l104.316 138z" />
    <glyph glyph-name="acircumflex" unicode="&#xe2;" horiz-adv-x="523" 
d="M422.208 0h-5.20801h-43h-4.96312l-0.168963 4.83301c-0.926737 26.5195 3.86255 71.3457 10.1663 120.146c-57.6213 -98.9375 -128.199 -135.979 -204.159 -135.979c-88.2663 0 -138.875 69.7891 -138.875 154.914c0 169.818 134.283 347.086 339 347.086
c39.5088 0 82.7646 -6.02441 112.33 -14.1797l4.45117 -1.22852l-0.871094 -4.44141l-47.9941 -244.821c-17.9375 -94.6709 -22.8984 -173.755 -20.9199 -221.232zM185.361 38c85.9326 0 187.926 109.254 213.727 239.019l30.2305 157.967
c-12.376 4.09766 -30.6367 7.01465 -63.5993 7.01465c-148.548 0 -272.734 -133.993 -273.719 -289.826c0 -56.0947 17.1797 -114.174 93.3607 -114.174zM340.152 678h2.49758h37.35h3.17188l1.35156 -2.86914l65 -138l3.3584 -7.13086h-7.88184h-43h-3.2334
l-1.32617 2.94824l-43.1197 94.0244l-76.7236 -95.0234l-1.57392 -1.94922h-2.58053h-48.2354h-11.0072l6.9367 8.15039l117.443 138z" />
    <glyph glyph-name="adieresis" unicode="&#xe4;" horiz-adv-x="523" 
d="M422.208 0h-5.20801h-43h-4.96312l-0.168963 4.83301c-0.926737 26.5195 3.86255 71.3457 10.1663 120.146c-57.6213 -98.9375 -128.199 -135.979 -204.159 -135.979c-88.2663 0 -138.875 69.7891 -138.875 154.914c0 169.818 134.283 347.086 339 347.086
c39.5088 0 82.7646 -6.02441 112.33 -14.1797l4.45117 -1.22852l-0.871094 -4.44141l-47.9941 -244.821c-17.9375 -94.6709 -22.8984 -173.755 -20.9199 -221.232zM185.361 38c85.9326 0 187.926 109.254 213.727 239.019l30.2305 157.967
c-12.376 4.09766 -30.6367 7.01465 -63.5993 7.01465c-148.548 0 -272.734 -133.993 -273.719 -289.826c0 -56.0947 17.1797 -114.174 93.3607 -114.174zM301.755 615c0 -22.0635 -16.3689 -45 -44.041 -45h-1.0486c-26.5108 0 -41.9438 20.9609 -41.9438 43
c0 23.333 18.632 45 44.041 45c26.3746 0 42.9924 -20.7617 42.9924 -43zM474 615c0 -22.0049 -14.6719 -45 -43 -45h-1c-24.3936 0 -39 21.0332 -39 43c0 23.3965 17.8691 45 43 45c25.2822 0 40 -20.9609 40 -43z" />
    <glyph glyph-name="agrave" unicode="&#xe0;" horiz-adv-x="523" 
d="M422.208 0h-5.20801h-43h-4.96312l-0.168963 4.83301c-0.926737 26.5195 3.86255 71.3457 10.1663 120.146c-57.6213 -98.9375 -128.199 -135.979 -204.159 -135.979c-88.2663 0 -138.875 69.7891 -138.875 154.914c0 169.818 134.283 347.086 339 347.086
c39.5088 0 82.7646 -6.02441 112.33 -14.1797l4.45117 -1.22852l-0.871094 -4.44141l-47.9941 -244.821c-17.9375 -94.6709 -22.8984 -173.755 -20.9199 -221.232zM185.361 38c85.9326 0 187.926 109.254 213.727 239.019l30.2305 157.967
c-12.376 4.09766 -30.6367 7.01465 -63.5993 7.01465c-148.548 0 -272.734 -133.993 -273.719 -289.826c0 -56.0947 17.1797 -114.174 93.3607 -114.174zM242.556 678h9.91455h69.2073h3.4151l1.38038 -2.97852l63.0997 -138l3.10352 -7.02148h-7.67676h-33.9613h-2.77202
l-1.56163 2.18555l-98.568 138z" />
    <glyph glyph-name="aring" unicode="&#xe5;" horiz-adv-x="523" 
d="M422.208 0h-5.20801h-43h-4.96312l-0.168963 4.83301c-0.926737 26.5195 3.86255 71.3457 10.1663 120.146c-57.6213 -98.9375 -128.199 -135.979 -204.159 -135.979c-88.2663 0 -138.875 69.7891 -138.875 154.914c0 169.818 134.283 347.086 339 347.086
c39.5088 0 82.7646 -6.02441 112.33 -14.1797l4.45117 -1.22852l-0.871094 -4.44141l-47.9941 -244.821c-17.9375 -94.6709 -22.8984 -173.755 -20.9199 -221.232zM185.361 38c85.9326 0 187.926 109.254 213.727 239.019l30.2305 157.967
c-12.376 4.09766 -30.6367 7.01465 -63.5993 7.01465c-148.548 0 -272.734 -133.993 -273.719 -289.826c0 -56.0947 17.1797 -114.174 93.3607 -114.174zM246.179 614c0 54.6631 44.2632 98 101.714 98h1.0486c53.8671 0 93.0585 -40.459 93.0585 -95
c0 -56.042 -47.4941 -95 -97.2528 -95c-56.2412 0 -98.568 40.2188 -98.568 92zM394 621c0 28.748 -19.1055 51 -48.2043 51h-1.0486c-26.6992 0 -48.2354 -23.8721 -48.2354 -57c0 -28.9648 20.3554 -53 48.2354 -53c27.8075 0 49.2528 23.9277 49.2528 59z" />
    <glyph glyph-name="atilde" unicode="&#xe3;" horiz-adv-x="523" 
d="M422.208 0h-5.20801h-43h-4.96312l-0.168963 4.83301c-0.926737 26.5195 3.86255 71.3457 10.1663 120.146c-57.6213 -98.9375 -128.199 -135.979 -204.159 -135.979c-88.2663 0 -138.875 69.7891 -138.875 154.914c0 169.818 134.283 347.086 339 347.086
c39.5088 0 82.7646 -6.02441 112.33 -14.1797l4.45117 -1.22852l-0.871094 -4.44141l-47.9941 -244.821c-17.9375 -94.6709 -22.8984 -173.755 -20.9199 -221.232zM185.361 38c85.9326 0 187.926 109.254 213.727 239.019l30.2305 157.967
c-12.376 4.09766 -30.6367 7.01465 -63.5993 7.01465c-148.548 0 -272.734 -133.993 -273.719 -289.826c0 -56.0947 17.1797 -114.174 93.3607 -114.174zM263.261 565h-4.49851h-35.6522h-5.88811l0.679949 5.57715c5.30339 43.4961 28.0376 87.4229 73.3669 87.4229
c27.9035 0 41.8936 -10.9131 66.5141 -23.6309c14.9671 -8.18164 27.1038 -15.3691 39.2171 -15.3691c13.4043 0 19.0518 4.72852 23.0361 37.6016l0.533203 4.39844h4.43066h34h5.67871l-0.71875 -5.63281c-6.03223 -47.2539 -22.0664 -84.3672 -68.96 -84.3672
c-22.4414 0 -43.3612 9.61523 -61.4403 20.7715c-13.8714 8.14062 -27.6209 17.2285 -43.3395 17.2285c-16.2553 0 -21.9826 -13.1484 -26.2763 -39.7607z" />
    <glyph glyph-name="ccedilla" unicode="&#xe7;" horiz-adv-x="436" 
d="M358.95 71.9619l1.79297 -5.38086l12 -36l1.37109 -4.11426l-3.87793 -1.93848c-17.8154 -8.9082 -58.6023 -28.8682 -116.873 -32.3877l-31.0104 -38.2871c31.4564 -9.90234 49.5474 -34.459 49.5474 -65.8535c0 -49.5068 -48.0442 -86 -110.706 -86
c-24.3087 0 -47.9532 8.16406 -60.9669 16.8398l-3.58594 2.39062l1.83496 3.89844l16 34l2.42969 5.16211l4.79883 -3.08496c12.9961 -8.35547 28.9795 -12.2061 48.0052 -12.2061c26.004 0 46.6876 13.5498 45.7728 35.9043c0 18.5576 -21.8053 31.1191 -61.0193 35.125
l-8.68652 0.938477l5.20996 7.01367l48.986 62.5205c-118.842 8.7793 -161.972 97.3584 -161.972 178.923c0 158.796 117.402 321.575 298 321.575c48.1416 0 92.5127 -16.8076 104.123 -26.0957l2.95215 -2.36133l-1.4668 -3.4834l-16 -38l-2.03125 -4.82422l-4.72656 2.25
c-20.6699 9.84277 -50.8643 21.5146 -89.8506 21.5146c-144.455 0 -234 -139.144 -234 -264.406c0 -78.3252 37.1641 -136.594 133.256 -136.594c60.5634 0 100.618 18.5254 125.58 30.5078z" />
    <glyph glyph-name="eacute" unicode="&#xe9;" horiz-adv-x="443" 
d="M353.617 75.3154l2.07031 -5.57422l13 -35l1.37695 -3.70801l-3.29102 -2.19336c-24.7676 -16.5117 -78.0501 -39.8398 -154.58 -39.8398c-128.785 0 -175.194 94.7266 -175.194 189.23c0 141.788 108.861 312.77 264.353 312.77
c91.2461 0 130.647 -55.2744 130.647 -112.511c0 -131.066 -164.5 -156.053 -335.936 -153.668c-4.94434 -27.7422 -3.29199 -79.4199 7.64844 -108.854c18.3496 -51.9668 58.4232 -76.9678 114.849 -76.9678c62.4774 0 106.04 19.5664 129.918 33.3193zM117.397 266.862
c141.921 -0.0742188 258.603 22.1348 258.603 106.138v1c0 44.5596 -33.625 68 -83.1388 68c-86.89 0 -159.455 -85.5332 -187.176 -175.078c4.45215 -0.0410156 7.74121 -0.0566406 11.7119 -0.0595703zM362.479 678h2.52148h73h11.8242l-8.2373 -8.4834l-135.366 -138
l-1.5631 -1.5166h-2.24411h-43.5181h-10.5219l6.25448 7.97168l106.351 138z" />
    <glyph glyph-name="ecircumflex" unicode="&#xea;" horiz-adv-x="443" 
d="M353.617 75.3154l2.07031 -5.57422l13 -35l1.37695 -3.70801l-3.29102 -2.19336c-24.7676 -16.5117 -77.1131 -39.8398 -154.187 -39.8398c-129.178 0 -175.586 94.7266 -175.586 189.23c0 141.788 108.861 312.77 265.379 312.77
c90.2193 0 129.621 -55.2744 129.621 -112.511c0 -131.066 -163.714 -156.053 -335.936 -153.668c-4.94434 -27.7422 -3.29199 -79.4199 7.64844 -108.854c18.3496 -51.9668 58.4597 -76.9678 115.287 -76.9678c62.9218 0 105.904 19.5664 129.48 33.3193zM117.397 266.862
c142.649 -0.0742188 258.603 22.1348 258.603 106.138v1c0 44.5596 -33.625 68 -82.1724 68c-87.508 0 -160.421 -85.5332 -188.142 -175.078c4.45215 -0.0410156 7.74121 -0.0566406 11.7119 -0.0595703zM311.592 678h2.40817h36h3.17188l1.35156 -2.86914l65 -138
l3.3584 -7.13086h-7.88184h-43h-3.2334l-1.32617 2.94824l-42.3105 94.0244l-77.3085 -95.0234l-1.60449 -1.94922h-2.63066h-49.1724h-11.221l7.07146 8.15039l119.724 138z" />
    <glyph glyph-name="edieresis" unicode="&#xeb;" horiz-adv-x="443" 
d="M353.617 75.3154l2.07031 -5.57422l13 -35l1.37695 -3.70801l-3.29102 -2.19336c-24.7676 -16.5117 -77.9155 -39.8398 -154.523 -39.8398c-128.842 0 -175.25 94.7266 -175.25 189.23c0 141.788 108.861 312.77 264.5 312.77c91.0986 0 130.5 -55.2744 130.5 -112.511
c0 -131.066 -164.387 -156.053 -335.936 -153.668c-4.94434 -27.7422 -3.29199 -79.4199 7.64844 -108.854c18.3496 -51.9668 58.4284 -76.9678 114.912 -76.9678c62.5412 0 106.148 19.5664 129.855 33.3193zM117.397 266.862
c142.026 -0.0742188 258.603 22.1348 258.603 106.138v1c0 44.5596 -33.625 68 -83 68c-86.9787 0 -159.594 -85.5332 -187.314 -175.078c4.45215 -0.0410156 7.74121 -0.0566406 11.7119 -0.0595703zM274.938 615c0 -22.0635 -16.586 -45 -44.625 -45h-1.0625
c-26.8624 0 -42.5 20.9609 -42.5 43c0 23.333 18.8791 45 44.625 45c26.7244 0 43.5625 -20.7617 43.5625 -43zM447 615c0 -22.0049 -14.6719 -45 -43 -45h-1c-24.3936 0 -39 21.0332 -39 43c0 23.3965 17.8691 45 43 45c25.2822 0 40 -20.9609 40 -43z" />
    <glyph glyph-name="egrave" unicode="&#xe8;" horiz-adv-x="443" 
d="M353.617 75.3154l2.07031 -5.57422l13 -35l1.37695 -3.70801l-3.29102 -2.19336c-24.7676 -16.5117 -77.1131 -39.8398 -154.187 -39.8398c-129.178 0 -175.586 94.7266 -175.586 189.23c0 141.788 108.861 312.77 265.379 312.77
c90.2193 0 129.621 -55.2744 129.621 -112.511c0 -131.066 -163.714 -156.053 -335.936 -153.668c-4.94434 -27.7422 -3.29199 -79.4199 7.64844 -108.854c18.3496 -51.9668 58.4597 -76.9678 115.287 -76.9678c62.9218 0 105.904 19.5664 129.48 33.3193zM117.397 266.862
c142.649 -0.0742188 258.603 22.1348 258.603 106.138v1c0 44.5596 -33.625 68 -82.1724 68c-87.508 0 -160.421 -85.5332 -188.142 -175.078c4.45215 -0.0410156 7.74121 -0.0566406 11.7119 -0.0595703zM201.348 678h10.1687h70.5517h3.48145l1.40719 -2.97852
l62.6156 -138l3.10352 -7.02148h-7.67676h-32h-2.7402l-1.59301 2.16504l-101.552 138z" />
    <glyph glyph-name="iacute" unicode="&#xed;" horiz-adv-x="216" 
d="M93.1816 0h-4.13184h-45h-6.0498l1.13867 5.81934l92 470.122l0.77832 4.05859h4.13281h45h6.04883l-1.13867 -5.81934l-92 -470.122zM228.513 678h2.53711h74h11.8857l-8.3125 -8.49609l-135 -138l-1.4707 -1.50391h-2.10254h-40h-9.85547l5.82031 7.95312l101 138z" />
    <glyph glyph-name="icircumflex" unicode="&#xee;" horiz-adv-x="216" 
d="M93.1816 0h-4.13184h-45h-6.0498l1.13867 5.81934l92 470.122l0.77832 4.05859h4.13281h45h6.04883l-1.13867 -5.81934l-92 -470.122zM164.668 678h2.38184h36h3.19238l1.34277 -2.89648l64 -138l3.29492 -7.10352h-7.83008h-43h-3.2627l-1.31445 2.98633
l-41.332 93.9365l-73.1299 -94.9736l-1.50098 -1.94922h-2.45996h-46h-10.498l6.61523 8.15039l112 138z" />
    <glyph glyph-name="idieresis" unicode="&#xef;" horiz-adv-x="216" 
d="M93.1816 0h-4.13184h-45h-6.0498l1.13867 5.81934l92 470.122l0.77832 4.05859h4.13281h45h6.04883l-1.13867 -5.81934l-92 -470.122zM135.05 615c0 -22.1299 -15.7031 -45 -43 -45h-1c-25.2832 0 -40 20.9609 -40 43c0 23.5137 18.8975 45 43 45
c25.1514 0 41 -20.7617 41 -43zM303.05 615c0 -21.9365 -14.5781 -45 -42 -45h-1c-25.415 0 -39 21.167 -39 43c0 23.333 17.7676 45 42 45c25.2822 0 40 -20.9609 40 -43z" />
    <glyph glyph-name="igrave" unicode="&#xec;" horiz-adv-x="216" 
d="M93.1816 0h-4.13184h-45h-6.0498l1.13867 5.81934l92 470.122l0.77832 4.05859h4.13281h45h6.04883l-1.13867 -5.81934l-92 -470.122zM57.5938 678h9.45605h66h3.25586l1.31641 -2.97852l61 -138l3.10449 -7.02148h-7.67676h-33h-2.64453l-1.48828 2.18555l-94 138z" />
    <glyph glyph-name="ntilde" unicode="&#xf1;" horiz-adv-x="536" 
d="M93.1963 -0h-4.16895h-45h-6.02734l1.11426 5.80176l66.0068 343.81c9.98438 47.917 15.9512 88.8379 20.9492 126.041l0.572266 4.34766h4.38477h42.7826h6.08231l-0.876387 -5.7207l-12.9105 -84.2646c45.3903 62.2539 113.639 100.985 188.662 100.985
c44.8756 0 125.26 -24.1514 125.26 -136.203c0 -22.1367 -4.05762 -48.7705 -9.08594 -75.3779l-53 -275.346l-0.768555 -4.07324h-4.14551h-45h-6.03613l1.12402 5.79883l53.9824 278.589c2.97461 19.3906 6.92969 42.8408 6.92969 63.7188
c0 54.2598 -21.1973 92.8936 -88.1977 92.8936c-68.162 0 -174.042 -74.1123 -196.883 -196.404l-45 -240.495zM257.229 565h-4.51345h-35.7706h-5.90663l0.682205 5.57715c5.321 43.4961 28.1297 87.4229 73.6094 87.4229c27.9961 0 42.0337 -10.9131 66.7349 -23.6309
c14.7125 -8.18164 26.8492 -15.3691 38.9625 -15.3691c13.4053 0 19.0518 4.72852 23.0371 37.6016l0.533203 4.39844h4.42969h34h5.67969l-0.719727 -5.63281c-6.03223 -47.2539 -22.0654 -84.3672 -68.96 -84.3672c-22.4404 0 -43.127 9.61523 -61.265 20.7715
c-13.9184 8.14062 -27.7125 17.2285 -43.4844 17.2285c-16.3082 0 -22.0556 -13.1484 -26.3625 -39.7607z" />
    <glyph glyph-name="oacute" unicode="&#xf3;" horiz-adv-x="520" 
d="M490 289.023c0 -129.999 -96.9648 -300.023 -264.832 -300.023h-1.0495c-125.557 0 -186.119 97.2832 -186.119 197.074c0 152.751 108.218 304.926 265.881 304.926c136.816 0 186.119 -105.551 186.119 -201.977zM95 190.241
c0 -88.0117 51.4248 -152.241 134.366 -152.241h1.0495c110.041 0 202.584 126.454 202.584 251.783c0 61.7295 -29.3291 153.217 -132.267 153.217c-119.548 0 -205.733 -125.388 -205.733 -252.759zM383.479 678h2.52148h73h11.8857l-8.31152 -8.49609l-137.1 -138
l-1.54351 -1.50391h-2.20765h-41.9802h-10.4038l6.18429 7.97168l106.456 138z" />
    <glyph glyph-name="ocircumflex" unicode="&#xf4;" horiz-adv-x="520" 
d="M490 289.023c0 -129.999 -96.9648 -300.023 -264.832 -300.023h-1.0495c-125.557 0 -186.119 97.2832 -186.119 197.074c0 152.751 108.218 304.926 265.881 304.926c136.816 0 186.119 -105.551 186.119 -201.977zM95 190.241
c0 -88.0117 51.4248 -152.241 134.366 -152.241h1.0495c110.041 0 202.584 126.454 202.584 251.783c0 61.7295 -29.3291 153.217 -132.267 153.217c-119.548 0 -205.733 -125.388 -205.733 -252.759zM327.619 678h2.49975h37.7822h3.27088l1.35156 -2.86914l65 -138
l3.3584 -7.13086h-7.88184h-43h-3.2334l-1.32617 2.94824l-43.6408 94.0244l-76.7901 -95.0234l-1.57528 -1.94922h-2.58277h-48.2772h-11.0167l6.94272 8.15039l117.545 138z" />
    <glyph glyph-name="odieresis" unicode="&#xf6;" horiz-adv-x="520" 
d="M490 289.023c0 -129.999 -96.9648 -300.023 -264.832 -300.023h-1.0495c-125.557 0 -186.119 97.2832 -186.119 197.074c0 152.751 108.218 304.926 265.881 304.926c136.816 0 186.119 -105.551 186.119 -201.977zM95 190.241
c0 -88.0117 51.4248 -152.241 134.366 -152.241h1.0495c110.041 0 202.584 126.454 202.584 251.783c0 61.7295 -29.3291 153.217 -132.267 153.217c-119.548 0 -205.733 -125.388 -205.733 -252.759zM295.485 615c0 -22.1299 -16.4805 -45 -45.1287 -45h-1.0495
c-26.5338 0 -41.9802 20.9609 -41.9802 43c0 23.5137 19.833 45 45.1287 45c26.3975 0 43.0297 -20.7617 43.0297 -43zM467 615c0 -21.9365 -14.5781 -45 -42 -45h-1c-25.4141 0 -39 21.167 -39 43c0 23.333 17.7686 45 42 45c25.2822 0 40 -20.9609 40 -43z" />
    <glyph glyph-name="ograve" unicode="&#xf2;" horiz-adv-x="520" 
d="M490 289.023c0 -129.999 -96.9648 -300.023 -264.832 -300.023h-1.0495c-125.557 0 -186.119 97.2832 -186.119 197.074c0 152.751 108.218 304.926 265.881 304.926c136.816 0 186.119 -105.551 186.119 -201.977zM95 190.241
c0 -88.0117 51.4248 -152.241 134.366 -152.241h1.0495c110.041 0 202.584 126.454 202.584 251.783c0 61.7295 -29.3291 153.217 -132.267 153.217c-119.548 0 -205.733 -125.388 -205.733 -252.759zM205.8 678h9.92315h69.2673h3.41807l1.38157 -2.97852l64.0198 -138
l3.25716 -7.02148h-8.0568h-34.6337h-2.77442l-1.56298 2.18555l-98.6535 138z" />
    <glyph glyph-name="otilde" unicode="&#xf5;" horiz-adv-x="520" 
d="M490 289.023c0 -129.999 -96.9648 -300.023 -264.832 -300.023h-1.0495c-125.557 0 -186.119 97.2832 -186.119 197.074c0 152.751 108.218 304.926 265.881 304.926c136.816 0 186.119 -105.551 186.119 -201.977zM95 190.241
c0 -88.0117 51.4248 -152.241 134.366 -152.241h1.0495c110.041 0 202.584 126.454 202.584 251.783c0 61.7295 -29.3291 153.217 -132.267 153.217c-119.548 0 -205.733 -125.388 -205.733 -252.759zM238.948 565h-4.33433h-34.6337h-5.75793l0.532952 5.46289
c4.26566 43.6904 28.1214 87.5371 73.4428 87.5371c26.9028 0 41.9115 -10.915 65.5736 -23.6592c14.9165 -8.12109 27.7401 -15.3408 40.2284 -15.3408c13.4512 0 19.0684 4.8252 24.0566 37.749l0.643555 4.25098h4.2998h33h5.56055l-0.588867 -5.5293
c-5.0459 -47.4346 -22.1182 -84.4707 -68.9717 -84.4707c-23.4534 0 -44.4291 9.61523 -62.5238 20.7715c-13.8834 8.14062 -27.6448 17.2285 -43.3771 17.2285c-16.2151 0 -20.8968 -13.0137 -26.3319 -39.9443z" />
    <glyph glyph-name="scaron" unicode="&#x161;" horiz-adv-x="366" 
d="M16 23.4863l1.6543 3.60156l17 37l2.50195 5.44434l4.90918 -3.43652c19.1895 -13.4326 52.4053 -27.0957 87.1328 -27.0957c67.0205 0 112.868 43.0283 112.868 92.9434c0 43.2637 -16.5636 68.6465 -74.0662 99.5117
c-58.5738 32.9893 -81.8014 76.6992 -81.8014 120.618c0 75.3584 66.8347 138.927 164.509 138.927c37.5666 0 73.177 -12.0361 89.4485 -23.9678l3.22363 -2.36523l-1.59766 -3.66504l-17 -39l-2.4668 -5.6582l-5.02246 3.58789
c-13.2256 9.44629 -40.4287 22.0684 -73.0659 22.0684c-60.0563 0 -102.611 -38.1895 -102.611 -84.1426c0 -41.6357 24.7457 -64.4912 72.9861 -90.71c60.3464 -32.9785 85.5974 -77.6543 85.5974 -124.538c0 -96.0117 -81.6872 -153.609 -175 -153.609
c-47.208 0 -87.0449 17.2559 -106.07 32.0537zM268.372 530h-2.54313h-37.8042h-3.3817l-1.47673 2.81641l-72.368 138l-3.76776 7.18359h8.62619h46.4451h3.4914l1.43348 -2.94824l46.1319 -94.9111l77.1163 95.959l1.50195 1.90039h2.42188h46h10.6152l-6.76074 -8.18457
l-114.061 -138z" />
    <glyph glyph-name="uacute" unicode="&#xfa;" horiz-adv-x="526" 
d="M438.852 480h4.14844h45h6.04492l-1.13379 -5.81543l-66.9971 -343.753c-8.97461 -46.8779 -14.9473 -88.8291 -17.9297 -125.825l-0.363281 -4.60645h-4.62109h-43.7509h-6.12531l0.917665 5.74902l12.873 80.6484
c-42.6807 -56.5566 -107.924 -97.3975 -175.166 -97.3975c-54.2036 0 -134.748 22.2773 -134.748 144.042c0 21.0439 3.0625 44.8799 9.08789 75.3877l52 267.506l0.774414 4.06445h4.1377h45h6.03809l-1.12598 -5.80078l-52.0039 -267.935
c-5.98535 -29.2598 -8.9082 -50.3369 -8.9082 -72.3984c0 -57.9785 22.9561 -93.8662 91.3366 -93.8662c67.1243 0 164.807 74.1143 185.749 180.775l49 255.147zM373.432 678h2.56823h74h11.8857l-8.31152 -8.49609l-137.966 -138l-1.54933 -1.50391h-2.21598h-42.1385
h-10.3824l6.13148 7.95312l106.4 138z" />
    <glyph glyph-name="ucircumflex" unicode="&#xfb;" horiz-adv-x="526" 
d="M438.852 480h4.14844h45h6.04492l-1.13379 -5.81543l-66.9971 -343.753c-8.97461 -46.8779 -14.9473 -88.8291 -17.9297 -125.825l-0.363281 -4.60645h-4.62109h-43.7509h-6.12531l0.917665 5.74902l12.873 80.6484
c-42.6807 -56.5566 -107.924 -97.3975 -175.166 -97.3975c-54.2036 0 -134.748 22.2773 -134.748 144.042c0 21.0439 3.0625 44.8799 9.08789 75.3877l52 267.506l0.774414 4.06445h4.1377h45h6.03809l-1.12598 -5.80078l-52.0039 -267.935
c-5.98535 -29.2598 -8.9082 -50.3369 -8.9082 -72.3984c0 -57.9785 22.9561 -93.8662 91.3366 -93.8662c67.1243 0 164.807 74.1143 185.749 180.775l49 255.147zM328.296 678h2.50918h36.8712h3.34145l1.42382 -2.86914l65.0813 -138l3.3584 -7.13086h-7.88184h-43h-3.2627
l-1.31348 2.98633l-42.9344 93.9365l-77.0386 -94.9736l-1.58122 -1.94922h-2.59251h-48.4593h-11.0583l6.96891 8.15039l117.988 138z" />
    <glyph glyph-name="udieresis" unicode="&#xfc;" horiz-adv-x="526" 
d="M438.852 480h4.14844h45h6.04492l-1.13379 -5.81543l-66.9971 -343.753c-8.97461 -46.8779 -14.9473 -88.8291 -17.9297 -125.825l-0.363281 -4.60645h-4.62109h-43.7509h-6.12531l0.917665 5.74902l12.873 80.6484
c-42.6807 -56.5566 -107.924 -97.3975 -175.166 -97.3975c-54.2036 0 -134.748 22.2773 -134.748 144.042c0 21.0439 3.0625 44.8799 9.08789 75.3877l52 267.506l0.774414 4.06445h4.1377h45h6.03809l-1.12598 -5.80078l-52.0039 -267.935
c-5.98535 -29.2598 -8.9082 -50.3369 -8.9082 -72.3984c0 -57.9785 22.9561 -93.8662 91.3366 -93.8662c67.1243 0 164.807 74.1143 185.749 180.775l49 255.147zM290.774 615c0 -22.1299 -16.5427 -45 -45.2989 -45h-1.05346c-25.5588 0 -42.1385 20.832 -42.1385 43
c0 23.5137 19.9078 45 45.2989 45c26.4971 0 43.192 -20.7617 43.192 -43zM464 615c0 -22.1299 -15.7031 -45 -43 -45h-1c-25.4141 0 -39 21.167 -39 43c0 23.333 17.7686 45 42 45c26.1748 0 41 -20.8896 41 -43z" />
    <glyph glyph-name="ugrave" unicode="&#xf9;" horiz-adv-x="526" 
d="M438.852 480h4.14844h45h6.04492l-1.13379 -5.81543l-66.9971 -343.753c-8.97461 -46.8779 -14.9473 -88.8291 -17.9297 -125.825l-0.363281 -4.60645h-4.62109h-43.7509h-6.12531l0.917665 5.74902l12.873 80.6484
c-42.6807 -56.5566 -107.924 -97.3975 -175.166 -97.3975c-54.2036 0 -134.748 22.2773 -134.748 144.042c0 21.0439 3.0625 44.8799 9.08789 75.3877l52 267.506l0.774414 4.06445h4.1377h45h6.03809l-1.12598 -5.80078l-52.0039 -267.935
c-5.98535 -29.2598 -8.9082 -50.3369 -8.9082 -72.3984c0 -57.9785 22.9561 -93.8662 91.3366 -93.8662c67.1243 0 164.807 74.1143 185.749 180.775l49 255.147zM201.743 678h10.0213h69.5286h3.43096l1.38679 -2.97852l64.2612 -138l3.26944 -7.02148h-8.08718h-33.7108
h-2.76843l-1.56991 2.16504l-100.079 138z" />
    <glyph glyph-name="yacute" unicode="&#xfd;" horiz-adv-x="426" 
d="M149.836 3.32422c4.56937 7.78809 3.62182 10.3457 2.54947 18.4707l-100.002 452.272l-1.27246 5.93262h6.16504h47.2543h4.24067l0.848134 -4l61.2939 -289.004c11.183 -52.9268 18.45 -88.8916 24.0775 -122.405c13.8796 30.1855 29.2829 62.3281 53.4203 110.585
l149.363 302l1.36523 2.82422h3.13672h48h8.04199l-3.55859 -7.09668l-188.695 -370.957c-45.7221 -88.585 -90.6478 -170.854 -159.891 -237.435c-53.9886 -54.6992 -108.712 -78.1289 -134.731 -84.374l-4.45996 -1.07031l-1.4502 4.35156l-13 39l-1.53223 4.59766
l4.54785 1.6748c18.834 6.93945 56.2129 21.7178 90.5615 50.1787c32.7237 26.0996 72.8568 69.8945 103.726 124.454zM328.382 678h2.62049h73.2737h11.8242l-8.2373 -8.4834l-136.505 -138l-1.52989 -1.5166h-2.19642h-42.5934h-10.2993l6.12158 7.97168l105.964 138z" />
    <glyph glyph-name="ydieresis" unicode="&#xff;" horiz-adv-x="426" 
d="M149.836 3.32422c4.56937 7.78809 3.62182 10.3457 2.54947 18.4707l-100.002 452.272l-1.27246 5.93262h6.16504h47.2543h4.24067l0.848134 -4l61.2939 -289.004c11.183 -52.9268 18.45 -88.8916 24.0775 -122.405c13.8796 30.1855 29.2829 62.3281 53.4203 110.585
l149.363 302l1.36523 2.82422h3.13672h48h8.04199l-3.55859 -7.09668l-188.695 -370.957c-45.7221 -88.585 -90.6478 -170.854 -159.891 -237.435c-53.9886 -54.6992 -108.712 -78.1289 -134.731 -84.374l-4.45996 -1.07031l-1.4502 4.35156l-13 39l-1.53223 4.59766
l4.54785 1.6748c18.834 6.93945 56.2129 21.7178 90.5615 50.1787c32.7237 26.0996 72.8568 69.8945 103.726 124.454zM238.544 615c0 -22.0635 -16.217 -45 -43.6322 -45h-1.03886c-26.2658 0 -41.5545 20.9609 -41.5545 43c0 23.4502 19.5243 45 43.6322 45
c27.191 0 42.5934 -20.8896 42.5934 -43zM411.276 615c0 -21.9365 -14.5781 -45 -42 -45h-1c-25.2832 0 -40.3903 20.9609 -40.3903 43c0 23.3965 18.2584 45 43.3903 45c25.2822 0 40 -20.9609 40 -43z" />
    <glyph glyph-name="zcaron" unicode="&#x17e;" horiz-adv-x="413" 
d="M-19 0l1.00879 5.71777l5 28.3447l0.242188 1.37598l0.949219 1.04199l290.034 309.827c40.3187 43.123 64.2501 65.0488 86.6094 86.6924h-273.908h-6.19629l1.30957 6.05664l8 37l0.852539 3.94336h4.03418h336h6.21191l-1.32715 -5.93164l-7 -31.2754
l-0.279297 -1.24707l-0.867188 -0.955078l-287.031 -306.91c-41.5198 -43.2412 -63.7236 -65.207 -84.6387 -85.6807h292.932h6.16211l-1.26953 -6.03027l-8 -38l-0.834961 -3.96973h-4.05762h-358h-5.93555zM301.394 530h-2.46756h-37.7131h-3.3003l-1.42508 2.84277
l-69.1407 138l-3.58573 7.15723h8.31112h45.0462h3.38726l1.38928 -2.94824l44.7423 -94.9111l77.3752 95.959l1.50098 1.90039h2.42188h46h10.6162l-6.76074 -8.18457l-114.826 -138z" />
    <glyph glyph-name="Dcroat" unicode="&#x110;" horiz-adv-x="649" 
d="M16 331l1.60059 6.24219l10 39l0.963867 3.75781h3.87891h82.8574l55.1212 282.209l0.677693 3.43848l3.61303 0.513672c55.637 7.89648 113.358 12.8389 169.108 12.8389c112.924 0 204.445 -36.8096 250.651 -100.562
c25.6943 -33.4258 47.9717 -90.6768 47.9717 -164.55c0 -112.636 -48.3428 -242.045 -141.316 -320.119c-78.076 -62.9639 -181.948 -96.7686 -299.998 -96.7686c-46.2766 0 -101.925 0.993164 -152.281 7.03516l-5.31445 0.638672l0.998047 5.17871l61.875 321.147
h-83.9629h-6.44336zM365.512 380l-1.26416 -6.00488l-8.21252 -39l-0.841101 -3.99512h-4.18746h-188.747l-54.909 -279.8c36.2404 -4.30957 73.7511 -5.2002 103.016 -5.2002c108.693 0 199.707 34.9629 264.41 94.0254c71.9815 65.6924 110.666 171.604 110.666 270.729
c0 118.862 -54.585 219.246 -255.994 219.246c-33.6641 0 -74.0991 -0.220703 -108.548 -5.27344l-48.4801 -244.727h186.799h6.29272z" />
    <glyph glyph-name="Eng" unicode="&#x14a;" horiz-adv-x="631" 
d="M297.908 -186.166v5.16602v37v4.64355l4.76352 0.342773c81.1044 5.84082 126.783 39.5928 152.378 146.554l-193.75 445.474c-31.6942 69.5469 -46.2972 108.8 -58.1165 152.069c-6.79972 -54.0469 -14.832 -101.86 -28.7981 -176.991l-80.4324 -424.019
l-0.768555 -4.07324h-4.14453h-44h-6.03906l1.12695 5.8457l128.261 664.087l0.79459 4.06738h4.25824h44.2318h3.40036l1.33202 -3.04102l200.576 -457.979c26.9909 -60.0947 41.1429 -101.49 52.5775 -140.554c4.01614 47.0918 10.0625 91.6348 26.114 170.525
l81.4539 426.98l0.771484 4.06836h4.14062h44h6.03711l-1.125 -5.86328l-125.174 -651.423c-32.2477 -163.94 -112.012 -199.686 -208.558 -202.711z" />
    <glyph glyph-name="Hbar" unicode="&#x126;" horiz-adv-x="623" 
d="M515.222 376l20.6083 104h-348.925l-20.6073 -104h348.924zM70.9072 524.176h4.14258h64.8643l28.4696 145.762l0.796174 4.0625h4.24659h47.233h6.24605l-1.2093 -5.96777l-29.5948 -146.032h349.813l28.2246 147.938l0.775391 4.0625h4.13574h45h6.04395
l-1.13281 -5.84961l-27.8672 -143.915h54.9561h6.03516l-1.12207 -5.8418l-7 -36.4561l-0.770508 -4.01074h-4.14258h-56.8672l-93.3518 -473.868l-0.798179 -4.05859h-4.24359h-46.2062h-6.19993l1.15616 5.93262l63.5325 326.067h-349.869l-61.2373 -327.918
l-0.762695 -4.08203h-4.15234h-45h-6.0498l1.13965 5.85449l91.8604 472.013h-63.9502h-6.03418l1.12109 5.8418l7 36.4561z" />
    <glyph glyph-name="Tbar" unicode="&#x166;" horiz-adv-x="461" 
d="M418.488 335h-4.2242h-138.353l-66.8763 -330.938l-0.808434 -4.06152h-4.30555h-45.7901h-6.04688l1.13574 5.85156l65.2307 329.148h-126.32h-6.16211l1.26953 6.03027l8 38l0.835938 3.96973h4.05664h127.598l49.0379 242h-206.636h-6.12988l1.23145 6.00488l8 39
l0.820312 3.99512h4.07812h472h5.97754l-1.05664 -5.88379l-7 -39l-0.738281 -4.11621h-4.18262h-208.904l-49.0389 -242h137.407h6.41663l-1.32197 -6.03027l-8.33043 -38z" />
    <glyph glyph-name="uni021C" unicode="&#x21c;" horiz-adv-x="454" 
d="M-12.4443 -107.598l-0.760742 4.81738l-6 38l-0.794922 5.0332l5.04688 0.700195c206.079 27.5459 378.687 124.545 378.687 275.089c0 60.167 -45.1797 115.341 -148.306 115.341c-27.5021 0 -58.6642 -6.75098 -92.194 -15.5889l-5.40324 -1.4248l-1.16488 5.14648
l-7.3632 32.5322l-1.08167 4.77539l5.0848 1.05957c132.273 27.5469 249.429 96.9893 249.429 192.352c0 54.751 -44.7266 85.7656 -104.179 85.7656c-55.1397 0 -110.235 -26.4941 -133.174 -38.3896l-5.17314 -2.68262l-2.21779 5.19043l-13.6745 32l-1.65898 3.88086
l3.72885 2.23242c29.0665 17.3984 95.9023 46.7686 162.689 46.7686c87.6691 0 153.66 -53.9766 153.66 -129.366c0 -89.7061 -76.7529 -153.804 -145.191 -183.952c71.0668 -14.3955 144.191 -59.7285 144.191 -156.746c0 -138.885 -140.196 -285.197 -429.343 -321.893z
" />
    <glyph glyph-name="dcroat" unicode="&#x111;" horiz-adv-x="523" 
d="M194.189 38c76.8728 0 171.723 85.3701 194.133 199.978l37.5232 184.097c-20.011 11.3633 -49.7951 19.9258 -90.2524 19.9258c-134.552 0 -243.594 -132.71 -243.594 -276.164c0 -57.3164 16.4287 -127.836 102.189 -127.836zM252.897 595h4.25358h203.158
l20.7729 110.898l0.749023 4.10156h4.16992h45h6.09863l-1.19531 -5.98047l-21.8047 -109.02h76.9014h6.06543l-1.15723 -5.9541l-7 -36l-0.787109 -4.0459h-4.12109h-77.8672l-82.8933 -416.268c-8.24307 -42.1504 -16.469 -89.1719 -19.5382 -128.106l-0.358833 -4.62598
h-4.78779h-42.3181h-5.99835l0.895065 5.74609l13.6598 87.6777c-46.8871 -64.3965 -107.134 -104.424 -182.989 -104.424c-103.684 0 -145.804 86.1084 -145.804 172.562c0 171.79 133.006 329.438 304.754 329.438c35.6978 0 73.4347 -7.10742 96.2609 -16.6777
l14.1759 74.6777h-201.266h-6.26042l1.19443 5.9541l7.22503 36z" />
    <glyph glyph-name="eng" unicode="&#x14b;" horiz-adv-x="536" 
d="M202.932 -168.627l-0.672959 4.99121l-5.26038 39l-0.635972 4.7168l4.92441 0.839844c80.677 13.5225 145.498 40.0273 173.828 184.711l41.9824 218.014c2.97461 19.4834 6.92969 43.0439 6.92969 64.0205c0 54.5166 -21.1973 93.334 -88.1977 93.334
c-68.162 0 -174.042 -74.1123 -196.883 -196.404l-45 -240.495l-0.75 -4.10059h-4.16895h-45h-6.02734l1.11426 5.80176l65.9961 343.753c8.99121 47.9453 15.9766 89.0039 20.96 126.098l0.572266 4.34766h4.38477h42.7826h6.08231l-0.876387 -5.7207l-12.9105 -84.2646
c45.3903 62.2539 113.639 100.985 188.662 100.985c44.8756 0 125.26 -24.2783 125.26 -136.922c0 -22.2578 -4.05566 -49.0186 -9.08887 -75.79l-43.9971 -226.546c-28.3213 -148.458 -107.341 -205.654 -218.762 -219.697z" />
    <glyph glyph-name="hbar" unicode="&#x127;" horiz-adv-x="536" 
d="M68.9248 596h4.12109h80.8369l21.0903 109.906l0.793368 4.09375h4.381h48.4078h6.42916l-1.27124 -5.98926l-22.9327 -108.011h199.265h6.06543l-1.15723 -5.9541l-7 -36l-0.787109 -4.0459h-4.12109h-200.699l-32.7634 -154.803
c45.6629 59.7188 108.191 95.8027 186.306 95.8027c43.7488 0 123.157 -25.0381 123.157 -130.323c0 -26.6826 -2.00879 -54.457 -7.09961 -77.4072l-53.9883 -279.2l-0.770508 -4.06934h-4.1416h-45h-6.02832l1.11426 5.79297l54 280.637l0.0273438 0.141602
l0.0361328 0.139648c3.8623 15.1084 6.85059 38.2598 6.85059 67.2627c0 49.0225 -24.0391 87.0264 -87.0992 87.0264c-73.3979 0 -175.147 -79.0137 -195.985 -188.593l-47 -248.317l-0.756836 -4.08984h-4.15918h-45h-6.0459l1.13477 5.83203l105.865 544.168h-78.9541
h-6.06641l1.1582 5.9541l7 36z" />
    <glyph glyph-name="kgreenlandic" unicode="&#x138;" horiz-adv-x="431" 
d="M93.1924 0h-4.14258h-45h-6.0498l1.13867 5.81934l92 470.122l0.77832 4.05859h4.13281h46.3181h6.403l-1.21308 -5.94727l-42.8967 -213.998c13.8551 14.0586 27.9464 26.5986 38.3469 35.6172l206.647 183l1.4375 1.32812h1.95703h57h12.8174l-9.43262 -8.50195
l-215.869 -189.452l152.911 -274.872l3.84277 -7.17383h-8.26953h-48.2755h-3.19427l-1.48564 2.6748l-139.652 251.475l-61.8088 -50.8174l-37.6719 -199.261z" />
    <glyph glyph-name="napostrophe" unicode="&#x149;" horiz-adv-x="536" 
d="M93.1963 -0h-4.16895h-45h-6.02734l1.11426 5.80176l66.0068 343.81c9.98438 47.917 15.9512 88.8379 20.9492 126.041l0.572266 4.34766h4.38477h42.7826h6.08231l-0.876387 -5.7207l-12.9105 -84.2646c45.3903 62.2539 113.639 100.985 188.662 100.985
c44.8756 0 125.26 -24.1514 125.26 -136.203c0 -22.1367 -4.05762 -48.7705 -9.08594 -75.3779l-53 -275.346l-0.768555 -4.07324h-4.14551h-45h-6.03613l1.12402 5.79883l53.9824 278.589c2.97461 19.3906 6.92969 42.8408 6.92969 63.7188
c0 54.2598 -21.1973 92.8936 -88.1977 92.8936c-68.162 0 -174.042 -74.1123 -196.883 -196.404l-45 -240.495zM81.5596 535.269l-1.31055 4.26074l-8 26l-1.39062 4.51758l4.43262 1.6416c26.1807 9.69727 55.7363 30.2871 55.7363 71.3115
c0 20.0869 -12.1748 39.9219 -25.0889 50.0684l-7.91406 6.21875l9.73633 2.5498l42 11l2.12402 0.556641l1.84668 -1.1875c16.3541 -10.1289 32.7034 -36.4365 32.7034 -63.2061c0 -70.1592 -56.0803 -104.653 -100.492 -112.916z" />
    <glyph glyph-name="tbar" unicode="&#x167;" horiz-adv-x="302" 
d="M48.8916 304h4.14258h60.8789l26.0557 129h-66.9346h-6.03418l1.12207 5.92969l7 37l0.769531 4.07031h4.14258h69.8271l15.2539 83.8945l0.511719 2.8125l2.68359 0.986328l49 18l8.27148 3.03809l-1.63379 -8.6582l-18.8818 -100.073h115.968h6.03516
l-1.12207 -5.92969l-7 -37l-0.769531 -4.07031h-4.14355h-118.85l-25.125 -129h86.9746h6.03516l-1.12207 -5.92969l-7 -37l-0.769531 -4.07031h-4.14355h-88.8418l-17.2432 -90.8477c-5.99609 -31.2637 -9.91504 -54.3057 -9.91504 -83.1787
c0 -29.2627 13.7734 -44.9736 43 -44.9736c15.584 0 28.1172 1.95508 37.5635 4.78906l5.74414 1.72363l0.662109 -5.96094l4 -36l0.425781 -3.83398l-3.60059 -1.38477c-13.8486 -5.32617 -33.2969 -8.33301 -53.7949 -8.33301c-67.2705 0 -91 47.3965 -91 90.3154
c0 28.8936 4.08203 57.8281 11.0977 90.2988l16.8662 87.3857h-58.9639h-6.03418l1.12207 5.92969l7 37z" />
    <glyph glyph-name="uni021D" unicode="&#x21d;" horiz-adv-x="385" 
d="M-58.6484 -208.411l-0.65625 4.72363l-5 36l-0.695312 5.00391l5.01172 0.642578c79.1143 9.99316 353.636 58.7256 353.636 231.575c0 59.4932 -53.5957 103.432 -140.306 102.466c-21.4708 0 -45.3862 -4.83984 -84.5974 -14.8271l-5.44335 -1.38574l-1.13779 5.20508
l-7.41247 33.5811l-0.953125 4.54883l4.77814 1.1875c128.767 31.5098 233.072 84.1074 233.072 167.072c0 41.7373 -35.6943 74.6182 -102.261 74.6182c-54.6781 0 -103.763 -23.4883 -126.914 -35.3896l-5.62366 -2.89062l-1.95998 5.74512l-10 31l-1.22559 3.80078
l3.43555 2.03613c28.4924 16.1816 86.6751 44.6982 158.204 44.6982c80.4225 0 140.344 -50.957 140.344 -118.308c0 -79.8291 -63.4932 -133.032 -126.959 -159.1c66.7854 -14.123 129.959 -63.7568 129.959 -143.57c0 -145.988 -151.594 -256.243 -402.547 -278.002z" />
    <glyph glyph-name="IJ" unicode="&#x132;" horiz-adv-x="570" 
d="M169.235 674h4.27994h47.5589h6.25281l-1.17524 -5.85254l-131.201 -664.087l-0.777344 -4.06055h-4.13379h-45h-6.03906l1.12695 5.8457l128.309 664.087zM289.31 40c75.5507 0 123.31 37.293 148.97 166.29l89.8455 463.639l0.769531 4.07129h4.14355h45h6.03613
l-1.12402 -5.8457l-89.9971 -468.152c-28.2148 -148.974 -93.2234 -211.002 -209.847 -211.002c-41.191 0 -82.7778 9.84961 -98.7163 18.6592l-3.59337 1.98535l1.21664 3.82617l12.4067 39l1.79517 5.64062l5.45821 -2.63965
c21.7157 -10.502 49.8175 -15.4717 87.6363 -15.4717z" />
    <glyph glyph-name="ij" unicode="&#x133;" horiz-adv-x="423" 
d="M93.1816 0h-4.13184h-45h-6.0498l1.13867 5.81934l92 470.122l0.77832 4.05859h4.13281h46.5464h6.45465l-1.21507 -5.81934l-93.8759 -470.122zM230.59 612.526c-2.29154 -22.5547 -17.7592 -44.5264 -46.927 -44.5264h-1.06709
c-26.2877 0 -39.5464 22.4629 -39.5464 45v0.113281l0.00488281 0.113281c1.08984 23.9834 17.9142 44.7734 43.8099 44.7734c28.0435 0 43.7508 -21.0752 43.7508 -45v-0.237305zM346.916 480h4.13379h45h6.04199l-1.13086 -5.81543l-93.6119 -478.129
c-16.0283 -78.1094 -33.0944 -129.135 -63.1908 -159.429c-28.6739 -29.9707 -67.5467 -45.627 -106.108 -45.627c-20.1309 0 -34.6846 0.957031 -47.582 5.25684l-4.01758 1.33887l0.660156 4.18457l6 38l0.956055 6.05371l5.73828 -2.15234
c6.9082 -2.59082 21.6104 -4.68164 40.2451 -4.68164c45.2986 0 82.2268 27.4639 103.466 134.94l102.623 502zM437.026 612.526c-2.14746 -22.5547 -16.6426 -44.5264 -43.9766 -44.5264h-1c-24.7412 0 -38 22.4629 -38 45v0.113281l0.00488281 0.113281
c1.08984 23.9834 17.7275 44.7734 41.9951 44.7734c26.2803 0 41 -21.0752 41 -45v-0.237305z" />
    <glyph glyph-name="zero.slash" unicode="&#xf638;" horiz-adv-x="462" 
d="M102.429 138.481l289.887 427.048c-14.2962 31.3269 -37.8647 52.4711 -79.3159 52.4711c-118.304 0 -216 -218.897 -216 -417c0 -19.9975 1.6288 -42.4141 5.42889 -62.5194zM407.084 506.791l-288.284 -425.145c16.0048 -30.0115 39.5158 -48.6455 80.1993 -48.6455
c130.802 0 211 269.326 211 428c0 12.4105 -0.847453 30.5321 -2.91575 45.7909zM509.018 650.024l-58.3946 -78.8327c11.7086 -32.7335 15.3768 -68.6368 15.3768 -102.191c0 -217.918 -100.487 -485 -273 -485c-48.8067 0 -83.329 19.0466 -107.749 48.5783
l-41.1399 -59.4243l-3.11193 -4.49501l-4.19995 3.49996l-30 25l-3.58735 2.98946l2.73769 3.78299l53.3976 73.7858c-14.0471 37.0106 -19.3471 79.9235 -19.3471 127.283c0 224.435 117.862 461 277 461c50.6341 0 86.5905 -20.3459 108.896 -49.3567l42.9909 62.1996
l2.89576 4.18961l4.13556 -2.97243l32 -23l4.11876 -2.96036z" />
    <glyph glyph-name="Euro" unicode="&#x20ac;" horiz-adv-x="462" 
d="M401.682 58.7556l12 -32l1.3531 -3.60827l-3.14466 -2.22747c-25.0562 -17.7481 -75.7859 -36.9199 -132.89 -36.9199c-4.69444 0 -9.31609 0.124476 -13.8647 0.370133c-144.996 7.83086 -212.048 138.381 -204.469 271.63h-55.6667h-6.19662l1.30955 6.05666l8 37
l0.852613 3.94334h4.03446h51.4539c2.17093 20.5472 6.49363 40.1979 11.775 58h-52.2289h-6.36201l1.50367 6.18176l9 37l0.928762 3.81824h3.92958h58.3706c45.34 137.033 161.897 258 307.629 258c52.0007 0 90.8856 -15.3253 116.443 -29.6375l4.21044 -2.35785
l-2.20702 -4.29142l-18 -35l-2.33044 -4.53142l-4.48649 2.4158c-25.5312 13.7476 -56.5896 25.4024 -98.6295 25.4024c-121.417 0 -208.687 -105.153 -245.998 -210h276.998h6.19662l-1.30955 -6.05666l-8 -37l-0.852613 -3.94334h-4.03446h-284.311
c-5.3513 -17.9063 -9.16246 -36.029 -12.0438 -58h283.355h6.19662l-1.30955 -6.05666l-8 -37l-0.852613 -3.94334h-4.03446h-280.222c-0.193165 -5.24678 -0.24573 -8.34593 -0.248717 -12.7485c-0.0731954 -107.879 51.085 -210.251 171.47 -210.251
c43.7711 0 86.1779 16.7015 107.606 28.3895l5.05436 2.75692z" />
    <glyph glyph-name="afii61352" unicode="&#x2116;" horiz-adv-x="851" 
d="M691 292h-1c-67.6745 0 -119 45.5944 -119 130c0 102.324 63.8716 225 182 225c76.0564 0 118 -52.1036 118 -133c0 -104.371 -63.9484 -222 -180 -222zM799.917 251.094l-7 -38l-0.754192 -4.09419h-4.16307h-232h-6.00518l1.08791 5.90581l7 38l0.754192 4.09419
h4.16307h232h6.00518zM561.91 655.057l-126 -656l-0.779217 -4.05687h-4.13103h-47h-3.59774l-1.14315 3.4113l-126.003 376.008c-22.8373 68.5119 -45.042 132.917 -60.1194 199.714c-12.1801 -77.6251 -24.794 -145.409 -45.2251 -254.066l-61 -321l-0.772771 -4.06655
h-4.13932h-43h-6.05176l1.14152 5.94313l126 656l0.779217 4.05687h4.13103h50h3.59173l1.14663 -3.40379l126.999 -376.998c24.8527 -73.6706 45.1097 -135.363 59.1027 -194.115c11.4626 87.092 23.747 155.247 42.2514 251.47l62 319l0.786382 4.04606h4.12177h42
h6.05176zM697 336h1c78.2577 0 120 95.6441 120 173c0 51.3047 -17.081 94 -71 94c-77.259 0 -123 -100.844 -123 -171c0 -61.4999 28.5338 -96 73 -96z" />
    <glyph glyph-name="estimated" unicode="&#x212e;" horiz-adv-x="817" 
d="M184.75 111.31c56.0797 -60.0151 136.671 -97.31 225.25 -97.31c94.4811 0 179.1 42.3044 236.196 109.245l1.49714 1.75527h2.30703h55h10.901l-7.11147 -8.26185c-68.9854 -80.1448 -178.351 -132.738 -299.79 -132.738c-208.295 0 -379 151.776 -379 341
c0 189.224 170.705 341 379 341c208.308 0 378 -151.794 378 -341v-9v-5h-5h-605v-182c0 -6.26688 3.08499 -12.0917 7.75022 -17.69zM641 340v184c0 7.38546 -3.11594 13.0449 -8.53553 18.4645c-57.1368 57.1368 -135.888 93.5355 -222.464 93.5355
c-88.5705 0 -167.236 -37.3348 -224.435 -96.5056c-5.29081 -5.29081 -8.56549 -12.0103 -8.56549 -19.4944v-180h464z" />
    <glyph glyph-name="zero.oldstyle" unicode="&#xf730;" horiz-adv-x="487" 
d="M207 -16h-1c-91.0015 0 -171 72.7299 -171 200c0 141.426 95.8513 314 253 314c85.9668 0 172 -72.5914 172 -201c0 -143.431 -94.8955 -313 -253 -313zM215 33h1c116.365 0 188 146.93 188 261c0 93.3866 -48.5501 156 -124 156c-119.341 0 -189 -148.866 -189 -263
c0 -92.3668 47.4989 -154 124 -154z" />
    <glyph glyph-name="one.oldstyle" unicode="&#xf731;" horiz-adv-x="322" 
d="M271.912 483.066l-92 -484l-0.772934 -4.0663h-4.13911h-44h-6.04163l1.12984 5.93504l81.3208 427.179l-135.173 -67.5865l-5.76176 -2.88088l-1.36137 6.29635l-8 37l-0.820156 3.79322l3.47116 1.73558l164 82l1.05573 0.527864h1.18034h41h6.03994z" />
    <glyph glyph-name="two.oldstyle" unicode="&#xf732;" horiz-adv-x="419" 
d="M367.921 38.1167l-7 -39l-0.738891 -4.11668h-4.18246h-369h-6.01094l1.09453 5.91045l5 27l0.373903 2.01908l1.68504 1.17351l111.995 77.9968c159.165 111.115 214.862 174.976 214.862 247.9c0 66.0412 -44.1313 96 -96 96
c-52.0892 0 -99.2271 -31.1607 -123.226 -47.1603l-4.2702 -2.8468l-2.73447 4.34298l-17 27l-2.36119 3.75013l3.43939 2.79451c32.4711 26.3828 87.476 60.1194 156.153 60.1194c76.2822 0 142 -49.117 142 -143c0 -90.0407 -68.2592 -161.187 -228.114 -275.083
l-56.1734 -39.4052c19.6511 0.514042 38.8267 0.487995 53.287 0.487995h222h5.97734z" />
    <glyph glyph-name="three.oldstyle" unicode="&#xf733;" horiz-adv-x="406" 
d="M117.801 235c87.4881 6.95928 188.199 55.5334 188.199 141c0 48.3631 -38.4165 74 -93 74c-46.8071 0 -84.9713 -16.6051 -108.481 -30.3189l-4.60651 -2.68713l-2.38498 4.76996l-15 30l-2.00736 4.01472l3.77571 2.42724
c28.8106 18.5211 82.4967 39.7941 140.704 39.7941c65.5996 0 137 -38.3764 137 -123c0 -75.723 -59.868 -129.079 -129.784 -153.407c65.923 -16.8494 113.784 -63.1912 113.784 -134.593c0 -133.125 -133.766 -199 -246 -199
c-52.6632 0 -103.105 10.8032 -125.632 24.7487l-3.36204 2.08126l1.2504 3.7512l12 36l1.82307 5.46921l5.15642 -2.57821c25.0027 -12.5014 66.5383 -21.4721 102.764 -21.4721c114.617 0 196 59.8842 196 145c0 71.3053 -60.4835 108 -130 108
c-26.8812 0 -45.666 -0.99716 -61.3798 -2.96139l-6.42171 -0.802713l0.84426 6.41638l5 38l0.466931 3.54868l3.50976 0.701952c5.71062 1.14212 11.7531 1.0971 15.782 1.0971z" />
    <glyph glyph-name="four.oldstyle" unicode="&#xf734;" horiz-adv-x="467" 
d="M321.142 57l-31.2294 -164.93l-0.77061 -4.06978h-4.1421h-42h-6.03559l1.12288 5.93022l30.8771 163.07h-267.964h-6.02463l1.11027 5.92144l6 32l0.255814 1.36434l0.922537 1.0372l354 398l1.49162 1.67702h2.24439h37h6.02273l-1.10809 -5.91992l-71.8919 -384.08
h88.9773h6.09902l-1.19612 -5.98058l-8 -40l-0.803884 -4.01942h-4.09902h-90.8579zM277.854 107l44.238 234.953c4.63237 23.1619 9.37531 46.6429 14.8524 67.8199c-17.5744 -25.918 -34.3637 -47.8558 -52.17 -69.0537l-210.249 -233.719h203.329z" />
    <glyph glyph-name="five.oldstyle" unicode="&#xf735;" horiz-adv-x="400" 
d="M-14.7679 -86.4943l12 38l1.64585 5.21187l5.04514 -2.10214c23.1822 -9.65927 61.8191 -17.6154 96.0769 -17.6154c106.458 0 194 58.7125 194 157c0 32.7564 -11.4722 59.4011 -32.4954 80.4243c-42.8658 40.9607 -127.27 45.5738 -196 38.6012l-7.57909 -0.768893
l2.3098 7.25938l84 264l1.10854 3.48398h3.65609h246h7.04741l-2.32811 -6.65175l-14 -40l-1.17189 -3.34825h-3.54741h-200.371l-56.587 -173.533c65.5296 3.46233 137.66 -11.0975 182.462 -55.8989c28.9365 -27.903 44.4966 -65.386 44.4966 -109.568
c0 -128.635 -117.283 -210 -251 -210c-46.7984 0 -93.0309 10.9866 -112.031 19.4309l-4.08256 1.81447z" />
    <glyph glyph-name="six.oldstyle" unicode="&#xf736;" horiz-adv-x="486" 
d="M220 33h1c81.7231 0 163 82.3874 163 187c0 78.4759 -50.7032 122 -112 122c-74.0393 0 -123.415 -39.7896 -148.671 -83.5014l-0.134153 -0.232188l-0.158217 -0.216507c-18.224 -24.9381 -23.037 -50.637 -23.037 -78.0499c0 -88.2927 46.437 -147 120 -147z
M461.955 598.67l5 -37l0.68751 -5.08758l-5.10396 -0.552929c-119.017 -12.8935 -197.834 -56.3954 -250.003 -108.565c-40.3069 -40.3069 -67.4584 -80.7616 -84.2951 -122.468c35.5855 35.7182 88.4049 65.0032 156.76 65.0032c79.573 0 155 -60.2153 155 -163
c0 -133.462 -101.919 -243 -226 -243c-90.8396 0 -170 63.7827 -170 204c0 75.2968 34.3111 197.395 123.491 285.562c67.7048 66.6943 158.92 118.321 289.084 129.42l4.74238 0.404389z" />
    <glyph glyph-name="seven.oldstyle" unicode="&#xf737;" horiz-adv-x="423" 
d="M426.914 481.079l-6 -32l-0.121382 -0.64737l-0.284889 -0.593852c-71.3352 -148.699 -242.358 -400.662 -371.645 -558.012l-2.07606 -2.52667l-3.14693 0.889349l-46 13l-7.67355 2.16861l5.29451 5.96275c101.355 114.147 302.107 401.18 363.241 527.68h-287.502
h-5.80594l0.861255 5.7417l6 40l0.638745 4.2583h4.30594h345h6.02463z" />
    <glyph glyph-name="eight.oldstyle" unicode="&#xf738;" horiz-adv-x="487" 
d="M296 605h1c91.23 0 158 -60.8651 158 -141c0 -71.2508 -53.1781 -114.197 -128.202 -153.114c68.6545 -38.5845 107.202 -87.4207 107.202 -149.886c0 -110.844 -108.402 -177 -212 -177c-109.893 0 -187 62.7142 -187 160c0 87.0582 80.2414 139.377 156.817 175.27
c-51.9339 29.3356 -82.8171 71.8618 -82.8171 124.73c0 92.488 86.9929 161 187 161zM288 558h-1c-64.3341 0 -124 -38.6666 -124 -105c0 -55.4357 44.2717 -90.167 113.905 -117.594c71.167 30.9103 122.095 67.5998 122.095 128.594c0 47.3246 -32.4653 94 -111 94z
M221 32h1c88.222 0 156 55.6977 156 123c0 62.4254 -49.2619 102.209 -136.107 139.606c-71.5748 -27.616 -150.893 -75.3225 -150.893 -152.606c0 -65.6486 53.902 -110 130 -110z" />
    <glyph glyph-name="nine.oldstyle" unicode="&#xf739;" horiz-adv-x="486" 
d="M218 138h1c59.7968 0 121.657 40.9646 155.839 90.7732c10.2455 15.8339 19.161 44.1431 19.161 76.2268c0 99.77 -54.8098 145 -123 145c-82.5615 0 -159 -84.1933 -159 -187c0 -82.7803 47.938 -125 106 -125zM40.0427 -109.652l-5 38l-0.692299 5.26147
l5.29334 0.378095c27.8704 1.99074 53.6359 4.97285 76.3127 9.90259c152.474 32.5402 222.059 126.886 256.997 218.952c-36.3606 -38.3921 -96.1885 -71.8417 -161.953 -71.8417c-89.7055 0 -156 63.4988 -156 164c0 129.537 103.938 243 231 243
c92.2072 0 165 -74.0134 165 -201c0 -167.839 -98.4339 -361.454 -342.08 -403.915c-20.0471 -4.00942 -41.5032 -7.08491 -63.9196 -7.08491h-4.3852z" />
    <glyph glyph-name="percent.oldstyle" unicode="&#xf642;" horiz-adv-x="724" 
d="M209 605h1c81.1177 0 108 -72.1066 108 -132c0 -142.473 -65.1487 -276 -173 -276c-73.8359 0 -111 62.8093 -111 144c0 119.544 63.0916 264 175 264zM203 561h-1c-66.4188 0 -117 -114.918 -117 -221c0 -51.9088 13.572 -99 67 -99c66.302 0 115 117.774 115 223
c0 43.1933 -11.956 97 -64 97zM158 -18h-44h-9.87308l5.84252 7.95881l450 613l1.49842 2.04119h2.53214h44h9.87308l-5.84252 -7.95881l-450 -613l-1.49842 -2.04119h-2.53214zM584 398h1c80.1262 0 108 -72.0868 108 -133c0 -142.491 -65.171 -275 -173 -275
c-74.7676 0 -112 61.7751 -112 144c0 118.576 64.0979 264 176 264zM577 354h-1c-65.3658 0 -116 -115.876 -116 -222c0 -50.8819 13.5586 -98 67 -98c65.2989 0 115 117.801 115 223c0 42.1675 -11.9429 97 -65 97z" />
    <glyph glyph-name="zero.fitted" unicode="&#xf639;" horiz-adv-x="462" 
d="M193 -16h-1c-113.382 0 -152 100.614 -152 221c0 224.435 117.862 461 277 461c118.388 0 149 -105.601 149 -197c0 -217.918 -100.487 -485 -273 -485zM199 33h1c129.787 0 210 269.314 210 428c0 56.9559 -8.45502 157 -97 157c-118.304 0 -216 -218.897 -216 -417
c0 -79.5153 17.1319 -168 102 -168z" />
    <glyph glyph-name="one.fitted" unicode="&#xf6dc;" horiz-adv-x="314" 
d="M111.088 0.936315l112.238 588.755l-93.9015 -52.0642l-5.30818 -2.94315l-1.87247 5.77345l-12 37l-1.26618 3.90404l3.58241 2.00277l127 71l1.13712 0.635713h1.30276h42h6.04402l-1.13259 -5.93695l-124 -650l-0.775105 -4.06305h-4.13632h-44h-6.04322z" />
    <glyph glyph-name="two.fitted" unicode="&#xf63a;" horiz-adv-x="411" 
d="M334 -5h-361h-6.21198l1.32748 6.06848l7 32l0.343811 1.57171l1.19587 1.07628l70.0412 63.037c201.347 173.298 312.304 289.362 312.304 411.246c0 46.7515 -19.6197 106 -102 106c-57.2034 0 -102.165 -30.1393 -128.842 -51.8762l-4.839 -3.94289l-2.7915 5.583
l-17 34l-1.74949 3.49899l2.97532 2.5399c41.953 35.8136 104.821 60.1972 158.246 60.1972c120.424 0 154 -87.457 154 -152c0 -145.183 -139.969 -282.986 -319.777 -435.822l-40.8466 -34.1778h285.623h6.12975l-1.23174 -6.00472l-8 -39l-0.819544 -3.99528h-4.07847z
" />
    <glyph glyph-name="three.fitted" unicode="&#xf63b;" horiz-adv-x="392" 
d="M-16.3943 31.3855l19 35l2.50643 4.6171l4.48758 -2.73157c22.8632 -13.9168 57.7204 -34.271 111.4 -34.271c125.805 0 177 95.093 177 169c0 91.5305 -68.5829 127 -138 127h-37h-6.16223l1.26948 6.03005l8 38l0.835778 3.96995h4.05697h38
c57.6032 0 167 47.2378 167 146c0 58.585 -30.4135 92 -95 92c-42.8182 0 -84.8475 -15.6744 -112.893 -37.9175l-4.8821 -3.87201l-2.72242 5.60498l-17 35l-1.89431 3.90006l3.59257 2.42741c37.6967 25.4708 87.599 44.8571 141.799 44.8571
c111.081 0 147 -76.035 147 -136c0 -88.1719 -67.0942 -150.38 -134.515 -174.832c69.0673 -24.3541 97.5154 -88.5116 97.5154 -151.168c0 -116.901 -96.4758 -220 -240 -220c-63.1303 0 -112.144 22.1436 -132.439 41.3702l-2.78742 2.64071z" />
    <glyph glyph-name="four.fitted" unicode="&#xf63c;" horiz-adv-x="462" 
d="M301 -5h-43h-6.02463l1.11027 5.92144l34.8897 186.079h-275.975h-6.25492l1.37771 6.1013l7 31l0.275691 1.22092l0.818396 0.947032l369 427l1.49566 1.73075h2.28746h37h6.04497l-1.13369 -5.93771l-78.8663 -413.062h89.955h6.12975l-1.23174 -6.00472l-8 -39
l-0.819544 -3.99528h-4.07847h-91.8504l-35.2353 -187.921l-0.764729 -4.07856h-4.14963zM86.3209 236h211.54l49.2301 258.95c4.78728 24.7343 10.5174 50.132 15.7395 72.2088c-20.5832 -30.8006 -32.9732 -53.0607 -54.9385 -80.2977l-0.0703693 -0.087258
l-0.0742092 -0.0840166z" />
    <glyph glyph-name="five.fitted" unicode="&#xf63d;" horiz-adv-x="403" 
d="M438.907 649.042l-8 -41l-0.78877 -4.04245h-4.11868h-214.328l-60.4818 -192.786c10.4495 1.38815 17.1991 1.78582 26.8102 1.78582c23.9329 0 68.4049 -8.08631 103.288 -26.5539c60.1034 -30.0517 83.7119 -93.1696 83.7119 -146.446
c0 -157.908 -122.489 -256 -251 -256c-55.1931 0 -105.795 20.112 -125.966 34.9747l-3.46472 2.55295l2.00879 3.80612l19 36l2.49986 4.73658l4.55384 -2.81904c20.1851 -12.4955 62.4973 -29.2513 111.368 -29.2513c103.91 0 184 91.4745 184 193
c0 74.9553 -32.6369 136 -150 136c-22.6975 0 -42.5329 -1.97861 -67.6013 -3.98408l-7.34441 -0.587553l2.16679 7.04206l88 286l1.08602 3.52957h3.69287h256h6.0699z" />
    <glyph glyph-name="six.fitted" unicode="&#xf63e;" horiz-adv-x="460" 
d="M385.882 658.878c22.6043 6.16482 42.8906 7.12226 58.1179 7.12226h5.74611l-0.79409 -5.69098l-6 -43l-0.601259 -4.30902h-4.35077c-15.8066 0 -37.311 -0.976626 -61.8697 -6.87072c-108.122 -24.2343 -210.418 -118.892 -262.991 -260.315
c43.281 50.3193 106.238 83.1854 163.861 83.1854c109.474 0 157 -83.4591 157 -178c0 -122.891 -95.1985 -267 -231 -267c-114.578 0 -170 88.6168 -170 209c0 154.788 86.7003 299.896 166.696 368.753c60.5384 54.4845 126.204 85.9411 186.186 97.1243zM104.307 274.456
c-4.93843 -8.88917 -9.43874 -18.1365 -10.3272 -27.909l-0.0214477 -0.235924l-0.0436574 -0.23284c-2.96456 -15.811 -5.91436 -36.477 -5.91436 -61.0786c0 -90.6376 40.6222 -152 120 -152h1c91.9235 0 168 108.593 168 218c0 86.0384 -39.8659 128 -112 128
c-55.7503 0 -119.384 -38.6455 -160.693 -104.544z" />
    <glyph glyph-name="seven.fitted" unicode="&#xf63f;" horiz-adv-x="370" 
d="M90 655h357h5.93008l-1.00197 -5.84482l-6 -35l-0.167115 -0.974839l-0.525676 -0.837797c-128.005 -204.007 -258.015 -410.024 -390.031 -615.049l-1.47653 -2.2931h-2.72736h-49h-9.17731l4.97613 7.71111c129.879 201.262 257.583 403.747 384.015 603.289h-299.813
h-6.12975l1.23174 6.00472l8 39l0.819544 3.99528h4.07847z" />
    <glyph glyph-name="eight.fitted" unicode="&#xf640;" horiz-adv-x="459" 
d="M301 666h1c91.4907 0 152 -61.2527 152 -145c0 -81.7577 -54.5901 -142.066 -130.984 -179.704c70.9496 -40.4117 97.9841 -100.32 97.9841 -161.296c0 -122.403 -106.974 -196 -213 -196c-114.184 0 -186 69.9627 -186 163c0 106.158 78.3747 173.125 159.199 205.693
c-54.2137 39.1835 -73.1987 82.9406 -73.1987 131.307c0 98.9577 84.4429 182 193 182zM207 32h1c90.6821 0 156 59.9993 156 144c0 70.4524 -35.7084 115.101 -128.213 147.779c-76.7872 -20.1731 -156.787 -75.7486 -156.787 -172.779c0 -59.6194 39.8257 -119 128 -119z
M293 618h-1c-73.1113 0 -129 -60.6458 -129 -130c0 -54.5872 28.0252 -94.1369 102.07 -120.722c76.5953 25.135 132.93 78.3885 132.93 146.722c0 45.6029 -19.4528 104 -105 104z" />
    <glyph glyph-name="nine.fitted" unicode="&#xf641;" horiz-adv-x="460" 
d="M55.0351 -10.4089l5 42l0.524873 4.40894h4.44007c16.5706 0 39.5295 1.99643 61.0214 5.90405c44.9127 9.76363 95.1727 34.3183 141.601 77.7835c44.149 39.5502 88.0067 100.982 119.856 184.292c-46.1269 -48.2821 -102.655 -73.9799 -156.479 -73.9799
c-112.817 0 -152 94.7236 -152 170c0 129.019 100.313 266 230 266c115.886 0 159 -94.9563 159 -196c0 -168.92 -100.617 -326.782 -171.697 -390.754c-50.652 -43.5607 -108.166 -73.8785 -164.197 -87.1221c-23.3575 -5.07772 -50.528 -9.1569 -72.3441 -8.11804
l-5.36165 0.255317zM304 617h-1c-91.1107 0 -168 -101.741 -168 -213c0 -70.4577 33.4584 -124 106 -124c58.8986 0 114.478 35.7765 150.785 92.6891l0.101772 0.159535l0.11354 0.151386c5.73777 7.65036 10.2944 15.9669 12.102 25.0053
c3.94874 18.7565 7.89795 46.4322 7.89795 74.9947c0 85.1454 -28.8846 144 -108 144z" />
    <glyph glyph-name="zero.slashfitted" unicode="&#xe008;" horiz-adv-x="462" 
d="M102.429 138.481l289.887 427.048c-14.2962 31.3269 -37.8647 52.4711 -79.3159 52.4711c-118.304 0 -216 -218.897 -216 -417c0 -19.9975 1.6288 -42.4141 5.42889 -62.5194zM407.084 506.791l-288.284 -425.145c16.0048 -30.0115 39.5158 -48.6455 80.1993 -48.6455
c130.802 0 211 269.326 211 428c0 12.4105 -0.847453 30.5321 -2.91575 45.7909zM509.018 650.024l-58.3946 -78.8327c11.7086 -32.7335 15.3768 -68.6368 15.3768 -102.191c0 -217.918 -100.487 -485 -273 -485c-48.8067 0 -83.329 19.0466 -107.749 48.5783
l-41.1399 -59.4243l-3.11193 -4.49501l-4.19995 3.49996l-30 25l-3.58735 2.98946l2.73769 3.78299l53.3976 73.7858c-14.0471 37.0106 -19.3471 79.9235 -19.3471 127.283c0 224.435 117.862 461 277 461c50.6341 0 86.5905 -20.3459 108.896 -49.3567l42.9909 62.1996
l2.89576 4.18961l4.13556 -2.97243l32 -23l4.11876 -2.96036z" />
    <glyph glyph-name="zero.taboldstyle" unicode="&#xf643;" horiz-adv-x="487" 
d="M207 -16h-1c-91.0015 0 -171 72.7299 -171 200c0 141.426 95.8513 314 253 314c85.9668 0 172 -72.5914 172 -201c0 -143.431 -94.8955 -313 -253 -313zM215 33h1c116.365 0 188 146.93 188 261c0 93.3866 -48.5501 156 -124 156c-119.341 0 -189 -148.866 -189 -263
c0 -92.3668 47.4989 -154 124 -154z" />
    <glyph glyph-name="one.taboldstyle" unicode="&#xf644;" horiz-adv-x="487" 
d="M366.912 483.066l-92 -484l-0.772934 -4.0663h-4.13911h-44h-6.04485l1.13354 5.93761l82.4631 431.95l-187.728 -73.5429l-5.92639 -2.32168l-0.852378 6.30759l-5 37l-0.526113 3.89324l3.65825 1.43224l212 83l0.878932 0.34411h0.943893h41h6.03994z" />
    <glyph glyph-name="two.taboldstyle" unicode="&#xf645;" horiz-adv-x="487" 
d="M406.921 38.1167l-7 -39l-0.738891 -4.11668h-4.18246h-369h-6.01094l1.09453 5.91045l5 27l0.373903 2.01908l1.68504 1.17351l111.995 77.9968c159.146 111.102 213.862 174.944 213.862 247.9c0 66.1039 -43.1773 96 -95 96
c-52.0892 0 -99.2271 -31.1607 -123.226 -47.1603l-4.2702 -2.8468l-2.73447 4.34298l-17 27l-2.36119 3.75013l3.43939 2.79451c32.4432 26.3601 86.4869 60.1194 156.153 60.1194c76.2822 0 142 -49.117 142 -143c0 -90.0399 -68.2939 -161.21 -229.1 -275.073
l-55.3503 -39.4162c19.9458 0.524507 37.8732 0.488986 52.45 0.488986h223h5.97734z" />
    <glyph glyph-name="three.taboldstyle" unicode="&#xf646;" horiz-adv-x="487" 
d="M168.801 235c87.4632 6.9573 187.199 55.5046 187.199 141c0 48.4305 -37.4658 74 -92 74c-47.8281 0 -85.9759 -16.6078 -109.481 -30.3189l-4.73307 -2.76096l-2.3172 4.96543l-14 30l-1.81635 3.89217l3.57376 2.38251
c27.8803 18.5868 81.5701 39.8397 139.774 39.8397c65.5643 0 138 -38.3305 138 -123c0 -75.4782 -58.9454 -128.495 -130.335 -153.312c65.9132 -17.0269 114.335 -63.2172 114.335 -134.688c0 -133.125 -133.766 -199 -246 -199
c-53.6634 0 -103.132 10.8614 -126.544 24.6954l-3.56591 2.10713l1.40679 3.89572l13 36l1.94052 5.37375l5.06901 -2.63589c23.8992 -12.4276 66.4598 -21.4361 102.693 -21.4361c113.6 0 195 59.8752 195 145c0 71.3053 -60.4835 108 -130 108
c-25.8765 0 -44.6588 -0.994342 -61.4158 -2.96575l-6.55192 -0.770814l1.0289 6.51638l6 38l0.54317 3.44008l3.41506 0.683013c5.63104 1.12621 10.7896 1.0971 15.782 1.0971z" />
    <glyph glyph-name="four.taboldstyle" unicode="&#xf647;" horiz-adv-x="487" 
d="M335.118 57l-32.2108 -164.958l-0.789221 -4.04177h-4.1181h-42h-6.03559l1.12288 5.93022l30.8771 163.07h-267.964h-6.21198l1.32748 6.06848l7 32l0.279438 1.27743l0.869052 0.977069l354 398l1.49162 1.67702h2.24439h37h6.02273l-1.10809 -5.91992
l-71.8919 -384.08h87.9773h6.09902l-1.19612 -5.98058l-8 -40l-0.803884 -4.01942h-4.09902h-89.8819zM290.871 107l45.223 234.963c4.55368 22.7684 9.54853 47.4326 14.1869 66.9467c-17.6544 -25.6312 -34.7901 -47.3005 -51.3761 -68.0329l-0.093968 -0.11746
l-0.100859 -0.111599l-211.163 -233.647h203.324z" />
    <glyph glyph-name="five.taboldstyle" unicode="&#xf648;" horiz-adv-x="487" 
d="M30.2321 -86.4943l12 38l1.64585 5.21187l5.04514 -2.10214c23.1822 -9.65927 61.8191 -17.6154 96.0769 -17.6154c106.458 0 194 58.7125 194 157c0 32.7564 -11.4722 59.4011 -32.4954 80.4243c-42.8658 40.9607 -127.27 45.5738 -196 38.6012l-7.57909 -0.768893
l2.3098 7.25938l84 264l1.10854 3.48398h3.65609h246h7.04741l-2.32811 -6.65175l-14 -40l-1.17189 -3.34825h-3.54741h-200.371l-56.587 -173.533c65.5296 3.46233 137.66 -11.0975 182.462 -55.8989c28.9365 -27.903 44.4966 -65.386 44.4966 -109.568
c0 -128.635 -117.283 -210 -251 -210c-46.7984 0 -93.0309 10.9866 -112.031 19.4309l-4.08256 1.81447z" />
    <glyph glyph-name="six.taboldstyle" unicode="&#xf649;" horiz-adv-x="487" 
d="M227 33h1c81.6958 0 162 82.347 162 187c0 78.512 -49.7105 122 -112 122c-73.0097 0 -122.431 -39.7701 -148.713 -83.5725l-0.11669 -0.194484l-0.133819 -0.18312c-18.224 -24.9381 -23.037 -50.637 -23.037 -78.0499c0 -88.2393 47.4022 -147 121 -147z
M468.971 598.537l4 -37l0.53729 -4.96993l-4.96981 -0.538396c-119.019 -12.8937 -196.797 -56.3582 -249.022 -108.583c-41.1491 -40.2918 -67.7032 -80.7605 -84.9633 -122.434c35.8851 35.5682 88.2053 64.988 157.446 64.988c79.573 0 155 -60.2153 155 -163
c0 -133.492 -102.94 -243 -227 -243c-89.8353 0 -170 63.7585 -170 204c0 75.3007 34.3014 197.386 123.501 285.572c68.7187 66.6975 159.9 118.31 290.074 129.41l4.87046 0.415311z" />
    <glyph glyph-name="seven.taboldstyle" unicode="&#xf64a;" horiz-adv-x="487" 
d="M454.914 481.079l-6 -32l-0.121382 -0.64737l-0.284889 -0.593852c-71.3355 -148.699 -242.359 -400.666 -372.657 -558.026l-2.077 -2.50838l-3.13392 0.885674l-46 13l-7.67355 2.16861l5.29451 5.96275c101.378 114.173 303.057 401.162 363.273 527.68h-286.534
h-5.80594l0.861255 5.7417l6 40l0.638745 4.2583h4.30594h345h6.02463z" />
    <glyph glyph-name="eight.taboldstyle" unicode="&#xf64b;" horiz-adv-x="487" 
d="M299 605h1c91.23 0 158 -60.8651 158 -141c0 -71.2508 -53.1781 -114.197 -128.202 -153.114c68.6545 -38.5845 107.202 -87.4207 107.202 -149.886c0 -110.865 -109.408 -177 -212 -177c-109.867 0 -188 62.6768 -188 160c0 87.0674 80.3291 139.418 157.711 175.261
c-52.7446 29.2672 -83.7115 71.8592 -83.7115 124.739c0 92.4994 87.0134 161 188 161zM290 558h-1c-64.2968 0 -123 -38.6178 -123 -105c0 -55.4865 43.3248 -90.1784 112.905 -117.594c71.2229 30.9266 123.095 67.6435 123.095 128.594c0 47.2575 -33.4215 94 -112 94z
M224 32h1c87.1991 0 155 55.6852 155 123c0 62.4714 -48.3052 102.22 -135.107 139.606c-71.5747 -27.616 -150.893 -75.3225 -150.893 -152.606c0 -65.6486 53.902 -110 130 -110z" />
    <glyph glyph-name="nine.taboldstyle" unicode="&#xf64c;" horiz-adv-x="487" 
d="M219 138h1c59.7968 0 121.657 40.9646 155.839 90.7732c10.2455 15.8339 19.161 44.1431 19.161 76.2268c0 99.77 -54.8098 145 -123 145c-83.5858 0 -160 -84.2076 -160 -187c0 -82.7234 48.8977 -125 107 -125zM41.0427 -109.652l-5 38l-0.692299 5.26147
l5.29334 0.378095c27.8704 1.99074 53.6359 4.97285 76.3127 9.90259c152.444 32.5338 222.105 127.054 256.084 218.729c-35.3346 -38.0336 -95.3938 -71.619 -161.041 -71.619c-89.7055 0 -156 63.4988 -156 164c0 129.527 103.921 243 230 243
c93.2111 0 165 -74.0388 165 -201c0 -167.818 -97.4209 -361.452 -341.08 -403.915c-20.0471 -4.00942 -41.5032 -7.08491 -63.9196 -7.08491h-4.3852z" />
    <glyph glyph-name="dollar.taboldstyle" unicode="&#xf653;" horiz-adv-x="487" 
d="M206 -82h-35h-5.99106l1.07171 5.89443l12.9659 71.3127c-48.5861 2.60697 -94.0383 20.7866 -121.023 40.7751l-3.84944 2.85144l2.68416 3.96789l23 34l3.11273 4.60142l4.24937 -3.57841c17.8952 -15.0696 58.9551 -33.8246 110.779 -33.8246
c72.9422 0 133 38.3129 133 92c0 30.3618 -15.5561 61.6423 -95.9351 94.3893c-81.6259 35.2705 -111.065 70.88 -111.065 120.611c0 75.1485 75.2409 127.306 153.844 132.761l15.251 77.208l0.79626 4.03107h4.10896h35h6.02463l-1.11027 -5.92144l-14.0264 -74.8075
c41.6234 -6.03609 78.1103 -22.2652 99.258 -39.3848l3.46738 -2.80693l-2.39507 -3.76367l-21 -33l-2.81213 -4.41907l-4.28364 3.01441c-26.2834 18.4957 -62.3504 33.089 -102.123 33.089c-68.5557 0 -112 -35.8359 -112 -81
c0 -35.0172 14.7496 -51.3134 92.9495 -83.3954c71.7429 -31.3244 112.051 -73.6528 112.051 -127.605c0 -88.5617 -78.9787 -140.996 -162.76 -148.679l-13.3187 -74.2044l-0.738891 -4.11668h-4.18246z" />
    <glyph glyph-name="cent.taboldstyle" unicode="&#xf654;" horiz-adv-x="487" 
d="M345.818 117.338l10 -36l1.10234 -3.96842l-3.68386 -1.84193c-20.0189 -10.0094 -59.8209 -25.375 -106.016 -29.2413l-12.3019 -67.1871l-0.750609 -4.09948h-4.16763h-35h-6.06587l1.15779 5.95435l12.9741 66.7239
c-84.0018 11.4846 -140.066 71.5895 -140.066 153.322c0 120.928 92.0862 228.586 214.729 246.459l11.3518 62.4349l0.746468 4.10557h4.17288h35h6.00757l-1.09066 -5.90774l-10.979 -59.4696c40.5025 -3.39184 74.9353 -19.53 92.9896 -32.5692l3.82197 -2.76031
l-2.53111 -3.97746l-21 -33l-2.84692 -4.47373l-4.29884 3.10472c-17.1852 12.4116 -48.3292 26.0534 -84.0725 26.0534c-108.884 0 -186 -94.4337 -186 -192c0 -70.3637 42.3455 -114 121 -114c38.9086 0 73.1626 12.6714 98.7639 25.4721l5.42909 2.71454z" />
    <glyph glyph-name="Euro.taboldstyle" unicode="&#xf64e;" horiz-adv-x="487" 
d="M408.808 61.3736l10 -35l0.976373 -3.4173l-2.90653 -2.04533c-28.2473 -19.8777 -83.0433 -36.911 -148.877 -36.911c-113.494 0 -193.253 82.1321 -197.869 197h-46.1309h-6.03464l1.12179 5.92946l7 37l0.770102 4.07054h4.14275h41.7651
c2.60733 15.5775 5.44919 31.3929 8.87801 46h-40.6431h-6.06587l1.15779 5.95435l7 36l0.786654 4.04565h4.12142h47.5887c47.6622 119.493 149.375 197 274.411 197c55.9291 0 93.8773 -15.3305 118.381 -28.6035l4.16005 -2.25336l-2.02023 -4.27813l-17 -36
l-2.25636 -4.77817l-4.6463 2.51675c-23.4035 12.6769 -56.5844 24.3965 -97.6186 24.3965c-98.341 0 -176.721 -61.4157 -217.269 -148h255.269h6.06587l-1.15779 -5.95435l-7 -36l-0.786654 -4.04565h-4.12142h-263.305c-4.81479 -16.2705 -7.23191 -31.0385 -8.37093 -46
h261.676h6.03464l-1.12179 -5.92946l-7 -37l-0.770102 -4.07054h-4.14275h-256.621c7.82979 -91.2482 63.1834 -148 156.621 -148c43.7706 0 97.4432 17.9359 118.316 31.2183l5.65165 3.59651z" />
    <glyph glyph-name="florin.taboldstyle" unicode="&#xf64f;" horiz-adv-x="507" 
d="M522.622 588.205l-1.88281 -4.23535l-16 -36l-1.95508 -4.40039l-4.4707 1.78809c-14.875 5.9502 -25.8467 9.64258 -45.1426 9.64258c-75.9516 0 -114.264 -64.2197 -140.114 -165.192l-12.9074 -50.8076h122.021h5.7207l-0.765625 -5.66992l-5 -37l-0.585938 -4.33008
h-4.36914h-128.866l-47.6451 -185.873c-34.1649 -134.464 -87.9612 -217.127 -188.489 -217.127c-26.8232 0 -53.5166 6.96875 -67.8467 16.8887l-3.32422 2.30176l1.55566 3.73242l15 36l2.20605 5.29492l4.94434 -2.9082
c16.0088 -9.41699 32.9736 -12.3096 51.4648 -12.3096c47.4027 0 94.9064 40.0439 125.826 160.906l49.1298 193.094h-91.6812h-5.76132l0.619161 5.53711l4.13716 37l0.498965 4.46289h4.6432h99.3546l12.4923 50.1699c26.9411 108.199 82.7271 215.83 203.741 215.83
c23.0342 0 45.6074 -7.1875 59.3701 -14.5977z" />
    <glyph glyph-name="sterling.taboldstyle" unicode="&#xf651;" horiz-adv-x="487" 
d="M431.569 485.969l-16 -36l-2.32148 -5.22333l-4.86806 2.99573c-12.1388 7.47005 -41.4657 19.2583 -77.3795 19.2583c-82.1623 0 -134.964 -68.0459 -131 -192.921v-9.07935h147h5.87613l-0.940598 -5.80036l-6 -37l-0.681023 -4.19964h-4.2545h-138.761
c2.59233 -70.5302 -16.5531 -130.424 -72.8238 -175h273.585h5.85142l-0.912602 -5.77981l-6 -38l-0.666345 -4.22019h-4.27247h-371h-5.9023l0.970332 5.82199l5 30l0.450945 2.70567l2.5242 1.07351c84.4756 35.9264 123.314 89.733 118.264 183.399h-83.3076h-5.87613
l0.940598 5.80036l6 37l0.681023 4.19964h4.2545h74v3.94566c-3.02974 139.368 65.3036 248.054 196 248.054c42.1614 0 73.0668 -14.3955 89.65 -24.76l3.68298 -2.30186z" />
    <glyph glyph-name="yen.taboldstyle" unicode="&#xf652;" horiz-adv-x="487" 
d="M220 -5h-44h-6.08914l1.18468 5.97278l22.8153 115.027h-140.911h-6.06587l1.15779 5.95435l7 36l0.786654 4.04565h4.12142h141.85l10.125 54h-140.975h-6.06587l1.15779 5.95435l7 36l0.786654 4.04565h4.12142h123.575l-96.2086 237.12l-2.79141 6.87985h7.42457h48
h3.44845l1.22528 -3.22343l65.0267 -171.07c7.9746 -23.0377 15.702 -44.5745 20.9332 -60.5657c14.5251 20.31 31.8416 42.7255 49.4575 64.977l135.011 168.014l1.50111 1.86804h2.39644h53h10.6304l-6.77899 -8.18848l-195.221 -235.812h117.37h6.06587
l-1.15779 -5.95435l-7 -36l-0.786654 -4.04565h-4.12142h-143.85l-10.125 -54h140.975h6.06587l-1.15779 -5.95435l-7 -36l-0.786654 -4.04565h-4.12142h-142.827l-21.2535 -116.894l-0.746468 -4.10557h-4.17288z" />
    <glyph glyph-name="numbersign.taboldstyle" unicode="&#xf650;" horiz-adv-x="487" 
d="M191.767 225h81.5387l47.9277 156h-81.5387zM117 -5h-40h-6.7698l1.9909 6.47043l54.0091 175.53h-76.2302h-6.00518l1.08791 5.90581l7 38l0.754192 4.09419h4.16307h84.3055l47.9277 156h-81.2332h-6.03464l1.12179 5.92946l7 37l0.770102 4.07054h4.14275h88.3376
l54.8953 173.508l1.10474 3.49177h3.66236h39h6.7895l-2.01471 -6.48369l-52.9853 -170.516h82.5283l53.9074 173.484l1.09264 3.51631h3.68216h39h6.7895l-2.01471 -6.48369l-52.9853 -170.516h76.2105h5.87613l-0.940598 -5.80036l-6 -37l-0.681023 -4.19964h-4.2545
h-84.3055l-47.9277 -156h82.2332h6.00518l-1.08791 -5.90581l-7 -38l-0.754192 -4.09419h-4.16307h-89.3265l-55.9021 -178.494l-1.09792 -3.50564h-3.67355h-40h-6.80541l2.03395 6.49436l54.9661 175.506h-82.5017l-54.914 -178.47l-1.08602 -3.52957h-3.69287z" />
    <glyph glyph-name="zero.superior" unicode="&#x2070;" horiz-adv-x="297" 
d="M189 395h-1c-75.0679 0 -102 61.3138 -102 139c0 138.704 73.1959 274 176 274c78.0847 0 101 -65.2575 101 -126c0 -136.265 -64.8493 -287 -174 -287zM194 437h1c70.8162 0 118 150.386 118 239c0 33.8132 -6.40218 89 -55 89c-65.3292 0 -121 -121.93 -121 -233
c0 -43.5392 10.2474 -95 57 -95z" />
    <glyph glyph-name="one.superior" unicode="&#xb9;" horiz-adv-x="200" 
d="M172 401h-39h-6.04793l1.1371 5.94007l65.3307 341.28l-61.2368 -29.7179l-6.07979 -2.95049l-1.04326 6.67688l-5 32l-0.575255 3.68163l3.36361 1.60358l86 41l1.02082 0.486668h1.13089h35h6.03793l-1.12558 -5.93209l-74 -390l-0.77186 -4.06791h-4.14049z" />
    <glyph glyph-name="two.superior" unicode="&#xb2;" horiz-adv-x="273" 
d="M287 401h-239h-5.97195l1.04981 5.87895l5 28l0.324634 1.81795l1.42839 1.17049l71.9783 58.9822c99.4142 83.3472 164.191 140.478 164.191 207.15c0 27.1977 -12.0252 57 -62 57c-31.1671 0 -63.4452 -18.3665 -78.847 -30.8806l-4.70042 -3.81909l-2.85994 5.33856
l-15 28l-1.98195 3.69965l3.30025 2.59305c28.7746 22.6087 69.6754 40.0684 110.089 40.0684c74.074 0 104 -51.9982 104 -102c0 -82.4298 -86.2885 -155.234 -180.854 -230.886l-33.4935 -27.1138h170.347h6.09902l-1.19612 -5.98058l-7 -35l-0.803884 -4.01942h-4.09902z
" />
    <glyph glyph-name="three.superior" unicode="&#xb3;" horiz-adv-x="263" 
d="M136.306 737.279l-11 30l-1.26978 3.46304l2.93395 2.23539c21.9357 16.7129 61.6081 33.0228 98.0302 33.0228c73.652 0 100 -44.6963 100 -88c0 -46.1995 -35.5618 -81.0452 -79.7237 -99.9101c39.4572 -16.4307 59.7237 -52.8846 59.7237 -92.1251
c-1.04465 -74.1703 -59.9513 -129.965 -155 -129.965c-42.0755 0 -79.8177 14.051 -96.1235 27.0957l-3.11463 2.49171l1.73731 3.59044l15 31l2.4995 5.16564l4.77479 -3.1832c14.366 -9.57734 42.4749 -23.1603 79.2265 -23.1603c67.5251 0 100 42.7796 100 86
c0 50.8235 -45.8459 70 -90 70h-22h-6.02463l1.11027 5.92144l6 32l0.764729 4.07856h4.14963h23c46.7399 0 103 32.4015 103 77c0 27.4779 -13.2326 48 -58 48c-26.5119 0 -54.643 -12.5444 -71.7991 -26.8411l-5.45211 -4.54342z" />
    <glyph glyph-name="four.superior" unicode="&#x2074;" horiz-adv-x="289" 
d="M262 401h-38h-6.02463l1.11027 5.92144l19.8897 106.079h-169.975h-6.28526l1.4133 6.1243l6 26l0.283149 1.22698l0.830529 0.946503l222 253l1.49365 1.70222h2.26463h40h6.04572l-1.13456 -5.93831l-45.8654 -240.062h50.9543h5.99106l-1.07171 -5.89443l-6 -33
l-0.746468 -4.10557h-4.17288h-53.8504l-20.2353 -107.921l-0.764729 -4.07856h-4.14963zM247.845 556l26.2455 140.948c2.40654 12.0327 5.75271 26.4495 8.00183 35.5709c-10.6943 -15.5068 -17.8565 -27.046 -29.301 -40.7794l-120.445 -135.739h115.499z" />
    <glyph glyph-name="five.superior" unicode="&#x2075;" horiz-adv-x="269" 
d="M348.903 795.019l-7 -35l-0.803884 -4.01942h-4.09902h-134.322l-30.552 -97.9461c6.12145 0.746519 8.47127 0.946101 13.874 0.946101c15.721 0 44.3605 -4.04663 67.3159 -16.5678c37.9489 -18.9745 53.6841 -58.0452 53.6841 -91.4322
c0 -100.186 -79.859 -156 -162 -156c-39.0999 0 -73.6922 13.0192 -87 23l-3.11846 2.33885l1.50749 3.59479l13 31l2.23275 5.32425l4.9507 -2.97042c14.1443 -8.4866 41.4306 -18.2875 73.4275 -18.2875c56.3272 0 105 46.9411 105 102c0 38.7254 -16.3558 74 -92 74
c-15.5408 0 -27.4077 -1.9738 -44.7064 -2.99137l-7.14881 -0.420519l2.06829 6.85599l54 179l1.07273 3.5559h3.71419h172h6.09902z" />
    <glyph glyph-name="six.superior" unicode="&#x2076;" horiz-adv-x="297" 
d="M355.932 802.178l-6 -36l-0.696334 -4.17801h-4.23564c-10.7171 0 -25.2706 -0.971534 -40.8174 -4.85824c-67.2079 -15.9176 -118.732 -62.1196 -147.82 -129.086c26.4748 25.3555 59.4374 39.944 91.6374 39.944c69.2312 0 103 -51.1617 103 -112
c0 -78.2948 -63.628 -161 -150 -161c-77.2765 0 -115 55.3347 -115 132c0 94.82 52.758 178.992 102.819 219.857c30.4767 25.3972 65.2994 43.8442 106.06 53.0154c17.2102 4.04946 36.5256 7.10288 55.8586 8.12041l6.21849 0.327289zM204 437h1
c51.1557 0 94 56.7883 94 117c0 47.8398 -23.7315 71 -64 71c-32.8087 0 -67.4024 -21.6834 -89.7956 -57.7073c-3.74667 -5.62001 -6.38031 -11.8794 -7.25466 -17.9998c-0.956823 -6.69776 -1.94975 -18.5991 -1.94975 -29.2929c0 -49.4543 23.4975 -83 68 -83z" />
    <glyph glyph-name="seven.superior" unicode="&#x2077;" horiz-adv-x="261" 
d="M126 801h232h5.9023l-0.970332 -5.82199l-5 -30l-0.166977 -1.00186l-0.544642 -0.857307c-54.0388 -85.061 -167.031 -258.049 -235.06 -360.092l-1.48433 -2.2265h-2.67592h-45h-9.36704l5.21283 7.78254c69.3826 103.585 169.633 257.777 230.128 348.217h-178.974
h-5.95961l1.03569 5.86893l6 34l0.729013 4.13107h4.1949z" />
    <glyph glyph-name="eight.superior" unicode="&#x2078;" horiz-adv-x="298" 
d="M260 808h1c57.091 0 102 -35.847 102 -93c0 -46.1407 -29.5918 -80.9268 -74.1301 -103.793c40.8473 -24.7808 55.1301 -59.7493 55.1301 -94.2067c0 -79.705 -72.3542 -122 -140 -122c-75.9146 0 -123 42.7401 -123 102c0 60.417 43.2336 100.054 90.494 119.982
c-29.2535 22.347 -40.494 49.2253 -40.494 77.0175c0 65.2999 57.8573 114 129 114zM205 436h1c48.8735 0 86 31.2144 86 77c0 39.3189 -20.3697 62.9698 -73.2017 79.8278c-44.0518 -10.2879 -86.7983 -39.8499 -86.7983 -91.8278c0 -31.4479 22.713 -65 73 -65zM253 767
h-1c-40.206 0 -72 -33.819 -72 -70c0 -29.3676 16.6404 -50.9717 59.0721 -64.7823c41.8936 12.2503 72.9279 39.5388 72.9279 77.7823c0 24.5484 -10.4971 57 -59 57z" />
    <glyph glyph-name="nine.superior" unicode="&#x2079;" horiz-adv-x="290" 
d="M221.771 484.82c23.8443 21.2895 46.7186 50.6984 64.7132 90.7395c-27.4428 -24.9753 -58.3758 -36.5593 -87.4841 -36.5593c-71.4887 0 -101 57.3107 -101 107c0 82.333 65.6788 162 149 162c77.6229 0 109 -60.652 109 -127
c0 -103.948 -61.7832 -193.987 -106.776 -231.821c-32.7208 -27.6082 -72.5917 -44.9827 -111.4 -51.1103c-17.2408 -3.0425 -33.6794 -4.09416 -47.2079 -3.0535l-5.32099 0.409307l0.754725 5.28307l5 35l0.61327 4.29289h4.33648
c10.6423 0 24.6538 0.998083 39.2445 2.94352c27.8174 4.7961 57.0831 18.3217 86.5263 41.8763zM243 765h-1c-48.3061 0 -93 -52.9539 -93 -115c0 -36.2259 19.337 -67 61 -67c33.9309 0 63.5133 19.768 83.8604 49.8042l0.11129 0.164285l0.123959 0.154949
c3.78979 4.73723 6.15796 8.81202 6.98563 13.778c2.01899 10.095 4.91872 25.7241 4.91872 39.0985c0 46.7768 -18.6497 79 -63 79z" />
    <glyph glyph-name="period.superior" unicode="&#xf6e8;" horiz-adv-x="120" 
d="M106 395h-1c-20.0884 0 -34 16.6781 -34 36c0 22.2902 15.0312 40 38 40c21.0405 0 34 -15.9132 34 -37c0 -21.3246 -14.9666 -39 -37 -39z" />
    <glyph glyph-name="comma.superior" unicode="&#xf6e2;" horiz-adv-x="120" 
d="M67.6017 330.036l-33 -4l-9.66884 -1.17198l4.68312 8.53981c16.7687 30.5782 45.7722 95.6388 57.5854 136l0.929197 3.17476l3.28528 0.386504l51 6l8.58509 1.01001l-3.40515 -7.94536c-21.2107 -49.4916 -59.12 -116.387 -76.5748 -140.002l-1.28053 -1.73248z" />
    <glyph glyph-name="dollar.superior" unicode="&#xf6e4;" horiz-adv-x="252" 
d="M169 350h-31h-5.98228l1.06165 5.88733l10.0037 55.4751c-27.767 2.53943 -57.1325 13.675 -74.1203 26.6658l-3.11563 2.38254l1.57209 3.59335l14 32l2.4469 5.59291l5.0012 -3.50084c19.3886 -13.572 43.2625 -24.0962 76.1327 -24.0962c43.1004 0 80 27.4875 80 69
c0 23.9242 -11.2986 46.0315 -50.1909 64.5053c-54.6771 27.3386 -80.8091 57.8308 -80.8091 98.4947c0 54.4537 47.4183 100.825 105.823 107.609l11.2742 56.3712l0.803884 4.01942h4.09902h32h6.19935l-1.31273 -6.05877l-11.7586 -54.2702
c29.4475 -2.41041 50.4857 -12.3589 60.9954 -20.7666l3.03096 -2.42477l-1.59758 -3.53751l-14 -31l-2.14077 -4.74028l-4.65215 2.32608c-12.5628 6.28142 -28.9246 18.4721 -64.7639 18.4721c-44.7373 0 -71 -28.0416 -71 -61
c0 -24.3193 11.4887 -38.6588 57.2926 -62.5565c49.8963 -25.4573 72.7074 -57.2018 72.7074 -98.4435c0 -66.1583 -48.5568 -109.124 -111.785 -118.475l-11.3095 -57.49l-0.793749 -4.03489h-4.11222z" />
    <glyph glyph-name="cent.superior" unicode="&#xf6e0;" horiz-adv-x="267" 
d="M211 391h-31h-6.04228l1.13058 5.93556l11.0388 57.9536c-33.3371 6.12231 -55.1628 20.1585 -70.151 41.1419c-16.7966 22.0456 -22.9761 50.2982 -22.9761 76.9689c0 94.5171 70.0158 170.074 152.723 181.517l10.3535 58.3564l0.732129 4.12654h4.19099h32h6.07944
l-1.17346 -5.96511l-10.8682 -55.2468c22.2085 -1.64542 45.2831 -9.30939 55.8296 -16.6919l3.44457 -2.4112l-1.78459 -3.80713l-15 -32l-2.35067 -5.01476l-4.74911 2.84946c-14.3277 8.59665 -32.2229 15.2875 -61.4275 15.2875c-53.7255 0 -116 -56.3868 -116 -139
c0 -44.8782 26.0187 -80 77 -80c28.9883 0 51.1869 8.67152 65.8856 15.5309l5.99688 2.79854l1.05376 -6.5333l5 -31l0.511836 -3.17339l-2.67454 -1.78303c-12.9069 -8.60459 -42.629 -16.8886 -70.6376 -17.7836l-11.227 -58.0063l-0.78385 -4.04989h-4.12505z" />
    <glyph glyph-name="hyphen.superior" unicode="&#xf6e6;" horiz-adv-x="183" 
d="M96 608h141h6.17186l-1.28069 -6.03752l-7 -33l-0.840526 -3.96248h-4.05064h-140h-5.99106l1.07171 5.89443l6 33l0.746468 4.10557h4.17288z" />
    <glyph glyph-name="parenleft.superior" unicode="&#x207d;" horiz-adv-x="168" 
d="M238 836h37h11.4297l-7.75782 -8.39371c-60.4394 -65.3935 -128.672 -174.248 -128.672 -318.606c0 -49.3227 9.83282 -102.555 36.5596 -161.948l3.17332 -7.05182h-7.73293h-32h-2.98243l-1.4171 2.62426c-27.3471 50.6428 -41.6005 102.649 -41.6005 169.376
c0 150.715 74.7981 262.825 130.343 322.409l1.48278 1.59062h2.17456z" />
    <glyph glyph-name="parenright.superior" unicode="&#x207e;" horiz-adv-x="168" 
d="M77 340h-37h-11.094l7.34802 8.3117c60.5721 68.5159 129.746 175.358 129.746 320.688c0 49.2526 -10.8046 101.483 -37.5465 159.919l-3.24028 7.08062h7.78682h32h2.95371l1.42548 -2.58698c27.3315 -49.6015 42.6208 -100.64 42.6208 -168.413
c0 -150.746 -75.846 -261.86 -131.287 -323.348l-1.48934 -1.65181h-2.2241z" />
    <glyph glyph-name="zero.inferior" unicode="&#x2080;" horiz-adv-x="297" 
d="M83 -156h-1c-75.1146 0 -102 62.3484 -102 140c0 138.704 73.1959 274 176 274c78.0847 0 101 -65.2575 101 -126c0 -137.254 -64.844 -288 -174 -288zM88 -113h1c70.8162 0 118 150.386 118 239c0 33.8132 -6.40218 89 -55 89c-65.3253 0 -121 -121.915 -121 -234
c0 -43.4985 10.1952 -94 57 -94z" />
    <glyph glyph-name="one.inferior" unicode="&#x2081;" horiz-adv-x="200" 
d="M66 -149h-39h-6.04793l1.1371 5.94007l65.3307 341.28l-61.2368 -29.7179l-6.07979 -2.95049l-1.04326 6.67688l-5 32l-0.575255 3.68163l3.36361 1.60358l86 41l1.02082 0.486668h1.13089h35h6.03793l-1.12558 -5.93209l-74 -390l-0.77186 -4.06791h-4.14049z" />
    <glyph glyph-name="two.inferior" unicode="&#x2082;" horiz-adv-x="273" 
d="M181 -149h-239h-5.97195l1.04981 5.87895l5 28l0.324634 1.81795l1.42839 1.17049l71.9783 58.9822c99.4142 83.3472 164.191 140.478 164.191 207.15c0 27.1977 -12.0252 57 -62 57c-31.1671 0 -63.4452 -18.3665 -78.847 -30.8806l-4.70042 -3.81909l-2.85994 5.33856
l-15 28l-1.98195 3.69965l3.30025 2.59305c28.7746 22.6087 69.6754 40.0684 110.089 40.0684c74.074 0 104 -51.9982 104 -102c0 -82.4298 -86.2885 -155.234 -180.854 -230.886l-33.4935 -27.1138h170.347h6.09902l-1.19612 -5.98058l-7 -35l-0.803884 -4.01942h-4.09902z
" />
    <glyph glyph-name="three.inferior" unicode="&#x2083;" horiz-adv-x="263" 
d="M30.3056 187.279l-11 30l-1.26978 3.46304l2.93395 2.23539c21.9357 16.7129 61.6081 33.0228 98.0302 33.0228c73.652 0 100 -44.6963 100 -88c0 -46.1995 -35.5618 -81.0452 -79.7237 -99.9101c39.4572 -16.4307 59.7237 -52.8846 59.7237 -92.1251
c-1.04465 -74.1703 -59.9513 -129.965 -155 -129.965c-41.9571 0 -79.8089 12.9512 -96.2747 27.2216l-2.89441 2.50849l1.66827 3.44776l15 31l2.4995 5.16564l4.77479 -3.1832c14.366 -9.57734 42.4749 -23.1603 79.2265 -23.1603c67.5932 0 100 41.8296 100 85
c0 51.8722 -45.8812 71 -90 71h-22h-6.02463l1.11027 5.92144l6 32l0.764729 4.07856h4.14963h23c46.7399 0 103 32.4015 103 77c0 27.4779 -13.2326 48 -58 48c-26.5119 0 -54.643 -12.5444 -71.7991 -26.8411l-5.45211 -4.54342z" />
    <glyph glyph-name="four.inferior" unicode="&#x2084;" horiz-adv-x="289" 
d="M156 -149h-38h-6.02463l1.11027 5.92144l19.8897 106.079h-169.975h-6.05315l1.14312 5.94424l5 26l0.257501 1.339l0.901612 1.02291l223 253l1.493 1.69385h2.25792h40h6.04572l-1.13456 -5.93831l-45.8654 -240.062h50.9543h5.99106l-1.07171 -5.89443l-6 -33
l-0.746468 -4.10557h-4.17288h-53.8504l-20.2353 -107.921l-0.764729 -4.07856h-4.14963zM141.845 6l26.2455 140.948c2.40654 12.0327 5.75271 26.4495 8.00183 35.5709c-10.6943 -15.5068 -17.8565 -27.046 -29.301 -40.7794l-120.445 -135.739h115.499z" />
    <glyph glyph-name="five.inferior" unicode="&#x2085;" horiz-adv-x="269" 
d="M242.903 245.019l-7 -35l-0.803884 -4.01942h-4.09902h-134.322l-30.552 -97.9461c6.12145 0.746519 8.47127 0.946101 13.874 0.946101c15.721 0 44.3605 -4.04663 67.3159 -16.5678c37.9489 -18.9745 53.6841 -58.0452 53.6841 -91.4322
c0 -100.155 -79.8112 -157 -162 -157c-39.0675 0 -73.7678 12.9647 -87.2009 24.1589l-2.83944 2.3662l1.42939 3.40854l13 31l2.23275 5.32425l4.9507 -2.97042c14.1443 -8.4866 41.4306 -18.2875 73.4275 -18.2875c56.3902 0 105 45.9859 105 101
c0 39.7684 -16.3812 75 -92 75c-15.5408 0 -27.4077 -1.9738 -44.7064 -2.99137l-7.14881 -0.420519l2.06829 6.85599l54 179l1.07273 3.5559h3.71419h172h6.09902z" />
    </font>
</defs>
</svg>
