<?xml version="1.0" standalone="no"?>
<!DOCTYPE svg PUBLIC "-//W3C//DTD SVG 1.1//EN" "http://www.w3.org/Graphics/SVG/1.1/DTD/svg11.dtd" >
<!--
2020-9-26: Created with FontForge (http://fontforge.org)
-->
<svg xmlns="http://www.w3.org/2000/svg" xmlns:xlink="http://www.w3.org/1999/xlink" version="1.1">
<metadata>
Created by FontForge 20200314 at Sun Sep 27 15:51:51 2020
 By Jochen Härtel
(c) designteam 2020
</metadata>
<defs>
<font id="Rom-Medium" horiz-adv-x="300" >
  <font-face 
    font-family="Rom"
    font-weight="500"
    font-stretch="normal"
    units-per-em="1000"
    panose-1="2 0 6 3 0 0 0 0 0 0"
    ascent="750"
    descent="-250"
    x-height="483.194"
    cap-height="674"
    bbox="-156.524 -250 1113.85 949.979"
    underline-thickness="50"
    underline-position="-100"
    unicode-range="U+0020-FB04"
  />
<missing-glyph horiz-adv-x="500" 
d="M0 0v700h500v-700h-500zM250 395l170 255h-340zM280 350l170 -255v510zM80 50h340l-170 255zM50 605v-510l170 255z" />
    <glyph glyph-name=".notdef" horiz-adv-x="500" 
d="M0 0v700h500v-700h-500zM250 395l170 255h-340zM280 350l170 -255v510zM80 50h340l-170 255zM50 605v-510l170 255z" />
    <glyph glyph-name="space" unicode=" " horiz-adv-x="213" 
 />
    <glyph glyph-name="exclam" unicode="!" horiz-adv-x="226" 
d="M144.919 190.989h-64.0108l-13.0755 483.011h90.1618zM112.913 -11c-32.9132 0 -56.0809 25.8377 -55.302 59.1998c0 34.811 22.9399 59.6487 55.7509 59.6487c33.9132 0 55.7509 -24.8377 56.0809 -59.6487c0 -33.3621 -22.1677 -59.1998 -56.5298 -59.1998z" />
    <glyph glyph-name="quotedbl" unicode="&#x22;" horiz-adv-x="331" 
d="M52.0701 685h82.5619l-16.1944 -237.081h-50.3942zM197.319 685h82.5619l-16.1944 -237.081h-50.1731z" />
    <glyph glyph-name="numbersign" unicode="#" horiz-adv-x="491" 
d="M184.843 253.481h104.832l19.2378 148.038h-105.281zM150.649 0h-57.1998l26 197.638h-82.4489v55.8431h90.6433l19.5678 148.038h-86.8978v55.5131h94.7622l26 192.968h55.5298l-25 -192.968h105.281l26 192.968h56.1998l-25.4489 -192.968h82.1189v-55.5131h-90.3133
l-18.5678 -148.038h86.2378v-55.5131h-94.7622l-25.67 -197.968h-57.5298l26 197.968h-104.502z" />
    <glyph glyph-name="dollar" unicode="$" horiz-adv-x="509" 
d="M276.919 -85.1022h-59.3942v100.578c-57.4055 0.8811 -116.6 18.8811 -151.032 44.4489l23.1944 62.443c35.1944 -24.1189 86.7188 -43.33 141.675 -43.33c72.4001 0 120.995 42.6379 120.995 101.606c0 56.189 -39.4756 91.2324 -113.476 121.589
c-101.643 40.6867 -163.6 86.4489 -163.6 172.736c0 82.6433 58.4322 144.838 148.913 159.481v101.357h59.1731v-98.3734c59.1944 -2 99.5077 -18.1189 128.151 -34.7889l-23.8644 -61.5619c-21.0922 11.67 -61.7355 34 -124.811 34
c-77.8323 0 -107.757 -47.6379 -107.757 -89.2491c0 -53.3079 37.1189 -79.6646 123.908 -116.351c101.481 -42.4489 154.168 -93.7622 154.168 -181.864c0 -78.7355 -54.0755 -152.617 -156.243 -169.049v-103.67z" />
    <glyph glyph-name="percent" unicode="%" horiz-adv-x="783" 
d="M185.124 661c89.1243 0 148.108 -68.3888 148.108 -193.67c0 -137.898 -70.5999 -205.33 -153.108 -205.33c-79.811 0 -148.438 64.4055 -149.887 195.67c0 131.73 71 203.33 154.887 203.33zM182.454 611.249c-56.0434 0 -86.4168 -66.7301 -86.4168 -149.8
c-2.1189 -84.4001 30.2545 -149.698 85.9679 -149.698c59.519 0 86.2057 64.5357 86.2057 151.368c0 80.7301 -23.3567 148.13 -85.7568 148.13zM226.611 -11h-53.4376l382.146 672h53.4376zM604.475 392c89.1243 0 147.886 -68.7188 147.886 -194
c0 -137.119 -70.2699 -204.881 -152.886 -204.881c-79.481 0 -148.438 64.4055 -149.556 195.33c0 132.07 71 203.551 154.556 203.551zM601.805 341.919c-56.0434 0 -86.6379 -66.2812 -86.6379 -149.8c-1.8978 -84.0701 31.1456 -149.249 86.189 -149.249
c59.849 0 86.2057 64.0868 86.2057 150.919c0 81.0601 -23.3567 148.13 -85.7568 148.13z" />
    <glyph glyph-name="ampersand" unicode="&#x26;" horiz-adv-x="597" 
d="M596.016 0h-97.4484c-19.6867 19.6867 -37.9245 39.3734 -64.6379 67.6379c-60.179 -55.7568 -124.638 -78.6379 -198.281 -78.6379c-127.513 0 -204.649 87.4055 -204.649 188.881c0 92.2378 55.6867 154.67 132.238 197.238v3
c-35.3567 45.1623 -56.6867 94.1623 -56.6867 141.713c0 82.2111 58.8544 165.168 168.411 165.168c82.2432 0 145.962 -55.1944 145.962 -141.6c0 -71.1189 -41.5678 -127 -149.07 -180.476l-0.33 -3.33c58.6379 -68.3246 124.962 -143.989 169.125 -193.389
c31.2378 47.6867 51.9078 112.925 65.4756 200.038h74.6374c-18 -106.238 -46.3133 -189.67 -95.5999 -248.524c35.4322 -37.6433 70.1944 -74.8377 110.854 -117.719zM249.843 51.1297c60.0868 0 110.157 26.3834 142.989 62.9024
c-39.8811 44.5678 -116.638 128.774 -192.616 217.217c-37.8223 -24.0167 -90.4869 -67.519 -90.4869 -141.2c0 -79.5357 57.9512 -138.919 140.113 -138.919zM268.513 628.606c-57.0701 0 -87.4435 -48.0601 -87.4435 -100.8c0 -49.7301 23.7034 -87.6546 52.1356 -123.444
c69.7568 39.3567 115.514 76.4001 115.514 135.038c0 42.4923 -23.8056 89.2057 -80.2057 89.2057z" />
    <glyph glyph-name="quoteright" unicode="&#x2019;" horiz-adv-x="201" 
d="M92.8811 676l85.4263 9c-22.0755 -82.2699 -65.0755 -191.092 -90.9887 -234.292l-51.9453 -6.1022c20.6266 55.9887 47.0755 160.913 57.5077 231.394z" />
    <glyph glyph-name="parenleft" unicode="(" horiz-adv-x="280" 
d="M197.325 695.017h65.1564c-74.519 -99.2545 -128.444 -228.568 -128.444 -410.136c0 -178.568 56.0434 -305.313 128.444 -405.789h-65.1564c-64.1623 83.3567 -132.189 210.67 -132.189 406.238c0.5511 196.789 68.0267 324.881 132.189 409.687z" />
    <glyph glyph-name="parenright" unicode=")" horiz-adv-x="280" 
d="M83.2052 -120.908h-64.6053c72.4001 99.4756 128.114 228.67 128.114 408.908c0 179.568 -54.5945 306.762 -128.114 407.017h64.6053c64.7134 -83.1356 132.968 -210.898 132.968 -408.017c-0.33 -196.119 -68.2545 -322.881 -132.968 -407.908z" />
    <glyph glyph-name="asterisk" unicode="*" horiz-adv-x="410" 
d="M267.6 685l57.6487 -32.481l-94.1677 -124.432v-2l150.405 18.3888v-64.5131l-150.287 17.7355v-2.7789l94.7188 -119.762l-59.9887 -34.151l-61.0167 138.6l-2 -0.33l-65.4756 -139.27l-53.8698 34.481l93.8377 121.432v2.7789l-147.405 -18.7355v64.5131
l145.627 -17.7188l0.33 2.33l-92.3888 121.762l58.3187 33.481l62.4756 -137.6h2.33z" />
    <glyph glyph-name="plus" unicode="+" horiz-adv-x="596" 
d="M267.968 532h60.5131v-236.519h227.519v-56.962h-227.519v-238.519h-60.5131v238.519h-227.968v56.962h227.968v236.519z" />
    <glyph glyph-name="comma" unicode="," horiz-adv-x="201" 
d="M76.5565 -117.476l-58.7075 -6.2111c20.9566 56.9787 47.9566 163.768 58.7188 235.13l92.5185 10c-22.4055 -83.481 -66.2866 -194.838 -92.5298 -238.919z" />
    <glyph glyph-name="hyphen" unicode="-" horiz-adv-x="304" 
d="M30 301.838h245.6v-61.2753h-245.6v61.2753z" />
    <glyph glyph-name="period" unicode="." horiz-adv-x="201" 
d="M108.649 -11c-33.3621 0 -56.5298 26.6166 -56.0809 60.1998c0 35.0321 23.7188 60.1998 56.7509 60.1998c33.3621 0 56.0809 -24.8377 56.0809 -60.1998c0 -33.5832 -22.1677 -60.1998 -56.7509 -60.1998z" />
    <glyph glyph-name="slash" unicode="/" horiz-adv-x="344" 
d="M61.3241 -40h-63.8431l284.957 725h65.4109z" />
    <glyph glyph-name="zero" unicode="0" horiz-adv-x="509" 
d="M260.362 661c133.724 0 212.768 -118.962 212.768 -329.092c0 -222.427 -82.8978 -342.908 -224.243 -342.908c-122.919 0 -210.53 115.632 -212.649 333.551c0 221.249 95.849 338.449 224.124 338.449zM255.124 597.438
c-78.7568 0 -136.844 -96.4435 -136.514 -275.557c-0.33 -170.757 53.519 -268.87 135.844 -268.87c92.1402 0 136.184 107.47 136.184 275.108c0 161.519 -41.5945 269.319 -135.514 269.319z" />
    <glyph glyph-name="one" unicode="1" horiz-adv-x="509" 
d="M236 0v573.693h-2l-111.838 -61.5678l-16.0755 62.5619l138.751 75.3133h70.3241v-650h-79.1618z" />
    <glyph glyph-name="two" unicode="2" horiz-adv-x="509" 
d="M455.8 0h-411.011v50.1564l67.5999 66.0755c168.443 161.249 244.249 246.411 244.8 346.736c0 66.9512 -31.2211 130.038 -130.097 130.038c-59.6867 0 -108.238 -30.5678 -138.33 -55.1189l-26.5999 57.2319c44.3133 38 107.481 65.8811 181.2 65.8811
c139.075 0 195.87 -97.0434 195.87 -187.151c0 -121.611 -88.0434 -219.655 -228.795 -355.763l-50.9566 -47.8811v-2h296.319v-68.2052z" />
    <glyph glyph-name="three" unicode="3" horiz-adv-x="509" 
d="M42.6867 33.33l23.0755 62.783c24.5511 -15.67 82.1944 -40.67 143.524 -40.67c115.708 0 150.351 74.708 149.8 129.514c-1.1189 94.0113 -85.2057 133.725 -171.395 133.725h-48.4977v61.7997h48.2866c65.2812 0 148.249 34.2812 148.249 113.606
c0 52.9512 -33.8978 100.47 -116.087 100.47c-51.8811 0 -101.076 -23 -129.194 -43.2378l-22.8544 59.2319c33.6433 25.33 98.481 50.4489 167.081 50.4489c127.287 0 183.979 -75.7889 183.979 -154.524c0 -66.8811 -40.8978 -124.449 -120.449 -153.119v-2
c80.1189 -15.34 145.238 -76.2378 145.238 -167.594c0 -102.838 -79.2432 -194.762 -234.649 -194.762c-71.8377 0 -134.913 22.67 -166.108 44.33z" />
    <glyph glyph-name="four" unicode="4" horiz-adv-x="509" 
d="M394.637 0h-77.2807v179.325h-302.951v53.5886l293.87 417.087h86.3616v-406.774h92.7301v-63.9019h-92.7301v-179.325zM98.2807 243.226h219.076v224.449c0 33.6433 1 67.1677 3.33 100.243l-3.33 0.4489c-20 -38.5411 -35.8811 -65.4977 -53.1944 -94.3354
l-165.552 -228.806z" />
    <glyph glyph-name="five" unicode="5" horiz-adv-x="509" 
d="M428.47 650v-68.8752h-246.864l-26.1623 -173.644c15 2.4489 29.1189 4.1189 53.7134 4.1189c49.6166 0 97.4376 -10.7622 137.411 -34.1677c50.34 -27.8644 93.9512 -84.4322 93.9512 -167.238c0 -127.357 -100.313 -221.194 -238.156 -221.194
c-70.5244 0 -129.719 20.1189 -160.362 40.2378l21.6433 62.5619c26.4322 -16.1189 79.0755 -36.6867 138.524 -36.6867c84.3079 0 155.995 56.8924 155.995 145.86c-0.67 85.189 -57.2378 146.497 -187.238 146.497c-37.5678 0 -66.8056 -3.34 -90.5678 -6.67l42.33 309.2
h305.783z" />
    <glyph glyph-name="six" unicode="6" horiz-adv-x="509" 
d="M411.589 660.119l0.7789 -67.3508c-18.4489 0.2211 -41.3567 -0.4489 -67.2545 -4.5678c-138.238 -23.3834 -212.519 -127.751 -226.502 -238.568h2.5511c30.8811 42.8223 85.4756 78.2224 158.308 78.2224c116.255 0 196.092 -84.2545 196.092 -210.211
c0 -117.957 -79.811 -228.643 -214.454 -228.643c-135.394 0 -226.421 106.124 -226.421 276.194c0 128.357 45.67 229.687 109.194 293.568c52.8377 52.1944 123.675 85.3133 203.919 96.4489c25.8811 4.1189 47.67 5.2378 63.7889 4.9078zM262.124 52.3508
c77.8757 0 130.514 64.849 130.514 160.081c0 96.4869 -55.3246 152.725 -137.395 152.725c-54.2812 0 -105.13 -33.1456 -129.725 -81.9946c-5.67 -10.4489 -9.7889 -23.1189 -9.7889 -38.5511c1.1022 -110.844 51.9512 -192.26 146.395 -192.26z" />
    <glyph glyph-name="seven" unicode="7" horiz-adv-x="509" 
d="M57.9245 650h405.443v-54.6053l-284.849 -595.395h-84.1184l282.951 580.244v2h-319.427v67.7563z" />
    <glyph glyph-name="eight" unicode="8" horiz-adv-x="509" 
d="M252.913 -11c-132.302 0 -215.108 79.8377 -215.108 175.313c0 82.5678 49.2378 140.924 129.832 175.492l-0.67 3.4489c-73.3734 33.67 -104.822 89.4589 -104.822 145.789c0 101.745 86.6166 171.957 199.546 171.957c122.989 0 186.319 -77.9566 186.319 -159.075
c0 -55 -27.2111 -114.687 -107.832 -152.595v-3.4489c82.189 -32.1456 131.383 -90.6112 131.383 -168.476c0 -112.643 -96.4322 -188.405 -218.649 -188.405zM254.675 49.8164c81.5624 0 134.411 49.9512 134.411 119.157c0 80.5457 -56.6112 119.232 -146.962 144.827
c-78.2324 -22.9245 -120.844 -74.3246 -120.844 -137.725c-3.1189 -67.3079 47.8323 -126.259 133.395 -126.259zM256.362 601.514c-75.2057 0 -116.157 -49.2812 -116.157 -106.351c0 -66.8757 50.4923 -102.681 127.038 -122.589
c57.4268 19.2645 102.038 59.7401 102.038 121.276c0 52.3834 -31.9245 107.665 -112.919 107.665z" />
    <glyph glyph-name="nine" unicode="9" horiz-adv-x="509" 
d="M97.2545 -10.1189v67.6808c18.5511 -2 40.9078 -0.33 70.9078 3.5678c50.9078 6.9078 99.3567 28.3834 137.373 64.5457c42.2211 40.9412 73.4589 98.8924 85.4589 178.244l-2.2211 -0.1189c-37.2545 -45.7301 -89.9679 -72.3246 -156.104 -72.3246
c-117.476 0 -190.957 89.6112 -190.957 199.541c0 121.534 88.1677 229.983 220.454 229.983c129.064 0 211.632 -105.794 211.632 -273.643c0 -143.476 -48.6867 -243.594 -111.881 -305.357c-48.7188 -48.0755 -116.2 -78.0755 -183.281 -86.3133
c-32.0267 -5.2378 -60.9245 -6.8056 -81.3834 -5.8056zM254.6 598.2c-77.4435 0 -131.844 -68.2057 -131.844 -162.649c0.33 -83.1135 50.6379 -141.157 128.487 -141.157c60.519 0 108.157 30.1623 132.53 71.0113c4.2211 7.5511 7.67 17.1022 7.67 31.1944
c0.33 115.081 -42.519 201.6 -136.844 201.6z" />
    <glyph glyph-name="colon" unicode=":" horiz-adv-x="201" 
d="M108.649 345.249c-33.3621 0 -56.5298 25.8377 -56.0809 59.1998c0 35.0321 23.7188 60.6487 56.7509 60.6487c33.3621 0 55.5298 -25.6166 56.0809 -60.6487c0 -33.3621 -22.1677 -59.1998 -56.7509 -59.1998zM108.649 -11
c-33.3621 0 -56.5298 26.6166 -56.0809 59.6487c0 35.0321 23.7188 60.1998 56.7509 60.1998c33.3621 0 55.5298 -24.8377 56.0809 -60.1998c0 -33.0321 -22.1677 -59.6487 -56.7509 -59.6487z" />
    <glyph glyph-name="semicolon" unicode=";" horiz-adv-x="201" 
d="M76.3354 -117.476l-58.2653 -6.2111c21.2866 56.9787 48.2866 163.768 58.7188 235.13l92.2974 10c-22.9566 -83.481 -66.5077 -194.838 -92.7509 -238.919zM116.438 345.249c-33.3621 0 -56.5298 25.8377 -55.7509 59.1998c0 35.0321 23.3888 60.6487 56.1998 60.6487
c33.5832 0 55.7509 -25.6166 56.0809 -60.6487c0 -33.3621 -22.1677 -59.1998 -56.5298 -59.1998z" />
    <glyph glyph-name="less" unicode="&#x3c;" horiz-adv-x="596" 
d="M66.5945 240.519v51.4109l462.811 240.07v-65.6053l-393.681 -199.395v-2l393.681 -199.276v-65.7242z" />
    <glyph glyph-name="equal" unicode="=" horiz-adv-x="596" 
d="M556 338.281h-516v57.292h516v-57.292zM556 142.995h-516v56.962h516v-56.962z" />
    <glyph glyph-name="greater" unicode="&#x3e;" horiz-adv-x="596" 
d="M529.405 292.811v-53.1731l-462.811 -239.638v65.7242l396.325 199.276v2l-396.325 199.725v65.2753z" />
    <glyph glyph-name="question" unicode="?" horiz-adv-x="401" 
d="M214.654 188.319h-72.6374l-2.8978 26c-6.5678 54.2378 12.33 113.713 62.2378 174.519c46.2812 54.849 70.8323 93.8757 70.8323 140.038c0 52.519 -32.2645 87.6813 -96.9946 88.2324c-36.1189 0 -76.1189 -11.2211 -101.119 -30.67l-23.2866 58.2319
c33.99 24.5678 89.9733 40.33 141.335 40.33c113.032 0 164.887 -70.8811 164.887 -146.405c0 -66.6266 -37.7355 -115.957 -86.7789 -173.908c-44.5945 -53.6112 -60.5945 -98.4168 -57.0267 -149.773zM176.005 -11c-33.3621 0 -56.5298 26.6166 -56.0809 59.6487
c0 35.0321 23.7188 59.8698 56.7509 59.8698c33.811 0 55.7509 -24.8377 56.0809 -59.8698c0 -33.0321 -21.7188 -59.6487 -56.7509 -59.6487z" />
    <glyph glyph-name="at" unicode="@" horiz-adv-x="733" 
d="M448.806 255.357l21.8056 114.638c-10.8978 3.4489 -27.9245 8.0167 -52.0868 8.0167c-90.3246 0 -163.081 -85.4168 -163.081 -184.293c0 -44.8056 22.8056 -77.2812 67.6379 -77.2812c59.7568 0 114.157 77.0113 125.725 138.919zM506.243 -21.7134l15.4322 -42.0488
c-54.6433 -28.67 -110.881 -40.2378 -177.194 -40.2378c-164.33 0 -302.406 119.67 -302.406 312.211c0 205.34 142.194 383.789 364.406 383.789c174.211 0 289.389 -122.449 289.389 -288.551c0 -150.687 -84.1189 -238 -176.389 -238
c-39.0755 0 -76.3133 26.34 -73.1677 88.7134h-3.67c-35.6867 -59.9245 -81.8056 -88.7134 -142.281 -88.7134c-57.5244 0 -107.643 46.8811 -107.643 124.864c0 124.568 98.9245 238.136 237.119 238.136c42.8811 0 80.1677 -8.8811 106.168 -20.7622l-34.2378 -180.762
c-15.3567 -77.9679 -3.4489 -113.892 30.3567 -114.113c51.9245 -1.7789 109.162 67.9512 109.162 183.621c0 146.73 -87.2378 250.638 -242.687 250.638c-164.043 0 -301.281 -129.713 -301.281 -333.876c0 -166.551 109.568 -270.594 257.119 -270.594
c57.8056 0 111.136 12.1189 151.806 35.6867z" />
    <glyph glyph-name="A" unicode="A" horiz-adv-x="607" 
d="M424.925 215.844h-243.319l-71.8757 -215.844h-83.8051l231.444 674h95.6749l232.206 -674h-86.1184zM198.919 279.524h208.363l-68.8924 198.676c-14.7889 44.3567 -24.67 83.6433 -34.67 122.194h-2c-10 -39.2211 -20.67 -79.5077 -33.7889 -121.075z" />
    <glyph glyph-name="B" unicode="B" horiz-adv-x="536" 
d="M77.0434 1.5511v663.449c37.8811 8.4489 96.1243 14 154.826 14c86.9733 0 142.524 -15.0267 184.049 -49.7134c33.7188 -26.5678 53.8865 -66.0922 53.8865 -117.719c0 -65.8056 -44.3734 -123.254 -114.238 -148.687v-2
c62.7188 -15.3133 139.357 -67.5077 139.357 -169.687c0 -57.3133 -22.1944 -101.406 -56.4977 -133.627c-45.9833 -44.0167 -121.627 -63.4489 -229.183 -63.4489c-59.0488 0 -103.886 4.33 -132.2 7.4322zM157.637 610.081v-222.719h82.698
c91.9345 0 147.097 49.4001 147.097 116.249c0 80.9024 -60.9779 112.589 -151.065 112.589c-40.9245 0 -64.6112 -2.67 -78.7301 -6.1189zM157.637 325.562v-263.644c18.0167 -3.1189 43.0434 -4.1189 74.849 -4.1189c92.2057 0 177.2 33.8056 177.2 134.487
c0 93.6646 -80.7568 133.276 -177.844 133.276h-74.2057z" />
    <glyph glyph-name="C" unicode="C" horiz-adv-x="577" 
d="M528.405 86.5619l16.8644 -64.3241c-31.9078 -16.5678 -96.3567 -32.2378 -178.027 -32.2378c-185.8 0 -330.345 117.438 -330.345 341.238c0 209.692 140.345 353.762 349.702 353.762c83.9078 0 137.211 -18.1189 159.973 -30l-20.7355 -65.9941
c-33.1189 15.7889 -80.0267 27.7889 -136.476 27.7889c-161.844 0 -267.557 -103.681 -267.557 -283.363c0 -167.47 96.849 -275.227 262.751 -275.227c54.2545 0 108.492 11.1189 143.849 28.3567z" />
    <glyph glyph-name="D" unicode="D" horiz-adv-x="662" 
d="M77.0434 1.5511v663.449c52.4322 8.33 115.168 14 182.794 14c124.432 0 214.568 -29.8056 273.211 -85.6112c58.9566 -54.7889 93.3621 -132.102 93.3621 -239.94c0 -108.362 -33.1677 -198.362 -95.5999 -261.287
c-62.9733 -63.2378 -166.617 -98.0434 -297.168 -98.0434c-60.811 0 -112.124 2.4322 -156.6 7.4322zM157.967 605.319v-541.087c23.0434 -3.67 56.2057 -4.34 90.8269 -4.34c190.887 -0.33 292.6 106.021 292.6 290.227c1 161.087 -89.9245 263.989 -278.389 263.989
c-46.1623 0 -81.3246 -4.1189 -105.038 -8.7889z" />
    <glyph glyph-name="E" unicode="E" horiz-adv-x="487" 
d="M420.919 385.794v-66.8752h-262.951v-251.493h293.849v-67.4263h-374.773v674h359.324v-67.4263h-278.4v-220.779h262.951z" />
    <glyph glyph-name="F" unicode="F" horiz-adv-x="482" 
d="M77.0434 0v674h358.113v-67.4263h-277.189v-231.212h255.832v-67.2052h-255.832v-308.157h-80.924z" />
    <glyph glyph-name="G" unicode="G" horiz-adv-x="642" 
d="M585.486 350.962v-320.632c-38.0755 -14.66 -114.243 -37.33 -205.362 -37.33c-100.124 0 -183.887 25.6433 -250.124 89.33c-57.3133 55.4322 -93.4322 145.102 -93.1022 250.908c0.2211 198.675 135.659 347.762 362.015 347.762
c77.4055 0 138.379 -17.4489 166.692 -30.8811l-20.2866 -66.3241c-35.8811 16.4489 -80.8811 29 -148.076 29c-167.276 0 -275.438 -104.47 -275.438 -275.795c0 -173.589 104.07 -276.676 264.887 -276.676c58.5457 0 98.708 8.2378 119.632 18.9245v206.719h-140.038
v64.9941h219.2z" />
    <glyph glyph-name="H" unicode="H" horiz-adv-x="648" 
d="M77.0434 674h80.924v-284.325h333.119v284.325h81.1451v-674h-81.1451v319.157h-333.119v-319.157h-80.924v674z" />
    <glyph glyph-name="I" unicode="I" horiz-adv-x="234" 
d="M77.0434 674h80.924v-674h-80.924v674z" />
    <glyph glyph-name="J" unicode="J" horiz-adv-x="365" 
d="M215.07 228.692v445.308h81.3729v-452.665c0 -178.168 -87.3133 -232.335 -200.724 -232.335c-31.7622 0 -70.2866 7.1189 -91.3621 16l12.3133 65.8752c18.2111 -6.67 44.0922 -13.1189 73.5411 -13.1189c78.9512 0 124.859 36.2545 124.859 170.936z" />
    <glyph glyph-name="K" unicode="K" horiz-adv-x="535" 
d="M77.0434 0v674h80.594v-327.232h3.4489c17.7889 26 36.3567 49.5511 53.4756 71.4322l210.914 255.8h100.524l-245.876 -286.33l265.8 -387.67h-96.3295l-227.033 334.514l-64.9245 -74.2378v-260.276h-80.594z" />
    <glyph glyph-name="L" unicode="L" horiz-adv-x="467" 
d="M77.0434 0v674h80.924v-605.914h290.206v-68.0863h-371.13z" />
    <glyph glyph-name="M" unicode="M" horiz-adv-x="799" 
d="M662.4 0l-17.0267 299.844c-5.5678 94.8323 -12.1356 210.13 -11.1356 291.502h-3c-23.1189 -77.2966 -51.1189 -160.913 -85.5945 -254.416l-122.395 -333.406h-60.7563l-113.504 326.719c-32.7134 96.519 -59.6212 182.476 -78.7401 261.102h-2.4489
c-1.8811 -83.0755 -6.5511 -195.891 -13.1189 -298.859l-18.3567 -292.487h-77.3996l47.2378 674h102.692l119.557 -335.682c28.0267 -83.0267 50.8156 -156.313 68.7134 -225.719h2.5511c17.7789 66.9566 41.4489 140.335 71.9245 225.6l124.557 335.801h102.929
l42.8056 -674h-79.4918z" />
    <glyph glyph-name="N" unicode="N" horiz-adv-x="654" 
d="M153.113 0h-76.0696v674h87.405l223.238 -349.427c50.1456 -79.9245 89.1456 -149.643 121.264 -218.168l2 0.67c-7.5511 90.4489 -9.4322 171.854 -9.4322 276.643v290.282h76.8485v-674h-81.5673l-220.763 349.265c-47.0267 76.0167 -92.4756 152.303 -126.595 224.498
l-2.5511 -1c5 -84.7622 6.2211 -164.811 6.2211 -276.481v-296.282z" />
    <glyph glyph-name="O" unicode="O" horiz-adv-x="685" 
d="M347.27 685c182.005 0 301.811 -139.6 301.811 -341c0 -232.713 -141.476 -355 -310.913 -355c-176.573 0 -301.27 137.168 -301.27 341.881c0 214.832 132.01 354.119 310.372 354.119zM344.049 618.676c-148.86 0 -221.693 -136.725 -221.693 -285.795
c0 -145.281 79.519 -277.557 220.574 -277.557c141.606 0 220.914 129.47 220.914 284.795c0 135.281 -71.2812 278.557 -219.795 278.557z" />
    <glyph glyph-name="P" unicode="P" horiz-adv-x="526" 
d="M77.0434 0v665.67c41.3133 7.7789 95.151 13.33 163.605 13.33c84.6266 0 147.719 -19.67 187.362 -56.1189c35.7455 -31.8811 58.1677 -79.9566 58.1677 -139.6c0 -60.6433 -18.2111 -108.049 -51.7355 -142.481c-45.6433 -49.4489 -120.405 -74.2378 -204.719 -74.2378
c-26.8056 0 -51.6112 1 -72.0868 6.2378v-272.8h-80.594zM157.637 607.649v-268.287c19.9245 -5.5678 44.849 -7.6867 74.3246 -7.6867c107.444 0 172.844 52.6112 172.844 147.276c0 92.0113 -65.6546 135.817 -162.963 135.817
c-39.3734 0 -68.519 -3.4489 -84.2057 -7.1189z" />
    <glyph glyph-name="Q" unicode="Q" horiz-adv-x="685" 
d="M654.649 -29.1302l-23.811 -67.9019c-90.1944 23.3133 -180.238 50.1944 -256.957 76.481c-14.33 4.5511 -27.4322 9.2211 -40.6433 9.5511c-160.924 5.7622 -296.34 124.119 -296.34 341.33c0 216.951 131.459 354.67 311.702 354.67
c180.675 0 300.481 -140.6 300.481 -340.67c0 -175.536 -81.0434 -286.325 -195.038 -325.774v-3.5511c68.0701 -17.1189 142.919 -33.8056 200.606 -44.1356zM341.481 55.3241c142.276 0 222.363 129.249 222.363 284.795c0 136.162 -71.2812 278.557 -218.125 278.557
c-150.751 0 -223.914 -139.606 -223.363 -286.914c-0.5511 -144.4 79.6379 -276.438 219.125 -276.438z" />
    <glyph glyph-name="R" unicode="R" horiz-adv-x="532" 
d="M77.0434 0v665c43.3133 8.67 106.049 14 163.394 14c92.0755 0 151.811 -17.5678 193.454 -55.1189c32.7455 -29.4322 51.9566 -75.3133 51.9566 -126.719c0 -89.2378 -56.0922 -147.789 -127.594 -172.806v-2.5511c51.5778 -17.5511 83.2645 -66.5678 99.5945 -137.162
c22.1189 -95.6379 37.4322 -158.194 51.4322 -184.643h-84.254c-10.2211 19.7789 -25.5511 77.2378 -44.1022 161.687c-19.67 93.1456 -57.0434 129.876 -137.562 132.995h-85.7247v-294.681h-80.594zM157.637 608.2v-251.719h91.8002
c94.6379 0 155.368 51.8323 155.368 130.919c0 89.8924 -65.2057 128.368 -159.53 128.589c-42.8056 0 -72.9512 -4.1189 -87.6379 -7.7889z" />
    <glyph glyph-name="S" unicode="S" horiz-adv-x="488" 
d="M41.67 33.5678l21.8544 67.7563c38.8811 -24.5678 95.0755 -44.1189 154.719 -44.1189c90.6379 0 144.487 48.189 144.487 118.633c0 64.8757 -36.6867 102.487 -128.73 137.514c-109.881 38.8811 -177.524 96.0922 -177.524 190.406
c0 103.957 86.4055 181.243 214.724 181.243c67.6266 0 118.049 -16.4489 146.557 -32.8811l-23.2866 -66.3241c-20.8644 12.7789 -65.6266 32 -125.94 32c-95.0113 0 -130.579 -57.4435 -130.579 -104.276c0 -64.7568 41.2378 -96.5891 135.043 -133.157
c113.643 -44.4489 171.762 -98.5244 171.762 -197.762c0 -102.627 -75.5077 -192.6 -232.724 -192.6c-63.8377 0 -134.481 19.33 -170.362 43.5678z" />
    <glyph glyph-name="T" unicode="T" horiz-adv-x="491" 
d="M204.924 0v605.693h-206.995v68.3074h496.913v-68.3074h-208.325v-605.693h-81.594z" />
    <glyph glyph-name="U" unicode="U" horiz-adv-x="643" 
d="M76.4923 674h81.1451v-400.611c0 -153.708 68.8757 -217.616 161.055 -217.616c101.308 0 167.514 67.0434 167.514 217.616v400.611h81.594v-394.4c0 -207.33 -109.687 -290.6 -252.438 -290.6c-134.962 0 -238.87 77.151 -238.87 285.794v399.206z" />
    <glyph glyph-name="V" unicode="V" horiz-adv-x="550" 
d="M312.286 0h-87.9561l-221.136 674h87.4484l106.995 -336.438c29.8056 -92.1623 54.7134 -174.519 73.1623 -252.713h2.4489c19.1189 77.7622 47.1456 162.67 78.4001 251.832l116.351 337.319h86.6862z" />
    <glyph glyph-name="W" unicode="W" horiz-adv-x="841" 
d="M271.373 0h-84.6595l-171.713 674h85.1184l82.8002 -346.957c20.3567 -84.6867 38.5945 -168 50.7134 -232.762h2.4489c11 66.5244 32.6867 146.524 55.7134 233.313l93.8169 346.406h83.3395l85.1302 -347.151c19.2378 -80.8978 38.1623 -161.043 48.1623 -231.357
h2.4489c13.7889 73.5511 32.6967 148.313 54.5023 232.551l92.6058 345.957h82.924l-192.638 -674h-84.3295l-87.6813 356.389c-21.9245 88.8657 -36.1623 154.655 -45.2812 222.06h-2c-11.5511 -66.8544 -27.2378 -132.524 -53.2812 -221.611z" />
    <glyph glyph-name="X" unicode="X" horiz-adv-x="567" 
d="M541.324 0h-93.8806l-88.8924 151.681c-36.1623 58.0434 -58.0701 95.1623 -78.859 134.162h-2.7789c-18.9078 -39 -38.9245 -75.4489 -74.4268 -134.832l-83.1135 -151.011h-93.7784l207.611 341.449l-199.162 332.551h93.5506l92.2491 -161.606
c25.3567 -43.7889 44.2645 -77.4589 63.6112 -114.119h2.2211c19.5678 39.7622 37.3734 70.8811 62.849 114.119l94.8269 161.606h93.7784l-207.298 -328.33z" />
    <glyph glyph-name="Y" unicode="Y" horiz-adv-x="534" 
d="M308.281 0h-81.1451v287.043l-213.898 386.957h92.3295l97.5624 -188.443c25.9078 -51.5678 47.1623 -92.4756 68.0701 -140.043h2c19.2378 44.5678 42.7134 89.2545 69.519 140.492l99.8002 187.995h91.9995l-226.238 -386.194v-287.806z" />
    <glyph glyph-name="Z" unicode="Z" horiz-adv-x="550" 
d="M30.4756 0v48.0809l378.795 555.163v3h-346.676v67.7563h451.843v-49.8431l-377.151 -553.071v-3.33h382.151v-67.7563h-488.962z" />
    <glyph glyph-name="bracketleft" unicode="[" horiz-adv-x="280" 
d="M264.075 -112h-181.124v797h181.124v-52.1998h-116.757v-692.93h116.757v-51.8698z" />
    <glyph glyph-name="backslash" unicode="\" horiz-adv-x="341" 
d="M344.681 -40h-64.5131l-279.212 725h64.5131z" />
    <glyph glyph-name="bracketright" unicode="]" horiz-adv-x="280" 
d="M17.0054 686h181.243v-798h-181.243v52.1998h116.427v693.6h-116.427v52.1998z" />
    <glyph glyph-name="asciicircum" unicode="^" horiz-adv-x="596" 
d="M534.362 189.832h-66.4864l-168.876 391.368h-2.33l-168.427 -391.368h-66.1564l206.313 460.168h59.1998z" />
    <glyph glyph-name="underscore" unicode="_" horiz-adv-x="500" 
d="M0 -75h500v-50h-500v50z" />
    <glyph glyph-name="quoteleft" unicode="&#x2018;" horiz-adv-x="201" 
d="M120.8 454.276l-85.2052 -9.67c22.4055 82.2699 65.4055 191.313 90.7676 234.513l52.2753 5.8811c-20.4055 -55.9887 -47.0755 -160.243 -57.8377 -230.724z" />
    <glyph glyph-name="a" unicode="a" horiz-adv-x="477" 
d="M415.188 0h-73.6207l-7.33 62.2812h-3c-26.1944 -37.5511 -78.3133 -73.2812 -148.924 -73.2812c-97.1022 0 -146.508 69.2111 -146.508 137.838c0 116.287 102.957 180.973 291.238 179.524v10.2378c0 40.9512 -10.7622 117.006 -112.206 116.557
c-44.6433 0 -91.2866 -12.9833 -124.957 -36l-19.0755 54.9353c40.0267 26.0267 97.8811 42.1022 156.081 42.1022c146.6 0 181.081 -101.687 181.081 -196.719v-182.043c0 -40.8644 2 -81.6266 7.2211 -115.432zM328.476 161.6v86.9191
c-97.0701 2.4489 -210.508 -14.7622 -210.508 -111.589c0 -59.4168 39.2812 -86.5624 84.5457 -86.5624c66.0113 0 106.936 41.4001 121.293 83.1135c3 9.4489 4.67 19.4489 4.67 28.1189z" />
    <glyph glyph-name="b" unicode="b" horiz-adv-x="566" 
d="M141.037 0h-70.7563c2 33.4489 4 80.9566 4 123.124v586.876h80.924v-306.113h2c31.1189 55.2812 87.4756 90.3079 166.968 90.3079c120.119 0 204.67 -100.119 204.119 -246.551c0 -172.762 -109.66 -258.643 -216.973 -258.643
c-70.8323 0 -127.281 27.8056 -163.849 91.8323h-2.2211zM155.205 280.67v-88.4001c0 -10.67 1.67 -21.7889 3.67 -32.3567c17.4756 -62.4268 70.7735 -105.47 136.081 -105.47c95.1302 0 151.081 77.4435 151.081 190.438c0 99.2057 -51.519 184.649 -148.293 184.649
c-61.189 0 -118.497 -42.9412 -137.421 -111.487c-2.4489 -10.5678 -5.1189 -22.6867 -5.1189 -37.3734z" />
    <glyph glyph-name="c" unicode="c" horiz-adv-x="446" 
d="M402.524 79.5886l14.7622 -61.2319c-23.0922 -11.5511 -73.6433 -28.3567 -139.119 -28.3567c-144.838 0 -239.811 98.7889 -239.811 246.432c0 149.357 102.238 257.541 258.243 257.541c52.8323 0 99.7301 -13.8056 122.806 -26.5845l-19.3133 -62.9019
c-22.0167 11.4589 -55.4923 23.9245 -104.417 23.9245c-113.47 0 -174.844 -85.3413 -174.514 -187.768c0 -113.876 72.8323 -184.751 171.606 -184.751c50.8323 0 84.6379 13.0267 109.757 23.6967z" />
    <glyph glyph-name="d" unicode="d" horiz-adv-x="560" 
d="M405.206 710h81.1451v-586.876c0 -42.1677 1.7789 -89.6754 4 -123.124h-73.0696l-3.8811 84.8323h-2c-26.7622 -53.5511 -84.8644 -95.8323 -165.713 -95.8323c-117.119 0 -207.33 99 -207.33 245.194c-1 161.211 99.2111 260 216.881 260
c75.7301 0 125.968 -36.2812 147.968 -75.189h2v290.995zM405.206 201.6v85.7568c0 11.5678 -1.4489 26.9245 -4.1189 38.4923c-14.1356 56.9512 -62.7568 104.232 -130.844 104.232c-93.3246 0 -149.411 -81.6379 -149.411 -191.438
c0 -99.519 49.3734 -183.319 147.293 -183.319c60.519 0 115.708 40.0434 132.632 108.038c3 12.1189 4.4489 24.1189 4.4489 38.2378z" />
    <glyph glyph-name="e" unicode="e" horiz-adv-x="498" 
d="M458.632 228.919h-341.665c1.4322 -124.481 78.7134 -174.789 168.351 -174.789c64.1623 0 102.255 11.3567 133.881 24.9078l14.6433 -59.0375c-28.7943 -13.1944 -81.6487 -30 -159.481 -30c-147.032 0 -236.005 98.5678 -236.005 243.313
c0 148.655 87.3734 260.881 225.692 260.881c157.551 0 197.464 -140.07 197.464 -226.032c0 -17.4055 -1.1022 -30.0321 -2.8811 -39.2432zM118.535 288.287h263.459c1 57.3079 -23.4756 146.751 -124.497 146.751c-92.3413 0 -132.174 -83.5457 -138.963 -146.751z" />
    <glyph glyph-name="f" unicode="f" horiz-adv-x="286" 
d="M163.162 0h-80.924v420.962h-67.7889v62.2319h67.7889v23.6867c0 69.0434 15.2111 130.476 55.6433 169.806c32.1944 31.3133 76.0488 44.3133 115.583 44.3133c31.66 0 58.33 -6.7889 74.9733 -14.2378l-12.3567 -63.443c-13 6.1189 -31.1189 11.6867 -56.9245 11.6867
c-76.6646 0 -96.3246 -68.2324 -96.3246 -145.693v-26.1189h119.087v-62.2319h-118.757v-420.962z" />
    <glyph glyph-name="g" unicode="g" horiz-adv-x="556" 
d="M414.519 483.194h72.0863c-2 -34.7889 -4 -73.67 -4 -131.27v-281.595c0 -113.417 -23.0167 -179.924 -68.1944 -221.449c-46.9733 -43.4322 -114.287 -57.8811 -174.124 -57.8811c-57.9733 0 -121.287 13.67 -159.93 40.1189l21.4055 63.0108
c32.1189 -20.2378 81.4322 -38.5678 142 -38.5678c91.6379 0 158.8 47.5945 158.8 172.962v56.3246h-2c-26.4322 -46.1356 -79.5678 -83.4168 -155.876 -83.4168c-120.779 0 -206.33 102.687 -206.33 236.66c0 164.027 107.357 256.102 218.092 256.102
c85.6379 0 131.427 -44.9512 152.638 -84.9512h2zM401.681 205.168v88.849c0 14.5778 -1.4489 28.1456 -5.1189 40.3834c-16.8056 52.1623 -60.7568 96.0113 -127.081 96.0113c-87.1302 0 -148.649 -73.2057 -148.649 -187.649c0 -96.8757 50.0601 -178.2 147.2 -178.2
c55.849 0 106.817 34.9245 126.411 92.8002c4.7889 14.7889 7.2378 32.2378 7.2378 47.8056z" />
    <glyph glyph-name="h" unicode="h" horiz-adv-x="551" 
d="M74.2812 0v710h81.4751v-304.325h2c14.33 25.2378 36.1189 48.0434 63.6867 63.6112c25.7889 15.5678 57.0267 24.9078 91.1623 24.9078c61.962 0 167.983 -37.3187 167.983 -205.627v-288.568h-81.1451v279.043c0 79.7301 -30.2545 147.276 -115.038 147.276
c-58.9679 0 -105.725 -41.4001 -122.53 -91.1569c-4.67 -12.2378 -6.1189 -25.6867 -6.1189 -42.5945v-292.568h-81.4751z" />
    <glyph glyph-name="i" unicode="i" horiz-adv-x="229" 
d="M155.756 0h-81.4751v483.194h81.4751v-483.194zM115.243 672.768c31.481 0 51.4376 -23.4055 51.7676 -53.1243c0.2211 -28.7188 -20.2866 -52.1243 -53.4376 -52.1243c-30.2599 0 -50.7676 23.4055 -50.7676 52.1243c0 29.2699 21.9566 53.1243 52.4376 53.1243z" />
    <glyph glyph-name="j" unicode="j" horiz-adv-x="238" 
d="M-37.1623 -209l-8.6433 64.443c40.8978 2.5511 75.3567 14.4489 96.4756 37.6867c24.1189 27.9078 34.0167 65.9078 34.0167 183.546v406.519h81.1451v-439.951c0 -92.7188 -13.6266 -153.481 -56.5077 -197.93c-38.0755 -38.8811 -101.6 -53.8644 -146.486 -54.3133z
M126.319 672.768c30.811 0 50.7676 -23.8544 50.7676 -53.1243c0.2211 -27.7188 -19.2866 -52.1243 -53.2165 -52.1243c-30.7021 0 -50.6587 24.4055 -50.6587 52.1243c0 29.2699 21.6266 53.1243 53.1076 53.1243z" />
    <glyph glyph-name="k" unicode="k" horiz-adv-x="461" 
d="M155.205 710v-450.206h2c12 16.7622 29.3567 38.2111 43.4756 54.7622l146.2 168.638h98.3128l-187.832 -199l214.281 -284.194h-99.5239l-171.108 235.368l-45.8056 -50.5678v-184.8h-80.924v710h80.924z" />
    <glyph glyph-name="l" unicode="l" horiz-adv-x="231" 
d="M74.2812 0v710h81.4751v-710h-81.4751z" />
    <glyph glyph-name="m" unicode="m" horiz-adv-x="831" 
d="M74.2812 0v354.757c0 49.2866 -1.4489 88.6754 -4 128.438h71.7563l4.33 -79.1623h2.5511c27.3567 47.4001 72.4756 90.1623 152.687 90.1623c65.7889 0 116.238 -40.4756 136.789 -98.2812h2c15.2111 27.8978 33.6433 48.5678 53.7355 63.2378
c29.2378 22.8056 61.3567 35.0434 107.621 35.0434c61.9787 0 158.973 -39.1076 158.973 -209.432v-284.762h-79.7129v274.146c0 95.7735 -35.6112 152.725 -108.038 152.725c-51.849 0 -92.2491 -37.8323 -107.936 -81.7835
c-4.1189 -12.8978 -7.5678 -28.5678 -7.5678 -44.3567v-300.73h-79.7129v291.849c0 78.519 -35.2812 135.021 -103.47 135.021c-56.519 0 -98.038 -44.9512 -112.844 -91.038c-5 -12.67 -7.4489 -28.2378 -7.4489 -43.3567v-292.476h-79.7129z" />
    <glyph glyph-name="n" unicode="n" horiz-adv-x="551" 
d="M74.2812 0v354.757c0 49.2866 -1.4489 88.6754 -4 128.438h72.6374l4.8811 -80.8323h2.33c23.9078 46.9512 80.7134 91.8323 160.594 91.8323c63.5131 0 169.864 -37.3187 169.864 -205.643v-288.551h-81.1451v279.925c0 79.4001 -30.2545 146.725 -115.157 146.725
c-59.519 0 -106.276 -42.1623 -122.411 -93.038c-4 -11.4489 -6.1189 -26.8978 -6.1189 -41.5678v-292.043h-81.4751z" />
    <glyph glyph-name="o" unicode="o" horiz-adv-x="545" 
d="M276.481 494.194c138.287 0 231.481 -100.432 231.481 -247.983c0 -179.449 -124.211 -257.211 -239.032 -257.211c-130.168 0 -230.573 96.1189 -230.573 248.762c0 162.687 106.568 256.432 238.124 256.432zM274.6 432.395
c-106.47 0 -153.108 -98.3246 -153.108 -191.632c0 -108.325 63.2324 -189.844 150.989 -189.844c86.5624 0 152.125 80.6379 152.125 192.292c0 82.7134 -42.7301 189.184 -150.006 189.184z" />
    <glyph glyph-name="p" unicode="p" horiz-adv-x="566" 
d="M74.2812 -198v524.119c0 61.7622 -2 111.524 -4 157.075h73.3074l4.66 -83.9512h2c35.1022 59.9245 93 94.9512 172.594 94.9512c118.043 0 205.449 -99.3567 205.449 -245.313c0 -173.762 -105.854 -259.881 -219.762 -259.881
c-65.2545 0 -121.849 28.6867 -151.325 78.2057h-2v-265.206h-80.924zM155.205 281.017v-85.2979c0 -12.67 1.67 -24.7889 4 -36.2378c16.4756 -63.2057 71.4435 -105.919 135.751 -105.919c95.6813 0 151.081 78.2057 151.081 191.887
c0 98.3079 -52.0701 183.751 -147.632 183.751c-61.519 0 -119.936 -43.7134 -137.081 -111.589c-3 -11.5678 -6.1189 -24.8056 -6.1189 -36.5945z" />
    <glyph glyph-name="q" unicode="q" horiz-adv-x="558" 
d="M405.206 -198v273.951h-2.4489c-25.6433 -48.1189 -80 -86.9512 -158.832 -86.9512c-113.924 0 -205.568 97.9078 -205.568 244.313c0 182.254 117.357 260.881 219.568 260.881c76.2812 0 126.519 -37.9512 150.281 -85.0701l2 -0.33l2.5511 74.4001h77.3729
c-2 -39.7455 -3.7789 -81.2699 -3.7789 -131.6v-549.594h-81.1451zM405.206 195.6v93.0868c0 12.6867 -1.4489 26.1456 -4.1189 37.8323c-14.1356 55.4001 -62.0868 102.681 -129.844 102.681c-93.3246 0 -150.411 -79.0868 -150.411 -190.108
c0 -98.6279 46.8056 -184.649 146.963 -184.649c58.2812 0 109.13 35.8056 129.844 98.2324c4.4489 12.8978 7.5678 29.3567 7.5678 42.9245z" />
    <glyph glyph-name="r" unicode="r" horiz-adv-x="321" 
d="M74.2812 0v333.357c0 55.9299 -1.4489 104.719 -4 149.838h72.0863l2.8811 -95.2378h3.1022c22.2111 64.0755 75.1844 106.238 135.017 106.238c8.8644 0 15.8644 -1 23.6266 -2.5511v-77.2807c-8.4322 2 -17.1944 2.8811 -28.8377 2.8811
c-62.8056 0 -106.832 -48.519 -118.951 -115.827c-2 -12.5678 -4 -27.1356 -4 -42.2545v-259.162h-80.924z" />
    <glyph glyph-name="s" unicode="s" horiz-adv-x="392" 
d="M40.2545 23.33l20.4155 62.1397c26.66 -16.5511 71.8277 -34.1022 115.379 -34.1022c66.0868 0 96.8002 32.7401 96.8002 74.5891c0 43.9679 -26.4923 67.2324 -91.6379 92.038c-86.0488 31.2111 -127.617 78.2866 -127.287 135.957
c0 76.5999 61.5999 140.243 164.081 140.243c48.4055 0 90.0321 -13.5511 116.464 -29.67l-21.3133 -60.3675c-18.3133 12 -52.8377 28.4489 -98.5244 28.4489c-53.4001 0 -82.0968 -31.0701 -82.0968 -68.6813c0 -41.519 29.2645 -60.3246 92.8323 -85.0113
c82.6266 -31.1022 126.313 -72.7455 126.643 -145.194c0 -84.6433 -66.0922 -143.719 -178.081 -143.719c-52.2866 0 -99.9132 13.33 -133.675 33.33z" />
    <glyph glyph-name="t" unicode="t" horiz-adv-x="327" 
d="M93.7134 600.806l80.1618 21.3888v-139h127.968v-62.2319h-127.968v-268.714c0 -60.1189 17.5678 -95.3734 66.8056 -95.3734c23.2378 0 40.3567 3.4489 51.8056 6.8978l4.2378 -62.2219c-16.8811 -6.5511 -43.2866 -11.5511 -76.6921 -11.5511
c-39.6266 0 -72.481 12.7622 -92.7943 36.6433c-23.9833 26.2111 -33.5244 68.1944 -33.5244 123.913v270.406h-76.0434v62.2319h76.0434v117.611z" />
    <glyph glyph-name="u" unicode="u" horiz-adv-x="547" 
d="M473.351 483.194v-353.308c0 -49.0488 1.7789 -91.6754 4 -129.887h-72.6374l-4.4322 80.0434h-2c-22.7889 -39.9245 -74.5945 -91.0434 -160.925 -91.0434c-73.5565 0 -166.194 40.2432 -166.194 212v282.194h81.1451v-267.908
c0 -93.7568 29.5845 -158.292 111.368 -158.292c60.6379 0 103.157 42.6112 119.962 83.0113c4.67 13.2378 8.5678 29.5945 8.5678 46.2812v296.908h81.1451z" />
    <glyph glyph-name="v" unicode="v" horiz-adv-x="476" 
d="M13.2378 483.194h87.5673l97.3513 -275.421c16.6867 -45.0167 29.5945 -85.1356 40.6112 -125.136h2.5511c11.6867 40 26.0434 80.2378 41.9512 125.136l97.368 275.421h85.6862l-190.924 -483.194h-77.3562z" />
    <glyph glyph-name="w" unicode="w" horiz-adv-x="733" 
d="M18.9245 483.194h83.4751l66.8924 -249.87c14.3567 -54.2378 27.1456 -104.33 36.5945 -153.524h2.67c11.1189 48.0755 27.1189 100.287 44.2545 152.973l81.3513 250.421h69.5619l78.0113 -246.438c17.4589 -57.67 31.5778 -108.432 43.4756 -156.957h2.2211
c8.8978 48.5244 22.1356 98.8377 38.0434 156.287l71.6813 247.108h81.1618l-156.806 -483.194h-74.1618l-75.9024 236.27c-18.1356 54.8056 -32.0434 103.941 -44.1623 160.255h-2c-12.2378 -58.2111 -27.9245 -108.898 -45.2812 -160.924l-80.8002 -235.6h-74.4918z" />
    <glyph glyph-name="x" unicode="x" horiz-adv-x="457" 
d="M16.5945 483.194h91.1184l71.2057 -105.876c18.6867 -27.1189 33.8056 -51.7889 50.0434 -79.0267h2.5511c16.6867 28.34 32.9245 53.7889 49.6112 79.9078l69.6646 104.995h89.0162l-165.238 -234l170.027 -249.194h-92.2206l-74.1035 110.876
c-18.9078 28.2378 -35.5945 55.8056 -52.9512 85.0434h-2c-16.2378 -29.5678 -33.1456 -55.3567 -52.7301 -85.0434l-71.6646 -110.876h-90.5673l172.806 246.432z" />
    <glyph glyph-name="y" unicode="y" horiz-adv-x="466" 
d="M9.5678 483.194h88.6695l109.038 -290.319c11.5678 -32.2378 23.3567 -69.9078 31.4756 -99.4756h2.33c9.1189 29.1189 19.6867 65.7889 32.0434 101.594l98.8269 288.2h87.0162l-134.087 -346.546c-62.0755 -163.649 -104.838 -249.124 -165.524 -301.811
c-42.4055 -36.9566 -83.6754 -51.8377 -104.156 -55.8377l-20.8377 68.6374c22.5678 7.2378 51.9245 21.5945 78.4923 44.9679c23.67 19.4756 53.5778 54.519 74.3834 100.946c4.33 9.8978 6.8811 16 6.8811 21.33c0 5 -1.67 11.5511 -6.33 22.4322z" />
    <glyph glyph-name="z" unicode="z" horiz-adv-x="423" 
d="M17.7622 0v47.7242l224.627 293.308c20.9733 25.9733 40.4055 48.8544 62.3788 74.6166v2h-267.217v65.5452h366.411l-0.67 -51.2753l-222.644 -290.325c-19.9733 -25.8644 -39.6166 -49.8377 -60.3621 -74.2699v-2h286.989v-65.3241h-389.513z" />
    <glyph glyph-name="braceleft" unicode="{" horiz-adv-x="280" 
d="M27.8811 263.281v48.4376c71.1189 -0.1189 81.3567 39 81.3567 74.8056c0 28.2378 -4.1189 55.9078 -7.7889 84.0267c-4.4489 28.4489 -8.5678 55.8978 -8.5678 83.6867c0 92.2111 60.4489 131.092 144.524 131.092h19.5999v-52.5298h-18
c-60.2812 0 -81.4168 -31.9078 -81.4168 -87.849c0 -23.3567 3.8978 -47.7134 7.8978 -72.4001c3.7889 -24.4589 7.5678 -49.3567 7.5678 -76.4756c1 -62.8377 -27.2111 -95.0755 -71.0488 -106.627v-2c43.8377 -11.7789 72.0488 -45.6867 71.0488 -108.524
c0 -27 -3.7789 -52.5678 -7.5678 -76.8056c-4 -24.9078 -7.8978 -49.0434 -7.8978 -73.0701c0 -57.6112 24.7034 -88.849 81.4168 -88.849h18v-52.1998h-19.5999c-82.0755 0 -144.524 36 -144.524 137.449c0 26.7889 4.1189 54.7889 8.5678 81.7889
c3.67 27.4489 7.7889 54.1189 7.7889 81.2378c0 31.6867 -10.2378 75.3734 -81.3567 74.8056z" />
    <glyph glyph-name="bar" unicode="|" horiz-adv-x="234" 
d="M85.8811 750h63.0375v-1000h-63.0375v1000z" />
    <glyph glyph-name="braceright" unicode="}" horiz-adv-x="280" 
d="M253.319 311.719v-48.4376c-71.2378 0.5678 -81.8056 -43.1189 -81.8056 -74.8056c0 -27.1189 4.4489 -53.7889 8.5678 -81.2378c4.1189 -27 8.1189 -55 8.1189 -81.7889c0 -101.449 -62.67 -137.449 -144.524 -137.449h-19.5999v52.1998h17.7789
c56.7134 1.4489 81.3079 31.2378 81.3079 88.849c0 24.0267 -3.67 48.1623 -7.5678 73.0701c-3.67 24.2378 -7.7889 49.8056 -7.7889 76.8056c-0.33 62.8377 27.4322 96.7455 70.7188 108.524v2c-43.2866 11.5511 -71.0488 43.7889 -70.7188 106.627
c0 27.1189 4.1189 52.0167 7.7889 76.4756c3.8978 24.6867 7.5678 49.0434 7.5678 72.4001c0 55.9412 -21.3567 86.849 -81.0868 87.849h-18v52.5298h19.3788c84.0755 0 144.745 -38.8811 144.745 -131.092c0 -27.7889 -4 -55.2378 -8.1189 -83.6867
c-4.1189 -28.1189 -8.5678 -55.7889 -8.5678 -84.0267c0 -35.8056 10.5678 -74.9245 81.8056 -74.8056z" />
    <glyph glyph-name="asciitilde" unicode="~" horiz-adv-x="596" 
d="M105.53 212.087h-56.5031c-3.7889 96.8431 49.8544 147.724 117.573 147.724c41.1944 0 72.9566 -13.2111 141.568 -45.2111c51.0267 -24 89.519 -42.2378 127.351 -42.2378c37.2812 0 54.849 29.9245 55.4001 84.2378h56.2753
c5 -108.302 -51.8644 -147.605 -113.362 -147.605c-38.1777 0 -74.5077 11.9733 -144.908 44.0922c-48.0167 22.8811 -85.2812 44.1189 -122.892 44.1189c-36.8323 0 -59.0701 -25.9245 -60.5023 -85.1189z" />
    <glyph glyph-name="exclamdown" unicode="&#xa1;" horiz-adv-x="226" 
d="M158.994 -198h-90.3829l13.0755 479.325h64.0108zM113.913 487.524c33.3621 0 55.5298 -25.1677 55.5298 -59.9787c0 -32.5832 -21.8377 -58.8698 -56.1998 -58.8698c-32.9132 0 -56.0809 26.2866 -55.632 58.8698c0 34.811 22.9399 59.9787 56.302 59.9787z" />
    <glyph glyph-name="cent" unicode="&#xa2;" horiz-adv-x="509" 
d="M325.562 -14.5678h-58.7242v102.017c-64.4489 7.1022 -108.313 30.3133 -144.313 69.1944c-34 37.7622 -56.4489 95.7622 -56.4489 169.238c0 130.043 79.8056 227.687 200.762 246.432v101.136h58.7242v-98.9245c46.2812 -0.33 87.189 -13.6867 110.73 -25.3567
l-19.7622 -63.1297c-20.66 12.1189 -54.6867 25.9245 -105.849 25.9245c-100.638 0 -163.249 -82.5624 -163.249 -182.649c0 -112.757 69.3734 -179.184 159.011 -179.184c55.8323 0 91.519 14.0267 115.849 25.4756l14.9833 -59.0108
c-19.3133 -11.33 -61.67 -27.0267 -111.713 -29.8056v-101.357z" />
    <glyph glyph-name="sterling" unicode="&#xa3;" horiz-adv-x="509" 
d="M468.173 0h-411.816v47.0809c68.7301 35.1623 114.119 101.876 114.119 177.351c0 25.0434 -1 45.519 -5.1189 73.2491h-103.357v59.0375h94.7301c-5.4489 30.6867 -12.0167 70.849 -12.0167 110.232c0 117.854 79.8377 194.049 188.843 194.049
c51.7622 0 87.0755 -12 107.957 -25l-18.8644 -61.8919c-17.8811 10.33 -47.33 20.8978 -89.6867 20.8978c-78.9245 0 -111.519 -54.9245 -111.519 -127.919c0 -44.519 6.1189 -77.5624 12.1189 -110.368h144.476v-59.0375h-136.832
c3.2378 -39.2812 5.4756 -79.1302 -3.6433 -116.081c-11.1189 -44.9679 -35.5945 -81.8002 -70.7568 -111.725v-2h301.368v-67.8752z" />
    <glyph glyph-name="fraction" unicode="&#x2044;" horiz-adv-x="120" 
d="M-102.757 -11h-53.7676l380.492 672h53.9887z" />
    <glyph glyph-name="yen" unicode="&#xa5;" horiz-adv-x="509" 
d="M286.875 0h-76.9507v178.638h-154.881v47.3454h154.881v71.5845h-154.881v47.3454h131.043l-168.687 305.087h87.5673l106.378 -210.319c17.1089 -33.6433 28.33 -59.7188 40.2111 -88.3621h3.1189c9.7622 26.6433 23.2111 57.1677 40.2111 90.811l110.946 207.87
h85.6862l-179.476 -305.087h130.713v-47.3454h-155.881v-71.5845h155.881v-47.3454h-155.881v-178.638z" />
    <glyph glyph-name="florin" unicode="&#x192;" horiz-adv-x="509" 
d="M111.211 340.589v59.6975h99.5945l6.1189 47.2812c11.9078 102.038 57.2812 213.432 188.438 213.432c29.3133 -1 53.2866 -7 67.0488 -14.8811l-15.5244 -59.7997c-15.5678 6 -32.2378 10.4489 -53.1356 10.4489c-69.6379 0 -99.6646 -67.8002 -107.784 -143.557
l-6 -52.9245h121.638v-59.6975h-129.281l-24.5678 -206.783c-15.67 -129.924 -56.67 -217.33 -171.557 -217.33c-32.4055 0.33 -59.5999 7.33 -76.2699 16.7789l15.1944 58.3508c17.5678 -8.1189 35.3567 -11.5678 56.5945 -11.5678
c63.2812 0 87.0868 57.6813 98.9679 158.849l23.0267 201.703h-92.5023z" />
    <glyph glyph-name="section" unicode="&#xa7;" horiz-adv-x="514" 
d="M127.411 352.373c0 -37.0167 26.1022 -67.8223 107.638 -96.9679c51.3567 -18.5678 89.8644 -33.5678 113.762 -48.8056c25.0267 18.9245 38.5945 47.849 38.5945 79.1135c0 39.4923 -24.6867 71.9679 -91.2057 95.3246
c-39.4322 14.8811 -89.9566 31.3133 -122.524 51.1189c-32.8323 -23.8323 -46.2645 -50.0868 -46.2645 -79.7835zM413.681 650.092l-20.8811 -54.1731c-25.3133 16.1189 -65.5244 32.2378 -119.168 32.2378c-58.67 0 -105.4 -29.5945 -105.4 -76.5624
c0 -53.4268 51.849 -73.3246 126.638 -98.1135c90.9299 -29.8811 160.319 -67.3133 160.319 -156.481c0 -51.8811 -23.8644 -89.3133 -63.6266 -120.551c16.4322 -14.7789 37.9733 -47.33 37.9733 -88.0922c0 -103.032 -94.4109 -149.287 -187.86 -149.287
c-61 0 -117.6 15.0167 -154.081 41.7622l23.6433 53.8431c23.1944 -17 70.9132 -40.1022 130.692 -40.1022c64.2645 0 113.427 29.8323 113.427 84.4702c0 47.9512 -28.8811 73.8757 -123.519 106.8c-102.313 35.5678 -171.438 72 -171.438 156.6
c0 37.1944 19.5244 81.3888 72.2866 117.092c-20.33 15.5511 -36.2111 48.5344 -36.7622 82.2966c0 87.4977 80.5999 141.049 181.064 141.049c56.33 0 103.973 -14.3567 136.692 -32.7889z" />
    <glyph glyph-name="currency" unicode="&#xa4;" horiz-adv-x="509" 
d="M254.124 532.481c47 0 88.1189 -16.1189 115.551 -40.6867l70.6433 73.9566l42.4543 -43.2265l-77.4055 -70.0755c19.6867 -27.1189 34.7889 -70.3734 34.7889 -117.898c0 -54.1022 -16.5511 -97.7889 -35 -122.789l73.9566 -73.0755l-42.3454 -42.1243l-67.6433 75.5077
c-30.4489 -28.7889 -77 -42.7889 -117 -42.7889c-41.4489 0 -87.4489 15.1189 -113.881 39.67l-66.3133 -72.3888l-41.0054 42.1243l70.8377 69.6266c-20.1189 26.4489 -37.1189 71.8056 -37.1189 120c0 52.5411 17.5511 95.1189 38.9078 124.136l-73.8377 69.7455
l42.4543 43.5565l68.0755 -74.5077c27.8811 25.4489 70 41.2378 113.881 41.2378zM252.675 473.325c-75.4268 0 -121.113 -64.519 -121.113 -143.562c0 -99.0868 68.519 -141.325 120.113 -141.325c57.1623 0 121.232 39.7889 121.232 145.114
c0 70.1356 -40.7889 139.773 -120.232 139.773z" />
    <glyph glyph-name="quotesingle" unicode="'" horiz-adv-x="186" 
d="M52.0701 685h82.5619l-16.1944 -237.081h-50.3942z" />
    <glyph glyph-name="quotedblleft" unicode="&#x201c;" horiz-adv-x="344" 
d="M120.47 454.276l-85.0963 -9.67c22.0755 82.2699 65.0755 191.313 90.9887 234.513l51.9453 5.8811c-20.6266 -55.9887 -47.0755 -160.243 -57.8377 -230.724zM264.362 454.276l-85.2052 -9.67c21.8544 82.2699 65.0755 191.313 90.7676 234.513l52.2753 5.8811
c-20.9566 -55.9887 -47.4055 -160.243 -57.8377 -230.724z" />
    <glyph glyph-name="guillemotleft" unicode="&#xab;" horiz-adv-x="414" 
d="M230.481 435.524l-134.951 -183.524l135.4 -183.524h-67.8431l-134.298 183.524l133.968 183.524h67.7242zM391.681 435.524l-135.07 -183.524l135.07 -183.524h-67.8431l-133.519 183.524l133.519 183.524h67.8431z" />
    <glyph glyph-name="guilsinglleft" unicode="&#x2039;" horiz-adv-x="253" 
d="M230.481 435.524l-134.951 -183.524l135.4 -183.524h-67.8431l-134.298 183.524l133.968 183.524h67.7242z" />
    <glyph glyph-name="guilsinglright" unicode="&#x203a;" horiz-adv-x="253" 
d="M158.07 252l-135.07 183.524h67.292l134.74 -183.524l-134.519 -183.524h-67.0642z" />
    <glyph glyph-name="fi" unicode="&#xfb01;" horiz-adv-x="516" 
d="M163.162 0h-80.924v420.962h-67.7889v62.2319h67.7889v27.2545c0 126.745 72.1998 210.551 207.13 210.551c44.1944 0 96.151 -14.1189 120.794 -32.1189l-24.3133 -62.113c-21.2111 14.34 -58.7622 28.2378 -101.406 28.2378
c-93.8323 0 -121.611 -67.4435 -121.611 -147.336v-24.4756h280.26v-483.194h-81.7029v420.962h-198.227v-420.962z" />
    <glyph glyph-name="fl" unicode="&#xfb02;" horiz-adv-x="516" 
d="M163.162 0h-80.924v420.962h-67.7889v62.2319h67.7889v21c0 69.0601 22.7622 128.492 67.5244 168.611c36.9566 31.1944 85.4643 48.1944 152.53 48.1944c54.481 0 105.302 -11.8811 140.8 -30.9566v-690.043h-81.254v644.081
c-15.6867 7.67 -38.5945 13.2378 -73.4001 13.2378c-94.4702 0 -125.606 -69.4435 -125.606 -148.989v-25.1356h115.892v-62.2319h-115.562v-420.962z" />
    <glyph glyph-name="endash" unicode="&#x2013;" horiz-adv-x="500" 
d="M30 282.032h440v-56.0642h-440v56.0642z" />
    <glyph glyph-name="dagger" unicode="&#x2020;" horiz-adv-x="497" 
d="M210.849 674h76.6374l-7.6433 -211.713l174.119 6.3133v-67.6808l-174.119 7.3133l7.6433 -458.232h-76.6374l7.6433 458.232l-174.119 -7.3133v67.6808l174.119 -6.3133z" />
    <glyph glyph-name="daggerdbl" unicode="&#x2021;" horiz-adv-x="497" 
d="M211.07 674h76.0863l-5.9833 -202.07l172.789 7.3133v-68.0108l-172.789 7.4222v-208.319l172.789 6.8644v-67.2319l-172.789 6.3133l5.9833 -206.281h-76.0863l5.5411 206.281l-172.568 -6.3133v67.2319l173.119 -6.8644v208.319l-173.119 -7.4222v68.0108
l173.119 -7.3133z" />
    <glyph glyph-name="periodcentered" unicode="&#xb7;" horiz-adv-x="201" 
d="M100.768 203.487c-33.3621 0 -56.7509 25.8377 -56.5298 59.7509c0 34.811 24.1677 60.1998 56.7509 60.1998c33.811 0 56.3087 -24.8377 56.5298 -60.1998c0 -33.9132 -22.3888 -59.7509 -56.7509 -59.7509z" />
    <glyph glyph-name="paragraph" unicode="&#xb6;" horiz-adv-x="508" 
d="M291.957 -49.5678h-59.0642v313.568h-7.4489c-81.2057 0 -191.655 63.7889 -191.655 192.568c0 102.551 56.1189 218.864 273.573 218.864c52.5244 0 89.7943 -2.5511 114.887 -7.9833v-717.017h-59.292v667.936h-71v-667.936z" />
    <glyph glyph-name="bullet" unicode="&#x2022;" horiz-adv-x="276" 
d="M138.319 159.232c-56.2699 0 -102.108 44.2866 -102.108 102.216c-1.33 57.151 45.8377 102.438 102.108 102.438c57.0488 0 102.886 -45.2866 102.886 -102.216c0 -56.821 -45.2866 -102.438 -102.886 -102.438z" />
    <glyph glyph-name="quotesinglbase" unicode="&#x201a;" horiz-adv-x="201" 
d="M73.4109 -112.849l-52.5031 -6.1022c20.7355 55.9887 47.4055 160.464 57.6166 230.394l85.8752 10c-22.0755 -82.2699 -65.4055 -191.092 -90.9887 -234.292z" />
    <glyph glyph-name="quotedblbase" unicode="&#x201e;" horiz-adv-x="345" 
d="M73.0809 -112.849l-52.7242 -6.1022c20.9566 55.9887 47.4055 160.464 57.8377 230.394l85.6541 10c-21.8544 -82.2699 -65.0755 -191.092 -90.7676 -234.292zM216.643 -112.849l-52.3942 -6.1022c20.6266 55.9887 47.0755 160.464 57.8377 230.394l85.8752 10
c-22.4055 -82.2699 -65.4055 -191.092 -91.3187 -234.292z" />
    <glyph glyph-name="quotedblright" unicode="&#x201d;" horiz-adv-x="344" 
d="M92.8811 676l85.2052 9c-22.4055 -82.2699 -65.4055 -191.092 -90.7676 -234.292l-52.2753 -6.1022c20.4055 55.9887 47.0755 160.913 57.8377 231.394zM236.443 676l85.2052 9c-22.0755 -82.2699 -65.4055 -191.092 -90.7676 -234.292l-52.2753 -6.1022
c20.6266 55.9887 47.4055 160.913 57.8377 231.394z" />
    <glyph glyph-name="guillemotright" unicode="&#xbb;" horiz-adv-x="414" 
d="M158.4 252l-135.4 183.524h67.5131l134.519 -183.524l-134.519 -183.524h-66.8431zM319.049 252l-135.4 183.524h67.0642l134.968 -183.524l-134.519 -183.524h-66.8431z" />
    <glyph glyph-name="ellipsis" unicode="&#x2026;" horiz-adv-x="1000" 
d="M166.67 -11c-33.0321 0 -56.7509 26.6166 -55.7509 60.1998c0 35.0321 23.1677 60.1998 56.5298 60.1998c33.5832 0 55.7509 -24.8377 56.0809 -60.1998c0 -33.5832 -22.4977 -60.1998 -56.8598 -60.1998zM500 -11c-33.3621 0 -56.7509 26.6166 -56.0809 60.1998
c0 35.0321 23.7188 60.1998 56.7509 60.1998c33.3621 0 55.8598 -24.8377 56.0809 -60.1998c0 -33.5832 -22.3888 -60.1998 -56.7509 -60.1998zM833.33 -11c-33.3621 0 -56.8598 26.6166 -56.0809 60.1998c0 35.0321 23.3888 60.1998 56.7509 60.1998
s55.7509 -24.8377 56.0809 -60.1998c0 -33.5832 -22.1677 -60.1998 -56.7509 -60.1998z" />
    <glyph glyph-name="perthousand" unicode="&#x2030;" horiz-adv-x="1143" 
d="M604.475 392c89.1243 0 147.886 -68.7188 147.886 -194c0 -137.119 -70.2699 -204.881 -152.886 -204.881c-79.481 0 -148.438 64.4055 -149.556 195.33c0 132.07 71 203.551 154.556 203.551zM601.805 341.919c-56.0434 0 -86.6379 -66.2812 -86.6379 -149.8
c-1.8978 -84.0701 30.4756 -149.249 86.189 -149.249c59.849 0 86.2057 64.0868 86.2057 150.919c0 81.0601 -23.3567 148.13 -85.7568 148.13zM964.962 392c89.1243 0 148.886 -68.7188 148.886 -194c0 -137.119 -71.0488 -204.881 -153.886 -204.881
c-79.0321 0 -148.438 64.4055 -149.108 195.33c0 132.07 70.5511 203.551 154.108 203.551zM962.513 341.919c-55.5945 0 -86.6379 -66.2812 -86.6379 -149.8c-1.67 -84.0701 30.2545 -149.249 86.4168 -149.249c59.6212 0 85.7568 64.0868 85.7568 150.919
c0 81.0601 -23.1356 148.13 -85.5357 148.13zM185.124 661c89.1243 0 148.108 -68.3888 148.108 -193.67c0 -137.898 -70.5999 -205.33 -153.108 -205.33c-79.811 0 -148.438 64.4055 -149.887 195.67c0 131.73 71 203.33 154.887 203.33zM182.454 611.249
c-56.0434 0 -86.4168 -66.7301 -86.4168 -149.8c-2.1189 -84.4001 30.2545 -149.698 85.9679 -149.698c59.519 0 86.2057 64.5357 86.2057 151.368c0 80.7301 -23.3567 148.13 -85.7568 148.13zM226.611 -11h-53.4376l382.146 672h53.4376z" />
    <glyph glyph-name="questiondown" unicode="&#xbf;" horiz-adv-x="401" 
d="M236.287 488.643c33.5832 0 56.0809 -24.8377 56.0809 -59.6487c0 -33.3621 -22.1677 -59.8698 -56.5298 -59.8698c-33.5832 0 -56.5298 26.5077 -56.0809 59.8698c0 34.811 23.1677 59.6487 56.5298 59.6487zM198.638 287.113h73.0863l2.67 -25.67
c6.2378 -54.5678 -12.8811 -112.162 -62.7889 -172.968c-46.2812 -55.0701 -70.6112 -92.9946 -70.6112 -138.708c0 -52.9679 32.3734 -87.6813 97.3246 -88.0113c35.5678 0 75.1189 11.4489 101.568 31.1189l22.5077 -58.9019
c-33.4322 -23.8978 -89.8644 -40.33 -141.227 -40.33c-112.811 0 -164.438 70.8811 -164.438 146.405c0 66.6266 36.9566 114.627 86.2211 172.357c44.7034 53.8323 60.3734 96.7568 56.8056 148.113z" />
    <glyph glyph-name="grave" unicode="`" 
d="M23.6379 692.405h92.7997l87.8978 -142.405h-58.6975z" />
    <glyph glyph-name="acute" unicode="&#xb4;" 
d="M191.681 692.405h92.7997l-122.33 -142.405h-58.5886z" />
    <glyph glyph-name="circumflex" unicode="&#x2c6;" 
d="M120.757 692.405h56.9186l95.4322 -142.405h-64.302l-58.4756 95.9245h-2l-58.9245 -95.9245h-62.292z" />
    <glyph glyph-name="tilde" unicode="&#x2dc;" 
d="M74.6433 568.043h-45.8865c-1.5511 63.2432 24.9733 101.319 67.0488 101.319c21.3133 0 38.0755 -9.33 61.7622 -22.1189c16 -8.5511 29.5511 -16.4322 42 -16.4322c15.5511 0 25.34 9 27.67 42.1022h44.6754c1.2111 -64.1076 -20.7455 -98.3187 -66.9399 -98.3187
c-20.9733 0 -39.8544 9.33 -60.4055 20.33c-20.5678 11.67 -31.3567 18.1189 -43.3567 18.1189c-16.1189 0 -24.4489 -17.5678 -26.5678 -45z" />
    <glyph glyph-name="macron" unicode="&#xaf;" 
d="M39.2812 640.675h222.438v-53.9887h-222.438v53.9887z" />
    <glyph glyph-name="breve" unicode="&#x2d8;" 
d="M27.4001 681.287h49.7676c5.67 -39.2378 31.9245 -69.9245 72.5023 -69.9245c48.2545 0 70.4923 36.4756 73.1623 69.9245h49.7676c0 -73.7355 -48.5511 -122.692 -122.6 -122.692c-87.6433 0 -122.6 62.33 -122.6 122.692z" />
    <glyph glyph-name="dotaccent" unicode="&#x2d9;" 
d="M141.638 571.281c-28.8377 0 -48.7943 23.0755 -48.7943 49.6921c0 26.9399 21.4055 49.9132 48.7943 49.9132c26.8377 0 47.6921 -22.5244 47.6921 -49.9132c0 -26.6166 -19.4055 -49.6921 -47.6921 -49.6921z" />
    <glyph glyph-name="dieresis" unicode="&#xa8;" 
d="M58.8323 571.281c-28.8377 0 -48.3454 23.0755 -48.3454 48.9132c0 27.1677 21.1777 49.2432 49.1243 49.2432c26.5077 0 46.4643 -21.5244 46.4643 -49.2432c0 -25.8377 -18.9566 -48.9132 -47.2432 -48.9132zM241.719 571.281
c-28.8377 0 -47.7943 23.0755 -47.7943 48.9132c0 27.1677 20.6266 49.2432 48.2432 49.2432c27.1677 0 46.7943 -21.5244 46.7943 -49.2432c0 -25.8377 -18.9566 -48.9132 -47.2432 -48.9132z" />
    <glyph glyph-name="ring" unicode="&#x2da;" 
d="M142.449 536.881c-58.8377 0 -100.049 39.8811 -100.049 90.6433c0 52.3133 38.8811 94.1944 101.049 94.1944c58.2699 0 97.2699 -40.8811 97.2699 -93.6433c0 -51.9833 -43 -91.1944 -98.2699 -91.1944zM141.449 573.049c31.67 0 52.3567 25.7889 52.3567 56.0267
c0 30.8056 -20.6867 55.9245 -53.1356 55.9245c-30.7889 0 -49.3567 -26.5678 -49.3567 -57.4756c0 -26.6867 20.2378 -54.4756 50.1356 -54.4756z" />
    <glyph glyph-name="cedilla" unicode="&#xb8;" 
d="M137.4 1.8811h51.3187l-33.3567 -52.6867c36.8811 -4.67 69.7622 -30.5511 69.7622 -68.7622c0 -58.1944 -47.9566 -80.1944 -102.811 -80.1944c-23.6266 0 -50.2866 7 -66.7188 17.2111l14.6433 41.2699c15.8811 -9.5511 35.7622 -14.4322 54 -14.4322
c22.2378 0 43.9245 8.4489 43.4756 32.3567c-0.67 26.9245 -31.5945 38.3567 -78 42.3567z" />
    <glyph glyph-name="hungarumlaut" unicode="&#x2dd;" 
d="M128.838 692.076h82.8431l-111.611 -135.389h-52.0809zM270.038 692.076h83.292l-111.611 -135.389h-51.7509z" />
    <glyph glyph-name="ogonek" unicode="&#x2db;" 
d="M127.081 4.1189h54.4376c-15.3567 -19.1189 -55.6813 -63.9679 -55.6813 -103.011c0 -31.34 20.67 -49.4322 50.2111 -49.4322c17.5511 0 33.5511 4 46.1189 9.4489l12.6266 -42.7676c-19.5244 -15.1944 -53.5999 -22.4055 -77.6754 -22.4055
c-54.7188 0 -91.9132 29.6433 -91.9132 84.5732c0 49.2378 36.2645 96.67 61.8757 123.594z" />
    <glyph glyph-name="caron" unicode="&#x2c7;" 
d="M180.913 550h-59.7075l-95.3133 142.405h64.1831l60.0434 -95.9245h2l59.9245 95.9245h62.5131z" />
    <glyph glyph-name="emdash" unicode="&#x2014;" horiz-adv-x="1000" 
d="M30 282.032h940v-56.0642h-940v56.0642z" />
    <glyph glyph-name="AE" unicode="&#xc6;" horiz-adv-x="779" 
d="M82.5673 0h-83.8051l309.876 674h413.243v-67.4263h-287.264l26.1456 -221.882h250.762v-67.3241h-240.687l30.5945 -249.942h246.406v-67.4263h-315.594l-30.8056 242.914h-207.713zM221.205 308.568h171.606l-23.0167 196.47
c-3.5511 32.1189 -9.67 76.4923 -12 110.611h-3.67c-12.4489 -32.33 -28.6867 -70.4489 -43.9245 -106.476z" />
    <glyph glyph-name="ordfeminine" unicode="&#xaa;" horiz-adv-x="342" 
d="M301.275 266h-56.8431l-5.1022 42.5945h-2c-19.0922 -23.2211 -54.2111 -47.5945 -101.119 -47.5945c-66.4489 0 -102.762 43 -102.762 95.2111c0 70.8644 71.7455 116.67 200.789 113.432v10.2378c0 16.0267 -9.7889 63.9946 -75.2812 63.9946
c-31.6433 0 -61.6266 -8.4322 -85.1944 -26.67l-15.6433 41.1243c29.2378 21.0267 71.33 32.67 112.362 32.67c99.4055 0 125.243 -68.1189 125.243 -140.449v-106.551c0 -27.2111 1.5511 -54.0922 5.5511 -78zM235.119 370.957v56.7568
c-64.0434 1.8978 -139.395 -9.3133 -139.395 -68.189c0 -33.7134 27.9245 -52.7301 58.9512 -52.7301c31.4923 0 56.7301 17.6867 69.6379 37.2545c7.0167 9.7889 10.8056 20.3567 10.8056 26.9078z" />
    <glyph glyph-name="Lslash" unicode="&#x141;" horiz-adv-x="472" 
d="M451.605 0h-371.13v273.157l-84.5945 -62.7134v63.8264l84.5945 62.4923v337.238h81.3729v-281.319l134.476 97.8323v-64.8264l-134.476 -97.6112v-259.989h289.757v-68.0863z" />
    <glyph glyph-name="Oslash" unicode="&#xd8;" horiz-adv-x="685" 
d="M108.368 -40.5565l-45.962 36.7676l62.8056 87.7889c-56.0922 60.33 -88.3133 148.313 -88.3133 249.211c0 214.07 134.578 351.789 309.27 351.789c62.0267 0 120.951 -18.0267 169.638 -54.6379l59.6867 81l49.5131 -33.6754l-62.3567 -86.1189
c55.3133 -60.8811 86.4322 -148.762 86.4322 -248.449c0 -236.4 -145.925 -354.119 -304.811 -354.119c-64.7134 0 -124.427 19.4756 -172.784 56.2057zM172.935 152.967l302.552 417.714c-35.1623 30.2812 -78.6813 48.8757 -131.217 48.8757
c-150.065 0 -224.778 -139.963 -224.778 -281.887c0 -77.0213 20.3834 -132.989 51.6646 -185.703zM513.924 520.838l-302.119 -416.282c34.7301 -32.0701 74.2324 -50.1135 130.795 -50.1135c144.157 0 223.887 132.606 223.887 285.676
c0 59.0868 -12.8056 121.632 -49.8924 180.719h-2.67z" />
    <glyph glyph-name="OE" unicode="&#x152;" horiz-adv-x="889" 
d="M853.038 67.4263v-67.4263h-340.945c-20.1189 0 -42.6867 -3 -66.6867 -6c-25.1189 -2 -51.5678 -5 -83.4489 -5c-206.794 0 -325.059 149.287 -325.059 343.449c0 222.027 137.221 352.551 330.627 352.551c34.8811 0 62.7622 -2.5511 87.4322 -5
c25 -3 46 -5.5511 64.4489 -6h318.183v-67.4263h-277.951v-220.779h262.281v-67.5452h-262.281v-250.823h293.4zM478.043 68.8919v535.114c-26.4756 8.5511 -59.6112 14.67 -108.681 14.67c-155.319 0 -247.557 -116.157 -247.006 -282.676
c-0.5511 -167.368 93.7568 -280.676 254.887 -280.676c38.2812 0 77.6646 5.1189 100.8 13.5678z" />
    <glyph glyph-name="ordmasculine" unicode="&#xba;" horiz-adv-x="351" 
d="M177.151 591c96.6433 0 157.736 -69 157.736 -162.67c-1 -115.898 -83.33 -167.33 -159.287 -167.33c-88.6433 0 -157.957 64 -157.957 162c0 104.238 75.6867 168 159.508 168zM175.6 543.443c-65.3079 0 -94.9191 -63.4923 -94.9191 -118.443
c0 -67.9679 44.7568 -116.443 95.4702 -116.443c54.849 0 95.368 46.9245 95.368 117.443c0 50.9245 -27.8056 117.443 -95.9191 117.443z" />
    <glyph glyph-name="ae" unicode="&#xe6;" horiz-adv-x="769" 
d="M730.724 235.47h-326.179c-3.3567 -119.465 64.3734 -182.341 157.103 -182.341c67.0267 0 105.476 15.3567 130.864 27.67l15.6433 -58.3675c-36.7021 -19.7455 -92.8865 -33.4322 -156.345 -33.4322c-82.8978 0 -156.568 39.1456 -183.762 109.206h-2.33
c-29.7455 -68.849 -97 -109.206 -179.881 -109.206c-100.194 0 -149.362 67.8811 -149.362 136.151c0 111.524 102.719 177.211 291.789 175.092v20.3567c0 24.7134 -14.1022 112.557 -114.308 112.557c-45.3133 0 -94.6433 -16.4322 -123.643 -36.5511l-19.9566 54.1564
c43.9245 27.9245 103.238 43.4322 149.124 43.4322c87.5945 0 136.687 -41.3834 155.643 -104.546h2c32.1944 64.5023 91.9833 104.546 169.119 104.546c148.238 0 187.032 -144.638 187.032 -220.794c0 -14.6433 -0.8811 -28.7188 -2.5511 -37.9299zM329.476 171.194
v72.7568c-93.3834 2.4489 -212.287 -13.1944 -212.287 -111.708c0 -52.2812 39.0434 -81.8757 86.3246 -81.8757c65.8924 -0.4489 107.174 39.9512 121.293 85.9191c3.67 10.7889 4.67 22.9078 4.67 34.9078zM404.773 294.957h249.763
c2.34 50.189 -25.9412 140.411 -116.698 140.411c-89.4435 0 -130.276 -83.3246 -133.065 -140.411z" />
    <glyph glyph-name="dotlessi" unicode="&#x131;" horiz-adv-x="229" 
d="M155.756 0h-81.4751v483.194h81.4751v-483.194z" />
    <glyph glyph-name="lslash" unicode="&#x142;" horiz-adv-x="237" 
d="M159.637 0h-81.594v294.049l-68.5678 -59.2545v65.4864l68.5678 59.4756v350.243h81.594v-286.784l71 60.9078v-66.1564l-71 -61.2378v-356.73z" />
    <glyph glyph-name="oslash" unicode="&#xf8;" horiz-adv-x="545" 
d="M274.719 494.194c44 0 87.2378 -11.7889 123.687 -35.1456l41.3133 59.4055l38.0488 -26.2866l-42.2111 -62.0922c46.6433 -45 72.4055 -109.551 72.4055 -184.524c0 -177.789 -122.313 -256.551 -234.362 -256.551c-45.5678 0 -89.0267 11.2378 -124.476 34.5945
l-43.0922 -59.9566l-35.5999 29.7355l42.2111 59.1944c-46.5244 43.67 -74.2866 107.551 -74.2866 186.076c0 161.476 106.119 255.551 236.362 255.551zM157.156 115.011l203.482 287.222c-22.5945 19.2545 -52.0868 30.1623 -87.9191 30.1623
c-110.47 0 -154.751 -102.325 -154.751 -191.632c0 -43.849 11.0267 -88.4702 37.189 -125.53zM389.713 365.53l-202.703 -285.568c24.0434 -20.4756 52.3079 -29.0434 83.4702 -29.0434c93.9946 0 157.649 81.2057 157.649 192.081
c0 33.7134 -8.6867 82.3513 -36.0868 122.081z" />
    <glyph glyph-name="oe" unicode="&#x153;" horiz-adv-x="861" 
d="M822.838 229.8h-330.308c-0.0167 -114.676 69.0267 -176.449 163.232 -176.449c60.1189 0 97.1189 13.5678 129.194 27.4489l16.0922 -59.0375c-38.3788 -21.0755 -101.319 -32.7622 -155.573 -32.7622c-84.8323 0 -154.519 36.2812 -192.162 117.13h-2.5511
c-35.1944 -80.5357 -112.568 -117.13 -187.687 -117.13c-127.762 0 -224.719 97.1189 -224.719 249.643c0 157.687 101.881 255.551 230.032 255.551c83.6112 0 154.4 -42.8323 184.162 -118.351h2c36.2111 78.7568 101.779 118.351 177.584 118.351
c155 0 193.583 -142.519 193.583 -224.583c0 -16.9733 -0.8811 -31.3788 -2.8811 -39.811zM269.362 432.395c-109.249 0 -147.87 -107.232 -147.87 -191.632c0 -107.325 62.5624 -189.844 147.54 -189.844c87.7735 0 146.768 77.519 146.768 190.844
c0 93.0701 -43.7301 190.632 -146.438 190.632zM492.2 288.838h254c1.4489 56.0868 -22.7134 145.979 -121.038 145.979c-89.5624 0 -127.276 -83.1035 -132.962 -145.979z" />
    <glyph glyph-name="germandbls" unicode="&#xdf;" horiz-adv-x="542" 
d="M155.756 0h-81.4751v453.876c0 114 26.8811 177.313 70.9733 217.406c36.4155 33.5244 83.5832 49.7188 143.064 49.7188c92.4376 0 174.275 -58.7188 174.275 -167.481c0 -34.9078 -11.7889 -65.7889 -22.5511 -82c-45.3567 -19 -72.9512 -46.7889 -72.9512 -81.8323
c0 -35.9412 20.5945 -56.7301 52.519 -88.7568c40.0267 -40.6867 81.1189 -82.1189 81.1189 -153.762c0 -93.5244 -67.6433 -158.168 -177.005 -158.168c-37.4489 0 -76.8811 6.8978 -106 21.3567l15.4322 62.6808c26.9245 -12.9078 55.1623 -20.0267 85.849 -20.0267
c66.2057 0 100.919 39.0701 100.919 87.038c0 43.189 -19.2545 71.9024 -56.0868 106.157c-42.5945 40.0267 -77.2211 77.4489 -77.2211 132.076c0 51.4489 31.4589 94.4322 89.5945 122.881c5 11.67 8.2211 26.6867 8.2211 43.9245
c0 70.9946 -42.8323 111.351 -106.114 111.351c-78.8757 0 -122.562 -55.4001 -122.562 -199.606v-456.832z" />
    <glyph glyph-name="onesuperior" unicode="&#xb9;" horiz-adv-x="238" 
d="M171.4 443h-65.113v331.487h-2l-71.5244 -34.33l-10.6433 49.0809l91.9132 43.7622h57.3675v-390z" />
    <glyph glyph-name="logicalnot" unicode="&#xac;" horiz-adv-x="596" 
d="M40 397.005h516v-274.605h-60.5131v217.643h-455.487v56.962z" />
    <glyph glyph-name="mu" unicode="&#xb5;" horiz-adv-x="549" 
d="M403.832 75.9245h-3c-20.6867 -38.1189 -68.0434 -85.0434 -140.308 -85.0434c-45.9679 0 -88.368 16.3567 -109.725 55.4435v-61.6379c0 -53.4489 1.33 -142.119 10.67 -182.687h-73.1885c-10.4489 30.8056 -14 100.762 -14 178.119v503.075h80.924v-286.832
c0 -76.0434 32.0267 -139.589 112.606 -139.589c59.6379 0 102.47 42.5023 118.946 83.2324c5 12.9078 8.5678 29.5945 8.5678 46.2812v296.908h80.924v-352.427c0 -54.4923 10.4322 -76.0868 46.3567 -78.5357l-6.5511 -59.5886
c-10.66 -2.7622 -14.9299 -3.6433 -28.3354 -3.6433c-41.151 0 -76.811 23.7622 -83.8865 86.9245z" />
    <glyph glyph-name="trademark" unicode="&#x2122;" horiz-adv-x="615" 
d="M30.6867 674h226.389v-42.6754h-87.5945v-229.655h-51.1998v229.655h-87.5945v42.6754zM602.962 401.67h-51.4376l-10.6867 163.963c-0.67 20.4055 -1.1189 45.3621 -2.1189 73.5298h-2.8811c-7 -22.7188 -15.33 -54.2432 -22.5511 -78.4376l-51.6546 -154.725h-53.2265
l-51.1135 158.514c-5 20.1944 -13.5678 51.481 -19.4489 74.6487h-2.8811c0 -24.1677 -1 -49.0054 -2 -73.5298l-10.6867 -163.963h-49.4376l20.2378 272.33h77.0108l49.3513 -139.525c6.8978 -20.2211 11.5678 -40.1022 18.1189 -66.9132h1.7789
c6.2211 23.6266 12.67 47.1677 17.7722 65.7943l50.0113 140.644h74.8164z" />
    <glyph glyph-name="Eth" unicode="&#xd0;" horiz-adv-x="667" 
d="M-1.9078 309.443v64.9941h83.3834v292.562c52.7622 9 115.168 15 182.794 15c124.541 0 214.568 -29.9245 273.211 -85.7301c59.2866 -54.7889 93.6921 -133.313 93.6921 -243.27c0 -108.913 -33.4977 -198.692 -95.5999 -261.838
c-63.3033 -63.5678 -167.168 -98.3734 -297.498 -98.3734c-60.7021 0 -112.124 2.2111 -156.6 7.2111v309.443h-83.3834zM347.168 374.438v-64.9941h-184.768v-246.763c23.0434 -3.4489 56.2057 -4.1189 90.9358 -4.1189c191.659 0 292.821 105.8 292.821 294.006
c0.67 162.519 -89.9245 264.319 -278.719 264.319c-46.1623 0 -80.9946 -4.4489 -105.038 -9.2378v-233.212h184.768z" />
    <glyph glyph-name="onehalf" unicode="&#xbd;" horiz-adv-x="752" 
d="M178.756 266h-65.5619v332.157h-1.67l-71.4055 -35l-10.7622 49.5298l91.3621 43.3133h58.0375v-390zM169.518 -11h-53.7676l380.492 672h53.9887zM436.13 0v35.2432l63.1189 58.9078c83.0267 76.7034 126.264 124.655 126.264 176.13
c0 39.0434 -23.7889 71.8757 -77.189 71.8757c-35.5678 0 -65.4489 -17.9078 -83.8811 -31.5678l-19.9566 42.8598c26.1944 22.5511 70.2699 41.5511 120.005 41.5511c93.8644 0 130.464 -59.8056 130.464 -112.075c0 -75.2378 -57.1189 -131.281 -134.308 -199.919
l-31.8056 -28.5945v-2.33h173.114v-52.0809h-265.826z" />
    <glyph glyph-name="plusminus" unicode="&#xb1;" horiz-adv-x="596" 
d="M267.968 571.076h60.5131v-196.427h227.519v-56.962h-227.519v-202.443h-60.5131v202.443h-227.968v56.962h227.968v196.427zM40 56.962h516v-56.962h-516v56.962z" />
    <glyph glyph-name="Thorn" unicode="&#xde;" horiz-adv-x="525" 
d="M77.0434 0v674h79.594v-132.713c28.3734 5.2378 61.7568 7.4589 97.2812 7.4589c79.4489 0 137.33 -18.7889 177.194 -54.67c34.5244 -32.4322 54.7355 -77.6266 54.7355 -129.151c0 -140.005 -105.719 -211.481 -252.287 -211.481
c-27.7622 0 -55.4489 1.8811 -76.9245 5v-158.444h-79.594zM156.637 476.395v-251.389c23.5945 -5.1189 50.6112 -6.4489 76.7301 -6.4489c110.562 0 171.438 53.0434 171.438 137.936c0 88.6646 -64.2057 128.021 -157.844 128.021
c-40.4756 0 -73.6379 -3.67 -90.3246 -8.1189z" />
    <glyph glyph-name="onequarter" unicode="&#xbc;" horiz-adv-x="752" 
d="M193.324 266h-65.5619v332.157h-1.67l-71.0755 -35l-11.0922 49.5298l91.9132 43.3133h57.4864v-390zM188.611 -11h-53.7676l380.713 672h53.7676zM656.194 0h-63.5886v103.832h-189.211v38.4543l178.832 249.595h73.9674v-240.713h55.6867v-47.3354h-55.6867v-103.832z
M592.605 151.168v121.421c0 22.2111 1.8811 42.9733 2.8811 62.1677l-2.33 0.4489c-12 -22.8811 -21.8811 -40.5244 -33.4322 -58.0755l-89.9358 -124.741l0.66 -1.2211h122.157z" />
    <glyph glyph-name="divide" unicode="&#xf7;" horiz-adv-x="596" 
d="M298 388.638c-30.3888 0 -51.2432 23.1944 -50.7943 53.3621c0 31.7188 21.0755 53.9132 51.4643 53.9132c30.4977 0 50.5732 -22.1944 50.5732 -53.9132c0 -30.1677 -19.8544 -53.3621 -51.2432 -53.3621zM556 238.519h-516v56.962h516v-56.962zM298 38.0868
c-30.3888 0 -51.2432 23.1944 -50.7943 53.3621c0 31.7188 21.0755 53.9132 51.4643 53.9132c30.4977 0 50.5732 -22.1944 50.5732 -53.9132c0 -30.1677 -19.8544 -53.3621 -51.2432 -53.3621z" />
    <glyph glyph-name="brokenbar" unicode="&#xa6;" horiz-adv-x="234" 
d="M85.8811 174h63.0375v-350h-63.0375v350zM85.8811 674h63.0375v-350h-63.0375v350z" />
    <glyph glyph-name="degree" unicode="&#xb0;" horiz-adv-x="313" 
d="M160.481 685c81.4055 0 130.243 -61.1944 130.243 -128.481c0 -79.8644 -64.6433 -132.719 -132.362 -132.719c-77.2866 0 -129.243 58.6433 -129.243 127.151c-0.5511 76.1944 58.0755 134.049 131.362 134.049zM159.362 640.325
c-52.5945 0 -78.8056 -45.9245 -78.8056 -88.5945c0 -46.2378 34.2378 -82.8056 78.8056 -82.8056c45.6867 0 79.4756 36.7889 79.4756 86.1456c0 36.8811 -21.7622 85.2545 -79.4756 85.2545z" />
    <glyph glyph-name="thorn" unicode="&#xfe;" horiz-adv-x="566" 
d="M74.2812 710h80.924v-304.876h2c32.7889 54.0434 86.9245 89.0701 166.308 89.0701c115.043 0.8811 204.779 -97.4756 204.779 -245.864c0 -177.092 -110.184 -259.33 -220.33 -259.33c-64.3567 0 -118.951 28.2378 -150.757 78.0868h-2v-265.087h-80.924v908z
M155.205 279.762v-89.3567c0 -14 3.4322 -31.2111 9.3133 -44.2111c19.2378 -57.2324 72.4435 -92.6325 133.006 -92.6325c88.5457 0 148.514 74.6379 148.514 193.438c0 97.7568 -54.0701 182.2 -146.751 182.2c-57.9679 0 -113.174 -38.519 -134.53 -99.5136
c-4.5511 -14.2378 -9.5511 -33.3567 -9.5511 -49.9245z" />
    <glyph glyph-name="threequarters" unicode="&#xbe;" horiz-adv-x="752" 
d="M66.5678 585.232l-17.0922 44.7676c22.9733 14.8811 64.481 31 112.438 31c85.2866 0 120.454 -45.67 120.454 -93.6433c0 -39.4322 -28.9733 -73.5511 -75.9733 -90.1189v-2c54.33 -8.1189 92.0922 -46.3567 92.0922 -97.3567
c0 -61.4055 -54.3788 -116.881 -155.454 -116.881c-47.7455 0 -90.5999 13.1189 -112.794 28l17.6433 46.8698c15.3133 -10.5511 54.5244 -26 92.6433 -26c63.4268 0 89.9679 37.9679 89.189 69.6546c-0.67 51.9679 -54.3834 72.2057 -107.757 72.2057h-26.9833v44.1243
h27.5511c37.2378 0 91.9512 17.4756 91.9512 65.0968c0 25.1356 -18.5678 51.179 -63.7134 51.179c-36.4489 0 -68.8811 -15.8978 -84.1944 -26.8978zM225.967 -11h-53.7676l380.713 672h53.7676zM666.643 0h-63.3675v103.832h-188.762v38.4543l178.941 249.595h73.1885
v-240.713h56.2378v-47.3354h-56.2378v-103.832zM603.275 151.168v121.421c0 22.2111 2.33 42.9733 3.33 62.1677l-2 0.4489c-12.33 -22.8811 -22.2111 -40.5244 -33.8811 -58.0755l-90.038 -124.741l0.8811 -1.2211h121.708z" />
    <glyph glyph-name="twosuperior" unicode="&#xb2;" horiz-adv-x="306" 
d="M11.7622 443v34.9132l63.1189 58.5678c83.4756 76.5945 126.713 124.876 126.713 176.47c0 39.0434 -23.7889 71.2057 -77.6379 71.2057c-35.1189 0 -65.4489 -17.6867 -83.4322 -30.7889l-19.9566 42.302c25.7455 22.33 70.2699 42.33 119.556 42.33
c93.6433 0 130.913 -60.4756 130.913 -112.076c0 -76.2378 -57.5678 -132.281 -134.308 -200.249l-31.8056 -29.0434v-2h172.665v-51.632h-265.826z" />
    <glyph glyph-name="registered" unicode="&#xae;" horiz-adv-x="414" 
d="M181.556 501.832v-66.1456h-36.8377v164.357c15.2378 2.67 35.8811 5 62.0755 5c30.6433 0 44.9733 -5 56.1944 -12.4489c10.1089 -7 17.1089 -19.67 17.1089 -35.2211c0 -19.0167 -14.7789 -32.5678 -34.2111 -38.5678v-2c15.8811 -6 24.4322 -18.7789 29.4322 -40.33
c5 -25.1189 8.33 -34.7889 12 -40.7889h-39.5999c-5 6 -8.4489 20.67 -12.67 40.8056c-3.4489 17.67 -13.5678 25.34 -34.9245 25.34h-18.5678zM182.108 576.4v-47.5945h19.0167c21.2378 0 38.5945 7 38.5945 24.3567c0 15.1189 -10.5511 24.9078 -35.9245 24.9078
c-10.2378 0 -16.9078 -1 -21.6867 -1.67zM208.243 685c93.8644 0 166.957 -72.3133 166.957 -163.076c0 -92.7622 -73.0922 -165.075 -166.957 -165.075c-93.3133 0 -167.957 72.3133 -167.957 165.075c0 90.7622 74.6433 163.076 167.957 163.076zM208.243 652.264
c-72.67 0 -127.119 -58.67 -127.119 -130.67c0 -73.1189 54.4489 -131.119 127.789 -131.119c72 0 125 58 125 130.449c0 72.67 -53 131.34 -125.67 131.34z" />
    <glyph glyph-name="minus" unicode="&#x2212;" horiz-adv-x="596" 
d="M40 295.481h516v-56.962h-516v56.962z" />
    <glyph glyph-name="eth" unicode="&#xf0;" horiz-adv-x="537" 
d="M265.243 50.9186c90.8924 0 148.438 80.0868 148.438 191.751c0 64.6112 -9.1189 105.087 -35.1623 137.13c-22.3567 25.8056 -56.849 48.849 -109.606 48.849c-106.351 0 -147.421 -109.562 -147.421 -191.319c0 -104.562 61.5624 -186.411 143.751 -186.411z
M117.043 509.8l-18.0755 41.811l116.713 55.5945c-30 22.2378 -67.8056 42.9245 -105.492 60.8323l36.0976 52.0809c47.3133 -21.7889 96.9566 -50.1189 139.032 -80.67l126.957 60.67l20.4055 -42.151l-105.67 -50.6867
c55.2378 -45.6867 98.5778 -99.9245 128.027 -159.595c27.33 -56.1189 42.4489 -120.238 42.4489 -195.373c0.2211 -185.221 -117.854 -263.313 -232.243 -263.313c-129.719 0 -226.887 96.4489 -226.887 246.881c0 158.162 110 249.281 223.719 249.281
c38.849 0 76.2491 -7.6867 115.319 -44.9946l2 3c-28.9078 49.0701 -67.9512 93.0213 -120.47 132.87z" />
    <glyph glyph-name="multiply" unicode="&#xd7;" horiz-adv-x="596" 
d="M40 484.325l41.3454 41.6754l216.655 -220.876l216.325 220.876l41.6754 -41.6754l-216.546 -221.325l216.546 -221.325l-42.1243 -41.6754l-215.876 220.546l-216.325 -220.546l-41.6754 41.6754l216.325 221.325z" />
    <glyph glyph-name="threesuperior" unicode="&#xb3;" 
d="M44.8811 761.562l-17.0922 44.8865c23.4222 14.4322 64.9299 31.5511 112.886 31.5511c85.2866 0 120.454 -46.1189 120.454 -94.3133c0 -39.7622 -29.4222 -73.33 -76.1944 -90.1189v-2c54.2211 -7.4489 92.3133 -46.6867 92.3133 -97.0167
c0 -61.0755 -54.5999 -116.551 -155.675 -116.551c-47.9733 0 -91.0488 12.4489 -113.022 27.33l18.0922 47.3187c15.3133 -10.33 54.5244 -26 92.3133 -26c63.5357 0 89.519 37.6379 88.849 69.3246c0 52.189 -54.1623 72.4268 -107.757 72.4268h-26.7622v43.6754h27.5511
c37.2378 0 91.7301 17.8056 92.4001 65.3246c0 25.2378 -18.5678 51.4001 -64.1623 51.4001c-36 0 -68.4322 -16.2378 -84.1944 -27.2378z" />
    <glyph glyph-name="copyright" unicode="&#xa9;" horiz-adv-x="677" 
d="M340 648c169.33 0 300.762 -138 300.762 -308c0 -172 -131.432 -310 -300.762 -310c-170.33 0 -303.313 138 -303.313 310c0 170 132.983 308 303.313 308zM339.67 608.07c-144.265 0 -254.832 -117.908 -254.832 -271.189c0 -150.043 110.568 -266.951 254.832 -266.951
c141.924 0 252.492 116.908 252.492 269.74c0 150.492 -110.568 268.4 -252.492 268.4zM474 493.449l-11.4322 -38.3788c-13.4489 7.7789 -49.8811 23.4489 -97.8978 23.4489c-94.7401 0 -141.07 -60.9512 -141.07 -141.519c0 -78.8056 49 -142.519 142.189 -142.519
c40.7789 0 78.4489 10.67 101.898 26.1189l11.7622 -36.2699c-35 -23.7789 -81.4489 -31.33 -123.33 -31.33c-115.881 0 -182.881 79.67 -182.881 181c0 113.551 89.8811 186 190.762 186c52.2378 0 96.5511 -15 110 -26.5511z" />
    <glyph glyph-name="Aacute" unicode="&#xc1;" horiz-adv-x="607" 
d="M424.925 215.844h-243.319l-71.8757 -215.844h-83.8051l231.444 674h95.6749l232.206 -674h-86.1184zM198.919 279.524h208.363l-68.8924 198.676c-14.7889 44.3567 -24.67 83.6433 -34.67 122.194h-2c-10 -39.2211 -20.67 -79.5077 -33.7889 -121.075zM348.713 826.194
h101.086l-127.687 -116.194h-66.5452z" />
    <glyph glyph-name="Acircumflex" unicode="&#xc2;" horiz-adv-x="607" 
d="M424.925 215.844h-243.319l-71.8757 -215.844h-83.8051l231.444 674h95.6749l232.206 -674h-86.1184zM198.919 279.524h208.363l-68.8924 198.676c-14.7889 44.3567 -24.67 83.6433 -34.67 122.194h-2c-10 -39.2211 -20.67 -79.5077 -33.7889 -121.075zM276.806 823.405
h62.5619l105.238 -113.405h-70.5131l-64.7301 69.9245h-2l-64.9512 -69.9245h-68.1731z" />
    <glyph glyph-name="Adieresis" unicode="&#xc4;" horiz-adv-x="607" 
d="M424.925 215.844h-243.319l-71.8757 -215.844h-83.8051l231.444 674h95.6749l232.206 -674h-86.1184zM198.919 279.524h208.363l-68.8924 198.676c-14.7889 44.3567 -24.67 83.6433 -34.67 122.194h-2c-10 -39.2211 -20.67 -79.5077 -33.7889 -121.075zM215.838 719.476
c-28.2866 0 -46.7943 22.8544 -46.7943 49.3621c0 26.8377 20.4055 48.811 47.7943 48.811c26.4055 0 45.811 -21.5244 45.811 -48.811c0 -26.5077 -17.9566 -49.3621 -46.811 -49.3621zM399.292 719.476c-28.6166 0 -46.5732 22.8544 -46.5732 49.3621
c0 26.8377 20.4055 48.811 47.2432 48.811c27.2866 0 46.3621 -21.5244 46.3621 -48.811c0 -26.5077 -17.9566 -49.3621 -47.0321 -49.3621z" />
    <glyph glyph-name="Agrave" unicode="&#xc0;" horiz-adv-x="607" 
d="M424.925 215.844h-243.319l-71.8757 -215.844h-83.8051l231.444 674h95.6749l232.206 -674h-86.1184zM198.919 279.524h208.363l-68.8924 198.676c-14.7889 44.3567 -24.67 83.6433 -34.67 122.194h-2c-10 -39.2211 -20.67 -79.5077 -33.7889 -121.075zM160.924 826.194
h101.756l92.9245 -115.643h-66.3241z" />
    <glyph glyph-name="Aring" unicode="&#xc5;" horiz-adv-x="607" 
d="M424.925 215.844h-243.319l-71.8757 -215.844h-83.8051l231.444 674h95.6749l232.206 -674h-86.1184zM198.919 279.524h208.363l-68.8924 198.676c-14.7889 44.3567 -24.67 83.6433 -34.67 122.194h-2c-10 -39.2211 -20.67 -79.5077 -33.7889 -121.075zM306.032 876.692
c60.3788 0 97.9299 -39.7622 97.9299 -89.8544c0 -49.3133 -40.8811 -87.6266 -97.9299 -87.6266c-58.9399 0 -98.151 38.9833 -98.151 87.0755c0 49.6433 37.8811 90.4055 98.151 90.4055zM305.032 841.643c-30.67 0 -48.2378 -26.1189 -48.2378 -55.3567
c0 -26.0167 19.5678 -51.8056 48.2378 -51.8056c29.4489 0 48.6867 23.7889 48.6867 53.8056c0 28.9078 -19.2378 53.3567 -48.6867 53.3567z" />
    <glyph glyph-name="Atilde" unicode="&#xc3;" horiz-adv-x="607" 
d="M424.925 215.844h-243.319l-71.8757 -215.844h-83.8051l231.444 674h95.6749l232.206 -674h-86.1184zM198.919 279.524h208.363l-68.8924 198.676c-14.7889 44.3567 -24.67 83.6433 -34.67 122.194h-2c-10 -39.2211 -20.67 -79.5077 -33.7889 -121.075zM229.649 715.449
h-45.0054c-1.33 58.5565 24.3133 99.4376 66.9566 99.4376c22.0922 0 38.0755 -8.5511 59.3133 -20.4489c16.33 -8.8811 32.4489 -17.8811 48.0167 -17.8811c15.5511 0 24.67 7.2111 27 38.7622h44.3454c0.8811 -59.9887 -20.6433 -94.3187 -66.0588 -94.3187
c-20.9733 0 -38.8544 7.5511 -60.7622 19.4489c-19.4489 10 -33.0167 18.67 -47.6867 18.67c-16.2378 0 -23.4489 -17.2378 -26.1189 -43.67z" />
    <glyph glyph-name="Ccedilla" unicode="&#xc7;" horiz-adv-x="577" 
d="M341.359 -3.08398h51.7676l-32.9248 -53.5674c38 -6.43262 70.4326 -33.5518 70.4326 -73.7461c0 -57.168 -49.8379 -80.168 -101.481 -80.168c-25.3135 0 -52.5078 7 -69.5996 17.2119l14.0918 43.0322c15 -7.55176 33.3135 -13.3301 55.1025 -13.3301
c23.2373 0 42.8057 9.56738 42.8057 31.2539c0 26.5781 -31.4756 38.3564 -77.8809 42.9082zM528.405 86.5615l16.8643 -64.3232c-31.9072 -16.5684 -96.3564 -32.2383 -178.026 -32.2383c-185.8 0 -330.346 117.438 -330.346 341.238
c0 209.691 140.346 353.762 349.702 353.762c83.9082 0 137.211 -18.1191 159.974 -30l-20.7354 -65.9941c-33.1191 15.7891 -80.0273 27.7891 -136.476 27.7891c-161.844 0 -267.558 -103.682 -267.558 -283.362c0 -167.471 96.8496 -275.228 262.752 -275.228
c54.2539 0 108.492 11.1191 143.849 28.3564z" />
    <glyph glyph-name="Eacute" unicode="&#xc9;" horiz-adv-x="487" 
d="M420.919 385.794v-66.8752h-262.951v-251.493h293.849v-67.4263h-374.773v674h359.324v-67.4263h-278.4v-220.779h262.951zM303.281 826.194h101.086l-127.687 -116.194h-66.9941z" />
    <glyph glyph-name="Ecircumflex" unicode="&#xca;" horiz-adv-x="487" 
d="M420.919 385.794v-66.8752h-262.951v-251.493h293.849v-67.4263h-374.773v674h359.324v-67.4263h-278.4v-220.779h262.951zM223.119 823.405h62.5619l105.238 -113.405h-70.5131l-64.9512 69.9245h-2l-65.0601 -69.9245h-68.0642z" />
    <glyph glyph-name="Edieresis" unicode="&#xcb;" horiz-adv-x="487" 
d="M420.919 385.794v-66.8752h-262.951v-251.493h293.849v-67.4263h-374.773v674h359.324v-67.4263h-278.4v-220.779h262.951zM162.194 721.595c-28.5077 0 -47.4643 22.4055 -47.4643 49.3621c0 26.6166 20.6266 48.3621 47.9132 48.3621
c26.9566 0 45.9132 -21.5244 45.9132 -48.3621c0 -26.9566 -17.9566 -49.3621 -46.3621 -49.3621zM345.319 721.595c-28.2866 0 -46.9132 22.4055 -46.9132 49.3621c0 26.6166 20.0755 48.3621 47.6921 48.3621c27.1777 0 46.1343 -21.5244 46.1343 -48.3621
c0 -26.9566 -17.9566 -49.3621 -46.9132 -49.3621z" />
    <glyph glyph-name="Egrave" unicode="&#xc8;" horiz-adv-x="487" 
d="M420.919 385.794v-66.8752h-262.951v-251.493h293.849v-67.4263h-374.773v674h359.324v-67.4263h-278.4v-220.779h262.951zM119.594 826.194h101.086l93.5945 -115.643h-66.5452z" />
    <glyph glyph-name="Iacute" unicode="&#xcd;" horiz-adv-x="234" 
d="M77.0434 674h80.924v-674h-80.924v674zM160.255 826.194h101.307l-128.357 -116.194h-66.3241z" />
    <glyph glyph-name="Icircumflex" unicode="&#xce;" horiz-adv-x="234" 
d="M77.0434 674h80.924v-674h-80.924v674zM85.4489 823.405h62.5619l105.238 -113.405h-70.292l-64.9512 69.9245h-2l-64.9512 -69.9245h-68.1731z" />
    <glyph glyph-name="Idieresis" unicode="&#xcf;" horiz-adv-x="234" 
d="M77.0434 674h80.924v-674h-80.924v674zM26.3888 721.595c-28.5077 0 -47.4643 22.4055 -47.4643 49.3621c0 26.6166 20.9566 48.3621 48.2432 48.3621c26.9566 0 46.0321 -21.5244 46.0321 -48.3621c0 -26.9566 -18.4055 -49.3621 -46.811 -49.3621zM209.843 721.595
c-28.2866 0 -47.2432 22.4055 -47.2432 49.3621c0 26.6166 20.4055 48.3621 47.9132 48.3621c27.2866 0 46.6921 -21.5244 46.6921 -48.3621c0 -26.9566 -18.7355 -49.3621 -47.3621 -49.3621z" />
    <glyph glyph-name="Igrave" unicode="&#xcc;" horiz-adv-x="234" 
d="M77.0434 674h80.924v-674h-80.924v674zM-25.2111 826.194h101.535l92.9245 -115.643h-66.3241z" />
    <glyph glyph-name="Ntilde" unicode="&#xd1;" horiz-adv-x="654" 
d="M153.113 0h-76.0696v674h87.405l223.238 -349.427c50.1456 -79.9245 89.1456 -149.643 121.264 -218.168l2 0.67c-7.5511 90.4489 -9.4322 171.854 -9.4322 276.643v290.282h76.8485v-674h-81.5673l-220.763 349.265c-47.0267 76.0167 -92.4756 152.303 -126.595 224.498
l-2.5511 -1c5 -84.7622 6.2211 -164.811 6.2211 -276.481v-296.282zM254.794 715.449h-45.0054c-1.5511 58.5565 24.0922 99.4376 67.4055 99.4376c21.6433 0 37.8544 -8.5511 58.6433 -20.4489c16.33 -8.8811 32.4489 -17.8811 48.2378 -17.8811
c15.33 0 24.8978 7.2111 27.4489 38.7622h44.0054c0.5511 -59.9887 -20.5244 -94.3187 -66.1677 -94.3187c-20.9733 0 -38.4055 7.5511 -60.7622 19.4489c-19 10 -32.7889 18.67 -47.2378 18.67c-16.2378 0 -24.1189 -17.2378 -26.5678 -43.67z" />
    <glyph glyph-name="Oacute" unicode="&#xd3;" horiz-adv-x="685" 
d="M347.27 685c182.005 0 301.811 -139.6 301.811 -341c0 -232.713 -141.476 -355 -310.913 -355c-176.573 0 -301.27 137.168 -301.27 341.881c0 214.832 132.01 354.119 310.372 354.119zM344.049 618.676c-148.86 0 -221.693 -136.725 -221.693 -285.795
c0 -145.281 79.519 -277.557 220.574 -277.557c141.606 0 220.914 129.47 220.914 284.795c0 135.281 -71.2812 278.557 -219.795 278.557zM384.713 828.643h101.535l-128.136 -115.524h-66.5452z" />
    <glyph glyph-name="Ocircumflex" unicode="&#xd4;" horiz-adv-x="685" 
d="M347.27 685c182.005 0 301.811 -139.6 301.811 -341c0 -232.713 -141.476 -355 -310.913 -355c-176.573 0 -301.27 137.168 -301.27 341.881c0 214.832 132.01 354.119 310.372 354.119zM344.049 618.676c-148.86 0 -221.693 -136.725 -221.693 -285.795
c0 -145.281 79.519 -277.557 220.574 -277.557c141.606 0 220.914 129.47 220.914 284.795c0 135.281 -71.2812 278.557 -219.795 278.557zM310.594 826.194h62.5619l105.238 -113.075h-70.5131l-64.9512 69.4756h-2l-64.7301 -69.4756h-68.3942z" />
    <glyph glyph-name="Odieresis" unicode="&#xd6;" horiz-adv-x="685" 
d="M347.27 685c182.005 0 301.811 -139.6 301.811 -341c0 -232.713 -141.476 -355 -310.913 -355c-176.573 0 -301.27 137.168 -301.27 341.881c0 214.832 132.01 354.119 310.372 354.119zM344.049 618.676c-148.86 0 -221.693 -136.725 -221.693 -285.795
c0 -145.281 79.519 -277.557 220.574 -277.557c141.606 0 220.914 129.47 220.914 284.795c0 135.281 -71.2812 278.557 -219.795 278.557zM251.313 721.595c-28.5077 0 -47.2432 22.4055 -47.2432 49.3621c0 26.6166 20.4055 48.3621 47.6921 48.3621
c26.9566 0 46.3621 -21.5244 46.3621 -48.3621c0 -26.9566 -18.4055 -49.3621 -46.811 -49.3621zM434.438 721.595c-28.2866 0 -46.9132 22.4055 -46.9132 49.3621c0 26.6166 20.0755 48.3621 47.9132 48.3621c26.9566 0 46.3621 -21.5244 46.3621 -48.3621
c0 -26.9566 -18.4055 -49.3621 -47.3621 -49.3621z" />
    <glyph glyph-name="Ograve" unicode="&#xd2;" horiz-adv-x="685" 
d="M347.27 685c182.005 0 301.811 -139.6 301.811 -341c0 -232.713 -141.476 -355 -310.913 -355c-176.573 0 -301.27 137.168 -301.27 341.881c0 214.832 132.01 354.119 310.372 354.119zM344.049 618.676c-148.86 0 -221.693 -136.725 -221.693 -285.795
c0 -145.281 79.519 -277.557 220.574 -277.557c141.606 0 220.914 129.47 220.914 284.795c0 135.281 -71.2812 278.557 -219.795 278.557zM200.162 828.643h101.756l92.9245 -115.194h-66.3241z" />
    <glyph glyph-name="Otilde" unicode="&#xd5;" horiz-adv-x="685" 
d="M347.27 685c182.005 0 301.811 -139.6 301.811 -341c0 -232.713 -141.476 -355 -310.913 -355c-176.573 0 -301.27 137.168 -301.27 341.881c0 214.832 132.01 354.119 310.372 354.119zM344.049 618.676c-148.86 0 -221.693 -136.725 -221.693 -285.795
c0 -145.281 79.519 -277.557 220.574 -277.557c141.606 0 220.914 129.47 220.914 284.795c0 135.281 -71.2812 278.557 -219.795 278.557zM264.675 718.017h-45.0054c-1.1022 58.5565 24.0922 99.4376 67.4055 99.4376c21.6433 0 37.8544 -8.7789 59.0922 -20.4489
c15.5511 -8.8811 32 -17.8811 48.2378 -17.8811c14.8811 0 24.4489 6.8811 27 38.7622h44.1243c0.8811 -60.7676 -20.6433 -94.3187 -66.2866 -94.3187c-20.5244 0 -38.4055 7.5511 -60.6433 19c-19.1189 10.4489 -32.9078 19.1189 -47.3567 19.1189
c-16.2378 0 -24.1189 -17.2378 -26.5678 -43.67z" />
    <glyph glyph-name="Scaron" unicode="&#x160;" horiz-adv-x="488" 
d="M41.67 33.5678l21.8544 67.7563c38.8811 -24.5678 95.0755 -44.1189 154.719 -44.1189c90.6379 0 144.487 48.189 144.487 118.633c0 64.8757 -36.6867 102.487 -128.73 137.514c-109.881 38.8811 -177.524 96.0922 -177.524 190.406
c0 103.957 86.4055 181.243 214.724 181.243c67.6266 0 118.049 -16.4489 146.557 -32.8811l-23.2866 -66.3241c-20.8644 12.7789 -65.6266 32 -125.94 32c-95.0113 0 -130.579 -57.4435 -130.579 -104.276c0 -64.7568 41.2378 -96.5891 135.043 -133.157
c113.643 -44.4489 171.762 -98.5244 171.762 -197.762c0 -102.627 -75.5077 -192.6 -232.724 -192.6c-63.8377 0 -134.481 19.33 -170.362 43.5678zM287.351 713.119h-62.5619l-104.908 113.075h70.5131l65.4001 -70.1456h2l64.2812 70.1456h68.1731z" />
    <glyph glyph-name="Uacute" unicode="&#xda;" horiz-adv-x="643" 
d="M76.4923 674h81.1451v-400.611c0 -153.708 68.8757 -217.616 161.055 -217.616c101.308 0 167.514 67.0434 167.514 217.616v400.611h81.594v-394.4c0 -207.33 -109.687 -290.6 -252.438 -290.6c-134.962 0 -238.87 77.151 -238.87 285.794v399.206zM368.087 826.194
h101.307l-128.357 -116.194h-66.3241z" />
    <glyph glyph-name="Ucircumflex" unicode="&#xdb;" horiz-adv-x="643" 
d="M76.4923 674h81.1451v-400.611c0 -153.708 68.8757 -217.616 161.055 -217.616c101.308 0 167.514 67.0434 167.514 217.616v400.611h81.594v-394.4c0 -207.33 -109.687 -290.6 -252.438 -290.6c-134.962 0 -238.87 77.151 -238.87 285.794v399.206zM295.449 823.405
h62.5619l104.908 -113.405h-70.5131l-64.7301 69.9245h-2l-64.9512 -69.9245h-68.1731z" />
    <glyph glyph-name="Udieresis" unicode="&#xdc;" horiz-adv-x="643" 
d="M76.4923 674h81.1451v-400.611c0 -153.708 68.8757 -217.616 161.055 -217.616c101.308 0 167.514 67.0434 167.514 217.616v400.611h81.594v-394.4c0 -207.33 -109.687 -290.6 -252.438 -290.6c-134.962 0 -238.87 77.151 -238.87 285.794v399.206zM232.287 721.595
c-28.2866 0 -47.2432 22.4055 -47.2432 49.3621c0 26.6166 20.6266 48.3621 47.4643 48.3621c26.7355 0 46.3621 -21.5244 46.3621 -48.3621c0 -26.9566 -18.1777 -49.3621 -46.5832 -49.3621zM415.632 721.595c-28.5077 0 -46.9132 22.4055 -46.9132 49.3621
c0 26.6166 20.4055 48.3621 47.2432 48.3621c26.9566 0 46.3621 -21.5244 46.3621 -48.3621c0 -26.9566 -17.9566 -49.3621 -46.6921 -49.3621z" />
    <glyph glyph-name="Ugrave" unicode="&#xd9;" horiz-adv-x="643" 
d="M76.4923 674h81.1451v-400.611c0 -153.708 68.8757 -217.616 161.055 -217.616c101.308 0 167.514 67.0434 167.514 217.616v400.611h81.594v-394.4c0 -207.33 -109.687 -290.6 -252.438 -290.6c-134.962 0 -238.87 77.151 -238.87 285.794v399.206zM184.043 826.194
h101.086l93.5945 -115.643h-67.3241z" />
    <glyph glyph-name="Yacute" unicode="&#xdd;" horiz-adv-x="534" 
d="M308.281 0h-81.1451v287.043l-213.898 386.957h92.3295l97.5624 -188.443c25.9078 -51.5678 47.1623 -92.4756 68.0701 -140.043h2c19.2378 44.5678 42.7134 89.2545 69.519 140.492l99.8002 187.995h91.9995l-226.238 -386.194v-287.806zM319.67 820.287h101.086
l-127.357 -115.524h-66.8752z" />
    <glyph glyph-name="Ydieresis" unicode="&#x178;" horiz-adv-x="534" 
d="M308.281 0h-81.1451v287.043l-213.898 386.957h92.3295l97.5624 -188.443c25.9078 -51.5678 47.1623 -92.4756 68.0701 -140.043h2c19.2378 44.5678 42.7134 89.2545 69.519 140.492l99.8002 187.995h91.9995l-226.238 -386.194v-287.806zM185.243 714.238
c-28.2866 0 -47.2432 22.4055 -47.2432 49.3621c0 26.6166 20.4055 48.3621 47.7943 48.3621c26.4055 0 45.811 -21.5244 45.811 -48.3621c0 -26.9566 -17.9566 -49.3621 -46.3621 -49.3621zM368.697 714.238c-28.6166 0 -47.0221 22.4055 -47.0221 49.3621
c0 26.6166 20.4055 48.3621 47.2432 48.3621c27.2866 0 46.3621 -21.5244 46.3621 -48.3621c0 -26.9566 -17.9566 -49.3621 -46.5832 -49.3621z" />
    <glyph glyph-name="Zcaron" unicode="&#x17d;" horiz-adv-x="550" 
d="M30.4756 0v48.0809l378.795 555.163v3h-346.676v67.7563h451.843v-49.8431l-377.151 -553.071v-3.33h382.151v-67.7563h-488.962zM318.081 710h-62.5619l-104.687 113.405h70.292l65.4001 -70.2545h2l64.2812 70.2545h68.3942z" />
    <glyph glyph-name="aacute" unicode="&#xe1;" horiz-adv-x="477" 
d="M415.188 0h-73.6207l-7.33 62.2812h-3c-26.1944 -37.5511 -78.3133 -73.2812 -148.924 -73.2812c-97.1022 0 -146.508 69.2111 -146.508 137.838c0 116.287 102.957 180.973 291.238 179.524v10.2378c0 40.9512 -10.7622 117.006 -112.206 116.557
c-44.6433 0 -91.2866 -12.9833 -124.957 -36l-19.0755 54.9353c40.0267 26.0267 97.8811 42.1022 156.081 42.1022c146.6 0 181.081 -101.687 181.081 -196.719v-182.043c0 -40.8644 2 -81.6266 7.2211 -115.432zM328.476 161.6v86.9191
c-97.0701 2.4489 -210.508 -14.7622 -210.508 -111.589c0 -59.4168 39.2812 -86.5624 84.5457 -86.5624c66.0113 0 106.936 41.4001 121.293 83.1135c3 9.4489 4.67 19.4489 4.67 28.1189zM274.973 692.405h92.7997l-122.33 -142.405h-58.5886z" />
    <glyph glyph-name="acircumflex" unicode="&#xe2;" horiz-adv-x="477" 
d="M415.188 0h-73.6207l-7.33 62.2812h-3c-26.1944 -37.5511 -78.3133 -73.2812 -148.924 -73.2812c-97.1022 0 -146.508 69.2111 -146.508 137.838c0 116.287 102.957 180.973 291.238 179.524v10.2378c0 40.9512 -10.7622 117.006 -112.206 116.557
c-44.6433 0 -91.2866 -12.9833 -124.957 -36l-19.0755 54.9353c40.0267 26.0267 97.8811 42.1022 156.081 42.1022c146.6 0 181.081 -101.687 181.081 -196.719v-182.043c0 -40.8644 2 -81.6266 7.2211 -115.432zM328.476 161.6v86.9191
c-97.0701 2.4489 -210.508 -14.7622 -210.508 -111.589c0 -59.4168 39.2812 -86.5624 84.5457 -86.5624c66.0113 0 106.936 41.4001 121.293 83.1135c3 9.4489 4.67 19.4489 4.67 28.1189zM205.092 692.405h57.0375l95.3133 -142.405h-63.962l-58.9245 95.9245h-2
l-58.5945 -95.9245h-62.5131z" />
    <glyph glyph-name="adieresis" unicode="&#xe4;" horiz-adv-x="477" 
d="M415.188 0h-73.6207l-7.33 62.2812h-3c-26.1944 -37.5511 -78.3133 -73.2812 -148.924 -73.2812c-97.1022 0 -146.508 69.2111 -146.508 137.838c0 116.287 102.957 180.973 291.238 179.524v10.2378c0 40.9512 -10.7622 117.006 -112.206 116.557
c-44.6433 0 -91.2866 -12.9833 -124.957 -36l-19.0755 54.9353c40.0267 26.0267 97.8811 42.1022 156.081 42.1022c146.6 0 181.081 -101.687 181.081 -196.719v-182.043c0 -40.8644 2 -81.6266 7.2211 -115.432zM328.476 161.6v86.9191
c-97.0701 2.4489 -210.508 -14.7622 -210.508 -111.589c0 -59.4168 39.2812 -86.5624 84.5457 -86.5624c66.0113 0 106.936 41.4001 121.293 83.1135c3 9.4489 4.67 19.4489 4.67 28.1189zM147.838 571.281c-28.8377 0 -48.3454 23.0755 -48.3454 48.9132
c0 27.1677 21.1777 49.2432 49.1243 49.2432c26.5077 0 46.4643 -21.5244 46.4643 -49.2432c0 -25.8377 -18.9566 -48.9132 -47.2432 -48.9132zM330.724 571.281c-28.8377 0 -47.7943 23.0755 -47.7943 48.9132c0 27.1677 20.6266 49.2432 48.2432 49.2432
c27.1677 0 46.7943 -21.5244 46.7943 -49.2432c0 -25.8377 -18.9566 -48.9132 -47.2432 -48.9132z" />
    <glyph glyph-name="agrave" unicode="&#xe0;" horiz-adv-x="477" 
d="M415.188 0h-73.6207l-7.33 62.2812h-3c-26.1944 -37.5511 -78.3133 -73.2812 -148.924 -73.2812c-97.1022 0 -146.508 69.2111 -146.508 137.838c0 116.287 102.957 180.973 291.238 179.524v10.2378c0 40.9512 -10.7622 117.006 -112.206 116.557
c-44.6433 0 -91.2866 -12.9833 -124.957 -36l-19.0755 54.9353c40.0267 26.0267 97.8811 42.1022 156.081 42.1022c146.6 0 181.081 -101.687 181.081 -196.719v-182.043c0 -40.8644 2 -81.6266 7.2211 -115.432zM328.476 161.6v86.9191
c-97.0701 2.4489 -210.508 -14.7622 -210.508 -111.589c0 -59.4168 39.2812 -86.5624 84.5457 -86.5624c66.0113 0 106.936 41.4001 121.293 83.1135c3 9.4489 4.67 19.4489 4.67 28.1189zM94.6433 692.405h92.3508l87.5678 -142.405h-57.9186z" />
    <glyph glyph-name="aring" unicode="&#xe5;" horiz-adv-x="477" 
d="M415.188 0h-73.6207l-7.33 62.2812h-3c-26.1944 -37.5511 -78.3133 -73.2812 -148.924 -73.2812c-97.1022 0 -146.508 69.2111 -146.508 137.838c0 116.287 102.957 180.973 291.238 179.524v10.2378c0 40.9512 -10.7622 117.006 -112.206 116.557
c-44.6433 0 -91.2866 -12.9833 -124.957 -36l-19.0755 54.9353c40.0267 26.0267 97.8811 42.1022 156.081 42.1022c146.6 0 181.081 -101.687 181.081 -196.719v-182.043c0 -40.8644 2 -81.6266 7.2211 -115.432zM328.476 161.6v86.9191
c-97.0701 2.4489 -210.508 -14.7622 -210.508 -111.589c0 -59.4168 39.2812 -86.5624 84.5457 -86.5624c66.0113 0 106.936 41.4001 121.293 83.1135c3 9.4489 4.67 19.4489 4.67 28.1189zM237.887 536.881c-58.8377 0 -100.049 39.8811 -100.049 90.6433
c0 52.3133 38.8811 94.1944 101.049 94.1944c58.2699 0 97.2699 -40.8811 97.2699 -93.6433c0 -51.9833 -43 -91.1944 -98.2699 -91.1944zM236.887 573.049c31.67 0 52.3567 25.7889 52.3567 56.0267c0 30.8056 -20.6867 55.9245 -53.1356 55.9245
c-30.7889 0 -49.3567 -26.5678 -49.3567 -57.4756c0 -26.6867 20.2378 -54.4756 50.1356 -54.4756z" />
    <glyph glyph-name="atilde" unicode="&#xe3;" horiz-adv-x="477" 
d="M415.188 0h-73.6207l-7.33 62.2812h-3c-26.1944 -37.5511 -78.3133 -73.2812 -148.924 -73.2812c-97.1022 0 -146.508 69.2111 -146.508 137.838c0 116.287 102.957 180.973 291.238 179.524v10.2378c0 40.9512 -10.7622 117.006 -112.206 116.557
c-44.6433 0 -91.2866 -12.9833 -124.957 -36l-19.0755 54.9353c40.0267 26.0267 97.8811 42.1022 156.081 42.1022c146.6 0 181.081 -101.687 181.081 -196.719v-182.043c0 -40.8644 2 -81.6266 7.2211 -115.432zM328.476 161.6v86.9191
c-97.0701 2.4489 -210.508 -14.7622 -210.508 -111.589c0 -59.4168 39.2812 -86.5624 84.5457 -86.5624c66.0113 0 106.936 41.4001 121.293 83.1135c3 9.4489 4.67 19.4489 4.67 28.1189zM160.675 568.043h-45.5565c-1.8811 63.2432 24.6433 101.319 66.7188 101.319
c21.3133 0 38.0755 -9.33 61.7622 -22.1189c16 -8.5511 29.5511 -16.4322 42.33 -16.4322c15.2211 0 25.1189 9 27.34 42.1022h44.7843c1.1022 -64.1076 -20.8544 -98.3187 -67.0488 -98.3187c-20.9733 0 -39.8544 9.33 -60.4055 20.33
c-20.2378 11.67 -31.3567 18.1189 -43.3567 18.1189c-16.1189 0 -24.1189 -17.5678 -26.5678 -45z" />
    <glyph glyph-name="ccedilla" unicode="&#xe7;" horiz-adv-x="446" 
d="M402.524 79.5886l14.7622 -61.2319c-21.2111 -11 -67.1189 -26.4756 -127.06 -28.3567l-26.0267 -40.8056c36.8811 -4.67 69.7622 -30.5511 69.7622 -68.7622c0 -58.1944 -47.9566 -80.1944 -102.811 -80.1944c-23.6266 0 -50.2866 7 -66.7188 17.2111l14.6433 41.2699
c15.8811 -9.5511 35.7622 -14.4322 54 -14.4322c22.2378 0 43.9245 8.4489 43.4756 32.3567c-0.67 26.9245 -31.5945 38.3567 -78 42.3567l42.2378 73.33c-123.432 15.6433 -202.432 109.551 -202.432 244.102c0 149.357 102.238 257.541 258.243 257.541
c52.8323 0 99.7301 -13.8056 122.806 -26.5845l-19.3133 -62.9019c-22.0167 11.4589 -55.4923 23.9245 -104.417 23.9245c-113.47 0 -174.844 -85.3413 -174.514 -187.768c0 -113.876 72.8323 -184.751 171.606 -184.751c50.8323 0 84.6379 13.0267 109.757 23.6967z" />
    <glyph glyph-name="eacute" unicode="&#xe9;" horiz-adv-x="498" 
d="M458.632 228.919h-341.665c1.4322 -124.481 78.7134 -174.789 168.351 -174.789c64.1623 0 102.255 11.3567 133.881 24.9078l14.6433 -59.0375c-28.7943 -13.1944 -81.6487 -30 -159.481 -30c-147.032 0 -236.005 98.5678 -236.005 243.313
c0 148.655 87.3734 260.881 225.692 260.881c157.551 0 197.464 -140.07 197.464 -226.032c0 -17.4055 -1.1022 -30.0321 -2.8811 -39.2432zM118.535 288.287h263.459c1 57.3079 -23.4756 146.751 -124.497 146.751c-92.3413 0 -132.174 -83.5457 -138.963 -146.751z
M304.238 692.405h92.7997l-122.33 -142.405h-58.5886z" />
    <glyph glyph-name="ecircumflex" unicode="&#xea;" horiz-adv-x="498" 
d="M458.632 228.919h-341.665c1.4322 -124.481 78.7134 -174.789 168.351 -174.789c64.1623 0 102.255 11.3567 133.881 24.9078l14.6433 -59.0375c-28.7943 -13.1944 -81.6487 -30 -159.481 -30c-147.032 0 -236.005 98.5678 -236.005 243.313
c0 148.655 87.3734 260.881 225.692 260.881c157.551 0 197.464 -140.07 197.464 -226.032c0 -17.4055 -1.1022 -30.0321 -2.8811 -39.2432zM118.535 288.287h263.459c1 57.3079 -23.4756 146.751 -124.497 146.751c-92.3413 0 -132.174 -83.5457 -138.963 -146.751z
M232.146 692.405h57.1464l95.7622 -142.405h-64.4109l-58.9245 95.9245h-2l-58.9245 -95.9245h-62.0642z" />
    <glyph glyph-name="edieresis" unicode="&#xeb;" horiz-adv-x="498" 
d="M458.632 228.919h-341.665c1.4322 -124.481 78.7134 -174.789 168.351 -174.789c64.1623 0 102.255 11.3567 133.881 24.9078l14.6433 -59.0375c-28.7943 -13.1944 -81.6487 -30 -159.481 -30c-147.032 0 -236.005 98.5678 -236.005 243.313
c0 148.655 87.3734 260.881 225.692 260.881c157.551 0 197.464 -140.07 197.464 -226.032c0 -17.4055 -1.1022 -30.0321 -2.8811 -39.2432zM118.535 288.287h263.459c1 57.3079 -23.4756 146.751 -124.497 146.751c-92.3413 0 -132.174 -83.5457 -138.963 -146.751z
M176 571.281c-28.8377 0 -48.3454 23.0755 -48.3454 48.9132c0 27.1677 21.1777 49.2432 49.1243 49.2432c26.5077 0 46.4643 -21.5244 46.4643 -49.2432c0 -25.8377 -18.9566 -48.9132 -47.2432 -48.9132zM358.887 571.281c-28.8377 0 -47.7943 23.0755 -47.7943 48.9132
c0 27.1677 20.6266 49.2432 48.2432 49.2432c27.1677 0 46.7943 -21.5244 46.7943 -49.2432c0 -25.8377 -18.9566 -48.9132 -47.2432 -48.9132z" />
    <glyph glyph-name="egrave" unicode="&#xe8;" horiz-adv-x="498" 
d="M458.632 228.919h-341.665c1.4322 -124.481 78.7134 -174.789 168.351 -174.789c64.1623 0 102.255 11.3567 133.881 24.9078l14.6433 -59.0375c-28.7943 -13.1944 -81.6487 -30 -159.481 -30c-147.032 0 -236.005 98.5678 -236.005 243.313
c0 148.655 87.3734 260.881 225.692 260.881c157.551 0 197.464 -140.07 197.464 -226.032c0 -17.4055 -1.1022 -30.0321 -2.8811 -39.2432zM118.535 288.287h263.459c1 57.3079 -23.4756 146.751 -124.497 146.751c-92.3413 0 -132.174 -83.5457 -138.963 -146.751z
M136.849 692.405h92.4697l87.67 -142.405h-58.1397z" />
    <glyph glyph-name="iacute" unicode="&#xed;" horiz-adv-x="229" 
d="M155.756 0h-81.4751v483.194h81.4751v-483.194zM155.211 692.405h92.7997l-122.33 -142.405h-58.5886z" />
    <glyph glyph-name="icircumflex" unicode="&#xee;" horiz-adv-x="229" 
d="M155.756 0h-81.4751v483.194h81.4751v-483.194zM86 692.405h56.9186l95.7622 -142.405h-64.632l-58.4756 95.9245h-2l-58.9245 -95.9245h-62.292z" />
    <glyph glyph-name="idieresis" unicode="&#xef;" horiz-adv-x="229" 
d="M155.756 0h-81.4751v483.194h81.4751v-483.194zM24.0755 571.281c-28.8377 0 -48.3454 23.0755 -48.3454 48.9132c0 27.1677 21.1777 49.2432 49.1243 49.2432c26.5077 0 46.4643 -21.5244 46.4643 -49.2432c0 -25.8377 -18.9566 -48.9132 -47.2432 -48.9132z
M206.962 571.281c-28.8377 0 -47.7943 23.0755 -47.7943 48.9132c0 27.1677 20.6266 49.2432 48.2432 49.2432c27.1677 0 46.7943 -21.5244 46.7943 -49.2432c0 -25.8377 -18.9566 -48.9132 -47.2432 -48.9132z" />
    <glyph glyph-name="igrave" unicode="&#xec;" horiz-adv-x="229" 
d="M155.756 0h-81.4751v483.194h81.4751v-483.194zM-27.4322 692.405h92.7997l87.7889 -142.405h-58.3675z" />
    <glyph glyph-name="ntilde" unicode="&#xf1;" horiz-adv-x="551" 
d="M74.2812 0v354.757c0 49.2866 -1.4489 88.6754 -4 128.438h72.6374l4.8811 -80.8323h2.33c23.9078 46.9512 80.7134 91.8323 160.594 91.8323c63.5131 0 169.864 -37.3187 169.864 -205.643v-288.551h-81.1451v279.925c0 79.4001 -30.2545 146.725 -115.157 146.725
c-59.519 0 -106.276 -42.1623 -122.411 -93.038c-4 -11.4489 -6.1189 -26.8978 -6.1189 -41.5678v-292.043h-81.4751zM200.794 568.043h-45.8865c-1.5511 63.2432 24.9733 101.319 67.0488 101.319c21.3133 0 38.0755 -9.33 61.7622 -22.1189
c16 -8.5511 29.5511 -16.4322 42 -16.4322c15.5511 0 25.34 9 27.67 42.1022h44.6754c1.2111 -64.1076 -20.7455 -98.3187 -66.9399 -98.3187c-20.9733 0 -39.8544 9.33 -60.4055 20.33c-20.5678 11.67 -31.3567 18.1189 -43.3567 18.1189
c-16.1189 0 -24.4489 -17.5678 -26.5678 -45z" />
    <glyph glyph-name="oacute" unicode="&#xf3;" horiz-adv-x="545" 
d="M276.481 494.194c138.287 0 231.481 -100.432 231.481 -247.983c0 -179.449 -124.211 -257.211 -239.032 -257.211c-130.168 0 -230.573 96.1189 -230.573 248.762c0 162.687 106.568 256.432 238.124 256.432zM274.6 432.395
c-106.47 0 -153.108 -98.3246 -153.108 -191.632c0 -108.325 63.2324 -189.844 150.989 -189.844c86.5624 0 152.125 80.6379 152.125 192.292c0 82.7134 -42.7301 189.184 -150.006 189.184zM309.119 692.405h92.7997l-122.33 -142.405h-58.5886z" />
    <glyph glyph-name="ocircumflex" unicode="&#xf4;" horiz-adv-x="545" 
d="M276.481 494.194c138.287 0 231.481 -100.432 231.481 -247.983c0 -179.449 -124.211 -257.211 -239.032 -257.211c-130.168 0 -230.573 96.1189 -230.573 248.762c0 162.687 106.568 256.432 238.124 256.432zM274.6 432.395
c-106.47 0 -153.108 -98.3246 -153.108 -191.632c0 -108.325 63.2324 -189.844 150.989 -189.844c86.5624 0 152.125 80.6379 152.125 192.292c0 82.7134 -42.7301 189.184 -150.006 189.184zM243.357 692.405h57.3675l95.4322 -142.405h-64.302l-58.9245 95.9245h-2
l-58.9245 -95.9245h-61.8431z" />
    <glyph glyph-name="odieresis" unicode="&#xf6;" horiz-adv-x="545" 
d="M276.481 494.194c138.287 0 231.481 -100.432 231.481 -247.983c0 -179.449 -124.211 -257.211 -239.032 -257.211c-130.168 0 -230.573 96.1189 -230.573 248.762c0 162.687 106.568 256.432 238.124 256.432zM274.6 432.395
c-106.47 0 -153.108 -98.3246 -153.108 -191.632c0 -108.325 63.2324 -189.844 150.989 -189.844c86.5624 0 152.125 80.6379 152.125 192.292c0 82.7134 -42.7301 189.184 -150.006 189.184zM181.881 571.281c-28.8377 0 -48.3454 23.0755 -48.3454 48.9132
c0 27.1677 21.1777 49.2432 49.1243 49.2432c26.5077 0 46.4643 -21.5244 46.4643 -49.2432c0 -25.8377 -18.9566 -48.9132 -47.2432 -48.9132zM364.768 571.281c-28.8377 0 -47.7943 23.0755 -47.7943 48.9132c0 27.1677 20.6266 49.2432 48.2432 49.2432
c27.1677 0 46.7943 -21.5244 46.7943 -49.2432c0 -25.8377 -18.9566 -48.9132 -47.2432 -48.9132z" />
    <glyph glyph-name="ograve" unicode="&#xf2;" horiz-adv-x="545" 
d="M276.481 494.194c138.287 0 231.481 -100.432 231.481 -247.983c0 -179.449 -124.211 -257.211 -239.032 -257.211c-130.168 0 -230.573 96.1189 -230.573 248.762c0 162.687 106.568 256.432 238.124 256.432zM274.6 432.395
c-106.47 0 -153.108 -98.3246 -153.108 -191.632c0 -108.325 63.2324 -189.844 150.989 -189.844c86.5624 0 152.125 80.6379 152.125 192.292c0 82.7134 -42.7301 189.184 -150.006 189.184zM146.281 692.405h92.3508l87.8978 -142.405h-58.2486z" />
    <glyph glyph-name="otilde" unicode="&#xf5;" horiz-adv-x="545" 
d="M276.481 494.194c138.287 0 231.481 -100.432 231.481 -247.983c0 -179.449 -124.211 -257.211 -239.032 -257.211c-130.168 0 -230.573 96.1189 -230.573 248.762c0 162.687 106.568 256.432 238.124 256.432zM274.6 432.395
c-106.47 0 -153.108 -98.3246 -153.108 -191.632c0 -108.325 63.2324 -189.844 150.989 -189.844c86.5624 0 152.125 80.6379 152.125 192.292c0 82.7134 -42.7301 189.184 -150.006 189.184zM197.692 568.043h-45.8865c-1.5511 63.2432 24.9733 101.319 67.0488 101.319
c21.3133 0 38.0755 -9.33 61.7622 -22.1189c16 -8.5511 29.5511 -16.4322 42 -16.4322c15.5511 0 25.34 9 27.67 42.1022h44.6754c1.2111 -64.1076 -20.7455 -98.3187 -66.9399 -98.3187c-20.9733 0 -39.8544 9.33 -60.4055 20.33
c-20.5678 11.67 -31.3567 18.1189 -43.3567 18.1189c-16.1189 0 -24.4489 -17.5678 -26.5678 -45z" />
    <glyph glyph-name="scaron" unicode="&#x161;" horiz-adv-x="392" 
d="M40.2545 23.33l20.4155 62.1397c26.66 -16.5511 71.8277 -34.1022 115.379 -34.1022c66.0868 0 96.8002 32.7401 96.8002 74.5891c0 43.9679 -26.4923 67.2324 -91.6379 92.038c-86.0488 31.2111 -127.617 78.2866 -127.287 135.957
c0 76.5999 61.5999 140.243 164.081 140.243c48.4055 0 90.0321 -13.5511 116.464 -29.67l-21.3133 -60.3675c-18.3133 12 -52.8377 28.4489 -98.5244 28.4489c-53.4001 0 -82.0968 -31.0701 -82.0968 -68.6813c0 -41.519 29.2645 -60.3246 92.8323 -85.0113
c82.6266 -31.1022 126.313 -72.7455 126.643 -145.194c0 -84.6433 -66.0922 -143.719 -178.081 -143.719c-52.2866 0 -99.9132 13.33 -133.675 33.33zM231.275 550h-59.7075l-95.3133 142.405h64.1831l60.0434 -95.9245h2l59.9245 95.9245h62.5131z" />
    <glyph glyph-name="uacute" unicode="&#xfa;" horiz-adv-x="547" 
d="M473.351 483.194v-353.308c0 -49.0488 1.7789 -91.6754 4 -129.887h-72.6374l-4.4322 80.0434h-2c-22.7889 -39.9245 -74.5945 -91.0434 -160.925 -91.0434c-73.5565 0 -166.194 40.2432 -166.194 212v282.194h81.1451v-267.908
c0 -93.7568 29.5845 -158.292 111.368 -158.292c60.6379 0 103.157 42.6112 119.962 83.0113c4.67 13.2378 8.5678 29.5945 8.5678 46.2812v296.908h81.1451zM321.357 692.405h92.7997l-122.33 -142.405h-58.5886z" />
    <glyph glyph-name="ucircumflex" unicode="&#xfb;" horiz-adv-x="547" 
d="M473.351 483.194v-353.308c0 -49.0488 1.7789 -91.6754 4 -129.887h-72.6374l-4.4322 80.0434h-2c-22.7889 -39.9245 -74.5945 -91.0434 -160.925 -91.0434c-73.5565 0 -166.194 40.2432 -166.194 212v282.194h81.1451v-267.908
c0 -93.7568 29.5845 -158.292 111.368 -158.292c60.6379 0 103.157 42.6112 119.962 83.0113c4.67 13.2378 8.5678 29.5945 8.5678 46.2812v296.908h81.1451zM244.238 692.405h57.3675l95.3133 -142.405h-63.962l-58.9245 95.9245h-2l-58.5945 -95.9245h-62.8431z" />
    <glyph glyph-name="udieresis" unicode="&#xfc;" horiz-adv-x="547" 
d="M473.351 483.194v-353.308c0 -49.0488 1.7789 -91.6754 4 -129.887h-72.6374l-4.4322 80.0434h-2c-22.7889 -39.9245 -74.5945 -91.0434 -160.925 -91.0434c-73.5565 0 -166.194 40.2432 -166.194 212v282.194h81.1451v-267.908
c0 -93.7568 29.5845 -158.292 111.368 -158.292c60.6379 0 103.157 42.6112 119.962 83.0113c4.67 13.2378 8.5678 29.5945 8.5678 46.2812v296.908h81.1451zM185.313 571.281c-28.8377 0 -48.3454 23.0755 -48.3454 48.9132c0 27.1677 21.1777 49.2432 49.1243 49.2432
c26.5077 0 46.4643 -21.5244 46.4643 -49.2432c0 -25.8377 -18.9566 -48.9132 -47.2432 -48.9132zM368.2 571.281c-28.8377 0 -47.7943 23.0755 -47.7943 48.9132c0 27.1677 20.6266 49.2432 48.2432 49.2432c27.1677 0 46.7943 -21.5244 46.7943 -49.2432
c0 -25.8377 -18.9566 -48.9132 -47.2432 -48.9132z" />
    <glyph glyph-name="ugrave" unicode="&#xf9;" horiz-adv-x="547" 
d="M473.351 483.194v-353.308c0 -49.0488 1.7789 -91.6754 4 -129.887h-72.6374l-4.4322 80.0434h-2c-22.7889 -39.9245 -74.5945 -91.0434 -160.925 -91.0434c-73.5565 0 -166.194 40.2432 -166.194 212v282.194h81.1451v-267.908
c0 -93.7568 29.5845 -158.292 111.368 -158.292c60.6379 0 103.157 42.6112 119.962 83.0113c4.67 13.2378 8.5678 29.5945 8.5678 46.2812v296.908h81.1451zM141.373 692.405h92.0208l88.1189 -142.405h-58.1397z" />
    <glyph glyph-name="yacute" unicode="&#xfd;" horiz-adv-x="466" 
d="M9.5678 483.194h88.6695l109.038 -290.319c11.5678 -32.2378 23.3567 -69.9078 31.4756 -99.4756h2.33c9.1189 29.1189 19.6867 65.7889 32.0434 101.594l98.8269 288.2h87.0162l-134.087 -346.546c-62.0755 -163.649 -104.838 -249.124 -165.524 -301.811
c-42.4055 -36.9566 -83.6754 -51.8377 -104.156 -55.8377l-20.8377 68.6374c22.5678 7.2378 51.9245 21.5945 78.4923 44.9679c23.67 19.4756 53.5778 54.519 74.3834 100.946c4.33 9.8978 6.8811 16 6.8811 21.33c0 5 -1.67 11.5511 -6.33 22.4322zM284.168 692.405
h92.7997l-122.33 -142.405h-58.5886z" />
    <glyph glyph-name="ydieresis" unicode="&#xff;" horiz-adv-x="466" 
d="M9.5678 483.194h88.6695l109.038 -290.319c11.5678 -32.2378 23.3567 -69.9078 31.4756 -99.4756h2.33c9.1189 29.1189 19.6867 65.7889 32.0434 101.594l98.8269 288.2h87.0162l-134.087 -346.546c-62.0755 -163.649 -104.838 -249.124 -165.524 -301.811
c-42.4055 -36.9566 -83.6754 -51.8377 -104.156 -55.8377l-20.8377 68.6374c22.5678 7.2378 51.9245 21.5945 78.4923 44.9679c23.67 19.4756 53.5778 54.519 74.3834 100.946c4.33 9.8978 6.8811 16 6.8811 21.33c0 5 -1.67 11.5511 -6.33 22.4322zM153.6 571.281
c-28.8377 0 -48.6754 23.0755 -48.6754 48.9132c0 27.1677 21.9566 49.2432 49.1243 49.2432c26.5077 0 46.9132 -21.5244 46.9132 -49.2432c0 -25.8377 -18.9566 -48.9132 -47.3621 -48.9132zM336.156 571.281c-28.8377 0 -47.7943 23.0755 -47.7943 48.9132
c0 27.1677 20.6266 49.2432 48.7943 49.2432c26.6166 0 46.5732 -21.5244 46.5732 -49.2432c0 -25.8377 -18.7355 -48.9132 -47.5732 -48.9132z" />
    <glyph glyph-name="zcaron" unicode="&#x17e;" horiz-adv-x="423" 
d="M17.7622 0v47.7242l224.627 293.308c20.9733 25.9733 40.4055 48.8544 62.3788 74.6166v2h-267.217v65.5452h366.411l-0.67 -51.2753l-222.644 -290.325c-19.9733 -25.8644 -39.6166 -49.8377 -60.3621 -74.2699v-2h286.989v-65.3241h-389.513zM255.962 550h-59.7075
l-95.3133 142.405h64.1831l60.0434 -95.9245h2l59.9245 95.9245h62.5131z" />
    <glyph glyph-name="Dcroat" unicode="&#x110;" horiz-adv-x="667" 
d="M-1.9078 309.443v64.9941h83.3834v292.562c52.7622 9 115.168 15 182.794 15c124.541 0 214.568 -29.9245 273.211 -85.7301c59.2866 -54.7889 93.6921 -133.313 93.6921 -243.27c0 -108.913 -33.4977 -198.692 -95.5999 -261.838
c-63.3033 -63.5678 -167.168 -98.3734 -297.498 -98.3734c-60.7021 0 -112.124 2.2111 -156.6 7.2111v309.443h-83.3834zM347.168 374.438v-64.9941h-184.768v-246.763c23.0434 -3.4489 56.2057 -4.1189 90.9358 -4.1189c191.659 0 292.821 105.8 292.821 294.006
c0.67 162.519 -89.9245 264.319 -278.719 264.319c-46.1623 0 -80.9946 -4.4489 -105.038 -9.2378v-233.212h184.768z" />
    <glyph glyph-name="Eng" unicode="&#x14a;" horiz-adv-x="654" 
d="M153.113 0h-76.0696v674h87.405l223.238 -349.427c50.1456 -79.9245 89.1456 -149.643 121.264 -218.168l2 0.67c-7.5511 90.4489 -9.4322 171.854 -9.4322 276.643v290.282h76.8485v-636.713c0 -139.751 -63.2165 -215.53 -189.843 -234.768l-16.9299 63.5619
c81.7301 16 122.417 55.7301 128.849 128.962l-224.406 354.222c-47.0267 76.0167 -92.4756 152.303 -126.595 224.498l-2.5511 -1c5 -84.7622 6.2211 -164.811 6.2211 -276.481v-296.282z" />
    <glyph glyph-name="Hbar" unicode="&#x126;" horiz-adv-x="652" 
d="M630.519 479.925h-56.5244v-479.925h-81.1451v306.319h-333.119v-306.319h-80.924v479.925h-56.5244v54.632h56.5244v139.443h80.924v-139.443h333.119v139.443h81.1451v-139.443h56.5244v-54.632zM492.849 375.838v104.087h-333.119v-104.087h333.119z" />
    <glyph glyph-name="Tbar" unicode="&#x166;" horiz-adv-x="491" 
d="M494.843 605.693h-208.325v-227.811h125.043v-54.962h-125.043v-322.919h-81.594v322.919h-125.373v54.962h125.373v227.811h-206.995v68.3074h496.913v-68.3074z" />
    <glyph glyph-name="uni021C" unicode="&#x21c;" horiz-adv-x="474" 
d="M61.3888 -113.838l-10.1944 64.5619c166.168 24.9512 299.087 113.038 299.087 232.081c0 75.7835 -54.6379 135.946 -149.8 135.276c-21 0 -59.5244 -7 -93.9733 -18l-10.4155 58.3675c114.308 26.5945 201.832 88.6379 201.832 167.995
c0 56.0701 -46.7134 92.9946 -113.325 92.9946c-54.2378 0 -113.043 -22.9078 -137.119 -35.67l-17.2866 54.1397c31.0488 19.9733 102.26 47.0922 169.216 47.0922c107.508 0 180.108 -59.5511 180.108 -146.405c0 -75.2378 -55.8056 -133.238 -123.238 -164.568v-2.67
c101.357 -9.3133 179.568 -75.67 179.568 -183.119c0 -151.913 -144.13 -273.887 -374.46 -302.075z" />
    <glyph glyph-name="dcroat" unicode="&#x111;" horiz-adv-x="560" 
d="M563.562 552.832h-77.2111v-429.708c0 -42.1677 1.7789 -89.6754 4 -123.124h-73.0696l-3.8811 84.8323h-2c-26.7622 -53.5511 -84.8644 -95.8323 -165.713 -95.8323c-117.119 0 -207.33 99 -207.33 245.194c-1 161.211 99.2111 260 216.881 260
c75.7301 0 125.968 -36.2812 147.968 -75.189h2v133.827h-199.298v52.6487h199.298v104.519h81.1451v-104.519h77.2111v-52.6487zM405.206 201.6v85.7568c0 11.5678 -1.4489 26.9245 -4.1189 38.4923c-14.1356 56.9512 -62.7568 104.232 -130.844 104.232
c-93.3246 0 -149.411 -81.6379 -149.411 -191.438c0 -99.519 49.3734 -183.319 147.293 -183.319c60.519 0 115.708 40.0434 132.632 108.038c3 12.1189 4.4489 24.1189 4.4489 38.2378z" />
    <glyph glyph-name="eng" unicode="&#x14b;" horiz-adv-x="551" 
d="M74.2812 0v354.757c0 49.2866 -1.4489 88.6754 -4 128.438h72.6374l4.8811 -80.8323h2.33c23.9078 46.9512 80.7134 91.8323 160.594 91.8323c63.5131 0 169.864 -37.3187 169.864 -205.643v-229.551c0 -151.556 -81.9566 -220.913 -187.583 -236.481l-15.7188 65.8919
c81.2057 16.3567 122.157 68.3346 122.157 164.108v227.406c0 79.4001 -30.2545 146.725 -115.157 146.725c-59.519 0 -106.276 -42.1623 -122.411 -93.038c-4 -11.4489 -6.1189 -26.8978 -6.1189 -41.5678v-292.043h-81.4751z" />
    <glyph glyph-name="hbar" unicode="&#x127;" horiz-adv-x="551" 
d="M480.589 0h-81.1451v279.043c0 79.7301 -30.2545 147.276 -115.038 147.276c-58.9679 0 -105.725 -41.4001 -122.53 -91.1569c-4.67 -12.2378 -6.1189 -25.6867 -6.1189 -42.5945v-292.568h-81.4751v552.832h-77.33v52.6487h77.33v104.519h81.4751v-104.519h194.611
v-52.6487h-194.611v-147.157h2c14.33 25.2378 36.4489 48.3734 63.6867 63.6112c25.7889 15.2378 57.0267 24.9078 91.1623 24.9078c61.962 0 167.983 -37.3187 167.983 -205.627v-288.568z" />
    <glyph glyph-name="kgreenlandic" unicode="&#x138;" horiz-adv-x="461" 
d="M155.205 483.194v-223.4h2c12 16.7622 29.3567 38.2111 43.4756 54.7622l146.2 168.638h98.3128l-187.832 -199l214.281 -284.194h-99.5239l-171.108 235.368l-45.8056 -50.5678v-184.8h-80.924v483.194h80.924z" />
    <glyph glyph-name="napostrophe" unicode="&#x149;" horiz-adv-x="551" 
d="M54.2432 537.162l-34.7509 27.8377c16.5511 18.4055 37.0267 42.8377 37.0267 81.6433c0 23.1189 -13.9078 45.6867 -31.7134 59.2378l60.8431 16.0755c16.7889 -10 35.2378 -36.5511 35.2378 -71.3133c0 -66.7622 -50.8811 -101.719 -66.6433 -113.481zM74.2812 0
v354.757c0 49.2866 -1.4489 88.6754 -4 128.438h72.6374l4.8811 -80.8323h2.33c23.9078 46.9512 80.7134 91.8323 160.594 91.8323c63.5131 0 169.864 -37.3187 169.864 -205.643v-288.551h-81.1451v279.925c0 79.4001 -30.2545 146.725 -115.157 146.725
c-59.519 0 -106.276 -42.1623 -122.411 -93.038c-4 -11.4489 -6.1189 -26.8978 -6.1189 -41.5678v-292.043h-81.4751z" />
    <glyph glyph-name="tbar" unicode="&#x167;" horiz-adv-x="327" 
d="M301.843 420.962h-127.968v-119.319h99.849v-51.7676h-99.849v-97.6271c0 -60.1189 17.5678 -95.3734 66.8056 -95.3734c23.2378 0 40.3567 3.4489 51.8056 6.8978l4.2378 -62.2219c-16.8811 -6.5511 -43.2866 -11.5511 -76.6921 -11.5511
c-39.6266 0 -72.481 12.7622 -92.7943 36.6433c-23.9833 26.2111 -33.5244 68.1944 -33.5244 123.913v99.3192h-67.2378v51.7676h67.2378v119.319h-76.0434v62.2319h76.0434v117.611l80.1618 21.3888v-139h127.968v-62.2319z" />
    <glyph glyph-name="uni021D" unicode="&#x21d;" horiz-adv-x="422" 
d="M43.1944 -209l-8.0755 63.5619c36.2432 2.67 277.655 33.5945 277.655 192.2c0 61.3246 -41.5357 112.249 -131.46 112.249c-28.0267 0 -60.7889 -7.7789 -88.2378 -15.33l-11.6266 58.5886c108.519 26.2545 185.621 66.7301 185.621 141.249
c0 53.849 -40.5945 86.5624 -105.757 86.5624c-51.3567 0 -100.264 -25.8056 -123.908 -38.2378l-17.2866 53.5886c36.0755 23.6433 96.3621 48.7622 160.438 48.7622c99.481 0 166.454 -53.5511 166.454 -136.745c0 -66.4756 -44.0434 -116.4 -107.017 -141.043v-3
c92.7789 -10.2111 155.687 -68.4322 155.687 -157.449c0 -126.275 -116.924 -244.227 -352.486 -264.957z" />
    <glyph glyph-name="IJ" unicode="&#x132;" horiz-adv-x="600" 
d="M77.0434 674h80.924v-674h-80.924v674zM449.751 228.692v445.308h81.7029v-452.665c0 -178.168 -87.4222 -232.335 -200.503 -232.335c-31.9833 0 -70.5077 7.1189 -91.5832 16l12.3133 65.8752c17.8811 -6.67 43.7622 -13.1189 73.7622 -13.1189
c78.7301 0 124.308 36.2545 124.308 170.936z" />
    <glyph glyph-name="f_f" unicode="&#xfb00;" horiz-adv-x="576" 
d="M452.524 0h-81.924v420.962h-207.438v-420.962h-80.924v420.962h-67.7889v62.2319h67.7889v16.4756c0 69.4923 16.1189 128.162 53.8811 165.925c27.3133 28.0922 66.7188 44.4055 119.319 44.4055c28.2378 0 54.6867 -8.7889 69.2378 -16.9078l-17.7622 -61.0108
c-13.1189 6.5678 -32.4756 12.8056 -52.9512 12.8056c-70.9946 0 -91.1302 -61.3246 -91.1302 -139.557v-22.1356h207.768v23.6867c0 69.0434 15.8811 130.476 56.1944 169.806c32.6433 31.3133 75.7188 44.3133 115.811 44.3133
c31.8811 0 57.8811 -6.7889 74.6433 -14.2378l-11.8056 -63.443c-14 6.1189 -31.1189 11.6867 -57.4756 11.6867c-76.8924 0 -95.9946 -68.2324 -95.9946 -145.693v-26.1189h118.308v-62.2319h-117.757v-420.962z" />
    <glyph glyph-name="f_f_i" unicode="&#xfb03;" horiz-adv-x="806" 
d="M697.762 690.092l-25.1944 -61.8919c-21.8811 13.7889 -57.8811 26.8056 -98.2111 26.8056c-93.9512 0 -121.502 -67.4435 -121.502 -147.336v-24.4756h279.702v-483.194h-81.1451v420.962h-198.006v-420.962h-81.924v420.962h-208.319v-420.962h-80.924v420.962
h-67.7889v62.2319h67.7889v19.3734c0 60.7889 15.8811 119.789 57.6433 161.119c27.7622 28.1022 68.9566 46.3133 121.675 46.3133c33.33 0 67.1189 -12.2378 85.4489 -21.6867l-23.4055 -60.7997c-15.6867 9.0167 -39.4923 17.9245 -62.519 17.9245
c-28.5945 0 -49.4001 -9.7889 -64.3079 -26.5945c-25.3734 -27.0434 -33.9412 -72.1135 -33.9412 -116.411v-19.2378h208.649v27.2545c0 126.745 73.1998 210.551 207.351 210.551c43.7622 0 93.7355 -13.5678 118.93 -30.9078z" />
    <glyph glyph-name="f_f_j" unicode="&#xe003;" horiz-adv-x="801" 
d="M697.762 690.092l-25.1944 -61.8919c-21.8811 13.7889 -57.8811 26.8056 -98.2111 26.8056c-93.9512 0 -121.502 -67.4435 -121.502 -147.336v-24.4756h279.702v-439.951c0 -92.7188 -13.6266 -153.481 -56.8377 -197.93
c-37.7455 -38.8811 -101.27 -53.8644 -146.156 -54.3133l-8.6433 64.443c40.5678 2.5511 75.3567 14.4489 96.4756 37.6867c24.1189 27.9078 34.0167 65.9078 34.0167 183.546v344.287h-198.006v-420.962h-81.924v420.962h-208.319v-420.962h-80.924v420.962h-67.7889
v62.2319h67.7889v19.3734c0 60.7889 15.8811 119.789 57.6433 161.119c27.7622 28.1022 68.9566 46.3133 121.675 46.3133c33.33 0 67.1189 -12.2378 85.4489 -21.6867l-23.4055 -60.7997c-15.6867 9.0167 -39.4923 17.9245 -62.519 17.9245
c-28.5945 0 -49.4001 -9.7889 -64.3079 -26.5945c-25.3734 -27.0434 -33.9412 -72.1135 -33.9412 -116.411v-19.2378h208.649v27.2545c0 126.745 73.1998 210.551 207.351 210.551c43.7622 0 93.7355 -13.5678 118.93 -30.9078z" />
    <glyph glyph-name="f_f_l" unicode="&#xfb04;" horiz-adv-x="806" 
d="M346.887 691.313l-22.8544 -61.6808c-17.9078 9.6867 -39.7134 15.8056 -61.4001 15.8056c-29.1456 0 -50.6212 -9.7889 -65.859 -26.9245c-25.3734 -26.2645 -33.9412 -69.1135 -33.9412 -115.081v-20.2378h208.649v21c0 69.0601 23.3133 128.492 68.1944 168.611
c36.7355 31.1944 85.5732 48.1944 152.081 48.1944c54.811 0 105.86 -11.8811 141.249 -30.9566v-690.043h-81.3729v644.081c-15.4589 7.67 -38.4756 13.2378 -73.6212 13.2378c-94.2491 0 -125.157 -69.4435 -125.157 -148.989v-25.1356h115.665v-62.2319h-115.114
v-420.962h-81.924v420.962h-208.319v-420.962h-80.924v420.962h-67.7889v62.2319h67.7889v12.6867c0 62.4322 13.9733 124.908 55.6433 166.594c30.0755 29.9733 73.9132 47.5244 127.87 47.5244c33.0167 0 65.8056 -11.2378 81.1356 -18.6867z" />
    <glyph glyph-name="f_i" horiz-adv-x="516" 
d="M163.162 0h-80.924v420.962h-67.7889v62.2319h67.7889v27.2545c0 126.745 72.1998 210.551 207.13 210.551c44.1944 0 96.151 -14.1189 120.794 -32.1189l-24.3133 -62.113c-21.2111 14.34 -58.7622 28.2378 -101.406 28.2378
c-93.8323 0 -121.611 -67.4435 -121.611 -147.336v-24.4756h280.26v-483.194h-81.7029v420.962h-198.227v-420.962z" />
    <glyph glyph-name="f_j" unicode="&#xe004;" horiz-adv-x="515" 
d="M163.162 0h-80.924v420.962h-67.7889v62.2319h67.7889v27.2545c0 126.745 72.1998 210.551 207.13 210.551c44.1944 0 96.151 -14.1189 120.794 -32.1189l-24.3133 -62.113c-21.2111 14.34 -58.7622 28.2378 -101.406 28.2378
c-93.8323 0 -121.611 -67.4435 -121.611 -147.336v-24.4756h280.26v-439.951c0 -92.7188 -14.4055 -153.481 -56.8377 -197.93c-38.3033 -38.8811 -102.049 -53.8644 -146.486 -54.3133l-8.6433 64.443c40.67 2.5511 75.2378 14.4489 96.0267 37.6867
c24.5678 27.9078 34.2378 65.9078 34.2378 183.546v344.287h-198.227v-420.962z" />
    <glyph glyph-name="f_l" horiz-adv-x="516" 
d="M163.162 0h-80.924v420.962h-67.7889v62.2319h67.7889v21c0 69.0601 22.7622 128.492 67.5244 168.611c36.9566 31.1944 85.4643 48.1944 152.53 48.1944c54.481 0 105.302 -11.8811 140.8 -30.9566v-690.043h-81.254v644.081
c-15.6867 7.67 -38.5945 13.2378 -73.4001 13.2378c-94.4702 0 -125.606 -69.4435 -125.606 -148.989v-25.1356h115.892v-62.2319h-115.562v-420.962z" />
    <glyph glyph-name="ij" unicode="&#x133;" horiz-adv-x="468" 
d="M155.756 0h-81.4751v483.194h81.4751v-483.194zM115.243 672.768c31.481 0 51.4376 -23.4055 51.7676 -53.1243c0.2211 -28.7188 -20.2866 -52.1243 -53.4376 -52.1243c-30.2599 0 -50.7676 23.4055 -50.7676 52.1243c0 29.2699 21.9566 53.1243 52.4376 53.1243z
M192.875 -209l-8.8644 64.443c41.1189 2.5511 75.3567 14.4489 96.4756 37.6867c24.1189 27.9078 34.2378 65.9078 34.2378 183.546v406.519h81.1451v-439.951c0 -92.7188 -13.6266 -153.481 -56.5077 -197.93c-38.0755 -38.8811 -101.6 -53.8644 -146.486 -54.3133z
M356.356 672.768c30.811 0 50.7676 -23.8544 50.7676 -53.1243c0 -27.7188 -19.2866 -52.1243 -53.2165 -52.1243c-30.7021 0 -50.6587 24.4055 -50.6587 52.1243c0 29.2699 21.6266 53.1243 53.1076 53.1243z" />
    <glyph glyph-name="zero.slash" unicode="&#xf638;" horiz-adv-x="509" 
d="M142.037 161.448l205.53 383.946c-20.9245 32.4756 -51.4001 52.0434 -92.7735 52.0434c-84.2057 0 -137.708 -107.562 -138.827 -269.319c0 -66.038 8.8056 -122.27 26.0701 -166.671zM371 487.644l-205.632 -385.038
c22.3567 -32.3567 51.6212 -49.5945 87.7568 -49.5945c93.8002 0 139.827 107.47 139.827 275.108c0 60.8002 -6.9078 114.914 -21.9512 159.525zM260.362 661c133.724 0 212.768 -118.962 212.768 -329.092c0 -222.427 -82.8978 -342.908 -224.243 -342.908
c-122.919 0 -210.53 115.632 -212.649 333.551c0 221.249 95.849 338.449 224.124 338.449z" />
    <glyph glyph-name="Euro" unicode="&#x20ac;" horiz-adv-x="509" 
d="M477.005 90.1297l16.5244 -58.8919c-30.7622 -21.1189 -82.7355 -42.2378 -148.524 -42.2378c-79.811 0 -150.173 30.4055 -199.368 86.8865c-38.7134 42.1456 -64.519 101.995 -73.0701 175.632h-62.2111v47.5732h57.1189v14.4322c0 16.0267 1 31.7134 2 46.0701
h-59.1189v48.1243h66.33c11.5511 71.519 41.9078 130.232 83.2812 172.038c50.1944 51.7188 113.794 81.2432 194.064 81.2432c59.7789 0 104.854 -16.7889 132.26 -32.1189l-19.4055 -61.8919c-25.33 15.5678 -67 28.5678 -112 28.5678
c-54.4756 0 -98.9245 -19.1189 -133.492 -54.5511c-31.0701 -30.2812 -52.1135 -77.6058 -62.3513 -133.287h281.919v-48.1243h-290.113c-1.7789 -13.2378 -2 -28.1456 -2 -42.8323v-17.67h292.113v-47.5732h-286.038c8.1189 -60.6813 28.2645 -105.438 57.3246 -136.719
c36.9078 -39.6867 87.1456 -58.4756 141.832 -58.4756c53.9245 0 99.4756 19.9078 122.925 33.8056z" />
    <glyph glyph-name="Aringacute" unicode="&#x1fa;" horiz-adv-x="607" 
d="M310.032 691.551c-54.8377 0 -89.0321 33.9733 -89.0321 76.1677c0 42.6433 33.6433 77.8377 90.0321 77.8377c54.5999 0 87.481 -34.6433 87.481 -77.8377c0 -43.5244 -35.4322 -76.1677 -88.481 -76.1677zM309.032 727.6c27.33 0 44.4489 16 44.4489 41.1189
c0 23.5678 -17.1189 42.5678 -45 42.5678c-27 0 -42.5678 -20.4489 -42.5678 -43.5678c0 -22.1189 17.5678 -40.1189 43.1189 -40.1189zM365.789 949.979h109.205l-141.864 -85.9733h-72.8919zM424.925 215.844h-243.319l-71.8757 -215.844h-83.8051l231.444 674h95.6749
l232.206 -674h-86.1184zM198.919 279.524h208.363l-68.8924 198.676c-14.7889 44.3567 -24.67 83.6433 -34.67 122.194h-2c-10 -39.2211 -20.67 -79.5077 -33.7889 -121.075z" />
    <glyph glyph-name="estimated" unicode="&#x212e;" horiz-adv-x="817" 
d="M782 316h-605c-3 0 -5 -1 -5 -4v-183c0 -8 4 -15 9 -21c57 -61 139 -99 229 -99c96 0 182 43 240 111h55c-68 -79 -176 -131 -296 -131c-206 0 -374 150 -374 336s168 336 374 336s373 -150 373 -336v-9zM646 340v184c0 9 -4 16 -10 22c-58 58 -138 95 -226 95
c-90 0 -170 -38 -228 -98c-6 -6 -10 -14 -10 -23v-180c0 -3 2 -5 5 -5h464c3 0 5 2 5 5z" />
    <glyph glyph-name="zero.oldstyle" unicode="&#xf730;" horiz-adv-x="526" 
d="M263.93 -11c-121.054 0 -222.556 89.5565 -222.556 252.432c0 159.087 101.053 252.762 222.556 252.762c120.724 0 222.557 -90.1076 222.557 -252.762c0 -159.308 -101.611 -252.432 -222.557 -252.432zM263.93 51.7997c90.2157 0 143.276 80.9946 143.276 189.632
c0 108.968 -53.2812 190.411 -143.276 190.411c-90.7735 0 -144.055 -81.4435 -144.055 -190.411c0 -108.638 53.7301 -189.632 144.055 -189.632z" />
    <glyph glyph-name="one.oldstyle" unicode="&#xf731;" horiz-adv-x="357" 
d="M257.492 0h-78.4918v414.574h-2l-135.594 -64.1356l-15.4055 60.5619l163.049 75.0922h68.443v-486.092z" />
    <glyph glyph-name="two.oldstyle" unicode="&#xf732;" horiz-adv-x="444" 
d="M416.632 0h-392.962v45.292l47.6166 33.1944c153.113 100.427 228.751 169.395 228.751 251.27c0 66.519 -46.8323 98.7735 -109.757 98.7735c-52.7134 0 -102.849 -24.2545 -137.638 -49.6112l-22.2866 53.0375c35.5678 27.2378 100.313 62.2378 180.379 62.2378
c99.3454 0 170.778 -56.0755 170.778 -153.957c0 -92.3567 -72.2378 -160.713 -180.276 -237.725l-51.5945 -38.0434v-2.2211c22.8377 1.9833 52.9887 3.3133 79.3354 3.3133h187.654v-65.5619z" />
    <glyph glyph-name="three.oldstyle" unicode="&#xf733;" horiz-adv-x="429" 
d="M16.8811 -95.0755l10.1944 60.6808c24.4322 -8.5511 66.4322 -16.7789 108.076 -16.7789c101.325 0 172.844 50.5357 172.844 125.174c0 64.6379 -61.2812 104.681 -154.681 104.681c-22.9078 0 -42.9078 -1 -55.1189 -2.4489l-1.67 60.8164l18.0755 1.5511
c95.0868 7.1189 166.13 44.849 166.13 108.487c0 55.519 -41.3734 82.9946 -107.206 82.9946c-51.2378 0 -99.5678 -22.2378 -122.762 -34.67l-17.4055 54.1397c29.8377 20.5244 92.4543 44.6433 157.649 44.6433c100.151 0 170.989 -50.6433 170.989 -132.94
c0 -68.4489 -49.8811 -118.541 -117.881 -138.779v-2.67c79.4489 -11 147.238 -59.33 147.238 -144.568c0 -114.405 -114.94 -190.194 -249.464 -190.194c-50.5999 0 -102.811 10 -125.005 19.8811z" />
    <glyph glyph-name="four.oldstyle" unicode="&#xf734;" horiz-adv-x="497" 
d="M479.249 52.0868h-92.2812v-166.492h-75.9507v166.492h-292.925v53.0375l282.065 386.206h86.8105v-376.443h92.2812v-62.7997zM311.017 114.886v206.433c0 32.3133 -0.4489 61.7188 2.5511 92.811l-4.33 0.67c-15.8811 -31.6433 -34.3133 -63.5999 -53.0755 -92.1243
l-156.195 -205.238l1.5511 -2.5511h209.498z" />
    <glyph glyph-name="five.oldstyle" unicode="&#xf735;" horiz-adv-x="438" 
d="M37.2812 -97.4055l10.1944 59.2486c22.67 -7.4489 63.8811 -13.4489 101.313 -13.4489c87.179 0 167.487 47.0601 167.487 133.293c0 29.1456 -11.9078 55.0701 -31.7134 75.2057c-40.1623 39.3834 -121.936 51.2645 -229.4 43.3567l51.4322 282.945h283.935
l-10.6433 -66.8752h-217.806l-30.3834 -154.465c82.4322 1.7889 168.027 -9.8544 221.383 -61.2111c30 -29 46 -70.5678 46 -112.194c0 -123.238 -103.924 -202.957 -250.243 -202.957c-42.7188 0 -87.1243 7.1022 -111.557 17.1022z" />
    <glyph glyph-name="six.oldstyle" unicode="&#xf736;" horiz-adv-x="516" 
d="M428.632 604.957l6.2111 -60.4697c-180.687 -11.6867 -276.087 -109.249 -299.443 -227.449l3.1189 0.1189c25.5678 36.8323 78.1623 75.1135 148.444 75.1135c101.194 0 186.076 -72.34 186.076 -191.102c0 -134.119 -103.194 -212.168 -204.632 -212.168
c-131.362 0 -220.124 98.1944 -220.124 245.168c0 206.643 144.168 356.627 380.351 370.789zM267.838 51.6808c60.9679 0 124.606 47.9512 124.606 145.395c0 83.7568 -50.2812 136.698 -125.157 136.698c-46.0434 0 -84.2057 -23.9245 -102.655 -44.2545
c-25.9512 -26.2812 -34.189 -51.0868 -34.189 -85.368c0 -81.5945 54.189 -152.47 137.395 -152.47z" />
    <glyph glyph-name="seven.oldstyle" unicode="&#xf737;" horiz-adv-x="423" 
d="M400.681 483.194v-52.2753c-62.2378 -163.951 -182.713 -388.427 -283.832 -544.876l-76.3729 15.2111c81.7622 118.076 223.07 371.827 275.951 512.065v2.4489h-298.648v67.4263h382.902z" />
    <glyph glyph-name="eight.oldstyle" unicode="&#xf738;" horiz-adv-x="509" 
d="M337.73 319.406v-2.8811c76.6212 -27.1189 129.832 -80.5945 129.832 -151.687c0 -107.313 -97.1944 -175.838 -214.632 -175.838c-125.26 0 -211.335 69.2111 -211.335 165.076c0 73.6867 52.2545 126.136 126.281 159.373v2.8811
c-56.67 22.9833 -102.162 65.4322 -102.162 129.238c0 94.7455 86.2111 160.27 194.979 160.27c109.302 0 183.54 -65.8377 183.54 -150.076c0 -57.1944 -33.7455 -102.211 -106.502 -136.357zM259.243 549.443c-62.6112 0 -114.038 -37.3567 -114.038 -97.4435
c0 -55.519 46.1623 -89.3079 123.13 -109.995c54.9779 16.6867 99.2591 52.7134 99.2591 110.232c0 64.4001 -53.4001 97.2057 -108.351 97.2057zM252.913 48.9353c73.6546 0 131.292 42.9345 131.292 108.021c0 64.849 -52.0434 107.206 -145.395 132.13
c-68.6546 -22.4756 -114.725 -69.189 -114.725 -126.698c0 -66.6379 49.1623 -113.454 128.827 -113.454z" />
    <glyph glyph-name="nine.oldstyle" unicode="&#xf739;" horiz-adv-x="516" 
d="M82.4489 -114.957l-6.2111 60.9186c171.687 7.4489 273.876 93.3513 301.206 214.838l-2 0.33c-20.33 -34.4923 -76.2545 -69.6546 -145.087 -69.6546c-99.9566 0 -185.864 70.0755 -185.864 191c0 120.287 93.3888 211.719 213.54 211.719
c115.649 0 210.216 -85.1243 210.216 -238.032c0 -215.438 -147.216 -362.092 -385.8 -371.119zM250.573 150.081c52.7568 0 101.259 31.1623 120.946 66.8757c9.5678 13.6867 15.6867 35.4756 15.6867 60.8323c0 92.5624 -61.2057 153.174 -133.174 153.174
c-61.6212 0 -128.276 -45.5945 -128.276 -142.606c0 -94.8002 58.4168 -138.276 124.817 -138.276z" />
    <glyph glyph-name="percent.oldstyle" unicode="&#xf642;" horiz-adv-x="810" 
d="M182.811 601.719c88.7943 0 148.108 -68.3888 148.108 -193.67c0 -137.449 -70.5999 -205.211 -153.108 -205.211c-79.811 0 -148.887 64.7355 -149.887 195.881c-0.4489 131.4 71 203 154.887 203zM180.032 551.968c-56.0434 0 -86.3079 -66.7301 -86.3079 -149.8
c-1.4489 -84.179 30.4756 -149.249 85.9679 -149.249c59.7401 0 86.2057 64.0868 86.2057 150.919c0 80.7301 -23.1356 148.13 -85.8657 148.13zM255.875 -12.4489h-53.4376l351.789 619.405h53.2165zM634.637 392c89.1243 0 148.216 -68.7188 148.216 -194
c0 -137.119 -70.5999 -204.881 -153.665 -204.881c-79.0321 0 -148.659 64.4055 -149.108 195.33c-0.67 132.07 71 203.551 154.556 203.551zM631.967 341.919c-56.0434 0 -86.0868 -66.2812 -87.0868 -149.8c-0.67 -84.0701 31.4756 -149.249 86.6379 -149.249
c59.849 0 85.7568 64.0868 85.7568 150.919c0 81.0601 -22.9078 148.13 -85.3079 148.13z" />
    <glyph glyph-name="zero.fitted" unicode="&#xf639;" horiz-adv-x="509" 
d="M260.362 661c133.724 0 212.768 -118.962 212.768 -329.092c0 -222.427 -82.8978 -342.908 -224.243 -342.908c-122.919 0 -210.53 115.632 -212.649 333.551c0 221.249 95.849 338.449 224.124 338.449zM255.124 597.438
c-78.7568 0 -136.844 -96.4435 -136.514 -275.557c-0.33 -170.757 53.519 -268.87 135.844 -268.87c92.1402 0 136.184 107.47 136.184 275.108c0 161.519 -41.5945 269.319 -135.514 269.319z" />
    <glyph glyph-name="one.fitted" unicode="&#xf6dc;" horiz-adv-x="320" 
d="M150.643 0v573.693h-2l-111.838 -61.5678l-16.4055 62.5619l139.53 75.3133h69.8752v-650h-79.1618z" />
    <glyph glyph-name="two.fitted" unicode="&#xf63a;" horiz-adv-x="441" 
d="M413.681 0h-410.681v50.1564l67.5999 66.0755c168.443 161.249 244.47 246.411 244.8 346.736c0 66.9512 -31 130.038 -129.876 130.038c-60.2378 0 -108.568 -30.5678 -138.33 -55.1189l-26.5999 57.2319c44.0922 38 107.26 65.8811 180.649 65.8811
c139.406 0 196.2 -97.0434 196.2 -187.151c0 -121.611 -88.0434 -219.655 -229.125 -355.763l-50.4055 -47.8811v-2h295.768v-68.2052z" />
    <glyph glyph-name="three.fitted" unicode="&#xf63b;" horiz-adv-x="445" 
d="M7 33.33l23.0755 62.783c24.33 -15.67 81.9733 -40.67 143.524 -40.67c115.487 0 150.8 74.708 149.8 129.514c-1.1189 94.0113 -85.2057 133.725 -171.725 133.725h-47.7188v61.7997h48.2866c65.2812 0 147.8 34.2812 147.8 113.606
c0 52.9512 -33.4489 100.47 -116.087 100.47c-51.4322 0 -101.076 -23 -129.194 -43.2378l-23.0755 59.2319c33.6433 25.33 98.7021 50.4489 167.081 50.4489c127.508 0 184.2 -75.7889 184.2 -154.524c0 -66.8811 -41.1189 -124.449 -120.449 -153.119v-2
c80.5678 -15.34 145.238 -76.2378 145.238 -167.594c0 -102.838 -79.4643 -194.762 -234.2 -194.762c-71.8377 0 -135.362 22.67 -166.556 44.33z" />
    <glyph glyph-name="four.fitted" unicode="&#xf63c;" horiz-adv-x="498" 
d="M391.205 0h-77.6107v179.325h-302.951v53.5886l293.421 417.087h87.1405v-406.774h91.9512v-63.9019h-91.9512v-179.325zM94.3996 243.226h219.195v224.449c0 33.6433 0.8811 67.1677 3.33 100.243l-3.4489 0.4489
c-20.5511 -38.5411 -35.7622 -65.4977 -53.5244 -94.3354l-165.552 -228.806v-2z" />
    <glyph glyph-name="five.fitted" unicode="&#xf63d;" horiz-adv-x="455" 
d="M401.707 650v-68.8752h-246.864l-26.1623 -173.644c15 2.4489 29.1189 4.1189 53.7134 4.1189c49.6166 0 97.4376 -10.7622 137.411 -34.1677c50.1189 -27.8644 93.9512 -84.4322 93.9512 -167.238c0 -127.357 -100.313 -221.194 -238.156 -221.194
c-70.5244 0 -129.719 20.1189 -160.362 40.2378l21.6433 62.5619c26.4322 -16.1189 79.0755 -36.6867 138.524 -36.6867c84.3079 0 155.995 56.8924 155.995 145.86c-0.67 85.189 -57.2378 146.497 -187.238 146.497c-37.5678 0 -66.8056 -3.34 -90.2378 -6.67l42 309.2
h305.783z" />
    <glyph glyph-name="six.fitted" unicode="&#xf63e;" horiz-adv-x="510" 
d="M414.038 660.119l0.4489 -67.3508c-18.4489 0.2211 -41.3567 -0.4489 -67.2545 -4.5678c-138.238 -23.3834 -212.519 -127.751 -226.502 -238.568h2.5511c30.8811 42.8223 85.4756 78.2224 158.638 78.2224c116.254 0 196.092 -84.2545 196.092 -210.211
c0 -117.957 -79.811 -228.643 -214.784 -228.643c-135.064 0 -226.421 106.124 -226.421 276.194c0 128.357 45.67 229.687 109.194 293.568c52.8377 52.1944 124.005 85.3133 203.919 96.4489c25.8811 4.1189 47.67 5.2378 64.1189 4.9078zM264.573 52.3508
c77.5457 0 130.514 64.849 130.514 160.081c0 96.4869 -55.6546 152.725 -137.725 152.725c-54.2812 0 -105.13 -33.1456 -129.725 -81.9946c-5.67 -10.4489 -9.7889 -23.1189 -9.7889 -38.5511c1.1022 -110.844 51.9512 -192.26 146.725 -192.26z" />
    <glyph glyph-name="seven.fitted" unicode="&#xf63f;" horiz-adv-x="406" 
d="M1.2111 650h405.443v-54.6053l-284.849 -595.395h-83.8973l282.73 580.244v2h-319.427v67.7563z" />
    <glyph glyph-name="eight.fitted" unicode="&#xf640;" horiz-adv-x="509" 
d="M252.913 -11c-132.302 0 -215.108 79.8377 -215.108 175.313c0 82.5678 49.2378 140.924 129.832 175.492l-0.67 3.4489c-73.3734 33.67 -104.822 89.4589 -104.822 145.789c0 101.745 86.6166 171.957 199.546 171.957c122.989 0 186.319 -77.9566 186.319 -159.075
c0 -55 -27.2111 -114.687 -107.832 -152.595v-3.4489c82.189 -32.1456 131.383 -90.6112 131.383 -168.476c0 -112.643 -96.4322 -188.405 -218.649 -188.405zM254.675 49.8164c81.5624 0 134.411 49.9512 134.411 119.157c0 80.5457 -56.6112 119.232 -146.962 144.827
c-78.2324 -22.9245 -120.844 -74.3246 -120.844 -137.725c-3.1189 -67.3079 47.8323 -126.259 133.395 -126.259zM256.362 601.514c-75.2057 0 -116.157 -49.2812 -116.157 -106.351c0 -66.8757 50.4923 -102.681 127.038 -122.589
c57.4268 19.2645 102.038 59.7401 102.038 121.276c0 52.3834 -31.9245 107.665 -112.919 107.665z" />
    <glyph glyph-name="nine.fitted" unicode="&#xf641;" horiz-adv-x="513" 
d="M97.2545 -10.1189v67.6808c18.5511 -2 40.9078 -0.33 70.9078 3.5678c50.9078 6.9078 99.3567 28.3834 137.373 64.5457c42.2211 40.9412 73.4589 98.8924 85.4589 178.244l-2.2211 -0.1189c-37.2545 -45.7301 -89.9679 -72.3246 -156.104 -72.3246
c-117.476 0 -190.957 89.6112 -190.957 199.541c0 121.534 88.1677 229.983 220.454 229.983c129.064 0 211.632 -105.794 211.632 -273.643c0 -143.476 -48.6867 -243.594 -111.881 -305.357c-48.7188 -48.0755 -116.2 -78.0755 -183.281 -86.3133
c-32.0267 -5.2378 -60.9245 -6.8056 -81.3834 -5.8056zM254.6 598.2c-77.4435 0 -131.844 -68.2057 -131.844 -162.649c0.33 -83.1135 50.6379 -141.157 128.487 -141.157c60.519 0 108.157 30.1623 132.53 71.0113c4.2211 7.5511 7.67 17.1022 7.67 31.1944
c0.33 115.081 -42.519 201.6 -136.844 201.6z" />
    <glyph glyph-name="zero.slashfitted" unicode="&#xe008;" horiz-adv-x="509" 
d="M142.037 161.448l205.53 383.946c-20.9245 32.4756 -51.4001 52.0434 -92.7735 52.0434c-84.2057 0 -137.708 -107.562 -138.827 -269.319c0 -66.038 8.8056 -122.27 26.0701 -166.671zM371 487.644l-205.632 -385.038
c22.3567 -32.3567 51.6212 -49.5945 87.7568 -49.5945c93.8002 0 139.827 107.47 139.827 275.108c0 60.8002 -6.9078 114.914 -21.9512 159.525zM260.362 661c133.724 0 212.768 -118.962 212.768 -329.092c0 -222.427 -82.8978 -342.908 -224.243 -342.908
c-122.919 0 -210.53 115.632 -212.649 333.551c0 221.249 95.849 338.449 224.124 338.449z" />
    <glyph glyph-name="zero.taboldstyle" unicode="&#xf643;" horiz-adv-x="526" 
d="M263.93 -11c-121.054 0 -222.556 89.5565 -222.556 252.432c0 159.087 101.053 252.762 222.556 252.762c120.724 0 222.557 -90.1076 222.557 -252.762c0 -159.308 -101.611 -252.432 -222.557 -252.432zM263.93 51.7997c90.2157 0 143.276 80.9946 143.276 189.632
c0 108.968 -53.2812 190.411 -143.276 190.411c-90.7735 0 -144.055 -81.4435 -144.055 -190.411c0 -108.638 53.7301 -189.632 144.055 -189.632z" />
    <glyph glyph-name="one.taboldstyle" unicode="&#xf644;" horiz-adv-x="526" 
d="M361.113 0h-78.264v416.557h-2l-187.281 -84.9512l-15.0922 60.5619l214.313 93.9245h68.3241v-486.092z" />
    <glyph glyph-name="two.taboldstyle" unicode="&#xf645;" horiz-adv-x="526" 
d="M459.319 0h-392.962v45.292l47.8377 33.1944c152.892 100.427 228.53 169.395 228.53 251.27c0 66.519 -46.6112 98.7735 -109.757 98.7735c-52.4923 0 -102.849 -24.2545 -137.417 -49.6112l-22.5077 53.0375c35.7889 27.2378 100.643 62.2378 180.6 62.2378
c99.1243 0 170.556 -56.0755 170.556 -153.957c0 -92.3567 -72.2378 -160.713 -180.276 -237.725l-51.5945 -38.0434v-2.2211c23.0588 1.9833 52.9887 3.3133 79.5565 3.3133h187.433v-65.5619z" />
    <glyph glyph-name="three.taboldstyle" unicode="&#xf646;" horiz-adv-x="526" 
d="M61.7889 -95.0755l9.9733 60.6808c24.8811 -8.5511 66.8811 -16.7789 108.524 -16.7789c100.995 0 172.844 50.5357 172.844 125.174c0 64.6379 -61.6112 104.681 -155.13 104.681c-22.5678 0 -42.5678 -1 -55 -2.4489l-1.67 60.8164l17.9566 1.5511
c95.3079 7.1189 166.021 44.849 166.021 108.487c0 55.519 -41.2645 82.9946 -106.757 82.9946c-51.3567 0 -99.4589 -22.2378 -123.432 -34.67l-16.6266 54.1397c29.3888 20.5244 91.8965 44.6433 157.87 44.6433c99.481 0 170.319 -50.6433 170.319 -132.94
c0 -68.4489 -49.4322 -118.541 -117.881 -138.779v-2.67c79.1189 -11 147.687 -59.33 147.687 -144.568c0 -114.405 -115.049 -190.194 -249.692 -190.194c-50.151 0 -102.583 10 -125.005 19.8811z" />
    <glyph glyph-name="four.taboldstyle" unicode="&#xf647;" horiz-adv-x="526" 
d="M493.843 52.0868h-92.2812v-166.492h-75.9507v166.492h-292.924v53.0375l282.065 386.206h86.8105v-376.443h92.2812v-62.7997zM325.611 114.886v206.433c0 32.3133 -0.4489 61.7188 2.5511 92.811l-4 0.67c-15.8811 -31.6433 -34.6433 -63.5999 -53.4055 -92.1243
l-156.195 -205.238l1.5511 -2.5511h209.498z" />
    <glyph glyph-name="five.taboldstyle" unicode="&#xf648;" horiz-adv-x="526" 
d="M78.5945 -97.4055l10.1944 59.2486c23.4489 -7.4489 63.8811 -13.4489 101.643 -13.4489c86.849 0 167.487 47.0601 167.487 133.293c0 29.1456 -11.6867 55.0701 -32.0434 75.2057c-39.7134 39.3834 -121.157 51.2645 -228.4 43.3567l50.8811 282.945h283.486
l-10.6433 -66.8752h-217.357l-30.6112 -154.465c82.2111 1.7889 168.584 -9.8544 221.162 -61.2111c30.4489 -29 46.33 -70.5678 46.33 -112.194c0 -123.238 -103.925 -202.957 -250.124 -202.957c-42.8377 0 -87.2432 7.1022 -112.005 17.1022z" />
    <glyph glyph-name="six.taboldstyle" unicode="&#xf649;" horiz-adv-x="526" 
d="M438.2 604.957l6.2111 -60.4697c-180.687 -11.6867 -276.206 -109.249 -299.444 -227.449l3.4489 0.1189c25.01 36.8323 77.3834 75.1135 148.665 75.1135c100.524 0 185.524 -72.34 185.524 -191.102c0 -134.119 -103.194 -212.168 -205.081 -212.168
c-131.362 0 -220.124 98.1944 -220.124 245.168c0 206.643 144.389 356.627 380.8 370.789zM277.406 51.6808c61.189 0 124.157 47.9512 124.157 145.395c0 83.7568 -50.2812 136.698 -124.487 136.698c-46.7134 0 -83.8757 -23.9245 -102.995 -44.2545
c-25.8323 -26.2812 -33.849 -51.0868 -33.849 -85.368c0 -81.5945 53.9679 -152.47 137.174 -152.47z" />
    <glyph glyph-name="seven.taboldstyle" unicode="&#xf64a;" horiz-adv-x="526" 
d="M450.605 483.194v-52.2753c-62.2378 -163.951 -183.162 -388.427 -283.832 -544.876l-76.3729 15.2111c81.7622 118.076 223.07 371.827 276.281 512.065v2.4489h-299.206v67.4263h383.13z" />
    <glyph glyph-name="eight.taboldstyle" unicode="&#xf64b;" horiz-adv-x="526" 
d="M344.967 319.406v-2.8811c76.9512 -27.1189 129.832 -80.5945 129.832 -151.687c0 -107.313 -97.1944 -175.838 -215.081 -175.838c-125.032 0 -210.886 69.2111 -210.886 165.076c0 73.6867 51.8056 126.136 126.281 159.373v2.8811
c-56.34 22.9833 -102.162 65.4322 -102.162 129.238c0 94.7455 85.7622 160.27 194.53 160.27c109.53 0 183.989 -65.8377 183.989 -150.076c0 -57.1944 -33.7455 -102.211 -106.502 -136.357zM266.481 549.443c-62.6112 0 -114.038 -37.3567 -114.038 -97.4435
c0 -55.519 46.1623 -89.3079 122.681 -109.995c54.7568 16.6867 99.4869 52.7134 99.4869 110.232c0 64.4001 -52.849 97.2057 -108.13 97.2057zM260.481 48.9353c73.2057 0 130.962 42.9345 130.962 108.021c0 64.849 -52.4923 107.206 -145.844 132.13
c-68.2057 -22.4756 -114.725 -69.189 -114.725 -126.698c0 -66.6379 49.6112 -113.454 129.606 -113.454z" />
    <glyph glyph-name="nine.taboldstyle" unicode="&#xf64c;" horiz-adv-x="526" 
d="M89.3567 -114.957l-5.8811 60.9186c171.687 7.4489 273.655 93.3513 301.206 214.838l-2 0.33c-20.33 -34.4923 -75.8056 -69.6546 -144.968 -69.6546c-100.406 0 -186.313 70.0755 -186.313 191c0 120.287 93.3888 211.719 213.649 211.719
c116.319 0 210.438 -85.1243 210.438 -238.032c0 -215.438 -147.438 -362.092 -386.13 -371.119zM257.481 150.081c53.0868 0 101.487 31.1623 120.725 66.8757c9.7889 13.6867 16.3567 35.4756 16.3567 60.8323c0 92.5624 -61.3246 153.174 -132.844 153.174
c-61.9512 0 -128.946 -45.5945 -128.946 -142.606c0 -94.8002 58.3079 -138.276 124.708 -138.276z" />
    <glyph glyph-name="dollar.taboldstyle" unicode="&#xf653;" horiz-adv-x="526" 
d="M291.751 -80.5244h-53.632v79.6433c-52.6266 0.8811 -112.389 16.3133 -146.151 39.0922l23.5244 56.5886c27.8644 -20 83.9399 -35.7622 132.27 -35.7622c58.8323 0 109.249 28.4001 109.249 74.368c0 41.189 -31.179 62.4435 -102.298 86.5624
c-101.838 34.1022 -151.864 69.5244 -151.864 136.508c0 66.0922 57.5511 115.194 141.389 125.617v84.2966h54.4109v-82.3133c53.4322 -1.8811 97.7455 -17.5511 122.389 -31.4322l-22.7455 -56.2753c-23.66 14 -67.9733 29.8811 -115.524 29.8811
c-55.1623 0 -98.7735 -25.9412 -98.7735 -63.8924c0 -36.8323 24.0434 -56.2057 110.638 -84.6646c99.2599 -32.2111 145.617 -74.9733 145.617 -139.854c0 -63.0922 -53.33 -123.194 -148.498 -136.838v-81.5244z" />
    <glyph glyph-name="cent.taboldstyle" unicode="&#xf654;" horiz-adv-x="526" 
d="M400.887 127.335l12.9833 -56.5031c-16.3133 -8.5511 -55.4322 -22.2378 -99.9078 -23.9078v-71.8811h-52.5298v72.4322c-106.983 11.7622 -179.864 82.8544 -179.864 196.406c0 108.357 72.5778 188.881 179.864 204.075v68.0922h52.5298v-66.2111
c40.5945 0 79.1623 -11.2378 99.3734 -20.6867l-16.0922 -56.2753c-20.5678 11.2378 -53.3567 18.6867 -95.6112 18.6867c-84.0534 0 -141.995 -57.9512 -141.995 -143.8c0 -92.7301 61.9245 -141.562 138.087 -141.562c48.0434 0 81.8323 10.9078 103.162 21.1356z" />
    <glyph glyph-name="Euro.taboldstyle" unicode="&#xf64e;" horiz-adv-x="526" 
d="M463.53 79.0375l11.7622 -56.5886c-22.9733 -14.8811 -75.8544 -33.4489 -136.735 -33.4489c-64.5077 0 -129.6 21.3133 -177.27 69.3133c-30 30 -52 72.5678 -61.2111 120.136h-62.7622v46.4643h56c-0.67 11.1189 -1.2211 18.8978 -1.2211 24.5678
c0 9.9078 0.2211 22.4756 2.2211 36.1623h-56.67v46.2432h63.4322c11 46.1189 33.33 86.9078 63.33 117.357c51 51 119.194 74.7622 187.6 74.7622c58.8811 0 96.2866 -15.4489 121.957 -28.5678l-18.9566 -58.0375c-23.8056 12.2378 -56.8056 24.3567 -105.281 24.3567
c-44.6867 0 -89.1623 -14.1189 -124.308 -48.5945c-21.3734 -20.5945 -37.849 -49.3246 -43.2979 -81.2758h252.632v-46.2432h-261.708c-1.4489 -11.5678 -2.1189 -22.3567 -2.1189 -29.9245c0 -8.67 0 -18.2378 1.4489 -30.8056h262.378v-46.4643h-253.303
c7.1189 -30.7301 21.1456 -57.0113 40.0701 -75.4869c37.3734 -35.5945 77.6112 -50.1623 128.087 -50.1623c49.1456 0 90.0267 14.2378 113.925 26.2378z" />
    <glyph glyph-name="florin.taboldstyle" unicode="&#xf64f;" horiz-adv-x="526" 
d="M128.924 284.325v54.632h100.043l6 53.1189c12.3567 102.038 57.5023 214.881 188.438 213.762c29.3133 0 53.5077 -7.5511 67.2699 -14.8811l-15.6266 -59.7997c-15.6867 5.4489 -32.1356 10.1189 -52.8056 10.1189c-70.0868 0 -99.6646 -67.8002 -108.562 -143.557
l-6.5511 -58.7622h122.968v-54.632h-129.73l-22 -183.4c-15.4489 -130.255 -56.4489 -217.881 -172.005 -217.33c-32.0755 0 -59.5999 7.33 -75.5999 16.4489l15.1944 58.3508c17.5678 -8.1189 35.6867 -11.5678 56.5945 -11.7889
c62.6112 0.5511 87.0868 58.0113 98.9679 159.07l20.3567 178.649h-92.9512z" />
    <glyph glyph-name="sterling.taboldstyle" unicode="&#xf651;" horiz-adv-x="526" 
d="M273.8 34.103h56.9357v-12.323c20.79 8.58 -232.517 23.43 -232.517 41.25c0 3.96 -0.33 32.8909 -0.99 36.5209c46.4645 20.1067 41.5678 51.8245 41.5678 86.8856c0 14.5256 -2.4589 53.1512 -5.1389 67.6768h-35.7978c-0.99 5.94 -1.98 41.3198 -1.98 47.2598
c0 37.62 82.2445 66.66 125.474 66.66c14.49 12.0667 26.2311 20.6223 33.8211 27.9501c0 76.6011 42.9833 96.2399 111.504 96.2399c26.9 3.63 39.6644 -2.2189 42.0755 -10.48c-22.11 0 -44.7133 -45.5008 -44.7133 -66.9508
c-11.6111 0.9811 -31.6122 2.52 -59.6667 -2.76c-51.6034 0 -29.339 -35.0745 -29.339 -92.5002c0 -12.0667 1.7889 -47.5634 3.7989 -59.409h59.5245c0.33 -2.31 0.33 -34.7198 0.33 -37.0298c-0.99 -15.84 -106.961 -27.72 -116.531 -34.32
c2.2378 -11.6245 4.0267 -24.3579 4.0267 -36.2035c0 -36.8567 75.5478 -66.7923 47.6155 -85.1168v-33.35z" />
    <glyph glyph-name="yen.taboldstyle" unicode="&#xf652;" horiz-adv-x="526" 
d="M300.579 0h-77.0596v115.713h-152.789v47.4543h152.789v60.1456h-152.789v47.1243h128.383l-149.789 242.568h87.594l88.1302 -156.351c16 -29.8544 28.2211 -53.6166 38.8811 -76.9032h2.67c10.7622 24.4055 26.33 51.1677 41.8811 79.0221l93.368 154.232h85.1618
l-160.806 -242.568h128.162v-47.1243h-153.789v-60.1456h153.789v-47.4543h-153.789v-115.713z" />
    <glyph glyph-name="numbersign.taboldstyle" unicode="&#xf650;" horiz-adv-x="526" 
d="M202.438 224.481h105.281l18.5678 148.038h-104.611zM172.243 -2.6433h-57.5298l22.7789 171.162h-82.8978v55.962h91.0922l19.1189 148.038h-86.4489v55.5131h94.3133l22.4489 166.162h55.7509l-21.2211 -166.162h105.281l22 166.162h56.0809l-21.33 -166.162h82.1189
v-55.5131h-90.3133l-19.0167 -148.038h86.6867v-55.5131h-95.2111l-22.2211 -171.611h-57.1998l22.67 171.611h-104.951z" />
    <glyph glyph-name="zero.superior" unicode="&#x2070;" horiz-adv-x="331" 
d="M163.675 438c-85.3187 0 -140.556 73.0488 -140.556 198.551c0 125.849 57.0267 201.449 145.243 201.449c90.0054 0 140.438 -74.7188 140.438 -196.983c0 -124.087 -49.4489 -203.017 -145.124 -203.017zM165.124 485.768c51.849 0 77.7568 57.519 77.7568 153.351
c0 94.0434 -24.7889 150.562 -77.0868 150.562c-46.1623 0 -76.7568 -56.0701 -76.7568 -150.562c0 -97.2812 29.4756 -153.351 76.0868 -153.351z" />
    <glyph glyph-name="one.superior" horiz-adv-x="238" 
d="M171.4 443h-65.113v331.487h-2l-71.5244 -34.33l-10.6433 49.0809l91.9132 43.7622h57.3675v-390z" />
    <glyph glyph-name="two.superior" horiz-adv-x="306" 
d="M11.7622 443v34.9132l63.1189 58.5678c83.4756 76.5945 126.713 124.876 126.713 176.47c0 39.0434 -23.7889 71.2057 -77.6379 71.2057c-35.1189 0 -65.4489 -17.6867 -83.4322 -30.7889l-19.9566 42.302c25.7455 22.33 70.2699 42.33 119.556 42.33
c93.6433 0 130.913 -60.4756 130.913 -112.076c0 -76.2378 -57.5678 -132.281 -134.308 -200.249l-31.8056 -29.0434v-2h172.665v-51.632h-265.826z" />
    <glyph glyph-name="three.superior" 
d="M44.8811 761.562l-17.0922 44.8865c23.4222 14.4322 64.9299 31.5511 112.886 31.5511c85.2866 0 120.454 -46.1189 120.454 -94.3133c0 -39.7622 -29.4222 -73.33 -76.1944 -90.1189v-2c54.2211 -7.4489 92.3133 -46.6867 92.3133 -97.0167
c0 -61.0755 -54.5999 -116.551 -155.675 -116.551c-47.9733 0 -91.0488 12.4489 -113.022 27.33l18.0922 47.3187c15.3133 -10.33 54.5244 -26 92.3133 -26c63.5357 0 89.519 37.6379 88.849 69.3246c0 52.189 -54.1623 72.4268 -107.757 72.4268h-26.7622v43.6754h27.5511
c37.2378 0 91.7301 17.8056 92.4001 65.3246c0 25.2378 -18.5678 51.4001 -64.1623 51.4001c-36 0 -68.4322 -16.2378 -84.1944 -27.2378z" />
    <glyph glyph-name="four.superior" unicode="&#x2074;" horiz-adv-x="342" 
d="M267.892 443h-63.3675v103.281h-189.211v38.6754l178.611 249.595h73.9674v-240.832h55.9078v-47.4376h-55.9078v-103.281zM204.524 593.719v121.649c0 21.7622 1.5511 42.7455 2.8811 61.8377l-2.33 0.2211c-12 -23.1022 -21.8811 -40.1944 -33.4322 -58.0755
l-90.1569 -124.184l0.8811 -1.4489h122.157z" />
    <glyph glyph-name="five.superior" unicode="&#x2075;" horiz-adv-x="303" 
d="M264.632 833v-52.7509h-154.194l-13.3567 -88.0547c8.1189 1 18 1.4489 31.3567 1.4489c32.5244 0 64.811 -5.5511 90.5732 -21.1944c30.34 -16.8811 55.6967 -51.33 55.6967 -100.687c0 -77 -62.3133 -133.762 -152.778 -133.762
c-43.7789 0 -83.7355 12.1189 -103.498 23.5678l14.2111 47.1998c16.8811 -9.4489 50.5244 -21.4489 87.7455 -21.4489c46.6112 0 89.6112 29.7301 89.6112 78.4435c0 47.1623 -32.5678 81.3246 -113 81.3246c-23.1189 0 -41.67 -2.4489 -57 -4.4489l26 190.362h198.632z
" />
    <glyph glyph-name="six.superior" unicode="&#x2076;" horiz-adv-x="328" 
d="M264.319 837.119v-50.4376c-10.67 0.33 -25.67 0.5511 -40.2378 -1.5678c-80.8056 -11.0267 -126.043 -65.3513 -135.806 -126.751h1.33c18.2211 22.4756 52.1189 42.9512 94.2645 42.9512c72.66 0 122.092 -50.1189 122.092 -125.221
c0 -75.4977 -56.0321 -138.092 -136.93 -138.092c-90.5565 0 -145.913 67.5999 -145.913 166.313c0 74.3567 27.4489 135.136 67.4322 173.017c33.9733 32.9833 78.8377 51.7622 134.098 57.2211c15.67 1.7789 30 2.8978 39.67 2.5678zM168.93 485.768
c43.2812 0 72.8757 36.7134 72.8757 86.4435c0 50.6379 -30.2812 83.4268 -78.2057 83.4268c-31.0267 0 -59.4001 -19.7889 -72.7568 -45.7134c-2.67 -6.4489 -5.1189 -13.1189 -5.1189 -22.1189c0 -56.3246 28.9245 -102.038 83.2057 -102.038z" />
    <glyph glyph-name="seven.superior" unicode="&#x2077;" horiz-adv-x="290" 
d="M19.0922 833h259.632v-41.1243l-172.255 -348.876h-66.4697l171.357 336.919v1h-192.264v52.0809z" />
    <glyph glyph-name="eight.superior" unicode="&#x2078;" horiz-adv-x="324" 
d="M165.6 838c80.5999 0 120.481 -47.3133 120.481 -97.0922c0 -33.1022 -17.7622 -68.67 -63.8056 -88.5778v-2c46.1623 -17.6867 79.0167 -50.9245 79.0167 -98.6867c0 -67.8811 -59.33 -113.643 -140.243 -113.643c-88.5732 0 -137.379 49.9566 -137.379 104.881
c0 48.4489 29.33 80.9078 77.4656 101.476v2c-43.1356 19.4489 -63.0167 52.1189 -63.0167 86.4489c0 62.3133 55.0755 105.194 127.481 105.194zM162.032 482.557c45.849 0 74.7735 28.0434 74.7735 64.0868c0 44.3834 -33.0167 65.519 -81.7735 78.2057
c-43.2812 -11.8978 -67.4268 -39.6112 -67.4268 -74.2057c0 -35.7134 27.4756 -68.0868 74.4268 -68.0868zM163.6 793.443c-42.8323 0 -65.6379 -26.5945 -65.6379 -56.9679c0 -35.8323 27.8056 -56.0701 71.519 -67.189c31.7134 9.9078 56.6379 31.5945 56.6379 65.3079
c0 28.8056 -18.1189 58.849 -62.519 58.849z" />
    <glyph glyph-name="nine.superior" unicode="&#x2079;" horiz-adv-x="323" 
d="M58 438.33v49.9887c11 -1 26 -0.5511 42.6867 1.1189c31.1189 3.5678 60.67 15.2545 83.67 34.7301c26 22.0267 44 53.4001 51.4489 94.8002l-1.7789 0.5511c-20.5778 -25.0434 -51.5945 -39.8323 -90.8323 -39.8323c-71.2378 0 -120.076 50.4756 -120.076 119.432
c0 74.3133 57.4055 138.881 140.049 138.881c87.2265 0 137.345 -68.151 137.345 -165.762c0 -83.4756 -29.2378 -143.476 -68.2211 -180.357c-33.1844 -30.1944 -79.0221 -47.1944 -127.368 -51.7622c-17.6867 -2.67 -35.3567 -2.7889 -46.9245 -1.7889zM159.93 790.011
c-43.179 0 -73.6546 -37.6112 -73.6546 -88.0113c0 -42.9512 28.4923 -76.6379 73.0868 -76.6379c33.5945 0 59.6379 16.6867 72.9946 38.2812c3 4.67 4.33 10.8811 4.33 19.4322c0 59.3246 -23.2545 106.936 -76.7568 106.936z" />
    <glyph glyph-name="period.superior" unicode="&#xf6e8;" horiz-adv-x="126" 
d="M63.2432 438c-24.8377 0 -41.9132 18.5244 -41.9132 42.9132c0 25.6166 17.7455 43.3621 42.4643 43.3621c25.1677 0 41.5732 -17.7455 41.5732 -43.3621c0 -24.3888 -16.4055 -42.9132 -42.1243 -42.9132z" />
    <glyph glyph-name="comma.superior" unicode="&#xf6e2;" horiz-adv-x="126" 
d="M46.6921 375.194l-45.7676 -4.5511c15.1944 41.5832 30.7455 104.481 37.9566 152.2l70.2753 6c-15.6433 -54.8377 -41.7455 -119.406 -62.4643 -153.649z" />
    <glyph glyph-name="dollar.superior" unicode="&#xf6e4;" horiz-adv-x="313" 
d="M175.87 391.67h-42.4643v59.0167c-37.5244 0.8811 -75.2866 11.4322 -97.7188 26.5511l15.9833 48.3187c23.6433 -15.2211 56.2866 -27.33 92.2599 -27.33c42.3567 0 69.8323 22.0434 69.8323 53.5357c0 30.0434 -21.8056 47.519 -68.5678 64.9679
c-65.1944 24.34 -104.168 51.7889 -104.168 105.313c0 50.6433 35.7622 89.6266 95.4977 99.2866v59.2378h42.7943v-56.8056c36.5511 -1 64.4055 -11 82.2866 -21.4489l-15.7622 -46.3187c-12.7622 7.7789 -40.5244 21.33 -80.7188 21.33
c-46.4756 0 -62.1623 -25.0434 -62.1623 -47.189c0 -28.0434 20.3567 -41.7301 76 -62.849c65.8377 -25.4489 96.9566 -56.33 96.9566 -110.762c0 -47.9733 -34.6433 -92.5244 -100.049 -103.406v-61.4489z" />
    <glyph glyph-name="cent.superior" unicode="&#xf6e0;" horiz-adv-x="312" 
d="M203.226 434.432h-43.7943v59.8978c-40 5.2211 -67.4322 19.8811 -89.4322 43.4322c-21.33 23.8811 -34 57.8811 -34 100.119c0 76.0267 46.6867 136.449 123.432 148.432v59.0167h43.7943v-57.6867c25.9245 0 49.4923 -7.2378 64.9245 -14.6867l-12.4322 -46.9887
c-12.5511 6.67 -32.5678 14.2378 -62.2645 14.2378c-57.8223 0 -94.4168 -42.7301 -94.4168 -99.4435c0 -63.1623 41.8056 -98.3246 92.849 -98.3246c31.9245 0 53.0434 6.7889 68.0434 13.2378l10.4322 -44.4376c-12.7622 -6.8811 -37.5511 -15.7889 -67.1356 -17.5678
v-59.2378z" />
    <glyph glyph-name="hyphen.superior" unicode="&#xf6e6;" horiz-adv-x="188" 
d="M18 649.049h153.151v-46.0054h-153.151v46.0054z" />
    <glyph glyph-name="parenleft.superior" unicode="&#x207d;" horiz-adv-x="177" 
d="M117.476 868h48.8865c-40.8323 -57.8056 -73.2812 -136 -73.2812 -243.238c0 -106.449 33.2378 -182.211 73.2812 -241.238h-48.8865c-36.8056 48.9078 -77.5945 125.119 -77.5945 241.238c0 116.449 41.1189 193.881 77.5945 243.238z" />
    <glyph glyph-name="parenright.superior" unicode="&#x207e;" horiz-adv-x="177" 
d="M60.7509 383.524h-48.1076c39.7134 58.9078 72.8323 135.67 72.8323 242.238s-32.34 183.432 -72.8323 242.238h48.1076c36.8056 -48.6867 77.9245 -125.449 77.9245 -242.238c0 -115.119 -41.1189 -192.33 -77.9245 -242.238z" />
    <glyph glyph-name="zero.inferior" unicode="&#x2080;" horiz-adv-x="331" 
d="M163.675 -152c-85.3187 0 -140.556 73.5999 -140.556 198.881c0 125.968 57.0267 201.119 145.243 201.119c90.0054 0 140.438 -74.7188 140.438 -196.762c0 -123.638 -49.4489 -203.238 -145.124 -203.238zM165.124 -103.681c51.849 0 77.7568 57.6379 77.7568 153.8
c0 93.5945 -24.7889 149.562 -77.0868 149.562c-46.1623 0 -76.7568 -55.849 -76.7568 -149.562c0 -97.9512 29.4756 -153.8 76.0868 -153.8z" />
    <glyph glyph-name="one.inferior" unicode="&#x2081;" horiz-adv-x="238" 
d="M171.4 -147h-65.113v332.157h-2l-71.5244 -35l-10.6433 49.5298l91.9132 43.3133h57.3675v-390z" />
    <glyph glyph-name="two.inferior" unicode="&#x2082;" horiz-adv-x="306" 
d="M11.7622 -147v35.2432l63.1189 58.9078c83.4756 76.7034 126.713 124.655 126.713 176.13c0 39.0434 -23.7889 71.8757 -77.6379 71.8757c-35.1189 0 -65.4489 -17.9078 -83.4322 -31.5678l-19.9566 42.8598c25.7455 22.5511 70.2699 41.5511 119.556 41.5511
c93.6433 0 130.913 -59.8056 130.913 -112.076c0 -75.2378 -57.5678 -131.281 -134.308 -199.919l-31.8056 -28.5945v-2.33h172.665v-52.0809h-265.826z" />
    <glyph glyph-name="three.inferior" unicode="&#x2083;" 
d="M44.8811 172.232l-17.0922 44.7676c23.4222 14.8811 64.9299 31 112.886 31c85.2866 0 120.454 -45.67 120.454 -93.6433c0 -39.4322 -29.4222 -73.5511 -76.1944 -90.1189v-2c54.2211 -8.1189 92.3133 -46.3567 92.3133 -97.3567
c0 -61.4055 -54.5999 -116.881 -155.675 -116.881c-47.9733 0 -91.0488 13.1189 -113.022 28l18.0922 46.8698c15.3133 -10.5511 54.5244 -26 92.3133 -26c63.5357 0 89.519 37.9679 88.849 69.6546c0 51.9679 -54.1623 72.2057 -107.757 72.2057h-26.7622v44.1243h27.5511
c37.2378 0 91.7301 17.4756 92.4001 65.0968c0 25.1356 -18.5678 51.179 -64.1623 51.179c-36 0 -68.4322 -15.8978 -84.1944 -26.8978z" />
    <glyph glyph-name="four.inferior" unicode="&#x2084;" horiz-adv-x="342" 
d="M267.892 -147h-63.3675v103.832h-189.211v38.4543l178.611 249.595h73.9674v-240.713h55.9078v-47.3354h-55.9078v-103.832zM204.524 4.1677v121.421c0 22.2111 1.5511 42.9733 2.8811 62.1677l-2.33 0.4489c-12 -22.8811 -21.8811 -40.5244 -33.4322 -58.0755
l-90.1569 -124.741l0.8811 -1.2211h122.157z" />
    <glyph glyph-name="five.inferior" unicode="&#x2085;" horiz-adv-x="303" 
d="M264.632 243v-52.1998h-154.194l-13.3567 -88.1569c8.1189 1 18 1.5511 31.3567 1.5511c32.5244 0 64.811 -5.8811 90.5732 -20.7455c30.34 -17.2111 55.6967 -51.8811 55.6967 -101.687c0 -76.5511 -62.3133 -133.762 -152.778 -133.762
c-43.7789 0 -83.7355 12.4489 -103.498 24.1189l14.2111 47.3187c16.8811 -9.67 50.5244 -21.34 87.7455 -21.34c46.6112 0 89.6112 29.6212 89.6112 77.6646c0 48.1623 -32.5678 81.8757 -113 81.8757c-23.1189 0 -41.67 -2.67 -57 -4l26 189.362h198.632z" />
    <glyph glyph-name="six.inferior" unicode="&#x2086;" horiz-adv-x="328" 
d="M264.319 247.449v-50.0976c-10.67 0.33 -25.67 0.66 -40.2378 -1.7889c-80.8056 -11.4756 -126.043 -65.1302 -135.806 -126.2h1.33c18.2211 22.4756 52.1189 42.4001 94.2645 42.4001c72.66 0 122.092 -50.2378 122.092 -125.449
c0 -75.3888 -56.0321 -138.313 -136.93 -138.313c-90.5565 0 -145.913 68.5999 -145.913 166.762c0 74.6867 27.4489 135.238 67.4322 173.238c33.9733 32.6433 78.8377 51.3133 134.098 56.8811c15.67 1.67 30 3.1189 39.67 2.5678zM168.93 -103.681
c43.2812 0 72.8757 36.7134 72.8757 86.5624c0 50.6379 -30.2812 83.2057 -78.2057 83.2057c-31.0267 0 -59.4001 -19.6867 -72.7568 -46.1623c-2.67 -5.67 -5.1189 -12.4489 -5.1189 -21.5678c0 -56.2057 28.9245 -102.038 83.2057 -102.038z" />
    <glyph glyph-name="seven.inferior" unicode="&#x2087;" horiz-adv-x="290" 
d="M19.0922 243h259.632v-40.6754l-172.255 -349.325h-66.4697l171.357 337.249v1h-192.264v51.7509z" />
    <glyph glyph-name="eight.inferior" unicode="&#x2088;" horiz-adv-x="324" 
d="M165.6 248c80.5999 0 120.481 -47.3133 120.481 -96.3133c0 -33.2111 -17.7622 -68.4489 -63.8056 -89.1356v-2c46.1623 -16.9078 79.0167 -50.9245 79.0167 -98.2378c0 -68.2211 -59.33 -114.313 -140.243 -114.313c-88.5732 0 -137.379 50.7355 -137.379 105.881
c0 47.67 29.33 80.6867 77.4656 100.806v2.4489c-43.1356 18.8911 -63.0167 52.1189 -63.0167 85.8911c0 62.4222 55.0755 104.973 127.481 104.973zM162.032 -106.665c45.849 0 74.7735 27.2645 74.7735 63.9779c0 44.4923 -33.0167 64.849 -81.7735 78.2057
c-43.2812 -12.1189 -67.4268 -39.8323 -67.4268 -74.2057c0 -35.7134 27.4756 -67.9779 74.4268 -67.9779zM163.6 203.995c-42.8323 0 -65.6379 -26.9245 -65.6379 -57.519c0 -35.8323 27.8056 -55.0701 71.519 -66.519c31.7134 9.5678 56.6379 31.9245 56.6379 65.0868
c0 28.3567 -18.1189 58.9512 -62.519 58.9512z" />
    <glyph glyph-name="nine.inferior" unicode="&#x2089;" horiz-adv-x="323" 
d="M58 -151.449v50.5465c11 -1.33 26 -0.66 42.6867 0.7889c31.1189 3.67 60.67 15.0267 83.67 34.9512c26 21.8056 44 53.2812 51.4489 94.3513l-1.7789 0.33c-20.5778 -24.2645 -51.5945 -39.2812 -90.8323 -39.2812c-71.2378 0 -120.076 50.9245 -120.076 119.881
c0 74.0922 57.4055 137.881 140.049 137.881c87.2265 0 137.345 -67.5999 137.345 -164.762c0 -83.8056 -29.2378 -143.806 -68.2211 -180.357c-33.1844 -30.5244 -79.0221 -47.6433 -127.368 -52.7622c-17.6867 -2.1189 -35.3567 -2.2378 -46.9245 -1.5678zM159.93 200.681
c-43.179 0 -73.6546 -37.9512 -73.6546 -87.6813c0 -43.7301 28.4923 -76.6379 73.0868 -76.6379c33.5945 0 59.6379 16.3567 72.9946 37.7301c3 4.5511 4.33 11.1022 4.33 19.4322c0 58.8757 -23.2545 107.157 -76.7568 107.157z" />
    <glyph glyph-name="period.inferior" unicode="&#xf6e7;" horiz-adv-x="126" 
d="M63.2432 -152c-24.8377 0 -41.9132 19.0755 -41.9132 43.3621c0 25.3888 17.7455 43.2432 42.4643 43.2432c25.1677 0 41.5732 -17.8544 41.5732 -43.2432c0 -24.2866 -16.4055 -43.3621 -42.1243 -43.3621z" />
    <glyph glyph-name="comma.inferior" unicode="&#xf6e1;" horiz-adv-x="126" 
d="M46.6921 -214.357l-45.7676 -4.33c15.1944 41.6921 30.7455 104.811 37.9566 152.2l70.2753 5.7789c-15.6433 -54.6166 -41.7455 -119.405 -62.4643 -153.649z" />
    <glyph glyph-name="dollar.inferior" unicode="&#xf6e3;" horiz-adv-x="313" 
d="M175.87 -198h-42.4643v59.2378c-37.5244 0.33 -75.2866 11.5511 -97.7188 26.7789l15.9833 47.5398c23.6433 -15 56.2866 -26.5511 92.2599 -26.5511c42.3567 0 69.8323 22.0434 69.8323 53.0868c0 30.2645 -21.8056 47.189 -68.5678 65.3079
c-65.1944 24.4489 -104.168 51.1189 -104.168 105.643c0 50.3133 35.7622 89.0755 95.4977 98.8377v58.9078h42.7943v-56.3567c36.5511 -1 64.4055 -11.67 82.2866 -21.34l-15.7622 -46.7676c-12.7622 7.67 -40.5244 21.5511 -80.7188 21.5511
c-46.4756 0 -62.1623 -25.0434 -62.1623 -47.519c0 -27.5945 20.3567 -41.9512 76 -63.0701c65.8377 -24.4489 96.9566 -55.8811 96.9566 -109.762c0 -48.1944 -34.6433 -93.5244 -100.049 -104.075v-61.4489z" />
    <glyph glyph-name="cent.inferior" unicode="&#xf6df;" horiz-adv-x="312" 
d="M203.226 -154.789h-43.7943v59.7889c-40 5.33 -67.4322 19.7622 -89.4322 43.7622c-21.33 22.8811 -34 57.8811 -34 99.1189c0 76.8056 46.6867 136.67 123.432 149.211v58.4589h43.7943v-57.3567c25.9245 0 49.4923 -7.2378 64.9245 -14.4589l-12.4322 -47.5465
c-12.5511 6.8978 -32.5678 14.6867 -62.2645 14.6867c-57.8223 0 -94.4168 -42.9512 -94.4168 -99.5624c0 -63.7134 41.8056 -98.5457 92.849 -98.5457c31.9245 0 53.0434 7.2378 68.0434 13.6867l10.4322 -44.7676c-12.7622 -6.5511 -37.5511 -16.0167 -67.1356 -17.2378
v-59.2378z" />
    <glyph glyph-name="hyphen.inferior" unicode="&#xf6e5;" horiz-adv-x="188" 
d="M18 59.2699h153.151v-45.2265h-153.151v45.2265z" />
    <glyph glyph-name="parenleft.inferior" unicode="&#x208d;" horiz-adv-x="177" 
d="M117.476 278h48.8865c-40.8323 -57.0267 -73.2812 -135.449 -73.2812 -242.908c0 -106 33.2378 -182.211 73.2812 -240.898h-48.8865c-36.8056 48.6867 -77.5945 125.449 -77.5945 240.898c0 116.34 41.1189 194.551 77.5945 242.908z" />
    <glyph glyph-name="parenright.inferior" unicode="&#x208e;" horiz-adv-x="177" 
d="M60.7509 -205.806h-48.1076c39.7134 58.5678 72.8323 135.779 72.8323 242.238c0 106.119 -32.34 183.211 -72.8323 241.568h48.1076c36.8056 -48.2378 77.9245 -125.119 77.9245 -241.568c0 -115.789 -41.1189 -192.67 -77.9245 -242.238z" />
    <glyph glyph-name="zero.numerator" unicode="&#xf661;" horiz-adv-x="331" 
d="M163.675 261c-85.3187 0 -140.556 73.5999 -140.556 198.881c0 125.968 57.0267 201.119 145.243 201.119c90.0054 0 140.438 -74.7188 140.438 -196.762c0 -123.638 -49.4489 -203.238 -145.124 -203.238zM165.124 309.319c51.849 0 77.7568 57.6379 77.7568 153.8
c0 93.5945 -24.7889 149.562 -77.0868 149.562c-46.1623 0 -76.7568 -55.849 -76.7568 -149.562c0 -97.9512 29.4756 -153.8 76.0868 -153.8z" />
    <glyph glyph-name="one.numerator" unicode="&#xf662;" horiz-adv-x="238" 
d="M171.4 266h-65.113v332.157h-2l-71.5244 -35l-10.6433 49.5298l91.9132 43.3133h57.3675v-390z" />
    <glyph glyph-name="two.numerator" unicode="&#xf663;" horiz-adv-x="306" 
d="M11.7622 266v35.2432l63.1189 58.9078c83.4756 76.7034 126.713 124.655 126.713 176.13c0 39.0434 -23.7889 71.8757 -77.6379 71.8757c-35.1189 0 -65.4489 -17.9078 -83.4322 -31.5678l-19.9566 42.8598c25.7455 22.5511 70.2699 41.5511 119.556 41.5511
c93.6433 0 130.913 -59.8056 130.913 -112.076c0 -75.2378 -57.5678 -131.281 -134.308 -199.919l-31.8056 -28.5945v-2.33h172.665v-52.0809h-265.826z" />
    <glyph glyph-name="three.numerator" unicode="&#xf664;" 
d="M44.8811 585.232l-17.0922 44.7676c23.4222 14.8811 64.9299 31 112.886 31c85.2866 0 120.454 -45.67 120.454 -93.6433c0 -39.4322 -29.4222 -73.5511 -76.1944 -90.1189v-2c54.2211 -8.1189 92.3133 -46.3567 92.3133 -97.3567
c0 -61.4055 -54.5999 -116.881 -155.675 -116.881c-47.9733 0 -91.0488 13.1189 -113.022 28l18.0922 46.8698c15.3133 -10.5511 54.5244 -26 92.3133 -26c63.5357 0 89.519 37.9679 88.849 69.6546c0 51.9679 -54.1623 72.2057 -107.757 72.2057h-26.7622v44.1243h27.5511
c37.2378 0 91.7301 17.4756 92.4001 65.0968c0 25.1356 -18.5678 51.179 -64.1623 51.179c-36 0 -68.4322 -15.8978 -84.1944 -26.8978z" />
    <glyph glyph-name="four.numerator" unicode="&#xf665;" horiz-adv-x="342" 
d="M267.892 266h-63.3675v103.832h-189.211v38.4543l178.611 249.594h73.9674v-240.713h55.9078v-47.3354h-55.9078v-103.832zM204.524 417.168v121.421c0 22.2111 1.5511 42.9733 2.8811 62.1677l-2.33 0.4489c-12 -22.8811 -21.8811 -40.5244 -33.4322 -58.0755
l-90.1569 -124.741l0.8811 -1.2211h122.157z" />
    <glyph glyph-name="five.numerator" unicode="&#xf666;" horiz-adv-x="303" 
d="M264.632 656v-52.1998h-154.194l-13.3567 -88.1569c8.1189 1 18 1.5511 31.3567 1.5511c32.5244 0 64.811 -5.8811 90.5732 -20.7455c30.34 -17.2111 55.6967 -51.8811 55.6967 -101.687c0 -76.5511 -62.3133 -133.762 -152.778 -133.762
c-43.7789 0 -83.7355 12.4489 -103.498 24.1189l14.2111 47.3187c16.8811 -9.67 50.5244 -21.34 87.7455 -21.34c46.6112 0 89.6112 29.6212 89.6112 77.6646c0 48.1623 -32.5678 81.8757 -113 81.8757c-23.1189 0 -41.67 -2.67 -57 -4l26 189.362h198.632z" />
    <glyph glyph-name="six.numerator" unicode="&#xf667;" horiz-adv-x="328" 
d="M264.319 660.449v-50.0976c-10.67 0.33 -25.67 0.66 -40.2378 -1.7889c-80.8056 -11.4756 -126.043 -65.1302 -135.806 -126.2h1.33c18.2211 22.4756 52.1189 42.4001 94.2645 42.4001c72.66 0 122.092 -50.2378 122.092 -125.449
c0 -75.3888 -56.0321 -138.313 -136.93 -138.313c-90.5565 0 -145.913 68.5999 -145.913 166.762c0 74.6867 27.4489 135.238 67.4322 173.238c33.9733 32.6433 78.8377 51.3133 134.098 56.8811c15.67 1.67 30 3.1189 39.67 2.5678zM168.93 309.319
c43.2812 0 72.8757 36.7134 72.8757 86.5624c0 50.6379 -30.2812 83.2057 -78.2057 83.2057c-31.0267 0 -59.4001 -19.6867 -72.7568 -46.1623c-2.67 -5.67 -5.1189 -12.4489 -5.1189 -21.5678c0 -56.2057 28.9245 -102.038 83.2057 -102.038z" />
    <glyph glyph-name="seven.numerator" unicode="&#xf668;" horiz-adv-x="290" 
d="M19.0922 656h259.632v-40.6754l-172.255 -349.325h-66.4697l171.357 337.249v1h-192.264v51.7509z" />
    <glyph glyph-name="eight.numerator" unicode="&#xf669;" horiz-adv-x="324" 
d="M165.6 661c80.5999 0 120.481 -47.3133 120.481 -96.3133c0 -33.2111 -17.7622 -68.4489 -63.8056 -89.1356v-2c46.1623 -16.9078 79.0167 -50.9245 79.0167 -98.2378c0 -68.2211 -59.33 -114.313 -140.243 -114.313c-88.5732 0 -137.379 50.7355 -137.379 105.881
c0 47.67 29.33 80.6867 77.4656 100.806v2.4489c-43.1356 18.8911 -63.0167 52.1189 -63.0167 85.8911c0 62.4222 55.0755 104.973 127.481 104.973zM162.032 306.335c45.849 0 74.7735 27.2645 74.7735 63.9779c0 44.4923 -33.0167 64.849 -81.7735 78.2057
c-43.2812 -12.1189 -67.4268 -39.8323 -67.4268 -74.2057c0 -35.7134 27.4756 -67.9779 74.4268 -67.9779zM163.6 616.995c-42.8323 0 -65.6379 -26.9245 -65.6379 -57.519c0 -35.8323 27.8056 -55.0701 71.519 -66.519c31.7134 9.5678 56.6379 31.9245 56.6379 65.0868
c0 28.3567 -18.1189 58.9512 -62.519 58.9512z" />
    <glyph glyph-name="nine.numerator" unicode="&#xf66a;" horiz-adv-x="323" 
d="M58 261.551v50.5465c11 -1.33 26 -0.66 42.6867 0.7889c31.1189 3.67 60.67 15.0267 83.67 34.9512c26 21.8056 44 53.2812 51.4489 94.3513l-1.7789 0.33c-20.5778 -24.2645 -51.5945 -39.2812 -90.8323 -39.2812c-71.2378 0 -120.076 50.9245 -120.076 119.881
c0 74.0922 57.4055 137.881 140.049 137.881c87.2265 0 137.345 -67.5999 137.345 -164.762c0 -83.8056 -29.2378 -143.806 -68.2211 -180.357c-33.1844 -30.5244 -79.0221 -47.6433 -127.368 -52.7622c-17.6867 -2.1189 -35.3567 -2.2378 -46.9245 -1.5678zM159.93 613.681
c-43.179 0 -73.6546 -37.9512 -73.6546 -87.6813c0 -43.7301 28.4923 -76.6379 73.0868 -76.6379c33.5945 0 59.6379 16.3567 72.9946 37.7301c3 4.5511 4.33 11.1022 4.33 19.4322c0 58.8757 -23.2545 107.157 -76.7568 107.157z" />
    <glyph glyph-name="period.numerator" unicode="&#xf66c;" horiz-adv-x="126" 
d="M63.2432 261c-24.8377 0 -41.9132 19.0755 -41.9132 43.3621c0 25.3888 17.7455 43.2432 42.4643 43.2432c25.1677 0 41.5732 -17.8544 41.5732 -43.2432c0 -24.2866 -16.4055 -43.3621 -42.1243 -43.3621z" />
    <glyph glyph-name="comma.numerator" unicode="&#xf66b;" horiz-adv-x="126" 
d="M46.6921 198.643l-45.7676 -4.33c15.1944 41.6921 30.7455 104.811 37.9566 152.2l70.2753 5.7789c-15.6433 -54.6166 -41.7455 -119.405 -62.4643 -153.649z" />
    <glyph glyph-name="dollar.numerator" unicode="&#xf62f;" horiz-adv-x="313" 
d="M175.87 215h-42.4643v59.2378c-37.5244 0.33 -75.2866 11.5511 -97.7188 26.7789l15.9833 47.5398c23.6433 -15 56.2866 -26.5511 92.2599 -26.5511c42.3567 0 69.8323 22.0434 69.8323 53.0868c0 30.2645 -21.8056 47.189 -68.5678 65.3079
c-65.1944 24.4489 -104.168 51.1189 -104.168 105.643c0 50.3133 35.7622 89.0755 95.4977 98.8377v58.9078h42.7943v-56.3567c36.5511 -1 64.4055 -11.67 82.2866 -21.34l-15.7622 -46.7676c-12.7622 7.67 -40.5244 21.5511 -80.7188 21.5511
c-46.4756 0 -62.1623 -25.0434 -62.1623 -47.519c0 -27.5945 20.3567 -41.9512 76 -63.0701c65.8377 -24.4489 96.9566 -55.8811 96.9566 -109.762c0 -48.1944 -34.6433 -93.5244 -100.049 -104.076v-61.4489z" />
    <glyph glyph-name="cent.numerator" unicode="&#xf62e;" horiz-adv-x="312" 
d="M203.226 258.211h-43.7943v59.7889c-40 5.33 -67.4322 19.7622 -89.4322 43.7622c-21.33 22.8811 -34 57.8811 -34 99.1189c0 76.8056 46.6867 136.67 123.432 149.211v58.4589h43.7943v-57.3567c25.9245 0 49.4923 -7.2378 64.9245 -14.4589l-12.4322 -47.5465
c-12.5511 6.8978 -32.5678 14.6867 -62.2645 14.6867c-57.8223 0 -94.4168 -42.9512 -94.4168 -99.5624c0 -63.7134 41.8056 -98.5457 92.849 -98.5457c31.9245 0 53.0434 7.2378 68.0434 13.6867l10.4322 -44.7676c-12.7622 -6.5511 -37.5511 -16.0167 -67.1356 -17.2378
v-59.2378z" />
    <glyph glyph-name="hyphen.numerator" unicode="&#xf630;" horiz-adv-x="188" 
d="M18 472.27h153.151v-45.2265h-153.151v45.2265z" />
    <glyph glyph-name="parenleft.numerator" unicode="&#xf631;" horiz-adv-x="177" 
d="M117.476 691h48.8865c-40.8323 -57.0267 -73.2812 -135.449 -73.2812 -242.908c0 -106 33.2378 -182.211 73.2812 -240.898h-48.8865c-36.8056 48.6867 -77.5945 125.449 -77.5945 240.898c0 116.34 41.1189 194.551 77.5945 242.908z" />
    <glyph glyph-name="parenright.numerator" unicode="&#xf632;" horiz-adv-x="177" 
d="M60.7509 207.194h-48.1076c39.7134 58.5678 72.8323 135.779 72.8323 242.238c0 106.119 -32.34 183.211 -72.8323 241.568h48.1076c36.8056 -48.2378 77.9245 -125.119 77.9245 -241.568c0 -115.789 -41.1189 -192.67 -77.9245 -242.238z" />
    <glyph glyph-name="zero.denominator" unicode="&#xf655;" horiz-adv-x="331" 
d="M163.675 -5c-85.3187 0 -140.556 73.5999 -140.556 198.881c0 125.968 57.0267 201.119 145.243 201.119c90.0054 0 140.438 -74.7188 140.438 -196.762c0 -123.638 -49.4489 -203.238 -145.124 -203.238zM165.124 43.3187c51.849 0 77.7568 57.6379 77.7568 153.8
c0 93.5945 -24.7889 149.562 -77.0868 149.562c-46.1623 0 -76.7568 -55.849 -76.7568 -149.562c0 -97.9512 29.4756 -153.8 76.0868 -153.8z" />
    <glyph glyph-name="one.denominator" unicode="&#xf656;" horiz-adv-x="238" 
d="M171.4 0h-65.113v332.157h-2l-71.5244 -35l-10.6433 49.5298l91.9132 43.3133h57.3675v-390z" />
    <glyph glyph-name="two.denominator" unicode="&#xf657;" horiz-adv-x="306" 
d="M11.7622 0v35.2432l63.1189 58.9078c83.4756 76.7034 126.713 124.655 126.713 176.13c0 39.0434 -23.7889 71.8757 -77.6379 71.8757c-35.1189 0 -65.4489 -17.9078 -83.4322 -31.5678l-19.9566 42.8598c25.7455 22.5511 70.2699 41.5511 119.556 41.5511
c93.6433 0 130.913 -59.8056 130.913 -112.075c0 -75.2378 -57.5678 -131.281 -134.308 -199.919l-31.8056 -28.5945v-2.33h172.665v-52.0809h-265.826z" />
    <glyph glyph-name="three.denominator" unicode="&#xf658;" 
d="M44.8811 319.232l-17.0922 44.7676c23.4222 14.8811 64.9299 31 112.886 31c85.2866 0 120.454 -45.67 120.454 -93.6433c0 -39.4322 -29.4222 -73.5511 -76.1944 -90.1189v-2c54.2211 -8.1189 92.3133 -46.3567 92.3133 -97.3567
c0 -61.4055 -54.5999 -116.881 -155.675 -116.881c-47.9733 0 -91.0488 13.1189 -113.022 28l18.0922 46.8698c15.3133 -10.5511 54.5244 -26 92.3133 -26c63.5357 0 89.519 37.9679 88.849 69.6546c0 51.9679 -54.1623 72.2057 -107.757 72.2057h-26.7622v44.1243h27.5511
c37.2378 0 91.7301 17.4756 92.4001 65.0968c0 25.1356 -18.5678 51.179 -64.1623 51.179c-36 0 -68.4322 -15.8978 -84.1944 -26.8978z" />
    <glyph glyph-name="four.denominator" unicode="&#xf659;" horiz-adv-x="342" 
d="M267.892 0h-63.3675v103.832h-189.211v38.4543l178.611 249.595h73.9674v-240.713h55.9078v-47.3354h-55.9078v-103.832zM204.524 151.168v121.421c0 22.2111 1.5511 42.9733 2.8811 62.1677l-2.33 0.4489c-12 -22.8811 -21.8811 -40.5244 -33.4322 -58.0755
l-90.1569 -124.741l0.8811 -1.2211h122.157z" />
    <glyph glyph-name="five.denominator" unicode="&#xf65a;" horiz-adv-x="303" 
d="M264.632 390v-52.1998h-154.194l-13.3567 -88.1569c8.1189 1 18 1.5511 31.3567 1.5511c32.5244 0 64.811 -5.8811 90.5732 -20.7455c30.34 -17.2111 55.6967 -51.8811 55.6967 -101.687c0 -76.5511 -62.3133 -133.762 -152.778 -133.762
c-43.7789 0 -83.7355 12.4489 -103.498 24.1189l14.2111 47.3187c16.8811 -9.67 50.5244 -21.34 87.7455 -21.34c46.6112 0 89.6112 29.6212 89.6112 77.6646c0 48.1623 -32.5678 81.8757 -113 81.8757c-23.1189 0 -41.67 -2.67 -57 -4l26 189.362h198.632z" />
    <glyph glyph-name="six.denominator" unicode="&#xf65b;" horiz-adv-x="328" 
d="M264.319 394.449v-50.0976c-10.67 0.33 -25.67 0.66 -40.2378 -1.7889c-80.8056 -11.4756 -126.043 -65.1302 -135.806 -126.2h1.33c18.2211 22.4756 52.1189 42.4001 94.2645 42.4001c72.66 0 122.092 -50.2378 122.092 -125.449
c0 -75.3888 -56.0321 -138.313 -136.93 -138.313c-90.5565 0 -145.913 68.5999 -145.913 166.762c0 74.6867 27.4489 135.238 67.4322 173.238c33.9733 32.6433 78.8377 51.3133 134.098 56.8811c15.67 1.67 30 3.1189 39.67 2.5678zM168.93 43.3187
c43.2812 0 72.8757 36.7134 72.8757 86.5624c0 50.6379 -30.2812 83.2057 -78.2057 83.2057c-31.0267 0 -59.4001 -19.6867 -72.7568 -46.1623c-2.67 -5.67 -5.1189 -12.4489 -5.1189 -21.5678c0 -56.2057 28.9245 -102.038 83.2057 -102.038z" />
    <glyph glyph-name="seven.denominator" unicode="&#xf65c;" horiz-adv-x="290" 
d="M19.0922 390h259.632v-40.6754l-172.255 -349.325h-66.4697l171.357 337.249v1h-192.264v51.7509z" />
    <glyph glyph-name="eight.denominator" unicode="&#xf65d;" horiz-adv-x="324" 
d="M165.6 395c80.5999 0 120.481 -47.3133 120.481 -96.3133c0 -33.2111 -17.7622 -68.4489 -63.8056 -89.1356v-2c46.1623 -16.9078 79.0167 -50.9245 79.0167 -98.2378c0 -68.2211 -59.33 -114.313 -140.243 -114.313c-88.5732 0 -137.379 50.7355 -137.379 105.881
c0 47.67 29.33 80.6867 77.4656 100.806v2.4489c-43.1356 18.8911 -63.0167 52.1189 -63.0167 85.8911c0 62.4222 55.0755 104.973 127.481 104.973zM162.032 40.3354c45.849 0 74.7735 27.2645 74.7735 63.9779c0 44.4923 -33.0167 64.849 -81.7735 78.2057
c-43.2812 -12.1189 -67.4268 -39.8323 -67.4268 -74.2057c0 -35.7134 27.4756 -67.9779 74.4268 -67.9779zM163.6 350.995c-42.8323 0 -65.6379 -26.9245 -65.6379 -57.519c0 -35.8323 27.8056 -55.0701 71.519 -66.519c31.7134 9.5678 56.6379 31.9245 56.6379 65.0868
c0 28.3567 -18.1189 58.9512 -62.519 58.9512z" />
    <glyph glyph-name="nine.denominator" unicode="&#xf65e;" horiz-adv-x="323" 
d="M58 -4.4489v50.5465c11 -1.33 26 -0.66 42.6867 0.7889c31.1189 3.67 60.67 15.0267 83.67 34.9512c26 21.8056 44 53.2812 51.4489 94.3513l-1.7789 0.33c-20.5778 -24.2645 -51.5945 -39.2812 -90.8323 -39.2812c-71.2378 0 -120.076 50.9245 -120.076 119.881
c0 74.0922 57.4055 137.881 140.049 137.881c87.2265 0 137.345 -67.5999 137.345 -164.762c0 -83.8056 -29.2378 -143.806 -68.2211 -180.357c-33.1844 -30.5244 -79.0221 -47.6433 -127.368 -52.7622c-17.6867 -2.1189 -35.3567 -2.2378 -46.9245 -1.5678zM159.93 347.681
c-43.179 0 -73.6546 -37.9512 -73.6546 -87.6813c0 -43.7301 28.4923 -76.6379 73.0868 -76.6379c33.5945 0 59.6379 16.3567 72.9946 37.7301c3 4.5511 4.33 11.1022 4.33 19.4322c0 58.8757 -23.2545 107.157 -76.7568 107.157z" />
    <glyph glyph-name="period.denominator" unicode="&#xf660;" horiz-adv-x="126" 
d="M63.2432 -5c-24.8377 0 -41.9132 19.0755 -41.9132 43.3621c0 25.3888 17.7455 43.2432 42.4643 43.2432c25.1677 0 41.5732 -17.8544 41.5732 -43.2432c0 -24.2866 -16.4055 -43.3621 -42.1243 -43.3621z" />
    <glyph glyph-name="comma.denominator" unicode="&#xf65f;" horiz-adv-x="126" 
d="M46.6921 -67.3567l-45.7676 -4.33c15.1944 41.6921 30.7455 104.811 37.9566 152.2l70.2753 5.7789c-15.6433 -54.6166 -41.7455 -119.406 -62.4643 -153.649z" />
    <glyph glyph-name="dollar.denominator" unicode="&#xf62a;" horiz-adv-x="313" 
d="M175.87 -51h-42.4643v59.2378c-37.5244 0.33 -75.2866 11.5511 -97.7188 26.7789l15.9833 47.5398c23.6433 -15 56.2866 -26.5511 92.2599 -26.5511c42.3567 0 69.8323 22.0434 69.8323 53.0868c0 30.2645 -21.8056 47.189 -68.5678 65.3079
c-65.1944 24.4489 -104.168 51.1189 -104.168 105.643c0 50.3133 35.7622 89.0755 95.4977 98.8377v58.9078h42.7943v-56.3567c36.5511 -1 64.4055 -11.67 82.2866 -21.34l-15.7622 -46.7676c-12.7622 7.67 -40.5244 21.5511 -80.7188 21.5511
c-46.4756 0 -62.1623 -25.0434 -62.1623 -47.519c0 -27.5945 20.3567 -41.9512 76 -63.0701c65.8377 -24.4489 96.9566 -55.8811 96.9566 -109.762c0 -48.1944 -34.6433 -93.5244 -100.049 -104.076v-61.4489z" />
    <glyph glyph-name="cent.denominator" unicode="&#xf629;" horiz-adv-x="312" 
d="M203.226 -7.7889h-43.7943v59.7889c-40 5.33 -67.4322 19.7622 -89.4322 43.7622c-21.33 22.8811 -34 57.8811 -34 99.1189c0 76.8056 46.6867 136.67 123.432 149.211v58.4589h43.7943v-57.3567c25.9245 0 49.4923 -7.2378 64.9245 -14.4589l-12.4322 -47.5465
c-12.5511 6.8978 -32.5678 14.6867 -62.2645 14.6867c-57.8223 0 -94.4168 -42.9512 -94.4168 -99.5624c0 -63.7134 41.8056 -98.5457 92.849 -98.5457c31.9245 0 53.0434 7.2378 68.0434 13.6867l10.4322 -44.7676c-12.7622 -6.5511 -37.5511 -16.0167 -67.1356 -17.2378
v-59.2378z" />
    <glyph glyph-name="hyphen.denominator" unicode="&#xf62b;" horiz-adv-x="188" 
d="M18 206.27h153.151v-45.2265h-153.151v45.2265z" />
    <glyph glyph-name="parenleft.denominator" unicode="&#xf62c;" horiz-adv-x="177" 
d="M117.476 425h48.8865c-40.8323 -57.0267 -73.2812 -135.449 -73.2812 -242.908c0 -106 33.2378 -182.211 73.2812 -240.898h-48.8865c-36.8056 48.6867 -77.5945 125.449 -77.5945 240.898c0 116.34 41.1189 194.551 77.5945 242.908z" />
    <glyph glyph-name="parenright.denominator" unicode="&#xf62d;" horiz-adv-x="177" 
d="M60.7509 -58.8056h-48.1076c39.7134 58.5678 72.8323 135.779 72.8323 242.238c0 106.119 -32.34 183.211 -72.8323 241.568h48.1076c36.8056 -48.2378 77.9245 -125.119 77.9245 -241.568c0 -115.789 -41.1189 -192.67 -77.9245 -242.238z" />
    <glyph glyph-name="at.cap" unicode="&#xf633;" horiz-adv-x="733" 
d="M448.806 348.357l21.8056 114.638c-10.8978 3.4489 -27.9245 8.0167 -52.0868 8.0167c-90.3246 0 -163.081 -85.4168 -163.081 -184.293c0 -44.8056 22.8056 -77.2812 67.6379 -77.2812c59.7568 0 114.157 77.0113 125.725 138.919zM506.243 71.2866l15.4322 -42.0488
c-54.6433 -28.67 -110.881 -40.2378 -177.194 -40.2378c-164.33 0 -302.406 119.67 -302.406 312.211c0 205.34 142.194 383.789 364.406 383.789c174.211 0 289.389 -122.449 289.389 -288.551c0 -150.687 -84.1189 -238 -176.389 -238
c-39.0755 0 -76.3133 26.34 -73.1677 88.7134h-3.67c-35.6867 -59.9245 -81.8056 -88.7134 -142.281 -88.7134c-57.5244 0 -107.643 46.8811 -107.643 124.864c0 124.568 98.9245 238.136 237.119 238.136c42.8811 0 80.1677 -8.8811 106.168 -20.7622l-34.2378 -180.762
c-15.3567 -77.9679 -3.4489 -113.892 30.3567 -114.114c51.9245 -1.7789 109.162 67.9512 109.162 183.621c0 146.73 -87.2378 250.638 -242.687 250.638c-164.043 0 -301.281 -129.713 -301.281 -333.876c0 -166.551 109.568 -270.594 257.119 -270.594
c57.8056 0 111.136 12.1189 151.806 35.6867z" />
    <glyph glyph-name="emdash.cap" unicode="&#xf6bc;" horiz-adv-x="1000" 
d="M30 357.032h940v-56.0642h-940v56.0642z" />
    <glyph glyph-name="endash.cap" unicode="&#xf6bb;" horiz-adv-x="500" 
d="M30 357.032h440v-56.0642h-440v56.0642z" />
    <glyph glyph-name="exclamdown.cap" unicode="&#xf6b4;" horiz-adv-x="226" 
d="M158.994 -3.0922h-90.3829l13.0755 479.325h64.0108zM113.913 682.432c33.3621 0 55.5298 -25.1677 55.5298 -59.8698c0 -32.9132 -21.8377 -59.1998 -56.1998 -59.1998c-32.9132 0 -56.0809 26.2866 -55.632 59.1998c0 34.7021 22.9399 59.8698 56.302 59.8698z" />
    <glyph glyph-name="guillemotleft.cap" unicode="&#xf6b6;" horiz-adv-x="414" 
d="M230.481 510.524l-134.951 -183.524l135.4 -183.524h-67.8431l-134.298 183.524l133.968 183.524h67.7242zM391.681 510.524l-135.07 -183.524l135.07 -183.524h-67.8431l-133.519 183.524l133.519 183.524h67.8431z" />
    <glyph glyph-name="guillemotright.cap" unicode="&#xf6b7;" horiz-adv-x="414" 
d="M158.4 327l-135.4 183.524h67.5131l134.519 -183.524l-134.519 -183.524h-66.8431zM319.049 327l-135.4 183.524h67.0642l134.968 -183.524l-134.519 -183.524h-66.8431z" />
    <glyph glyph-name="guilsinglleft.cap" unicode="&#xf6b8;" horiz-adv-x="253" 
d="M230.481 510.524l-134.951 -183.524l135.4 -183.524h-67.8431l-134.298 183.524l133.968 183.524h67.7242z" />
    <glyph glyph-name="guilsinglright.cap" unicode="&#xf6b9;" horiz-adv-x="253" 
d="M158.07 327l-135.07 183.524h67.292l134.74 -183.524l-134.519 -183.524h-67.0642z" />
    <glyph glyph-name="hyphen.cap" unicode="&#xf6ba;" horiz-adv-x="304" 
d="M30 376.838h245.6v-61.2753h-245.6v61.2753z" />
    <glyph glyph-name="questiondown.cap" unicode="&#xf6b5;" horiz-adv-x="401" 
d="M236.287 685c33.5832 0 56.0809 -25.1677 56.0809 -59.8698c0 -33.3621 -22.1677 -59.6487 -56.5298 -59.6487c-33.5832 0 -56.5298 26.2866 -56.0809 59.6487c0 34.7021 23.1677 59.8698 56.5298 59.8698zM198.638 483.249h73.0863l2.67 -26
c6.2378 -54.0167 -12.8811 -112.162 -62.7889 -172.968c-46.2812 -54.849 -70.6112 -92.3246 -70.6112 -138.157c0 -52.849 32.3734 -88.0113 97.3246 -88.5624c35.5678 0 75.1189 12 101.568 32.1189l22.5077 -59.6808c-33.4322 -23.5678 -89.8644 -40 -141.227 -40
c-112.811 0 -164.438 70.8811 -164.438 146.076c0 66.7355 36.9566 114.854 86.2211 172.357c44.7034 54.0601 60.3734 97.0868 56.8056 148.892z" />
    <glyph glyph-name="braceleft.cap" unicode="&#xf6b2;" horiz-adv-x="280" 
d="M27.8811 303.4v47.8865c71.1189 -0.0167 81.3567 39 81.3567 75.0267c0 27.8978 -4.1189 56.0167 -7.7889 83.6867c-4.4489 28.1189 -8.5678 56.1189 -8.5678 83.6867c0 91.8811 60.4489 131.432 144.524 131.432h19.5999v-52.1998h-18
c-60.2812 0 -81.4168 -32.3567 -81.4168 -88.0701c0 -23.8056 3.8978 -48.1623 7.8978 -72.4001c3.7889 -25.0167 7.5678 -49.8056 7.5678 -76.4756c1 -63.6166 -27.2111 -95.4055 -71.0488 -107.184v-2c43.8377 -11.2211 72.0488 -45.5778 71.0488 -108.746
c0 -26.4489 -3.7789 -51.5678 -7.5678 -76.0267c-4 -25.4656 -7.8978 -49.0434 -7.8978 -73.2979c0 -57.3834 24.7034 -88.6212 81.4168 -88.6212h18v-52.1998h-19.5999c-82.0755 0 -144.524 36.2211 -144.524 136.67c0 27.1189 4.1189 54.7889 8.5678 82.2378
c3.67 27 7.7889 54.67 7.7889 80.7889c0 32.2378 -10.2378 75.5945 -81.3567 75.8056z" />
    <glyph glyph-name="braceright.cap" unicode="&#xf6b3;" horiz-adv-x="280" 
d="M253.319 351.287v-47.8865c-71.2378 -0.2111 -81.8056 -43.5678 -81.8056 -75.8056c0 -26.1189 4.4489 -53.7889 8.5678 -80.7889c4.1189 -27.4489 8.1189 -55.1189 8.1189 -82.2378c0 -100.449 -62.67 -136.67 -144.524 -136.67h-19.5999v52.1998h17.7789
c56.7134 1.2211 81.3079 31.2378 81.3079 88.6212c0 24.2545 -3.67 47.8323 -7.5678 73.2979c-3.67 24.4589 -7.7889 49.5778 -7.7889 76.0267c-0.33 63.1677 27.4322 97.5244 70.7188 108.746v2c-43.2866 11.7789 -71.0488 43.5678 -70.7188 107.184
c0 26.67 4.1189 51.4589 7.7889 76.4756c3.8978 24.2378 7.5678 48.5945 7.5678 72.4001c0 55.7134 -21.3567 86.4001 -81.0868 88.0701h-18v52.1998h19.3788c84.0755 0 144.745 -39.5511 144.745 -131.432c0 -27.5678 -4 -55.5678 -8.1189 -83.6867
c-4.1189 -27.67 -8.5678 -55.7889 -8.5678 -83.6867c0 -36.0267 10.5678 -75.0434 81.8056 -75.0267z" />
    <glyph glyph-name="bracketleft.cap" unicode="&#xf6b0;" horiz-adv-x="280" 
d="M264.075 -72.4322h-181.124v797h181.124v-52.1998h-116.757v-692.6h116.757v-52.1998z" />
    <glyph glyph-name="bracketright.cap" unicode="&#xf6b1;" horiz-adv-x="280" 
d="M17.0054 725.898h181.243v-798h-181.243v51.8698h116.427v694.151h-116.427v51.9787z" />
    <glyph glyph-name="parenleft.cap" unicode="&#xf6ae;" horiz-adv-x="280" 
d="M197.325 734.357h65.1564c-74.519 -99.0267 -128.444 -228.119 -128.444 -410.357c0 -178.119 56.0434 -304.313 128.444 -405.119h-65.1564c-64.1623 82.9078 -132.189 211 -132.189 406.119c0.5511 196.568 68.0267 324.881 132.189 409.357z" />
    <glyph glyph-name="parenright.cap" unicode="&#xf6af;" horiz-adv-x="280" 
d="M83.2052 -81.1189h-64.6053c72.4001 99.3567 128.114 228 128.114 408.238c0 180.119 -54.5945 306.762 -128.114 407.238h64.6053c64.7134 -82.3567 132.968 -210.789 132.968 -407.687c-0.33 -196.119 -68.2545 -322.653 -132.968 -407.789z" />
    <glyph glyph-name="periodcentered.cap" unicode="&#xf6bd;" horiz-adv-x="201" 
d="M100.768 278.487c-33.3621 0 -56.7509 25.8377 -56.5298 59.7509c0 34.811 24.1677 60.1998 56.7509 60.1998c33.811 0 56.3087 -24.8377 56.5298 -60.1998c0 -33.9132 -22.3888 -59.7509 -56.7509 -59.7509z" />
    <glyph glyph-name="lessequal" unicode="&#x2264;" horiz-adv-x="596" 
d="M529.076 97.3621l-462.151 194.519v55.5131l462.151 193.968v-62.8431l-384.589 -158.157v-2l384.589 -157.606v-63.3942zM529.076 0h-460.032v55.1998h460.032v-55.1998z" />
    <glyph glyph-name="greaterequal" unicode="&#x2265;" horiz-adv-x="596" 
d="M529.076 291.881l-462.151 -194.519v63.3942l384.589 157.606v2l-384.589 158.157v62.8431l462.151 -193.968v-55.5131zM526.957 0h-460.032v55.1998h460.032v-55.1998z" />
    <glyph glyph-name="approxequal" unicode="&#x2248;" horiz-adv-x="596" 
d="M533.951 414.692l35.2432 -39.3621c-31.4322 -38.9299 -89.7622 -76.2432 -150.957 -76.2432c-58.6867 0 -95.9078 22.67 -128.687 36.2211c-30 12.33 -64.1189 34 -114.357 34c-45.7622 0 -91.2378 -29.9833 -118.357 -58.3133l-33.151 40.2432
c31.4322 36.8377 89.4322 75.0321 151.838 75.0321c58.9078 0 95.3567 -22.67 128.027 -36c30 -12.2211 63.8978 -34 114.136 -34c45.7622 0 91.2378 31.8544 116.264 58.4222zM539.4 217.643l34.3621 -38.481c-31.4322 -39.811 -90.3133 -77.1243 -151.838 -77.1243
c-57.8056 0 -95.1356 22.67 -127.806 36c-30 12.33 -64.1189 34 -115.238 34c-44.33 0 -90.3567 -29.7622 -117.476 -58.3133l-32.9299 40.7943c31.2111 37.1677 90.0922 74.481 150.957 74.481c59.2378 0 95.6867 -22.4489 128.687 -36c30 -12 64.1189 -34 113.806 -34
c46.3133 0 91.7889 30.0922 117.476 58.6433z" />
    <glyph glyph-name="notequal" unicode="&#x2260;" horiz-adv-x="596" 
d="M556 142.113h-309.67l-77.7301 -123.427h-61.5131l79.5023 123.427h-146.589v56.962h182.713l90.2812 140.087h-272.995v57.292h309.119l77.4001 123.427h61.962l-79.9512 -123.427h147.47v-57.292h-183.594l-89.7301 -140.087h273.325v-56.962z" />
    <glyph glyph-name="infinity" unicode="&#x221e;" horiz-adv-x="724" 
d="M540.049 118.087c-74.4489 0 -128.432 59.3567 -177.211 106.908c-51.33 -50.67 -103.789 -106.908 -184.881 -106.908c-83.1677 0 -142.032 60.5077 -142.032 145.913c0 78.7355 63.4322 145.913 150.032 145.913c74.4489 0 128.881 -59.3567 177.211 -106.908
c51 51.1189 103.789 106.908 184.881 106.908c83.3888 0 142.032 -60.5077 142.032 -145.913c0 -78.7355 -63.4322 -145.913 -150.032 -145.913zM540.838 174.719c51.0434 0 89.4001 41.4756 89.4001 89.2812c0 51.4756 -36.3567 89.2812 -86.4001 89.2812
c-57.7134 0 -105.087 -50.0434 -142.876 -89.2812c39.4756 -36.4756 81.1623 -89.2812 139.876 -89.2812zM182.168 174.719c58.1623 0 104.757 49.5945 142.546 88.9512c-39.1456 36.8056 -80.3834 89.6112 -139.546 89.6112
c-51.0434 0 -89.4001 -41.4756 -89.4001 -89.2812c0 -51.4756 36.3567 -89.2812 86.4001 -89.2812z" />
    <glyph glyph-name="lozenge" unicode="&#x25ca;" horiz-adv-x="516" 
d="M471.519 325l-180.957 -355.524h-64.4697l-180.736 355.524l180.736 354.973h64.4697zM400.287 323.119l-132.417 270.632c-3.5511 6.2111 -7.4322 14.5244 -9.9833 22.8544h-2c-2.33 -8.33 -6.2111 -16.6433 -9.7622 -22.8544l-129.757 -267.421l132.308 -270.741
c3.33 -6.1022 7.7622 -14.4155 9.7622 -22.1944h2c2.8811 7.4489 6.7622 16.0922 10.0922 22.1944z" />
    <glyph glyph-name="integral" unicode="&#x222b;" horiz-adv-x="311" 
d="M302.13 786.719l-11.2111 -52.8431c-8.8811 2 -19.4322 4 -29.6433 4c-17.4322 0 -34.7622 -6.7622 -45.8811 -21.6433c-20.3567 -25.1189 -30.1456 -68.67 -30.1456 -158.264c0 -144.524 11.8811 -323.649 11.8811 -472.562
c0 -99.4001 -18.8056 -157.043 -43.0434 -188.238c-21.5244 -30.1243 -54.6754 -46.0976 -92.0542 -46.0976c-21.8644 0 -43.3888 4.7789 -52.481 9.66l11.6433 53.9453c8.33 -2.5511 20.4322 -6 35.2111 -6c15.8811 0 32 6.33 44.1189 20.8811
c17.1189 21.1189 31.3567 58.8978 31.3567 155.757c0 149.573 -11.4322 332.698 -11.4322 477.968c0 100.076 15.7622 156.617 51.4055 194.032c22.8644 25.1944 53.5999 36.4055 86.5565 36.4055c17.8644 0 33.8377 -3 43.7188 -7z" />
    <glyph glyph-name="partialdiff" unicode="&#x2202;" horiz-adv-x="524" 
d="M85.6433 618.081l-26.481 54.7997c33.2378 24.3567 87.4055 52.7622 170.556 52.7622c135.2 0 259.843 -122.6 259.843 -353.194c0 -254.238 -126.957 -383.449 -266.649 -383.449c-133.481 0 -196.675 102.032 -196.675 209.168
c0 135.432 96.5945 243.313 218.432 243.313c84.5845 0 143.4 -48.6867 165.298 -88.6112h1c1.1189 11.1356 1.1189 23.9412 1.1189 35.2979c0 181.033 -96.1302 270.151 -188.757 270.151c-65.7789 0 -110.66 -20.8811 -137.687 -40.2378zM229.768 55.9941
c92.6813 0 157.87 104.444 172.227 221.6c-19.2645 50.9679 -73.9024 98.3246 -145.2 98.3246c-81.3079 0 -148.184 -75.519 -148.184 -175.514c0 -90.1135 48.8323 -144.411 121.157 -144.411z" />
    <glyph glyph-name="product" unicode="&#x220f;" horiz-adv-x="610" 
d="M601.011 582.574h-93v-672.574h-77.3996v672.574h-250.882v-672.574h-77.3996v672.574h-93v67.4263h591.681v-67.4263z" />
    <glyph glyph-name="radical" unicode="&#x221a;" horiz-adv-x="558" 
d="M575.513 825.719l-230.119 -921.789h-60.1564l-159.119 428.74l-74.7622 -31.2211l-17.7455 45.1243l134.156 55.821l124.519 -350.108c7.8811 -20.5244 14.4322 -44.4977 18.3133 -62.3621h1.5511c3.33 16.6433 8.33 41.5077 13.0922 62.7943l187.546 773h62.7242z" />
    <glyph glyph-name="summation" unicode="&#x2211;" horiz-adv-x="503" 
d="M512.335 -90h-504.141v49.292l254.936 318.378l-241.817 317.741v54.5886h458.438v-67.2052h-354.033v-3.5511l226.768 -298.363l-238.438 -299.676v-3.7789h398.287v-67.4263z" />
    <glyph glyph-name="Delta" unicode="&#x2206;" horiz-adv-x="617" 
d="M26.0434 0v46.7676l236.638 627.232h90.7183l234.206 -626.681v-47.3187h-561.562zM112.492 67.4263h385.022l-141.081 379.968c-17.2378 47.5678 -38.0267 107.238 -50.5945 151.136h-2.5511c-10.1189 -34.8978 -28.6867 -90.33 -45.4756 -137.449z" />
    <glyph glyph-name="Omega" unicode="&#x2126;" horiz-adv-x="700" 
d="M279.562 0h-249.681v65.0108h146.281v3.2211c-68.1623 56.4923 -132.832 157.892 -132.832 288.606c0 193.968 134.551 328.162 312.243 328.162c184.464 0 302.032 -140.076 302.032 -319.951c0 -138.925 -65.7622 -239.325 -134.162 -296.817v-3.2211h147.832v-65.0108
h-248.8v51.8431c81.1623 55.2378 151.325 163.995 151.325 300.276c0 124.043 -73.7134 266.557 -220.557 266.557c-145.395 0 -225.557 -133.827 -225.557 -267.557c0 -127.968 71.2812 -248.351 151.876 -299.276v-51.8431z" />
    <glyph glyph-name="pi" unicode="&#x3c0;" horiz-adv-x="550" 
d="M515.443 419.411h-67.4756v-276.455c0 -80.2812 6.67 -118.313 13.67 -142.957h-78.8318c-8.0922 14.3133 -15.66 55.6754 -15.66 134.524v284.887h-163.465c-4.5678 -129.179 -34.0434 -339.174 -69.2812 -419.411h-77.7129
c36.3567 94.8811 65.0434 288.519 68.9512 419.411c-40.1623 0 -74.3834 -2.8978 -99.3834 -9.1189l-11.7622 48.2753c21.67 14.1944 59.7021 24.6266 135.394 24.6266h374.87z" />
    <glyph glyph-name="aringacute" unicode="&#x1fb;" horiz-adv-x="477" 
d="M296.049 831.319h93.0208l-141.864 -104.838h-58.3675zM239.005 519.313c-58.8377 0 -100.049 40.2111 -100.049 90.9733c0 51.7622 39.66 93.1944 101.049 93.1944c58.2699 0 97.5999 -39.8811 97.5999 -93.1944c0 -51.7622 -43.33 -90.9733 -98.5999 -90.9733z
M238.005 555.811c31.67 0 52.3567 24.7889 52.3567 55.4756c0 31.3567 -20.6867 56.0267 -52.8056 56.0267c-30.67 0 -49.6867 -26.34 -49.6867 -57.0267c0 -27.6867 21.0167 -54.4756 50.1356 -54.4756zM415.188 0h-73.6207l-7.33 62.2812h-3
c-26.1944 -37.5511 -78.3133 -73.2812 -148.924 -73.2812c-97.1022 0 -146.508 69.2111 -146.508 137.838c0 116.287 102.957 180.973 291.238 179.524v10.2378c0 40.9512 -10.7622 117.006 -112.206 116.557c-44.6433 0 -91.2866 -12.9833 -124.957 -36l-19.0755 54.9353
c40.0267 26.0267 97.8811 42.1022 156.081 42.1022c146.6 0 181.081 -101.687 181.081 -196.719v-182.043c0 -40.8644 2 -81.6266 7.2211 -115.432zM328.476 161.6v86.9191c-97.0701 2.4489 -210.508 -14.7622 -210.508 -111.589
c0 -59.4168 39.2812 -86.5624 84.5457 -86.5624c66.0113 0 106.936 41.4001 121.293 83.1135c3 9.4489 4.67 19.4489 4.67 28.1189z" />
    <glyph glyph-name="Abreve" unicode="&#x102;" horiz-adv-x="607" 
d="M424.925 215.844h-243.319l-71.8757 -215.844h-83.8051l231.444 674h95.6749l232.206 -674h-86.1184zM198.919 279.524h208.363l-68.8924 198.676c-14.7889 44.3567 -24.67 83.6433 -34.67 122.194h-2c-10 -39.2211 -20.67 -79.5077 -33.7889 -121.075zM181.092 815.481
h49.1998c5.4589 -23.1189 23.8056 -49.2378 72.9512 -49.2378c49.4756 0 69.0434 23.1189 74.0434 49.2378h47.9887c-1 -57.2699 -38.1944 -104.243 -123.151 -104.243c-83.7188 0 -119.811 46.1944 -121.032 104.243z" />
    <glyph glyph-name="Amacron" unicode="&#x100;" horiz-adv-x="607" 
d="M424.925 215.844h-243.319l-71.8757 -215.844h-83.8051l231.444 674h95.6749l232.206 -674h-86.1184zM198.919 279.524h208.363l-68.8924 198.676c-14.7889 44.3567 -24.67 83.6433 -34.67 122.194h-2c-10 -39.2211 -20.67 -79.5077 -33.7889 -121.075zM183.957 785.768
h237.692v-52.4376h-237.692v52.4376z" />
    <glyph glyph-name="Aogonek" unicode="&#x104;" horiz-adv-x="607" 
d="M353.043 674l232.206 -674h-30.4597c-15.5778 -16 -57.8002 -60.519 -57.8002 -97.6813c0 -32.5511 21.66 -51.6433 50.7622 -51.6433c17.33 0 33.33 4.4489 45.8978 10.1189l12.6266 -42.4376c-20.0755 -15.1944 -54.151 -22.4055 -78.2265 -22.4055
c-54.7188 0 -91.6921 29.6433 -91.6921 85.0221c0 48.7889 36.0434 95.2211 61.3246 123.264l-72.7568 211.606h-243.319l-71.8757 -215.844h-83.8051l231.444 674h95.6749zM198.919 279.524h208.363l-68.8924 198.676c-14.7889 44.3567 -24.67 83.6433 -34.67 122.194h-2
c-10 -39.2211 -20.67 -79.9566 -33.7889 -121.075z" />
    <glyph glyph-name="i.dot" horiz-adv-x="229" 
d="M155.756 0h-81.4751v483.194h81.4751v-483.194zM115.243 672.768c31.481 0 51.4376 -23.4055 51.7676 -53.1243c0.2211 -28.7188 -20.2866 -52.1243 -53.4376 -52.1243c-30.2599 0 -50.7676 23.4055 -50.7676 52.1243c0 29.2699 21.9566 53.1243 52.4376 53.1243z" />
    <glyph glyph-name="Cacute" unicode="&#x106;" horiz-adv-x="577" 
d="M528.405 86.5619l16.8644 -64.3241c-31.9078 -16.5678 -96.3567 -32.2378 -178.027 -32.2378c-185.8 0 -330.345 117.438 -330.345 341.238c0 209.692 140.345 353.762 349.702 353.762c83.9078 0 137.211 -18.1189 159.973 -30l-20.7355 -65.9941
c-33.1189 15.7889 -80.0267 27.7889 -136.476 27.7889c-161.844 0 -267.557 -103.681 -267.557 -283.363c0 -167.47 96.849 -275.227 262.751 -275.227c54.2545 0 108.492 11.1189 143.849 28.3567zM402.325 828.643h100.756l-127.357 -116.524h-66.3241z" />
    <glyph glyph-name="Ccaron" unicode="&#x10c;" horiz-adv-x="577" 
d="M528.405 86.5619l16.8644 -64.3241c-31.9078 -16.5678 -96.3567 -32.2378 -178.027 -32.2378c-185.8 0 -330.345 117.438 -330.345 341.238c0 209.692 140.345 353.762 349.702 353.762c83.9078 0 137.211 -18.1189 159.973 -30l-20.7355 -65.9941
c-33.1189 15.7889 -80.0267 27.7889 -136.476 27.7889c-161.844 0 -267.557 -103.681 -267.557 -283.363c0 -167.47 96.849 -275.227 262.751 -275.227c54.2545 0 108.492 11.1189 143.849 28.3567zM396.649 713.119h-62.5619l-105.238 113.075h70.5131l65.2812 -70.1456h2
l64.7301 70.1456h68.0642z" />
    <glyph glyph-name="Ccircumflex" unicode="&#x108;" horiz-adv-x="577" 
d="M528.405 86.5619l16.8644 -64.3241c-31.9078 -16.5678 -96.3567 -32.2378 -178.027 -32.2378c-185.8 0 -330.345 117.438 -330.345 341.238c0 209.692 140.345 353.762 349.702 353.762c83.9078 0 137.211 -18.1189 159.973 -30l-20.7355 -65.9941
c-33.1189 15.7889 -80.0267 27.7889 -136.476 27.7889c-161.844 0 -267.557 -103.681 -267.557 -283.363c0 -167.47 96.849 -275.227 262.751 -275.227c54.2545 0 108.492 11.1189 143.849 28.3567zM328.519 827.076h62.5619l104.908 -113.076h-70.5131l-64.9512 69.4756h-2
l-64.7301 -69.4756h-68.0642z" />
    <glyph glyph-name="Cdotaccent" unicode="&#x10a;" horiz-adv-x="577" 
d="M528.405 86.5619l16.8644 -64.3241c-31.9078 -16.5678 -96.3567 -32.2378 -178.027 -32.2378c-185.8 0 -330.345 117.438 -330.345 341.238c0 209.692 140.345 353.762 349.702 353.762c83.9078 0 137.211 -18.1189 159.973 -30l-20.7355 -65.9941
c-33.1189 15.7889 -80.0267 27.7889 -136.476 27.7889c-161.844 0 -267.557 -103.681 -267.557 -283.363c0 -167.47 96.849 -275.227 262.751 -275.227c54.2545 0 108.492 11.1189 143.849 28.3567zM360.406 720.476c-27.1677 0 -47.7943 23.5244 -47.7943 48.3621
c0 25.1677 20.6266 48.3621 48.4643 48.3621c26.2866 0 45.9132 -23.1944 45.9132 -48.3621c0 -24.8377 -19.6266 -48.3621 -46.5832 -48.3621z" />
    <glyph glyph-name="Dcaron" unicode="&#x10e;" horiz-adv-x="662" 
d="M77.0434 1.5511v663.449c52.4322 8.33 115.168 14 182.794 14c124.432 0 214.568 -29.8056 273.211 -85.6112c58.9566 -54.7889 93.3621 -132.102 93.3621 -239.94c0 -108.362 -33.1677 -198.362 -95.5999 -261.287
c-62.9733 -63.2378 -166.617 -98.0434 -297.168 -98.0434c-60.811 0 -112.124 2.4322 -156.6 7.4322zM157.967 605.319v-541.087c23.0434 -3.67 56.2057 -4.34 90.8269 -4.34c190.887 -0.33 292.6 106.021 292.6 290.227c1 161.087 -89.9245 263.989 -278.389 263.989
c-46.1623 0 -81.3246 -4.1189 -105.038 -8.7889zM338.275 712.119h-62.5619l-104.908 113.405h70.5131l65.4001 -69.9245h2l64.2812 69.9245h68.3942z" />
    <glyph glyph-name="Ebreve" unicode="&#x114;" horiz-adv-x="487" 
d="M420.919 385.794v-66.8752h-262.951v-251.493h293.849v-67.4263h-374.773v674h359.324v-67.4263h-278.4v-220.779h262.951zM129.643 823.838h49.6487c5.34 -22.67 23.3567 -48.7889 72.8323 -48.7889c49.4756 0 68.7134 22.67 73.7134 48.7889h48.7676
c-1.4489 -57.2699 -38.1944 -104.243 -123.6 -104.243c-84.0488 0 -119.362 46.5244 -121.362 104.243z" />
    <glyph glyph-name="Ecaron" unicode="&#x11a;" horiz-adv-x="487" 
d="M420.919 385.794v-66.8752h-262.951v-251.493h293.849v-67.4263h-374.773v674h359.324v-67.4263h-278.4v-220.779h262.951zM287.275 710h-62.5619l-104.908 113.405h70.5131l65.4001 -70.2545h2l64.2812 70.2545h68.1731z" />
    <glyph glyph-name="Edotaccent" unicode="&#x116;" horiz-adv-x="487" 
d="M420.919 385.794v-66.8752h-262.951v-251.493h293.849v-67.4263h-374.773v674h359.324v-67.4263h-278.4v-220.779h262.951zM257.049 722.373c-27.1677 0 -47.5732 23.2966 -47.5732 48.5832c0 25.1677 20.9566 48.3621 48.2432 48.3621
c26.2866 0 46.2432 -23.1944 46.2432 -48.3621c0 -25.2866 -19.9566 -48.5832 -46.9132 -48.5832z" />
    <glyph glyph-name="Emacron" unicode="&#x112;" horiz-adv-x="487" 
d="M420.919 385.794v-66.8752h-262.951v-251.493h293.849v-67.4263h-374.773v674h359.324v-67.4263h-278.4v-220.779h262.951zM139.211 785.768h237.913v-52.4376h-237.913v52.4376z" />
    <glyph glyph-name="Eogonek" unicode="&#x118;" horiz-adv-x="487" 
d="M443.394 -140.325l12.8544 -44.1076c-22.6433 -13.5244 -49.3788 -20.2866 -78.0976 -20.2866c-56.0755 0 -90.8377 28.6433 -90.8377 79.8377c0 54.2111 45.2545 101.33 81.4923 124.881h-291.762v674h359.324v-67.4263h-278.4v-220.779h262.951v-66.8752h-262.951
v-251.493h293.849v-67.4263h-14.7355c-42.5945 -27.3567 -83.9512 -70.0434 -83.9512 -107.4c0 -26.8056 19.2378 -40.9245 46.1456 -40.9245c15.4489 0 29.4489 2 44.1189 8z" />
    <glyph glyph-name="Gbreve" unicode="&#x11e;" horiz-adv-x="642" 
d="M585.486 350.962v-320.632c-38.0755 -14.66 -114.243 -37.33 -205.362 -37.33c-100.124 0 -183.887 25.6433 -250.124 89.33c-57.3133 55.4322 -93.4322 145.102 -93.1022 250.908c0.2211 198.675 135.659 347.762 362.015 347.762
c77.4055 0 138.379 -17.4489 166.692 -30.8811l-20.2866 -66.3241c-35.8811 16.4489 -80.8811 29 -148.076 29c-167.276 0 -275.438 -104.47 -275.438 -275.795c0 -173.589 104.07 -276.676 264.887 -276.676c58.5457 0 98.708 8.2378 119.632 18.9245v206.719h-140.038
v64.9941h219.2zM238.33 825.6h49.4209c5.5678 -23 23.5845 -49.1189 73.0601 -49.1189c49.4756 0 68.7134 23 73.7134 49.1189h48.3187c-1.33 -57.5999 -38.1944 -104.573 -123.481 -104.573c-83.7188 0 -119.481 46.3033 -121.032 104.573z" />
    <glyph glyph-name="Gcircumflex" unicode="&#x11c;" horiz-adv-x="642" 
d="M585.486 350.962v-320.632c-38.0755 -14.66 -114.243 -37.33 -205.362 -37.33c-100.124 0 -183.887 25.6433 -250.124 89.33c-57.3133 55.4322 -93.4322 145.102 -93.1022 250.908c0.2211 198.675 135.659 347.762 362.015 347.762
c77.4055 0 138.379 -17.4489 166.692 -30.8811l-20.2866 -66.3241c-35.8811 16.4489 -80.8811 29 -148.076 29c-167.276 0 -275.438 -104.47 -275.438 -275.795c0 -173.589 104.07 -276.676 264.887 -276.676c58.5457 0 98.708 8.2378 119.632 18.9245v206.719h-140.038
v64.9941h219.2zM329.832 826.405h62.5619l105.017 -113.405h-70.292l-64.9512 70.2545h-2l-65.2812 -70.2545h-67.8431z" />
    <glyph glyph-name="uni0122" unicode="&#x122;" horiz-adv-x="642" 
d="M585.486 350.962v-320.632c-38.0755 -14.66 -114.243 -37.33 -205.362 -37.33c-100.124 0 -183.887 25.6433 -250.124 89.33c-57.3133 55.4322 -93.4322 145.102 -93.1022 250.908c0.2211 198.675 135.659 347.762 362.015 347.762
c77.4055 0 138.379 -17.4489 166.692 -30.8811l-20.2866 -66.3241c-35.8811 16.4489 -80.8811 29 -148.076 29c-167.276 0 -275.438 -104.47 -275.438 -275.795c0 -173.589 104.07 -276.676 264.887 -276.676c58.5457 0 98.708 8.2378 119.632 18.9245v206.719h-140.038
v64.9941h219.2zM298.713 -219.464l-16.1944 38.2265c38.8056 6.5511 76.0434 25.8811 76.0434 65.9078c0 23.7789 -16.67 46.4489 -35.1356 60.4489l61.8164 13.7622c20 -12.8811 39.4489 -40.2111 39.4489 -72.6433c0 -72.5077 -66.7622 -102.032 -125.979 -105.702z" />
    </font>
</defs>
</svg>
