<?xml version="1.0" standalone="no"?>
<!DOCTYPE svg PUBLIC "-//W3C//DTD SVG 1.1//EN" "http://www.w3.org/Graphics/SVG/1.1/DTD/svg11.dtd" >
<!--
2016-4-23: Created with FontForge (http://fontforge.org)
-->
<svg xmlns="http://www.w3.org/2000/svg" xmlns:xlink="http://www.w3.org/1999/xlink" version="1.1">
<metadata>
Created by FontForge 20200314 at Sat Sep 26 11:56:50 2020
 By Jochen Härtel
(c) designteam 2020
</metadata>
<defs>
<font id="Rom-Regular" horiz-adv-x="300" >
  <font-face 
    font-family="Rom"
    font-weight="400"
    font-stretch="normal"
    units-per-em="1000"
    panose-1="2 0 5 3 0 0 0 0 0 0"
    ascent="750"
    descent="-250"
    x-height="481.32"
    cap-height="674"
    bbox="-154.32 -250 1072.4 940.61"
    underline-thickness="50"
    underline-position="-100"
    unicode-range="U+0020-FB04"
  />
<missing-glyph horiz-adv-x="500" 
d="M0 0v700h500v-700h-500zM250 395l170 255h-340zM280 350l170 -255v510zM80 50h340l-170 255zM50 605v-510l170 255z" />
    <glyph glyph-name=".notdef" horiz-adv-x="500" 
d="M0 0v700h500v-700h-500zM250 395l170 255h-340zM280 350l170 -255v510zM80 50h340l-170 255zM50 605v-510l170 255z" />
    <glyph glyph-name="space" unicode=" " horiz-adv-x="216" 
 />
    <glyph glyph-name="exclam" unicode="!" horiz-adv-x="214" 
d="M131.58 182.61h-49.24l-10.65 491.39h70.54zM106.96 -11c-26.96 0 -46.27 22.31 -45.6 49.94c0 29.3 18.97 50.61 46.27 50.61c27.96 0 46.27 -21.31 46.27 -50.61c0 -27.63 -18.31 -49.94 -46.94 -49.94z" />
    <glyph glyph-name="quotedbl" unicode="&#x22;" horiz-adv-x="312" 
d="M57.03 685h67.57l-14.32 -227.27h-39.26zM188.61 685h67.57l-14.32 -227.27h-38.93z" />
    <glyph glyph-name="numbersign" unicode="#" horiz-adv-x="475" 
d="M173.93 248.3h108.69l20.34 158.4h-109.36zM141.61 0h-47.94l26 203.37h-82.67v44.93h88.99l20.34 158.4h-87.34v44.93h93.66l26 198.37h45.94l-25 -198.37h109.36l26 198.37h46.94l-25.67 -198.37h82.67v-44.93h-88.99l-19.34 -158.4h87.34v-44.93h-93.66l-26 -203.37
h-47.94l26 203.37h-108.69z" />
    <glyph glyph-name="dollar" unicode="$" horiz-adv-x="496" 
d="M263.58 -84.66h-48.26v102.34c-54.65 0.33 -111.97 18.33 -145.63 44.67l21.32 46.9c33.32 -24.67 82.64 -43 134.62 -43c77.03 0 128.38 48.37 128.38 112.74c0 61.7 -41.68 99.72 -115.68 131.73c-99.99 42.01 -158.97 86.67 -158.97 169.65
c0 80.99 57.66 141.31 142.96 154.3v103.01h47.93v-101.02c57.32 -2 96.31 -18.67 123.3 -35.67l-22.32 -46.57c-19.66 12 -58.65 34 -119.3 34c-81.69 0 -114.04 -53.37 -114.04 -98.73c0 -59.37 37.67 -87.38 125.34 -125.39c96.3 -42.67 150.31 -92.66 150.31 -180.32
c0 -75.65 -51.65 -148.98 -149.96 -164.64v-104z" />
    <glyph glyph-name="percent" unicode="%" horiz-adv-x="755" 
d="M178.29 661c82.29 0 140.28 -64.64 140.28 -194c0 -138.34 -65.97 -205 -145.28 -205c-74.3 0 -140.28 61.65 -141.95 196c0 136.03 71 203 146.95 203zM175.29 620.73c-59.02 0 -92.04 -71.03 -92.04 -159.06c-2.67 -89.03 32.35 -159.4 91.37 -159.4
c64.7 0 92.71 70.71 92.71 161.4c0 85.03 -25.01 157.06 -92.04 157.06zM207.21 -11h-45.28l384.68 672h45.28zM583.53 392c82.29 0 139.95 -64.64 139.95 -194c0 -137.67 -65.97 -204.33 -144.95 -204.33c-74.3 0 -140.28 61.65 -141.95 195
c0 137.03 71 203.33 146.95 203.33zM580.53 351.73c-59.02 0 -92.37 -70.36 -92.37 -159.06c-2.34 -89.03 33.68 -158.73 91.7 -158.73c64.7 0 92.71 70.04 92.71 160.73c0 85.03 -25.01 157.06 -92.04 157.06z" />
    <glyph glyph-name="ampersand" unicode="&#x26;" horiz-adv-x="574" 
d="M573.86 0h-74.52c-21.01 21.01 -40.35 42.02 -70.37 73.37c-64.7 -62.04 -130.37 -84.37 -202.36 -84.37c-116.93 0 -195.61 84.65 -195.61 188.33c0 93.34 57.01 155 133.34 198.34v3c-37.01 48.69 -58.01 97.69 -58.01 145.02c0 81.33 56.32 161.31 158.27 161.31
c75.96 0 135.6 -53.32 135.6 -136.97c0 -71.67 -42.34 -127 -154.03 -182.68v-3c64.37 -75.38 137.75 -158.76 185.44 -212.79c32.34 49.01 53.34 115.35 67.68 210.4h57.22c-18 -107.34 -44.99 -190 -90.97 -246.32c34.66 -35.99 68.32 -71.31 108.32 -113.64z
M238.93 36.91c66.04 0 121.07 30.02 157.76 71.72c-39.33 45.34 -122.37 136.05 -204.74 232.1c-40.69 -25.01 -101.07 -72.7 -101.07 -155.09c0 -85.71 62.36 -148.73 148.05 -148.73zM257.93 639.74c-62.03 0 -95.05 -52.03 -95.05 -110.06
c0 -54.03 26.02 -94.38 53.68 -131.05c76.04 41.01 128.08 81.03 128.08 145.4c0 45.69 -25.68 95.71 -86.71 95.71z" />
    <glyph glyph-name="quoteright" unicode="&#x2019;" horiz-adv-x="184" 
d="M92.33 676l68.89 9c-19.65 -77.97 -62.65 -189.66 -82.61 -223.6l-40.59 -5.66c17.98 47.61 44.65 154.96 54.31 220.26z" />
    <glyph glyph-name="parenleft" unicode="(" horiz-adv-x="271" 
d="M204.38 696.01h52.92c-79.7 -101.35 -136.05 -229.34 -136.05 -411.68c0 -179.34 59.02 -303.99 136.05 -406.67h-52.92c-67.69 85.01 -137.7 211 -137.7 407.34c0.33 197.67 70.01 324.33 137.7 411.01z" />
    <glyph glyph-name="parenright" unicode=")" horiz-adv-x="271" 
d="M66.56 -122.34h-52.59c77.03 101.68 136.05 229 136.05 410.34c0 180.34 -57.35 305.66 -136.05 408.01h52.59c68.02 -84.68 138.37 -211.34 138.37 -409.01c0 -196.67 -70.35 -322.33 -138.37 -409.34z" />
    <glyph glyph-name="asterisk" unicode="*" horiz-adv-x="398" 
d="M262.97 685l48.61 -27.3l-90.31 -123.66v-2l147.65 14.64v-53.93l-146.98 14.65v-2.67l90.64 -118.66l-51.61 -29.3l-62.01 133.97h-2l-67.68 -134.97l-44.94 29.3l90.31 120.66v2.67l-144.65 -15.65v53.93l142.98 -13.64v2l-88.64 120.66l49.61 28.3l64.68 -132.97h2z
" />
    <glyph glyph-name="plus" unicode="+" horiz-adv-x="596" 
d="M273.37 532h49.93v-241.7h232.7v-46.6h-232.7v-243.7h-49.93v243.7h-233.37v46.6h233.37v241.7z" />
    <glyph glyph-name="comma" unicode="," horiz-adv-x="184" 
d="M68.95 -119.68l-46.25 -5.33c17.98 47.61 44.98 155.28 54.64 220.91l74.55 10c-19.65 -78.3 -62.98 -191.31 -82.94 -225.58z" />
    <glyph glyph-name="hyphen" unicode="-" 
d="M30 298.31h240.97v-49.59h-240.97v49.59z" />
    <glyph glyph-name="period" unicode="." horiz-adv-x="184" 
d="M99.61 -11c-27.63 0 -46.94 22.98 -46.27 50.94c0 29.63 19.64 50.94 47.27 50.94c27.63 0 46.27 -21.31 46.27 -50.94c0 -27.96 -18.31 -50.94 -47.27 -50.94z" />
    <glyph glyph-name="slash" unicode="/" horiz-adv-x="348" 
d="M45.23 -40h-52.93l305.13 725h55.27z" />
    <glyph glyph-name="zero" unicode="0" horiz-adv-x="496" 
d="M254.63 661c122.26 0 204.28 -108.6 204.28 -327.66c0 -229.04 -83.34 -344.34 -217.96 -344.34c-109.58 0 -200.94 105.6 -203.61 333.33c0 230.73 100.7 338.67 217.29 338.67zM248.29 612.43c-85.04 0 -149.08 -104.05 -149.08 -291.1
c0 -177.04 58.7 -283.09 148.08 -283.09c102.06 0 149.08 117.06 149.08 290.43c0 166.7 -44.35 283.76 -148.08 283.76z" />
    <glyph glyph-name="one" unicode="1" horiz-adv-x="496" 
d="M236 0v590.78h-2l-108.31 -62.34l-13.65 47.57l129.27 73.99h54.23v-650h-59.54z" />
    <glyph glyph-name="two" unicode="2" horiz-adv-x="496" 
d="M441.91 0h-396.24v37.92l62.97 63.65c176.05 170.73 253.73 259.42 254.06 366.8c0 71.36 -31.33 140.4 -137.04 140.4c-61.01 0 -109.34 -31.34 -138 -55.67l-21.97 42.57c42.99 38 102.3 65.33 171.94 65.33c136.65 0 186.94 -100.02 186.94 -182.3
c0 -125.36 -91.02 -226.38 -245.44 -377.81l-47.98 -47.33v-2h310.76v-51.56z" />
    <glyph glyph-name="three" unicode="3" horiz-adv-x="496" 
d="M44.01 33l20.65 47.9c24.33 -16 80.32 -41 141.32 -41c126.4 0 159.39 85.4 159.06 142.08c-1.67 102.39 -91.71 145.41 -183.41 145.41h-44.31v47.91h44.98c69.36 0 157.73 38.36 157.73 124.74c0 57.36 -34.34 110.06 -122.04 110.06
c-51.33 0 -98.65 -23 -127.32 -44.34l-20.32 44.57c31.99 25 93.3 50.67 157.27 50.67c123.98 0 174.61 -76.67 174.61 -152.32c0 -66.33 -41.34 -124.67 -120.67 -153.67v-2c80.67 -16 146.34 -77.34 146.34 -170.35c0 -99.31 -72.96 -193.66 -225.61 -193.66
c-68.31 0 -128.96 23 -158.28 44z" />
    <glyph glyph-name="four" unicode="4" horiz-adv-x="496" 
d="M377.22 0h-58.21v186.38h-307.36v40.58l308.09 423.04h57.48v-414.05h97.03v-49.57h-97.03v-186.38zM79.21 235.95h239.8v247.82c0 31.99 1 63.31 3 93.96l-3 0.67c-20 -37.33 -35.33 -61.31 -51.32 -86.62l-188.48 -253.83v-2z" />
    <glyph glyph-name="five" unicode="5" horiz-adv-x="496" 
d="M414.91 650v-52.56h-245.32l-29.69 -195.14c15 2.67 29.67 4.67 57.02 4.67c45.98 0 89.28 -9.66 127.27 -30.31c51 -26.32 98.36 -83.66 98.36 -168.34c0 -129.01 -98.99 -219.32 -225.92 -219.32c-68.32 0 -125.64 20.67 -154.63 41.34l19.99 47.57
c25.66 -16.67 76.65 -38.01 136.32 -38.01c90.37 0 163.38 64.72 163.38 159.09c-1 90.7 -58.34 158.07 -188.34 158.07c-38.34 0 -68.68 -4 -91.34 -7l42 299.94h290.9z" />
    <glyph glyph-name="six" unicode="6" horiz-adv-x="496" 
d="M398.58 660.67l0.67 -53.24c-18.67 0.33 -43.01 -0.67 -69.35 -5.34c-139.34 -27.02 -217.7 -141.42 -230.69 -262.49h2.33c30.33 45.69 87.68 85.72 164.37 85.72c118.35 0 194.66 -86.35 194.66 -209.33c0 -114.98 -74.3 -226.99 -207.29 -226.99
c-124.26 0 -217.27 99.29 -217.27 274.32c0 130.01 46 231.01 107.32 294.34c49.31 50.32 116.62 83.99 190.58 96.67c25.33 4.67 48 6.34 64.67 6.34zM255.29 38.24c84.71 0 143.08 69.7 143.08 173.42c0 107.07 -62.38 164.41 -149.41 164.41
c-58.36 0 -114.06 -35.68 -141.41 -89.38c-6 -10.67 -10.67 -23.67 -10.67 -38.33c0.66 -123.08 56.36 -210.12 158.41 -210.12z" />
    <glyph glyph-name="seven" unicode="7" horiz-adv-x="496" 
d="M60.35 650h389.9v-42.59l-289.7 -607.41h-61.52l287.36 597.11v2h-326.04v50.89z" />
    <glyph glyph-name="eight" unicode="8" horiz-adv-x="496" 
d="M246.96 -11c-122.6 0 -207.28 76.31 -207.28 173.99c0 83.34 50.34 143.35 133.69 178.69l-1 3.67c-76.02 34 -107.69 90.67 -107.69 146.67c0 99.65 82.98 168.98 190.95 168.98c114.61 0 177.61 -74.98 177.61 -156.65c0 -55 -26.33 -116.01 -111.69 -155.35v-3.67
c87.7 -34.68 135.02 -94.36 135.02 -170.68c0 -110.99 -95.66 -185.65 -209.61 -185.65zM247.62 36.92c89.72 0 147.42 54.36 147.42 130.07c0 87.71 -60.36 127.72 -159.75 156.07c-86.72 -25.35 -133.08 -81.38 -133.08 -149.41
c-3.67 -73.37 51.69 -136.73 145.41 -136.73zM250.63 614.08c-81.71 0 -127.07 -53.36 -127.07 -115.39c0 -73.71 53.69 -111.39 137.4 -132.73c64.04 22.35 112.4 65.03 112.4 132.74c0 56.02 -34.35 115.38 -122.73 115.38z" />
    <glyph glyph-name="nine" unicode="9" horiz-adv-x="496" 
d="M99.35 -10.67v53.24c18.33 -2 42.34 0 72.34 4.34c52.34 8.34 101.01 32.02 140.02 71.71c42.33 44.36 74.67 106.72 86.67 195.11l-2.33 -0.67c-39.35 -50.03 -95.37 -79.38 -163.05 -79.38c-119.68 0 -187.98 93.36 -187.98 198.33
c0 120.32 84.31 228.99 213.29 228.99c118.26 0 201.6 -99.29 201.6 -271.99c0 -145.68 -50.01 -246.35 -111.33 -307.01c-44.64 -45.65 -106.94 -75.65 -164.21 -84.99c-34.01 -6.34 -63.35 -8.68 -85.02 -7.68zM249.97 612.09c-85.05 0 -144.08 -74.71 -144.08 -176.76
c0 -91.05 56.37 -152.07 139.07 -152.07c65.7 0 119.07 33.69 146.09 79.39c4.33 7.33 8 16.66 8 29.32c0 128.42 -47.7 220.12 -149.08 220.12z" />
    <glyph glyph-name="colon" unicode=":" horiz-adv-x="184" 
d="M99.61 354.73c-27.63 0 -46.94 22.31 -46.27 49.94c0 29.63 19.64 51.61 47.27 51.61c27.63 0 45.94 -21.98 46.27 -51.61c0 -27.63 -18.31 -49.94 -47.27 -49.94zM99.61 -11c-27.63 0 -46.94 22.98 -46.27 50.61c0 29.63 19.64 50.94 47.27 50.94
c27.63 0 45.94 -21.31 46.27 -50.94c0 -27.63 -18.31 -50.61 -47.27 -50.61z" />
    <glyph glyph-name="semicolon" unicode=";" horiz-adv-x="184" 
d="M68.62 -119.68l-45.59 -5.33c17.98 47.61 44.98 155.28 54.64 220.91l74.22 10c-19.98 -78.3 -63.31 -191.31 -83.27 -225.58zM108.28 354.73c-27.63 0 -46.94 22.31 -46.27 49.94c0 29.63 19.64 51.61 46.94 51.61c27.96 0 46.27 -21.98 46.27 -51.61
c0 -27.63 -18.31 -49.94 -46.94 -49.94z" />
    <glyph glyph-name="less" unicode="&#x3c;" horiz-adv-x="596" 
d="M69.35 245.7v41.27l457.3 245.03v-53.59l-402.39 -211.41v-2l402.39 -210.74v-54.26z" />
    <glyph glyph-name="equal" unicode="=" horiz-adv-x="596" 
d="M556 342.36h-516v46.6h516v-46.6zM556 150.38h-516v46.6h516v-46.6z" />
    <glyph glyph-name="greater" unicode="&#x3e;" horiz-adv-x="596" 
d="M526.65 287.3v-41.93l-457.3 -245.37v54.26l403.38 210.74v2l-403.38 211.41v53.59z" />
    <glyph glyph-name="question" unicode="?" horiz-adv-x="389" 
d="M198.23 179.61h-55.22l-3.34 26c-7.34 55.34 12 117.02 63.34 179.7c50.36 59.7 74.69 100.71 74.69 150.4c0 57.7 -35.35 96.39 -104.38 96.72c-36.67 0 -76.67 -11.33 -101.67 -31l-19.98 43.57c33 25.34 87.99 40 133.62 40c107.63 0 156.95 -70.33 156.95 -143.65
c0 -63.98 -34.65 -112.98 -86.67 -175.34c-47.35 -57.36 -63.35 -104.04 -59.01 -157.05zM168.62 -11c-27.63 0 -46.94 22.98 -46.27 50.61c0 29.63 19.64 50.94 47.27 50.94c28.3 0 46.27 -21.31 46.27 -50.94c0 -27.63 -17.64 -50.61 -47.27 -50.61z" />
    <glyph glyph-name="at" unicode="@" horiz-adv-x="723" 
d="M450.68 257.01l23.68 120.37c-11.34 3.67 -30.35 9.01 -58.04 9.01c-97.38 0 -176.42 -91.04 -176.42 -196.75c0 -46.68 24.68 -81.36 73.37 -81.36c66.04 0 125.07 85.39 137.41 148.73zM499.96 -25.02l14.66 -37.64c-52.99 -29 -110.33 -41.34 -175.32 -41.34
c-164 0 -299.65 120 -299.65 311.33c0 206 140.32 384.67 361.65 384.67c173.33 0 285.64 -122.67 285.64 -288.33c0 -152.01 -84.67 -238 -172.64 -238c-36.65 0 -74.99 27 -69.31 92.02h-4c-37.01 -62.35 -83.68 -92.02 -146.36 -92.02
c-55.32 0 -105.99 46.33 -105.99 123.32c0 125.34 101.35 239.68 237.67 239.68c42.33 0 76.31 -8.33 102.31 -19.66l-35.34 -179.66c-17.01 -83.37 -3.67 -121.72 32.01 -122.05c54.35 -1.67 112.69 72.36 112.69 188.36c0 151.03 -88.34 256.37 -244.01 256.37
c-167.02 0 -305.36 -133.02 -305.36 -340.71c0 -166.33 110.34 -273.35 257.67 -273.35c59.68 0 112.68 12.67 153.68 37.01z" />
    <glyph glyph-name="A" unicode="A" horiz-adv-x="593" 
d="M427.35 228.08h-257.76l-78.71 -228.08h-62.53l239.05 674h65.47l238.71 -674h-63.52zM185.58 277.32h225.78l-76.72 214.77c-15.67 46.01 -25 81.99 -35 120.32h-2c-10 -39.33 -21 -76.31 -34.67 -118.65z" />
    <glyph glyph-name="B" unicode="B" horiz-adv-x="517" 
d="M80.02 1.33v663.67c37.33 8.67 89.29 14 142.92 14c84.99 0 140.32 -17.01 179.64 -53.02c29.64 -27.34 45.95 -64.66 45.95 -113.64c0 -67.68 -47.02 -125.35 -115.34 -150.01v-2c58.64 -13.99 141.01 -64.31 141.01 -171.01c0 -55.99 -20.32 -98.65 -52.31 -130.98
c-44.99 -45.01 -118.98 -63.67 -218.93 -63.67c-54.64 0 -95.95 4 -122.94 6.66zM140.22 623.42v-241.79h92.4c95.35 0 154.04 54.03 154.04 125.73c0 89.72 -67.37 122.73 -163.41 122.73c-43.35 0 -68.36 -3 -83.03 -6.67zM140.22 333.72v-285.14
c19.01 -3.67 46.02 -4.67 79.7 -4.67c98.71 0 191.09 35.68 191.09 145.07c0 101.38 -87.04 144.74 -190.08 144.74h-80.71z" />
    <glyph glyph-name="C" unicode="C" horiz-adv-x="573" 
d="M525.65 71.57l15.32 -48.23c-33.34 -17.34 -98.01 -33.34 -180.01 -33.34c-171.91 0 -323.62 109.28 -323.62 342.34c0 203.63 133.62 352.66 344.63 352.66c85.34 0 136.33 -18.67 157.99 -30l-17.65 -50.23c-33.67 16.67 -82.01 28.67 -138.68 28.67
c-174.08 0 -283.1 -112.39 -283.1 -300.78c0 -177.06 101.7 -291.1 276.42 -291.1c56.35 0 111.69 11.67 148.7 30.01z" />
    <glyph glyph-name="D" unicode="D" horiz-adv-x="653" 
d="M80.02 1.33v663.67c51.66 8 111.31 14 176.29 14c123.66 0 215.34 -31.68 272.33 -89.36c55.98 -55.67 87.63 -131.66 87.63 -235.97c0 -102.63 -29.31 -192.63 -90.97 -257.98c-60.99 -64.34 -162.98 -101.02 -293.31 -101.02c-55.3 0 -105.29 1.66 -151.97 6.66z
M140.22 619.76v-570.19c26.02 -4 62.71 -5 102.07 -5c206.1 0 311.12 115.39 311.12 306.1c1 167.04 -92.35 278.76 -297.79 278.76c-49.69 0 -88.38 -4.67 -115.4 -9.67z" />
    <glyph glyph-name="E" unicode="E" horiz-adv-x="474" 
d="M407.58 379.29v-50.56h-267.36v-277.84h298.7v-50.89h-358.9v674h343.23v-50.89h-283.03v-243.82h267.36z" />
    <glyph glyph-name="F" unicode="F" horiz-adv-x="470" 
d="M80.02 0v674h342.9v-50.89h-282.7v-253.48h259.69v-50.56h-259.69v-319.07h-60.2z" />
    <glyph glyph-name="G" unicode="G" horiz-adv-x="631" 
d="M572.92 340.6v-310.6c-35.65 -14 -107.96 -37 -199.63 -37c-93.29 0 -175.95 23.99 -243.29 89c-55.99 54.66 -92.66 144.66 -92.66 252.34c0.33 191.62 127.61 346.66 355.62 346.66c74.65 0 133.64 -17.67 160.63 -30.33l-16.98 -50.23
c-35.33 16.67 -80.33 29 -145.65 29c-178.74 0 -290.43 -114.06 -290.43 -292.44c0 -183.73 109.03 -292.77 280.1 -292.77c65.71 0 109.4 9.34 132.75 21.35v225.79h-150.4v49.23h209.94z" />
    <glyph glyph-name="H" unicode="H" horiz-adv-x="637" 
d="M80.02 674h60.2v-291.38h356.82v291.38h60.53v-674h-60.53v330.07h-356.82v-330.07h-60.2v674z" />
    <glyph glyph-name="I" unicode="I" horiz-adv-x="220" 
d="M80.02 674h60.2v-674h-60.2v674z" />
    <glyph glyph-name="J" unicode="J" horiz-adv-x="353" 
d="M220.03 222.63v451.37h60.87v-460.38c0 -174.31 -85.99 -224.62 -189.26 -224.62c-30.66 0 -66.98 7.67 -85.63 16l10.99 49.56c17.33 -7 42.66 -13.67 72.33 -13.67c83.36 0 130.7 38.35 130.7 181.74z" />
    <glyph glyph-name="K" unicode="K" horiz-adv-x="512" 
d="M80.02 0v674h60.2v-335.72h3.67c18.67 26 38.01 49.33 55.68 70.66l228.11 265.06h75.17l-252.71 -286l275.06 -388h-72.85l-244.78 347.08l-67.35 -75.34v-271.74h-60.2z" />
    <glyph glyph-name="L" unicode="L" horiz-adv-x="455" 
d="M80.02 0v674h60.2v-623.11h296.71v-50.89h-356.91z" />
    <glyph glyph-name="M" unicode="M" horiz-adv-x="786" 
d="M667.03 0l-19.01 312.08c-6.34 98.69 -13.68 219.06 -12.68 295.69h-3c-23.67 -74.98 -51.67 -154.96 -88.35 -252.65l-134.41 -353.8h-43.89l-125.08 345.79c-36.02 101.7 -64.36 184.68 -84.03 260.66h-2.67c-1.33 -80.65 -6.33 -196.33 -13.67 -304.7l-20.01 -303.07
h-58.88l48.34 674h73.48l135.1 -367.54c30.01 -85.01 53.68 -154.99 72.02 -221.64h2.33c17.67 63.98 41.67 132.62 74.35 220.97l140.1 368.21h74.82l44.68 -674h-59.54z" />
    <glyph glyph-name="N" unicode="N" horiz-adv-x="644" 
d="M137.9 0h-57.88v674h61.5l247.49 -379.19c52.68 -82.35 91.68 -147.99 124.35 -214.31l2 1c-7.33 90.67 -8.66 169.32 -8.66 274.99v317.51h58.55v-674h-59.19l-242.81 375.5c-49.01 77.01 -94.68 149.99 -129.35 220.31l-2.33 -1c5 -83.66 6.33 -159.3 6.33 -271.3
v-323.51z" />
    <glyph glyph-name="O" unicode="O" horiz-adv-x="676" 
d="M342.97 685c174.62 0 296.3 -134.97 296.3 -341c0 -236.02 -143.68 -355 -304.96 -355c-169.96 0 -296.97 133.31 -296.97 341.33c0 218.69 133 354.67 305.63 354.67zM339.64 634.77c-162.09 0 -238.78 -148.41 -238.78 -302.44c0 -149.36 84.7 -293.1 237.11 -293.1
c152.74 0 238.11 139.06 238.11 301.44c0 139.36 -75.36 294.1 -236.44 294.1z" />
    <glyph glyph-name="P" unicode="P" horiz-adv-x="511" 
d="M80.02 0v666c39.99 7.67 90.3 13 151.59 13c81.98 0 143.64 -20 181.63 -56.67c33.65 -31.33 54.31 -76.98 54.31 -134.97c0 -58.99 -17.33 -103.64 -48.65 -137.3c-43.99 -49.67 -117.65 -75.34 -200.64 -75.34c-28.68 0 -55.36 1 -78.04 7.34v-282.06h-60.2z
M140.22 621.76v-288.13c22.35 -6.34 49.7 -9.01 81.38 -9.01c115.05 0 185.08 56.36 185.08 158.74c0 100.39 -72.38 146.07 -175.75 146.07c-42.02 0 -73.7 -3.67 -90.71 -7.67z" />
    <glyph glyph-name="Q" unicode="Q" horiz-adv-x="676" 
d="M645.61 -38.06l-18.3 -53.57c-88.32 21.99 -181.34 48.32 -253.98 71.3c-14 4.33 -26.66 9.33 -38.99 9.33c-163.35 4.66 -297 124.67 -297 341c0 221.36 132.67 355 306.63 355c173.62 0 295.3 -135.97 295.3 -341c0 -181.71 -84.02 -293.38 -205.4 -333.05v-3.33
c73.03 -17.67 152.73 -35.68 211.74 -45.68zM336.3 39.23c153.74 0 239.78 138.73 239.78 301.44c0 139.69 -75.36 294.1 -234.44 294.1c-164.42 0 -241.11 -150.74 -240.78 -304.11c-0.33 -149.03 85.37 -291.43 235.44 -291.43z" />
    <glyph glyph-name="R" unicode="R" horiz-adv-x="515" 
d="M80.02 0v665c41.99 9 101.64 14 152.26 14c89.65 0 146.3 -18.34 186.29 -55.67c30.65 -28.66 48.98 -73.99 48.98 -122.64c0 -90.34 -54.66 -148.67 -130.35 -174.68v-2.33c53.34 -17.33 86.35 -67.34 102.35 -140.69c22.67 -101.37 36.66 -156.32 50.66 -182.99h-63.2
c-10.33 19.67 -25.33 78.34 -43.66 163.01c-20 95.68 -60.02 136.71 -145.72 140.38h-97.41v-303.39h-60.2zM140.22 622.09v-270.79h101.06c100.37 0 165.4 55.69 165.4 140.73c0 97.72 -71.71 138.4 -173.09 138.73c-44.68 0 -77.36 -4.67 -93.37 -8.67z" />
    <glyph glyph-name="S" unicode="S" horiz-adv-x="473" 
d="M42 34.34l19.32 50.89c38.33 -25.34 92.65 -44.67 150.64 -44.67c96.37 0 155.07 53.7 155.07 131.75c0 71.71 -38.01 113.07 -133.03 150.08c-109.33 38.33 -175.32 94.66 -175.32 187.65c0 100.98 83.65 174.96 203.26 174.96c64.98 0 113.64 -16.67 138.95 -32.33
l-19.98 -50.23c-19.32 12.67 -62.98 32 -121.97 32c-103.39 0 -139.73 -65.05 -139.73 -115.74c0 -71.04 42.34 -106.73 138.02 -144.07c111.99 -44.67 170.66 -96.32 170.66 -196.66c0 -99.98 -72.31 -187.97 -221.26 -187.97c-60.31 0 -129.3 19 -164.63 44.34z" />
    <glyph glyph-name="T" unicode="T" horiz-adv-x="475" 
d="M207.35 0v622.78h-214.38v51.22h490.96v-51.22h-215.38v-622.78h-61.2z" />
    <glyph glyph-name="U" unicode="U" horiz-adv-x="632" 
d="M79.69 674h60.53v-404.36c0 -164.4 75.71 -229.74 172.41 -229.74c107.37 0 180.08 70.02 180.08 229.74v404.36h61.2v-399.03c0 -207 -111.01 -285.97 -244.28 -285.97c-124.6 0 -229.94 72.3 -229.94 279.29v405.71z" />
    <glyph glyph-name="V" unicode="V" horiz-adv-x="525" 
d="M285.83 0h-61.83l-222.68 674h64.52l114.38 -351.43c31.68 -95.69 58.02 -179.7 76.69 -256.02h2.67c19.67 76.66 49.68 163 83.03 255.69l125.39 351.76h64.86z" />
    <glyph glyph-name="W" unicode="W" horiz-adv-x="828" 
d="M250.87 0h-60.85l-175.02 674h62.52l92.06 -367.13c22.01 -86.01 41.35 -168 54.02 -231.66h2.67c11 64.32 34.01 144.32 59.02 231.99l104.07 366.8h60.85l94.06 -365.45c20.34 -81.34 41.69 -164.02 51.69 -233.01h2.67c14.67 73.33 35.01 146.99 58.69 232.33
l103.74 366.13h62.2l-198.37 -674h-60.85l-96.39 375.79c-24.35 94.71 -39.69 161.38 -49.36 226.03h-2c-11.33 -64.32 -28.34 -130.32 -57.36 -225.36z" />
    <glyph glyph-name="X" unicode="X" horiz-adv-x="554" 
d="M525.23 0h-70.18l-96.72 160.39c-39.69 61.02 -63.03 98.69 -84.7 137.69h-2.67c-20.34 -39 -41.35 -75.67 -81.04 -138.69l-91.05 -159.39h-70.52l211.36 341.67l-202.69 332.33h70.18l101.73 -172.74c27.01 -44.67 47.35 -78.67 67.36 -114.67h2.33
c20.34 38.66 40.02 70.33 67.7 114.67l106.07 172.74h70.52l-212.37 -328z" />
    <glyph glyph-name="Y" unicode="Y" horiz-adv-x="515" 
d="M289.21 0h-60.53v290.02l-214.34 383.98h68.85l105.72 -196.05c27.34 -52.34 50.69 -94.68 73.03 -143.02h2c20.34 45.34 46.02 91.35 74.7 143.69l109.06 195.38h68.85l-227.34 -384.32v-289.68z" />
    <glyph glyph-name="Z" unicode="Z" horiz-adv-x="543" 
d="M32.68 0v38.27l395.44 581.84v3h-362.77v50.89h440.93v-38.93l-395.45 -581.18v-3h400.45v-50.89h-478.6z" />
    <glyph glyph-name="bracketleft" unicode="[" horiz-adv-x="271" 
d="M261.65 -112h-174.29v797h174.29v-42.94h-123.04v-711.12h123.04v-42.94z" />
    <glyph glyph-name="backslash" unicode="\" horiz-adv-x="345" 
d="M353.39 -40h-53.93l-301.48 725h53.93z" />
    <glyph glyph-name="bracketright" unicode="]" horiz-adv-x="271" 
d="M9.62 686h174.96v-798h-174.96v42.94h123.04v712.12h-123.04v42.94z" />
    <glyph glyph-name="asciicircum" unicode="^" horiz-adv-x="596" 
d="M528.63 193.69h-53.92l-175.71 401.4h-2l-175.04 -401.4h-53.92l204.99 456.31h49.94z" />
    <glyph glyph-name="underscore" unicode="_" horiz-adv-x="500" 
d="M0 -75h500v-50h-500v50z" />
    <glyph glyph-name="quoteleft" unicode="&#x2018;" horiz-adv-x="184" 
d="M106.91 465.74l-68.56 -10c19.65 77.97 62.65 189.99 82.28 223.93l40.59 5.33c-17.65 -47.61 -44.65 -153.96 -54.31 -219.26z" />
    <glyph glyph-name="a" unicode="a" horiz-adv-x="463" 
d="M397.55 0h-55.21l-7 66.36h-3c-24.32 -37.33 -76.99 -77.36 -151.35 -77.36c-96.66 0 -143.31 68.33 -143.31 134.31c0 112.98 99.98 178.99 292.34 177.32v11.34c0 45.36 -9.66 132.77 -118.71 132.1c-42.99 0 -87.98 -11.99 -121.98 -36l-16.65 42.59
c42.01 28.01 97.33 41.66 146.27 41.66c141.97 0 171.27 -103.01 171.27 -192.64v-185.02c0 -39.32 2 -78.98 7.33 -114.66zM330.68 156.97v96.73c-102.03 2.67 -230.46 -13.66 -230.46 -121.73c0 -65.04 43.36 -94.72 91.71 -94.72c74.39 0 117.74 46.03 133.75 91.05
c3 9.67 5 19.67 5 28.67z" />
    <glyph glyph-name="b" unicode="b" horiz-adv-x="557" 
d="M128.25 0h-53.89c2 33.67 4 77.98 4 116.29v593.71h60.2v-314.05h2c31.67 59.36 89.68 96.37 172.37 96.37c120.67 0 205 -100.67 204.67 -246.33c0 -171.66 -109 -256.99 -214.99 -256.99c-74.69 0 -131.36 29.68 -168.7 95.69h-2.33zM138.56 281v-93.03
c0 -11 2 -22.67 4 -34.01c19.68 -69.04 78.05 -115.06 149.42 -115.06c104.06 0 164.42 85.05 164.42 205.43c0 105.71 -56.7 198.76 -160.75 198.76c-66.7 0 -130.07 -46.36 -151.42 -122.07c-2.67 -11.34 -5.67 -24.01 -5.67 -40.02z" />
    <glyph glyph-name="c" unicode="c" horiz-adv-x="446" 
d="M400.32 66.58l13.66 -46.57c-21.66 -11.33 -71.99 -30.01 -139.67 -30.01c-141.31 0 -234.3 99.67 -234.3 245.66c0 151.01 103.34 256.33 251.96 256.33c56.69 0 104.03 -15.68 124.68 -28.35l-17.99 -48.57c-23.01 12.67 -58.69 26.35 -110.04 26.35
c-123.06 0 -187.08 -93.39 -187.08 -202.43c0 -120.71 76.69 -198.42 182.74 -198.42c54.69 0 90.37 15.01 116.04 26.01z" />
    <glyph glyph-name="d" unicode="d" horiz-adv-x="550" 
d="M411.71 710h60.53v-593.71c0 -38.31 1.67 -82.62 4 -116.29h-54.88l-3.33 88.69h-2c-25.66 -53.33 -83.32 -99.69 -169.02 -99.69c-117.67 0 -207 99 -207 243.32c-1 160.33 98.33 260 216.33 260c80.03 0 131.37 -40.36 153.37 -80.7h2v298.38zM411.71 196.97v92.04
c0 12.34 -1.67 29.35 -4.67 41.69c-15.68 61.36 -69.04 112.72 -143.08 112.72c-100.38 0 -162.42 -87.37 -162.42 -206.43c0 -104.7 52.02 -197.76 159.75 -197.76c65.7 0 126.4 43.02 145.75 118.4c3 12.67 4.67 24.67 4.67 39.34z" />
    <glyph glyph-name="e" unicode="e" horiz-adv-x="490" 
d="M448.6 238.73h-349.38c0.66 -142.45 82.02 -198.82 177.39 -198.82c67.69 0 104.35 13.01 133.33 26.34l12.99 -46.25c-22.29 -11.32 -72.61 -30 -154.3 -30c-141.63 0 -228.62 99.34 -228.62 241.99c0 155.38 90.02 260.33 219.63 260.33
c157.33 0 191.29 -145.03 191.29 -220.63c0 -14.65 -0.66 -24.63 -2.33 -32.96zM101.56 284.98h287.82c1 63.37 -25.68 160.42 -136.07 160.42c-100.39 0 -144.08 -90.71 -151.75 -160.42z" />
    <glyph glyph-name="f" unicode="f" horiz-adv-x="271" 
d="M143.54 0h-60.2v433.75h-68.67v47.57h68.67v25.01c0 72.02 14.33 132.68 53.99 171.68c30.32 29.99 71.64 42.99 109.96 42.99c31 0 58 -7.67 72.99 -15.34l-14.01 -47.9c-13 6.67 -31.67 13.01 -59.35 13.01c-84.38 0 -103.38 -76.72 -103.38 -162.78v-26.67h125.04
v-47.57h-125.04v-433.75z" />
    <glyph glyph-name="g" unicode="g" horiz-adv-x="548" 
d="M419.7 481.32h54.89c-2 -35.67 -4 -74 -4 -126.97v-284.35c0 -119.04 -24.01 -182.35 -66.32 -221.67c-44.99 -42.66 -110.98 -57.33 -167.29 -57.33c-55.99 0 -117.98 14 -154.97 40.67l18.65 48.24c32.67 -21.34 80.66 -39.34 142 -39.34
c97.37 0 168.06 50.35 168.06 185.75v63.38h-2c-25.66 -47.68 -80.34 -89.04 -162.71 -89.04c-120.67 0 -206 104.01 -206 236c0 166.01 109.01 255.66 216.66 255.66c91.37 0 138.04 -49.36 158.37 -89.36h2zM410.39 201.31v93.7c0 16.34 -1.67 30.68 -5.67 44.02
c-18.68 55.69 -67.04 104.39 -140.42 104.39c-96.06 0 -162.76 -79.71 -162.76 -201.76c0 -103.71 54.03 -192.09 161.09 -192.09c60.7 0 117.07 37.35 139.42 102.06c5.67 15.67 8.34 33.34 8.34 49.68z" />
    <glyph glyph-name="h" unicode="h" horiz-adv-x="542" 
d="M78.36 0v710h60.53v-311.38h2c14 26.34 36.67 51.02 65.01 67.36c26.67 16.34 59.01 26.34 94.69 26.34c51.6 0 166.99 -28.61 166.99 -202.98v-289.34h-60.53v282.02c0 84.03 -32.35 158.74 -125.4 158.74c-64.37 0 -117.41 -46.03 -136.09 -102.07
c-5 -13.34 -6.67 -27.01 -6.67 -45.35v-293.34h-60.53z" />
    <glyph glyph-name="i" unicode="i" horiz-adv-x="217" 
d="M138.89 0h-60.53v481.32h60.53v-481.32zM108.96 664.28c26.3 0 43.28 -20.65 43.28 -46.29c0.33 -24.64 -16.98 -45.29 -45.28 -45.29c-24.97 0 -42.28 20.65 -42.28 45.29c0 24.97 18.98 46.29 44.28 46.29z" />
    <glyph glyph-name="j" unicode="j" horiz-adv-x="223" 
d="M-40.69 -209l-6.99 48.9c41.34 2.33 77.01 14.67 98.68 39.01c24.67 29.34 35.01 67.34 35.01 190.71v411.7h60.53v-444.36c0 -88.64 -10.98 -148.3 -53.31 -192.97c-35.65 -38.33 -96.97 -52.32 -133.92 -52.99zM117.61 664.28c25.3 0 42.28 -21.32 42.28 -46.29
c0.33 -23.64 -15.98 -45.29 -44.95 -45.29c-25.63 0 -42.61 21.65 -42.61 45.29c0 24.97 18.98 46.29 45.28 46.29z" />
    <glyph glyph-name="k" unicode="k" horiz-adv-x="438" 
d="M138.56 710v-456.71h2c12 15.66 31.01 37.33 45.68 53.66l160.09 174.37h73.84l-191.69 -199l218.36 -282.32h-74.17l-186.43 245.4l-47.68 -51.34v-194.06h-60.2v710h60.2z" />
    <glyph glyph-name="l" unicode="l" horiz-adv-x="219" 
d="M78.36 0v710h60.53v-710h-60.53z" />
    <glyph glyph-name="m" unicode="m" horiz-adv-x="823" 
d="M78.36 0v361.04c0 45.98 -1.67 81.62 -4 120.28h54.89l4 -82.69h2.33c29.01 52.03 74.68 93.69 154.01 93.69c66.67 0 117.34 -42.68 137.67 -102.36h2c14.33 28.34 31.99 49.34 50.65 64.34c30.34 24.68 63.01 38.02 112.36 38.02c52.61 0 156.99 -31.28 156.99 -208.66
v-283.66h-59.87v276.68c0 103.05 -39.36 164.41 -118.4 164.41c-56.7 0 -101.73 -41.69 -118.74 -90.05c-4.67 -13.34 -8.34 -29.34 -8.34 -46.01v-305.03h-59.87v296.7c0 83.7 -39.36 144.39 -113.06 144.39c-61.7 0 -108.4 -49.36 -125.08 -101.4
c-5 -13 -7.67 -29.34 -7.67 -45.01v-294.68h-59.87z" />
    <glyph glyph-name="n" unicode="n" horiz-adv-x="542" 
d="M78.36 0v361.04c0 45.98 -1.67 81.62 -4 120.28h55.22l4.33 -84.69h2c25.34 51.36 84.02 95.69 163.35 95.69c52.93 0 168.32 -28.61 168.32 -203.99v-288.33h-60.53v282.35c0 84.03 -32.35 158.41 -126.07 158.41c-64.7 0 -117.74 -45.69 -135.42 -103.4
c-4 -11.67 -6.67 -27.34 -6.67 -42.34v-295.02h-60.53z" />
    <glyph glyph-name="o" unicode="o" horiz-adv-x="537" 
d="M271.3 492.32c134.98 0 226.3 -99.66 226.3 -246.99c0 -179.67 -123.33 -256.33 -233.63 -256.33c-126.31 0 -223.96 96.67 -223.96 247.66c0 164.01 107.34 255.66 231.29 255.66zM269.97 444.41c-116.06 0 -168.43 -105.38 -168.43 -204.75
c0 -115.38 71.72 -202.08 165.76 -202.08c94.72 0 168.44 86.37 168.44 204.75c0 86.02 -47.03 202.08 -165.77 202.08z" />
    <glyph glyph-name="p" unicode="p" horiz-adv-x="557" 
d="M78.36 -198v524.67c0 60.66 -2 109.32 -4 154.65h56.22l4 -88.36h2c34.66 62.35 93 99.36 175.35 99.36c121.02 0 205.67 -101.01 205.67 -243.99c0 -172.66 -103.32 -259.33 -218.66 -259.33c-67.35 0 -126.7 30.01 -158.38 84.71h-2v-271.71h-60.2zM138.56 282.01
v-90.37c0 -13 2 -25.67 4 -37.34c18.68 -69.71 79.05 -115.73 149.42 -115.73c104.39 0 164.42 84.71 164.42 207.1c0 104.37 -57.03 197.42 -160.75 197.42c-66.7 0 -130.74 -47.02 -150.42 -121.73c-3 -12.34 -6.67 -26.68 -6.67 -39.35z" />
    <glyph glyph-name="q" unicode="q" horiz-adv-x="548" 
d="M411.71 -198v278.36h-2.67c-23.99 -48.67 -80 -91.36 -162.69 -91.36c-116.35 0 -206.34 99.34 -206.34 242.99c0 184.35 119.01 260.33 220.34 260.33c80.36 0 131.7 -42.36 154.36 -90.03h2l2.33 79.03h56.87c-2 -37.65 -3.67 -76.97 -3.67 -126.97v-552.35h-60.53z
M411.71 190.97v99.04c0 14.01 -1.67 28.68 -4.67 41.69c-15.68 60.03 -68.04 111.39 -142.08 111.39c-100.38 0 -163.42 -85.04 -163.42 -205.43c0 -103.37 48.68 -198.76 159.75 -198.76c62.36 0 118.06 37.68 142.08 106.72c4.67 13.34 8.34 31.01 8.34 45.35z" />
    <glyph glyph-name="r" unicode="r" horiz-adv-x="305" 
d="M78.36 0v335.01c0 50.97 -1.67 100.64 -4 146.31h54.89l2.33 -96.34h2.66c21.33 61.65 72.32 107.34 136.01 107.34c7.32 0 14.32 -1 20.98 -2.33v-58.21c-7.66 2 -15.32 2.33 -25.31 2.33c-64.68 0 -110.69 -53.7 -123.36 -127.07c-2 -13.34 -4 -28.68 -4 -44.35
v-262.69h-60.2z" />
    <glyph glyph-name="s" unicode="s" horiz-adv-x="380" 
d="M42.35 23l18.65 48.91c26 -16.33 67.31 -33.66 110.64 -33.66c72.04 0 106.06 38.03 106.06 84.73c0 49.37 -29.69 75.72 -97.37 102.4c-81.64 30.33 -123.98 74.98 -123.98 132.98c0 71.97 56.97 133.96 154.27 133.96c45.65 0 84.63 -13.33 110.29 -30l-19.99 -47.25
c-16.99 12 -49.31 28.67 -96.32 28.67c-58.03 0 -89.04 -36.03 -89.04 -77.39c0 -46.7 32.35 -67.38 96.69 -93.39c79.98 -30.66 124.99 -70.65 124.99 -143.32c0 -82.99 -64.66 -139.64 -168.27 -139.64c-48.98 0 -93.96 13 -126.62 33z" />
    <glyph glyph-name="t" unicode="t" horiz-adv-x="316" 
d="M97.02 602.68l60.54 17.64v-139h133.37v-47.57h-133.37v-295.17c0 -60.67 18.34 -98.02 68.68 -98.02c24.34 0 42.01 3.67 53.68 7.34l5.34 -46.57c-16.33 -6.33 -39.98 -11.33 -70.63 -11.33c-36.98 0 -67.3 11.66 -86.29 34.99
c-22.99 25.33 -31.32 66.32 -31.32 117.96v290.8h-79.02v47.57h79.02v121.36z" />
    <glyph glyph-name="u" unicode="u" horiz-adv-x="537" 
d="M459.24 481.32v-359.37c0 -44.64 1.67 -84.62 4 -121.95h-55.22l-3.66 83.02h-2c-23.67 -42.35 -77.35 -94.02 -163.35 -94.02c-65.95 0 -164.32 33.96 -164.32 212v280.32h60.53v-269.34c0 -100.04 31.35 -170.75 121.4 -170.75c66.37 0 114.07 46.36 132.75 91.39
c5 14.34 9.34 32.35 9.34 50.36v298.34h60.53z" />
    <glyph glyph-name="v" unicode="v" horiz-adv-x="461" 
d="M14.34 481.32h65.19l106.39 -289.42c18.01 -46.01 32.35 -86.68 44.36 -126.68h2.33c13.01 40 29.02 81.34 46.36 126.68l107.4 289.42h63.86l-193.35 -481.32h-55.86z" />
    <glyph glyph-name="w" unicode="w" horiz-adv-x="726" 
d="M21.35 481.32h62.53l74.72 -264.09c16.01 -55.34 29.68 -104 39.35 -151.32h3c11.67 45.65 27.67 96.98 46.35 150.99l90.39 264.42h54.57l86.39 -261.43c18.67 -58 33.34 -107.66 45.68 -153.98h2.33c9.34 46.32 23.68 95.31 41.02 152.98l80.39 262.43h61.54
l-158.68 -481.32h-54.54l-84.72 255.12c-19.68 56.68 -35.02 107.36 -47.69 162.35h-2c-13.34 -57.33 -30.35 -109.34 -49.36 -163.35l-90.06 -254.12h-54.54z" />
    <glyph glyph-name="x" unicode="x" horiz-adv-x="440" 
d="M19.35 481.32h68.52l77.71 -112.71c20.01 -27.67 35.68 -52.67 53.02 -81.01h2.33c18.01 29 35.35 54.67 53.36 81.34l77.38 112.38h66.86l-166.34 -234l172.01 -247.32h-69.18l-81.05 117.71c-20.34 29.34 -38.35 57.68 -57.36 88.02h-2
c-17.34 -30.34 -35.68 -57.01 -57.03 -88.02l-79.38 -117.71h-68.19l174.68 245.66z" />
    <glyph glyph-name="y" unicode="y" horiz-adv-x="450" 
d="M10.34 481.32h65.85l119.4 -304.76c12.34 -33.34 25.01 -71.34 33.68 -101.68h2c9.67 29.67 21.01 66.67 35.02 104.35l110.07 302.09h64.86l-140.04 -353.71c-59.65 -154.61 -101.31 -242.29 -163.32 -296.3c-39.65 -33.98 -76.62 -48.31 -91.92 -52.31l-17.31 51.22
c23.34 8.34 54.35 24.35 81.69 50.37c24 21.68 55.34 59.7 78.02 112.74c4 10.34 6.33 16 6.33 21c0 5 -2 11.33 -6 21.66z" />
    <glyph glyph-name="z" unicode="z" horiz-adv-x="411" 
d="M16.66 0v36.26l245.13 322.52c18.99 23.99 37.65 46.32 57.64 70.98v2h-282.1v49.56h356.27l-1 -39.59l-244.14 -320.53c-17.99 -24.32 -35.98 -46.31 -54.63 -69.97v-2h301.76v-49.23h-378.93z" />
    <glyph glyph-name="braceleft" unicode="{" horiz-adv-x="271" 
d="M27.33 267.36v40.28c71.67 -0.67 83.01 39 83.01 76.68c0 29.34 -4.67 57.34 -8.67 86.01c-4.67 28.67 -9.34 56.34 -9.34 85.01c0 91.33 60.67 129.66 142.32 129.66h14.97v-42.94h-18c-64.36 0 -87.04 -33.34 -87.04 -92.7c0 -25.01 4.34 -51.02 8.34 -77.03
c4.67 -25.67 8.34 -51.01 8.34 -78.68c1 -59.31 -26.33 -92.65 -66.64 -103.98v-2c40.31 -11.67 67.64 -47.01 66.64 -106.32c0 -27 -3.67 -53.34 -8.34 -78.68c-4 -26.34 -8.34 -52.02 -8.34 -78.03c0 -61.36 27.02 -93.7 87.04 -93.7h18v-42.94h-14.97
c-79.65 0 -142.32 36 -142.32 137.67c0 27.67 4.67 55.67 9.34 82.67c4 27.67 8.67 54.67 8.67 82.34c0 33.01 -11.34 78.02 -83.01 76.68z" />
    <glyph glyph-name="bar" unicode="|" horiz-adv-x="220" 
d="M85.33 750h50.25v-1000h-50.25v1000z" />
    <glyph glyph-name="braceright" unicode="}" horiz-adv-x="271" 
d="M244.61 307.64v-40.28c-72.34 1.34 -83.68 -43.67 -83.68 -76.68c0 -27.67 4.67 -54.67 9.34 -82.34c4.67 -27 8.67 -55 8.67 -82.67c0 -101.67 -63 -137.67 -142.32 -137.67h-14.97v42.94h17.67c60.02 1.67 87.37 32.34 87.37 93.7c0 26.01 -4 51.69 -8.34 78.03
c-4 25.34 -8.67 51.68 -8.67 78.68c0 59.31 26.66 94.65 66.64 106.32v2c-39.98 11.33 -66.64 44.67 -66.64 103.98c0 27.67 4.67 53.01 8.67 78.68c4.34 26.01 8.34 52.02 8.34 77.03c0 59.36 -23.01 91.7 -87.04 92.7h-18v42.94h14.64
c81.65 0 142.65 -38.33 142.65 -129.66c0 -28.67 -4 -56.34 -8.67 -85.01c-4.67 -28.67 -9.34 -56.67 -9.34 -86.01c0 -37.68 11.34 -77.35 83.68 -76.68z" />
    <glyph glyph-name="asciitilde" unicode="~" horiz-adv-x="596" 
d="M95.94 218.04h-44.93c-4.67 85.93 47.32 136.26 110.96 136.26c39.32 0 69.98 -12.33 142.34 -44.33c53.01 -24 94.7 -43.34 136.39 -43.34c41.36 0 59.7 32.35 60.03 85.34h44.59c5 -98.6 -50.32 -135.59 -107.63 -135.59c-35.31 0 -71.31 9.99 -146.34 42.66
c-49.01 22.33 -89.36 44.67 -130.72 44.67c-40.69 0 -64.03 -28.35 -64.69 -85.67z" />
    <glyph glyph-name="exclamdown" unicode="&#xa1;" horiz-adv-x="214" 
d="M143.23 -198h-70.87l10.65 486.38h49.24zM107.96 485.32c27.63 0 45.94 -21.31 45.94 -50.61c0 -26.96 -18.31 -49.94 -46.94 -49.94c-26.96 0 -46.27 22.98 -45.6 49.94c0 29.3 18.97 50.61 46.6 50.61z" />
    <glyph glyph-name="cent" unicode="&#xa2;" horiz-adv-x="496" 
d="M310.57 -15.34h-47.26v103.01c-64.67 6.66 -106.99 28.99 -142.99 67.32c-34 36.66 -56.67 94.66 -56.67 170.34c0 133.02 81.68 229.01 199.66 245.66v102.68h47.26v-101.35c50.36 0 92.7 -15.01 115.03 -27.01l-18.66 -48.91c-20 12.67 -56.01 28.35 -110.7 28.35
c-106.37 0 -172.73 -90.72 -172.73 -196.76c0 -119.04 72.02 -192.08 167.39 -192.08c59.69 0 96.7 16.01 120.7 27.68l13.99 -44.24c-17.99 -11 -62 -29.01 -115.02 -31.68v-103.01z" />
    <glyph glyph-name="sterling" unicode="&#xa3;" horiz-adv-x="496" 
d="M456.93 0h-398.92v37.27c73.03 38.69 114.67 108.71 114.67 186.39c0 28.02 -1 50.7 -5.67 82.73h-105.01v46.25h99.03c-5.67 32.01 -13.01 75.7 -13.01 118.72c0 115.32 76.31 189.64 177.93 189.64c50.66 0 84.65 -12 104.98 -25l-17.32 -46.57
c-17.33 10 -47 21.34 -91.01 21.34c-81.35 0 -116.7 -57.35 -116.7 -137.73c0 -49.7 6.67 -85.72 12.67 -120.4h146.68v-46.25h-140.69c4.34 -43.36 7.68 -88.06 -1.99 -129.42c-11.67 -50.37 -38.35 -91.06 -77.04 -123.41v-2h311.4v-51.56z" />
    <glyph glyph-name="fraction" unicode="&#x2044;" horiz-adv-x="119" 
d="M-109.04 -11h-45.28l383.69 672h45.61z" />
    <glyph glyph-name="yen" unicode="&#xa5;" horiz-adv-x="496" 
d="M270.56 0h-58.21v184.37h-154.33v40.62h154.33v73.35h-154.33v40.62h134.02l-170.01 311.04h65.19l117.4 -224.76c16.67 -31.99 28 -55.64 39.33 -82.63h3.67c8.66 24.99 22.33 53.31 39.33 85.3l122.74 222.09h63.86l-181.68 -311.04h134.02v-40.62h-155.33v-73.35
h155.33v-40.62h-155.33v-184.37z" />
    <glyph glyph-name="florin" unicode="&#x192;" horiz-adv-x="496" 
d="M110.33 350.73v46.25h102.35l6.67 51.36c13.34 112.4 61.36 212.66 180.28 212.66c27.99 -1 49.98 -7 62.64 -14.33l-13.32 -45.91c-16.34 6 -33.34 10.67 -54.68 10.67c-75.37 0 -107.38 -77.06 -116.05 -159.1l-6 -55.35h127.37v-46.25h-133.36l-25.34 -215.05
c-16 -132.35 -57 -217 -163.95 -217c-29.65 0 -54.97 7 -71.97 16.67l13.32 44.24c18.34 -8.67 37.01 -12.34 59.35 -12.34c67.36 0 93.04 66.39 104.37 163.7l25.01 219.78h-96.69z" />
    <glyph glyph-name="section" unicode="&#xa7;" horiz-adv-x="501" 
d="M117.27 355.02c0 -38.01 25.66 -70.69 113.37 -102.37c53.01 -19.34 88.32 -34.34 112.66 -50.68c27.01 21.35 41.35 52.7 41.35 87.05c0 42.69 -26.01 77.37 -97.71 102.38c-38.66 14.33 -86.98 29.99 -120.32 51.67c-36.69 -27.69 -49.35 -56.04 -49.35 -88.05z
M399.24 648.66l-20.33 -42.93c-23.99 16.67 -63.32 33.34 -115.31 33.34c-59 0 -110.03 -32.35 -110.03 -84.72c0 -60.04 56.7 -80.38 132.37 -106.05c85.97 -29.33 151.61 -65.99 151.61 -151.3c0 -51.33 -22.32 -87.99 -60.98 -120.33
c15.66 -14.67 35.99 -47 35.99 -86.66c0 -97.63 -84.27 -145.98 -177.94 -145.98c-61 0 -112.97 16.01 -144.27 40.66l21.99 42.93c21.32 -17 64.96 -39.66 124.63 -39.66c67.35 0 120.04 33.69 120.04 94.06c0 52.36 -28.33 80.71 -128.7 116.06
c-100.99 36.34 -163.28 72 -163.28 151.97c0 35.32 17.32 77.64 68.98 115.66c-20 15.33 -35.33 47.32 -35.66 79.98c0 83.31 75.97 136.64 170.26 136.64c56 0 101.99 -16.01 130.63 -33.67z" />
    <glyph glyph-name="currency" unicode="&#xa4;" horiz-adv-x="496" 
d="M247.29 527.3c47 0 88.67 -16.67 115.33 -42.01l68.99 70.98l35.29 -35.95l-74.65 -67.65c21.01 -27.67 35.67 -73.02 35.67 -118.34c0 -53.66 -16.33 -98.67 -35 -123.67l70.98 -70.65l-35.62 -35.29l-65.99 72.31c-30.67 -29.67 -77 -43.67 -117 -43.67
c-41.67 0 -87.67 15.67 -113.33 40l-64.99 -68.64l-33.62 35.29l67.31 66.98c-20.67 26.67 -37.67 73.68 -37.67 120c0 51.33 17.33 95.67 40.34 125.68l-70.31 67.65l35.29 35.95l65.65 -71.31c27.33 25.67 70 42.34 113.33 42.34zM245.62 480.38
c-82.04 0 -129.05 -69.7 -129.05 -151.72c0 -105.04 73.7 -148.38 128.05 -148.38c60.69 0 129.72 40.67 129.72 153.05c0 71.68 -41.67 147.05 -128.72 147.05z" />
    <glyph glyph-name="quotesingle" unicode="'" horiz-adv-x="181" 
d="M57.03 685h67.57l-14.32 -227.27h-39.26z" />
    <glyph glyph-name="quotedblleft" unicode="&#x201c;" horiz-adv-x="313" 
d="M106.91 465.74l-68.89 -10c19.65 77.97 62.65 189.99 82.61 223.93l40.59 5.33c-17.98 -47.61 -44.65 -153.96 -54.31 -219.26zM235.48 465.74l-68.56 -10c19.32 77.97 62.65 189.99 82.28 223.93l40.59 5.33c-17.98 -47.61 -44.65 -153.96 -54.31 -219.26z" />
    <glyph glyph-name="guillemotleft" unicode="&#xab;" horiz-adv-x="400" 
d="M225.3 433.32l-139.36 -181.32l140.03 -181.32h-56.93l-139.37 181.32l139.37 181.32h56.26zM377.24 433.32l-140.03 -181.32l140.03 -181.32h-56.93l-138.7 181.32l138.7 181.32h56.93z" />
    <glyph glyph-name="guilsinglleft" unicode="&#x2039;" horiz-adv-x="248" 
d="M225.3 433.32l-139.36 -181.32l140.03 -181.32h-56.93l-139.37 181.32l139.37 181.32h56.26z" />
    <glyph glyph-name="guilsinglright" unicode="&#x203a;" horiz-adv-x="248" 
d="M163.03 252l-140.03 181.32h56.6l140.03 -181.32l-139.7 -181.32h-56.26z" />
    <glyph glyph-name="fi" unicode="&#xfb01;" horiz-adv-x="496" 
d="M143.54 0h-60.2v433.75h-68.67v47.57h68.67v29.35c0 124.65 62.94 210.33 192.91 210.33c42.32 0 91.3 -14.67 114.29 -32.67l-22.99 -46.9c-20.33 15 -57.66 29.34 -98.65 29.34c-97.69 0 -125.36 -75.05 -125.36 -162.77v-26.68h274.97v-481.32h-60.87v433.75h-214.1
v-433.75z" />
    <glyph glyph-name="fl" unicode="&#xfb02;" horiz-adv-x="496" 
d="M143.54 0h-60.2v433.75h-68.67v47.57h68.67v21c0 73.03 21.66 131.69 65.32 172.36c33.98 29.32 79.29 46.32 142.94 46.32c49.3 0 95.6 -11.33 126.91 -27.98v-693.02h-60.2v657.42c-17.01 8 -41.35 14.34 -78.03 14.34c-104.06 0 -136.74 -77.05 -136.74 -163.76
v-26.68h123.72v-47.57h-123.72v-433.75z" />
    <glyph glyph-name="endash" unicode="&#x2013;" horiz-adv-x="500" 
d="M30 276.63h440v-45.26h-440v45.26z" />
    <glyph glyph-name="dagger" unicode="&#x2020;" horiz-adv-x="490" 
d="M215.7 674h59.22l-5.99 -215.02l174.67 4.99v-53.24l-174.67 5.99l5.99 -466.72h-59.22l5.99 466.72l-174.67 -5.99v53.24l174.67 -4.99z" />
    <glyph glyph-name="daggerdbl" unicode="&#x2021;" horiz-adv-x="490" 
d="M216.03 674h58.89l-4.99 -207.03l173.67 5.99v-53.24l-173.67 5.66v-222.76l173.67 5.32v-52.57l-173.67 4.99l4.99 -210.36h-58.89l4.33 210.36l-173.34 -4.99v52.57l173.67 -5.32v222.76l-173.67 -5.66v53.24l173.67 -5.99z" />
    <glyph glyph-name="periodcentered" unicode="&#xb7;" horiz-adv-x="184" 
d="M92.28 214.07c-27.63 0 -47.27 22.31 -46.94 50.27c0 29.3 20.31 50.94 47.27 50.94c28.3 0 46.61 -21.31 46.94 -50.94c0 -27.96 -18.64 -50.27 -47.27 -50.27z" />
    <glyph glyph-name="paragraph" unicode="&#xb6;" horiz-adv-x="499" 
d="M288.98 -50.34h-48.26v314.34h-7.67c-87.71 0 -198.38 64.67 -198.38 193.34c0 102.33 56.67 217.32 266.96 217.32c50.32 0 83.29 -2.33 106.95 -6.99v-718.01h-48.6v678.74h-71v-678.74z" />
    <glyph glyph-name="bullet" unicode="&#x2022;" horiz-adv-x="258" 
d="M129.61 167.72c-51.97 0 -94.28 40.98 -94.28 93.95c-1 52.3 42.31 94.28 94.28 94.28c52.64 0 94.95 -41.98 94.95 -93.95c0 -52.3 -41.98 -94.28 -94.95 -94.28z" />
    <glyph glyph-name="quotesinglbase" unicode="&#x201a;" horiz-adv-x="184" 
d="M63.27 -117.7l-40.93 -5.66c17.65 47.61 44.65 154.29 53.98 219.26l69.56 10c-19.65 -77.97 -62.65 -189.66 -82.61 -223.6z" />
    <glyph glyph-name="quotedblbase" unicode="&#x201e;" horiz-adv-x="313" 
d="M63.27 -117.7l-41.26 -5.66c17.98 47.61 44.65 154.29 54.31 219.26l69.23 10c-19.32 -77.97 -62.65 -189.66 -82.28 -223.6zM191.84 -117.7l-41.26 -5.66c17.98 47.61 44.65 154.29 54.31 219.26l69.56 10c-19.65 -77.97 -62.65 -189.66 -82.61 -223.6z" />
    <glyph glyph-name="quotedblright" unicode="&#x201d;" horiz-adv-x="313" 
d="M92.33 676l68.56 9c-19.65 -77.97 -62.65 -189.66 -82.28 -223.6l-40.59 -5.66c17.65 47.61 44.65 154.96 54.31 220.26zM220.9 676l68.56 9c-19.65 -77.97 -62.65 -189.66 -82.28 -223.6l-40.59 -5.66c17.98 47.61 44.65 154.96 54.31 220.26z" />
    <glyph glyph-name="guillemotright" unicode="&#xbb;" horiz-adv-x="400" 
d="M163.03 252l-140.03 181.32h56.93l139.7 -181.32l-139.7 -181.32h-55.93zM314.64 252l-140.03 181.32h56.26l140.37 -181.32l-139.7 -181.32h-55.93z" />
    <glyph glyph-name="ellipsis" unicode="&#x2026;" horiz-adv-x="1000" 
d="M167 -11c-27.63 0 -47.27 22.98 -46.27 50.94c0 29.63 19.31 50.94 46.94 50.94c27.96 0 46.27 -21.31 46.27 -50.94c0 -27.96 -18.31 -50.94 -46.94 -50.94zM500 -11c-27.63 0 -47.27 22.98 -46.27 50.94c0 29.63 19.64 50.94 47.27 50.94s45.94 -21.31 46.27 -50.94
c0 -27.96 -18.64 -50.94 -47.27 -50.94zM833 -11c-27.63 0 -46.94 22.98 -46.27 50.94c0 29.63 19.64 50.94 47.27 50.94s46.27 -21.31 46.27 -50.94c0 -27.96 -18.31 -50.94 -47.27 -50.94z" />
    <glyph glyph-name="perthousand" unicode="&#x2030;" horiz-adv-x="1103" 
d="M583.53 392c82.29 0 139.95 -64.64 139.95 -194c0 -137.67 -65.97 -204.33 -144.95 -204.33c-74.3 0 -140.28 61.65 -141.95 195c0 137.03 71 203.33 146.95 203.33zM580.53 351.73c-59.02 0 -92.37 -70.36 -92.37 -159.06c-2.34 -89.03 32.68 -158.73 91.7 -158.73
c64.7 0 92.71 70.04 92.71 160.73c0 85.03 -25.01 157.06 -92.04 157.06zM931.45 392c82.29 0 140.95 -64.64 140.95 -194c0 -137.67 -66.64 -204.33 -145.95 -204.33c-73.63 0 -140.28 61.65 -141.28 195c0 137.03 70.33 203.33 146.28 203.33zM928.78 351.73
c-58.35 0 -92.37 -70.36 -92.37 -159.06c-2 -89.03 32.35 -158.73 92.04 -158.73c64.36 0 92.04 70.04 92.04 160.73c0 85.03 -24.68 157.06 -91.71 157.06zM178.29 661c82.29 0 140.28 -64.64 140.28 -194c0 -138.34 -65.97 -205 -145.28 -205
c-74.3 0 -140.28 61.65 -141.95 196c0 136.03 71 203 146.95 203zM175.29 620.73c-59.02 0 -92.04 -71.03 -92.04 -159.06c-2.67 -89.03 32.35 -159.4 91.37 -159.4c64.7 0 92.71 70.71 92.71 161.4c0 85.03 -25.01 157.06 -92.04 157.06zM207.21 -11h-45.28l384.68 672
h45.28z" />
    <glyph glyph-name="questiondown" unicode="&#xbf;" horiz-adv-x="389" 
d="M232.98 486.99c27.96 0 46.27 -21.31 46.27 -50.61c0 -27.63 -18.31 -50.94 -46.94 -50.94c-27.96 0 -46.94 23.31 -46.27 50.94c0 29.3 19.31 50.61 46.94 50.61zM204.37 295.05h55.89l3 -26c7.34 -55.34 -12.33 -115.69 -63.67 -178.37
c-50.36 -60.03 -74.36 -100.38 -74.36 -149.4c0 -58.37 35.02 -96.39 104.38 -96.39c36.34 0 75.67 11.67 102.34 31.67l19.31 -44.57c-32.66 -24.34 -88.32 -40 -133.95 -40c-107.3 0 -156.28 70.33 -156.28 143.65c0 63.98 33.98 111.98 86.33 174.01
c47.02 57.69 63.02 103.04 58.68 156.05z" />
    <glyph glyph-name="grave" unicode="`" 
d="M29.37 689.65h78.91l88.34 -139.65h-45.25z" />
    <glyph glyph-name="acute" unicode="&#xb4;" 
d="M200.39 689.65h78.91l-122 -139.65h-45.58z" />
    <glyph glyph-name="circumflex" unicode="&#x2c6;" 
d="M127.04 689.65h43.58l94.66 -139.65h-54.6l-60.68 98.35h-2l-61.35 -98.35h-51.6z" />
    <glyph glyph-name="tilde" unicode="&#x2dc;" 
d="M72.99 571.02h-37.95c-1.33 56.96 22.99 92.61 62.64 92.61c19.99 0 35.65 -9 60.66 -22.67c16 -8.33 29.33 -15.66 42 -15.66c15.33 0 26 9 28 41.66h37.62c0.33 -56.28 -18.65 -89.61 -62.97 -89.61c-18.99 0 -37.32 9 -57.65 20c-21.34 12 -33.01 18.67 -45.01 18.67
c-16.67 0 -24.67 -18.34 -27.34 -45z" />
    <glyph glyph-name="macron" unicode="&#xaf;" 
d="M43.36 633.62h214.28v-45.61h-214.28v45.61z" />
    <glyph glyph-name="breve" unicode="&#x2d8;" 
d="M32.03 677.98h41.28c6 -40.34 34.35 -72.35 76.69 -72.35c50.35 0 73.69 38.68 76.69 72.35h41.28c0 -70.65 -48.33 -116.63 -117.97 -116.63c-85.99 0 -117.97 62 -117.97 116.63z" />
    <glyph glyph-name="dotaccent" unicode="&#x2d9;" 
d="M147.37 575.36c-25.31 0 -42.29 20.65 -42.29 43.63c0 22.97 18.65 43.96 42.29 43.96c23.31 0 41.63 -20.32 41.63 -43.96c0 -22.98 -16.65 -43.63 -41.63 -43.63z" />
    <glyph glyph-name="dieresis" unicode="&#xa8;" 
d="M62.69 575.36c-25.31 0 -41.62 20.65 -41.62 42.96c0 23.31 18.31 42.96 42.29 42.96c23.31 0 40.29 -19.32 40.29 -42.96c0 -22.31 -15.98 -42.96 -40.96 -42.96zM237.64 575.36c-25.31 0 -41.29 20.65 -41.29 42.96c0 23.31 17.98 42.96 41.96 42.96
c23.31 0 40.29 -19.32 40.29 -42.96c0 -22.31 -15.98 -42.96 -40.96 -42.96z" />
    <glyph glyph-name="ring" unicode="&#x2da;" 
d="M142.67 536.33c-55.31 0 -95.64 39.33 -95.64 88.99c0 50.99 38.33 92.32 96.64 92.32c53.97 0 92.97 -40.33 92.97 -91.99c0 -50.99 -43 -89.32 -93.97 -89.32zM141.67 568.64c32 0 54.01 26.67 54.01 58.01c0 32.68 -22.01 58.35 -54.68 58.35
c-31.67 0 -51.01 -27.34 -51.01 -59.68c0 -28.01 21.34 -56.68 51.68 -56.68z" />
    <glyph glyph-name="cedilla" unicode="&#xb8;" 
d="M142.03 1.33h42.61l-35.01 -54.01c36.33 -5 68.66 -30.33 68.66 -67.66c0 -56.32 -44.98 -78.32 -97.3 -78.32c-20.98 0 -46.98 7 -62.64 16.33l12.99 36.97c15.33 -9.33 34.66 -13.66 54 -13.66c23.34 0 46.35 8.67 45.68 34.01c-1 29.35 -34.35 40.01 -78 44.01z" />
    <glyph glyph-name="hungarumlaut" unicode="&#x2dd;" 
d="M148.46 689.65h71.93l-115.36 -131.64h-42.27zM280.4 689.65h72.6l-115.36 -131.64h-42.27z" />
    <glyph glyph-name="ogonek" unicode="&#x2db;" 
d="M140.42 4.67h46.28c-17.01 -19.67 -64.39 -69.37 -64.39 -111.39c0 -32 21 -48.66 49.33 -48.66c17.33 0 33.33 4 46.67 9.67l9.98 -34.28c-17.32 -13.32 -48.97 -19.65 -70.62 -19.65c-50.64 0 -85.96 27.99 -85.96 77.96c0 50.34 39.35 97 68.71 126.35z" />
    <glyph glyph-name="caron" unicode="&#x2c7;" 
d="M174.96 550h-47.25l-93.99 139.65h53.93l63.02 -98.35h2l62.35 98.35h51.93z" />
    <glyph glyph-name="emdash" unicode="&#x2014;" horiz-adv-x="1000" 
d="M30 276.63h940v-45.26h-940v45.26z" />
    <glyph glyph-name="AE" unicode="&#xc6;" horiz-adv-x="754" 
d="M60.19 0h-62.53l316.71 674h383.81v-50.89h-290.35l28.68 -244.48h249.66v-51.23h-242.01l33.35 -276.51h243.65v-50.89h-295.2l-32.68 260.11h-211.02zM204.56 309.34h182.74l-24.01 206.06c-3.33 32.67 -10 79.69 -12 114.36h-4
c-12.67 -32 -30.01 -70.67 -46.35 -108.68z" />
    <glyph glyph-name="ordfeminine" unicode="&#xaa;" horiz-adv-x="332" 
d="M289.59 266h-45.93l-4.66 45.35h-2c-17.66 -23.33 -53.33 -50.35 -101.67 -50.35c-66.67 0 -101.66 43 -101.66 94.33c0 69.32 69.65 117 201.67 112.66v11.34c0 18.01 -10.67 71.38 -79.36 71.38c-29.99 0 -58.98 -7.66 -83.32 -27l-13.99 34.29
c30.34 23.01 71 33 106.63 33c96.65 0 118.96 -68.67 118.96 -140.67v-106.33c0 -26.33 1.33 -52.66 5.33 -78zM235.67 367.98v63.04c-67.02 2.34 -151.41 -7.99 -151.41 -73.7c0 -37.02 30.35 -57.03 63.36 -57.03c34.69 0 61.03 19.01 75.37 39.35
c8.01 10.67 12.68 22.01 12.68 28.34z" />
    <glyph glyph-name="Lslash" unicode="&#x141;" horiz-adv-x="459" 
d="M439.59 0h-356.91v284.07l-87.35 -66.02v51.92l87.35 65.69v338.34h60.87v-295.76l136.68 101.69v-52.92l-136.68 -101.36v-274.76h296.04v-50.89z" />
    <glyph glyph-name="Oslash" unicode="&#xd8;" horiz-adv-x="676" 
d="M95.25 -32.95l-35.6 28.28l64.68 88.67c-54.66 60 -86.99 146.99 -86.99 248.33c0 219.03 136.34 352.67 304.97 352.67c64.01 0 125.36 -20.01 175.37 -60.37l61.01 81l38.93 -26.62l-64.01 -86.67c53.99 -60.33 85.66 -147.66 85.66 -248.67
c0 -241.03 -148.35 -354.67 -299.3 -354.67c-68.02 0 -131.04 21.68 -181.05 62.71zM160.59 135.22l325.48 444.17c-38.69 34.36 -87.39 55.71 -146.1 55.71c-162.41 0 -240.43 -152.75 -240.43 -297.1c0 -86.39 24.02 -147.76 59.38 -203.78zM516.35 540.46
l-325.82 -443.51c39.03 -37.03 82.72 -58.05 147.44 -58.05c155.07 0 239.1 143.74 239.1 301.77c0 65.04 -14.68 134.75 -57.72 199.79h-3z" />
    <glyph glyph-name="OE" unicode="&#x152;" horiz-adv-x="876" 
d="M840.25 50.89v-50.89h-329.59c-20.67 0 -44.01 -3 -68.01 -6c-25.67 -2 -52.34 -5 -83.67 -5c-200.29 0 -321.64 145.98 -321.64 343.67c0 224.01 137.33 352.33 327.98 352.33c34.33 0 61.66 -2.33 86.66 -5c25 -3 46 -5.33 64.67 -6h307.93v-50.89h-282.36v-243.82
h266.36v-51.56h-266.36v-276.84h298.03zM481.02 53.57v566.2c-28.68 8.33 -63.36 15 -117.39 15c-169.76 0 -263.1 -127.07 -262.77 -298.77c-0.33 -177.4 100.04 -296.77 270.1 -296.77c42.36 0 85.38 5.67 110.06 14.34z" />
    <glyph glyph-name="ordmasculine" unicode="&#xba;" horiz-adv-x="342" 
d="M172.3 591c94.99 0 154.65 -69 154.65 -163c-1 -116.34 -83 -167 -155.98 -167c-86.99 0 -154.98 64 -154.98 162c0 105.34 77.01 168 156.31 168zM170.97 551.05c-71.37 0 -104.73 -66.69 -104.73 -126.05c0 -73.37 51.04 -124.05 105.06 -124.05
c59.7 0 105.4 49.35 105.4 125.05c0 53.35 -29.68 125.05 -105.73 125.05z" />
    <glyph glyph-name="ae" unicode="&#xe6;" horiz-adv-x="760" 
d="M719.26 245.06h-330.7c-5.01 -136.44 67.02 -206.15 164.05 -206.15c69.01 0 107.68 17.01 129.32 28l13.99 -45.25c-31.63 -17.65 -84.95 -32.66 -149.62 -32.66c-83.34 0 -157.34 41.68 -182.66 115.71h-2c-27.65 -73.7 -97 -115.71 -179.33 -115.71
c-98.32 0 -143.63 67.33 -143.63 131.3c0 109.32 98.64 176.33 292.67 173.66v22.01c0 28.02 -13.66 128.1 -120.37 128.1c-43.99 0 -92.99 -15.66 -121.99 -36.33l-16.98 41.92c46.35 30.35 104.34 42.66 142.29 42.66c90.35 0 138.01 -45.02 153.99 -111.71h2
c30.32 68.69 90.99 111.71 169.67 111.71c149.34 0 181.63 -150.37 181.63 -214.29c0 -12.99 -0.33 -24.64 -2.33 -32.97zM331.68 169.32v79.04c-97.02 2.67 -232.13 -11.32 -232.13 -122.4c0 -56.36 42.02 -88.71 93.38 -88.71c73.72 -0.67 119.08 44.36 133.75 95.73
c4 11.67 5 24.34 5 36.34zM388.9 291.98h271.81c3 55.7 -29.36 153.42 -126.4 153.42c-97.05 0 -141.74 -90.38 -145.41 -153.42z" />
    <glyph glyph-name="dotlessi" unicode="&#x131;" horiz-adv-x="217" 
d="M138.89 0h-60.53v481.32h60.53v-481.32z" />
    <glyph glyph-name="lslash" unicode="&#x142;" horiz-adv-x="223" 
d="M142.22 0h-61.2v312.79l-69.34 -61.35v52.92l69.34 61.68v343.96h61.2v-295.05l71 62.34v-53.92l-71 -62.34v-361.03z" />
    <glyph glyph-name="oslash" unicode="&#xf8;" horiz-adv-x="537" 
d="M270.64 492.32c44 0 88.34 -12.67 125.01 -37.68l39.99 56.65l33.64 -22.98l-41.33 -60.66c44.99 -45 69.65 -109.33 69.65 -182.32c0 -178.67 -120.99 -256.33 -228.63 -256.33c-46.34 0 -91.01 12.34 -126.68 37.35l-41.66 -56.98l-30.97 26.65l41.33 57.32
c-44.32 44 -70.98 107.33 -70.98 183.65c0 163.68 106.67 255.33 230.63 255.33zM144.92 100.24l221.45 310.48c-25.35 21.35 -58.04 33.69 -97.73 33.69c-120.06 0 -168.42 -109.38 -168.42 -204.75c0 -48.7 13.01 -98.06 42.7 -139.09zM393.02 379.09l-220.78 -309.49
c27.02 -22.68 58.37 -32.02 93.06 -32.02c101.38 0 171.76 87.71 171.76 205.42c0 37.02 -10.01 91.39 -42.04 135.42z" />
    <glyph glyph-name="oe" unicode="&#x153;" horiz-adv-x="860" 
d="M819.31 239.06h-336.37c-1.01 -130.77 71.01 -199.82 171.72 -199.82c60.67 0 97.67 14.34 127.32 27.67l14.66 -46.25c-33.64 -18.65 -92.61 -31.66 -148.96 -31.66c-88.69 0 -159.7 40.36 -195.69 126.06h-2.33c-33.32 -86.71 -113.34 -126.06 -189.01 -126.06
c-126.66 0 -220.64 97.67 -220.64 247.99c0 159.01 101.33 255.33 224.63 255.33c87.36 0 159.03 -46.69 187.69 -127.39h2c35.33 85.04 101.67 127.39 179.35 127.39c155 0 187.96 -147.7 187.96 -218.96c0 -14.99 -0.33 -26.64 -2.33 -34.3zM263.63 444.41
c-118.73 0 -162.09 -115.72 -162.09 -204.75c0 -114.38 70.72 -202.08 162.09 -202.08c95.05 0 161.43 82.7 161.43 203.08c0 98.03 -48.03 203.75 -161.43 203.75zM482.94 285.31h277.15c1.67 62.04 -26.02 159.76 -131.4 159.76c-97.72 0 -138.74 -90.05 -145.75 -159.76z
" />
    <glyph glyph-name="germandbls" unicode="&#xdf;" horiz-adv-x="526" 
d="M138.89 0h-60.53v460.71c0 114 26.33 175.99 68.99 214.65c34.65 31.32 77.96 45.64 132.26 45.64c84.28 0 162.59 -54.64 162.59 -162.3c0 -36.34 -12.67 -66.67 -22.33 -82c-47.01 -19 -77.36 -47.67 -77.36 -85.69c0 -39.36 23.35 -61.03 57.7 -95.04
c42.01 -42.01 81.67 -82.67 81.67 -152.66c0 -91.32 -65.99 -154.31 -169.62 -154.31c-37.67 0 -76.33 7.34 -106 23.01l14.66 48.24c29.35 -14.34 58.69 -22.01 90.7 -22.01c72.71 0 110.73 44.03 110.73 97.4c0 48.7 -21.35 80.72 -62.04 117.07
c-45.35 42.01 -77.33 77.67 -77.33 129.65c0 51.67 32.67 93.66 92.35 122.33c5 12 8.33 28.01 8.33 46.35c0 78.38 -46.69 120.39 -114.05 120.39c-85.71 0 -130.72 -60.03 -130.72 -210.74v-460.69z" />
    <glyph glyph-name="onesuperior" unicode="&#xb9;" horiz-adv-x="221" 
d="M152.88 443h-49.9v342.07h-2l-69.32 -34l-8.99 39.27l85.96 42.66h44.25v-390z" />
    <glyph glyph-name="logicalnot" unicode="&#xac;" horiz-adv-x="596" 
d="M40 389.62h516v-262.59h-49.93v215.99h-466.07v46.6z" />
    <glyph glyph-name="mu" unicode="&#xb5;" horiz-adv-x="540" 
d="M407.69 78.35h-3c-22.01 -38.67 -71.02 -88.02 -146.37 -88.02c-51.37 0 -98.4 18.01 -121.41 63.05v-67.37c0 -53.67 1 -142.67 11 -184.01h-55.55c-10.67 32.68 -14 99.66 -14 178.67v500.65h60.2v-290.69c0 -79.02 34.01 -149.73 123.74 -149.73
c65.37 0 112.06 46.69 130.74 91.72c5 14.34 9.34 32.35 9.34 50.36v298.34h60.2v-359.04c0 -57.69 9.66 -82.04 48.01 -84.71l-6.33 -46.58c-10 -1.66 -9.97 -1.99 -20.62 -1.99c-36.3 0 -71.3 22.66 -75.95 89.35z" />
    <glyph glyph-name="trademark" unicode="&#x2122;" horiz-adv-x="606" 
d="M32.01 674h222.64v-35.62h-90.35v-236.38h-41.94v236.38h-90.35v35.62zM592.6 402h-43.28l-12.01 176.75c-1 17.65 -1.67 39.63 -2.67 63.94h-2.33c-7 -18.64 -15 -47.96 -22.33 -70.28l-58.38 -166.41h-45.95l-59.05 171.08c-5 18.32 -14.34 46.3 -19.67 65.61h-2.33
c0 -20.31 -1 -41.62 -2 -63.94l-12.01 -176.75h-41.28l21.34 272h62.24l58.39 -160.47c7.34 -20.33 12.34 -39.66 18.67 -60.96h1.67c6.33 20.98 13 43.31 17.66 59.29l58.39 162.14h61.92z" />
    <glyph glyph-name="Eth" unicode="&#xd0;" horiz-adv-x="657" 
d="M-3.34 317.05v49.23h87.02v300.72c51.66 9 111.31 15 176.29 15c123.33 0 215.34 -32.35 272.33 -90.03c55.98 -55.67 87.63 -131.99 87.63 -238.97c0 -102.96 -29.31 -192.63 -90.97 -258.31c-60.99 -64.34 -163.31 -101.02 -293.31 -101.02
c-55.63 0 -105.29 1.33 -151.97 6.33v317.05h-87.02zM343.31 366.28v-49.23h-199.43v-268.81c26.02 -3.67 62.71 -4.67 101.74 -4.67c206.76 0 311.45 115.06 311.45 309.77c1 167.7 -92.35 278.76 -297.79 278.76c-49.69 0 -88.38 -4.67 -115.4 -10.34v-255.48h199.43z" />
    <glyph glyph-name="onehalf" unicode="&#xbd;" horiz-adv-x="729" 
d="M161.89 266h-50.57v343.07h-2l-68.65 -35l-9.66 39.94l85.63 41.99h45.25v-390zM151.55 -11h-45.28l383.69 672h45.61zM421.91 0v28.96l63.67 60.34c85.01 79.02 129.35 131.38 129.35 185.06c0 42.02 -24.67 78.71 -82.7 78.71c-36.34 0 -65.67 -19.34 -83.33 -32.34
l-16.98 32.94c24.32 22.33 65.97 41.33 112.62 41.33c92.32 0 124.29 -61.68 124.29 -109.65c0 -76.34 -57.67 -135.36 -140.37 -209.73l-33.68 -31.35v-2h181.05v-42.27h-253.92z" />
    <glyph glyph-name="plusminus" unicode="&#xb1;" horiz-adv-x="596" 
d="M273.37 568.65h49.93v-203.04h232.7v-46.6h-232.7v-210.05h-49.93v210.05h-233.37v46.6h233.37v203.04zM40 46.6h516v-46.6h-516v46.6z" />
    <glyph glyph-name="Thorn" unicode="&#xde;" horiz-adv-x="510" 
d="M80.02 0v674h59.2v-136.02c31.02 6.34 68.04 8.67 101.36 8.67c79.67 0 137 -19.67 175.32 -55c32.32 -31.66 51.65 -74.98 51.65 -124.3c0 -132.62 -101.64 -206.3 -248.98 -206.3c-26.66 0 -55.67 1.33 -79.35 5v-166.05h-59.2zM139.22 488.41v-270.79
c26.35 -5.67 54.36 -6.67 81.03 -6.67c118.72 0 186.43 56.02 186.43 148.74c0 96.38 -70.71 137.39 -170.08 137.39c-42.68 0 -79.37 -4 -97.38 -8.67z" />
    <glyph glyph-name="onequarter" unicode="&#xbc;" horiz-adv-x="729" 
d="M177.23 266h-50.57v343.07h-2l-68.65 -35l-9.66 39.94l85.96 41.99h44.92v-390zM169.21 -11h-45.28l384.02 672h45.28zM631.17 0h-50.58v107.69h-188.33v31.29l182.69 252.35h56.22v-244.02h57.01v-39.62h-57.01v-107.69zM580.59 147.31v135.42
c0 21.33 1.33 40.99 2.33 58.31l-2 0.67c-12 -22.33 -21.33 -38.32 -32.66 -55.65l-100.74 -137.42v-1.33h133.07z" />
    <glyph glyph-name="divide" unicode="&#xf7;" horiz-adv-x="596" 
d="M298 394.37c-26.64 0 -44.96 21.32 -44.29 47.63c0 27.64 18.65 47.96 45.29 47.96c26.31 0 43.96 -20.32 43.96 -47.96c0 -26.31 -17.32 -47.63 -44.96 -47.63zM556 243.7h-516v46.6h516v-46.6zM298 44.04c-26.64 0 -44.96 21.32 -44.29 47.63
c0 27.64 18.65 47.96 45.29 47.96c26.31 0 43.96 -20.32 43.96 -47.96c0 -26.31 -17.32 -47.63 -44.96 -47.63z" />
    <glyph glyph-name="brokenbar" unicode="&#xa6;" horiz-adv-x="220" 
d="M85.33 174h50.25v-350h-50.25v350zM85.33 674h50.25v-350h-50.25v350z" />
    <glyph glyph-name="degree" unicode="&#xb0;" horiz-adv-x="301" 
d="M155.3 685c78.65 0 123.96 -59.32 123.96 -123.3c0 -78.32 -62.99 -128.64 -126.63 -128.64c-73.98 0 -122.96 56.99 -122.96 122.3c-0.33 74.32 55.65 129.64 125.63 129.64zM153.63 647.38c-55.35 0 -80.68 -48.35 -80.68 -91.35c0 -47.34 35.34 -84.68 80.68 -84.68
c47.01 0 81.68 37.67 81.68 88.68c0 36.33 -20.66 87.35 -81.68 87.35z" />
    <glyph glyph-name="thorn" unicode="&#xfe;" horiz-adv-x="557" 
d="M78.36 710h60.2v-311.71h2c33.67 57.02 89.35 94.03 172.37 94.03c118.02 0.33 204.67 -99.68 204.67 -244.32c0 -175.66 -107.32 -259 -220 -259c-66.01 0 -123.36 29.34 -157.04 84.04h-2v-271.04h-60.2v908zM138.56 278.66v-91.01c0 -14 2.66 -30.33 7.99 -43.33
c20.34 -65.72 80.05 -105.75 148.77 -105.75c95.71 0 161.08 80.37 161.08 208.43c0 104.04 -59.03 196.09 -160.42 196.09c-63.37 0 -125.08 -43.7 -148.09 -112.08c-4.33 -15.34 -9.33 -35.01 -9.33 -52.35z" />
    <glyph glyph-name="threequarters" unicode="&#xbe;" horiz-adv-x="729" 
d="M67.34 593.72l-15.66 36.28c20.99 14.33 59.3 31 104.28 31c81.98 0 113.29 -46 113.29 -91.99c0 -38.66 -26.99 -73.33 -73.99 -90.67v-2c54 -8.67 90.66 -48.01 90.66 -99.01c0 -58.65 -49.64 -116.33 -148.29 -116.33c-45.65 0 -85.97 13.67 -106.29 28l15.99 37.94
c13.99 -10.33 52.32 -26 90.99 -26c70.04 0 95.37 43.37 94.7 76.38c-1 57.37 -58.02 78.71 -114.04 78.71h-25.99v37.29h27.33c38.34 0 96.36 19.68 96.36 72.04c0 26.68 -19.34 55.7 -67.02 55.7c-36.67 0 -68.33 -16.34 -82.32 -27.34zM208.22 -11h-45.28l384.02 672
h45.28zM641.84 0h-50.25v107.69h-187.66v31.29l182.36 252.35h55.55v-244.02h57.34v-39.62h-57.34v-107.69zM591.59 147.31v135.42c0 21.33 2 40.99 3 58.31l-2 0.67c-12 -22.33 -21.33 -38.32 -33.33 -55.65l-100.4 -137.42l0.33 -1.33h132.4z" />
    <glyph glyph-name="twosuperior" unicode="&#xb2;" horiz-adv-x="294" 
d="M10.66 443v28.96l63.67 59.34c85.68 79.35 130.02 131.71 130.02 186.06c0 42.02 -24.67 77.71 -83.37 77.71c-35.67 0 -65.67 -19.01 -82.66 -31.67l-16.98 32.6c23.65 22 65.97 42 111.95 42c91.99 0 124.96 -62.68 124.96 -109.65
c0 -77.34 -58.34 -136.36 -140.37 -209.73l-33.68 -32.02v-2h180.38v-41.6h-253.92z" />
    <glyph glyph-name="registered" unicode="&#xae;" horiz-adv-x="402" 
d="M173.95 505.69v-68.68h-33.31v166.01c16.34 3 35.33 5 59.65 5c28.99 0 42.99 -5 54.32 -12.67c9.67 -7 16.67 -20 16.67 -35.33c0 -20.01 -14.67 -33.34 -33.33 -39.34v-2c15.33 -6 23.66 -18.67 28.66 -40c5 -25.67 8 -35.67 12 -41.67h-34.97c-5 6 -8.67 21 -13 42.68
c-3.67 18 -14.34 26 -37.35 26h-19.34zM174.28 581.03v-50.35h20.01c22.34 0 41.35 7 41.35 26.01c0 15.67 -10.33 26.34 -38.35 26.34c-11.34 0 -18.34 -1 -23.01 -2zM201.96 685c92.32 0 163.98 -70.99 163.98 -160.65c0 -91.66 -71.66 -162.65 -163.98 -162.65
c-91.99 0 -164.98 70.99 -164.98 162.65c0 89.66 72.99 160.65 164.98 160.65zM201.96 655.35c-73 0 -127.67 -59 -127.67 -131c0 -73.67 54.67 -131.67 128.67 -131.67c72 0 125 58 125 130.67c0 73 -53 132 -126 132z" />
    <glyph glyph-name="minus" unicode="&#x2212;" horiz-adv-x="596" 
d="M40 290.3h516v-46.6h-516v46.6z" />
    <glyph glyph-name="eth" unicode="&#xf0;" horiz-adv-x="527" 
d="M258.96 37.58c98.72 0 163.43 86.04 163.43 205.42c0 68.36 -9.67 111.04 -38.69 146.06c-24.01 27.68 -61.7 53.7 -120.74 53.7c-115.39 0 -161.42 -117.72 -161.42 -205.76c0 -112.72 69.72 -199.42 157.42 -199.42zM120.02 519.06l-15.65 36.3l120.02 58.35
c-30 23.34 -69.68 45.35 -108.69 64.69l27.28 42.27c45.99 -22.67 93.98 -50.67 133.63 -81l123.98 61l17.65 -37.3l-106 -52.01c56.34 -47.01 100.34 -102.35 130.01 -162.35c27 -56.67 42.67 -121.34 42.67 -198.02c0.33 -185.33 -115.32 -261.99 -225.96 -261.99
c-125.64 0 -218.95 96.67 -218.95 246.33c0 161.69 110 253.36 219.64 253.36c43.7 0 85.73 -9.01 129.76 -52.38l2 3c-30.34 54.03 -72.36 102.39 -130.06 147.09z" />
    <glyph glyph-name="multiply" unicode="&#xd7;" horiz-adv-x="596" 
d="M40 491.38l34.62 34.62l223.38 -227.71l223.38 227.71l34.62 -34.62l-223.71 -228.38l223.71 -228.38l-35.29 -34.62l-222.71 227.71l-223.38 -227.71l-34.62 34.62l223.38 228.38z" />
    <glyph glyph-name="threesuperior" unicode="&#xb3;" horiz-adv-x="287" 
d="M44.33 769.72l-15.66 36.95c21.66 13.66 59.97 31.33 104.95 31.33c81.98 0 113.29 -46.67 113.29 -92.99c0 -38.66 -27.66 -73 -74.32 -90.67v-2c54.33 -7.67 90.99 -48.01 90.99 -98.01c0 -58.65 -49.97 -116.33 -148.62 -116.33c-45.99 0 -86.64 12.67 -106.63 27
l16.66 38.61c13.99 -10 52.32 -26 90.99 -26c69.71 0 94.7 43.37 93.7 76.38c0 57.7 -57.69 79.04 -114.04 79.04h-25.66v36.62h27.33c38.34 0 96.03 19.68 97.03 72.38c0 26.34 -19.34 56.03 -67.69 56.03c-36 0 -67.66 -17.34 -82.32 -28.34z" />
    <glyph glyph-name="copyright" unicode="&#xa9;" horiz-adv-x="677" 
d="M340 648c169 0 299.66 -138 299.66 -308c0 -172 -130.66 -310 -299.66 -310c-170 0 -301.99 138 -301.99 310c0 170 131.99 308 301.99 308zM340 613.03c-147.35 0 -258.69 -119.34 -258.69 -276.7c0 -153.02 111.34 -271.36 258.69 -271.36
c144.35 0 255.69 118.34 255.69 275.03c0 153.69 -111.34 273.03 -255.69 273.03zM474 493.67l-10.66 -33.64c-13.67 7.67 -49.33 23.67 -98.34 23.67c-100.03 0 -146.03 -65.36 -146.03 -146.7c0 -80.68 49 -147.7 147.7 -147.7c40.67 0 78.67 11 102.34 26.67
l10.66 -31.97c-35 -23.67 -81.67 -31 -123 -31c-115.33 0 -182.33 80 -182.33 181c0 113.33 89.33 186 189.66 186c53.34 0 96.33 -15 110 -26.33z" />
    <glyph glyph-name="Aacute" unicode="&#xc1;" horiz-adv-x="593" 
d="M427.35 228.08h-257.76l-78.71 -228.08h-62.53l239.05 674h65.47l238.71 -674h-63.52zM185.58 277.32h225.78l-76.72 214.77c-15.67 46.01 -25 81.99 -35 120.32h-2c-10 -39.33 -21 -76.31 -34.67 -118.65zM352.02 824.32h83.89l-129.01 -114.32h-50.56z" />
    <glyph glyph-name="Acircumflex" unicode="&#xc2;" horiz-adv-x="593" 
d="M427.35 228.08h-257.76l-78.71 -228.08h-62.53l239.05 674h65.47l238.71 -674h-63.52zM185.58 277.32h225.78l-76.72 214.77c-15.67 46.01 -25 81.99 -35 120.32h-2c-10 -39.33 -21 -76.31 -34.67 -118.65zM278.68 820.65h47.57l106.34 -110.65h-59.93l-69.03 72.35h-2
l-69.36 -72.35h-56.93z" />
    <glyph glyph-name="Adieresis" unicode="&#xc4;" horiz-adv-x="593" 
d="M427.35 228.08h-257.76l-78.71 -228.08h-62.53l239.05 674h65.47l238.71 -674h-63.52zM185.58 277.32h225.78l-76.72 214.77c-15.67 46.01 -25 81.99 -35 120.32h-2c-10 -39.33 -21 -76.31 -34.67 -118.65zM212.31 721.68c-24.98 0 -40.29 20.32 -40.29 43.63
c0 23.31 17.65 43.3 41.29 43.3c23.65 0 40.3 -19.32 40.3 -43.3c0 -23.31 -14.98 -43.63 -41.3 -43.63zM388.6 721.68c-24.98 0 -39.96 20.32 -39.96 43.63c0 23.31 17.65 43.3 40.96 43.3c23.98 0 40.63 -19.32 40.63 -43.3c0 -23.31 -14.98 -43.63 -41.63 -43.63z" />
    <glyph glyph-name="Agrave" unicode="&#xc0;" horiz-adv-x="593" 
d="M427.35 228.08h-257.76l-78.71 -228.08h-62.53l239.05 674h65.47l238.71 -674h-63.52zM185.58 277.32h225.78l-76.72 214.77c-15.67 46.01 -25 81.99 -35 120.32h-2c-10 -39.33 -21 -76.31 -34.67 -118.65zM163.35 824.32h84.89l95.35 -113.99h-50.23z" />
    <glyph glyph-name="Aring" unicode="&#xc5;" horiz-adv-x="593" 
d="M427.35 228.08h-257.76l-78.71 -228.08h-62.53l239.05 674h65.47l238.71 -674h-63.52zM185.58 277.32h225.78l-76.72 214.77c-15.67 46.01 -25 81.99 -35 120.32h-2c-10 -39.33 -21 -76.31 -34.67 -118.65zM300.63 870.63c55.64 0 92.97 -38.66 92.97 -87.32
c0 -47.99 -40.33 -84.98 -92.97 -84.98c-54.97 0 -93.3 37.99 -93.3 84.65c0 47.99 37.33 87.65 93.3 87.65zM299.63 839.99c-31 0 -49.34 -26.67 -49.34 -57.01c0 -27.01 20.34 -53.68 49.34 -53.68c29.67 0 50.01 24.67 50.01 55.68c0 30.34 -20.34 55.01 -50.01 55.01z
" />
    <glyph glyph-name="Atilde" unicode="&#xc3;" horiz-adv-x="593" 
d="M427.35 228.08h-257.76l-78.71 -228.08h-62.53l239.05 674h65.47l238.71 -674h-63.52zM185.58 277.32h225.78l-76.72 214.77c-15.67 46.01 -25 81.99 -35 120.32h-2c-10 -39.33 -21 -76.31 -34.67 -118.65zM220.61 715.67h-37.62c-1 50.95 22.99 91.28 63.98 91.28
c20.66 0 35.65 -8.33 57.99 -20.67c16 -8.33 32.67 -17.33 49.01 -17.33c15.33 0 25 6.33 27 37.66h37.62c0.33 -51.61 -18.99 -85.61 -62.64 -85.61c-18.99 0 -36.32 7.33 -59.66 19.67c-19.67 10 -34.01 19 -49.01 19c-17.34 0 -23.67 -18.34 -26.67 -44z" />
    <glyph glyph-name="Ccedilla" unicode="&#xc7;" horiz-adv-x="573" 
d="M328.72 -8l-43.3398 -73c43.6504 -4 77 -14.6602 78 -44.0098c0.669922 -25.3398 -22.3398 -34.0098 -45.6797 -34.0098c-19.3398 0 -38.6699 4.3291 -54 13.6592l-12.9902 -36.9697c15.6602 -9.33008 41.6602 -16.3301 62.6396 -16.3301
c52.3203 0 97.3008 22 97.3008 78.3203c0 37.3301 -32.3301 62.6602 -68.6602 67.6602l28.0098 42.6797c82 0 140 18 172 34l-17 47c-35 -17 -93 -29 -155 -29c-164 0 -270 114 -270 292c0 200 122 300 288 300c56 0 101 -14 134 -30l18 51c-23 12 -68 30 -152 30
c-209 0 -352 -143 -352 -354c0 -201 121 -325 292.72 -339z" />
    <glyph glyph-name="Eacute" unicode="&#xc9;" horiz-adv-x="474" 
d="M407.58 379.29v-50.56h-267.36v-277.84h298.7v-50.89h-358.9v674h343.23v-50.89h-283.03v-243.82h267.36zM307.36 824.32h83.89l-129.01 -114.32h-51.23z" />
    <glyph glyph-name="Ecircumflex" unicode="&#xca;" horiz-adv-x="474" 
d="M407.58 379.29v-50.56h-267.36v-277.84h298.7v-50.89h-358.9v674h343.23v-50.89h-283.03v-243.82h267.36zM223.67 820.65h47.57l106.34 -110.65h-59.93l-69.36 72.35h-2l-69.03 -72.35h-57.26z" />
    <glyph glyph-name="Edieresis" unicode="&#xcb;" horiz-adv-x="474" 
d="M407.58 379.29v-50.56h-267.36v-277.84h298.7v-50.89h-358.9v674h343.23v-50.89h-283.03v-243.82h267.36zM160.32 724.35c-25.31 0 -41.29 19.65 -41.29 43.63c0 22.98 17.98 42.63 41.96 42.63c23.98 0 39.96 -19.32 39.96 -42.63c0 -23.98 -14.98 -43.63 -40.63 -43.63
zM336.61 724.35c-24.98 0 -40.96 19.65 -40.96 43.63c0 22.98 17.65 42.63 41.63 42.63c24.31 0 40.29 -19.32 40.29 -42.63c0 -23.98 -14.98 -43.63 -40.96 -43.63z" />
    <glyph glyph-name="Egrave" unicode="&#xc8;" horiz-adv-x="474" 
d="M407.58 379.29v-50.56h-267.36v-277.84h298.7v-50.89h-358.9v674h343.23v-50.89h-283.03v-243.82h267.36zM122.35 824.32h83.89l96.35 -113.99h-50.56z" />
    <glyph glyph-name="Iacute" unicode="&#xcd;" horiz-adv-x="220" 
d="M80.02 674h60.2v-674h-60.2v674zM162.35 824.32h84.22l-130.01 -114.32h-50.23z" />
    <glyph glyph-name="Icircumflex" unicode="&#xce;" horiz-adv-x="220" 
d="M80.02 674h60.2v-674h-60.2v674zM85.67 820.65h47.57l106.34 -110.65h-59.6l-69.36 72.35h-2l-69.36 -72.35h-56.93z" />
    <glyph glyph-name="Idieresis" unicode="&#xcf;" horiz-adv-x="220" 
d="M80.02 674h60.2v-674h-60.2v674zM22.64 724.35c-25.31 0 -41.29 19.65 -41.29 43.63c0 22.98 17.98 42.63 41.96 42.63s40.63 -19.32 40.63 -42.63c0 -23.98 -15.65 -43.63 -41.3 -43.63zM198.93 724.35c-24.98 0 -40.96 19.65 -40.96 43.63
c0 22.98 17.65 42.63 41.96 42.63c23.98 0 40.63 -19.32 40.63 -42.63c0 -23.98 -15.65 -43.63 -41.63 -43.63z" />
    <glyph glyph-name="Igrave" unicode="&#xcc;" horiz-adv-x="220" 
d="M80.02 674h60.2v-674h-60.2v674zM-24.33 824.32h84.56l95.35 -113.99h-50.23z" />
    <glyph glyph-name="Ntilde" unicode="&#xd1;" horiz-adv-x="644" 
d="M137.9 0h-57.88v674h61.5l247.49 -379.19c52.68 -82.35 91.68 -147.99 124.35 -214.31l2 1c-7.33 90.67 -8.66 169.32 -8.66 274.99v317.51h58.55v-674h-59.19l-242.81 375.5c-49.01 77.01 -94.68 149.99 -129.35 220.31l-2.33 -1c5 -83.66 6.33 -159.3 6.33 -271.3
v-323.51zM248.29 715.67h-37.62c-1.33 50.95 22.66 91.28 64.65 91.28c19.99 0 35.32 -8.33 56.99 -20.67c16 -8.33 32.67 -17.33 49.34 -17.33c15 0 25.34 6.33 27.67 37.66h36.62c0.33 -51.61 -18.32 -85.61 -62.31 -85.61c-18.99 0 -35.65 7.33 -59.66 19.67
c-19 10 -33.67 19 -48.34 19c-17.34 0 -24.67 -18.34 -27.34 -44z" />
    <glyph glyph-name="Oacute" unicode="&#xd3;" horiz-adv-x="676" 
d="M342.97 685c174.62 0 296.3 -134.97 296.3 -341c0 -236.02 -143.68 -355 -304.96 -355c-169.96 0 -296.97 133.31 -296.97 341.33c0 218.69 133 354.67 305.63 354.67zM339.64 634.77c-162.09 0 -238.78 -148.41 -238.78 -302.44c0 -149.36 84.7 -293.1 237.11 -293.1
c152.74 0 238.11 139.06 238.11 301.44c0 139.36 -75.36 294.1 -236.44 294.1zM388.02 826.99h84.56l-129.68 -113.32h-50.56z" />
    <glyph glyph-name="Ocircumflex" unicode="&#xd4;" horiz-adv-x="676" 
d="M342.97 685c174.62 0 296.3 -134.97 296.3 -341c0 -236.02 -143.68 -355 -304.96 -355c-169.96 0 -296.97 133.31 -296.97 341.33c0 218.69 133 354.67 305.63 354.67zM339.64 634.77c-162.09 0 -238.78 -148.41 -238.78 -302.44c0 -149.36 84.7 -293.1 237.11 -293.1
c152.74 0 238.11 139.06 238.11 301.44c0 139.36 -75.36 294.1 -236.44 294.1zM313.35 824.32h47.57l106.34 -110.65h-59.93l-69.36 71.68h-2l-69.03 -71.68h-57.26z" />
    <glyph glyph-name="Odieresis" unicode="&#xd6;" horiz-adv-x="676" 
d="M342.97 685c174.62 0 296.3 -134.97 296.3 -341c0 -236.02 -143.68 -355 -304.96 -355c-169.96 0 -296.97 133.31 -296.97 341.33c0 218.69 133 354.67 305.63 354.67zM339.64 634.77c-162.09 0 -238.78 -148.41 -238.78 -302.44c0 -149.36 84.7 -293.1 237.11 -293.1
c152.74 0 238.11 139.06 238.11 301.44c0 139.36 -75.36 294.1 -236.44 294.1zM249.99 724.35c-25.31 0 -40.96 19.65 -40.96 43.63c0 22.98 17.65 42.63 41.63 42.63s40.63 -19.32 40.63 -42.63c0 -23.98 -15.65 -43.63 -41.3 -43.63zM426.28 724.35
c-24.98 0 -40.96 19.65 -40.96 43.63c0 22.98 17.65 42.63 41.96 42.63c23.98 0 40.63 -19.32 40.63 -42.63c0 -23.98 -15.65 -43.63 -41.63 -43.63z" />
    <glyph glyph-name="Ograve" unicode="&#xd2;" horiz-adv-x="676" 
d="M342.97 685c174.62 0 296.3 -134.97 296.3 -341c0 -236.02 -143.68 -355 -304.96 -355c-169.96 0 -296.97 133.31 -296.97 341.33c0 218.69 133 354.67 305.63 354.67zM339.64 634.77c-162.09 0 -238.78 -148.41 -238.78 -302.44c0 -149.36 84.7 -293.1 237.11 -293.1
c152.74 0 238.11 139.06 238.11 301.44c0 139.36 -75.36 294.1 -236.44 294.1zM203.69 826.99h84.89l95.35 -113.32h-50.23z" />
    <glyph glyph-name="Otilde" unicode="&#xd5;" horiz-adv-x="676" 
d="M342.97 685c174.62 0 296.3 -134.97 296.3 -341c0 -236.02 -143.68 -355 -304.96 -355c-169.96 0 -296.97 133.31 -296.97 341.33c0 218.69 133 354.67 305.63 354.67zM339.64 634.77c-162.09 0 -238.78 -148.41 -238.78 -302.44c0 -149.36 84.7 -293.1 237.11 -293.1
c152.74 0 238.11 139.06 238.11 301.44c0 139.36 -75.36 294.1 -236.44 294.1zM257.62 719.01h-37.62c-0.66 50.95 22.66 91.28 64.65 91.28c19.99 0 35.32 -8.67 57.66 -20.67c15.33 -8.33 32 -17.33 49.34 -17.33c14.33 0 24.67 6.33 27 37.66h37.29
c0.33 -52.28 -18.99 -85.61 -62.98 -85.61c-18.32 0 -35.65 7.33 -58.99 19c-19.67 10.67 -34.34 19.67 -49.01 19.67c-17.34 0 -24.67 -18.34 -27.34 -44z" />
    <glyph glyph-name="Scaron" unicode="&#x160;" horiz-adv-x="473" 
d="M42 34.34l19.32 50.89c38.33 -25.34 92.65 -44.67 150.64 -44.67c96.37 0 155.07 53.7 155.07 131.75c0 71.71 -38.01 113.07 -133.03 150.08c-109.33 38.33 -175.32 94.66 -175.32 187.65c0 100.98 83.65 174.96 203.26 174.96c64.98 0 113.64 -16.67 138.95 -32.33
l-19.98 -50.23c-19.32 12.67 -62.98 32 -121.97 32c-103.39 0 -139.73 -65.05 -139.73 -115.74c0 -71.04 42.34 -106.73 138.02 -144.07c111.99 -44.67 170.66 -96.32 170.66 -196.66c0 -99.98 -72.31 -187.97 -221.26 -187.97c-60.31 0 -129.3 19 -164.63 44.34z
M273.24 713.67h-47.57l-106.34 110.65h59.93l70.03 -72.68h2l68.36 72.68h56.93z" />
    <glyph glyph-name="Uacute" unicode="&#xda;" horiz-adv-x="632" 
d="M79.69 674h60.53v-404.36c0 -164.4 75.71 -229.74 172.41 -229.74c107.37 0 180.08 70.02 180.08 229.74v404.36h61.2v-399.03c0 -207 -111.01 -285.97 -244.28 -285.97c-124.6 0 -229.94 72.3 -229.94 279.29v405.71zM374.04 824.32h84.22l-130.01 -114.32h-50.23z" />
    <glyph glyph-name="Ucircumflex" unicode="&#xdb;" horiz-adv-x="632" 
d="M79.69 674h60.53v-404.36c0 -164.4 75.71 -229.74 172.41 -229.74c107.37 0 180.08 70.02 180.08 229.74v404.36h61.2v-399.03c0 -207 -111.01 -285.97 -244.28 -285.97c-124.6 0 -229.94 72.3 -229.94 279.29v405.71zM295.67 820.65h47.57l106.34 -110.65h-59.93
l-69.03 72.35h-2l-69.36 -72.35h-56.93z" />
    <glyph glyph-name="Udieresis" unicode="&#xdc;" horiz-adv-x="632" 
d="M79.69 674h60.53v-404.36c0 -164.4 75.71 -229.74 172.41 -229.74c107.37 0 180.08 70.02 180.08 229.74v404.36h61.2v-399.03c0 -207 -111.01 -285.97 -244.28 -285.97c-124.6 0 -229.94 72.3 -229.94 279.29v405.71zM228.98 724.35c-24.98 0 -40.96 19.65 -40.96 43.63
c0 22.98 17.98 42.63 41.29 42.63c23.65 0 40.63 -19.32 40.63 -42.63c0 -23.98 -15.31 -43.63 -40.96 -43.63zM405.6 724.35c-25.31 0 -40.96 19.65 -40.96 43.63c0 22.98 17.65 42.63 40.96 42.63c23.98 0 40.63 -19.32 40.63 -42.63
c0 -23.98 -14.98 -43.63 -40.63 -43.63z" />
    <glyph glyph-name="Ugrave" unicode="&#xd9;" horiz-adv-x="632" 
d="M79.69 674h60.53v-404.36c0 -164.4 75.71 -229.74 172.41 -229.74c107.37 0 180.08 70.02 180.08 229.74v404.36h61.2v-399.03c0 -207 -111.01 -285.97 -244.28 -285.97c-124.6 0 -229.94 72.3 -229.94 279.29v405.71zM187.02 824.32h83.89l96.35 -113.99h-51.23z" />
    <glyph glyph-name="Yacute" unicode="&#xdd;" horiz-adv-x="515" 
d="M289.21 0h-60.53v290.02l-214.34 383.98h68.85l105.72 -196.05c27.34 -52.34 50.69 -94.68 73.03 -143.02h2c20.34 45.34 46.02 91.35 74.7 143.69l109.06 195.38h68.85l-227.34 -384.32v-289.68zM320 816.98h83.89l-129.01 -113.32h-50.56z" />
    <glyph glyph-name="Ydieresis" unicode="&#x178;" horiz-adv-x="515" 
d="M289.21 0h-60.53v290.02l-214.34 383.98h68.85l105.72 -196.05c27.34 -52.34 50.69 -94.68 73.03 -143.02h2c20.34 45.34 46.02 91.35 74.7 143.69l109.06 195.38h68.85l-227.34 -384.32v-289.68zM178.96 715.34c-24.98 0 -40.96 19.65 -40.96 43.63
c0 22.98 17.65 42.63 41.29 42.63c23.65 0 40.3 -19.32 40.3 -42.63c0 -23.98 -14.98 -43.63 -40.63 -43.63zM355.25 715.34c-24.98 0 -40.63 19.65 -40.63 43.63c0 22.98 17.65 42.63 40.96 42.63c23.98 0 40.63 -19.32 40.63 -42.63c0 -23.98 -14.98 -43.63 -40.96 -43.63
z" />
    <glyph glyph-name="Zcaron" unicode="&#x17d;" horiz-adv-x="543" 
d="M32.68 0v38.27l395.44 581.84v3h-362.77v50.89h440.93v-38.93l-395.45 -581.18v-3h400.45v-50.89h-478.6zM308.27 710h-47.57l-106.01 110.65h59.6l70.03 -72.35h2l68.36 72.35h57.26z" />
    <glyph glyph-name="aacute" unicode="&#xe1;" horiz-adv-x="463" 
d="M397.55 0h-55.21l-7 66.36h-3c-24.32 -37.33 -76.99 -77.36 -151.35 -77.36c-96.66 0 -143.31 68.33 -143.31 134.31c0 112.98 99.98 178.99 292.34 177.32v11.34c0 45.36 -9.66 132.77 -118.71 132.1c-42.99 0 -87.98 -11.99 -121.98 -36l-16.65 42.59
c42.01 28.01 97.33 41.66 146.27 41.66c141.97 0 171.27 -103.01 171.27 -192.64v-185.02c0 -39.32 2 -78.98 7.33 -114.66zM330.68 156.97v96.73c-102.03 2.67 -230.46 -13.66 -230.46 -121.73c0 -65.04 43.36 -94.72 91.71 -94.72c74.39 0 117.74 46.03 133.75 91.05
c3 9.67 5 19.67 5 28.67zM272.99 689.65h78.91l-122 -139.65h-45.58z" />
    <glyph glyph-name="acircumflex" unicode="&#xe2;" horiz-adv-x="463" 
d="M397.55 0h-55.21l-7 66.36h-3c-24.32 -37.33 -76.99 -77.36 -151.35 -77.36c-96.66 0 -143.31 68.33 -143.31 134.31c0 112.98 99.98 178.99 292.34 177.32v11.34c0 45.36 -9.66 132.77 -118.71 132.1c-42.99 0 -87.98 -11.99 -121.98 -36l-16.65 42.59
c42.01 28.01 97.33 41.66 146.27 41.66c141.97 0 171.27 -103.01 171.27 -192.64v-185.02c0 -39.32 2 -78.98 7.33 -114.66zM330.68 156.97v96.73c-102.03 2.67 -230.46 -13.66 -230.46 -121.73c0 -65.04 43.36 -94.72 91.71 -94.72c74.39 0 117.74 46.03 133.75 91.05
c3 9.67 5 19.67 5 28.67zM203.66 689.65h44.25l93.99 -139.65h-53.6l-61.35 98.35h-2l-61.35 -98.35h-51.93z" />
    <glyph glyph-name="adieresis" unicode="&#xe4;" horiz-adv-x="463" 
d="M397.55 0h-55.21l-7 66.36h-3c-24.32 -37.33 -76.99 -77.36 -151.35 -77.36c-96.66 0 -143.31 68.33 -143.31 134.31c0 112.98 99.98 178.99 292.34 177.32v11.34c0 45.36 -9.66 132.77 -118.71 132.1c-42.99 0 -87.98 -11.99 -121.98 -36l-16.65 42.59
c42.01 28.01 97.33 41.66 146.27 41.66c141.97 0 171.27 -103.01 171.27 -192.64v-185.02c0 -39.32 2 -78.98 7.33 -114.66zM330.68 156.97v96.73c-102.03 2.67 -230.46 -13.66 -230.46 -121.73c0 -65.04 43.36 -94.72 91.71 -94.72c74.39 0 117.74 46.03 133.75 91.05
c3 9.67 5 19.67 5 28.67zM144.31 575.36c-25.31 0 -41.62 20.65 -41.62 42.96c0 23.31 18.31 42.96 42.29 42.96c23.31 0 40.29 -19.32 40.29 -42.96c0 -22.31 -15.98 -42.96 -40.96 -42.96zM319.26 575.36c-25.31 0 -41.29 20.65 -41.29 42.96
c0 23.31 17.98 42.96 41.96 42.96c23.31 0 40.29 -19.32 40.29 -42.96c0 -22.31 -15.98 -42.96 -40.96 -42.96z" />
    <glyph glyph-name="agrave" unicode="&#xe0;" horiz-adv-x="463" 
d="M397.55 0h-55.21l-7 66.36h-3c-24.32 -37.33 -76.99 -77.36 -151.35 -77.36c-96.66 0 -143.31 68.33 -143.31 134.31c0 112.98 99.98 178.99 292.34 177.32v11.34c0 45.36 -9.66 132.77 -118.71 132.1c-42.99 0 -87.98 -11.99 -121.98 -36l-16.65 42.59
c42.01 28.01 97.33 41.66 146.27 41.66c141.97 0 171.27 -103.01 171.27 -192.64v-185.02c0 -39.32 2 -78.98 7.33 -114.66zM330.68 156.97v96.73c-102.03 2.67 -230.46 -13.66 -230.46 -121.73c0 -65.04 43.36 -94.72 91.71 -94.72c74.39 0 117.74 46.03 133.75 91.05
c3 9.67 5 19.67 5 28.67zM92.99 689.65h78.24l88.34 -139.65h-44.58z" />
    <glyph glyph-name="aring" unicode="&#xe5;" horiz-adv-x="463" 
d="M397.55 0h-55.21l-7 66.36h-3c-24.32 -37.33 -76.99 -77.36 -151.35 -77.36c-96.66 0 -143.31 68.33 -143.31 134.31c0 112.98 99.98 178.99 292.34 177.32v11.34c0 45.36 -9.66 132.77 -118.71 132.1c-42.99 0 -87.98 -11.99 -121.98 -36l-16.65 42.59
c42.01 28.01 97.33 41.66 146.27 41.66c141.97 0 171.27 -103.01 171.27 -192.64v-185.02c0 -39.32 2 -78.98 7.33 -114.66zM330.68 156.97v96.73c-102.03 2.67 -230.46 -13.66 -230.46 -121.73c0 -65.04 43.36 -94.72 91.71 -94.72c74.39 0 117.74 46.03 133.75 91.05
c3 9.67 5 19.67 5 28.67zM229.95 536.33c-55.31 0 -95.64 39.33 -95.64 88.99c0 50.99 38.33 92.32 96.64 92.32c53.97 0 92.97 -40.33 92.97 -91.99c0 -50.99 -43 -89.32 -93.97 -89.32zM228.95 568.64c32 0 54.01 26.67 54.01 58.01c0 32.68 -22.01 58.35 -54.68 58.35
c-31.67 0 -51.01 -27.34 -51.01 -59.68c0 -28.01 21.34 -56.68 51.68 -56.68z" />
    <glyph glyph-name="atilde" unicode="&#xe3;" horiz-adv-x="463" 
d="M397.55 0h-55.21l-7 66.36h-3c-24.32 -37.33 -76.99 -77.36 -151.35 -77.36c-96.66 0 -143.31 68.33 -143.31 134.31c0 112.98 99.98 178.99 292.34 177.32v11.34c0 45.36 -9.66 132.77 -118.71 132.1c-42.99 0 -87.98 -11.99 -121.98 -36l-16.65 42.59
c42.01 28.01 97.33 41.66 146.27 41.66c141.97 0 171.27 -103.01 171.27 -192.64v-185.02c0 -39.32 2 -78.98 7.33 -114.66zM330.68 156.97v96.73c-102.03 2.67 -230.46 -13.66 -230.46 -121.73c0 -65.04 43.36 -94.72 91.71 -94.72c74.39 0 117.74 46.03 133.75 91.05
c3 9.67 5 19.67 5 28.67zM153.62 571.02h-37.95c-1.33 56.96 22.99 92.61 62.64 92.61c19.99 0 35.65 -9 60.66 -22.67c16 -8.33 29.33 -15.66 42 -15.66c15.33 0 25.67 9 28 41.66h37.29c0.66 -56.28 -18.32 -89.61 -62.64 -89.61c-18.99 0 -37.32 9 -57.65 20
c-21.34 12 -33.01 18.67 -45.01 18.67c-16.67 0 -24.67 -18.34 -27.34 -45z" />
    <glyph glyph-name="ccedilla" unicode="&#xe7;" horiz-adv-x="446" 
d="M400.32 66.58l13.66 -46.57c-20.33 -11 -67.67 -28.68 -131.03 -30.01l-28.01 -42.68c36.33 -5 68.66 -30.33 68.66 -67.66c0 -56.32 -44.98 -78.32 -97.3 -78.32c-20.98 0 -46.98 7 -62.64 16.33l12.99 36.97c15.33 -9.33 34.66 -13.66 54 -13.66
c23.34 0 46.35 8.67 45.68 34.01c-1 29.35 -34.35 40.01 -78 44.01l43.34 73c-122.66 13.99 -201.66 109.33 -201.66 243.66c0 151.01 103.34 256.33 251.96 256.33c56.69 0 104.03 -15.68 124.68 -28.35l-17.99 -48.57c-23.01 12.67 -58.69 26.35 -110.04 26.35
c-123.06 0 -187.08 -93.39 -187.08 -202.43c0 -120.71 76.69 -198.42 182.74 -198.42c54.69 0 90.37 15.01 116.04 26.01z" />
    <glyph glyph-name="eacute" unicode="&#xe9;" horiz-adv-x="490" 
d="M448.6 238.73h-349.38c0.66 -142.45 82.02 -198.82 177.39 -198.82c67.69 0 104.35 13.01 133.33 26.34l12.99 -46.25c-22.29 -11.32 -72.61 -30 -154.3 -30c-141.63 0 -228.62 99.34 -228.62 241.99c0 155.38 90.02 260.33 219.63 260.33
c157.33 0 191.29 -145.03 191.29 -220.63c0 -14.65 -0.66 -24.63 -2.33 -32.96zM101.56 284.98h287.82c1 63.37 -25.68 160.42 -136.07 160.42c-100.39 0 -144.08 -90.71 -151.75 -160.42zM305.34 689.65h78.91l-122 -139.65h-45.58z" />
    <glyph glyph-name="ecircumflex" unicode="&#xea;" horiz-adv-x="490" 
d="M448.6 238.73h-349.38c0.66 -142.45 82.02 -198.82 177.39 -198.82c67.69 0 104.35 13.01 133.33 26.34l12.99 -46.25c-22.29 -11.32 -72.61 -30 -154.3 -30c-141.63 0 -228.62 99.34 -228.62 241.99c0 155.38 90.02 260.33 219.63 260.33
c157.33 0 191.29 -145.03 191.29 -220.63c0 -14.65 -0.66 -24.63 -2.33 -32.96zM101.56 284.98h287.82c1 63.37 -25.68 160.42 -136.07 160.42c-100.39 0 -144.08 -90.71 -151.75 -160.42zM234.68 689.65h43.92l94.66 -139.65h-54.27l-61.35 98.35h-2l-61.35 -98.35h-51.26z
" />
    <glyph glyph-name="edieresis" unicode="&#xeb;" horiz-adv-x="490" 
d="M448.6 238.73h-349.38c0.66 -142.45 82.02 -198.82 177.39 -198.82c67.69 0 104.35 13.01 133.33 26.34l12.99 -46.25c-22.29 -11.32 -72.61 -30 -154.3 -30c-141.63 0 -228.62 99.34 -228.62 241.99c0 155.38 90.02 260.33 219.63 260.33
c157.33 0 191.29 -145.03 191.29 -220.63c0 -14.65 -0.66 -24.63 -2.33 -32.96zM101.56 284.98h287.82c1 63.37 -25.68 160.42 -136.07 160.42c-100.39 0 -144.08 -90.71 -151.75 -160.42zM176 575.36c-25.31 0 -41.62 20.65 -41.62 42.96c0 23.31 18.31 42.96 42.29 42.96
c23.31 0 40.29 -19.32 40.29 -42.96c0 -22.31 -15.98 -42.96 -40.96 -42.96zM350.95 575.36c-25.31 0 -41.29 20.65 -41.29 42.96c0 23.31 17.98 42.96 41.96 42.96c23.31 0 40.29 -19.32 40.29 -42.96c0 -22.31 -15.98 -42.96 -40.96 -42.96z" />
    <glyph glyph-name="egrave" unicode="&#xe8;" horiz-adv-x="490" 
d="M448.6 238.73h-349.38c0.66 -142.45 82.02 -198.82 177.39 -198.82c67.69 0 104.35 13.01 133.33 26.34l12.99 -46.25c-22.29 -11.32 -72.61 -30 -154.3 -30c-141.63 0 -228.62 99.34 -228.62 241.99c0 155.38 90.02 260.33 219.63 260.33
c157.33 0 191.29 -145.03 191.29 -220.63c0 -14.65 -0.66 -24.63 -2.33 -32.96zM101.56 284.98h287.82c1 63.37 -25.68 160.42 -136.07 160.42c-100.39 0 -144.08 -90.71 -151.75 -160.42zM141.7 689.65h78.91l88 -139.65h-44.91z" />
    <glyph glyph-name="iacute" unicode="&#xed;" horiz-adv-x="217" 
d="M138.89 0h-60.53v481.32h60.53v-481.32zM154.33 689.65h78.91l-122 -139.65h-45.58z" />
    <glyph glyph-name="icircumflex" unicode="&#xee;" horiz-adv-x="217" 
d="M138.89 0h-60.53v481.32h60.53v-481.32zM86 689.65h43.58l94.66 -139.65h-54.6l-60.68 98.35h-2l-61.35 -98.35h-51.6z" />
    <glyph glyph-name="idieresis" unicode="&#xef;" horiz-adv-x="217" 
d="M138.89 0h-60.53v481.32h60.53v-481.32zM21.65 575.36c-25.31 0 -41.62 20.65 -41.62 42.96c0 23.31 18.31 42.96 42.29 42.96c23.31 0 40.29 -19.32 40.29 -42.96c0 -22.31 -15.98 -42.96 -40.96 -42.96zM196.6 575.36c-25.31 0 -41.29 20.65 -41.29 42.96
c0 23.31 17.98 42.96 41.96 42.96c23.31 0 40.29 -19.32 40.29 -42.96c0 -22.31 -15.98 -42.96 -40.96 -42.96z" />
    <glyph glyph-name="igrave" unicode="&#xec;" horiz-adv-x="217" 
d="M138.89 0h-60.53v481.32h60.53v-481.32zM-26.66 689.65h78.91l88.67 -139.65h-45.25z" />
    <glyph glyph-name="ntilde" unicode="&#xf1;" horiz-adv-x="542" 
d="M78.36 0v361.04c0 45.98 -1.67 81.62 -4 120.28h55.22l4.33 -84.69h2c25.34 51.36 84.02 95.69 163.35 95.69c52.93 0 168.32 -28.61 168.32 -203.99v-288.33h-60.53v282.35c0 84.03 -32.35 158.41 -126.07 158.41c-64.7 0 -117.74 -45.69 -135.42 -103.4
c-4 -11.67 -6.67 -27.34 -6.67 -42.34v-295.02h-60.53zM194.29 571.02h-37.95c-1.33 56.96 22.99 92.61 62.64 92.61c19.99 0 35.65 -9 60.66 -22.67c16 -8.33 29.33 -15.66 42 -15.66c15.33 0 26 9 28 41.66h37.62c0.33 -56.28 -18.65 -89.61 -62.97 -89.61
c-18.99 0 -37.32 9 -57.65 20c-21.34 12 -33.01 18.67 -45.01 18.67c-16.67 0 -24.67 -18.34 -27.34 -45z" />
    <glyph glyph-name="oacute" unicode="&#xf3;" horiz-adv-x="537" 
d="M271.3 492.32c134.98 0 226.3 -99.66 226.3 -246.99c0 -179.67 -123.33 -256.33 -233.63 -256.33c-126.31 0 -223.96 96.67 -223.96 247.66c0 164.01 107.34 255.66 231.29 255.66zM269.97 444.41c-116.06 0 -168.43 -105.38 -168.43 -204.75
c0 -115.38 71.72 -202.08 165.76 -202.08c94.72 0 168.44 86.37 168.44 204.75c0 86.02 -47.03 202.08 -165.77 202.08zM309.67 689.65h78.91l-122 -139.65h-45.58z" />
    <glyph glyph-name="ocircumflex" unicode="&#xf4;" horiz-adv-x="537" 
d="M271.3 492.32c134.98 0 226.3 -99.66 226.3 -246.99c0 -179.67 -123.33 -256.33 -233.63 -256.33c-126.31 0 -223.96 96.67 -223.96 247.66c0 164.01 107.34 255.66 231.29 255.66zM269.97 444.41c-116.06 0 -168.43 -105.38 -168.43 -204.75
c0 -115.38 71.72 -202.08 165.76 -202.08c94.72 0 168.44 86.37 168.44 204.75c0 86.02 -47.03 202.08 -165.77 202.08zM245.01 689.65h44.25l94.66 -139.65h-54.6l-61.35 98.35h-2l-61.35 -98.35h-50.93z" />
    <glyph glyph-name="odieresis" unicode="&#xf6;" horiz-adv-x="537" 
d="M271.3 492.32c134.98 0 226.3 -99.66 226.3 -246.99c0 -179.67 -123.33 -256.33 -233.63 -256.33c-126.31 0 -223.96 96.67 -223.96 247.66c0 164.01 107.34 255.66 231.29 255.66zM269.97 444.41c-116.06 0 -168.43 -105.38 -168.43 -204.75
c0 -115.38 71.72 -202.08 165.76 -202.08c94.72 0 168.44 86.37 168.44 204.75c0 86.02 -47.03 202.08 -165.77 202.08zM181.33 575.36c-25.31 0 -41.62 20.65 -41.62 42.96c0 23.31 18.31 42.96 42.29 42.96c23.31 0 40.29 -19.32 40.29 -42.96
c0 -22.31 -15.98 -42.96 -40.96 -42.96zM356.28 575.36c-25.31 0 -41.29 20.65 -41.29 42.96c0 23.31 17.98 42.96 41.96 42.96c23.31 0 40.29 -19.32 40.29 -42.96c0 -22.31 -15.98 -42.96 -40.96 -42.96z" />
    <glyph glyph-name="ograve" unicode="&#xf2;" horiz-adv-x="537" 
d="M271.3 492.32c134.98 0 226.3 -99.66 226.3 -246.99c0 -179.67 -123.33 -256.33 -233.63 -256.33c-126.31 0 -223.96 96.67 -223.96 247.66c0 164.01 107.34 255.66 231.29 255.66zM269.97 444.41c-116.06 0 -168.43 -105.38 -168.43 -204.75
c0 -115.38 71.72 -202.08 165.76 -202.08c94.72 0 168.44 86.37 168.44 204.75c0 86.02 -47.03 202.08 -165.77 202.08zM150.36 689.65h78.24l88.34 -139.65h-44.58z" />
    <glyph glyph-name="otilde" unicode="&#xf5;" horiz-adv-x="537" 
d="M271.3 492.32c134.98 0 226.3 -99.66 226.3 -246.99c0 -179.67 -123.33 -256.33 -233.63 -256.33c-126.31 0 -223.96 96.67 -223.96 247.66c0 164.01 107.34 255.66 231.29 255.66zM269.97 444.41c-116.06 0 -168.43 -105.38 -168.43 -204.75
c0 -115.38 71.72 -202.08 165.76 -202.08c94.72 0 168.44 86.37 168.44 204.75c0 86.02 -47.03 202.08 -165.77 202.08zM191.63 571.02h-37.95c-1.33 56.96 22.99 92.61 62.64 92.61c19.99 0 35.65 -9 60.66 -22.67c16 -8.33 29.33 -15.66 42 -15.66c15.33 0 26 9 28 41.66
h37.62c0.33 -56.28 -18.65 -89.61 -62.97 -89.61c-18.99 0 -37.32 9 -57.65 20c-21.34 12 -33.01 18.67 -45.01 18.67c-16.67 0 -24.67 -18.34 -27.34 -45z" />
    <glyph glyph-name="scaron" unicode="&#x161;" horiz-adv-x="380" 
d="M42.35 23l18.65 48.91c26 -16.33 67.31 -33.66 110.64 -33.66c72.04 0 106.06 38.03 106.06 84.73c0 49.37 -29.69 75.72 -97.37 102.4c-81.64 30.33 -123.98 74.98 -123.98 132.98c0 71.97 56.97 133.96 154.27 133.96c45.65 0 84.63 -13.33 110.29 -30l-19.99 -47.25
c-16.99 12 -49.31 28.67 -96.32 28.67c-58.03 0 -89.04 -36.03 -89.04 -77.39c0 -46.7 32.35 -67.38 96.69 -93.39c79.98 -30.66 124.99 -70.65 124.99 -143.32c0 -82.99 -64.66 -139.64 -168.27 -139.64c-48.98 0 -93.96 13 -126.62 33zM219.59 550h-47.25l-93.99 139.65
h53.93l63.02 -98.35h2l62.35 98.35h51.93z" />
    <glyph glyph-name="uacute" unicode="&#xfa;" horiz-adv-x="537" 
d="M459.24 481.32v-359.37c0 -44.64 1.67 -84.62 4 -121.95h-55.22l-3.66 83.02h-2c-23.67 -42.35 -77.35 -94.02 -163.35 -94.02c-65.95 0 -164.32 33.96 -164.32 212v280.32h60.53v-269.34c0 -100.04 31.35 -170.75 121.4 -170.75c66.37 0 114.07 46.36 132.75 91.39
c5 14.34 9.34 32.35 9.34 50.36v298.34h60.53zM323.01 689.65h78.91l-122 -139.65h-45.58z" />
    <glyph glyph-name="ucircumflex" unicode="&#xfb;" horiz-adv-x="537" 
d="M459.24 481.32v-359.37c0 -44.64 1.67 -84.62 4 -121.95h-55.22l-3.66 83.02h-2c-23.67 -42.35 -77.35 -94.02 -163.35 -94.02c-65.95 0 -164.32 33.96 -164.32 212v280.32h60.53v-269.34c0 -100.04 31.35 -170.75 121.4 -170.75c66.37 0 114.07 46.36 132.75 91.39
c5 14.34 9.34 32.35 9.34 50.36v298.34h60.53zM245.34 689.65h44.25l93.99 -139.65h-53.6l-61.35 98.35h-2l-61.35 -98.35h-51.93z" />
    <glyph glyph-name="udieresis" unicode="&#xfc;" horiz-adv-x="537" 
d="M459.24 481.32v-359.37c0 -44.64 1.67 -84.62 4 -121.95h-55.22l-3.66 83.02h-2c-23.67 -42.35 -77.35 -94.02 -163.35 -94.02c-65.95 0 -164.32 33.96 -164.32 212v280.32h60.53v-269.34c0 -100.04 31.35 -170.75 121.4 -170.75c66.37 0 114.07 46.36 132.75 91.39
c5 14.34 9.34 32.35 9.34 50.36v298.34h60.53zM183.99 575.36c-25.31 0 -41.62 20.65 -41.62 42.96c0 23.31 18.31 42.96 42.29 42.96c23.31 0 40.29 -19.32 40.29 -42.96c0 -22.31 -15.98 -42.96 -40.96 -42.96zM358.94 575.36c-25.31 0 -41.29 20.65 -41.29 42.96
c0 23.31 17.98 42.96 41.96 42.96c23.31 0 40.29 -19.32 40.29 -42.96c0 -22.31 -15.98 -42.96 -40.96 -42.96z" />
    <glyph glyph-name="ugrave" unicode="&#xf9;" horiz-adv-x="537" 
d="M459.24 481.32v-359.37c0 -44.64 1.67 -84.62 4 -121.95h-55.22l-3.66 83.02h-2c-23.67 -42.35 -77.35 -94.02 -163.35 -94.02c-65.95 0 -164.32 33.96 -164.32 212v280.32h60.53v-269.34c0 -100.04 31.35 -170.75 121.4 -170.75c66.37 0 114.07 46.36 132.75 91.39
c5 14.34 9.34 32.35 9.34 50.36v298.34h60.53zM144.02 689.65h78.24l88.67 -139.65h-44.91z" />
    <glyph glyph-name="yacute" unicode="&#xfd;" horiz-adv-x="450" 
d="M10.34 481.32h65.85l119.4 -304.76c12.34 -33.34 25.01 -71.34 33.68 -101.68h2c9.67 29.67 21.01 66.67 35.02 104.35l110.07 302.09h64.86l-140.04 -353.71c-59.65 -154.61 -101.31 -242.29 -163.32 -296.3c-39.65 -33.98 -76.62 -48.31 -91.92 -52.31l-17.31 51.22
c23.34 8.34 54.35 24.35 81.69 50.37c24 21.68 55.34 59.7 78.02 112.74c4 10.34 6.33 16 6.33 21c0 5 -2 11.33 -6 21.66zM280.31 689.65h78.91l-122 -139.65h-45.58z" />
    <glyph glyph-name="ydieresis" unicode="&#xff;" horiz-adv-x="450" 
d="M10.34 481.32h65.85l119.4 -304.76c12.34 -33.34 25.01 -71.34 33.68 -101.68h2c9.67 29.67 21.01 66.67 35.02 104.35l110.07 302.09h64.86l-140.04 -353.71c-59.65 -154.61 -101.31 -242.29 -163.32 -296.3c-39.65 -33.98 -76.62 -48.31 -91.92 -52.31l-17.31 51.22
c23.34 8.34 54.35 24.35 81.69 50.37c24 21.68 55.34 59.7 78.02 112.74c4 10.34 6.33 16 6.33 21c0 5 -2 11.33 -6 21.66zM148.97 575.36c-25.31 0 -41.62 20.65 -41.62 42.96c0 23.31 18.98 42.96 42.29 42.96c23.31 0 40.96 -19.32 40.96 -42.96
c0 -22.31 -15.98 -42.96 -41.63 -42.96zM323.92 575.36c-25.31 0 -41.29 20.65 -41.29 42.96c0 23.31 17.98 42.96 42.29 42.96c22.98 0 39.96 -19.32 39.96 -42.96c0 -22.31 -15.65 -42.96 -40.96 -42.96z" />
    <glyph glyph-name="zcaron" unicode="&#x17e;" horiz-adv-x="411" 
d="M16.66 0v36.26l245.13 322.52c18.99 23.99 37.65 46.32 57.64 70.98v2h-282.1v49.56h356.27l-1 -39.59l-244.14 -320.53c-17.99 -24.32 -35.98 -46.31 -54.63 -69.97v-2h301.76v-49.23h-378.93zM245.6 550h-47.25l-93.99 139.65h53.93l63.02 -98.35h2l62.35 98.35h51.93z
" />
    <glyph glyph-name="Dcroat" unicode="&#x110;" horiz-adv-x="657" 
d="M-3.34 317.05v49.23h87.02v300.72c51.66 9 111.31 15 176.29 15c123.33 0 215.34 -32.35 272.33 -90.03c55.98 -55.67 87.63 -131.99 87.63 -238.97c0 -102.96 -29.31 -192.63 -90.97 -258.31c-60.99 -64.34 -163.31 -101.02 -293.31 -101.02
c-55.63 0 -105.29 1.33 -151.97 6.33v317.05h-87.02zM343.31 366.28v-49.23h-199.43v-268.81c26.02 -3.67 62.71 -4.67 101.74 -4.67c206.76 0 311.45 115.06 311.45 309.77c1 167.7 -92.35 278.76 -297.79 278.76c-49.69 0 -88.38 -4.67 -115.4 -10.34v-255.48h199.43z" />
    <glyph glyph-name="Eng" unicode="&#x14a;" horiz-adv-x="644" 
d="M137.9 0h-57.88v674h61.5l247.49 -379.19c52.68 -82.35 91.68 -147.99 124.35 -214.31l2 1c-7.33 90.67 -8.66 169.32 -8.66 274.99v317.51h58.55v-640.02c0 -130.27 -54.95 -205.94 -178.93 -226.28l-11.97 48.57c86.03 16 128.04 60.03 133.7 141.75l-244.8 377.48
c-49.01 77.01 -94.68 149.99 -129.35 220.31l-2.33 -1c5 -83.66 6.33 -159.3 6.33 -271.3v-323.51z" />
    <glyph glyph-name="Hbar" unicode="&#x126;" horiz-adv-x="638" 
d="M612.55 482.35h-54.32v-482.35h-60.53v320.76h-356.82v-320.76h-60.2v482.35h-54.32v44.6h54.32v147.05h60.2v-147.05h356.82v147.05h60.53v-147.05h54.32v-44.6zM497.7 372.31v110.04h-356.82v-110.04h356.82z" />
    <glyph glyph-name="Tbar" unicode="&#x166;" horiz-adv-x="475" 
d="M483.93 622.78h-215.38v-245.45h128.02v-44.6h-128.02v-332.73h-61.2v332.73h-128.02v44.6h128.02v245.45h-214.38v51.22h490.96v-51.22z" />
    <glyph glyph-name="uni021C" unicode="&#x21c;" horiz-adv-x="456" 
d="M57.64 -110.31l-8.32 49.57c185.46 29.36 305.04 123.4 305.04 245.42c0 84.05 -60.37 147.74 -159.06 146.74c-21 0 -57.32 -7 -91.99 -18l-8.65 45.25c120.37 29.35 205.69 94.37 205.69 175.38c0 61.03 -50.02 100.38 -120.38 100.38
c-55.34 0 -116.02 -24.34 -137.67 -36l-13.98 40.91c26.64 17.99 96.97 45.66 160.95 45.66c104.31 0 172.28 -59.33 172.28 -143.65c0 -76.34 -57.68 -134.34 -124.34 -165.34v-3c103.01 -7.99 180.34 -76 180.34 -183.67c0 -145.96 -129.91 -265.95 -359.91 -299.65z" />
    <glyph glyph-name="dcroat" unicode="&#x111;" horiz-adv-x="550" 
d="M548.57 556.69h-76.33v-440.4c0 -38.31 1.67 -82.62 4 -116.29h-54.88l-3.33 88.69h-2c-25.66 -53.33 -83.32 -99.69 -169.02 -99.69c-117.67 0 -207 99 -207 243.32c-1 160.33 98.33 260 216.33 260c80.03 0 131.37 -40.36 153.37 -80.7h2v145.07h-204.37v43.61h204.37
v109.7h60.53v-109.7h76.33v-43.61zM411.71 196.97v92.04c0 12.34 -1.67 29.35 -4.67 41.69c-15.68 61.36 -69.04 112.72 -143.08 112.72c-100.38 0 -162.42 -87.37 -162.42 -206.43c0 -104.7 52.02 -197.76 159.75 -197.76c65.7 0 126.4 43.02 145.75 118.4
c3 12.67 4.67 24.67 4.67 39.34z" />
    <glyph glyph-name="eng" unicode="&#x14b;" horiz-adv-x="542" 
d="M78.36 0v361.04c0 45.98 -1.67 81.62 -4 120.28h55.22l4.33 -84.69h2c25.34 51.36 84.02 95.69 163.35 95.69c52.93 0 168.32 -28.61 168.32 -203.99v-229.33c0 -143.95 -78.98 -214.96 -181.96 -231.3l-11.64 50.57c87.71 18.01 133.07 76.38 133.07 179.43v224.65
c0 84.03 -32.35 158.41 -126.07 158.41c-64.7 0 -117.74 -45.69 -135.42 -103.4c-4 -11.67 -6.67 -27.34 -6.67 -42.34v-295.02h-60.53z" />
    <glyph glyph-name="hbar" unicode="&#x127;" horiz-adv-x="542" 
d="M467.58 0h-60.53v282.02c0 84.03 -32.35 158.74 -125.4 158.74c-64.37 0 -117.41 -46.03 -136.09 -102.07c-5 -13.34 -6.67 -27.01 -6.67 -45.35v-293.34h-60.53v556.69h-77v43.61h77v109.7h60.53v-109.7h198.36v-43.61h-198.36v-158.07h2
c14 26.34 36.67 51.02 65.01 67.36c26.67 16.34 59.01 26.34 94.69 26.34c51.6 0 166.99 -28.61 166.99 -202.98v-289.34z" />
    <glyph glyph-name="kgreenlandic" unicode="&#x138;" horiz-adv-x="438" 
d="M138.56 481.32v-228.03h2c12 15.66 31.01 37.33 45.68 53.66l160.09 174.37h73.84l-191.69 -199l218.36 -282.32h-74.17l-186.43 245.4l-47.68 -51.34v-194.06h-60.2v481.32h60.2z" />
    <glyph glyph-name="napostrophe" unicode="&#x149;" horiz-adv-x="542" 
d="M47.96 540.69l-25.27 24.31c16.33 15.65 39.01 39.31 39.01 79.99c0 23.67 -15.34 47.01 -35.02 60.34l49.93 13.65c17.67 -10 36.34 -36.33 36.34 -69.99c0 -65.66 -50.33 -97.64 -64.99 -108.3zM78.36 0v361.04c0 45.98 -1.67 81.62 -4 120.28h55.22l4.33 -84.69h2
c25.34 51.36 84.02 95.69 163.35 95.69c52.93 0 168.32 -28.61 168.32 -203.99v-288.33h-60.53v282.35c0 84.03 -32.35 158.41 -126.07 158.41c-64.7 0 -117.74 -45.69 -135.42 -103.4c-4 -11.67 -6.67 -27.34 -6.67 -42.34v-295.02h-60.53z" />
    <glyph glyph-name="tbar" unicode="&#x167;" horiz-adv-x="316" 
d="M290.93 433.75h-133.37v-133.76h104.7v-43.28h-104.7v-118.13c0 -60.67 18.34 -98.02 68.68 -98.02c24.34 0 42.01 3.67 53.68 7.34l5.34 -46.57c-16.33 -6.33 -39.98 -11.33 -70.63 -11.33c-36.98 0 -67.3 11.66 -86.29 34.99c-22.99 25.33 -31.32 66.32 -31.32 117.96
v113.76h-68.34v43.28h68.34v133.76h-79.02v47.57h79.02v121.36l60.54 17.64v-139h133.37v-47.57z" />
    <glyph glyph-name="uni021D" unicode="&#x21d;" horiz-adv-x="408" 
d="M41.32 -209l-5.65 48.57c29.96 3 284.38 36.35 284.38 206.09c0 68.38 -47.71 121.73 -140.06 121.73c-30.01 0 -61.67 -7.67 -89.34 -15l-8.98 45.58c113.7 28.35 190.36 71.03 190.36 150.73c0 58.7 -43.35 94.72 -112.04 94.72
c-53.01 0 -103.35 -27.68 -125.34 -39.34l-13.98 40.58c33.65 21.99 90.63 47.66 152.28 47.66c94.3 0 159.29 -53.33 159.29 -134.65c0 -68.68 -47.02 -121.03 -108.01 -144.02v-3c92.67 -9.33 157.01 -67.66 157.01 -157.67c0 -114.59 -96.2 -236.95 -339.92 -261.98z" />
    <glyph glyph-name="IJ" unicode="&#x132;" horiz-adv-x="573" 
d="M80.02 674h60.2v-674h-60.2v674zM440.27 222.63v451.37h60.87v-460.38c0 -174.31 -85.66 -224.62 -188.93 -224.62c-30.99 0 -67.31 7.67 -85.96 16l10.99 49.56c17.33 -7 42.66 -13.67 72.66 -13.67c83.03 0 130.37 38.35 130.37 181.74z" />
    <glyph glyph-name="f_f" unicode="&#xfb00;" horiz-adv-x="555" 
d="M427.17 0h-61.2v433.75h-222.43v-433.75h-60.2v433.75h-68.67v47.57h68.67v18.68c0 72.69 16.67 131.69 53.33 168.35c25.99 26.66 62.64 41.65 110.61 41.65c29.34 0 56.01 -9.67 70.34 -18.34l-16.66 -46.24c-13.67 7.34 -34.68 14.68 -57.36 14.68
c-78.38 0 -100.06 -68.38 -100.06 -155.1v-23.68h222.43v25.01c0 72.02 15.33 132.68 54.32 171.68c30.99 29.99 71.64 42.99 110.3 42.99c31.33 0 57.33 -7.67 72.99 -15.34l-13.68 -47.9c-14 6.67 -31.67 13.01 -59.68 13.01c-84.72 0 -103.38 -76.72 -103.38 -162.78
v-26.67h124.37v-47.57h-124.04v-433.75z" />
    <glyph glyph-name="f_f_i" unicode="&#xfb03;" horiz-adv-x="780" 
d="M673.51 688.66l-23.32 -46.57c-21.33 14.67 -57.33 28.68 -97.33 28.68c-98.36 0 -125.69 -75.05 -125.69 -162.77v-26.68h274.63v-481.32h-60.53v433.75h-213.77v-433.75h-61.2v433.75h-222.76v-433.75h-60.2v433.75h-68.67v47.57h68.67v22.02
c0 61.67 15.33 120.67 55.99 161.67c26.66 27.66 65.98 44.99 114.62 44.99c33 0 67.67 -13.34 85.67 -23.01l-20.65 -46.91c-17.01 10.01 -42.69 20.35 -67.7 20.35c-31.35 0 -54.03 -10.67 -70.37 -29.35c-28.02 -30.02 -37.36 -80.05 -37.36 -129.42v-20.34h222.76v29.35
c0 124.65 63.94 210.33 193.24 210.33c42.66 0 90.65 -14.34 113.97 -32.34z" />
    <glyph glyph-name="f_f_j" unicode="&#xe003;" horiz-adv-x="777" 
d="M673.51 688.66l-23.32 -46.57c-21.33 14.67 -57.33 28.68 -97.33 28.68c-98.36 0 -125.69 -75.05 -125.69 -162.77v-26.68h274.63v-444.36c0 -88.64 -10.98 -148.3 -53.31 -192.97c-35.65 -38.33 -96.97 -52.32 -133.92 -52.99l-6.99 48.9
c41.34 2.33 77.01 14.67 98.68 39.01c24.67 29.34 35.01 67.34 35.01 190.71v364.13h-213.77v-433.75h-61.2v433.75h-222.76v-433.75h-60.2v433.75h-68.67v47.57h68.67v22.02c0 61.67 15.33 120.67 55.99 161.67c26.66 27.66 65.98 44.99 114.62 44.99
c33 0 67.67 -13.34 85.67 -23.01l-20.65 -46.91c-17.01 10.01 -42.69 20.35 -67.7 20.35c-31.35 0 -54.03 -10.67 -70.37 -29.35c-28.02 -30.02 -37.36 -80.05 -37.36 -129.42v-20.34h222.76v29.35c0 124.65 63.94 210.33 193.24 210.33c42.66 0 90.65 -14.34 113.97 -32.34
z" />
    <glyph glyph-name="f_f_l" unicode="&#xfb04;" horiz-adv-x="780" 
d="M338.95 689.99l-20.32 -47.24c-19.34 11.01 -43.02 17.68 -66.03 17.68c-31.68 0 -55.36 -10.67 -71.7 -29.35c-28.02 -29.35 -37.36 -77.05 -37.36 -128.42v-21.34h222.76v21c0 73.03 21.99 131.69 66.32 172.36c33.65 29.32 78.96 46.32 142.27 46.32
c49.3 0 95.94 -11.33 127.58 -27.98v-693.02h-60.87v657.42c-16.67 8 -40.68 14.34 -78.36 14.34c-103.73 0 -136.07 -77.05 -136.07 -163.76v-26.68h123.38v-47.57h-123.05v-433.75h-61.2v433.75h-222.76v-433.75h-60.2v433.75h-68.67v47.57h68.67v14.01
c0 61.66 11.99 126.34 53.99 169.35c27.65 27.99 67.96 45.32 118.94 45.32c34.01 0 67.68 -12.34 82.68 -20.01z" />
    <glyph glyph-name="f_i" horiz-adv-x="496" 
d="M143.54 0h-60.2v433.75h-68.67v47.57h68.67v29.35c0 124.65 62.94 210.33 192.91 210.33c42.32 0 91.3 -14.67 114.29 -32.67l-22.99 -46.9c-20.33 15 -57.66 29.34 -98.65 29.34c-97.69 0 -125.36 -75.05 -125.36 -162.77v-26.68h274.97v-481.32h-60.87v433.75h-214.1
v-433.75z" />
    <glyph glyph-name="f_j" unicode="&#xe004;" horiz-adv-x="495" 
d="M143.54 0h-60.2v433.75h-68.67v47.57h68.67v29.35c0 124.65 62.94 210.33 192.91 210.33c42.32 0 91.3 -14.67 114.29 -32.67l-22.99 -46.9c-20.33 15 -57.66 29.34 -98.65 29.34c-97.69 0 -125.36 -75.05 -125.36 -162.77v-26.68h274.97v-444.36
c0 -88.64 -11.65 -148.3 -53.31 -192.97c-35.99 -38.33 -97.64 -52.32 -133.92 -52.99l-6.99 48.9c41 2.33 76.34 14.67 98.01 39.01c25.34 29.34 35.34 67.34 35.34 190.71v364.13h-214.1v-433.75z" />
    <glyph glyph-name="f_l" horiz-adv-x="496" 
d="M143.54 0h-60.2v433.75h-68.67v47.57h68.67v21c0 73.03 21.66 131.69 65.32 172.36c33.98 29.32 79.29 46.32 142.94 46.32c49.3 0 95.6 -11.33 126.91 -27.98v-693.02h-60.2v657.42c-17.01 8 -41.35 14.34 -78.03 14.34c-104.06 0 -136.74 -77.05 -136.74 -163.76
v-26.68h123.72v-47.57h-123.72v-433.75z" />
    <glyph glyph-name="ij" unicode="&#x133;" horiz-adv-x="440" 
d="M138.89 0h-60.53v481.32h60.53v-481.32zM108.96 664.28c26.3 0 43.28 -20.65 43.28 -46.29c0.33 -24.64 -16.98 -45.29 -45.28 -45.29c-24.97 0 -42.28 20.65 -42.28 45.29c0 24.97 18.98 46.29 44.28 46.29zM176.56 -209l-7.32 48.9c41.67 2.33 77.01 14.67 98.68 39.01
c24.67 29.34 35.34 67.34 35.34 190.71v411.7h60.53v-444.36c0 -88.64 -10.98 -148.3 -53.31 -192.97c-35.65 -38.33 -96.97 -52.32 -133.92 -52.99zM334.86 664.28c25.3 0 42.28 -21.32 42.28 -46.29c0 -23.64 -15.98 -45.29 -44.95 -45.29
c-25.63 0 -42.61 21.65 -42.61 45.29c0 24.97 18.98 46.29 45.28 46.29z" />
    <glyph glyph-name="zero.slash" unicode="&#xf638;" horiz-adv-x="496" 
d="M129.25 138.52l219.09 418.89c-23.35 34.68 -56.03 55.02 -100.05 55.02c-90.71 0 -148.4 -115.72 -150.07 -283.76c0 -76.4 10.68 -141.12 31.03 -190.15zM371 509.14l-218.75 -418.55c24.01 -34.01 56.36 -52.35 94.04 -52.35c103.06 0 151.07 117.06 151.07 290.43
c0 70.06 -8.34 132.11 -26.36 180.47zM254.63 661c122.26 0 204.28 -108.6 204.28 -327.66c0 -229.04 -83.34 -344.34 -217.96 -344.34c-109.58 0 -200.94 105.6 -203.61 333.33c0 230.73 100.7 338.67 217.29 338.67z" />
    <glyph glyph-name="Euro" unicode="&#x20ac;" horiz-adv-x="496" 
d="M469.62 75.91l14.32 -43.57c-29.66 -21.67 -79.65 -43.34 -146.32 -43.34c-74.3 0 -138.93 27.65 -186.25 78.95c-42.02 44.68 -69.7 109.38 -78.03 188.75h-61.33v40.96h57.67v13.66c0 18.01 1 35.02 2 51.03h-59.67v41.29h66c11.33 76.7 43.34 138.72 87.36 182.4
c48.32 47.64 107.29 74.96 183.26 74.96c59.67 0 102.32 -17.67 126.97 -32.67l-16.65 -46.57c-25 16.34 -67 29.34 -112 29.34c-56.68 0 -101.35 -19.67 -136.69 -54.33c-36.03 -34.36 -60.05 -88.74 -71.39 -153.13h291.73v-41.29h-298.05
c-1.67 -14.34 -2 -30.68 -2 -46.69v-18h300.05v-40.96h-296.4c8.67 -69.39 31.35 -120.43 64.38 -155.79c38.34 -41.01 89.68 -60.68 145.69 -60.68c56.35 0 101.68 21.34 125.35 35.68z" />
    <glyph glyph-name="Aringacute" unicode="&#x1fa;" horiz-adv-x="593" 
d="M304.63 691.33c-51.31 0 -83.63 31.99 -83.63 72.31c0 40.99 31.99 74.31 84.63 74.31c49.97 0 82.3 -32.99 82.3 -74.31c0 -41.32 -34.66 -72.31 -83.3 -72.31zM303.63 722.97c27 0 44.67 16 44.67 41.67c0 24.34 -17.67 43.34 -45 43.34
c-27 0 -43.34 -20.67 -43.34 -44.34c0 -22.67 18.34 -40.67 43.67 -40.67zM366.67 940.61h92.56l-140.32 -83.99h-57.57zM427.35 228.08h-257.76l-78.71 -228.08h-62.53l239.05 674h65.47l238.71 -674h-63.52zM185.58 277.32h225.78l-76.72 214.77
c-15.67 46.01 -25 81.99 -35 120.32h-2c-10 -39.33 -21 -76.31 -34.67 -118.65z" />
    <glyph glyph-name="estimated" unicode="&#x212e;" horiz-adv-x="817" 
d="M782 316h-605c-3 0 -5 -1 -5 -4v-183c0 -8 4 -15 9 -21c57 -61 139 -99 229 -99c96 0 182 43 240 111h55c-68 -79 -176 -131 -296 -131c-206 0 -374 150 -374 336s168 336 374 336s373 -150 373 -336v-9zM646 340v184c0 9 -4 16 -10 22c-58 58 -138 95 -226 95
c-90 0 -170 -38 -228 -98c-6 -6 -10 -14 -10 -23v-180c0 -3 2 -5 5 -5h464c3 0 5 2 5 5z" />
    <glyph glyph-name="zero.oldstyle" unicode="&#xf730;" horiz-adv-x="517" 
d="M258.97 -11c-109.26 0 -214.95 81.95 -214.95 251.66c0 165.04 105.02 251.66 214.95 251.66c109.26 0 214.95 -82.28 214.95 -251.66c0 -165.37 -105.36 -251.66 -214.95 -251.66zM258.97 37.91c97.71 0 154.74 88.38 154.74 202.75
c0 114.37 -57.36 203.42 -154.74 203.42c-98.05 0 -155.41 -89.05 -155.41 -203.42c0 -114.37 58.03 -202.75 155.41 -202.75z" />
    <glyph glyph-name="one.oldstyle" unicode="&#xf731;" horiz-adv-x="341" 
d="M237.54 0h-58.54v431.11h-2l-138.35 -65.68l-12.65 45.57l158.64 73.66h52.9v-484.66z" />
    <glyph glyph-name="two.oldstyle" unicode="&#xf732;" horiz-adv-x="436" 
d="M406.6 0h-382.6v34.6l43.98 31.32c161.05 107.04 242.42 181.41 242.42 270.12c0 71.7 -50.69 106.05 -116.04 106.05c-56.02 0 -107.7 -26.35 -143.37 -53.36l-18.98 40.25c36.34 28.34 98.99 63.34 175.64 63.34c92.62 0 163.28 -53.65 163.28 -150.98
c0 -94.01 -73.34 -164.02 -191.74 -249.41l-54.35 -41.02v-2.33c19.31 0.99 44.61 1.99 71.62 1.99h210.14v-50.57z" />
    <glyph glyph-name="three.oldstyle" unicode="&#xf733;" horiz-adv-x="417" 
d="M16.33 -92.65l8.32 46.24c23.66 -8.33 65.66 -16.67 105.65 -16.67c108.38 0 185.08 56.71 185.08 137.08c0 70.37 -65.36 113.39 -163.39 113.39c-24.34 0 -44.34 -1 -55.67 -2.67l-2 47.92l15.65 1.33c101.04 7.67 175.06 49.7 175.06 119.07
c0 60.7 -44.02 90.38 -113.71 90.38c-52.34 0 -100.34 -23.34 -121.66 -35l-14.65 40.91c26.31 18.32 85.29 42.99 148.61 42.99c95.3 0 162.61 -48.99 162.61 -128.97c0 -68.67 -49.33 -117.33 -117.33 -138.67v-3c79.67 -11 148.34 -59 148.34 -145.34
c0 -111.65 -110.97 -188.32 -243.29 -188.32c-45.97 0 -97.3 10 -117.62 19.33z" />
    <glyph glyph-name="four.oldstyle" unicode="&#xf734;" horiz-adv-x="483" 
d="M465.58 58.04h-96.36v-169.69h-57.21v169.69h-295.35v40.25l294.41 392.71h58.15v-384.05h96.36v-48.91zM312.01 106.95v228.81c0 30.99 -0.67 57.64 2.33 87.3l-4 1c-15.33 -29.99 -32.99 -58.97 -50.65 -85.29l-177.47 -229.49l1.33 -2.33h228.46z" />
    <glyph glyph-name="five.oldstyle" unicode="&#xf735;" horiz-adv-x="431" 
d="M41.36 -94.65l8.32 45.58c23 -7.67 63.33 -13.67 99.99 -13.67c91.7 0 178.07 51.03 178.07 145.75c0 31.68 -13.34 60.03 -35.02 81.71c-43.69 43.02 -132.74 54.35 -234.03 45.01l50.66 271.59h271.59l-8.99 -50.56h-219.68l-34.02 -171.44
c81.66 2.67 170.01 -7.32 225.02 -60.33c30 -29 46 -71.34 46 -110.32c0 -124.34 -106.35 -199.98 -243.96 -199.98c-38.64 0 -80.29 6.66 -103.95 16.66z" />
    <glyph glyph-name="six.oldstyle" unicode="&#xf736;" horiz-adv-x="507" 
d="M418.6 601.98l5.33 -46.91c-182.01 -13.01 -282.04 -118.73 -307.05 -250.82l3.67 0.67c26.34 40.69 81.69 83.05 156.05 83.05c99.32 0 183.65 -73 183.65 -190.66c0 -134.67 -101.32 -208.31 -194.6 -208.31c-125.63 0 -213.29 96.32 -213.29 241.31
c0 204.99 140.31 353.98 366.24 371.67zM264.31 37.24c66.37 0 135.74 52.36 135.74 157.41c0 90.04 -54.36 146.4 -136.07 146.4c-49.02 0 -90.71 -26.35 -109.38 -46.35c-30.36 -30.36 -39.7 -57.04 -39.7 -95.4c0 -84.35 59.7 -162.06 149.41 -162.06z" />
    <glyph glyph-name="seven.oldstyle" unicode="&#xf737;" horiz-adv-x="408" 
d="M386.24 481.32v-40.59c-63.34 -168.36 -186.02 -395.04 -287.69 -551.71l-55.87 14.33c80.66 115.65 228.03 383.07 280.36 524.41v2.67h-305.37v50.89h368.57z" />
    <glyph glyph-name="eight.oldstyle" unicode="&#xf738;" horiz-adv-x="497" 
d="M318.88 316.65v-2.33c81.36 -27.67 133.69 -83.35 133.69 -153.01c0 -105.99 -95.32 -172.31 -204.6 -172.31c-119.97 0 -203.62 68.33 -203.62 162.65c0 75.01 54.35 127.68 130.36 162.02v2.33c-57 21.99 -105.69 64.66 -105.69 130.34
c0 92.65 85.33 155.97 185.61 155.97c99.6 0 174.94 -62.31 174.94 -147.65c0 -55.32 -31.65 -101.33 -110.69 -138.01zM252.96 557.05c-66.36 0 -124.4 -39.01 -124.4 -105.05c0 -60.7 49.69 -95.37 132.06 -117.38c61.37 18.01 109.73 56.02 109.73 118.72
c0 69.03 -58.03 103.71 -117.39 103.71zM246.96 36.59c80.38 0 143.75 46.35 143.75 117.39c0 69.7 -55.02 113.71 -157.41 141.06c-75.38 -24.68 -126.41 -74.7 -126.41 -136.4c0 -72.37 52.69 -122.05 140.07 -122.05z" />
    <glyph glyph-name="nine.oldstyle" unicode="&#xf739;" horiz-adv-x="507" 
d="M82.67 -111.98l-5.33 47.58c173.01 7.67 280.71 102.39 307.71 234.46h-2c-20 -37.69 -78.35 -76.38 -151.04 -76.38c-96.98 0 -184.32 67.65 -184.32 191c0 116.98 89.64 207.64 204.94 207.64c106.61 0 201.95 -78.29 201.95 -232.63
c0 -207.28 -138.95 -360.66 -371.91 -371.67zM243.96 140.27c59.04 0 111.73 34.69 132.74 73.71c10.34 15.01 17.01 37.68 17.01 64.69c0 100.72 -67.71 165.08 -145.08 165.08c-66.36 0 -139.74 -48.35 -139.74 -153.74c0 -104.06 64.04 -149.74 135.07 -149.74z" />
    <glyph glyph-name="percent.oldstyle" unicode="&#xf642;" horiz-adv-x="787" 
d="M177.3 597.64c82.29 0 140.28 -64.64 140.28 -194c0 -137.67 -65.97 -204.33 -145.28 -204.33c-74.3 0 -140.95 61.65 -141.95 195.33c-0.67 136.03 71 203 146.95 203zM174.63 557.37c-59.02 0 -92.37 -71.03 -92.37 -159.06c-1.67 -88.7 32.68 -158.73 91.37 -158.73
c65.03 0 92.71 70.04 92.71 160.73c0 85.03 -24.68 157.06 -91.71 157.06zM239.56 -12.67h-45.28l352.67 616.65h44.95zM617.22 392c82.29 0 139.95 -64.64 139.95 -194c0 -137.67 -65.97 -204.33 -145.62 -204.33c-73.63 0 -140.61 61.65 -141.28 195
c-1 137.03 71 203.33 146.95 203.33zM614.22 351.73c-59.02 0 -92.04 -70.36 -93.04 -159.06c-1 -89.03 33.68 -158.73 92.37 -158.73c64.7 0 92.04 70.04 92.04 160.73c0 85.03 -24.34 157.06 -91.37 157.06z" />
    <glyph glyph-name="zero.fitted" unicode="&#xf639;" horiz-adv-x="496" 
d="M254.63 661c122.26 0 204.28 -108.6 204.28 -327.66c0 -229.04 -83.34 -344.34 -217.96 -344.34c-109.58 0 -200.94 105.6 -203.61 333.33c0 230.73 100.7 338.67 217.29 338.67zM248.29 612.43c-85.04 0 -149.08 -104.05 -149.08 -291.1
c0 -177.04 58.7 -283.09 148.08 -283.09c102.06 0 149.08 117.06 149.08 290.43c0 166.7 -44.35 283.76 -148.08 283.76z" />
    <glyph glyph-name="one.fitted" unicode="&#xf6dc;" horiz-adv-x="303" 
d="M148.99 0v590.78h-2l-108.31 -62.34l-13.65 47.57l129.94 73.99h53.56v-650h-59.54z" />
    <glyph glyph-name="two.fitted" unicode="&#xf63a;" horiz-adv-x="427" 
d="M399.24 0h-396.24v37.92l62.97 63.65c176.05 170.73 254.06 259.42 254.06 366.8c0 71.36 -31 140.4 -136.71 140.4c-61.34 0 -109.34 -31.34 -138 -55.67l-21.97 42.57c42.66 38 101.97 65.33 171.61 65.33c136.65 0 186.94 -100.02 186.94 -182.3
c0 -125.36 -91.02 -226.38 -245.44 -377.81l-47.65 -47.33v-2h310.43v-51.56z" />
    <glyph glyph-name="three.fitted" unicode="&#xf63b;" horiz-adv-x="430" 
d="M7 33l20.65 47.9c24 -16 79.99 -41 141.32 -41c126.07 0 160.06 85.4 159.06 142.08c-1.67 102.39 -91.71 145.41 -183.41 145.41h-43.64v47.91h44.98c69.36 0 157.06 38.36 157.06 124.74c0 57.36 -33.67 110.06 -122.04 110.06c-50.66 0 -98.65 -23 -127.32 -44.34
l-20.65 44.57c31.99 25 93.63 50.67 157.27 50.67c124.31 0 174.94 -76.67 174.94 -152.32c0 -66.33 -41.67 -124.67 -120.67 -153.67v-2c81.34 -16 146.34 -77.34 146.34 -170.35c0 -99.31 -73.29 -193.66 -224.94 -193.66c-68.31 0 -129.63 23 -158.95 44z" />
    <glyph glyph-name="four.fitted" unicode="&#xf63c;" horiz-adv-x="485" 
d="M374.56 0h-58.21v186.38h-307.36v40.58l307.42 423.04h58.15v-414.05h96.36v-49.57h-96.36v-186.38zM75.88 235.95h240.47v247.82c0 31.99 0.33 63.31 3 93.96l-3.67 0.67c-20.33 -37.33 -34.66 -61.31 -51.32 -86.62l-188.48 -253.83v-2z" />
    <glyph glyph-name="five.fitted" unicode="&#xf63d;" horiz-adv-x="441" 
d="M389.25 650v-52.56h-245.32l-29.69 -195.14c15 2.67 29.67 4.67 57.02 4.67c45.98 0 89.28 -9.66 127.27 -30.31c50.67 -26.32 98.36 -83.66 98.36 -168.34c0 -129.01 -98.99 -219.32 -225.92 -219.32c-68.32 0 -125.64 20.67 -154.63 41.34l19.99 47.57
c25.66 -16.67 76.65 -38.01 136.32 -38.01c90.37 0 163.38 64.72 163.38 159.09c-1 90.7 -58.34 158.07 -188.34 158.07c-38.34 0 -68.68 -4 -91.34 -7l42 299.94h290.9z" />
    <glyph glyph-name="six.fitted" unicode="&#xf63e;" horiz-adv-x="498" 
d="M401.25 660.67l0.67 -53.24c-18.67 0.33 -43.01 -0.67 -69.35 -5.34c-139.34 -27.02 -217.7 -141.42 -230.69 -262.49h2.33c30.33 45.69 87.68 85.72 164.37 85.72c118.35 0 194.66 -86.35 194.66 -209.33c0 -114.98 -74.3 -226.99 -207.29 -226.99
c-124.26 0 -217.27 99.29 -217.27 274.32c0 130.01 46 231.01 107.32 294.34c49.31 50.32 116.62 83.99 190.58 96.67c25.33 4.67 48 6.34 64.67 6.34zM257.96 38.24c84.71 0 143.08 69.7 143.08 173.42c0 107.07 -62.38 164.41 -149.41 164.41
c-58.36 0 -114.06 -35.68 -141.41 -89.38c-6 -10.67 -10.67 -23.67 -10.67 -38.33c0.66 -123.08 56.36 -210.12 158.41 -210.12z" />
    <glyph glyph-name="seven.fitted" unicode="&#xf63f;" horiz-adv-x="390" 
d="M0.33 650h389.9v-42.59l-289.7 -607.41h-61.19l287.03 597.11v2h-326.04v50.89z" />
    <glyph glyph-name="eight.fitted" unicode="&#xf640;" horiz-adv-x="496" 
d="M246.96 -11c-122.6 0 -207.28 76.31 -207.28 173.99c0 83.34 50.34 143.35 133.69 178.69l-1 3.67c-76.02 34 -107.69 90.67 -107.69 146.67c0 99.65 82.98 168.98 190.95 168.98c114.61 0 177.61 -74.98 177.61 -156.65c0 -55 -26.33 -116.01 -111.69 -155.35v-3.67
c87.7 -34.68 135.02 -94.36 135.02 -170.68c0 -110.99 -95.66 -185.65 -209.61 -185.65zM247.62 36.92c89.72 0 147.42 54.36 147.42 130.07c0 87.71 -60.36 127.72 -159.75 156.07c-86.72 -25.35 -133.08 -81.38 -133.08 -149.41
c-3.67 -73.37 51.69 -136.73 145.41 -136.73zM250.63 614.08c-81.71 0 -127.07 -53.36 -127.07 -115.39c0 -73.71 53.69 -111.39 137.4 -132.73c64.04 22.35 112.4 65.03 112.4 132.74c0 56.02 -34.35 115.38 -122.73 115.38z" />
    <glyph glyph-name="nine.fitted" unicode="&#xf641;" horiz-adv-x="501" 
d="M99.35 -10.67v53.24c18.33 -2 42.34 0 72.34 4.34c52.34 8.34 101.01 32.02 140.02 71.71c42.33 44.36 74.67 106.72 86.67 195.11l-2.33 -0.67c-39.35 -50.03 -95.37 -79.38 -163.05 -79.38c-119.68 0 -187.98 93.36 -187.98 198.33
c0 120.32 84.31 228.99 213.29 228.99c118.26 0 201.6 -99.29 201.6 -271.99c0 -145.68 -50.01 -246.35 -111.33 -307.01c-44.64 -45.65 -106.94 -75.65 -164.21 -84.99c-34.01 -6.34 -63.35 -8.68 -85.02 -7.68zM249.97 612.09c-85.05 0 -144.08 -74.71 -144.08 -176.76
c0 -91.05 56.37 -152.07 139.07 -152.07c65.7 0 119.07 33.69 146.09 79.39c4.33 7.33 8 16.66 8 29.32c0 128.42 -47.7 220.12 -149.08 220.12z" />
    <glyph glyph-name="zero.slashfitted" unicode="&#xe008;" horiz-adv-x="496" 
d="M129.25 138.52l219.09 418.89c-23.35 34.68 -56.03 55.02 -100.05 55.02c-90.71 0 -148.4 -115.72 -150.07 -283.76c0 -76.4 10.68 -141.12 31.03 -190.15zM371 509.14l-218.75 -418.55c24.01 -34.01 56.36 -52.35 94.04 -52.35c103.06 0 151.07 117.06 151.07 290.43
c0 70.06 -8.34 132.11 -26.36 180.47zM254.63 661c122.26 0 204.28 -108.6 204.28 -327.66c0 -229.04 -83.34 -344.34 -217.96 -344.34c-109.58 0 -200.94 105.6 -203.61 333.33c0 230.73 100.7 338.67 217.29 338.67z" />
    <glyph glyph-name="zero.taboldstyle" unicode="&#xf643;" horiz-adv-x="517" 
d="M258.97 -11c-109.26 0 -214.95 81.95 -214.95 251.66c0 165.04 105.02 251.66 214.95 251.66c109.26 0 214.95 -82.28 214.95 -251.66c0 -165.37 -105.36 -251.66 -214.95 -251.66zM258.97 37.91c97.71 0 154.74 88.38 154.74 202.75
c0 114.37 -57.36 203.42 -154.74 203.42c-98.05 0 -155.41 -89.05 -155.41 -203.42c0 -114.37 58.03 -202.75 155.41 -202.75z" />
    <glyph glyph-name="one.taboldstyle" unicode="&#xf644;" horiz-adv-x="517" 
d="M345.9 0h-58.2v432.1h-2l-191.36 -89.36l-13.66 45.57l212.99 96.35h52.23v-484.66z" />
    <glyph glyph-name="two.taboldstyle" unicode="&#xf645;" horiz-adv-x="517" 
d="M450.61 0h-382.6v34.6l44.31 31.32c160.72 107.04 242.09 181.41 242.09 270.12c0 71.7 -50.36 106.05 -116.04 106.05c-55.69 0 -107.7 -26.35 -143.04 -53.36l-19.31 40.25c36.67 28.34 98.99 63.34 175.97 63.34c92.29 0 162.95 -53.65 162.95 -150.98
c0 -94.01 -73.34 -164.02 -191.74 -249.41l-54.35 -41.02v-2.33c19.64 0.99 44.61 1.99 71.95 1.99h209.81v-50.57z" />
    <glyph glyph-name="three.taboldstyle" unicode="&#xf646;" horiz-adv-x="517" 
d="M62.67 -92.65l7.99 46.24c24.33 -8.33 66.33 -16.67 106.32 -16.67c108.38 0 185.08 56.71 185.08 137.08c0 70.37 -65.36 113.39 -164.06 113.39c-23.34 0 -43.34 -1 -55 -2.67l-2 47.92l14.98 1.33c101.37 7.67 175.39 49.7 175.39 119.07
c0 60.7 -44.35 90.38 -113.04 90.38c-53.01 0 -100.67 -23.34 -122.66 -35l-13.98 40.91c25.64 18.32 84.95 42.99 148.94 42.99c94.3 0 161.61 -48.99 161.61 -128.97c0 -68.67 -48.66 -117.33 -117.33 -138.67v-3c79.67 -11 149.01 -59 149.01 -145.34
c0 -111.65 -110.64 -188.32 -243.63 -188.32c-45.3 0 -96.96 10 -117.62 19.33z" />
    <glyph glyph-name="four.taboldstyle" unicode="&#xf647;" horiz-adv-x="517" 
d="M482.93 58.04h-96.36v-169.69h-57.21v169.69h-295.35v40.25l294.41 392.71h58.15v-384.05h96.36v-48.91zM329.36 106.95v228.81c0 30.99 -0.67 57.64 2.33 87.3l-4 1c-15.33 -29.99 -32.99 -58.97 -50.65 -85.29l-177.47 -229.49l1.33 -2.33h228.46z" />
    <glyph glyph-name="five.taboldstyle" unicode="&#xf648;" horiz-adv-x="517" 
d="M81.35 -94.65l8.32 45.58c23.67 -7.67 63.33 -13.67 99.99 -13.67c91.7 0 178.07 51.03 178.07 145.75c0 31.68 -13.01 60.03 -35.02 81.71c-43.02 43.02 -132.07 54.35 -233.03 45.01l50.33 271.59h270.92l-8.99 -50.56h-219.01l-34.36 -171.44
c81.33 2.67 170.35 -7.32 224.69 -60.33c30.67 -29 46 -71.34 46 -110.32c0 -124.34 -106.35 -199.98 -243.29 -199.98c-39.31 0 -80.96 6.66 -104.62 16.66z" />
    <glyph glyph-name="six.taboldstyle" unicode="&#xf649;" horiz-adv-x="517" 
d="M428.94 601.98l5.33 -46.91c-182.01 -13.01 -282.71 -118.73 -307.05 -250.82l3.67 0.67c26 40.69 81.02 83.05 156.38 83.05c98.32 0 183.32 -73 183.32 -190.66c0 -134.67 -101.32 -208.31 -195.27 -208.31c-125.63 0 -213.29 96.32 -213.29 241.31
c0 204.99 140.64 353.98 366.91 371.67zM274.65 37.24c66.7 0 135.07 52.36 135.07 157.41c0 90.04 -54.36 146.4 -135.07 146.4c-50.02 0 -90.71 -26.35 -110.38 -46.35c-29.69 -30.36 -38.7 -57.04 -38.7 -95.4c0 -84.35 59.37 -162.06 149.08 -162.06z" />
    <glyph glyph-name="seven.taboldstyle" unicode="&#xf64a;" horiz-adv-x="517" 
d="M438.59 481.32v-40.59c-63.34 -168.36 -186.69 -395.04 -287.69 -551.71l-55.87 14.33c80.66 115.65 228.03 383.07 280.36 524.41v2.67h-305.71v50.89h368.91z" />
    <glyph glyph-name="eight.taboldstyle" unicode="&#xf64b;" horiz-adv-x="517" 
d="M327.22 316.65v-2.33c81.36 -27.67 133.69 -83.35 133.69 -153.01c0 -105.99 -95.32 -172.31 -205.27 -172.31c-119.63 0 -202.95 68.33 -202.95 162.65c0 75.01 53.68 127.68 130.36 162.02v2.33c-57 21.99 -105.69 64.66 -105.69 130.34
c0 92.65 84.66 155.97 184.94 155.97c99.94 0 175.61 -62.31 175.61 -147.65c0 -55.32 -31.65 -101.33 -110.69 -138.01zM261.3 557.05c-66.36 0 -124.4 -39.01 -124.4 -105.05c0 -60.7 49.69 -95.37 131.39 -117.38c61.04 18.01 110.07 56.02 110.07 118.72
c0 69.03 -57.7 103.71 -117.06 103.71zM255.3 36.59c79.71 0 143.75 46.35 143.75 117.39c0 69.7 -55.69 113.71 -158.08 141.06c-74.71 -24.68 -126.41 -74.7 -126.41 -136.4c0 -72.37 53.36 -122.05 140.74 -122.05z" />
    <glyph glyph-name="nine.taboldstyle" unicode="&#xf64c;" horiz-adv-x="517" 
d="M91.01 -111.98l-5.33 47.58c173.01 7.67 280.38 102.39 307.71 234.46h-2c-20 -37.69 -77.68 -76.38 -150.37 -76.38c-97.65 0 -184.99 67.65 -184.99 191c0 116.98 89.64 207.64 204.61 207.64c107.61 0 202.28 -78.29 202.28 -232.63
c0 -207.28 -139.28 -360.66 -371.91 -371.67zM252.3 140.27c59.04 0 112.07 34.69 132.41 73.71c10.67 15.01 18.01 37.68 18.01 64.69c0 100.72 -68.38 165.08 -145.08 165.08c-66.36 0 -140.74 -48.35 -140.74 -153.74c0 -104.06 64.37 -149.74 135.4 -149.74z" />
    <glyph glyph-name="dollar.taboldstyle" unicode="&#xf653;" horiz-adv-x="517" 
d="M282.27 -78.32h-43.6v77.99c-49.98 0.33 -108.64 14.99 -141.3 37.66l21.32 43.58c26.32 -20 79.97 -34.66 127.97 -34.66c62.69 0 118.73 33.03 118.73 84.4c0 46.7 -35.7 70.05 -107.37 94.72c-98.31 33.66 -150.32 67.32 -150.32 133.31
c0 64.66 57.33 113.32 137.64 121.98v81.98h44.27v-80.99c52.66 -1.33 95.65 -17.33 118.64 -30.66l-20.65 -44.59c-23 14 -65.99 29.33 -113.32 29.33c-58.69 0 -106.05 -29.36 -106.05 -71.72c0 -40.69 27.02 -62.71 116.37 -92.38
c93.97 -31.33 141.98 -72.99 141.98 -137.32c0 -61.66 -53 -121.32 -144.31 -133.31v-79.32z" />
    <glyph glyph-name="cent.taboldstyle" unicode="&#xf654;" horiz-adv-x="517" 
d="M392.95 119.62l11.99 -44.93c-14.99 -8.33 -54.66 -23.34 -101.34 -25.34v-71.33h-42.94v71.66c-105.99 10.66 -178.32 80.32 -178.32 193.65c0 110.01 74.34 188.33 178.32 201.65v66.66h42.94v-65.33c43.35 0 82.69 -12.34 102.02 -22.01l-14.66 -44.59
c-21.34 12.34 -55.01 20.01 -99.36 20.01c-88.02 0 -149.38 -62.36 -149.38 -153.06c0 -97.03 64.35 -149.72 144.04 -149.72c51.02 0 85.69 12.34 106.69 22.68z" />
    <glyph glyph-name="Euro.taboldstyle" unicode="&#xf64e;" horiz-adv-x="517" 
d="M453.94 66.25l10.66 -43.58c-20.99 -14.33 -73.32 -33.67 -133.65 -33.67c-61.31 0 -124.97 19.99 -172.97 67.99c-30 30 -52 73.34 -60.33 121.68h-61.66v40.29h56c-1 11.67 -1.33 19.34 -1.33 25.34c0 11.34 0.33 24.68 2.33 39.69h-57v39.96h62.66
c11 46.67 33 88.34 63 119.01c51 51 117.32 73.66 182.97 73.66c58.33 0 92.98 -15.67 118.98 -29.34l-15.98 -45.25c-25.68 13.34 -58.68 26.01 -109.36 26.01c-46.01 0 -92.69 -14.67 -130.37 -51.35c-24.02 -23.35 -42.7 -56.38 -48.37 -92.74h265.75v-39.96h-272.4
c-1.67 -12.34 -2.67 -24.01 -2.67 -32.35c0 -9 0 -19.34 1.67 -32.68h273.4v-40.29h-266.75c7.67 -35.03 23.68 -65.39 45.03 -86.07c40.02 -38.35 81.36 -53.69 134.04 -53.69c51.68 0 92.01 15.34 116.35 27.34z" />
    <glyph glyph-name="florin.taboldstyle" unicode="&#xf64f;" horiz-adv-x="517" 
d="M131.35 291.38v44.6h103.02l6 53.67c14.01 112.4 61.69 214.33 180.28 212.66c27.99 0 50.31 -7.33 62.97 -14.33l-12.98 -45.91c-17.01 5.67 -33.68 10.67 -54.68 10.67c-76.04 0 -107.38 -77.06 -116.72 -159.1l-6.33 -57.66h128.37v-44.6h-134.03l-22 -188.03
c-15.67 -132.35 -56.67 -217.33 -164.62 -217c-29.65 0 -54.97 7 -70.97 16.67l13.32 44.24c18.34 -8.67 37.01 -12.34 59.35 -12.67c66.36 0.33 93.04 66.39 104.37 164.03l22.01 192.76h-97.36z" />
    <glyph glyph-name="sterling.taboldstyle" unicode="&#xf651;" horiz-adv-x="517" 
d="M162.88 50.9h300.71v-50.9h-399.25v37.27c69.35 30.01 108.34 77.35 108.34 129.68c0 21.68 -3.67 44.36 -7.67 66.04h-92.34v43.94h83.35c-3 18.01 -5.67 36.69 -5.67 54.03c0 114.33 74.99 187.97 177.26 187.97c50 0 84.32 -12.67 105.65 -25l-16.99 -46.24
c-17.33 10.33 -48.66 21 -92.01 21c-77.02 0 -115.7 -52.35 -115.7 -138.06c0 -18.01 2.67 -36.02 5.67 -53.7h154.35v-43.94h-145.36c3.34 -17.35 6.01 -35.37 6.01 -53.05c0 -55.01 -24.66 -99.69 -66.35 -127.04v-2z" />
    <glyph glyph-name="yen.taboldstyle" unicode="&#xf652;" horiz-adv-x="517" 
d="M286.58 0h-57.88v119.02h-153.67v40.29h153.67v62.68h-153.67v40.29h132.02l-150.67 243.34h67.2l97.06 -165.39c16 -27.32 28.33 -49.98 38.33 -69.96h3c9.66 21.65 26 47.31 41.33 72.63l103.4 162.72h65.54l-162.68 -243.34h131.69v-40.29h-154.67v-62.68h154.67
v-40.29h-154.67v-119.02z" />
    <glyph glyph-name="numbersign.taboldstyle" unicode="&#xf650;" horiz-adv-x="517" 
d="M194.28 219.3h109.36l19.34 158.4h-108.36zM165.96 -0.99h-47.94l22.67 174.69h-83.34v45.6h89.66l19.67 158.4h-86.67v44.93h92.99l22.67 169.69h46.27l-21.33 -169.69h109.36l22 169.69h46.27l-21 -169.69h82.67v-44.93h-88.99l-20.01 -158.4h88.01v-44.93h-94.33
l-22.33 -175.36h-47.94l23 175.36h-109.36z" />
    <glyph glyph-name="zero.superior" unicode="&#x2070;" horiz-adv-x="318" 
d="M156.62 438c-76.61 0 -132.95 68.64 -132.95 198.33c0 130.7 59.01 201.67 138.96 201.67c82.62 0 132.28 -70.64 132.28 -195.99c0 -130.04 -49.67 -204.01 -138.29 -204.01zM158.29 477.28c56.7 0 84.04 62.7 84.04 162.39c0 97.02 -25.67 158.72 -83.04 158.72
c-49.69 0 -83.04 -61.03 -83.04 -158.72c0 -101.36 31.68 -162.39 82.04 -162.39z" />
    <glyph glyph-name="one.superior" horiz-adv-x="221" 
d="M152.88 443h-49.9v342.07h-2l-69.32 -34l-8.99 39.27l85.96 42.66h44.25v-390z" />
    <glyph glyph-name="two.superior" horiz-adv-x="294" 
d="M10.66 443v28.96l63.67 59.34c85.68 79.35 130.02 131.71 130.02 186.06c0 42.02 -24.67 77.71 -83.37 77.71c-35.67 0 -65.67 -19.01 -82.66 -31.67l-16.98 32.6c23.65 22 65.97 42 111.95 42c91.99 0 124.96 -62.68 124.96 -109.65
c0 -77.34 -58.34 -136.36 -140.37 -209.73l-33.68 -32.02v-2h180.38v-41.6h-253.92z" />
    <glyph glyph-name="three.superior" horiz-adv-x="287" 
d="M44.33 769.72l-15.66 36.95c21.66 13.66 59.97 31.33 104.95 31.33c81.98 0 113.29 -46.67 113.29 -92.99c0 -38.66 -27.66 -73 -74.32 -90.67v-2c54.33 -7.67 90.99 -48.01 90.99 -98.01c0 -58.65 -49.97 -116.33 -148.62 -116.33c-45.99 0 -86.64 12.67 -106.63 27
l16.66 38.61c13.99 -10 52.32 -26 90.99 -26c69.71 0 94.7 43.37 93.7 76.38c0 57.7 -57.69 79.04 -114.04 79.04h-25.66v36.62h27.33c38.34 0 96.03 19.68 97.03 72.38c0 26.34 -19.34 56.03 -67.69 56.03c-36 0 -67.66 -17.34 -82.32 -28.34z" />
    <glyph glyph-name="four.superior" unicode="&#x2074;" horiz-adv-x="328" 
d="M252.57 443h-50.25v107.36h-188.33v31.62l182.36 252.35h56.22v-244.69h57.34v-39.28h-57.34v-107.36zM202.32 589.64v135.76c0 20.66 1.33 40.65 2.33 58.31l-2 0.33c-12 -22.66 -21.33 -38.32 -32.66 -55.65l-101.07 -137.08l0.33 -1.67h133.07z" />
    <glyph glyph-name="five.superior" unicode="&#x2075;" horiz-adv-x="291" 
d="M254.6 833v-43.27h-152.32l-15.01 -99.41c8.67 1 18 1.67 33.01 1.67c30.32 0 59.3 -5.33 83.96 -19.32c31 -16.33 58.01 -51 58.01 -102.01c0 -77 -60.99 -132.66 -145.28 -132.66c-43.67 0 -80.65 12.67 -99.31 24.34l13.33 37.94
c16.33 -9.67 48.32 -21.67 85.65 -21.67c50.36 0 93.36 34.03 93.36 86.05c0 50.69 -33.34 88.38 -113 88.38c-23.67 0 -42 -2.67 -57 -4.67l26 184.63h188.6z" />
    <glyph glyph-name="six.superior" unicode="&#x2076;" horiz-adv-x="319" 
d="M255.61 837.67v-42.28c-11 0 -26 0.33 -41.34 -2.34c-82.68 -13.01 -129.02 -74.39 -137.68 -140.42h1c18.33 24.68 52.67 47.36 97.35 47.36c72 0 120.66 -50.67 120.66 -125.33c0 -71.31 -50.63 -136.66 -131.97 -136.66c-82.95 0 -139.96 62.97 -139.96 164.99
c0 76.01 27.67 136.68 66.66 174.01c31.99 31.99 75.31 50.66 125.28 57.33c16 1.67 30 3.34 40 3.34zM163.97 477.28c47.36 0 79.71 40.02 79.71 94.05c0 56.37 -34.36 90.04 -84.71 90.04c-33.01 0 -64.03 -20.67 -79.04 -49.02c-3 -6.67 -5.67 -13.67 -5.67 -22.67
c0 -63.38 31.35 -112.4 89.71 -112.4z" />
    <glyph glyph-name="seven.superior" unicode="&#x2077;" horiz-adv-x="278" 
d="M17.66 833h249.6v-34.29l-174.35 -355.71h-52.91l173.01 346.73v1h-195.35v42.27z" />
    <glyph glyph-name="eight.superior" unicode="&#x2078;" horiz-adv-x="314" 
d="M160.97 838c75.97 0 115.3 -45.99 115.3 -95.66c0 -32.66 -16.66 -69 -65.68 -90.34v-2c49.69 -19.01 80.01 -53.35 80.01 -100.01c0 -67.33 -59 -111.99 -133.96 -111.99c-81.96 0 -132.64 46.98 -132.64 104.33c0 48.67 29 82.34 78.68 103.68v2
c-44.68 19.67 -64.01 52.67 -64.01 86.67c0 60.99 52.65 103.32 122.3 103.32zM156.63 474.95c50.7 0 82.05 31.02 82.05 70.04c0 48.02 -34.01 70.7 -89.05 84.71c-47.36 -12.34 -74.04 -43.36 -74.04 -80.71c0 -39.02 29.68 -74.04 81.04 -74.04zM158.97 801.05
c-46.69 0 -71.37 -29.35 -71.37 -62.37c0 -39.69 29.68 -61.03 76.7 -72.7c35.02 11.34 62.37 34.35 62.37 71.37c0 30.68 -18.67 63.7 -67.7 63.7z" />
    <glyph glyph-name="nine.superior" unicode="&#x2079;" horiz-adv-x="313" 
d="M58 438v41.61c11 -1 26 -0.33 44.01 1.67c31.67 4.34 61 17.35 84 39.03c26 24.01 44 58.03 51.67 104.06l-1.67 0.33c-22.34 -28.02 -54.35 -43.69 -94.69 -43.69c-72.34 0 -117.65 52.68 -117.65 118.66c0 72.99 54.65 138.33 135.64 138.33
c79.95 0 130.62 -63.3 130.62 -164.66c0 -85.68 -30.34 -145.68 -68.33 -182.01c-30.32 -28.32 -72.63 -45.32 -114.25 -50.66c-19.01 -3 -37.01 -3.67 -49.35 -2.67zM154.97 798.39c-47.7 0 -80.38 -41.36 -80.38 -96.39c0 -47.36 31.69 -82.37 79.04 -82.37
c36.35 0 65.37 18.01 80.38 42.36c3 5 4 10.33 4 18.66c0 66.38 -25.35 117.74 -83.04 117.74z" />
    <glyph glyph-name="period.superior" unicode="&#xf6e8;" horiz-adv-x="114" 
d="M56.96 438c-21.31 0 -35.96 16.32 -35.96 36.96c0 21.98 15.65 37.63 36.29 37.63c21.31 0 34.96 -15.65 34.96 -37.63c0 -20.64 -13.65 -36.96 -35.29 -36.96z" />
    <glyph glyph-name="comma.superior" unicode="&#xf6e2;" horiz-adv-x="114" 
d="M40.63 373.32l-37.28 -4.33c13.32 35.96 28.65 99.3 34.98 142.94l58.59 6c-13.99 -51.31 -39.65 -116.65 -56.29 -144.61z" />
    <glyph glyph-name="dollar.superior" unicode="&#xf6e4;" horiz-adv-x="302" 
d="M166.94 392h-36.29v60.01c-35.32 0.33 -71.98 10.66 -93.64 26.33l14.99 39.61c21.99 -15.33 52.98 -27 86.97 -27c44.01 0 73.69 25.02 73.69 59.71c0 33.02 -23.68 52.7 -69.34 70.37c-63.32 25 -100.31 52.67 -100.31 103.99c0 48.99 34.66 86.98 91.31 95.98v60.34
h36.29v-58.68c36.33 -1 61.65 -11 78.98 -21.67l-14.66 -37.61c-11.66 7.67 -38.32 21 -76.64 21c-48.68 0 -65.69 -28.02 -65.69 -52.7c0 -31.02 22.01 -46.03 76 -67.7c62.31 -25.67 93.98 -56 93.98 -109.66c0 -45.99 -32.99 -90.32 -95.64 -100.65v-61.67z" />
    <glyph glyph-name="cent.superior" unicode="&#xf6e0;" horiz-adv-x="308" 
d="M195.95 433.66h-37.29v60.34c-40 5.33 -66.66 19.33 -88.66 42.66c-21 23.33 -34 57.33 -34 100.67c0 78.01 48.01 136.67 122.66 147.66v60.01h37.29v-59.01c28.35 0 52.69 -8.34 67.35 -16.01l-11.66 -38.61c-12.33 7 -33.34 15.34 -65.35 15.34
c-60.69 0 -100.04 -47.03 -100.04 -107.05c0 -66.69 43.68 -105.38 97.7 -105.38c34.35 0 56.02 7.67 71.02 14.34l9.66 -36.28c-11.66 -6.33 -37.33 -16.67 -68.68 -18.34v-60.34z" />
    <glyph glyph-name="hyphen.superior" unicode="&#xf6e6;" horiz-adv-x="184" 
d="M18 644.64h148.3v-38.62h-148.3v38.62z" />
    <glyph glyph-name="parenleft.superior" unicode="&#x207d;" horiz-adv-x="170" 
d="M119.68 868h40.95c-44.69 -59.68 -77.36 -136 -77.36 -244.34c0 -106.67 34.34 -181.33 77.36 -242.34h-40.95c-38.68 50.34 -80.35 125.67 -80.35 242.34c0 116.67 41.67 193.33 80.35 244.34z" />
    <glyph glyph-name="parenright.superior" unicode="&#x207e;" horiz-adv-x="170" 
d="M51.27 381.32h-40.28c43.02 60.34 76.69 136 76.69 243.34c0 107.34 -33 182.66 -76.69 243.34h40.28c38.68 -50.01 80.35 -125.67 80.35 -243.34c0 -115.67 -41.67 -192 -80.35 -243.34z" />
    <glyph glyph-name="zero.inferior" unicode="&#x2080;" horiz-adv-x="318" 
d="M156.62 -152c-76.61 0 -132.95 68.97 -132.95 198.33c0 131.37 59.01 201.67 138.96 201.67c82.62 0 132.28 -70.64 132.28 -195.66c0 -129.37 -49.67 -204.34 -138.29 -204.34zM158.29 -112.39c56.7 0 84.04 63.37 84.04 163.06c0 96.35 -25.67 157.72 -83.04 157.72
c-49.69 0 -83.04 -60.7 -83.04 -157.72c0 -102.36 31.68 -163.06 82.04 -163.06z" />
    <glyph glyph-name="one.inferior" unicode="&#x2081;" horiz-adv-x="221" 
d="M152.88 -147h-49.9v343.07h-2l-69.32 -35l-8.99 39.94l85.96 41.99h44.25v-390z" />
    <glyph glyph-name="two.inferior" unicode="&#x2082;" horiz-adv-x="294" 
d="M10.66 -147v28.96l63.67 60.34c85.68 79.02 130.02 131.38 130.02 185.06c0 42.02 -24.67 78.71 -83.37 78.71c-35.67 0 -65.67 -19.34 -82.66 -32.34l-16.98 32.94c23.65 22.33 65.97 41.33 111.95 41.33c91.99 0 124.96 -61.68 124.96 -109.65
c0 -76.34 -58.34 -135.36 -140.37 -209.73l-33.68 -31.35v-2h180.38v-42.27h-253.92z" />
    <glyph glyph-name="three.inferior" unicode="&#x2083;" horiz-adv-x="287" 
d="M44.33 180.72l-15.66 36.28c21.66 14.33 59.97 31 104.95 31c81.98 0 113.29 -46 113.29 -91.99c0 -38.66 -27.66 -73.33 -74.32 -90.67v-2c54.33 -8.67 90.99 -48.01 90.99 -99.01c0 -58.65 -49.97 -116.33 -148.62 -116.33c-45.99 0 -86.64 13.67 -106.63 28
l16.66 37.94c13.99 -10.33 52.32 -26 90.99 -26c69.71 0 94.7 43.37 93.7 76.38c0 57.37 -57.69 78.71 -114.04 78.71h-25.66v37.29h27.33c38.34 0 96.03 19.68 97.03 72.04c0 26.68 -19.34 55.7 -67.69 55.7c-36 0 -67.66 -16.34 -82.32 -27.34z" />
    <glyph glyph-name="four.inferior" unicode="&#x2084;" horiz-adv-x="328" 
d="M252.57 -147h-50.25v107.69h-188.33v31.29l182.36 252.35h56.22v-244.02h57.34v-39.62h-57.34v-107.69zM202.32 0.31v135.42c0 21.33 1.33 40.99 2.33 58.31l-2 0.67c-12 -22.33 -21.33 -38.32 -32.66 -55.65l-101.07 -137.42l0.33 -1.33h133.07z" />
    <glyph glyph-name="five.inferior" unicode="&#x2085;" horiz-adv-x="291" 
d="M254.6 243v-42.94h-152.32l-15.01 -99.07c8.67 1 18 1.33 33.01 1.33c30.32 0 59.3 -5.33 83.96 -18.65c31 -16.33 58.01 -51.33 58.01 -103.01c0 -76.33 -60.99 -132.66 -145.28 -132.66c-43.67 0 -80.65 12.67 -99.31 24.67l13.33 38.61c16.33 -10 48.32 -22 85.65 -22
c50.36 0 93.36 34.36 93.36 85.38c0 51.69 -33.34 88.71 -113 88.71c-23.67 0 -42 -3 -57 -4l26 183.63h188.6z" />
    <glyph glyph-name="six.inferior" unicode="&#x2086;" horiz-adv-x="319" 
d="M255.61 247.67v-41.28c-11 0 -26 0 -41.34 -2.67c-82.68 -13.68 -129.02 -74.06 -137.68 -140.09h1c18.33 24.68 52.67 47.03 97.35 47.03c72 0 120.66 -51.34 120.66 -125.67c0 -71.64 -50.63 -136.99 -131.97 -136.99c-82.95 0 -139.96 63.97 -139.96 165.66
c0 76.01 27.67 136.34 66.66 174.34c31.99 30.99 75.31 49.99 125.28 56.33c16 2 30 3.67 40 3.34zM163.97 -112.39c47.36 0 79.71 40.02 79.71 94.72c0 56.37 -34.36 89.71 -84.71 89.71c-33.01 0 -64.03 -21.01 -79.04 -49.69c-3 -6 -5.67 -12.67 -5.67 -22.34
c0 -62.71 31.35 -112.4 89.71 -112.4z" />
    <glyph glyph-name="seven.inferior" unicode="&#x2087;" horiz-adv-x="278" 
d="M17.66 243h249.6v-33.62l-174.35 -356.38h-52.91l173.01 346.73v1h-195.35v42.27z" />
    <glyph glyph-name="eight.inferior" unicode="&#x2088;" horiz-adv-x="314" 
d="M160.97 248c75.97 0 115.3 -45.99 115.3 -94.99c0 -32.33 -16.66 -68.67 -65.68 -90.68v-2c49.69 -18.34 80.01 -53.35 80.01 -99.34c0 -68.33 -59 -112.99 -133.96 -112.99c-81.96 0 -132.64 47.65 -132.64 105.33c0 48 29 82.01 78.68 102.68v2.67
c-44.68 19.33 -64.01 52.67 -64.01 86.33c0 60.66 52.65 102.99 122.3 102.99zM156.63 -114.38c50.7 0 82.05 30.35 82.05 70.37c0 47.69 -34.01 69.7 -89.05 84.71c-47.36 -12.67 -74.04 -43.69 -74.04 -80.71c0 -39.02 29.68 -74.37 81.04 -74.37zM158.97 211.38
c-46.69 0 -71.37 -29.35 -71.37 -62.7c0 -39.69 29.68 -60.03 76.7 -71.7c35.02 10.34 62.37 34.35 62.37 71.04c0 30.01 -18.67 63.36 -67.7 63.36z" />
    <glyph glyph-name="nine.inferior" unicode="&#x2089;" horiz-adv-x="313" 
d="M58 -151.67v41.95c11 -1 26 0 44.01 1.67c31.67 4 61 17.01 84 39.36c26 23.68 44 57.36 51.67 103.39h-1.67c-22.34 -27.35 -54.35 -43.36 -94.69 -43.36c-72.34 0 -117.65 53.35 -117.65 119.33c0 72.66 54.65 137.33 135.64 137.33
c79.95 0 130.62 -62.97 130.62 -163.66c0 -85.68 -30.34 -145.68 -68.33 -182.01c-30.32 -28.32 -72.63 -45.99 -114.25 -51.66c-19.01 -2.67 -37.01 -3.34 -49.35 -2.34zM154.97 209.39c-47.7 0 -80.38 -42.36 -80.38 -96.39c0 -48.03 31.69 -82.37 79.04 -82.37
c36.35 0 65.37 18.01 80.38 42.03c3 4.33 4 10.66 4 18.66c0 65.71 -25.35 118.07 -83.04 118.07z" />
    <glyph glyph-name="period.inferior" unicode="&#xf6e7;" horiz-adv-x="114" 
d="M56.96 -152c-21.31 0 -35.96 16.65 -35.96 37.63c0 21.64 15.65 36.96 36.29 36.96c21.31 0 34.96 -15.32 34.96 -36.96c0 -20.98 -13.65 -37.63 -35.29 -37.63z" />
    <glyph glyph-name="comma.inferior" unicode="&#xf6e1;" horiz-adv-x="114" 
d="M40.63 -216.01l-37.28 -4c13.32 35.63 28.65 99.3 34.98 142.94l58.59 5.67c-13.99 -50.98 -39.65 -116.65 -56.29 -144.61z" />
    <glyph glyph-name="dollar.inferior" unicode="&#xf6e3;" horiz-adv-x="302" 
d="M166.94 -198h-36.29v60.34c-35.32 0 -71.98 11.33 -93.64 26.67l14.99 38.94c21.99 -15 52.98 -26.33 86.97 -26.33c44.01 0 73.69 25.02 73.69 59.04c0 33.35 -23.68 52.7 -69.34 71.37c-63.32 24.67 -100.31 51.67 -100.31 103.99c0 48.99 34.66 86.65 91.31 95.31
v60.34h36.29v-58.01c36.33 -1 61.65 -12 78.98 -22l-14.66 -38.28c-11.66 8 -38.32 21.33 -76.64 21.33c-48.68 0 -65.69 -28.02 -65.69 -52.7c0 -30.35 22.01 -46.36 76 -68.03c62.31 -24.67 93.98 -55.33 93.98 -108.66c0 -46.32 -32.99 -91.32 -95.64 -101.65v-61.67z
" />
    <glyph glyph-name="cent.inferior" unicode="&#xf6df;" horiz-adv-x="308" 
d="M195.95 -155.67h-37.29v60.67c-40 5 -66.66 18.66 -88.66 42.66c-21 22.33 -34 57.33 -34 99.67c0 78.68 48.01 137 122.66 148.33v59.67h37.29v-59.01c28.35 0 52.69 -8.34 67.35 -15.67l-11.66 -38.95c-12.33 7.34 -33.34 16.01 -65.35 16.01
c-60.69 0 -100.04 -47.36 -100.04 -107.72c0 -67.02 43.68 -105.71 97.7 -105.71c34.35 0 56.02 8.34 71.02 15.01l9.66 -36.28c-11.66 -6.33 -37.33 -17.01 -68.68 -18.34v-60.34z" />
    <glyph glyph-name="hyphen.inferior" unicode="&#xf6e5;" horiz-adv-x="184" 
d="M18 54.97h148.3v-37.95h-148.3v37.95z" />
    <glyph glyph-name="parenleft.inferior" unicode="&#x208d;" horiz-adv-x="170" 
d="M119.68 278h40.95c-44.69 -59.01 -77.36 -135.67 -77.36 -244.34c0 -106 34.34 -181.33 77.36 -241.34h-40.95c-38.68 50.01 -80.35 125.67 -80.35 241.34c0 117 41.67 194.33 80.35 244.34z" />
    <glyph glyph-name="parenright.inferior" unicode="&#x208e;" horiz-adv-x="170" 
d="M51.27 -207.68h-40.28c43.02 59.34 76.69 135.67 76.69 243.34c0 106.67 -33 182.33 -76.69 242.34h40.28c38.68 -49.34 80.35 -125.67 80.35 -242.34c0 -116.67 -41.67 -193 -80.35 -243.34z" />
    <glyph glyph-name="zero.numerator" unicode="&#xf661;" horiz-adv-x="318" 
d="M156.62 261c-76.61 0 -132.95 68.97 -132.95 198.33c0 131.37 59.01 201.67 138.96 201.67c82.62 0 132.28 -70.64 132.28 -195.66c0 -129.37 -49.67 -204.34 -138.29 -204.34zM158.29 300.61c56.7 0 84.04 63.37 84.04 163.06c0 96.35 -25.67 157.72 -83.04 157.72
c-49.69 0 -83.04 -60.7 -83.04 -157.72c0 -102.36 31.68 -163.06 82.04 -163.06z" />
    <glyph glyph-name="one.numerator" unicode="&#xf662;" horiz-adv-x="221" 
d="M152.88 266h-49.9v343.07h-2l-69.32 -35l-8.99 39.94l85.96 41.99h44.25v-390z" />
    <glyph glyph-name="two.numerator" unicode="&#xf663;" horiz-adv-x="294" 
d="M10.66 266v28.96l63.67 60.34c85.68 79.02 130.02 131.38 130.02 185.06c0 42.02 -24.67 78.71 -83.37 78.71c-35.67 0 -65.67 -19.34 -82.66 -32.34l-16.98 32.94c23.65 22.33 65.97 41.33 111.95 41.33c91.99 0 124.96 -61.68 124.96 -109.65
c0 -76.34 -58.34 -135.36 -140.37 -209.73l-33.68 -31.35v-2h180.38v-42.27h-253.92z" />
    <glyph glyph-name="three.numerator" unicode="&#xf664;" horiz-adv-x="287" 
d="M44.33 593.72l-15.66 36.28c21.66 14.33 59.97 31 104.95 31c81.98 0 113.29 -46 113.29 -91.99c0 -38.66 -27.66 -73.33 -74.32 -90.67v-2c54.33 -8.67 90.99 -48.01 90.99 -99.01c0 -58.65 -49.97 -116.33 -148.62 -116.33c-45.99 0 -86.64 13.67 -106.63 28
l16.66 37.94c13.99 -10.33 52.32 -26 90.99 -26c69.71 0 94.7 43.37 93.7 76.38c0 57.37 -57.69 78.71 -114.04 78.71h-25.66v37.29h27.33c38.34 0 96.03 19.68 97.03 72.04c0 26.68 -19.34 55.7 -67.69 55.7c-36 0 -67.66 -16.34 -82.32 -27.34z" />
    <glyph glyph-name="four.numerator" unicode="&#xf665;" horiz-adv-x="328" 
d="M252.57 266h-50.25v107.69h-188.33v31.29l182.36 252.35h56.22v-244.02h57.34v-39.62h-57.34v-107.69zM202.32 413.31v135.42c0 21.33 1.33 40.99 2.33 58.31l-2 0.67c-12 -22.33 -21.33 -38.32 -32.66 -55.65l-101.07 -137.42l0.33 -1.33h133.07z" />
    <glyph glyph-name="five.numerator" unicode="&#xf666;" horiz-adv-x="291" 
d="M254.6 656v-42.94h-152.32l-15.01 -99.07c8.67 1 18 1.33 33.01 1.33c30.32 0 59.3 -5.33 83.96 -18.65c31 -16.33 58.01 -51.33 58.01 -103.01c0 -76.33 -60.99 -132.66 -145.28 -132.66c-43.67 0 -80.65 12.67 -99.31 24.67l13.33 38.61c16.33 -10 48.32 -22 85.65 -22
c50.36 0 93.36 34.36 93.36 85.38c0 51.69 -33.34 88.71 -113 88.71c-23.67 0 -42 -3 -57 -4l26 183.63h188.6z" />
    <glyph glyph-name="six.numerator" unicode="&#xf667;" horiz-adv-x="319" 
d="M255.61 660.67v-41.28c-11 0 -26 0 -41.34 -2.67c-82.68 -13.68 -129.02 -74.06 -137.68 -140.09h1c18.33 24.68 52.67 47.03 97.35 47.03c72 0 120.66 -51.34 120.66 -125.67c0 -71.64 -50.63 -136.99 -131.97 -136.99c-82.95 0 -139.96 63.97 -139.96 165.66
c0 76.01 27.67 136.34 66.66 174.34c31.99 30.99 75.31 49.99 125.28 56.33c16 2 30 3.67 40 3.34zM163.97 300.61c47.36 0 79.71 40.02 79.71 94.72c0 56.37 -34.36 89.71 -84.71 89.71c-33.01 0 -64.03 -21.01 -79.04 -49.69c-3 -6 -5.67 -12.67 -5.67 -22.34
c0 -62.71 31.35 -112.4 89.71 -112.4z" />
    <glyph glyph-name="seven.numerator" unicode="&#xf668;" horiz-adv-x="278" 
d="M17.66 656h249.6v-33.62l-174.35 -356.38h-52.91l173.01 346.73v1h-195.35v42.27z" />
    <glyph glyph-name="eight.numerator" unicode="&#xf669;" horiz-adv-x="314" 
d="M160.97 661c75.97 0 115.3 -45.99 115.3 -94.99c0 -32.33 -16.66 -68.67 -65.68 -90.68v-2c49.69 -18.34 80.01 -53.35 80.01 -99.34c0 -68.33 -59 -112.99 -133.96 -112.99c-81.96 0 -132.64 47.65 -132.64 105.33c0 48 29 82.01 78.68 102.68v2.67
c-44.68 19.33 -64.01 52.67 -64.01 86.33c0 60.66 52.65 102.99 122.3 102.99zM156.63 298.62c50.7 0 82.05 30.35 82.05 70.37c0 47.69 -34.01 69.7 -89.05 84.71c-47.36 -12.67 -74.04 -43.69 -74.04 -80.71c0 -39.02 29.68 -74.37 81.04 -74.37zM158.97 624.38
c-46.69 0 -71.37 -29.35 -71.37 -62.7c0 -39.69 29.68 -60.03 76.7 -71.7c35.02 10.34 62.37 34.35 62.37 71.04c0 30.01 -18.67 63.36 -67.7 63.36z" />
    <glyph glyph-name="nine.numerator" unicode="&#xf66a;" horiz-adv-x="313" 
d="M58 261.33v41.95c11 -1 26 0 44.01 1.67c31.67 4 61 17.01 84 39.36c26 23.68 44 57.36 51.67 103.39h-1.67c-22.34 -27.35 -54.35 -43.36 -94.69 -43.36c-72.34 0 -117.65 53.35 -117.65 119.33c0 72.66 54.65 137.33 135.64 137.33
c79.95 0 130.62 -62.97 130.62 -163.66c0 -85.68 -30.34 -145.68 -68.33 -182.01c-30.32 -28.32 -72.63 -45.99 -114.25 -51.66c-19.01 -2.67 -37.01 -3.34 -49.35 -2.34zM154.97 622.39c-47.7 0 -80.38 -42.36 -80.38 -96.39c0 -48.03 31.69 -82.37 79.04 -82.37
c36.35 0 65.37 18.01 80.38 42.03c3 4.33 4 10.66 4 18.66c0 65.71 -25.35 118.07 -83.04 118.07z" />
    <glyph glyph-name="period.numerator" unicode="&#xf66c;" horiz-adv-x="114" 
d="M56.96 261c-21.31 0 -35.96 16.65 -35.96 37.63c0 21.64 15.65 36.96 36.29 36.96c21.31 0 34.96 -15.32 34.96 -36.96c0 -20.98 -13.65 -37.63 -35.29 -37.63z" />
    <glyph glyph-name="comma.numerator" unicode="&#xf66b;" horiz-adv-x="114" 
d="M40.63 196.99l-37.28 -4c13.32 35.63 28.65 99.3 34.98 142.94l58.59 5.67c-13.99 -50.98 -39.65 -116.65 -56.29 -144.61z" />
    <glyph glyph-name="dollar.numerator" unicode="&#xf62f;" horiz-adv-x="302" 
d="M166.94 215h-36.29v60.34c-35.32 0 -71.98 11.33 -93.64 26.67l14.99 38.94c21.99 -15 52.98 -26.33 86.97 -26.33c44.01 0 73.69 25.02 73.69 59.04c0 33.35 -23.68 52.7 -69.34 71.37c-63.32 24.67 -100.31 51.67 -100.31 103.99c0 48.99 34.66 86.65 91.31 95.31
v60.34h36.29v-58.01c36.33 -1 61.65 -12 78.98 -22l-14.66 -38.28c-11.66 8 -38.32 21.33 -76.64 21.33c-48.68 0 -65.69 -28.02 -65.69 -52.7c0 -30.35 22.01 -46.36 76 -68.03c62.31 -24.67 93.98 -55.33 93.98 -108.66c0 -46.32 -32.99 -91.32 -95.64 -101.65v-61.67z
" />
    <glyph glyph-name="cent.numerator" unicode="&#xf62e;" horiz-adv-x="308" 
d="M195.95 257.33h-37.29v60.67c-40 5 -66.66 18.66 -88.66 42.66c-21 22.33 -34 57.33 -34 99.67c0 78.68 48.01 137 122.66 148.33v59.67h37.29v-59.01c28.35 0 52.69 -8.34 67.35 -15.67l-11.66 -38.95c-12.33 7.34 -33.34 16.01 -65.35 16.01
c-60.69 0 -100.04 -47.36 -100.04 -107.72c0 -67.02 43.68 -105.71 97.7 -105.71c34.35 0 56.02 8.34 71.02 15.01l9.66 -36.28c-11.66 -6.33 -37.33 -17.01 -68.68 -18.34v-60.34z" />
    <glyph glyph-name="hyphen.numerator" unicode="&#xf630;" horiz-adv-x="184" 
d="M18 467.97h148.3v-37.95h-148.3v37.95z" />
    <glyph glyph-name="parenleft.numerator" unicode="&#xf631;" horiz-adv-x="170" 
d="M119.68 691h40.95c-44.69 -59.01 -77.36 -135.67 -77.36 -244.34c0 -106 34.34 -181.33 77.36 -241.34h-40.95c-38.68 50.01 -80.35 125.67 -80.35 241.34c0 117 41.67 194.33 80.35 244.34z" />
    <glyph glyph-name="parenright.numerator" unicode="&#xf632;" horiz-adv-x="170" 
d="M51.27 205.32h-40.28c43.02 59.34 76.69 135.67 76.69 243.34c0 106.67 -33 182.33 -76.69 242.34h40.28c38.68 -49.34 80.35 -125.67 80.35 -242.34s-41.67 -193 -80.35 -243.34z" />
    <glyph glyph-name="zero.denominator" unicode="&#xf655;" horiz-adv-x="318" 
d="M156.62 -5c-76.61 0 -132.95 68.97 -132.95 198.33c0 131.37 59.01 201.67 138.96 201.67c82.62 0 132.28 -70.64 132.28 -195.66c0 -129.37 -49.67 -204.34 -138.29 -204.34zM158.29 34.61c56.7 0 84.04 63.37 84.04 163.06c0 96.35 -25.67 157.72 -83.04 157.72
c-49.69 0 -83.04 -60.7 -83.04 -157.72c0 -102.36 31.68 -163.06 82.04 -163.06z" />
    <glyph glyph-name="one.denominator" unicode="&#xf656;" horiz-adv-x="221" 
d="M152.88 0h-49.9v343.07h-2l-69.32 -35l-8.99 39.94l85.96 41.99h44.25v-390z" />
    <glyph glyph-name="two.denominator" unicode="&#xf657;" horiz-adv-x="294" 
d="M10.66 0v28.96l63.67 60.34c85.68 79.02 130.02 131.38 130.02 185.06c0 42.02 -24.67 78.71 -83.37 78.71c-35.67 0 -65.67 -19.34 -82.66 -32.34l-16.98 32.94c23.65 22.33 65.97 41.33 111.95 41.33c91.99 0 124.96 -61.68 124.96 -109.65
c0 -76.34 -58.34 -135.36 -140.37 -209.73l-33.68 -31.35v-2h180.38v-42.27h-253.92z" />
    <glyph glyph-name="three.denominator" unicode="&#xf658;" horiz-adv-x="287" 
d="M44.33 327.72l-15.66 36.28c21.66 14.33 59.97 31 104.95 31c81.98 0 113.29 -46 113.29 -91.99c0 -38.66 -27.66 -73.33 -74.32 -90.67v-2c54.33 -8.67 90.99 -48.01 90.99 -99.01c0 -58.65 -49.97 -116.33 -148.62 -116.33c-45.99 0 -86.64 13.67 -106.63 28
l16.66 37.94c13.99 -10.33 52.32 -26 90.99 -26c69.71 0 94.7 43.37 93.7 76.38c0 57.37 -57.69 78.71 -114.04 78.71h-25.66v37.29h27.33c38.34 0 96.03 19.68 97.03 72.04c0 26.68 -19.34 55.7 -67.69 55.7c-36 0 -67.66 -16.34 -82.32 -27.34z" />
    <glyph glyph-name="four.denominator" unicode="&#xf659;" horiz-adv-x="328" 
d="M252.57 0h-50.25v107.69h-188.33v31.29l182.36 252.35h56.22v-244.02h57.34v-39.62h-57.34v-107.69zM202.32 147.31v135.42c0 21.33 1.33 40.99 2.33 58.31l-2 0.67c-12 -22.33 -21.33 -38.32 -32.66 -55.65l-101.07 -137.42l0.33 -1.33h133.07z" />
    <glyph glyph-name="five.denominator" unicode="&#xf65a;" horiz-adv-x="291" 
d="M254.6 390v-42.94h-152.32l-15.01 -99.07c8.67 1 18 1.33 33.01 1.33c30.32 0 59.3 -5.33 83.96 -18.65c31 -16.33 58.01 -51.33 58.01 -103.01c0 -76.33 -60.99 -132.66 -145.28 -132.66c-43.67 0 -80.65 12.67 -99.31 24.67l13.33 38.61c16.33 -10 48.32 -22 85.65 -22
c50.36 0 93.36 34.36 93.36 85.38c0 51.69 -33.34 88.71 -113 88.71c-23.67 0 -42 -3 -57 -4l26 183.63h188.6z" />
    <glyph glyph-name="six.denominator" unicode="&#xf65b;" horiz-adv-x="319" 
d="M255.61 394.67v-41.28c-11 0 -26 0 -41.34 -2.67c-82.68 -13.68 -129.02 -74.06 -137.68 -140.09h1c18.33 24.68 52.67 47.03 97.35 47.03c72 0 120.66 -51.34 120.66 -125.67c0 -71.64 -50.63 -136.99 -131.97 -136.99c-82.95 0 -139.96 63.97 -139.96 165.66
c0 76.01 27.67 136.34 66.66 174.34c31.99 30.99 75.31 49.99 125.28 56.33c16 2 30 3.67 40 3.34zM163.97 34.61c47.36 0 79.71 40.02 79.71 94.72c0 56.37 -34.36 89.71 -84.71 89.71c-33.01 0 -64.03 -21.01 -79.04 -49.69c-3 -6 -5.67 -12.67 -5.67 -22.34
c0 -62.71 31.35 -112.4 89.71 -112.4z" />
    <glyph glyph-name="seven.denominator" unicode="&#xf65c;" horiz-adv-x="278" 
d="M17.66 390h249.6v-33.62l-174.35 -356.38h-52.91l173.01 346.73v1h-195.35v42.27z" />
    <glyph glyph-name="eight.denominator" unicode="&#xf65d;" horiz-adv-x="314" 
d="M160.97 395c75.97 0 115.3 -45.99 115.3 -94.99c0 -32.33 -16.66 -68.67 -65.68 -90.68v-2c49.69 -18.34 80.01 -53.35 80.01 -99.34c0 -68.33 -59 -112.99 -133.96 -112.99c-81.96 0 -132.64 47.65 -132.64 105.33c0 48 29 82.01 78.68 102.68v2.67
c-44.68 19.33 -64.01 52.67 -64.01 86.33c0 60.66 52.65 102.99 122.3 102.99zM156.63 32.62c50.7 0 82.05 30.35 82.05 70.37c0 47.69 -34.01 69.7 -89.05 84.71c-47.36 -12.67 -74.04 -43.69 -74.04 -80.71c0 -39.02 29.68 -74.37 81.04 -74.37zM158.97 358.38
c-46.69 0 -71.37 -29.35 -71.37 -62.7c0 -39.69 29.68 -60.03 76.7 -71.7c35.02 10.34 62.37 34.35 62.37 71.04c0 30.01 -18.67 63.36 -67.7 63.36z" />
    <glyph glyph-name="nine.denominator" unicode="&#xf65e;" horiz-adv-x="313" 
d="M58 -4.67v41.95c11 -1 26 0 44.01 1.67c31.67 4 61 17.01 84 39.36c26 23.68 44 57.36 51.67 103.39h-1.67c-22.34 -27.35 -54.35 -43.36 -94.69 -43.36c-72.34 0 -117.65 53.35 -117.65 119.33c0 72.66 54.65 137.33 135.64 137.33
c79.95 0 130.62 -62.97 130.62 -163.66c0 -85.68 -30.34 -145.68 -68.33 -182.01c-30.32 -28.32 -72.63 -45.99 -114.25 -51.66c-19.01 -2.67 -37.01 -3.34 -49.35 -2.34zM154.97 356.39c-47.7 0 -80.38 -42.36 -80.38 -96.39c0 -48.03 31.69 -82.37 79.04 -82.37
c36.35 0 65.37 18.01 80.38 42.03c3 4.33 4 10.66 4 18.66c0 65.71 -25.35 118.07 -83.04 118.07z" />
    <glyph glyph-name="period.denominator" unicode="&#xf660;" horiz-adv-x="114" 
d="M56.96 -5c-21.31 0 -35.96 16.65 -35.96 37.63c0 21.64 15.65 36.96 36.29 36.96c21.31 0 34.96 -15.32 34.96 -36.96c0 -20.98 -13.65 -37.63 -35.29 -37.63z" />
    <glyph glyph-name="comma.denominator" unicode="&#xf65f;" horiz-adv-x="114" 
d="M40.63 -69.01l-37.28 -4c13.32 35.63 28.65 99.3 34.98 142.94l58.59 5.67c-13.99 -50.98 -39.65 -116.65 -56.29 -144.61z" />
    <glyph glyph-name="dollar.denominator" unicode="&#xf62a;" horiz-adv-x="302" 
d="M166.94 -51h-36.29v60.34c-35.32 0 -71.98 11.33 -93.64 26.67l14.99 38.94c21.99 -15 52.98 -26.33 86.97 -26.33c44.01 0 73.69 25.02 73.69 59.04c0 33.35 -23.68 52.7 -69.34 71.37c-63.32 24.67 -100.31 51.67 -100.31 103.99c0 48.99 34.66 86.65 91.31 95.31
v60.34h36.29v-58.01c36.33 -1 61.65 -12 78.98 -22l-14.66 -38.28c-11.66 8 -38.32 21.33 -76.64 21.33c-48.68 0 -65.69 -28.02 -65.69 -52.7c0 -30.35 22.01 -46.36 76 -68.03c62.31 -24.67 93.98 -55.33 93.98 -108.66c0 -46.32 -32.99 -91.32 -95.64 -101.65v-61.67z
" />
    <glyph glyph-name="cent.denominator" unicode="&#xf629;" horiz-adv-x="308" 
d="M195.95 -8.67h-37.29v60.67c-40 5 -66.66 18.66 -88.66 42.66c-21 22.33 -34 57.33 -34 99.67c0 78.68 48.01 137 122.66 148.33v59.67h37.29v-59.01c28.35 0 52.69 -8.34 67.35 -15.67l-11.66 -38.95c-12.33 7.34 -33.34 16.01 -65.35 16.01
c-60.69 0 -100.04 -47.36 -100.04 -107.72c0 -67.02 43.68 -105.71 97.7 -105.71c34.35 0 56.02 8.34 71.02 15.01l9.66 -36.28c-11.66 -6.33 -37.33 -17.01 -68.68 -18.34v-60.34z" />
    <glyph glyph-name="hyphen.denominator" unicode="&#xf62b;" horiz-adv-x="184" 
d="M18 201.97h148.3v-37.95h-148.3v37.95z" />
    <glyph glyph-name="parenleft.denominator" unicode="&#xf62c;" horiz-adv-x="170" 
d="M119.68 425h40.95c-44.69 -59.01 -77.36 -135.67 -77.36 -244.34c0 -106 34.34 -181.33 77.36 -241.34h-40.95c-38.68 50.01 -80.35 125.67 -80.35 241.34c0 117 41.67 194.33 80.35 244.34z" />
    <glyph glyph-name="parenright.denominator" unicode="&#xf62d;" horiz-adv-x="170" 
d="M51.27 -60.68h-40.28c43.02 59.34 76.69 135.67 76.69 243.34c0 106.67 -33 182.33 -76.69 242.34h40.28c38.68 -49.34 80.35 -125.67 80.35 -242.34c0 -116.67 -41.67 -193 -80.35 -243.34z" />
    <glyph glyph-name="at.cap" unicode="&#xf633;" horiz-adv-x="723" 
d="M450.68 350.01l23.68 120.37c-11.34 3.67 -30.35 9.01 -58.04 9.01c-97.38 0 -176.42 -91.04 -176.42 -196.75c0 -46.68 24.68 -81.36 73.37 -81.36c66.04 0 125.07 85.39 137.41 148.73zM499.96 67.98l14.66 -37.64c-52.99 -29 -110.33 -41.34 -175.32 -41.34
c-164 0 -299.65 120 -299.65 311.33c0 206 140.32 384.67 361.65 384.67c173.33 0 285.64 -122.67 285.64 -288.33c0 -152.01 -84.67 -238 -172.64 -238c-36.65 0 -74.99 27 -69.31 92.02h-4c-37.01 -62.35 -83.68 -92.02 -146.36 -92.02
c-55.32 0 -105.99 46.33 -105.99 123.32c0 125.34 101.35 239.68 237.67 239.68c42.33 0 76.31 -8.33 102.31 -19.66l-35.34 -179.66c-17.01 -83.37 -3.67 -121.72 32.01 -122.05c54.35 -1.67 112.69 72.36 112.69 188.36c0 151.03 -88.34 256.37 -244.01 256.37
c-167.02 0 -305.36 -133.02 -305.36 -340.71c0 -166.33 110.34 -273.35 257.67 -273.35c59.68 0 112.68 12.67 153.68 37.01z" />
    <glyph glyph-name="emdash.cap" unicode="&#xf6bc;" horiz-adv-x="1000" 
d="M30 351.63h940v-45.26h-940v45.26z" />
    <glyph glyph-name="endash.cap" unicode="&#xf6bb;" horiz-adv-x="500" 
d="M30 351.63h440v-45.26h-440v45.26z" />
    <glyph glyph-name="exclamdown.cap" unicode="&#xf6b4;" horiz-adv-x="214" 
d="M143.23 -1.66h-70.87l10.65 486.38h49.24zM107.96 681.66c27.63 0 45.94 -21.31 45.94 -50.94c0 -26.96 -18.31 -49.94 -46.94 -49.94c-26.96 0 -46.27 22.98 -45.6 49.94c0 29.63 18.97 50.94 46.6 50.94z" />
    <glyph glyph-name="guillemotleft.cap" unicode="&#xf6b6;" horiz-adv-x="400" 
d="M225.3 508.32l-139.36 -181.32l140.03 -181.32h-56.93l-139.37 181.32l139.37 181.32h56.26zM377.24 508.32l-140.03 -181.32l140.03 -181.32h-56.93l-138.7 181.32l138.7 181.32h56.93z" />
    <glyph glyph-name="guillemotright.cap" unicode="&#xf6b7;" horiz-adv-x="400" 
d="M163.03 327l-140.03 181.32h56.93l139.7 -181.32l-139.7 -181.32h-55.93zM314.64 327l-140.03 181.32h56.26l140.37 -181.32l-139.7 -181.32h-55.93z" />
    <glyph glyph-name="guilsinglleft.cap" unicode="&#xf6b8;" horiz-adv-x="248" 
d="M225.3 508.32l-139.36 -181.32l140.03 -181.32h-56.93l-139.37 181.32l139.37 181.32h56.26z" />
    <glyph glyph-name="guilsinglright.cap" unicode="&#xf6b9;" horiz-adv-x="248" 
d="M163.03 327l-140.03 181.32h56.6l140.03 -181.32l-139.7 -181.32h-56.26z" />
    <glyph glyph-name="hyphen.cap" unicode="&#xf6ba;" 
d="M30 373.31h240.97v-49.59h-240.97v49.59z" />
    <glyph glyph-name="questiondown.cap" unicode="&#xf6b5;" horiz-adv-x="389" 
d="M232.98 685c27.96 0 46.27 -21.31 46.27 -50.94c0 -27.63 -18.31 -50.61 -46.94 -50.61c-27.96 0 -46.94 22.98 -46.27 50.61c0 29.63 19.31 50.94 46.94 50.94zM204.37 492.73h55.89l3 -26c7.34 -55.01 -12.33 -115.69 -63.67 -178.37
c-50.36 -59.7 -74.36 -99.38 -74.36 -149.07c0 -57.7 35.02 -96.39 104.38 -96.72c36.34 0 75.67 12 102.34 32.67l19.31 -45.24c-32.66 -24.34 -88.32 -40 -133.95 -40c-107.3 0 -156.28 70.33 -156.28 143.65c0 63.65 33.98 112.32 86.33 174.01
c47.02 58.03 63.02 103.04 58.68 156.72z" />
    <glyph glyph-name="braceleft.cap" unicode="&#xf6b2;" horiz-adv-x="271" 
d="M27.33 308.03v39.95c71.67 -1.01 83.01 39 83.01 77.01c0 28.34 -4.67 57.01 -8.67 85.01c-4.67 28.67 -9.34 56.67 -9.34 85.01c0 91.33 60.67 130.66 142.32 130.66h14.97v-42.94h-18c-64.36 0 -87.04 -34.01 -87.04 -93.03c0 -25.68 4.34 -51.69 8.34 -77.03
c4.67 -26.01 8.34 -51.68 8.34 -78.68c1 -59.98 -26.33 -92.65 -66.64 -104.32v-2c40.31 -11.33 67.64 -47.34 66.64 -106.65c0 -26.67 -3.67 -52.34 -8.34 -78.01c-4 -26.68 -8.34 -52.02 -8.34 -78.37c0 -61.02 27.02 -93.36 87.04 -93.36h18v-42.94h-14.97
c-79.65 0 -142.32 36.33 -142.32 137c0 27.67 4.67 55.67 9.34 83.34c4 27 8.67 55 8.67 81.67c0 33.34 -11.34 78.35 -83.01 77.68z" />
    <glyph glyph-name="braceright.cap" unicode="&#xf6b3;" horiz-adv-x="271" 
d="M244.61 347.98v-39.95c-72.34 0.67 -83.68 -44.34 -83.68 -77.68c0 -26.67 4.67 -54.67 9.34 -81.67c4.67 -27.67 8.67 -55.67 8.67 -83.34c0 -100.67 -63 -137 -142.32 -137h-14.97v42.94h17.67c60.02 1.33 87.37 32.34 87.37 93.36c0 26.35 -4 51.69 -8.34 78.37
c-4 25.67 -8.67 51.34 -8.67 78.01c0 59.31 26.66 95.32 66.64 106.65v2c-39.98 11.67 -66.64 44.34 -66.64 104.32c0 27 4.67 52.67 8.67 78.68c4.34 25.34 8.34 51.35 8.34 77.03c0 59.02 -23.01 91.03 -87.04 93.03h-18v42.94h14.64
c81.65 0 142.65 -39.33 142.65 -130.66c0 -28.34 -4 -56.34 -8.67 -85.01c-4.67 -28 -9.34 -56.67 -9.34 -85.01c0 -38.01 11.34 -78.02 83.68 -77.01z" />
    <glyph glyph-name="bracketleft.cap" unicode="&#xf6b0;" horiz-adv-x="271" 
d="M261.65 -71.66h-174.29v797h174.29v-42.94h-123.04v-711.12h123.04v-42.94z" />
    <glyph glyph-name="bracketright.cap" unicode="&#xf6b1;" horiz-adv-x="271" 
d="M9.62 726.34h174.96v-798h-174.96v42.94h123.04v712.45h-123.04v42.61z" />
    <glyph glyph-name="parenleft.cap" unicode="&#xf6ae;" horiz-adv-x="271" 
d="M204.38 736.01h52.92c-79.7 -101.01 -136.05 -228.67 -136.05 -412.01c0 -178.67 59.02 -302.99 136.05 -405.67h-52.92c-67.69 84.34 -137.7 211 -137.7 406.67c0.33 197.34 70.01 324.33 137.7 411.01z" />
    <glyph glyph-name="parenright.cap" unicode="&#xf6af;" horiz-adv-x="271" 
d="M66.56 -81.67h-52.59c77.03 101.01 136.05 228 136.05 409.34c0 180.67 -57.35 305.66 -136.05 408.34h52.59c68.02 -84.01 138.37 -211.67 138.37 -409.01c0 -196.67 -70.35 -321.99 -138.37 -408.67z" />
    <glyph glyph-name="periodcentered.cap" unicode="&#xf6bd;" horiz-adv-x="184" 
d="M92.28 289.07c-27.63 0 -47.27 22.31 -46.94 50.27c0 29.3 20.31 50.94 47.27 50.94c28.3 0 46.61 -21.31 46.94 -50.94c0 -27.96 -18.64 -50.27 -47.27 -50.27z" />
    <glyph glyph-name="lessequal" unicode="&#x2264;" horiz-adv-x="596" 
d="M526.65 91.63l-457.3 199.7v44.93l457.3 199.37v-51.93l-394.73 -169.07v-2l394.73 -168.74v-52.26zM526.65 0h-454.63v45.94h454.63v-45.94z" />
    <glyph glyph-name="greaterequal" unicode="&#x2265;" horiz-adv-x="596" 
d="M526.65 291.33l-457.3 -199.7v52.26l394.73 168.74v2l-394.73 169.07v51.93l457.3 -199.37v-44.93zM523.98 0h-454.63v45.94h454.63v-45.94z" />
    <glyph glyph-name="approxequal" unicode="&#x2248;" horiz-adv-x="596" 
d="M538.36 408.63l28.96 -33.63c-30.66 -33.97 -88.66 -69.96 -147.98 -69.96c-60.01 0 -97.34 23 -130.01 36.33c-30 12 -64.67 34 -116.01 34c-44.66 0 -92.34 -28.99 -120.01 -56.99l-28.3 33.96c30.66 33.31 88.66 69.63 148.31 69.63c60.34 0 97.01 -23 130.01 -36
c30 -12.33 64.34 -34 115.68 -34c44.66 0 92.34 29.32 119.35 56.66zM544.03 215.99l28.63 -33.3c-30.66 -34.3 -88.99 -70.29 -148.31 -70.29c-59.68 0 -96.68 23 -129.68 36c-30 12 -64.67 34 -116.34 34c-44 0 -92.01 -28.66 -119.68 -56.99l-27.97 34.29
c30.33 33.31 88.66 69.3 147.98 69.3c60.34 0 97.01 -22.67 130.01 -36c30 -12 64.67 -34 115.68 -34c44.99 0 92.67 28.66 119.68 56.99z" />
    <glyph glyph-name="notequal" unicode="&#x2260;" horiz-adv-x="596" 
d="M556 150.05h-310l-82.03 -130.04h-50.93l83.69 130.04h-156.73v46.6h186.02l94.36 146.04h-280.38v46.6h309.67l82.03 130.04h51.6l-84.36 -130.04h157.06v-46.6h-186.35l-94.03 -146.04h280.38v-46.6z" />
    <glyph glyph-name="infinity" unicode="&#x221e;" horiz-adv-x="717" 
d="M535.64 124.04c-74.67 0 -127.66 61.01 -176.33 108.34c-51 -51 -104.67 -108.34 -184.33 -108.34c-79.31 0 -136.63 57.31 -136.63 139.96c0 75.65 62.66 139.96 144.63 139.96c74.67 0 128.33 -61.01 176.33 -108.34c51 51.67 104.67 108.34 184.33 108.34
c79.64 0 136.63 -57.31 136.63 -139.96c0 -75.65 -62.66 -139.96 -144.63 -139.96zM537.31 170.64c54.02 0 94.03 43.68 94.03 93.36c0 53.68 -38.01 93.36 -91.03 93.36c-61.02 0 -111.04 -53.02 -149.71 -93.36c41.68 -38.68 84.69 -93.36 146.71 -93.36zM178.31 170.64
c61.69 0 111.04 52.35 149.71 93.36c-41.68 38.68 -84.02 93.36 -146.71 93.36c-54.02 0 -94.03 -43.68 -94.03 -93.36c0 -53.68 38.01 -93.36 91.03 -93.36z" />
    <glyph glyph-name="lozenge" unicode="&#x25ca;" horiz-adv-x="500" 
d="M453.55 325l-177.98 -353.32h-50.91l-177.65 353.32l177.65 352.99h50.91zM396.98 323.67l-138.04 283.75c-3.33 5.33 -6.66 12.32 -8.99 20.32h-2c-2 -8 -5.33 -14.99 -8.66 -20.32l-136.04 -281.42l138.37 -283.42c3 -5.66 6.66 -12.65 8.66 -20.32h2
c2.33 7.67 5.66 14.66 8.66 20.32z" />
    <glyph glyph-name="integral" unicode="&#x222b;" horiz-adv-x="298" 
d="M287.91 782.64l-10.33 -41.93c-8.33 2 -18.66 4 -27.99 4c-16.66 0 -33.66 -5.66 -45.33 -19.99c-22.01 -25.67 -32.68 -69 -32.68 -161.35c0 -142.32 11.33 -337.76 11.33 -480.72c0 -104.03 -20.68 -160.02 -46.02 -189.34c-19.32 -23.29 -47.62 -37.28 -80.26 -37.28
c-20.32 0 -39.64 4.67 -47.3 9l9.99 42.59c8 -2.33 19.66 -6 34.33 -6c15.33 0 32 6 44.67 20.33c17.67 21.67 33.01 59.34 33.01 162.04c0 142.96 -10.66 342.4 -10.66 483.37c0 97.65 14.66 152.98 48.65 188.63c21.32 23.32 48.97 33.65 78.95 33.65
c16.32 0 30.31 -3 39.64 -7z" />
    <glyph glyph-name="partialdiff" unicode="&#x2202;" horiz-adv-x="509" 
d="M83.99 631.42l-21.3 40.91c34.34 26.01 84.65 51.66 162.95 51.66c125.94 0 248.93 -117.97 248.93 -351.32c0 -255.34 -123.98 -383.67 -257.61 -383.67c-128.3 0 -189.62 96.63 -189.62 205.31c0 134.66 99.35 241.99 217.66 241.99
c86.35 0 148.03 -50.01 170.37 -92.36h1c1.67 12.68 1.67 27.36 1.67 40.37c0 198.78 -105.06 288.45 -195.04 288.45c-65.67 0 -110 -20.33 -139.01 -41.34zM221.28 40.23c101.39 0 172.09 112.05 188.1 240.12c-22.35 56.37 -82.72 105.38 -159.09 105.38
c-87.37 0 -161.08 -80.7 -161.08 -188.08c0 -98.05 52.69 -157.42 132.07 -157.42z" />
    <glyph glyph-name="product" unicode="&#x220f;" horiz-adv-x="595" 
d="M586.24 599.11h-93v-689.11h-58.88v689.11h-273.48v-689.11h-58.88v689.11h-93v50.89h577.24v-50.89z" />
    <glyph glyph-name="radical" unicode="&#x221a;" horiz-adv-x="550" 
d="M564.93 821.64l-230.67 -922.67h-47.92l-159.67 434.03l-73.66 -31.33l-15.65 38.29l121.92 51.3l129.7 -365.43c7.33 -18.32 13.66 -40.31 16.99 -56.63h1.33c3 14.99 8 38.31 11.66 56.29l194.71 796.15h51.26z" />
    <glyph glyph-name="summation" unicode="&#x2211;" horiz-adv-x="492" 
d="M504.62 -90h-498.3v38.6l265.74 329.4l-252.07 330.42v41.58h450.28v-50.56h-371.78v-3.33l241.43 -315.78l-253.43 -315.77v-3.67h418.13v-50.89z" />
    <glyph glyph-name="Delta" unicode="&#x2206;" horiz-adv-x="608" 
d="M29.02 0v38.28l242.37 635.72h63.49l240.71 -635.39v-38.61h-546.57zM92.54 50.89h417.54l-154.42 408.52c-18.34 48.34 -40.01 108.34 -53.35 152.68h-2.33c-10.67 -35.34 -30.01 -90 -47.68 -137.67z" />
    <glyph glyph-name="Omega" unicode="&#x2126;" horiz-adv-x="688" 
d="M264.57 0h-235.24v50.24h150.36v3.33c-71.69 59.69 -136.69 165.72 -136.69 299.74c0 199.37 134.33 331.69 305.96 331.69c178.29 0 296.63 -137.65 296.63 -324.36c0 -141.35 -64.66 -246.38 -137.69 -307.07v-3.33h151.69v-50.24h-234.91v40.93
c84.69 56.34 158.38 171.38 158.38 311.74c0 127.02 -77.02 282.1 -236.1 282.1c-157.41 0 -241.1 -145.07 -241.1 -283.1c0 -133.37 75.36 -257.39 158.71 -310.74v-40.93z" />
    <glyph glyph-name="pi" unicode="&#x3c0;" horiz-adv-x="536" 
d="M499.9 432.42h-69.68v-292.44c0 -84.36 7 -116.99 14 -139.98h-59.54c-6.66 12.99 -15 48.62 -15 132.32v300.1h-180.44c-5.34 -133.7 -37.02 -351.08 -73.36 -432.42h-57.87c38.01 94.33 68.02 293.7 73.36 432.42c-43.69 0 -78.02 -3.34 -103.02 -9.67l-10.66 36.59
c22 12.32 54.63 21.98 124.26 21.98h365.94z" />
    <glyph glyph-name="aringacute" unicode="&#x1fb;" horiz-adv-x="463" 
d="M291.64 822.61h79.24l-140.32 -101.31h-45.25zM231.62 517.99c-55.31 0 -95.64 39.33 -95.64 88.99c0 50.66 39 91.32 96.64 91.32c53.97 0 92.97 -39.33 92.97 -91.32c0 -50.66 -43 -88.99 -93.97 -88.99zM230.62 550.3c32 0 54.01 25.67 54.01 57.68
c0 33.01 -22.01 58.01 -54.68 58.01c-31 0 -51.01 -27 -51.01 -59.01c0 -29.01 22.01 -56.68 51.68 -56.68zM397.55 0h-55.21l-7 66.36h-3c-24.32 -37.33 -76.99 -77.36 -151.35 -77.36c-96.66 0 -143.31 68.33 -143.31 134.31c0 112.98 99.98 178.99 292.34 177.32v11.34
c0 45.36 -9.66 132.77 -118.71 132.1c-42.99 0 -87.98 -11.99 -121.98 -36l-16.65 42.59c42.01 28.01 97.33 41.66 146.27 41.66c141.97 0 171.27 -103.01 171.27 -192.64v-185.02c0 -39.32 2 -78.98 7.33 -114.66zM330.68 156.97v96.73
c-102.03 2.67 -230.46 -13.66 -230.46 -121.73c0 -65.04 43.36 -94.72 91.71 -94.72c74.39 0 117.74 46.03 133.75 91.05c3 9.67 5 19.67 5 28.67z" />
    <glyph glyph-name="Abreve" unicode="&#x102;" horiz-adv-x="593" 
d="M427.35 228.08h-257.76l-78.71 -228.08h-62.53l239.05 674h65.47l238.71 -674h-63.52zM185.58 277.32h225.78l-76.72 214.77c-15.67 46.01 -25 81.99 -35 120.32h-2c-10 -39.33 -21 -76.31 -34.67 -118.65zM179.66 810.3h39.94c6.67 -23.67 25.68 -50.34 77.36 -50.34
c51.68 0 72.02 23.67 77.02 50.34h39.61c-1 -52.97 -36.32 -97.96 -118.3 -97.96c-79.64 0 -114.3 44.32 -115.63 97.96z" />
    <glyph glyph-name="Amacron" unicode="&#x100;" horiz-adv-x="593" 
d="M427.35 228.08h-257.76l-78.71 -228.08h-62.53l239.05 674h65.47l238.71 -674h-63.52zM185.58 277.32h225.78l-76.72 214.77c-15.67 46.01 -25 81.99 -35 120.32h-2c-10 -39.33 -21 -76.31 -34.67 -118.65zM180.98 777.28h231.63v-44.28h-231.63v44.28z" />
    <glyph glyph-name="Aogonek" unicode="&#x104;" horiz-adv-x="593" 
d="M332.87 674l238.71 -674h-15.91c-17.34 -16 -67.06 -65.7 -67.06 -106.39c0 -32.33 21 -49.99 49.66 -49.99c17 0 33 4.67 46.34 10.67l9.98 -34.28c-17.65 -13.32 -49.3 -19.65 -70.95 -19.65c-50.64 0 -85.63 27.99 -85.63 78.63c0 49.67 39.02 95.33 68.38 126.35
l-79.04 222.74h-257.76l-78.71 -228.08h-62.53l239.05 674h65.47zM185.58 277.32h225.78l-76.72 214.77c-15.67 46.01 -25 81.99 -35 120.32h-2c-10 -39.33 -21 -76.98 -34.67 -118.65z" />
    <glyph glyph-name="i.dot" horiz-adv-x="217" 
d="M138.89 0h-60.53v481.32h60.53v-481.32zM108.96 664.28c26.3 0 43.28 -20.65 43.28 -46.29c0.33 -24.64 -16.98 -45.29 -45.28 -45.29c-24.97 0 -42.28 20.65 -42.28 45.29c0 24.97 18.98 46.29 44.28 46.29z" />
    <glyph glyph-name="Cacute" unicode="&#x106;" horiz-adv-x="573" 
d="M525.65 71.57l15.32 -48.23c-33.34 -17.34 -98.01 -33.34 -180.01 -33.34c-171.91 0 -323.62 109.28 -323.62 342.34c0 203.63 133.62 352.66 344.63 352.66c85.34 0 136.33 -18.67 157.99 -30l-17.65 -50.23c-33.67 16.67 -82.01 28.67 -138.68 28.67
c-174.08 0 -283.1 -112.39 -283.1 -300.78c0 -177.06 101.7 -291.1 276.42 -291.1c56.35 0 111.69 11.67 148.7 30.01zM409.38 826.99h83.89l-129.01 -114.32h-50.23z" />
    <glyph glyph-name="Ccaron" unicode="&#x10c;" horiz-adv-x="573" 
d="M525.65 71.57l15.32 -48.23c-33.34 -17.34 -98.01 -33.34 -180.01 -33.34c-171.91 0 -323.62 109.28 -323.62 342.34c0 203.63 133.62 352.66 344.63 352.66c85.34 0 136.33 -18.67 157.99 -30l-17.65 -50.23c-33.67 16.67 -82.01 28.67 -138.68 28.67
c-174.08 0 -283.1 -112.39 -283.1 -300.78c0 -177.06 101.7 -291.1 276.42 -291.1c56.35 0 111.69 11.67 148.7 30.01zM387.61 713.67h-47.57l-106.34 110.65h59.93l69.36 -72.68h2l69.03 72.68h57.26z" />
    <glyph glyph-name="Ccircumflex" unicode="&#x108;" horiz-adv-x="573" 
d="M525.65 71.57l15.32 -48.23c-33.34 -17.34 -98.01 -33.34 -180.01 -33.34c-171.91 0 -323.62 109.28 -323.62 342.34c0 203.63 133.62 352.66 344.63 352.66c85.34 0 136.33 -18.67 157.99 -30l-17.65 -50.23c-33.67 16.67 -82.01 28.67 -138.68 28.67
c-174.08 0 -283.1 -112.39 -283.1 -300.78c0 -177.06 101.7 -291.1 276.42 -291.1c56.35 0 111.69 11.67 148.7 30.01zM333.7 824.65h47.57l106.34 -110.65h-59.93l-69.36 71.68h-2l-69.03 -71.68h-57.26z" />
    <glyph glyph-name="Cdotaccent" unicode="&#x10a;" horiz-adv-x="573" 
d="M525.65 71.57l15.32 -48.23c-33.34 -17.34 -98.01 -33.34 -180.01 -33.34c-171.91 0 -323.62 109.28 -323.62 342.34c0 203.63 133.62 352.66 344.63 352.66c85.34 0 136.33 -18.67 157.99 -30l-17.65 -50.23c-33.67 16.67 -82.01 28.67 -138.68 28.67
c-174.08 0 -283.1 -112.39 -283.1 -300.78c0 -177.06 101.7 -291.1 276.42 -291.1c56.35 0 111.69 11.67 148.7 30.01zM357.65 722.68c-23.31 0 -41.29 21.32 -41.29 42.63c0 21.31 17.98 42.63 42.29 42.63c22.98 0 39.96 -21.32 39.96 -42.63
c0 -21.31 -16.98 -42.63 -40.96 -42.63z" />
    <glyph glyph-name="Dcaron" unicode="&#x10e;" horiz-adv-x="653" 
d="M80.02 1.33v663.67c51.66 8 111.31 14 176.29 14c123.66 0 215.34 -31.68 272.33 -89.36c55.98 -55.67 87.63 -131.66 87.63 -235.97c0 -102.63 -29.31 -192.63 -90.97 -257.98c-60.99 -64.34 -162.98 -101.02 -293.31 -101.02c-55.3 0 -105.29 1.66 -151.97 6.66z
M140.22 619.76v-570.19c26.02 -4 62.71 -5 102.07 -5c206.1 0 311.12 115.39 311.12 306.1c1 167.04 -92.35 278.76 -297.79 278.76c-49.69 0 -88.38 -4.67 -115.4 -9.67zM326.59 712.67h-47.57l-106.34 110.65h59.93l70.03 -72.35h2l68.36 72.35h57.26z" />
    <glyph glyph-name="Ebreve" unicode="&#x114;" horiz-adv-x="474" 
d="M407.58 379.29v-50.56h-267.36v-277.84h298.7v-50.89h-358.9v674h343.23v-50.89h-283.03v-243.82h267.36zM127.99 820.31h40.61c6 -23 25.01 -49.67 76.69 -49.67c51.68 0 72.02 23 77.02 49.67h40.28c-1.67 -52.97 -36.32 -97.96 -118.97 -97.96
c-79.64 0 -113.63 44.32 -115.63 97.96z" />
    <glyph glyph-name="Ecaron" unicode="&#x11a;" horiz-adv-x="474" 
d="M407.58 379.29v-50.56h-267.36v-277.84h298.7v-50.89h-358.9v674h343.23v-50.89h-283.03v-243.82h267.36zM275.59 710h-47.57l-106.34 110.65h59.93l70.03 -72.35h2l68.36 72.35h56.93z" />
    <glyph glyph-name="Edotaccent" unicode="&#x116;" horiz-adv-x="474" 
d="M407.58 379.29v-50.56h-267.36v-277.84h298.7v-50.89h-358.9v674h343.23v-50.89h-283.03v-243.82h267.36zM252.64 725.02c-23.31 0 -40.96 20.98 -40.96 42.96c0 21.31 17.98 42.63 41.96 42.63c22.98 0 39.96 -21.32 39.96 -42.63c0 -21.98 -16.98 -42.96 -40.96 -42.96
z" />
    <glyph glyph-name="Emacron" unicode="&#x112;" horiz-adv-x="474" 
d="M407.58 379.29v-50.56h-267.36v-277.84h298.7v-50.89h-358.9v674h343.23v-50.89h-283.03v-243.82h267.36zM138.33 777.28h231.96v-44.28h-231.96v44.28z" />
    <glyph glyph-name="Eogonek" unicode="&#x118;" horiz-adv-x="474" 
d="M432.26 -147.38l10.32 -36.28c-20.99 -11.32 -44.64 -16.98 -69.28 -16.98c-53.65 0 -87.31 26.99 -87.31 76.31c0 53.33 47.35 101 84.69 124.33h-290.66v674h343.23v-50.89h-283.03v-243.82h267.36v-50.56h-267.36v-277.84h298.7v-50.89h-11.65
c-45.35 -29.01 -88.36 -73.02 -88.36 -112.03c0 -28.68 20.34 -43.35 48.68 -43.35c15.67 0 29.67 2 44.67 8z" />
    <glyph glyph-name="Gbreve" unicode="&#x11e;" horiz-adv-x="631" 
d="M572.92 340.6v-310.6c-35.65 -14 -107.96 -37 -199.63 -37c-93.29 0 -175.95 23.99 -243.29 89c-55.99 54.66 -92.66 144.66 -92.66 252.34c0.33 191.62 127.61 346.66 355.62 346.66c74.65 0 133.64 -17.67 160.63 -30.33l-16.98 -50.23
c-35.33 16.67 -80.33 29 -145.65 29c-178.74 0 -290.43 -114.06 -290.43 -292.44c0 -183.73 109.03 -292.77 280.1 -292.77c65.71 0 109.4 9.34 132.75 21.35v225.79h-150.4v49.23h209.94zM238 820.97h40.27c6.34 -23 25.35 -49.67 77.03 -49.67s72.02 23 77.02 49.67h39.61
c-1 -52.97 -36.32 -97.96 -118.3 -97.96c-79.64 0 -114.3 43.99 -115.63 97.96z" />
    <glyph glyph-name="Gcircumflex" unicode="&#x11c;" horiz-adv-x="631" 
d="M572.92 340.6v-310.6c-35.65 -14 -107.96 -37 -199.63 -37c-93.29 0 -175.95 23.99 -243.29 89c-55.99 54.66 -92.66 144.66 -92.66 252.34c0.33 191.62 127.61 346.66 355.62 346.66c74.65 0 133.64 -17.67 160.63 -30.33l-16.98 -50.23
c-35.33 16.67 -80.33 29 -145.65 29c-178.74 0 -290.43 -114.06 -290.43 -292.44c0 -183.73 109.03 -292.77 280.1 -292.77c65.71 0 109.4 9.34 132.75 21.35v225.79h-150.4v49.23h209.94zM333.69 823.65h47.57l106.01 -110.65h-59.6l-69.36 72.35h-2l-69.36 -72.35h-56.93z
" />
    <glyph glyph-name="uni0122" unicode="&#x122;" horiz-adv-x="631" 
d="M572.92 340.6v-310.6c-35.65 -14 -107.96 -37 -199.63 -37c-93.29 0 -175.95 23.99 -243.29 89c-55.99 54.66 -92.66 144.66 -92.66 252.34c0.33 191.62 127.61 346.66 355.62 346.66c74.65 0 133.64 -17.67 160.63 -30.33l-16.98 -50.23
c-35.33 16.67 -80.33 29 -145.65 29c-178.74 0 -290.43 -114.06 -290.43 -292.44c0 -183.73 109.03 -292.77 280.1 -292.77c65.71 0 109.4 9.34 132.75 21.35v225.79h-150.4v49.23h209.94zM302.02 -213.29l-14.32 30.95c40.68 6.33 79.02 25.33 79.02 67.34
c0 23.67 -17 46.67 -36.68 60.67l48.92 12.66c20 -12.33 39.67 -39.33 39.67 -70.99c0 -69.31 -65.66 -96.63 -116.61 -100.63z" />
    <glyph glyph-name="Gdotaccent" unicode="&#x120;" horiz-adv-x="631" 
d="M572.92 340.6v-310.6c-35.65 -14 -107.96 -37 -199.63 -37c-93.29 0 -175.95 23.99 -243.29 89c-55.99 54.66 -92.66 144.66 -92.66 252.34c0.33 191.62 127.61 346.66 355.62 346.66c74.65 0 133.64 -17.67 160.63 -30.33l-16.98 -50.23
c-35.33 16.67 -80.33 29 -145.65 29c-178.74 0 -290.43 -114.06 -290.43 -292.44c0 -183.73 109.03 -292.77 280.1 -292.77c65.71 0 109.4 9.34 132.75 21.35v225.79h-150.4v49.23h209.94zM355.97 722.68c-23.64 0 -41.29 21.32 -41.29 42.63
c0 21.31 18.65 42.63 41.96 42.63s40.63 -21.32 40.63 -42.63c0 -21.31 -17.32 -42.63 -41.3 -42.63z" />
    <glyph glyph-name="G_tildecomb" unicode="&#xe000;" horiz-adv-x="631" 
d="M572.92 340.6v-310.6c-35.65 -14 -107.96 -37 -199.63 -37c-93.29 0 -175.95 23.99 -243.29 89c-55.99 54.66 -92.66 144.66 -92.66 252.34c0.33 191.62 127.61 346.66 355.62 346.66c74.65 0 133.64 -17.67 160.63 -30.33l-16.98 -50.23
c-35.33 16.67 -80.33 29 -145.65 29c-178.74 0 -290.43 -114.06 -290.43 -292.44c0 -183.73 109.03 -292.77 280.1 -292.77c65.71 0 109.4 9.34 132.75 21.35v225.79h-150.4v49.23h209.94zM280.95 715.67h-37.62c-1 50.95 22.99 91.28 64.65 91.28
c19.99 0 35.65 -8.33 57.32 -20.67c16 -8.33 32.67 -17.33 49.01 -17.33c15.33 0 25.67 6.33 27.67 37.66h36.95c0.33 -51.61 -18.32 -85.61 -62.64 -85.61c-18.99 0 -35.65 7.33 -59.66 19.67c-19 10 -33.34 19 -48.34 19c-17.34 0 -24.34 -18.34 -27.34 -44z" />
    <glyph glyph-name="Hcircumflex" unicode="&#x124;" horiz-adv-x="637" 
d="M80.02 674h60.2v-291.38h356.82v291.38h60.53v-674h-60.53v330.07h-356.82v-330.07h-60.2v674zM294.01 820.65h47.57l106.34 -110.65h-59.93l-69.03 72.35h-2l-69.36 -72.35h-56.93z" />
    <glyph glyph-name="Ibreve" unicode="&#x12c;" horiz-adv-x="220" 
d="M80.02 674h60.2v-674h-60.2v674zM-6.68 816.3h39.94c6.34 -23.67 25.68 -50.34 77.36 -50.34c51.35 0 71.69 23.67 76.69 50.34h39.61c-1 -52.97 -35.99 -97.96 -117.97 -97.96c-79.97 0 -114.63 43.99 -115.63 97.96z" />
    <glyph glyph-name="Idotaccent" unicode="&#x130;" horiz-adv-x="220" 
d="M80.02 674h60.2v-674h-60.2v674zM110.95 725.02c-23.64 0 -41.29 20.98 -41.29 42.96c0 21.31 17.98 42.63 41.96 42.63c22.98 0 39.96 -21.32 39.96 -42.63c0 -21.98 -16.98 -42.96 -40.63 -42.96z" />
    <glyph glyph-name="Imacron" unicode="&#x12a;" horiz-adv-x="220" 
d="M80.02 674h60.2v-674h-60.2v674zM-4.36 777.28h230.96v-44.28h-230.96v44.28z" />
    <glyph glyph-name="Iogonek" unicode="&#x12e;" horiz-adv-x="220" 
d="M140.22 674v-674h-13.92c-17.01 -22.34 -49.04 -69.37 -49.04 -110.06c0 -33.33 20.66 -49.99 48.99 -49.99c19.67 0 34.67 4 46.34 9.67l10.65 -34.95c-18.32 -13.32 -49.97 -19.65 -72.96 -19.65c-48.97 0 -84.29 27.99 -84.29 78.63c0 49.67 32.68 96 54.03 126.35
v674h60.2z" />
    <glyph glyph-name="Itilde" unicode="&#x128;" horiz-adv-x="220" 
d="M80.02 674h60.2v-674h-60.2v674zM30.27 715.67h-37.62c-0.66 50.95 22.66 91.28 64.65 91.28c19.99 0 35.32 -8.33 57.66 -20.67c15.33 -8.33 32 -17.33 49.34 -17.33c14.33 0 24.67 6.33 27 37.66h37.29c0.33 -51.61 -18.99 -85.61 -62.98 -85.61
c-18.32 0 -35.65 7.33 -58.99 19.67c-19.67 10 -34.34 19 -49.01 19c-17.34 0 -24.67 -18.34 -27.34 -44z" />
    <glyph glyph-name="Jcircumflex" unicode="&#x134;" horiz-adv-x="353" 
d="M220.03 222.63v451.37h60.87v-460.38c0 -174.31 -85.99 -224.62 -189.26 -224.62c-30.66 0 -66.98 7.67 -85.63 16l10.99 49.56c17.33 -7 42.66 -13.67 72.33 -13.67c83.36 0 130.7 38.35 130.7 181.74zM221.01 820.65h47.57l106.34 -110.65h-59.6l-69.36 72.35h-2
l-69.36 -72.35h-56.93z" />
    <glyph glyph-name="uni0136" unicode="&#x136;" horiz-adv-x="512" 
d="M80.02 0v674h60.2v-335.72h3.67c18.67 26 38.01 49.33 55.68 70.66l228.11 265.06h75.17l-252.71 -286l275.06 -388h-72.85l-244.78 347.08l-67.35 -75.34v-271.74h-60.2zM204.95 -211.29l-14.99 31.62c41.01 6 79.02 24.66 79.02 67.01c0 24 -16 47 -36.01 61
l48.25 12.66c20 -12.33 40 -39.66 40 -71.99c0 -68.98 -65.66 -96.3 -116.27 -100.3z" />
    <glyph glyph-name="Lacute" unicode="&#x139;" horiz-adv-x="455" 
d="M80.02 0v674h60.2v-623.11h296.71v-50.89h-356.91zM185.03 824.32h83.89l-129.68 -114.32h-50.56z" />
    <glyph glyph-name="Lcaron" unicode="&#x13d;" horiz-adv-x="455" 
d="M80.02 0v674h60.2v-623.11h296.71v-50.89h-356.91zM245.93 512.04l-14.32 30.95c40.68 6 78.35 25.33 78.35 67.68c0 23.33 -16.33 46 -36.01 61l48.92 11.99c20 -12.33 39.33 -38.99 39.33 -71.32c0 -68.98 -65.32 -96.3 -116.27 -100.3z" />
    <glyph glyph-name="uni013B" unicode="&#x13b;" horiz-adv-x="455" 
d="M80.02 0v674h60.2v-623.11h296.71v-50.89h-356.91zM188.33 -213.29l-13.99 30.95c40.68 6.33 79.02 25.33 79.02 67.34c0 23.67 -17 46.67 -37.01 60.67l49.25 12.66c20 -12.33 39.67 -39.33 39.67 -70.99c0 -69.31 -65.66 -96.63 -116.94 -100.63z" />
    <glyph glyph-name="Ldot" unicode="&#x13f;" horiz-adv-x="455" 
d="M80.02 0v674h60.2v-623.11h296.71v-50.89h-356.91zM328.91 324.02c-23.31 0 -41.29 21.32 -41.29 42.63s18.65 42.63 42.29 42.63c22.98 0 40.63 -21.32 40.63 -42.63s-17.65 -42.63 -41.63 -42.63z" />
    <glyph glyph-name="M_uni0302" unicode="&#xe001;" horiz-adv-x="786" 
d="M667.03 0l-19.01 312.08c-6.34 98.69 -13.68 219.06 -12.68 295.69h-3c-23.67 -74.98 -51.67 -154.96 -88.35 -252.65l-134.41 -353.8h-43.89l-125.08 345.79c-36.02 101.7 -64.36 184.68 -84.03 260.66h-2.67c-1.33 -80.65 -6.33 -196.33 -13.67 -304.7l-20.01 -303.07
h-58.88l48.34 674h73.48l135.1 -367.54c30.01 -85.01 53.68 -154.99 72.02 -221.64h2.33c17.67 63.98 41.67 132.62 74.35 220.97l140.1 368.21h74.82l44.68 -674h-59.54zM367.67 820.65h47.57l106.34 -110.65h-59.93l-69.03 72.35h-2l-69.36 -72.35h-57.26z" />
    <glyph glyph-name="Nacute" unicode="&#x143;" horiz-adv-x="644" 
d="M137.9 0h-57.88v674h61.5l247.49 -379.19c52.68 -82.35 91.68 -147.99 124.35 -214.31l2 1c-7.33 90.67 -8.66 169.32 -8.66 274.99v317.51h58.55v-674h-59.19l-242.81 375.5c-49.01 77.01 -94.68 149.99 -129.35 220.31l-2.33 -1c5 -83.66 6.33 -159.3 6.33 -271.3
v-323.51zM377.37 824.32h84.89l-130.01 -114.32h-50.23z" />
    <glyph glyph-name="Ncaron" unicode="&#x147;" horiz-adv-x="644" 
d="M137.9 0h-57.88v674h61.5l247.49 -379.19c52.68 -82.35 91.68 -147.99 124.35 -214.31l2 1c-7.33 90.67 -8.66 169.32 -8.66 274.99v317.51h58.55v-674h-59.19l-242.81 375.5c-49.01 77.01 -94.68 149.99 -129.35 220.31l-2.33 -1c5 -83.66 6.33 -159.3 6.33 -271.3
v-323.51zM347.25 703.66h-47.57l-106.01 109.98h59.6l70.36 -72.01h2l68.36 72.01h56.93z" />
    <glyph glyph-name="N_uni0302" unicode="&#xe002;" horiz-adv-x="644" 
d="M137.9 0h-57.88v674h61.5l247.49 -379.19c52.68 -82.35 91.68 -147.99 124.35 -214.31l2 1c-7.33 90.67 -8.66 169.32 -8.66 274.99v317.51h58.55v-674h-59.19l-242.81 375.5c-49.01 77.01 -94.68 149.99 -129.35 220.31l-2.33 -1c5 -83.66 6.33 -159.3 6.33 -271.3
v-323.51zM297.68 820.65h47.57l106.01 -110.65h-59.6l-69.36 72.35h-2l-69.36 -72.35h-56.93z" />
    <glyph glyph-name="uni0145" unicode="&#x145;" horiz-adv-x="644" 
d="M137.9 0h-57.88v674h61.5l247.49 -379.19c52.68 -82.35 91.68 -147.99 124.35 -214.31l2 1c-7.33 90.67 -8.66 169.32 -8.66 274.99v317.51h58.55v-674h-59.19l-242.81 375.5c-49.01 77.01 -94.68 149.99 -129.35 220.31l-2.33 -1c5 -83.66 6.33 -159.3 6.33 -271.3
v-323.51zM267.32 -212.96l-14.99 30.95c40.68 6 79.02 25.33 79.02 67.01c0 24 -16.33 47 -36.01 61l48.25 12.66c20 -12.33 39.67 -39.66 39.67 -71.32c0 -68.98 -65.66 -96.3 -115.94 -100.3z" />
    <glyph glyph-name="Obreve" unicode="&#x14e;" horiz-adv-x="676" 
d="M342.97 685c174.62 0 296.3 -134.97 296.3 -341c0 -236.02 -143.68 -355 -304.96 -355c-169.96 0 -296.97 133.31 -296.97 341.33c0 218.69 133 354.67 305.63 354.67zM339.64 634.77c-162.09 0 -238.78 -148.41 -238.78 -302.44c0 -149.36 84.7 -293.1 237.11 -293.1
c152.74 0 238.11 139.06 238.11 301.44c0 139.36 -75.36 294.1 -236.44 294.1zM220.67 824.64h39.94c6.34 -23.67 25.68 -50.34 77.36 -50.34c51.35 0 71.69 23.67 76.69 50.34h39.61c-1 -52.97 -35.99 -97.96 -117.97 -97.96c-79.97 0 -114.63 44.32 -115.63 97.96z" />
    <glyph glyph-name="Ohungarumlaut" unicode="&#x150;" horiz-adv-x="676" 
d="M342.97 685c174.62 0 296.3 -134.97 296.3 -341c0 -236.02 -143.68 -355 -304.96 -355c-169.96 0 -296.97 133.31 -296.97 341.33c0 218.69 133 354.67 305.63 354.67zM339.64 634.77c-162.09 0 -238.78 -148.41 -238.78 -302.44c0 -149.36 84.7 -293.1 237.11 -293.1
c152.74 0 238.11 139.06 238.11 301.44c0 139.36 -75.36 294.1 -236.44 294.1zM333.41 827.32h76.57l-115.35 -109.99h-47.25zM466.67 827.32h76.91l-115.69 -109.99h-47.25z" />
    <glyph glyph-name="Omacron" unicode="&#x14c;" horiz-adv-x="676" 
d="M342.97 685c174.62 0 296.3 -134.97 296.3 -341c0 -236.02 -143.68 -355 -304.96 -355c-169.96 0 -296.97 133.31 -296.97 341.33c0 218.69 133 354.67 305.63 354.67zM339.64 634.77c-162.09 0 -238.78 -148.41 -238.78 -302.44c0 -149.36 84.7 -293.1 237.11 -293.1
c152.74 0 238.11 139.06 238.11 301.44c0 139.36 -75.36 294.1 -236.44 294.1zM222.99 784.62h231.96v-44.95h-231.96v44.95z" />
    <glyph glyph-name="Oslashacute" unicode="&#x1fe;" horiz-adv-x="676" 
d="M95.25 -32.95l-35.6 28.28l64.68 88.67c-54.66 60 -86.99 146.99 -86.99 248.33c0 219.03 136.34 352.67 304.97 352.67c64.01 0 125.36 -20.01 175.37 -60.37l61.01 81l38.93 -26.62l-64.01 -86.67c53.99 -60.33 85.66 -147.66 85.66 -248.67
c0 -241.03 -148.35 -354.67 -299.3 -354.67c-68.02 0 -131.04 21.68 -181.05 62.71zM160.59 135.22l325.48 444.17c-38.69 34.36 -87.39 55.71 -146.1 55.71c-162.41 0 -240.43 -152.75 -240.43 -297.1c0 -86.39 24.02 -147.76 59.38 -203.78zM516.35 540.46
l-325.82 -443.51c39.03 -37.03 82.72 -58.05 147.44 -58.05c155.07 0 239.1 143.74 239.1 301.77c0 65.04 -14.68 134.75 -57.72 199.79h-3zM402.05 832.99h83.89l-129.68 -113.65h-50.56z" />
    <glyph glyph-name="Racute" unicode="&#x154;" horiz-adv-x="515" 
d="M80.02 0v665c41.99 9 101.64 14 152.26 14c89.65 0 146.3 -18.34 186.29 -55.67c30.65 -28.66 48.98 -73.99 48.98 -122.64c0 -90.34 -54.66 -148.67 -130.35 -174.68v-2.33c53.34 -17.33 86.35 -67.34 102.35 -140.69c22.67 -101.37 36.66 -156.32 50.66 -182.99h-63.2
c-10.33 19.67 -25.33 78.34 -43.66 163.01c-20 95.68 -60.02 136.71 -145.72 140.38h-97.41v-303.39h-60.2zM140.22 622.09v-270.79h101.06c100.37 0 165.4 55.69 165.4 140.73c0 97.72 -71.71 138.4 -173.09 138.73c-44.68 0 -77.36 -4.67 -93.37 -8.67zM304.01 826.99
h84.56l-130.01 -113.32h-50.23z" />
    <glyph glyph-name="Rcaron" unicode="&#x158;" horiz-adv-x="515" 
d="M80.02 0v665c41.99 9 101.64 14 152.26 14c89.65 0 146.3 -18.34 186.29 -55.67c30.65 -28.66 48.98 -73.99 48.98 -122.64c0 -90.34 -54.66 -148.67 -130.35 -174.68v-2.33c53.34 -17.33 86.35 -67.34 102.35 -140.69c22.67 -101.37 36.66 -156.32 50.66 -182.99h-63.2
c-10.33 19.67 -25.33 78.34 -43.66 163.01c-20 95.68 -60.02 136.71 -145.72 140.38h-97.41v-303.39h-60.2zM140.22 622.09v-270.79h101.06c100.37 0 165.4 55.69 165.4 140.73c0 97.72 -71.71 138.4 -173.09 138.73c-44.68 0 -77.36 -4.67 -93.37 -8.67zM280.57 713.67
h-47.57l-106.01 110.65h59.6l69.36 -72.68h2l69.03 72.68h57.26z" />
    <glyph glyph-name="uni0156" unicode="&#x156;" horiz-adv-x="515" 
d="M80.02 0v665c41.99 9 101.64 14 152.26 14c89.65 0 146.3 -18.34 186.29 -55.67c30.65 -28.66 48.98 -73.99 48.98 -122.64c0 -90.34 -54.66 -148.67 -130.35 -174.68v-2.33c53.34 -17.33 86.35 -67.34 102.35 -140.69c22.67 -101.37 36.66 -156.32 50.66 -182.99h-63.2
c-10.33 19.67 -25.33 78.34 -43.66 163.01c-20 95.68 -60.02 136.71 -145.72 140.38h-97.41v-303.39h-60.2zM140.22 622.09v-270.79h101.06c100.37 0 165.4 55.69 165.4 140.73c0 97.72 -71.71 138.4 -173.09 138.73c-44.68 0 -77.36 -4.67 -93.37 -8.67zM205.3 -204.28
l-14.32 30.95c40.68 6.33 79.02 25.33 79.02 67.34c0 23.67 -17 46.67 -36.68 60.67l48.92 12.66c20 -12.33 39.67 -39.33 39.67 -70.99c0 -69.31 -65.66 -96.63 -116.61 -100.63z" />
    <glyph glyph-name="Sacute" unicode="&#x15a;" horiz-adv-x="473" 
d="M42 34.34l19.32 50.89c38.33 -25.34 92.65 -44.67 150.64 -44.67c96.37 0 155.07 53.7 155.07 131.75c0 71.71 -38.01 113.07 -133.03 150.08c-109.33 38.33 -175.32 94.66 -175.32 187.65c0 100.98 83.65 174.96 203.26 174.96c64.98 0 113.64 -16.67 138.95 -32.33
l-19.98 -50.23c-19.32 12.67 -62.98 32 -121.97 32c-103.39 0 -139.73 -65.05 -139.73 -115.74c0 -71.04 42.34 -106.73 138.02 -144.07c111.99 -44.67 170.66 -96.32 170.66 -196.66c0 -99.98 -72.31 -187.97 -221.26 -187.97c-60.31 0 -129.3 19 -164.63 44.34z
M300.68 826.99h84.22l-129.34 -113.32h-50.23z" />
    <glyph glyph-name="uni015E" unicode="&#x15e;" horiz-adv-x="473" 
d="M400.89 652.67l-19.98 -50.23c-19.32 12.67 -62.98 32 -121.97 32c-103.39 0 -139.73 -65.05 -139.73 -115.74c0 -71.04 42.34 -106.73 138.02 -144.07c111.99 -44.67 170.66 -96.32 170.66 -196.66c0 -87.32 -54.32 -164.98 -166.96 -183.64l-30.35 -47.01
c38 -5.66 69.33 -33.33 69.33 -71.65c0 -53.31 -46.31 -76.31 -95.97 -76.31c-23.99 0 -49.31 7 -65.3 16.33l12.99 37.63c15 -7.33 31.99 -13 54.33 -13c24.34 0 44.68 10.34 44.68 33.35c0 28.34 -33.68 40.01 -77.33 44.34l42.01 71.99h-8.69
c-60.31 0 -129.3 19 -164.63 44.34l19.32 50.89c38.33 -25.34 92.65 -44.67 150.64 -44.67c96.37 0 155.07 53.7 155.07 131.75c0 71.71 -38.01 113.07 -133.03 150.08c-109.33 38.33 -175.32 94.66 -175.32 187.65c0 100.98 83.65 174.96 203.26 174.96
c64.98 0 113.64 -16.67 138.95 -32.33z" />
    <glyph glyph-name="Scircumflex" unicode="&#x15c;" horiz-adv-x="473" 
d="M42 34.34l19.32 50.89c38.33 -25.34 92.65 -44.67 150.64 -44.67c96.37 0 155.07 53.7 155.07 131.75c0 71.71 -38.01 113.07 -133.03 150.08c-109.33 38.33 -175.32 94.66 -175.32 187.65c0 100.98 83.65 174.96 203.26 174.96c64.98 0 113.64 -16.67 138.95 -32.33
l-19.98 -50.23c-19.32 12.67 -62.98 32 -121.97 32c-103.39 0 -139.73 -65.05 -139.73 -115.74c0 -71.04 42.34 -106.73 138.02 -144.07c111.99 -44.67 170.66 -96.32 170.66 -196.66c0 -99.98 -72.31 -187.97 -221.26 -187.97c-60.31 0 -129.3 19 -164.63 44.34z
M213.33 824.32h47.57l106.01 -109.98h-59.6l-69.36 71.68h-2l-69.03 -71.68h-57.26z" />
    <glyph glyph-name="uni0218" unicode="&#x218;" horiz-adv-x="473" 
d="M42 34.34l19.32 50.89c38.33 -25.34 92.65 -44.67 150.64 -44.67c96.37 0 155.07 53.7 155.07 131.75c0 71.71 -38.01 113.07 -133.03 150.08c-109.33 38.33 -175.32 94.66 -175.32 187.65c0 100.98 83.65 174.96 203.26 174.96c64.98 0 113.64 -16.67 138.95 -32.33
l-19.98 -50.23c-19.32 12.67 -62.98 32 -121.97 32c-103.39 0 -139.73 -65.05 -139.73 -115.74c0 -71.04 42.34 -106.73 138.02 -144.07c111.99 -44.67 170.66 -96.32 170.66 -196.66c0 -99.98 -72.31 -187.97 -221.26 -187.97c-60.31 0 -129.3 19 -164.63 44.34z
M179.64 -213.29l-13.99 30.95c40.68 6.33 79.02 25.33 79.02 67.34c0 23.67 -17 46.67 -36.34 60.67l48.58 12.66c20 -12.33 39.67 -39.33 39.67 -70.99c0 -69.31 -65.66 -96.63 -116.94 -100.63z" />
    <glyph glyph-name="Tcaron" unicode="&#x164;" horiz-adv-x="475" 
d="M207.35 0v622.78h-214.38v51.22h490.96v-51.22h-215.38v-622.78h-61.2zM262.57 710h-47.57l-106.01 110.65h59.6l69.36 -72.35h2l69.03 72.35h57.26z" />
    <glyph glyph-name="uni021A" unicode="&#x21a;" horiz-adv-x="475" 
d="M207.35 0v622.78h-214.38v51.22h490.96v-51.22h-215.38v-622.78h-61.2zM175.31 -213.29l-14.32 30.95c41.01 6.33 78.35 25.33 78.35 67.34c0 23.67 -16 46.67 -36.01 60.67l48.92 12.66c20 -12.33 39.33 -39.33 39.33 -70.99c0 -69.31 -64.99 -96.63 -116.27 -100.63z
" />
    <glyph glyph-name="Ubreve" unicode="&#x16c;" horiz-adv-x="632" 
d="M79.69 674h60.53v-404.36c0 -164.4 75.71 -229.74 172.41 -229.74c107.37 0 180.08 70.02 180.08 229.74v404.36h61.2v-399.03c0 -207 -111.01 -285.97 -244.28 -285.97c-124.6 0 -229.94 72.3 -229.94 279.29v405.71zM199 823.65h39.94
c6.34 -23.67 25.68 -50.34 77.36 -50.34s72.02 23.67 77.02 50.34h39.61c-1 -52.64 -36.32 -97.96 -118.3 -97.96c-79.64 0 -114.3 44.32 -115.63 97.96z" />
    <glyph glyph-name="Uhungarumlaut" unicode="&#x170;" horiz-adv-x="632" 
d="M79.69 674h60.53v-404.36c0 -164.4 75.71 -229.74 172.41 -229.74c107.37 0 180.08 70.02 180.08 229.74v404.36h61.2v-399.03c0 -207 -111.01 -285.97 -244.28 -285.97c-124.6 0 -229.94 72.3 -229.94 279.29v405.71zM292.72 824.32h76.57l-115.02 -110.66h-47.25z
M425.98 824.32h76.91l-115.69 -110.66h-47.25z" />
    <glyph glyph-name="Umacron" unicode="&#x16a;" horiz-adv-x="632" 
d="M79.69 674h60.53v-404.36c0 -164.4 75.71 -229.74 172.41 -229.74c107.37 0 180.08 70.02 180.08 229.74v404.36h61.2v-399.03c0 -207 -111.01 -285.97 -244.28 -285.97c-124.6 0 -229.94 72.3 -229.94 279.29v405.71zM200.65 777.28h230.96v-44.28h-230.96v44.28z" />
    <glyph glyph-name="Uogonek" unicode="&#x172;" horiz-adv-x="632" 
d="M400.59 -143.04l10.32 -34.28c-17.65 -12.99 -49.64 -19.98 -71.95 -19.98c-50.64 0 -84.64 27.32 -84.64 75.98c0 41.32 29.33 80.98 57.67 110.65c-2 0 -4.67 -0.33 -6.67 -0.33c-123.62 3.66 -225.63 75.63 -225.63 279.29v405.71h60.53v-404.36
c0 -164.4 75.71 -229.74 172.41 -229.74c107.37 0 180.08 70.02 180.08 229.74v404.36h61.2v-399.03c0 -172.67 -79.68 -256.65 -182.65 -276.64c-28.34 -25 -64.35 -68.35 -64.35 -106.36c0 -30.01 20 -45.68 47.01 -45.68c16.67 0 33.34 4.67 46.67 10.67z" />
    <glyph glyph-name="Uring" unicode="&#x16e;" horiz-adv-x="632" 
d="M79.69 674h60.53v-404.36c0 -164.4 75.71 -229.74 172.41 -229.74c107.37 0 180.08 70.02 180.08 229.74v404.36h61.2v-399.03c0 -207 -111.01 -285.97 -244.28 -285.97c-124.6 0 -229.94 72.3 -229.94 279.29v405.71zM316.63 866.64c55.97 0 92.97 -38.66 92.97 -87.32
c0 -47.99 -40.33 -84.98 -92.97 -84.98c-54.64 0 -93.3 37.99 -93.3 84.65c0 47.99 37.33 87.65 93.3 87.65zM315.63 836.67c-30.67 0 -49.34 -26.67 -49.34 -57.68c0 -26.34 20.34 -53.01 49.34 -53.01c29.67 0 50.34 24.67 50.34 55.01c0 31.01 -20.67 55.68 -50.34 55.68
z" />
    <glyph glyph-name="Utilde" unicode="&#x168;" horiz-adv-x="632" 
d="M79.69 674h60.53v-404.36c0 -164.4 75.71 -229.74 172.41 -229.74c107.37 0 180.08 70.02 180.08 229.74v404.36h61.2v-399.03c0 -207 -111.01 -285.97 -244.28 -285.97c-124.6 0 -229.94 72.3 -229.94 279.29v405.71zM235.95 715.67h-37.62
c-1 50.95 22.99 91.28 63.98 91.28c20.66 0 35.32 -8.33 57.66 -20.67c16.33 -8.33 33 -17.33 49.34 -17.33c15.33 0 25 6.33 27 37.66h37.62c0.33 -51.61 -18.99 -85.61 -62.64 -85.61c-18.99 0 -36.32 7.33 -59.66 19.67c-19.67 10 -34.01 19 -49.01 19
c-17.34 0 -23.67 -18.34 -26.67 -44z" />
    <glyph glyph-name="Wacute" unicode="&#x1e82;" horiz-adv-x="828" 
d="M250.87 0h-60.85l-175.02 674h62.52l92.06 -367.13c22.01 -86.01 41.35 -168 54.02 -231.66h2.67c11 64.32 34.01 144.32 59.02 231.99l104.07 366.8h60.85l94.06 -365.45c20.34 -81.34 41.69 -164.02 51.69 -233.01h2.67c14.67 73.33 35.01 146.99 58.69 232.33
l103.74 366.13h62.2l-198.37 -674h-60.85l-96.39 375.79c-24.35 94.71 -39.69 161.38 -49.36 226.03h-2c-11.33 -64.32 -28.34 -130.32 -57.36 -225.36zM479.35 824.32h84.89l-130.01 -114.32h-50.23z" />
    <glyph glyph-name="Wcircumflex" unicode="&#x174;" horiz-adv-x="828" 
d="M250.87 0h-60.85l-175.02 674h62.52l92.06 -367.13c22.01 -86.01 41.35 -168 54.02 -231.66h2.67c11 64.32 34.01 144.32 59.02 231.99l104.07 366.8h60.85l94.06 -365.45c20.34 -81.34 41.69 -164.02 51.69 -233.01h2.67c14.67 73.33 35.01 146.99 58.69 232.33
l103.74 366.13h62.2l-198.37 -674h-60.85l-96.39 375.79c-24.35 94.71 -39.69 161.38 -49.36 226.03h-2c-11.33 -64.32 -28.34 -130.32 -57.36 -225.36zM389.33 820.65h47.57l106.34 -110.65h-59.6l-69.36 72.35h-2l-69.36 -72.35h-56.93z" />
    <glyph glyph-name="Wdieresis" unicode="&#x1e84;" horiz-adv-x="828" 
d="M250.87 0h-60.85l-175.02 674h62.52l92.06 -367.13c22.01 -86.01 41.35 -168 54.02 -231.66h2.67c11 64.32 34.01 144.32 59.02 231.99l104.07 366.8h60.85l94.06 -365.45c20.34 -81.34 41.69 -164.02 51.69 -233.01h2.67c14.67 73.33 35.01 146.99 58.69 232.33
l103.74 366.13h62.2l-198.37 -674h-60.85l-96.39 375.79c-24.35 94.71 -39.69 161.38 -49.36 226.03h-2c-11.33 -64.32 -28.34 -130.32 -57.36 -225.36zM327.3 724.35c-24.98 0 -40.96 19.65 -40.96 43.63c0 22.98 17.65 42.63 41.96 42.63
c23.65 0 39.63 -19.32 39.63 -42.63c0 -23.98 -14.98 -43.63 -40.63 -43.63zM503.59 724.35c-24.98 0 -40.63 19.65 -40.63 43.63c0 22.98 17.65 42.63 41.63 42.63c23.98 0 39.96 -19.32 39.96 -42.63c0 -23.98 -14.98 -43.63 -40.96 -43.63z" />
    <glyph glyph-name="Wgrave" unicode="&#x1e80;" horiz-adv-x="828" 
d="M250.87 0h-60.85l-175.02 674h62.52l92.06 -367.13c22.01 -86.01 41.35 -168 54.02 -231.66h2.67c11 64.32 34.01 144.32 59.02 231.99l104.07 366.8h60.85l94.06 -365.45c20.34 -81.34 41.69 -164.02 51.69 -233.01h2.67c14.67 73.33 35.01 146.99 58.69 232.33
l103.74 366.13h62.2l-198.37 -674h-60.85l-96.39 375.79c-24.35 94.71 -39.69 161.38 -49.36 226.03h-2c-11.33 -64.32 -28.34 -130.32 -57.36 -225.36zM273 824.32h83.89l95.68 -113.99h-50.56z" />
    <glyph glyph-name="Ycircumflex" unicode="&#x176;" horiz-adv-x="515" 
d="M289.21 0h-60.53v290.02l-214.34 383.98h68.85l105.72 -196.05c27.34 -52.34 50.69 -94.68 73.03 -143.02h2c20.34 45.34 46.02 91.35 74.7 143.69l109.06 195.38h68.85l-227.34 -384.32v-289.68zM233.65 820.65h47.57l106.01 -110.65h-59.6l-69.36 72.35h-2
l-69.03 -72.35h-57.26z" />
    <glyph glyph-name="Ygrave" unicode="&#x1ef2;" horiz-adv-x="515" 
d="M289.21 0h-60.53v290.02l-214.34 383.98h68.85l105.72 -196.05c27.34 -52.34 50.69 -94.68 73.03 -143.02h2c20.34 45.34 46.02 91.35 74.7 143.69l109.06 195.38h68.85l-227.34 -384.32v-289.68zM127.65 815.31h84.89l95.35 -113.99h-50.23z" />
    <glyph glyph-name="uni0232" unicode="&#x232;" horiz-adv-x="515" 
d="M289.21 0h-60.53v290.02l-214.34 383.98h68.85l105.72 -196.05c27.34 -52.34 50.69 -94.68 73.03 -143.02h2c20.34 45.34 46.02 91.35 74.7 143.69l109.06 195.38h68.85l-227.34 -384.32v-289.68zM142.29 777.28h230.96v-44.28h-230.96v44.28z" />
    <glyph glyph-name="Zacute" unicode="&#x179;" horiz-adv-x="543" 
d="M32.68 0v38.27l395.44 581.84v3h-362.77v50.89h440.93v-38.93l-395.45 -581.18v-3h400.45v-50.89h-478.6zM336.39 824.32h83.89l-129.01 -114.32h-50.9z" />
    <glyph glyph-name="Zdotaccent" unicode="&#x17b;" horiz-adv-x="543" 
d="M32.68 0v38.27l395.44 581.84v3h-362.77v50.89h440.93v-38.93l-395.45 -581.18v-3h400.45v-50.89h-478.6zM275.64 723.35c-23.64 0 -41.29 20.65 -41.29 42.63c0 21.64 17.98 42.63 41.96 42.63c23.31 0 39.96 -20.99 39.96 -42.63c0 -21.98 -16.65 -42.63 -40.63 -42.63
z" />
    <glyph glyph-name="AEacute" unicode="&#x1fc;" horiz-adv-x="754" 
d="M60.19 0h-62.53l316.71 674h383.81v-50.89h-290.35l28.68 -244.48h249.66v-51.23h-242.01l33.35 -276.51h243.65v-50.89h-295.2l-32.68 260.11h-211.02zM204.56 309.34h182.74l-24.01 206.06c-3.33 32.67 -10 79.69 -12 114.36h-4
c-12.67 -32 -30.01 -70.67 -46.35 -108.68zM491.35 824.32h83.89l-129.01 -114.32h-50.9z" />
    <glyph glyph-name="abreve" unicode="&#x103;" horiz-adv-x="463" 
d="M397.55 0h-55.21l-7 66.36h-3c-24.32 -37.33 -76.99 -77.36 -151.35 -77.36c-96.66 0 -143.31 68.33 -143.31 134.31c0 112.98 99.98 178.99 292.34 177.32v11.34c0 45.36 -9.66 132.77 -118.71 132.1c-42.99 0 -87.98 -11.99 -121.98 -36l-16.65 42.59
c42.01 28.01 97.33 41.66 146.27 41.66c141.97 0 171.27 -103.01 171.27 -192.64v-185.02c0 -39.32 2 -78.98 7.33 -114.66zM330.68 156.97v96.73c-102.03 2.67 -230.46 -13.66 -230.46 -121.73c0 -65.04 43.36 -94.72 91.71 -94.72c74.39 0 117.74 46.03 133.75 91.05
c3 9.67 5 19.67 5 28.67zM113.65 677.98h41.28c6 -40.34 34.35 -72.35 76.69 -72.35c50.35 0 73.69 38.68 76.69 72.35h41.28c0 -70.65 -48.33 -116.63 -117.97 -116.63c-85.99 0 -117.97 62 -117.97 116.63z" />
    <glyph glyph-name="amacron" unicode="&#x101;" horiz-adv-x="463" 
d="M397.55 0h-55.21l-7 66.36h-3c-24.32 -37.33 -76.99 -77.36 -151.35 -77.36c-96.66 0 -143.31 68.33 -143.31 134.31c0 112.98 99.98 178.99 292.34 177.32v11.34c0 45.36 -9.66 132.77 -118.71 132.1c-42.99 0 -87.98 -11.99 -121.98 -36l-16.65 42.59
c42.01 28.01 97.33 41.66 146.27 41.66c141.97 0 171.27 -103.01 171.27 -192.64v-185.02c0 -39.32 2 -78.98 7.33 -114.66zM330.68 156.97v96.73c-102.03 2.67 -230.46 -13.66 -230.46 -121.73c0 -65.04 43.36 -94.72 91.71 -94.72c74.39 0 117.74 46.03 133.75 91.05
c3 9.67 5 19.67 5 28.67zM124.98 633.62h214.28v-45.61h-214.28v45.61z" />
    <glyph glyph-name="aogonek" unicode="&#x105;" horiz-adv-x="463" 
d="M89.33 408.07l-16.65 42.59c42.01 28.01 97.33 41.66 146.27 41.66c141.97 0 171.27 -103.01 171.27 -192.64v-185.02c0 -43.66 2 -80.65 8 -114.66h-12.27c-17.68 -21.34 -47.04 -67.03 -47.04 -106.72c0 -33.33 20.67 -48.66 48.67 -48.66c19 0 33.67 4 46 10
l10.65 -35.28c-18.98 -14.32 -49.97 -19.98 -72.95 -19.98c-48.32 0 -83.64 27.32 -83.64 77.63c0 50.67 32.68 96 54.03 127.35l-6.33 62.02h-3c-24.32 -37.33 -76.99 -77.36 -151.35 -77.36c-96.66 0 -143.31 68.33 -143.31 134.31c0 112.98 99.98 178.99 292.34 177.32
v11.34c0 45.36 -9.66 132.77 -118.71 132.1c-42.99 0 -87.98 -11.99 -121.98 -36zM330.68 156.97v96.73c-102.03 2.67 -230.46 -13.66 -230.46 -121.73c0 -65.04 43.36 -94.72 91.71 -94.72c74.39 0 117.74 46.03 133.75 91.05c3 9.67 5 19.67 5 28.67z" />
    <glyph glyph-name="a.superior" horiz-adv-x="332" 
d="M289.59 266h-45.93l-4.66 45.35h-2c-17.66 -23.33 -53.33 -50.35 -101.67 -50.35c-66.67 0 -101.66 43 -101.66 94.33c0 69.32 69.65 117 201.67 112.66v11.34c0 18.01 -10.67 71.38 -79.36 71.38c-29.99 0 -58.98 -7.66 -83.32 -27l-13.99 34.29
c30.34 23.01 71 33 106.63 33c96.65 0 118.96 -68.67 118.96 -140.67v-106.33c0 -26.33 1.33 -52.66 5.33 -78zM235.67 367.98v63.04c-67.02 2.34 -151.41 -7.99 -151.41 -73.7c0 -37.02 30.35 -57.03 63.36 -57.03c34.69 0 61.03 19.01 75.37 39.35
c8.01 10.67 12.68 22.01 12.68 28.34z" />
    <glyph glyph-name="cacute" unicode="&#x107;" horiz-adv-x="446" 
d="M400.32 66.58l13.66 -46.57c-21.66 -11.33 -71.99 -30.01 -139.67 -30.01c-141.31 0 -234.3 99.67 -234.3 245.66c0 151.01 103.34 256.33 251.96 256.33c56.69 0 104.03 -15.68 124.68 -28.35l-17.99 -48.57c-23.01 12.67 -58.69 26.35 -110.04 26.35
c-123.06 0 -187.08 -93.39 -187.08 -202.43c0 -120.71 76.69 -198.42 182.74 -198.42c54.69 0 90.37 15.01 116.04 26.01zM306.69 689.65h78.91l-122 -139.65h-45.58z" />
    <glyph glyph-name="ccaron" unicode="&#x10d;" horiz-adv-x="446" 
d="M400.32 66.58l13.66 -46.57c-21.66 -11.33 -71.99 -30.01 -139.67 -30.01c-141.31 0 -234.3 99.67 -234.3 245.66c0 151.01 103.34 256.33 251.96 256.33c56.69 0 104.03 -15.68 124.68 -28.35l-17.99 -48.57c-23.01 12.67 -58.69 26.35 -110.04 26.35
c-123.06 0 -187.08 -93.39 -187.08 -202.43c0 -120.71 76.69 -198.42 182.74 -198.42c54.69 0 90.37 15.01 116.04 26.01zM283.28 550h-46.92l-94.66 139.65h54.27l62.35 -98.35h2l63.02 98.35h51.26z" />
    <glyph glyph-name="ccircumflex" unicode="&#x109;" horiz-adv-x="446" 
d="M400.32 66.58l13.66 -46.57c-21.66 -11.33 -71.99 -30.01 -139.67 -30.01c-141.31 0 -234.3 99.67 -234.3 245.66c0 151.01 103.34 256.33 251.96 256.33c56.69 0 104.03 -15.68 124.68 -28.35l-17.99 -48.57c-23.01 12.67 -58.69 26.35 -110.04 26.35
c-123.06 0 -187.08 -93.39 -187.08 -202.43c0 -120.71 76.69 -198.42 182.74 -198.42c54.69 0 90.37 15.01 116.04 26.01zM235.7 689.65h43.58l94.66 -139.65h-54.6l-60.68 98.35h-2l-61.35 -98.35h-51.6z" />
    <glyph glyph-name="cdotaccent" unicode="&#x10b;" horiz-adv-x="446" 
d="M400.32 66.58l13.66 -46.57c-21.66 -11.33 -71.99 -30.01 -139.67 -30.01c-141.31 0 -234.3 99.67 -234.3 245.66c0 151.01 103.34 256.33 251.96 256.33c56.69 0 104.03 -15.68 124.68 -28.35l-17.99 -48.57c-23.01 12.67 -58.69 26.35 -110.04 26.35
c-123.06 0 -187.08 -93.39 -187.08 -202.43c0 -120.71 76.69 -198.42 182.74 -198.42c54.69 0 90.37 15.01 116.04 26.01zM259.64 575.36c-24.31 0 -42.29 20.65 -42.29 43.63c0 22.97 18.98 43.96 43.29 43.96c22.98 0 40.63 -20.32 40.63 -43.96
c0 -22.98 -16.65 -43.63 -41.63 -43.63z" />
    <glyph glyph-name="dcaron" unicode="&#x10f;" horiz-adv-x="560" 
d="M411.71 710h60.53v-593.71c0 -38.31 1.67 -82.62 4 -116.29h-54.88l-3.33 88.69h-2c-25.66 -53.33 -83.32 -99.69 -169.02 -99.69c-117.67 0 -207 99 -207 243.32c-1 160.33 98.33 260 216.33 260c80.03 0 131.37 -40.36 153.37 -80.7h2v298.38zM411.71 196.97v92.04
c0 12.34 -1.67 29.35 -4.67 41.69c-15.68 61.36 -69.04 112.72 -143.08 112.72c-100.38 0 -162.42 -87.37 -162.42 -206.43c0 -104.7 52.02 -197.76 159.75 -197.76c65.7 0 126.4 43.02 145.75 118.4c3 12.67 4.67 24.67 4.67 39.34zM543.86 533.39l-24.94 24.31
c16.67 15.65 39.35 41.3 39.35 83.64c0 25 -16.01 49.33 -35.69 63.66l49.6 12.66c18 -11 37.34 -37.99 37.34 -71.66c0 -68.97 -50.66 -101.95 -65.66 -112.61z" />
    <glyph glyph-name="ebreve" unicode="&#x115;" horiz-adv-x="490" 
d="M448.6 238.73h-349.38c0.66 -142.45 82.02 -198.82 177.39 -198.82c67.69 0 104.35 13.01 133.33 26.34l12.99 -46.25c-22.29 -11.32 -72.61 -30 -154.3 -30c-141.63 0 -228.62 99.34 -228.62 241.99c0 155.38 90.02 260.33 219.63 260.33
c157.33 0 191.29 -145.03 191.29 -220.63c0 -14.65 -0.66 -24.63 -2.33 -32.96zM101.56 284.98h287.82c1 63.37 -25.68 160.42 -136.07 160.42c-100.39 0 -144.08 -90.71 -151.75 -160.42zM129 677.98h41.28c6 -40.34 34.35 -72.35 76.69 -72.35
c50.35 0 73.69 38.68 76.69 72.35h41.28c0 -70.65 -48.33 -116.63 -117.97 -116.63c-85.99 0 -117.97 62 -117.97 116.63z" />
    <glyph glyph-name="ecaron" unicode="&#x11b;" horiz-adv-x="490" 
d="M448.6 238.73h-349.38c0.66 -142.45 82.02 -198.82 177.39 -198.82c67.69 0 104.35 13.01 133.33 26.34l12.99 -46.25c-22.29 -11.32 -72.61 -30 -154.3 -30c-141.63 0 -228.62 99.34 -228.62 241.99c0 155.38 90.02 260.33 219.63 260.33
c157.33 0 191.29 -145.03 191.29 -220.63c0 -14.65 -0.66 -24.63 -2.33 -32.96zM101.56 284.98h287.82c1 63.37 -25.68 160.42 -136.07 160.42c-100.39 0 -144.08 -90.71 -151.75 -160.42zM271.6 550h-46.92l-94.66 139.65h54.27l62.35 -98.35h2l63.35 98.35h50.93z" />
    <glyph glyph-name="edotaccent" unicode="&#x117;" horiz-adv-x="490" 
d="M448.6 238.73h-349.38c0.66 -142.45 82.02 -198.82 177.39 -198.82c67.69 0 104.35 13.01 133.33 26.34l12.99 -46.25c-22.29 -11.32 -72.61 -30 -154.3 -30c-141.63 0 -228.62 99.34 -228.62 241.99c0 155.38 90.02 260.33 219.63 260.33
c157.33 0 191.29 -145.03 191.29 -220.63c0 -14.65 -0.66 -24.63 -2.33 -32.96zM101.56 284.98h287.82c1 63.37 -25.68 160.42 -136.07 160.42c-100.39 0 -144.08 -90.71 -151.75 -160.42zM248.3 575.36c-25.31 0 -42.29 20.65 -42.29 43.63
c0 22.97 18.65 43.96 42.29 43.96c23.31 0 41.63 -20.32 41.63 -43.96c0 -22.98 -16.65 -43.63 -41.63 -43.63z" />
    <glyph glyph-name="emacron" unicode="&#x113;" horiz-adv-x="490" 
d="M448.6 238.73h-349.38c0.66 -142.45 82.02 -198.82 177.39 -198.82c67.69 0 104.35 13.01 133.33 26.34l12.99 -46.25c-22.29 -11.32 -72.61 -30 -154.3 -30c-141.63 0 -228.62 99.34 -228.62 241.99c0 155.38 90.02 260.33 219.63 260.33
c157.33 0 191.29 -145.03 191.29 -220.63c0 -14.65 -0.66 -24.63 -2.33 -32.96zM101.56 284.98h287.82c1 63.37 -25.68 160.42 -136.07 160.42c-100.39 0 -144.08 -90.71 -151.75 -160.42zM140.33 633.62h214.28v-45.61h-214.28v45.61z" />
    <glyph glyph-name="eogonek" unicode="&#x119;" horiz-adv-x="490" 
d="M370.26 -144.71l10.65 -34.95c-19.32 -12.65 -44.97 -19.31 -70.95 -19.31c-49.98 0 -83.97 26.99 -83.97 75.65c0 46.99 41 91.66 75.01 113.32v1c-11.01 -1 -20.35 -1 -33.03 -1c-140.97 0 -227.96 99.67 -227.96 241.99c0 155.38 90.02 260.33 219.63 260.33
c157.33 0 191.29 -145.03 191.29 -220.63c0 -14.65 -0.66 -24.63 -2.33 -32.96h-349.38c0.66 -142.45 82.02 -198.82 177.39 -198.82c67.69 0 104.35 13.01 133.33 26.34l12.99 -46.25c-15 -7 -39.01 -14.67 -46.67 -17.67c-41.01 -17 -98.02 -67.34 -98.02 -111.69
c0 -31.68 21.34 -45.35 43.68 -45.35c14.67 0 35.01 4 48.34 10zM101.56 284.98h287.82c1 63.37 -25.68 160.42 -136.07 160.42c-100.39 0 -144.08 -90.71 -151.75 -160.42z" />
    <glyph glyph-name="gbreve" unicode="&#x11f;" horiz-adv-x="548" 
d="M419.7 481.32h54.89c-2 -35.67 -4 -74 -4 -126.97v-284.35c0 -119.04 -24.01 -182.35 -66.32 -221.67c-44.99 -42.66 -110.98 -57.33 -167.29 -57.33c-55.99 0 -117.98 14 -154.97 40.67l18.65 48.24c32.67 -21.34 80.66 -39.34 142 -39.34
c97.37 0 168.06 50.35 168.06 185.75v63.38h-2c-25.66 -47.68 -80.34 -89.04 -162.71 -89.04c-120.67 0 -206 104.01 -206 236c0 166.01 109.01 255.66 216.66 255.66c91.37 0 138.04 -49.36 158.37 -89.36h2zM410.39 201.31v93.7c0 16.34 -1.67 30.68 -5.67 44.02
c-18.68 55.69 -67.04 104.39 -140.42 104.39c-96.06 0 -162.76 -79.71 -162.76 -201.76c0 -103.71 54.03 -192.09 161.09 -192.09c60.7 0 117.07 37.35 139.42 102.06c5.67 15.67 8.34 33.34 8.34 49.68zM145.32 677.98h41.28c6 -40.34 34.35 -72.35 76.69 -72.35
c50.35 0 73.69 38.68 76.69 72.35h41.28c0 -70.65 -48.33 -116.63 -117.97 -116.63c-85.99 0 -117.97 62 -117.97 116.63z" />
    <glyph glyph-name="gcircumflex" unicode="&#x11d;" horiz-adv-x="548" 
d="M419.7 481.32h54.89c-2 -35.67 -4 -74 -4 -126.97v-284.35c0 -119.04 -24.01 -182.35 -66.32 -221.67c-44.99 -42.66 -110.98 -57.33 -167.29 -57.33c-55.99 0 -117.98 14 -154.97 40.67l18.65 48.24c32.67 -21.34 80.66 -39.34 142 -39.34
c97.37 0 168.06 50.35 168.06 185.75v63.38h-2c-25.66 -47.68 -80.34 -89.04 -162.71 -89.04c-120.67 0 -206 104.01 -206 236c0 166.01 109.01 255.66 216.66 255.66c91.37 0 138.04 -49.36 158.37 -89.36h2zM410.39 201.31v93.7c0 16.34 -1.67 30.68 -5.67 44.02
c-18.68 55.69 -67.04 104.39 -140.42 104.39c-96.06 0 -162.76 -79.71 -162.76 -201.76c0 -103.71 54.03 -192.09 161.09 -192.09c60.7 0 117.07 37.35 139.42 102.06c5.67 15.67 8.34 33.34 8.34 49.68zM250.01 694.32h44.25l93.99 -139.98h-53.93l-61.35 97.68h-2
l-61.35 -97.68h-51.6z" />
    </font>
</defs>
</svg>
